<?xml version="1.0" encoding="UTF-8" standalone="no"?>
<!DOCTYPE svg PUBLIC "-//W3C//DTD SVG 1.1//EN"
 "http://www.w3.org/Graphics/SVG/1.1/DTD/svg11.dtd">
<!-- Generated by graphviz version 9.0.0 (20230911.1827)
 -->
<!-- Title: G Pages: 1 -->
<svg width="529pt" height="526pt"
 viewBox="0.00 0.00 529.00 525.81" xmlns="http://www.w3.org/2000/svg" xmlns:xlink="http://www.w3.org/1999/xlink">
<g id="graph0" class="graph" transform="scale(1 1) rotate(0) translate(4 521.81)">
<title>G</title>
<polygon fill="white" stroke="none" points="-4,4 -4,-521.81 525,-521.81 525,4 -4,4"/>
<g id="clust1" class="cluster">
<title>GSS</title>
<polygon fill="none" stroke="black" points="8,-348.92 8,-486.94 150,-486.94 150,-348.92 8,-348.92"/>
<text text-anchor="start" x="16" y="-473.44" font-family="Menlo" font-size="10.00" fill="red">↵abab↵</text>
</g>
<g id="clust2" class="cluster">
<title>clusterB</title>
<polygon fill="none" stroke="black" points="158,-248.53 158,-509.81 363,-509.81 363,-248.53 158,-248.53"/>
<text text-anchor="start" x="166" y="-496.31" font-family="Menlo" font-size="10.00">B = &quot;b&quot; .</text>
</g>
<g id="clust6" class="cluster">
<title>clusterS</title>
<polygon fill="none" stroke="black" points="371,-8 371,-509.81 513,-509.81 513,-8 371,-8"/>
<text text-anchor="start" x="379" y="-496.31" font-family="Menlo" font-size="10.00">S = &quot;a&quot; B &quot;a&quot; B .</text>
</g>
<!-- 0.0 -->
<g id="node1" class="node">
<title>0.0</title>
<path fill="none" stroke="gray" d="M133.96,-458.19C133.96,-458.19 126.04,-458.19 126.04,-458.19 122.08,-458.19 118.12,-454.23 118.12,-450.26 118.12,-450.26 118.12,-442.35 118.12,-442.35 118.12,-438.38 122.08,-434.43 126.04,-434.43 126.04,-434.43 133.96,-434.43 133.96,-434.43 137.92,-434.43 141.88,-438.38 141.88,-442.35 141.88,-442.35 141.88,-450.26 141.88,-450.26 141.88,-454.23 137.92,-458.19 133.96,-458.19"/>
<text text-anchor="start" x="121" y="-446.81" font-family="Menlo" font-size="10.00">S,0</text>
<text text-anchor="start" x="127.75" y="-438.7" font-family="Menlo" font-size="8.00" fill="gray"> </text>
</g>
<!-- 3.0 -->
<g id="node2" class="node">
<title>3.0</title>
<path fill="none" stroke="gray" d="M133.96,-380.68C133.96,-380.68 96.04,-380.68 96.04,-380.68 92.08,-380.68 88.12,-376.72 88.12,-372.75 88.12,-372.75 88.12,-364.84 88.12,-364.84 88.12,-360.88 92.08,-356.92 96.04,-356.92 96.04,-356.92 133.96,-356.92 133.96,-356.92 137.92,-356.92 141.88,-360.88 141.88,-364.84 141.88,-364.84 141.88,-372.75 141.88,-372.75 141.88,-376.72 137.92,-380.68 133.96,-380.68"/>
<text text-anchor="start" x="91" y="-369.3" font-family="Menlo" font-size="10.00">S=aB̲aB,0</text>
<text text-anchor="start" x="112.75" y="-361.19" font-family="Menlo" font-size="8.00" fill="gray"> </text>
</g>
<!-- 5.1 -->
<g id="node3" class="node">
<title>5.1</title>
<path fill="none" stroke="gray" d="M61.96,-380.68C61.96,-380.68 24.04,-380.68 24.04,-380.68 20.08,-380.68 16.12,-376.72 16.12,-372.75 16.12,-372.75 16.12,-364.84 16.12,-364.84 16.12,-360.88 20.08,-356.92 24.04,-356.92 24.04,-356.92 61.96,-356.92 61.96,-356.92 65.92,-356.92 69.88,-360.88 69.88,-364.84 69.88,-364.84 69.88,-372.75 69.88,-372.75 69.88,-376.72 65.92,-380.68 61.96,-380.68"/>
<text text-anchor="start" x="19" y="-369.3" font-family="Menlo" font-size="10.00">S=aBaB̲,1</text>
<text text-anchor="start" x="40.75" y="-361.19" font-family="Menlo" font-size="8.00" fill="gray"> </text>
</g>
<!-- 7.1 -->
<g id="node4" class="node">
<title>7.1</title>
<path fill="none" stroke="gray" d="M91.96,-458.19C91.96,-458.19 84.04,-458.19 84.04,-458.19 80.08,-458.19 76.12,-454.23 76.12,-450.26 76.12,-450.26 76.12,-442.35 76.12,-442.35 76.12,-438.38 80.08,-434.43 84.04,-434.43 84.04,-434.43 91.96,-434.43 91.96,-434.43 95.92,-434.43 99.88,-438.38 99.88,-442.35 99.88,-442.35 99.88,-450.26 99.88,-450.26 99.88,-454.23 95.92,-458.19 91.96,-458.19"/>
<text text-anchor="start" x="79" y="-446.81" font-family="Menlo" font-size="10.00">B,1</text>
<text text-anchor="start" x="83.5" y="-438.7" font-family="Menlo" font-size="8.00" fill="gray"> 2</text>
</g>
<!-- 7.1&#45;&gt;3.0 -->
<g id="edge1" class="edge">
<title>7.1&#45;&gt;3.0</title>
<path fill="none" stroke="gray" d="M91.98,-434.16C96.65,-421.11 104.4,-399.43 109.6,-384.88"/>
<polygon fill="gray" stroke="gray" points="110.47,-385.59 110.49,-382.41 108.49,-384.88 110.47,-385.59"/>
</g>
<!-- 7.3 -->
<g id="node5" class="node">
<title>7.3</title>
<path fill="none" stroke="gray" d="M46.96,-458.19C46.96,-458.19 39.04,-458.19 39.04,-458.19 35.08,-458.19 31.12,-454.23 31.12,-450.26 31.12,-450.26 31.12,-442.35 31.12,-442.35 31.12,-438.38 35.08,-434.43 39.04,-434.43 39.04,-434.43 46.96,-434.43 46.96,-434.43 50.92,-434.43 54.88,-438.38 54.88,-442.35 54.88,-442.35 54.88,-450.26 54.88,-450.26 54.88,-454.23 50.92,-458.19 46.96,-458.19"/>
<text text-anchor="start" x="34" y="-446.81" font-family="Menlo" font-size="10.00">B,3</text>
<text text-anchor="start" x="38.5" y="-438.7" font-family="Menlo" font-size="8.00" fill="gray"> 4</text>
</g>
<!-- 7.3&#45;&gt;5.1 -->
<g id="edge2" class="edge">
<title>7.3&#45;&gt;5.1</title>
<path fill="none" stroke="gray" d="M43,-434.16C43,-421.23 43,-399.8 43,-385.26"/>
<polygon fill="gray" stroke="gray" points="44.05,-385.5 43,-382.5 41.95,-385.5 44.05,-385.5"/>
</g>
<!-- BR0C0 -->
<g id="node6" class="node">
<title>BR0C0</title>
<polygon fill="none" stroke="gray" points="249.88,-481.06 166.12,-481.06 166.12,-411.55 249.88,-411.55 249.88,-481.06"/>
<text text-anchor="start" x="205" y="-468.68" font-family="Menlo" font-size="10.00">7</text>
<text text-anchor="start" x="199" y="-455.93" font-family="Menlo" font-size="10.00">N B</text>
<text text-anchor="start" x="184" y="-443.18" font-family="Menlo" font-size="10.00">fi [&quot;b&quot;]</text>
<text text-anchor="start" x="169" y="-430.43" font-family="Menlo" font-size="10.00">fo [&quot;$&quot;, &quot;a&quot;]</text>
<text text-anchor="start" x="202" y="-417.68" font-family="Menlo" font-size="10.00">[]</text>
</g>
<!-- BR0C1 -->
<g id="node7" class="node">
<title>BR0C1</title>
<polygon fill="none" stroke="gray" points="351.88,-481.06 268.12,-481.06 268.12,-411.55 351.88,-411.55 351.88,-481.06"/>
<text text-anchor="start" x="307" y="-468.68" font-family="Menlo" font-size="10.00">8</text>
<text text-anchor="start" x="298" y="-455.93" font-family="Menlo" font-size="10.00">ALT </text>
<text text-anchor="start" x="286" y="-443.18" font-family="Menlo" font-size="10.00">fi [&quot;b&quot;]</text>
<text text-anchor="start" x="271" y="-430.43" font-family="Menlo" font-size="10.00">fo [&quot;$&quot;, &quot;a&quot;]</text>
<text text-anchor="start" x="304" y="-417.68" font-family="Menlo" font-size="10.00">[]</text>
</g>
<!-- BR0C0&#45;&gt;BR0C1 -->
<g id="edge5" class="edge">
<title>BR0C0&#45;&gt;BR0C1</title>
<path fill="none" stroke="gray" d="M250.23,-446.31C254.67,-446.31 259.11,-446.31 263.54,-446.31"/>
<polygon fill="gray" stroke="gray" points="263.46,-447.36 266.46,-446.31 263.46,-445.26 263.46,-447.36"/>
</g>
<!-- BR1C0 -->
<!-- BR0C0&#45;&gt;BR1C0 -->
<!-- BR1C1 -->
<g id="node8" class="node">
<title>BR1C1</title>
<polygon fill="none" stroke="gray" points="354.88,-403.55 265.12,-403.55 265.12,-334.04 354.88,-334.04 354.88,-403.55"/>
<text text-anchor="start" x="307" y="-391.17" font-family="Menlo" font-size="10.00">9</text>
<text text-anchor="start" x="295" y="-378.42" font-family="Menlo" font-size="10.00">T &quot;b&quot;</text>
<text text-anchor="start" x="286" y="-365.67" font-family="Menlo" font-size="10.00">fi [&quot;b&quot;]</text>
<text text-anchor="start" x="271" y="-352.92" font-family="Menlo" font-size="10.00">fo [&quot;$&quot;, &quot;a&quot;]</text>
<text text-anchor="start" x="268" y="-340.17" font-family="Menlo" font-size="10.00">[1:1:2, 3:3:4]</text>
</g>
<!-- BR0C1&#45;&gt;BR1C1 -->
<g id="edge4" class="edge">
<title>BR0C1&#45;&gt;BR1C1</title>
<path fill="none" stroke="gray" d="M310,-411.08C310,-410.21 310,-409.33 310,-408.45"/>
<polygon fill="gray" stroke="gray" points="311.05,-408.56 310,-405.56 308.95,-408.56 311.05,-408.56"/>
</g>
<!-- BR2C1 -->
<g id="node9" class="node">
<title>BR2C1</title>
<polygon fill="none" stroke="gray" points="351.88,-326.04 268.12,-326.04 268.12,-256.53 351.88,-256.53 351.88,-326.04"/>
<text text-anchor="start" x="304" y="-313.66" font-family="Menlo" font-size="10.00">10</text>
<text text-anchor="start" x="298" y="-300.91" font-family="Menlo" font-size="10.00">END </text>
<text text-anchor="start" x="289" y="-288.16" font-family="Menlo" font-size="10.00">fi [&quot;&quot;]</text>
<text text-anchor="start" x="271" y="-275.41" font-family="Menlo" font-size="10.00">fo [&quot;$&quot;, &quot;a&quot;]</text>
<text text-anchor="start" x="304" y="-262.66" font-family="Menlo" font-size="10.00">[]</text>
</g>
<!-- BR1C1&#45;&gt;BR2C1 -->
<g id="edge3" class="edge">
<title>BR1C1&#45;&gt;BR2C1</title>
<path fill="none" stroke="gray" d="M310,-333.57C310,-332.7 310,-331.82 310,-330.94"/>
<polygon fill="gray" stroke="gray" points="311.05,-331.05 310,-328.05 308.95,-331.05 311.05,-331.05"/>
</g>
<!-- BR1C0&#45;&gt;BR1C1 -->
<!-- BR2C0 -->
<!-- BR1C0&#45;&gt;BR2C0 -->
<!-- BR2C0&#45;&gt;BR2C1 -->
<!-- SR0C0 -->
<g id="node12" class="node">
<title>SR0C0</title>
<polygon fill="none" stroke="gray" points="432.88,-481.06 379.12,-481.06 379.12,-411.55 432.88,-411.55 432.88,-481.06"/>
<text text-anchor="start" x="403" y="-468.68" font-family="Menlo" font-size="10.00">0</text>
<text text-anchor="start" x="397" y="-455.93" font-family="Menlo" font-size="10.00">N S</text>
<text text-anchor="start" x="382" y="-443.18" font-family="Menlo" font-size="10.00">fi [&quot;a&quot;]</text>
<text text-anchor="start" x="382" y="-430.43" font-family="Menlo" font-size="10.00">fo [&quot;$&quot;]</text>
<text text-anchor="start" x="400" y="-417.68" font-family="Menlo" font-size="10.00">[]</text>
</g>
<!-- SR0C1 -->
<g id="node13" class="node">
<title>SR0C1</title>
<polygon fill="none" stroke="gray" points="504.88,-481.06 451.12,-481.06 451.12,-411.55 504.88,-411.55 504.88,-481.06"/>
<text text-anchor="start" x="475" y="-468.68" font-family="Menlo" font-size="10.00">1</text>
<text text-anchor="start" x="466" y="-455.93" font-family="Menlo" font-size="10.00">ALT </text>
<text text-anchor="start" x="454" y="-443.18" font-family="Menlo" font-size="10.00">fi [&quot;a&quot;]</text>
<text text-anchor="start" x="454" y="-430.43" font-family="Menlo" font-size="10.00">fo [&quot;b&quot;]</text>
<text text-anchor="start" x="472" y="-417.68" font-family="Menlo" font-size="10.00">[]</text>
</g>
<!-- SR0C0&#45;&gt;SR0C1 -->
<g id="edge15" class="edge">
<title>SR0C0&#45;&gt;SR0C1</title>
<path fill="none" stroke="gray" d="M433.28,-446.31C437.65,-446.31 442.02,-446.31 446.38,-446.31"/>
<polygon fill="gray" stroke="gray" points="446.24,-447.36 449.24,-446.31 446.24,-445.26 446.24,-447.36"/>
</g>
<!-- SR1C0 -->
<!-- SR0C0&#45;&gt;SR1C0 -->
<!-- SR1C1 -->
<g id="node14" class="node">
<title>SR1C1</title>
<polygon fill="none" stroke="gray" points="504.88,-403.55 451.12,-403.55 451.12,-334.04 504.88,-334.04 504.88,-403.55"/>
<text text-anchor="start" x="475" y="-391.17" font-family="Menlo" font-size="10.00">2</text>
<text text-anchor="start" x="463" y="-378.42" font-family="Menlo" font-size="10.00">T &quot;a&quot;</text>
<text text-anchor="start" x="454" y="-365.67" font-family="Menlo" font-size="10.00">fi [&quot;a&quot;]</text>
<text text-anchor="start" x="454" y="-352.92" font-family="Menlo" font-size="10.00">fo [&quot;b&quot;]</text>
<text text-anchor="start" x="457" y="-340.17" font-family="Menlo" font-size="10.00">[0:0:1]</text>
</g>
<!-- SR0C1&#45;&gt;SR1C1 -->
<g id="edge14" class="edge">
<title>SR0C1&#45;&gt;SR1C1</title>
<path fill="none" stroke="gray" d="M478,-411.08C478,-410.21 478,-409.33 478,-408.45"/>
<polygon fill="gray" stroke="gray" points="479.05,-408.56 478,-405.56 476.95,-408.56 479.05,-408.56"/>
</g>
<!-- SR2C1 -->
<g id="node15" class="node">
<title>SR2C1</title>
<polygon fill="none" stroke="gray" points="504.88,-326.04 451.12,-326.04 451.12,-256.53 504.88,-256.53 504.88,-326.04"/>
<text text-anchor="start" x="475" y="-313.66" font-family="Menlo" font-size="10.00">3</text>
<text text-anchor="start" x="469" y="-300.91" font-family="Menlo" font-size="10.00">N B</text>
<text text-anchor="start" x="454" y="-288.16" font-family="Menlo" font-size="10.00">fi [&quot;b&quot;]</text>
<text text-anchor="start" x="454" y="-275.41" font-family="Menlo" font-size="10.00">fo [&quot;a&quot;]</text>
<text text-anchor="start" x="457" y="-262.66" font-family="Menlo" font-size="10.00">[0:1:2]</text>
</g>
<!-- SR1C1&#45;&gt;SR2C1 -->
<g id="edge13" class="edge">
<title>SR1C1&#45;&gt;SR2C1</title>
<path fill="none" stroke="gray" d="M478,-333.57C478,-332.7 478,-331.82 478,-330.94"/>
<polygon fill="gray" stroke="gray" points="479.05,-331.05 478,-328.05 476.95,-331.05 479.05,-331.05"/>
</g>
<!-- SR3C1 -->
<g id="node16" class="node">
<title>SR3C1</title>
<polygon fill="none" stroke="gray" points="504.88,-240.53 451.12,-240.53 451.12,-171.02 504.88,-171.02 504.88,-240.53"/>
<text text-anchor="start" x="475" y="-228.15" font-family="Menlo" font-size="10.00">4</text>
<text text-anchor="start" x="463" y="-215.4" font-family="Menlo" font-size="10.00">T &quot;a&quot;</text>
<text text-anchor="start" x="454" y="-202.65" font-family="Menlo" font-size="10.00">fi [&quot;a&quot;]</text>
<text text-anchor="start" x="454" y="-189.9" font-family="Menlo" font-size="10.00">fo [&quot;b&quot;]</text>
<text text-anchor="start" x="457" y="-177.15" font-family="Menlo" font-size="10.00">[1:2:3]</text>
</g>
<!-- SR2C1&#45;&gt;SR3C1 -->
<g id="edge12" class="edge">
<title>SR2C1&#45;&gt;SR3C1</title>
<path fill="none" stroke="gray" d="M478,-256.32C478,-252.68 478,-248.97 478,-245.28"/>
<polygon fill="gray" stroke="gray" points="479.05,-245.5 478,-242.5 476.95,-245.5 479.05,-245.5"/>
</g>
<!-- SR4C1 -->
<g id="node17" class="node">
<title>SR4C1</title>
<polygon fill="none" stroke="gray" points="504.88,-163.02 451.12,-163.02 451.12,-93.51 504.88,-93.51 504.88,-163.02"/>
<text text-anchor="start" x="475" y="-150.64" font-family="Menlo" font-size="10.00">5</text>
<text text-anchor="start" x="469" y="-137.89" font-family="Menlo" font-size="10.00">N B</text>
<text text-anchor="start" x="454" y="-125.14" font-family="Menlo" font-size="10.00">fi [&quot;b&quot;]</text>
<text text-anchor="start" x="454" y="-112.39" font-family="Menlo" font-size="10.00">fo [&quot;$&quot;]</text>
<text text-anchor="start" x="457" y="-99.64" font-family="Menlo" font-size="10.00">[1:3:4]</text>
</g>
<!-- SR3C1&#45;&gt;SR4C1 -->
<g id="edge11" class="edge">
<title>SR3C1&#45;&gt;SR4C1</title>
<path fill="none" stroke="gray" d="M478,-170.55C478,-169.68 478,-168.8 478,-167.92"/>
<polygon fill="gray" stroke="gray" points="479.05,-168.03 478,-165.03 476.95,-168.03 479.05,-168.03"/>
</g>
<!-- SR5C1 -->
<g id="node18" class="node">
<title>SR5C1</title>
<polygon fill="none" stroke="gray" points="504.88,-85.51 451.12,-85.51 451.12,-16 504.88,-16 504.88,-85.51"/>
<text text-anchor="start" x="475" y="-73.13" font-family="Menlo" font-size="10.00">6</text>
<text text-anchor="start" x="466" y="-60.38" font-family="Menlo" font-size="10.00">END </text>
<text text-anchor="start" x="457" y="-47.63" font-family="Menlo" font-size="10.00">fi [&quot;&quot;]</text>
<text text-anchor="start" x="454" y="-34.88" font-family="Menlo" font-size="10.00">fo [&quot;$&quot;]</text>
<text text-anchor="start" x="472" y="-22.13" font-family="Menlo" font-size="10.00">[]</text>
</g>
<!-- SR4C1&#45;&gt;SR5C1 -->
<g id="edge10" class="edge">
<title>SR4C1&#45;&gt;SR5C1</title>
<path fill="none" stroke="gray" d="M478,-93.04C478,-92.17 478,-91.29 478,-90.41"/>
<polygon fill="gray" stroke="gray" points="479.05,-90.52 478,-87.52 476.95,-90.52 479.05,-90.52"/>
</g>
<!-- SR1C0&#45;&gt;SR1C1 -->
<!-- SR2C0 -->
<!-- SR1C0&#45;&gt;SR2C0 -->
<!-- SR2C0&#45;&gt;SR2C1 -->
<!-- SR3C0 -->
<!-- SR2C0&#45;&gt;SR3C0 -->
<!-- SR3C0&#45;&gt;SR3C1 -->
<!-- SR4C0 -->
<!-- SR3C0&#45;&gt;SR4C0 -->
<!-- SR4C0&#45;&gt;SR4C1 -->
<!-- SR5C0 -->
<!-- SR4C0&#45;&gt;SR5C0 -->
<!-- SR5C0&#45;&gt;SR5C1 -->
</g>
</svg>
