<?xml version="1.0" encoding="UTF-8" standalone="no"?>
<!DOCTYPE svg PUBLIC "-//W3C//DTD SVG 1.1//EN"
 "http://www.w3.org/Graphics/SVG/1.1/DTD/svg11.dtd">
<!-- Generated by graphviz version 9.0.0 (20230911.1827)
 -->
<!-- Title: G Pages: 1 -->
<svg width="484pt" height="440pt"
 viewBox="0.00 0.00 484.00 440.30" xmlns="http://www.w3.org/2000/svg" xmlns:xlink="http://www.w3.org/1999/xlink">
<g id="graph0" class="graph" transform="scale(1 1) rotate(0) translate(4 436.3)">
<title>G</title>
<polygon fill="white" stroke="none" points="-4,4 -4,-436.3 480,-436.3 480,4 -4,4"/>
<g id="clust1" class="cluster">
<title>GSS</title>
<polygon fill="none" stroke="black" points="8,-262.2 8,-401.43 144,-401.43 144,-262.2 8,-262.2"/>
<text text-anchor="start" x="16" y="-387.93" font-family="Menlo" font-size="10.00" fill="green">↵abd↵</text>
</g>
<g id="clust2" class="cluster">
<title>clusterS</title>
<polygon fill="none" stroke="black" points="152,-8 152,-424.3 468,-424.3 468,-8 152,-8"/>
<text text-anchor="start" x="160" y="-410.8" font-family="Menlo" font-size="10.00">S = &quot;a&quot; ( &quot;b&quot; | &quot;c&quot; ) &quot;d&quot; .</text>
</g>
<!-- 0.0 -->
<g id="node1" class="node">
<title>0.0</title>
<path fill="none" stroke="gray" d="M127.96,-372.68C127.96,-372.68 120.04,-372.68 120.04,-372.68 116.08,-372.68 112.12,-368.72 112.12,-364.75 112.12,-364.75 112.12,-356.84 112.12,-356.84 112.12,-352.88 116.08,-348.92 120.04,-348.92 120.04,-348.92 127.96,-348.92 127.96,-348.92 131.92,-348.92 135.88,-352.88 135.88,-356.84 135.88,-356.84 135.88,-364.75 135.88,-364.75 135.88,-368.72 131.92,-372.68 127.96,-372.68"/>
<text text-anchor="start" x="115" y="-361.3" font-family="Menlo" font-size="10.00">S,0</text>
<text text-anchor="start" x="119.5" y="-353.19" font-family="Menlo" font-size="8.00" fill="gray"> 3</text>
</g>
<!-- 3.1 -->
<g id="node2" class="node">
<title>3.1</title>
<path fill="none" stroke="gray" d="M85.96,-372.68C85.96,-372.68 24.04,-372.68 24.04,-372.68 20.08,-372.68 16.12,-368.72 16.12,-364.75 16.12,-364.75 16.12,-356.84 16.12,-356.84 16.12,-352.88 20.08,-348.92 24.04,-348.92 24.04,-348.92 85.96,-348.92 85.96,-348.92 89.92,-348.92 93.88,-352.88 93.88,-356.84 93.88,-356.84 93.88,-364.75 93.88,-364.75 93.88,-368.72 89.92,-372.68 85.96,-372.68"/>
<text text-anchor="start" x="19" y="-361.3" font-family="Menlo" font-size="10.00">S=a·(b|c)d,1</text>
<text text-anchor="start" x="50.5" y="-353.19" font-family="Menlo" font-size="8.00" fill="gray"> 2</text>
</g>
<!-- 3.0 -->
<g id="node3" class="node">
<title>3.0</title>
<ellipse fill="none" stroke="gray" cx="71" cy="-283.29" rx="54.98" ry="13.09"/>
<text text-anchor="start" x="35" y="-280.16" font-family="Menlo" font-size="10.00">S=a·(b|c)d,0</text>
</g>
<!-- 3.1&#45;&gt;3.0 -->
<g id="edge1" class="edge">
<title>3.1&#45;&gt;3.0</title>
<path fill="none" stroke="gray" d="M57.36,-348.65C60.02,-336.09 64.38,-315.52 67.45,-301.02"/>
<polygon fill="gray" stroke="gray" points="68.45,-301.36 68.05,-298.21 66.4,-300.93 68.45,-301.36"/>
</g>
<!-- SR0C0 -->
<g id="node4" class="node">
<title>SR0C0</title>
<polygon fill="none" stroke="gray" points="213.88,-395.55 160.12,-395.55 160.12,-326.04 213.88,-326.04 213.88,-395.55"/>
<text text-anchor="start" x="184" y="-383.17" font-family="Menlo" font-size="10.00">0</text>
<text text-anchor="start" x="178" y="-370.42" font-family="Menlo" font-size="10.00">N S</text>
<text text-anchor="start" x="163" y="-357.67" font-family="Menlo" font-size="10.00">fi [&quot;a&quot;]</text>
<text text-anchor="start" x="163" y="-344.92" font-family="Menlo" font-size="10.00">fo [&quot;$&quot;]</text>
<text text-anchor="start" x="166" y="-332.17" font-family="Menlo" font-size="10.00">[0:0:3]</text>
</g>
<!-- SR0C1 -->
<g id="node5" class="node">
<title>SR0C1</title>
<polygon fill="none" stroke="gray" points="315.88,-395.55 232.12,-395.55 232.12,-326.04 315.88,-326.04 315.88,-395.55"/>
<text text-anchor="start" x="271" y="-383.17" font-family="Menlo" font-size="10.00">1</text>
<text text-anchor="start" x="262" y="-370.42" font-family="Menlo" font-size="10.00">ALT </text>
<text text-anchor="start" x="250" y="-357.67" font-family="Menlo" font-size="10.00">fi [&quot;a&quot;]</text>
<text text-anchor="start" x="235" y="-344.92" font-family="Menlo" font-size="10.00">fo [&quot;b&quot;, &quot;c&quot;]</text>
<text text-anchor="start" x="268" y="-332.17" font-family="Menlo" font-size="10.00">[]</text>
</g>
<!-- SR0C0&#45;&gt;SR0C1 -->
<g id="edge12" class="edge">
<title>SR0C0&#45;&gt;SR0C1</title>
<path fill="none" stroke="gray" d="M214.19,-360.8C218.63,-360.8 223.07,-360.8 227.51,-360.8"/>
<polygon fill="gray" stroke="gray" points="227.43,-361.85 230.43,-360.8 227.43,-359.75 227.43,-361.85"/>
</g>
<!-- SR1C0 -->
<!-- SR0C0&#45;&gt;SR1C0 -->
<!-- SR1C1 -->
<g id="node6" class="node">
<title>SR1C1</title>
<polygon fill="none" stroke="gray" points="315.88,-318.04 232.12,-318.04 232.12,-248.53 315.88,-248.53 315.88,-318.04"/>
<text text-anchor="start" x="271" y="-305.66" font-family="Menlo" font-size="10.00">2</text>
<text text-anchor="start" x="259" y="-292.91" font-family="Menlo" font-size="10.00">T &quot;a&quot;</text>
<text text-anchor="start" x="250" y="-280.16" font-family="Menlo" font-size="10.00">fi [&quot;a&quot;]</text>
<text text-anchor="start" x="235" y="-267.41" font-family="Menlo" font-size="10.00">fo [&quot;b&quot;, &quot;c&quot;]</text>
<text text-anchor="start" x="253" y="-254.66" font-family="Menlo" font-size="10.00">[0:0:1]</text>
</g>
<!-- SR0C1&#45;&gt;SR1C1 -->
<g id="edge11" class="edge">
<title>SR0C1&#45;&gt;SR1C1</title>
<path fill="none" stroke="gray" d="M274,-325.57C274,-324.7 274,-323.82 274,-322.94"/>
<polygon fill="gray" stroke="gray" points="275.05,-323.05 274,-320.05 272.95,-323.05 275.05,-323.05"/>
</g>
<!-- SR0C2 -->
<!-- SR0C1&#45;&gt;SR0C2 -->
<!-- SR2C1 -->
<g id="node7" class="node">
<title>SR2C1</title>
<polygon fill="none" stroke="gray" points="315.88,-240.53 232.12,-240.53 232.12,-171.02 315.88,-171.02 315.88,-240.53"/>
<text text-anchor="start" x="271" y="-228.15" font-family="Menlo" font-size="10.00">3</text>
<text text-anchor="start" x="265" y="-215.4" font-family="Menlo" font-size="10.00">DO </text>
<text text-anchor="start" x="235" y="-202.65" font-family="Menlo" font-size="10.00">fi [&quot;b&quot;, &quot;c&quot;]</text>
<text text-anchor="start" x="250" y="-189.9" font-family="Menlo" font-size="10.00">fo [&quot;d&quot;]</text>
<text text-anchor="start" x="253" y="-177.15" font-family="Menlo" font-size="10.00">[0:1:2]</text>
</g>
<!-- SR1C1&#45;&gt;SR2C1 -->
<g id="edge10" class="edge">
<title>SR1C1&#45;&gt;SR2C1</title>
<path fill="none" stroke="gray" d="M274,-248.06C274,-247.19 274,-246.31 274,-245.43"/>
<polygon fill="gray" stroke="gray" points="275.05,-245.54 274,-242.54 272.95,-245.54 275.05,-245.54"/>
</g>
<!-- SR1C2 -->
<!-- SR1C1&#45;&gt;SR1C2 -->
<!-- SR3C1 -->
<g id="node8" class="node">
<title>SR3C1</title>
<polygon fill="none" stroke="gray" points="300.88,-163.02 247.12,-163.02 247.12,-93.51 300.88,-93.51 300.88,-163.02"/>
<text text-anchor="start" x="268" y="-150.64" font-family="Menlo" font-size="10.00">10</text>
<text text-anchor="start" x="259" y="-137.89" font-family="Menlo" font-size="10.00">T &quot;d&quot;</text>
<text text-anchor="start" x="250" y="-125.14" font-family="Menlo" font-size="10.00">fi [&quot;d&quot;]</text>
<text text-anchor="start" x="250" y="-112.39" font-family="Menlo" font-size="10.00">fo [&quot;$&quot;]</text>
<text text-anchor="start" x="253" y="-99.64" font-family="Menlo" font-size="10.00">[0:2:3]</text>
</g>
<!-- SR2C1&#45;&gt;SR3C1 -->
<g id="edge3" class="edge">
<title>SR2C1&#45;&gt;SR3C1</title>
<path fill="none" stroke="gray" d="M274,-170.55C274,-169.68 274,-168.8 274,-167.92"/>
<polygon fill="gray" stroke="gray" points="275.05,-168.03 274,-165.03 272.95,-168.03 275.05,-168.03"/>
</g>
<!-- SR2C2 -->
<g id="node10" class="node">
<title>SR2C2</title>
<polygon fill="none" stroke="gray" points="387.88,-240.53 334.12,-240.53 334.12,-171.02 387.88,-171.02 387.88,-240.53"/>
<text text-anchor="start" x="358" y="-228.15" font-family="Menlo" font-size="10.00">4</text>
<text text-anchor="start" x="349" y="-215.4" font-family="Menlo" font-size="10.00">ALT </text>
<text text-anchor="start" x="337" y="-202.65" font-family="Menlo" font-size="10.00">fi [&quot;b&quot;]</text>
<text text-anchor="start" x="337" y="-189.9" font-family="Menlo" font-size="10.00">fo [&quot;d&quot;]</text>
<text text-anchor="start" x="355" y="-177.15" font-family="Menlo" font-size="10.00">[]</text>
</g>
<!-- SR2C1&#45;&gt;SR2C2 -->
<g id="edge9" class="edge">
<title>SR2C1&#45;&gt;SR2C2</title>
<path fill="none" stroke="gray" d="M316.14,-205.78C320.52,-205.78 324.9,-205.78 329.28,-205.78"/>
<polygon fill="gray" stroke="gray" points="329.15,-206.83 332.15,-205.78 329.15,-204.73 329.15,-206.83"/>
</g>
<!-- SR4C1 -->
<g id="node9" class="node">
<title>SR4C1</title>
<polygon fill="none" stroke="gray" points="300.88,-85.51 247.12,-85.51 247.12,-16 300.88,-16 300.88,-85.51"/>
<text text-anchor="start" x="268" y="-73.13" font-family="Menlo" font-size="10.00">11</text>
<text text-anchor="start" x="262" y="-60.38" font-family="Menlo" font-size="10.00">END </text>
<text text-anchor="start" x="253" y="-47.63" font-family="Menlo" font-size="10.00">fi [&quot;&quot;]</text>
<text text-anchor="start" x="250" y="-34.88" font-family="Menlo" font-size="10.00">fo [&quot;$&quot;]</text>
<text text-anchor="start" x="268" y="-22.13" font-family="Menlo" font-size="10.00">[]</text>
</g>
<!-- SR3C1&#45;&gt;SR4C1 -->
<g id="edge2" class="edge">
<title>SR3C1&#45;&gt;SR4C1</title>
<path fill="none" stroke="gray" d="M274,-93.04C274,-92.17 274,-91.29 274,-90.41"/>
<polygon fill="gray" stroke="gray" points="275.05,-90.52 274,-87.52 272.95,-90.52 275.05,-90.52"/>
</g>
<!-- SR3C2 -->
<g id="node11" class="node">
<title>SR3C2</title>
<polygon fill="none" stroke="gray" points="387.88,-163.02 334.12,-163.02 334.12,-93.51 387.88,-93.51 387.88,-163.02"/>
<text text-anchor="start" x="358" y="-150.64" font-family="Menlo" font-size="10.00">5</text>
<text text-anchor="start" x="346" y="-137.89" font-family="Menlo" font-size="10.00">T &quot;b&quot;</text>
<text text-anchor="start" x="337" y="-125.14" font-family="Menlo" font-size="10.00">fi [&quot;b&quot;]</text>
<text text-anchor="start" x="337" y="-112.39" font-family="Menlo" font-size="10.00">fo [&quot;d&quot;]</text>
<text text-anchor="start" x="340" y="-99.64" font-family="Menlo" font-size="10.00">[1:1:2]</text>
</g>
<!-- SR2C2&#45;&gt;SR3C2 -->
<g id="edge5" class="edge">
<title>SR2C2&#45;&gt;SR3C2</title>
<path fill="none" stroke="gray" d="M361,-170.55C361,-169.68 361,-168.8 361,-167.92"/>
<polygon fill="gray" stroke="gray" points="362.05,-168.03 361,-165.03 359.95,-168.03 362.05,-168.03"/>
</g>
<!-- SR2C3 -->
<g id="node13" class="node">
<title>SR2C3</title>
<polygon fill="none" stroke="gray" points="459.88,-240.53 406.12,-240.53 406.12,-171.02 459.88,-171.02 459.88,-240.53"/>
<text text-anchor="start" x="430" y="-228.15" font-family="Menlo" font-size="10.00">7</text>
<text text-anchor="start" x="421" y="-215.4" font-family="Menlo" font-size="10.00">ALT </text>
<text text-anchor="start" x="409" y="-202.65" font-family="Menlo" font-size="10.00">fi [&quot;c&quot;]</text>
<text text-anchor="start" x="409" y="-189.9" font-family="Menlo" font-size="10.00">fo [&quot;d&quot;]</text>
<text text-anchor="start" x="427" y="-177.15" font-family="Menlo" font-size="10.00">[]</text>
</g>
<!-- SR2C2&#45;&gt;SR2C3 -->
<g id="edge8" class="edge">
<title>SR2C2&#45;&gt;SR2C3</title>
<path fill="none" stroke="gray" d="M388.28,-205.78C392.65,-205.78 397.02,-205.78 401.38,-205.78"/>
<polygon fill="gray" stroke="gray" points="401.24,-206.83 404.24,-205.78 401.24,-204.73 401.24,-206.83"/>
</g>
<!-- SR4C2 -->
<g id="node12" class="node">
<title>SR4C2</title>
<polygon fill="none" stroke="gray" points="387.88,-85.51 334.12,-85.51 334.12,-16 387.88,-16 387.88,-85.51"/>
<text text-anchor="start" x="358" y="-73.13" font-family="Menlo" font-size="10.00">6</text>
<text text-anchor="start" x="349" y="-60.38" font-family="Menlo" font-size="10.00">END </text>
<text text-anchor="start" x="340" y="-47.63" font-family="Menlo" font-size="10.00">fi [&quot;&quot;]</text>
<text text-anchor="start" x="337" y="-34.88" font-family="Menlo" font-size="10.00">fo [&quot;d&quot;]</text>
<text text-anchor="start" x="355" y="-22.13" font-family="Menlo" font-size="10.00">[]</text>
</g>
<!-- SR3C2&#45;&gt;SR4C2 -->
<g id="edge4" class="edge">
<title>SR3C2&#45;&gt;SR4C2</title>
<path fill="none" stroke="gray" d="M361,-93.04C361,-92.17 361,-91.29 361,-90.41"/>
<polygon fill="gray" stroke="gray" points="362.05,-90.52 361,-87.52 359.95,-90.52 362.05,-90.52"/>
</g>
<!-- SR3C3 -->
<g id="node14" class="node">
<title>SR3C3</title>
<polygon fill="none" stroke="gray" points="459.88,-163.02 406.12,-163.02 406.12,-93.51 459.88,-93.51 459.88,-163.02"/>
<text text-anchor="start" x="430" y="-150.64" font-family="Menlo" font-size="10.00">8</text>
<text text-anchor="start" x="418" y="-137.89" font-family="Menlo" font-size="10.00">T &quot;c&quot;</text>
<text text-anchor="start" x="409" y="-125.14" font-family="Menlo" font-size="10.00">fi [&quot;c&quot;]</text>
<text text-anchor="start" x="409" y="-112.39" font-family="Menlo" font-size="10.00">fo [&quot;d&quot;]</text>
<text text-anchor="start" x="427" y="-99.64" font-family="Menlo" font-size="10.00">[]</text>
</g>
<!-- SR2C3&#45;&gt;SR3C3 -->
<g id="edge7" class="edge">
<title>SR2C3&#45;&gt;SR3C3</title>
<path fill="none" stroke="gray" d="M433,-170.55C433,-169.68 433,-168.8 433,-167.92"/>
<polygon fill="gray" stroke="gray" points="434.05,-168.03 433,-165.03 431.95,-168.03 434.05,-168.03"/>
</g>
<!-- SR4C3 -->
<g id="node15" class="node">
<title>SR4C3</title>
<polygon fill="none" stroke="gray" points="459.88,-85.51 406.12,-85.51 406.12,-16 459.88,-16 459.88,-85.51"/>
<text text-anchor="start" x="430" y="-73.13" font-family="Menlo" font-size="10.00">9</text>
<text text-anchor="start" x="421" y="-60.38" font-family="Menlo" font-size="10.00">END </text>
<text text-anchor="start" x="412" y="-47.63" font-family="Menlo" font-size="10.00">fi [&quot;&quot;]</text>
<text text-anchor="start" x="409" y="-34.88" font-family="Menlo" font-size="10.00">fo [&quot;d&quot;]</text>
<text text-anchor="start" x="427" y="-22.13" font-family="Menlo" font-size="10.00">[]</text>
</g>
<!-- SR3C3&#45;&gt;SR4C3 -->
<g id="edge6" class="edge">
<title>SR3C3&#45;&gt;SR4C3</title>
<path fill="none" stroke="gray" d="M433,-93.04C433,-92.17 433,-91.29 433,-90.41"/>
<polygon fill="gray" stroke="gray" points="434.05,-90.52 433,-87.52 431.95,-90.52 434.05,-90.52"/>
</g>
<!-- SR0C3 -->
<!-- SR0C2&#45;&gt;SR0C3 -->
<!-- SR0C2&#45;&gt;SR1C2 -->
<!-- SR1C3 -->
<!-- SR0C3&#45;&gt;SR1C3 -->
<!-- SR1C0&#45;&gt;SR1C1 -->
<!-- SR2C0 -->
<!-- SR1C0&#45;&gt;SR2C0 -->
<!-- SR1C2&#45;&gt;SR2C2 -->
<!-- SR1C2&#45;&gt;SR1C3 -->
<!-- SR1C3&#45;&gt;SR2C3 -->
<!-- SR2C0&#45;&gt;SR2C1 -->
<!-- SR3C0 -->
<!-- SR2C0&#45;&gt;SR3C0 -->
<!-- SR3C0&#45;&gt;SR3C1 -->
<!-- SR4C0 -->
<!-- SR3C0&#45;&gt;SR4C0 -->
<!-- SR4C0&#45;&gt;SR4C1 -->
</g>
</svg>
