<?xml version="1.0" encoding="UTF-8" standalone="no"?>
<!DOCTYPE svg PUBLIC "-//W3C//DTD SVG 1.1//EN"
 "http://www.w3.org/Graphics/SVG/1.1/DTD/svg11.dtd">
<!-- Generated by graphviz version 9.0.0 (20230911.1827)
 -->
<!-- Title: G Pages: 1 -->
<svg width="650pt" height="381pt"
 viewBox="0.00 0.00 650.00 380.79" xmlns="http://www.w3.org/2000/svg" xmlns:xlink="http://www.w3.org/1999/xlink">
<g id="graph0" class="graph" transform="scale(1 1) rotate(0) translate(4 376.79)">
<title>G</title>
<polygon fill="white" stroke="none" points="-4,4 -4,-376.79 646,-376.79 646,4 -4,4"/>
<g id="clust1" class="cluster">
<title>GSS</title>
<polygon fill="none" stroke="black" points="8,-200.52 8,-341.92 294,-341.92 294,-200.52 8,-200.52"/>
<text text-anchor="start" x="16" y="-328.42" font-family="Menlo" font-size="10.00" fill="green">↵xxx↵</text>
</g>
<g id="clust2" class="cluster">
<title>clusterS</title>
<polygon fill="none" stroke="black" points="302,-8 302,-364.79 634,-364.79 634,-8 302,-8"/>
<text text-anchor="start" x="310" y="-351.29" font-family="Menlo" font-size="10.00">S = &quot;x&quot; S | &quot;&quot; .</text>
</g>
<!-- H5 -->
<g id="node1" class="node">
<title>H5</title>
<path fill="none" stroke="gray" d="M279.96,-313.17C279.96,-313.17 274.04,-313.17 274.04,-313.17 271.08,-313.17 268.12,-310.21 268.12,-307.25 268.12,-307.25 268.12,-295.33 268.12,-295.33 268.12,-292.37 271.08,-289.41 274.04,-289.41 274.04,-289.41 279.96,-289.41 279.96,-289.41 282.92,-289.41 285.88,-292.37 285.88,-295.33 285.88,-295.33 285.88,-307.25 285.88,-307.25 285.88,-310.21 282.92,-313.17 279.96,-313.17"/>
<text text-anchor="start" x="271" y="-301.79" font-family="Menlo" font-size="10.00">H5</text>
<text text-anchor="start" x="274.75" y="-293.69" font-family="Menlo" font-size="8.00" fill="gray"> </text>
</g>
<!-- J1 -->
<g id="node2" class="node">
<title>J1</title>
<path fill="none" stroke="gray" d="M153.96,-227.03C153.96,-227.03 148.04,-227.03 148.04,-227.03 145.08,-227.03 142.12,-224.07 142.12,-221.11 142.12,-221.11 142.12,-214.44 142.12,-214.44 142.12,-211.48 145.08,-208.52 148.04,-208.52 148.04,-208.52 153.96,-208.52 153.96,-208.52 156.92,-208.52 159.88,-211.48 159.88,-214.44 159.88,-214.44 159.88,-221.11 159.88,-221.11 159.88,-224.07 156.92,-227.03 153.96,-227.03"/>
<text text-anchor="middle" x="151" y="-214.65" font-family="Menlo" font-size="10.00">J1</text>
</g>
<!-- H5&#45;&gt;J1 -->
<g id="edge1" class="edge">
<title>H5&#45;&gt;J1</title>
<path fill="none" stroke="gray" d="M273.2,-289.04C270.28,-281.82 265.62,-272.68 259,-266.53 231.1,-240.61 186.81,-227.16 164.62,-221.73"/>
<polygon fill="gray" stroke="gray" points="164.87,-220.71 161.71,-221.04 164.38,-222.75 164.87,-220.71"/>
</g>
<!-- H3 -->
<g id="node3" class="node">
<title>H3</title>
<path fill="none" stroke="gray" d="M243.96,-313.17C243.96,-313.17 238.04,-313.17 238.04,-313.17 235.08,-313.17 232.12,-310.21 232.12,-307.25 232.12,-307.25 232.12,-295.33 232.12,-295.33 232.12,-292.37 235.08,-289.41 238.04,-289.41 238.04,-289.41 243.96,-289.41 243.96,-289.41 246.92,-289.41 249.88,-292.37 249.88,-295.33 249.88,-295.33 249.88,-307.25 249.88,-307.25 249.88,-310.21 246.92,-313.17 243.96,-313.17"/>
<text text-anchor="start" x="235" y="-301.79" font-family="Menlo" font-size="10.00">H3</text>
<text text-anchor="start" x="238.75" y="-293.69" font-family="Menlo" font-size="8.00" fill="gray"> </text>
</g>
<!-- H3&#45;&gt;J1 -->
<g id="edge2" class="edge">
<title>H3&#45;&gt;J1</title>
<path fill="none" stroke="gray" d="M236.71,-289.08C233.64,-282.06 228.98,-273.12 223,-266.53 205.7,-247.49 179.28,-232.53 163.71,-224.73"/>
<polygon fill="gray" stroke="gray" points="164.51,-223.95 161.36,-223.57 163.58,-225.84 164.51,-223.95"/>
</g>
<!-- H2 -->
<g id="node4" class="node">
<title>H2</title>
<path fill="none" stroke="gray" d="M207.96,-313.17C207.96,-313.17 202.04,-313.17 202.04,-313.17 199.08,-313.17 196.12,-310.21 196.12,-307.25 196.12,-307.25 196.12,-295.33 196.12,-295.33 196.12,-292.37 199.08,-289.41 202.04,-289.41 202.04,-289.41 207.96,-289.41 207.96,-289.41 210.92,-289.41 213.88,-292.37 213.88,-295.33 213.88,-295.33 213.88,-307.25 213.88,-307.25 213.88,-310.21 210.92,-313.17 207.96,-313.17"/>
<text text-anchor="start" x="199" y="-301.79" font-family="Menlo" font-size="10.00">H2</text>
<text text-anchor="start" x="202.75" y="-293.69" font-family="Menlo" font-size="8.00" fill="gray"> </text>
</g>
<!-- H2&#45;&gt;J1 -->
<g id="edge3" class="edge">
<title>H2&#45;&gt;J1</title>
<path fill="none" stroke="gray" d="M199.59,-289.09C196.21,-282.4 191.64,-273.81 187,-266.53 178.84,-253.75 168.27,-240 160.7,-230.56"/>
<polygon fill="gray" stroke="gray" points="161.71,-230.14 159.01,-228.46 160.08,-231.45 161.71,-230.14"/>
</g>
<!-- H1 -->
<g id="node5" class="node">
<title>H1</title>
<path fill="none" stroke="gray" d="M171.96,-313.17C171.96,-313.17 166.04,-313.17 166.04,-313.17 163.08,-313.17 160.12,-310.21 160.12,-307.25 160.12,-307.25 160.12,-295.33 160.12,-295.33 160.12,-292.37 163.08,-289.41 166.04,-289.41 166.04,-289.41 171.96,-289.41 171.96,-289.41 174.92,-289.41 177.88,-292.37 177.88,-295.33 177.88,-295.33 177.88,-307.25 177.88,-307.25 177.88,-310.21 174.92,-313.17 171.96,-313.17"/>
<text text-anchor="start" x="163" y="-301.79" font-family="Menlo" font-size="10.00">H1</text>
<text text-anchor="start" x="166.75" y="-293.69" font-family="Menlo" font-size="8.00" fill="gray"> </text>
</g>
<!-- H1&#45;&gt;J1 -->
<g id="edge4" class="edge">
<title>H1&#45;&gt;J1</title>
<path fill="none" stroke="gray" d="M166.5,-288.95C163.18,-273.92 157.33,-247.45 153.85,-231.67"/>
<polygon fill="gray" stroke="gray" points="154.93,-231.7 153.26,-229 152.88,-232.15 154.93,-231.7"/>
</g>
<!-- D5 -->
<g id="node6" class="node">
<title>D5</title>
<path fill="none" stroke="gray" d="M135.96,-313.17C135.96,-313.17 130.04,-313.17 130.04,-313.17 127.08,-313.17 124.12,-310.21 124.12,-307.25 124.12,-307.25 124.12,-295.33 124.12,-295.33 124.12,-292.37 127.08,-289.41 130.04,-289.41 130.04,-289.41 135.96,-289.41 135.96,-289.41 138.92,-289.41 141.88,-292.37 141.88,-295.33 141.88,-295.33 141.88,-307.25 141.88,-307.25 141.88,-310.21 138.92,-313.17 135.96,-313.17"/>
<text text-anchor="start" x="127" y="-301.79" font-family="Menlo" font-size="10.00">D5</text>
<text text-anchor="start" x="130.75" y="-293.69" font-family="Menlo" font-size="8.00" fill="gray"> </text>
</g>
<!-- D5&#45;&gt;J1 -->
<g id="edge5" class="edge">
<title>D5&#45;&gt;J1</title>
<path fill="none" stroke="gray" d="M135.5,-288.95C138.82,-273.92 144.67,-247.45 148.15,-231.67"/>
<polygon fill="gray" stroke="gray" points="149.12,-232.15 148.74,-229 147.07,-231.7 149.12,-232.15"/>
</g>
<!-- D3 -->
<g id="node7" class="node">
<title>D3</title>
<path fill="none" stroke="gray" d="M99.96,-313.17C99.96,-313.17 94.04,-313.17 94.04,-313.17 91.08,-313.17 88.12,-310.21 88.12,-307.25 88.12,-307.25 88.12,-295.33 88.12,-295.33 88.12,-292.37 91.08,-289.41 94.04,-289.41 94.04,-289.41 99.96,-289.41 99.96,-289.41 102.92,-289.41 105.88,-292.37 105.88,-295.33 105.88,-295.33 105.88,-307.25 105.88,-307.25 105.88,-310.21 102.92,-313.17 99.96,-313.17"/>
<text text-anchor="start" x="91" y="-301.79" font-family="Menlo" font-size="10.00">D3</text>
<text text-anchor="start" x="94.75" y="-293.69" font-family="Menlo" font-size="8.00" fill="gray"> </text>
</g>
<!-- D3&#45;&gt;J1 -->
<g id="edge6" class="edge">
<title>D3&#45;&gt;J1</title>
<path fill="none" stroke="gray" d="M102.41,-289.09C105.79,-282.4 110.36,-273.81 115,-266.53 123.16,-253.75 133.73,-240 141.3,-230.56"/>
<polygon fill="gray" stroke="gray" points="141.92,-231.45 142.99,-228.46 140.29,-230.14 141.92,-231.45"/>
</g>
<!-- D2 -->
<g id="node8" class="node">
<title>D2</title>
<path fill="none" stroke="gray" d="M63.96,-313.17C63.96,-313.17 58.04,-313.17 58.04,-313.17 55.08,-313.17 52.12,-310.21 52.12,-307.25 52.12,-307.25 52.12,-295.33 52.12,-295.33 52.12,-292.37 55.08,-289.41 58.04,-289.41 58.04,-289.41 63.96,-289.41 63.96,-289.41 66.92,-289.41 69.88,-292.37 69.88,-295.33 69.88,-295.33 69.88,-307.25 69.88,-307.25 69.88,-310.21 66.92,-313.17 63.96,-313.17"/>
<text text-anchor="start" x="55" y="-301.79" font-family="Menlo" font-size="10.00">D2</text>
<text text-anchor="start" x="58.75" y="-293.69" font-family="Menlo" font-size="8.00" fill="gray"> </text>
</g>
<!-- D2&#45;&gt;J1 -->
<g id="edge7" class="edge">
<title>D2&#45;&gt;J1</title>
<path fill="none" stroke="gray" d="M65.29,-289.08C68.36,-282.06 73.02,-273.12 79,-266.53 96.3,-247.49 122.72,-232.53 138.29,-224.73"/>
<polygon fill="gray" stroke="gray" points="138.42,-225.84 140.64,-223.57 137.49,-223.95 138.42,-225.84"/>
</g>
<!-- D1 -->
<g id="node9" class="node">
<title>D1</title>
<path fill="none" stroke="gray" d="M27.96,-313.17C27.96,-313.17 22.04,-313.17 22.04,-313.17 19.08,-313.17 16.12,-310.21 16.12,-307.25 16.12,-307.25 16.12,-295.33 16.12,-295.33 16.12,-292.37 19.08,-289.41 22.04,-289.41 22.04,-289.41 27.96,-289.41 27.96,-289.41 30.92,-289.41 33.88,-292.37 33.88,-295.33 33.88,-295.33 33.88,-307.25 33.88,-307.25 33.88,-310.21 30.92,-313.17 27.96,-313.17"/>
<text text-anchor="start" x="19" y="-301.79" font-family="Menlo" font-size="10.00">D1</text>
<text text-anchor="start" x="22.75" y="-293.69" font-family="Menlo" font-size="8.00" fill="gray"> </text>
</g>
<!-- D1&#45;&gt;J1 -->
<g id="edge8" class="edge">
<title>D1&#45;&gt;J1</title>
<path fill="none" stroke="gray" d="M28.8,-289.04C31.72,-281.82 36.38,-272.68 43,-266.53 70.9,-240.61 115.19,-227.16 137.38,-221.73"/>
<polygon fill="gray" stroke="gray" points="137.62,-222.75 140.29,-221.04 137.13,-220.71 137.62,-222.75"/>
</g>
<!-- R0C0 -->
<g id="node10" class="node">
<title>R0C0</title>
<polygon fill="none" stroke="gray" points="387.88,-336.04 310.12,-336.04 310.12,-266.53 387.88,-266.53 387.88,-336.04"/>
<text text-anchor="start" x="346" y="-323.66" font-family="Menlo" font-size="10.00">J</text>
<text text-anchor="start" x="340" y="-310.91" font-family="Menlo" font-size="10.00">N S</text>
<text text-anchor="start" x="313" y="-298.16" font-family="Menlo" font-size="10.00">fi [&quot;&quot;, &quot;x&quot;]</text>
<text text-anchor="start" x="328" y="-285.41" font-family="Menlo" font-size="10.00">fo [&quot;&quot;]</text>
<text text-anchor="start" x="334" y="-272.66" font-family="Menlo" font-size="10.00">am []</text>
</g>
<!-- R0C1 -->
<g id="node11" class="node">
<title>R0C1</title>
<polygon fill="none" stroke="gray" points="467.88,-336.04 414.12,-336.04 414.12,-266.53 467.88,-266.53 467.88,-336.04"/>
<text text-anchor="start" x="438" y="-323.66" font-family="Menlo" font-size="10.00">C</text>
<text text-anchor="start" x="429" y="-310.91" font-family="Menlo" font-size="10.00">ALT </text>
<text text-anchor="start" x="417" y="-298.16" font-family="Menlo" font-size="10.00">fi [&quot;x&quot;]</text>
<text text-anchor="start" x="420" y="-285.41" font-family="Menlo" font-size="10.00">fo [&quot;&quot;]</text>
<text text-anchor="start" x="426" y="-272.66" font-family="Menlo" font-size="10.00">am []</text>
</g>
<!-- R0C0&#45;&gt;R0C1 -->
<g id="edge15" class="edge">
<title>R0C0&#45;&gt;R0C1</title>
<path fill="none" stroke="gray" d="M388.17,-301.29C395.24,-301.29 402.3,-301.29 409.36,-301.29"/>
<polygon fill="gray" stroke="gray" points="409.25,-302.34 412.25,-301.29 409.25,-300.24 409.25,-302.34"/>
</g>
<!-- R1C0 -->
<!-- R0C0&#45;&gt;R1C0 -->
<!-- R1C1 -->
<g id="node12" class="node">
<title>R1C1</title>
<polygon fill="none" stroke="gray" points="479.88,-252.53 402.12,-252.53 402.12,-183.02 479.88,-183.02 479.88,-252.53"/>
<text text-anchor="start" x="438" y="-240.15" font-family="Menlo" font-size="10.00">D</text>
<text text-anchor="start" x="426" y="-227.4" font-family="Menlo" font-size="10.00">T &quot;x&quot;</text>
<text text-anchor="start" x="417" y="-214.65" font-family="Menlo" font-size="10.00">fi [&quot;x&quot;]</text>
<text text-anchor="start" x="405" y="-201.9" font-family="Menlo" font-size="10.00">fo [&quot;&quot;, &quot;x&quot;]</text>
<text text-anchor="start" x="426" y="-189.15" font-family="Menlo" font-size="10.00">am []</text>
</g>
<!-- R0C1&#45;&gt;R1C1 -->
<g id="edge11" class="edge">
<title>R0C1:s&#45;&gt;R1C1</title>
<path fill="none" stroke="gray" d="M441,-266.53C441,-263.51 441,-260.38 441,-257.24"/>
<polygon fill="gray" stroke="gray" points="442.05,-257.46 441,-254.46 439.95,-257.46 442.05,-257.46"/>
</g>
<!-- R0C2 -->
<g id="node15" class="node">
<title>R0C2</title>
<polygon fill="none" stroke="gray" points="585.88,-336.04 538.12,-336.04 538.12,-266.53 585.88,-266.53 585.88,-336.04"/>
<text text-anchor="start" x="559" y="-323.66" font-family="Menlo" font-size="10.00">G</text>
<text text-anchor="start" x="550" y="-310.91" font-family="Menlo" font-size="10.00">ALT </text>
<text text-anchor="start" x="541" y="-298.16" font-family="Menlo" font-size="10.00">fi [&quot;&quot;]</text>
<text text-anchor="start" x="541" y="-285.41" font-family="Menlo" font-size="10.00">fo [&quot;&quot;]</text>
<text text-anchor="start" x="547" y="-272.66" font-family="Menlo" font-size="10.00">am []</text>
</g>
<!-- R0C1&#45;&gt;R0C2 -->
<g id="edge14" class="edge">
<title>R0C1&#45;&gt;R0C2</title>
<path fill="none" stroke="gray" d="M467.94,-301.29C489.76,-301.29 511.57,-301.29 533.39,-301.29"/>
<polygon fill="gray" stroke="gray" points="533.24,-302.34 536.24,-301.29 533.24,-300.24 533.24,-302.34"/>
</g>
<!-- R2C1 -->
<g id="node13" class="node">
<title>R2C1</title>
<polygon fill="none" stroke="gray" points="479.88,-169.02 402.12,-169.02 402.12,-99.51 479.88,-99.51 479.88,-169.02"/>
<text text-anchor="start" x="438" y="-156.64" font-family="Menlo" font-size="10.00">E</text>
<text text-anchor="start" x="432" y="-143.89" font-family="Menlo" font-size="10.00">N S</text>
<text text-anchor="start" x="405" y="-131.14" font-family="Menlo" font-size="10.00">fi [&quot;&quot;, &quot;x&quot;]</text>
<text text-anchor="start" x="420" y="-118.39" font-family="Menlo" font-size="10.00">fo [&quot;&quot;]</text>
<text text-anchor="start" x="426" y="-105.64" font-family="Menlo" font-size="10.00">am []</text>
</g>
<!-- R1C1&#45;&gt;R2C1 -->
<g id="edge10" class="edge">
<title>R1C1:s&#45;&gt;R2C1</title>
<path fill="none" stroke="gray" d="M441,-183.02C441,-180 441,-176.87 441,-173.73"/>
<polygon fill="gray" stroke="gray" points="442.05,-173.95 441,-170.95 439.95,-173.95 442.05,-173.95"/>
</g>
<!-- R2C1&#45;&gt;R0C1 -->
<g id="edge28" class="edge">
<title>R2C1:e&#45;&gt;R0C1</title>
<path fill="none" stroke="blue" stroke-dasharray="1,5" d="M481,-134.27C507.34,-134.27 504.73,-158.79 529,-169.02 562.67,-183.21 586.47,-155.07 610,-183.02 629.9,-206.65 629.9,-228.9 610,-252.53 598.23,-266.5 546.61,-261.68 529,-266.53 509.8,-271.82 488.97,-279.7 472.4,-286.53"/>
<polygon fill="blue" stroke="blue" points="472.05,-285.53 469.68,-287.65 472.85,-287.47 472.05,-285.53"/>
</g>
<!-- R3C1 -->
<g id="node14" class="node">
<title>R3C1</title>
<polygon fill="none" stroke="gray" points="464.88,-85.51 417.12,-85.51 417.12,-16 464.88,-16 464.88,-85.51"/>
<text text-anchor="start" x="438" y="-73.13" font-family="Menlo" font-size="10.00">F</text>
<text text-anchor="start" x="429" y="-60.38" font-family="Menlo" font-size="10.00">END </text>
<text text-anchor="start" x="420" y="-47.63" font-family="Menlo" font-size="10.00">fi [&quot;&quot;]</text>
<text text-anchor="start" x="420" y="-34.88" font-family="Menlo" font-size="10.00">fo [&quot;&quot;]</text>
<text text-anchor="start" x="426" y="-22.13" font-family="Menlo" font-size="10.00">am []</text>
</g>
<!-- R2C1&#45;&gt;R3C1 -->
<g id="edge9" class="edge">
<title>R2C1:s&#45;&gt;R3C1</title>
<path fill="none" stroke="gray" d="M441,-99.51C441,-96.49 441,-93.36 441,-90.22"/>
<polygon fill="gray" stroke="gray" points="442.05,-90.44 441,-87.44 439.95,-90.44 442.05,-90.44"/>
</g>
<!-- R3C1&#45;&gt;R0C0 -->
<g id="edge24" class="edge">
<title>R3C1:s&#45;&gt;R0C0</title>
<path fill="none" stroke="red" stroke-dasharray="1,5" d="M441,-14.76C441,-4.13 455.09,-11.63 464.88,-15.76 506.57,-33.31 499.3,-63.82 539,-85.51 561.51,-97.81 579.21,-79.29 595,-99.51 614.01,-123.86 614.45,-145.02 595,-169.02 576.12,-192.32 553.25,-165.38 529,-183.02 500.17,-203.99 518.28,-232.2 489,-252.53 457.91,-274.12 440.5,-253.42 405,-266.53 400.68,-268.13 396.32,-270.06 392.05,-272.2"/>
<polygon fill="red" stroke="red" points="391.68,-271.2 389.49,-273.51 392.64,-273.07 391.68,-271.2"/>
</g>
<!-- R3C1&#45;&gt;R0C1 -->
<g id="edge25" class="edge">
<title>R3C1:s&#45;&gt;R0C1</title>
<path fill="none" stroke="red" stroke-dasharray="1,5" d="M441,-14.76C441,-9.44 461.2,-11.92 464.88,-15.76 486.34,-38.13 484.6,-61.58 464.88,-85.51 444.18,-110.63 413.7,-74.39 393,-99.51 373.35,-123.35 371.92,-146.43 393,-169.02 423.7,-201.92 564.3,-150.12 595,-183.02 605.54,-194.31 604.72,-240.53 595,-252.53 576.12,-275.83 557.75,-258.02 529,-266.53 509.91,-272.18 489.08,-280.08 472.48,-286.82"/>
<polygon fill="red" stroke="red" points="472.14,-285.83 469.76,-287.94 472.94,-287.78 472.14,-285.83"/>
</g>
<!-- R3C2 -->
<!-- R3C1&#45;&gt;R3C2 -->
<!-- R1C2 -->
<g id="node16" class="node">
<title>R1C2</title>
<polygon fill="none" stroke="gray" points="585.88,-252.53 538.12,-252.53 538.12,-183.02 585.88,-183.02 585.88,-252.53"/>
<text text-anchor="start" x="559" y="-240.15" font-family="Menlo" font-size="10.00">H</text>
<text text-anchor="start" x="550" y="-227.4" font-family="Menlo" font-size="10.00">EPS </text>
<text text-anchor="start" x="541" y="-214.65" font-family="Menlo" font-size="10.00">fi [&quot;&quot;]</text>
<text text-anchor="start" x="541" y="-201.9" font-family="Menlo" font-size="10.00">fo [&quot;&quot;]</text>
<text text-anchor="start" x="547" y="-189.15" font-family="Menlo" font-size="10.00">am []</text>
</g>
<!-- R0C2&#45;&gt;R1C2 -->
<g id="edge13" class="edge">
<title>R0C2:s&#45;&gt;R1C2</title>
<path fill="none" stroke="gray" d="M562,-266.53C562,-263.51 562,-260.38 562,-257.24"/>
<polygon fill="gray" stroke="gray" points="563.05,-257.46 562,-254.46 560.95,-257.46 563.05,-257.46"/>
</g>
<!-- R2C2 -->
<g id="node17" class="node">
<title>R2C2</title>
<polygon fill="none" stroke="gray" points="585.88,-169.02 538.12,-169.02 538.12,-99.51 585.88,-99.51 585.88,-169.02"/>
<text text-anchor="start" x="559" y="-156.64" font-family="Menlo" font-size="10.00">I</text>
<text text-anchor="start" x="550" y="-143.89" font-family="Menlo" font-size="10.00">END </text>
<text text-anchor="start" x="541" y="-131.14" font-family="Menlo" font-size="10.00">fi [&quot;&quot;]</text>
<text text-anchor="start" x="541" y="-118.39" font-family="Menlo" font-size="10.00">fo [&quot;&quot;]</text>
<text text-anchor="start" x="547" y="-105.64" font-family="Menlo" font-size="10.00">am []</text>
</g>
<!-- R1C2&#45;&gt;R2C2 -->
<g id="edge12" class="edge">
<title>R1C2:s&#45;&gt;R2C2</title>
<path fill="none" stroke="gray" d="M562,-183.02C562,-180 562,-176.87 562,-173.73"/>
<polygon fill="gray" stroke="gray" points="563.05,-173.95 562,-170.95 560.95,-173.95 563.05,-173.95"/>
</g>
<!-- R2C2&#45;&gt;R0C0 -->
<g id="edge26" class="edge">
<title>R2C2:s&#45;&gt;R0C0</title>
<path fill="none" stroke="red" stroke-dasharray="1,5" d="M562,-98.27C562,-92.95 582.2,-95.43 585.88,-99.27 607.34,-121.64 605,-144.62 585.88,-169.02 569.82,-189.51 549.8,-167.37 529,-183.02 500.52,-204.45 518.28,-232.2 489,-252.53 457.91,-274.12 440.5,-253.42 405,-266.53 400.68,-268.13 396.32,-270.06 392.05,-272.2"/>
<polygon fill="red" stroke="red" points="391.68,-271.2 389.49,-273.51 392.64,-273.07 391.68,-271.2"/>
</g>
<!-- R2C2&#45;&gt;R0C2 -->
<g id="edge27" class="edge">
<title>R2C2:s&#45;&gt;R0C2</title>
<path fill="none" stroke="red" stroke-dasharray="1,5" d="M562,-98.27C562,-92.95 582.2,-95.43 585.88,-99.27 607.34,-121.64 606.99,-146.32 585.88,-169.02 556.61,-200.49 422.27,-151.55 393,-183.02 371.96,-205.64 373.03,-228.96 393,-252.53 405.23,-266.97 458.77,-261.45 477,-266.53 496.46,-271.95 517.57,-280.32 533.88,-287.37"/>
<polygon fill="red" stroke="red" points="533.37,-288.29 536.54,-288.52 534.21,-286.36 533.37,-288.29"/>
</g>
<!-- R2C2&#45;&gt;R3C2 -->
<!-- R1C0&#45;&gt;R1C1 -->
<!-- R2C0 -->
<!-- R1C0&#45;&gt;R2C0 -->
<!-- R2C0&#45;&gt;R2C1 -->
<!-- R3C0 -->
<!-- R2C0&#45;&gt;R3C0 -->
<!-- R3C0&#45;&gt;R3C1 -->
</g>
</svg>
