<?xml version="1.0" encoding="UTF-8" standalone="no"?>
<!DOCTYPE svg PUBLIC "-//W3C//DTD SVG 1.1//EN"
 "http://www.w3.org/Graphics/SVG/1.1/DTD/svg11.dtd">
<!-- Generated by graphviz version 9.0.0 (20230911.1827)
 -->
<!-- Title: G Pages: 1 -->
<svg width="266pt" height="204pt"
 viewBox="0.00 0.00 266.26 203.55" xmlns="http://www.w3.org/2000/svg" xmlns:xlink="http://www.w3.org/1999/xlink">
<g id="graph0" class="graph" transform="scale(1 1) rotate(0) translate(4 199.55)">
<title>G</title>
<polygon fill="white" stroke="none" points="-4,4 -4,-199.55 262.26,-199.55 262.26,4 -4,4"/>
<text text-anchor="start" x="24.13" y="-7.25" font-family="Menlo" font-size="10.00">S = a [ b | c ] d | k [ l | m ] n .</text>
<!-- 13 -->
<g id="node1" class="node">
<title>13</title>
<polygon fill="none" stroke="gray" points="39.01,-195.55 15.25,-195.55 15.25,-171.79 39.01,-171.79 39.01,-195.55"/>
<text text-anchor="start" x="21.13" y="-184.17" font-family="Menlo" font-size="10.00">13</text>
<text text-anchor="start" x="18.13" y="-176.07" font-family="Menlo" font-size="8.00" fill="gray"> N S</text>
</g>
<!-- 2 -->
<g id="node2" class="node">
<title>2</title>
<polygon fill="none" stroke="gray" points="85.26,-195.55 57,-195.55 57,-171.79 85.26,-171.79 85.26,-195.55"/>
<text text-anchor="start" x="68.13" y="-184.17" font-family="Menlo" font-size="10.00">2</text>
<text text-anchor="start" x="59.88" y="-176.07" font-family="Menlo" font-size="8.00" fill="gray"> ALT </text>
</g>
<!-- 13&#45;&gt;2 -->
<g id="edge1" class="edge">
<title>13&#45;&gt;2</title>
<path fill="none" stroke="gray" d="M39.5,-183.67C43.83,-183.67 48.15,-183.67 52.48,-183.67"/>
<polygon fill="gray" stroke="gray" points="52.29,-184.72 55.29,-183.67 52.29,-182.62 52.29,-184.72"/>
</g>
<!-- 14 -->
<g id="node3" class="node">
<title>14</title>
<polygon fill="none" stroke="gray" points="154.26,-195.55 126,-195.55 126,-171.79 154.26,-171.79 154.26,-195.55"/>
<text text-anchor="start" x="134.13" y="-184.17" font-family="Menlo" font-size="10.00">14</text>
<text text-anchor="start" x="128.88" y="-176.07" font-family="Menlo" font-size="8.00" fill="gray"> ALT </text>
</g>
<!-- 2&#45;&gt;14 -->
<g id="edge2" class="edge">
<title>2&#45;&gt;14</title>
<path fill="none" stroke="gray" d="M85.68,-183.67C97.55,-183.67 109.42,-183.67 121.29,-183.67"/>
<polygon fill="gray" stroke="gray" points="121.15,-184.72 124.15,-183.67 121.15,-182.62 121.15,-184.72"/>
</g>
<!-- 3 -->
<g id="node14" class="node">
<title>3</title>
<polygon fill="none" stroke="gray" points="72.01,-157.79 48.25,-157.79 48.25,-134.03 72.01,-134.03 72.01,-157.79"/>
<text text-anchor="start" x="57.13" y="-146.41" font-family="Menlo" font-size="10.00">3</text>
<text text-anchor="start" x="51.13" y="-138.31" font-family="Menlo" font-size="8.00" fill="gray"> T a</text>
</g>
<!-- 2&#45;&gt;3 -->
<g id="edge13" class="edge">
<title>2&#45;&gt;3</title>
<path fill="none" stroke="gray" d="M67.65,-171.36C66.75,-168.43 65.77,-165.23 64.81,-162.14"/>
<polygon fill="gray" stroke="gray" points="65.88,-162.03 64,-159.48 63.87,-162.65 65.88,-162.03"/>
</g>
<!-- 15 -->
<g id="node4" class="node">
<title>15</title>
<polygon fill="none" stroke="gray" points="158.01,-157.79 134.25,-157.79 134.25,-134.03 158.01,-134.03 158.01,-157.79"/>
<text text-anchor="start" x="140.13" y="-146.41" font-family="Menlo" font-size="10.00">15</text>
<text text-anchor="start" x="137.13" y="-138.31" font-family="Menlo" font-size="8.00" fill="gray"> T k</text>
</g>
<!-- 14&#45;&gt;15 -->
<g id="edge3" class="edge">
<title>14&#45;&gt;15</title>
<path fill="none" stroke="gray" d="M142.03,-171.36C142.52,-168.43 143.06,-165.23 143.57,-162.14"/>
<polygon fill="gray" stroke="gray" points="144.55,-162.65 144.01,-159.52 142.48,-162.31 144.55,-162.65"/>
</g>
<!-- 22 -->
<g id="node5" class="node">
<title>22</title>
<polygon fill="none" stroke="gray" points="166.26,-120.03 138,-120.03 138,-96.27 166.26,-96.27 166.26,-120.03"/>
<text text-anchor="start" x="146.13" y="-108.65" font-family="Menlo" font-size="10.00">22</text>
<text text-anchor="start" x="140.88" y="-100.55" font-family="Menlo" font-size="8.00" fill="gray"> OPT </text>
</g>
<!-- 15&#45;&gt;22 -->
<g id="edge4" class="edge">
<title>15&#45;&gt;22</title>
<path fill="none" stroke="gray" d="M148.03,-133.6C148.52,-130.67 149.06,-127.47 149.57,-124.38"/>
<polygon fill="gray" stroke="gray" points="150.55,-124.89 150.01,-121.76 148.48,-124.55 150.55,-124.89"/>
</g>
<!-- 16 -->
<g id="node6" class="node">
<title>16</title>
<polygon fill="none" stroke="gray" points="212.26,-120.03 184,-120.03 184,-96.27 212.26,-96.27 212.26,-120.03"/>
<text text-anchor="start" x="192.13" y="-108.65" font-family="Menlo" font-size="10.00">16</text>
<text text-anchor="start" x="186.88" y="-100.55" font-family="Menlo" font-size="8.00" fill="gray"> ALT </text>
</g>
<!-- 22&#45;&gt;16 -->
<g id="edge5" class="edge">
<title>22&#45;&gt;16</title>
<path fill="none" stroke="gray" d="M166.5,-108.15C170.83,-108.15 175.15,-108.15 179.48,-108.15"/>
<polygon fill="gray" stroke="gray" points="179.29,-109.2 182.29,-108.15 179.29,-107.1 179.29,-109.2"/>
</g>
<!-- 23 -->
<g id="node12" class="node">
<title>23</title>
<polygon fill="none" stroke="gray" points="164.01,-82.27 140.25,-82.27 140.25,-58.51 164.01,-58.51 164.01,-82.27"/>
<text text-anchor="start" x="146.13" y="-70.89" font-family="Menlo" font-size="10.00">23</text>
<text text-anchor="start" x="143.13" y="-62.79" font-family="Menlo" font-size="8.00" fill="gray"> T n</text>
</g>
<!-- 22&#45;&gt;23 -->
<g id="edge11" class="edge">
<title>22&#45;&gt;23</title>
<path fill="none" stroke="gray" d="M152.13,-95.84C152.13,-92.91 152.13,-89.71 152.13,-86.62"/>
<polygon fill="gray" stroke="gray" points="153.18,-87.02 152.13,-84.02 151.08,-87.02 153.18,-87.02"/>
</g>
<!-- 19 -->
<g id="node7" class="node">
<title>19</title>
<polygon fill="none" stroke="gray" points="258.26,-120.03 230,-120.03 230,-96.27 258.26,-96.27 258.26,-120.03"/>
<text text-anchor="start" x="238.13" y="-108.65" font-family="Menlo" font-size="10.00">19</text>
<text text-anchor="start" x="232.88" y="-100.55" font-family="Menlo" font-size="8.00" fill="gray"> ALT </text>
</g>
<!-- 16&#45;&gt;19 -->
<g id="edge6" class="edge">
<title>16&#45;&gt;19</title>
<path fill="none" stroke="gray" d="M212.5,-108.15C216.83,-108.15 221.15,-108.15 225.48,-108.15"/>
<polygon fill="gray" stroke="gray" points="225.29,-109.2 228.29,-108.15 225.29,-107.1 225.29,-109.2"/>
</g>
<!-- 17 -->
<g id="node10" class="node">
<title>17</title>
<polygon fill="none" stroke="gray" points="210.01,-82.27 186.25,-82.27 186.25,-58.51 210.01,-58.51 210.01,-82.27"/>
<text text-anchor="start" x="192.13" y="-70.89" font-family="Menlo" font-size="10.00">17</text>
<text text-anchor="start" x="189.13" y="-62.79" font-family="Menlo" font-size="8.00" fill="gray"> T l</text>
</g>
<!-- 16&#45;&gt;17 -->
<g id="edge9" class="edge">
<title>16&#45;&gt;17</title>
<path fill="none" stroke="gray" d="M198.13,-95.84C198.13,-92.91 198.13,-89.71 198.13,-86.62"/>
<polygon fill="gray" stroke="gray" points="199.18,-87.02 198.13,-84.02 197.08,-87.02 199.18,-87.02"/>
</g>
<!-- 20 -->
<g id="node8" class="node">
<title>20</title>
<polygon fill="none" stroke="gray" points="256.01,-82.27 232.25,-82.27 232.25,-58.51 256.01,-58.51 256.01,-82.27"/>
<text text-anchor="start" x="238.13" y="-70.89" font-family="Menlo" font-size="10.00">20</text>
<text text-anchor="start" x="235.13" y="-62.79" font-family="Menlo" font-size="8.00" fill="gray"> T m</text>
</g>
<!-- 19&#45;&gt;20 -->
<g id="edge7" class="edge">
<title>19&#45;&gt;20</title>
<path fill="none" stroke="gray" d="M244.13,-95.84C244.13,-92.91 244.13,-89.71 244.13,-86.62"/>
<polygon fill="gray" stroke="gray" points="245.18,-87.02 244.13,-84.02 243.08,-87.02 245.18,-87.02"/>
</g>
<!-- 21 -->
<g id="node9" class="node">
<title>21</title>
<polygon fill="none" stroke="gray" points="258.26,-44.51 230,-44.51 230,-20.75 258.26,-20.75 258.26,-44.51"/>
<text text-anchor="start" x="238.13" y="-33.13" font-family="Menlo" font-size="10.00">21</text>
<text text-anchor="start" x="232.88" y="-25.03" font-family="Menlo" font-size="8.00" fill="gray"> END </text>
</g>
<!-- 20&#45;&gt;21 -->
<g id="edge8" class="edge">
<title>20&#45;&gt;21</title>
<path fill="none" stroke="gray" d="M244.13,-58.08C244.13,-55.15 244.13,-51.95 244.13,-48.86"/>
<polygon fill="gray" stroke="gray" points="245.18,-49.26 244.13,-46.26 243.08,-49.26 245.18,-49.26"/>
</g>
<!-- 18 -->
<g id="node11" class="node">
<title>18</title>
<polygon fill="none" stroke="gray" points="212.26,-44.51 184,-44.51 184,-20.75 212.26,-20.75 212.26,-44.51"/>
<text text-anchor="start" x="192.13" y="-33.13" font-family="Menlo" font-size="10.00">18</text>
<text text-anchor="start" x="186.88" y="-25.03" font-family="Menlo" font-size="8.00" fill="gray"> END </text>
</g>
<!-- 17&#45;&gt;18 -->
<g id="edge10" class="edge">
<title>17&#45;&gt;18</title>
<path fill="none" stroke="gray" d="M198.13,-58.08C198.13,-55.15 198.13,-51.95 198.13,-48.86"/>
<polygon fill="gray" stroke="gray" points="199.18,-49.26 198.13,-46.26 197.08,-49.26 199.18,-49.26"/>
</g>
<!-- 24 -->
<g id="node13" class="node">
<title>24</title>
<polygon fill="none" stroke="gray" points="166.26,-44.51 138,-44.51 138,-20.75 166.26,-20.75 166.26,-44.51"/>
<text text-anchor="start" x="146.13" y="-33.13" font-family="Menlo" font-size="10.00">24</text>
<text text-anchor="start" x="140.88" y="-25.03" font-family="Menlo" font-size="8.00" fill="gray"> END </text>
</g>
<!-- 23&#45;&gt;24 -->
<g id="edge12" class="edge">
<title>23&#45;&gt;24</title>
<path fill="none" stroke="gray" d="M152.13,-58.08C152.13,-55.15 152.13,-51.95 152.13,-48.86"/>
<polygon fill="gray" stroke="gray" points="153.18,-49.26 152.13,-46.26 151.08,-49.26 153.18,-49.26"/>
</g>
<!-- 10 -->
<g id="node15" class="node">
<title>10</title>
<polygon fill="none" stroke="gray" points="28.26,-120.03 0,-120.03 0,-96.27 28.26,-96.27 28.26,-120.03"/>
<text text-anchor="start" x="8.13" y="-108.65" font-family="Menlo" font-size="10.00">10</text>
<text text-anchor="start" x="2.88" y="-100.55" font-family="Menlo" font-size="8.00" fill="gray"> OPT </text>
</g>
<!-- 3&#45;&gt;10 -->
<g id="edge14" class="edge">
<title>3&#45;&gt;10</title>
<path fill="none" stroke="gray" d="M48.04,-135.51C43.11,-131.68 37.29,-127.16 31.89,-122.96"/>
<polygon fill="gray" stroke="gray" points="32.8,-122.33 29.78,-121.32 31.51,-123.99 32.8,-122.33"/>
</g>
<!-- 4 -->
<g id="node16" class="node">
<title>4</title>
<polygon fill="none" stroke="gray" points="74.26,-120.03 46,-120.03 46,-96.27 74.26,-96.27 74.26,-120.03"/>
<text text-anchor="start" x="57.13" y="-108.65" font-family="Menlo" font-size="10.00">4</text>
<text text-anchor="start" x="48.88" y="-100.55" font-family="Menlo" font-size="8.00" fill="gray"> ALT </text>
</g>
<!-- 10&#45;&gt;4 -->
<g id="edge15" class="edge">
<title>10&#45;&gt;4</title>
<path fill="none" stroke="gray" d="M28.5,-108.15C32.83,-108.15 37.15,-108.15 41.48,-108.15"/>
<polygon fill="gray" stroke="gray" points="41.29,-109.2 44.29,-108.15 41.29,-107.1 41.29,-109.2"/>
</g>
<!-- 11 -->
<g id="node22" class="node">
<title>11</title>
<polygon fill="none" stroke="gray" points="26.01,-82.27 2.25,-82.27 2.25,-58.51 26.01,-58.51 26.01,-82.27"/>
<text text-anchor="start" x="8.13" y="-70.89" font-family="Menlo" font-size="10.00">11</text>
<text text-anchor="start" x="5.13" y="-62.79" font-family="Menlo" font-size="8.00" fill="gray"> T d</text>
</g>
<!-- 10&#45;&gt;11 -->
<g id="edge21" class="edge">
<title>10&#45;&gt;11</title>
<path fill="none" stroke="gray" d="M14.13,-95.84C14.13,-92.91 14.13,-89.71 14.13,-86.62"/>
<polygon fill="gray" stroke="gray" points="15.18,-87.02 14.13,-84.02 13.08,-87.02 15.18,-87.02"/>
</g>
<!-- 7 -->
<g id="node17" class="node">
<title>7</title>
<polygon fill="none" stroke="gray" points="120.26,-120.03 92,-120.03 92,-96.27 120.26,-96.27 120.26,-120.03"/>
<text text-anchor="start" x="103.13" y="-108.65" font-family="Menlo" font-size="10.00">7</text>
<text text-anchor="start" x="94.88" y="-100.55" font-family="Menlo" font-size="8.00" fill="gray"> ALT </text>
</g>
<!-- 4&#45;&gt;7 -->
<g id="edge16" class="edge">
<title>4&#45;&gt;7</title>
<path fill="none" stroke="gray" d="M74.5,-108.15C78.83,-108.15 83.15,-108.15 87.48,-108.15"/>
<polygon fill="gray" stroke="gray" points="87.29,-109.2 90.29,-108.15 87.29,-107.1 87.29,-109.2"/>
</g>
<!-- 5 -->
<g id="node20" class="node">
<title>5</title>
<polygon fill="none" stroke="gray" points="72.01,-82.27 48.25,-82.27 48.25,-58.51 72.01,-58.51 72.01,-82.27"/>
<text text-anchor="start" x="57.13" y="-70.89" font-family="Menlo" font-size="10.00">5</text>
<text text-anchor="start" x="51.13" y="-62.79" font-family="Menlo" font-size="8.00" fill="gray"> T b</text>
</g>
<!-- 4&#45;&gt;5 -->
<g id="edge19" class="edge">
<title>4&#45;&gt;5</title>
<path fill="none" stroke="gray" d="M60.13,-95.84C60.13,-92.91 60.13,-89.71 60.13,-86.62"/>
<polygon fill="gray" stroke="gray" points="61.18,-87.02 60.13,-84.02 59.08,-87.02 61.18,-87.02"/>
</g>
<!-- 8 -->
<g id="node18" class="node">
<title>8</title>
<polygon fill="none" stroke="gray" points="118.01,-82.27 94.25,-82.27 94.25,-58.51 118.01,-58.51 118.01,-82.27"/>
<text text-anchor="start" x="103.13" y="-70.89" font-family="Menlo" font-size="10.00">8</text>
<text text-anchor="start" x="97.13" y="-62.79" font-family="Menlo" font-size="8.00" fill="gray"> T c</text>
</g>
<!-- 7&#45;&gt;8 -->
<g id="edge17" class="edge">
<title>7&#45;&gt;8</title>
<path fill="none" stroke="gray" d="M106.13,-95.84C106.13,-92.91 106.13,-89.71 106.13,-86.62"/>
<polygon fill="gray" stroke="gray" points="107.18,-87.02 106.13,-84.02 105.08,-87.02 107.18,-87.02"/>
</g>
<!-- 9 -->
<g id="node19" class="node">
<title>9</title>
<polygon fill="none" stroke="gray" points="120.26,-44.51 92,-44.51 92,-20.75 120.26,-20.75 120.26,-44.51"/>
<text text-anchor="start" x="103.13" y="-33.13" font-family="Menlo" font-size="10.00">9</text>
<text text-anchor="start" x="94.88" y="-25.03" font-family="Menlo" font-size="8.00" fill="gray"> END </text>
</g>
<!-- 8&#45;&gt;9 -->
<g id="edge18" class="edge">
<title>8&#45;&gt;9</title>
<path fill="none" stroke="gray" d="M106.13,-58.08C106.13,-55.15 106.13,-51.95 106.13,-48.86"/>
<polygon fill="gray" stroke="gray" points="107.18,-49.26 106.13,-46.26 105.08,-49.26 107.18,-49.26"/>
</g>
<!-- 6 -->
<g id="node21" class="node">
<title>6</title>
<polygon fill="none" stroke="gray" points="74.26,-44.51 46,-44.51 46,-20.75 74.26,-20.75 74.26,-44.51"/>
<text text-anchor="start" x="57.13" y="-33.13" font-family="Menlo" font-size="10.00">6</text>
<text text-anchor="start" x="48.88" y="-25.03" font-family="Menlo" font-size="8.00" fill="gray"> END </text>
</g>
<!-- 5&#45;&gt;6 -->
<g id="edge20" class="edge">
<title>5&#45;&gt;6</title>
<path fill="none" stroke="gray" d="M60.13,-58.08C60.13,-55.15 60.13,-51.95 60.13,-48.86"/>
<polygon fill="gray" stroke="gray" points="61.18,-49.26 60.13,-46.26 59.08,-49.26 61.18,-49.26"/>
</g>
<!-- 12 -->
<g id="node23" class="node">
<title>12</title>
<polygon fill="none" stroke="gray" points="28.26,-44.51 0,-44.51 0,-20.75 28.26,-20.75 28.26,-44.51"/>
<text text-anchor="start" x="8.13" y="-33.13" font-family="Menlo" font-size="10.00">12</text>
<text text-anchor="start" x="2.88" y="-25.03" font-family="Menlo" font-size="8.00" fill="gray"> END </text>
</g>
<!-- 11&#45;&gt;12 -->
<g id="edge22" class="edge">
<title>11&#45;&gt;12</title>
<path fill="none" stroke="gray" d="M14.13,-58.08C14.13,-55.15 14.13,-51.95 14.13,-48.86"/>
<polygon fill="gray" stroke="gray" points="15.18,-49.26 14.13,-46.26 13.08,-49.26 15.18,-49.26"/>
</g>
</g>
</svg>
