<?xml version="1.0" encoding="UTF-8" standalone="no"?>
<!DOCTYPE svg PUBLIC "-//W3C//DTD SVG 1.1//EN"
 "http://www.w3.org/Graphics/SVG/1.1/DTD/svg11.dtd">
<!-- Generated by graphviz version 9.0.0 (20230911.1827)
 -->
<!-- Title: G Pages: 1 -->
<svg width="327pt" height="381pt"
 viewBox="0.00 0.00 327.00 380.79" xmlns="http://www.w3.org/2000/svg" xmlns:xlink="http://www.w3.org/1999/xlink">
<g id="graph0" class="graph" transform="scale(1 1) rotate(0) translate(4 376.79)">
<title>G</title>
<polygon fill="white" stroke="none" points="-4,4 -4,-376.79 323,-376.79 323,4 -4,4"/>
<g id="clust1" class="cluster">
<title>clusterS</title>
<polygon fill="none" stroke="black" points="8,-8 8,-364.79 311,-364.79 311,-8 8,-8"/>
<text text-anchor="start" x="16" y="-351.29" font-family="Menlo" font-size="10.00">S = { &quot;a&quot; } &quot;b&quot; .</text>
</g>
<!-- 9 -->
<g id="node1" class="node">
<title>9</title>
<polygon fill="none" stroke="gray" points="123.88,-336.04 16.12,-336.04 16.12,-266.53 123.88,-266.53 123.88,-336.04"/>
<text text-anchor="start" x="67" y="-323.66" font-family="Menlo" font-size="10.00">9</text>
<text text-anchor="start" x="61" y="-310.91" font-family="Menlo" font-size="10.00">N S</text>
<text text-anchor="start" x="19" y="-298.16" font-family="Menlo" font-size="10.00">fi [&quot;&quot;, &quot;a&quot;, &quot;b&quot;]</text>
<text text-anchor="start" x="49" y="-285.41" font-family="Menlo" font-size="10.00">fo [&quot;&quot;]</text>
<text text-anchor="start" x="49" y="-272.66" font-family="Menlo" font-size="10.00">am [&quot;&quot;]</text>
</g>
<!-- 2 -->
<g id="node2" class="node">
<title>2</title>
<polygon fill="none" stroke="gray" points="249.88,-336.04 142.12,-336.04 142.12,-266.53 249.88,-266.53 249.88,-336.04"/>
<text text-anchor="start" x="193" y="-323.66" font-family="Menlo" font-size="10.00">2</text>
<text text-anchor="start" x="184" y="-310.91" font-family="Menlo" font-size="10.00">ALT </text>
<text text-anchor="start" x="145" y="-298.16" font-family="Menlo" font-size="10.00">fi [&quot;&quot;, &quot;a&quot;, &quot;b&quot;]</text>
<text text-anchor="start" x="175" y="-285.41" font-family="Menlo" font-size="10.00">fo [&quot;&quot;]</text>
<text text-anchor="start" x="175" y="-272.66" font-family="Menlo" font-size="10.00">am [&quot;&quot;]</text>
</g>
<!-- 9&#45;&gt;2 -->
<g id="edge1" class="edge">
<title>9&#45;&gt;2</title>
<path fill="none" stroke="gray" d="M124.14,-301.29C128.56,-301.29 132.98,-301.29 137.4,-301.29"/>
<polygon fill="gray" stroke="gray" points="137.31,-302.34 140.31,-301.29 137.31,-300.24 137.31,-302.34"/>
</g>
<!-- 6 -->
<g id="node3" class="node">
<title>6</title>
<polygon fill="none" stroke="gray" points="123.88,-252.53 16.12,-252.53 16.12,-183.02 123.88,-183.02 123.88,-252.53"/>
<text text-anchor="start" x="67" y="-240.15" font-family="Menlo" font-size="10.00">6</text>
<text text-anchor="start" x="58" y="-227.4" font-family="Menlo" font-size="10.00">KLN </text>
<text text-anchor="start" x="34" y="-214.65" font-family="Menlo" font-size="10.00">fi [&quot;&quot;, &quot;a&quot;]</text>
<text text-anchor="start" x="19" y="-201.9" font-family="Menlo" font-size="10.00">fo [&quot;&quot;, &quot;a&quot;, &quot;b&quot;]</text>
<text text-anchor="start" x="34" y="-189.15" font-family="Menlo" font-size="10.00">am [&quot;&quot;, &quot;a&quot;]</text>
</g>
<!-- 2&#45;&gt;6 -->
<g id="edge2" class="edge">
<title>2&#45;&gt;6</title>
<path fill="none" stroke="gray" d="M143.29,-266.19C137.71,-262.58 132.01,-258.89 126.39,-255.25"/>
<polygon fill="gray" stroke="gray" points="127.26,-254.57 124.17,-253.82 126.12,-256.33 127.26,-254.57"/>
</g>
<!-- 3 -->
<g id="node4" class="node">
<title>3</title>
<polygon fill="none" stroke="gray" points="269.88,-252.53 162.12,-252.53 162.12,-183.02 269.88,-183.02 269.88,-252.53"/>
<text text-anchor="start" x="213" y="-240.15" font-family="Menlo" font-size="10.00">3</text>
<text text-anchor="start" x="204" y="-227.4" font-family="Menlo" font-size="10.00">ALT </text>
<text text-anchor="start" x="192" y="-214.65" font-family="Menlo" font-size="10.00">fi [&quot;a&quot;]</text>
<text text-anchor="start" x="165" y="-201.9" font-family="Menlo" font-size="10.00">fo [&quot;&quot;, &quot;a&quot;, &quot;b&quot;]</text>
<text text-anchor="start" x="201" y="-189.15" font-family="Menlo" font-size="10.00">am []</text>
</g>
<!-- 6&#45;&gt;3 -->
<g id="edge3" class="edge">
<title>6&#45;&gt;3</title>
<path fill="none" stroke="gray" d="M124.18,-217.78C135.26,-217.78 146.34,-217.78 157.43,-217.78"/>
<polygon fill="gray" stroke="gray" points="157.33,-218.83 160.33,-217.78 157.33,-216.73 157.33,-218.83"/>
</g>
<!-- 7 -->
<g id="node7" class="node">
<title>7</title>
<polygon fill="none" stroke="gray" points="96.88,-169.02 43.12,-169.02 43.12,-99.51 96.88,-99.51 96.88,-169.02"/>
<text text-anchor="start" x="67" y="-156.64" font-family="Menlo" font-size="10.00">7</text>
<text text-anchor="start" x="55" y="-143.89" font-family="Menlo" font-size="10.00">T &quot;b&quot;</text>
<text text-anchor="start" x="46" y="-131.14" font-family="Menlo" font-size="10.00">fi [&quot;b&quot;]</text>
<text text-anchor="start" x="49" y="-118.39" font-family="Menlo" font-size="10.00">fo [&quot;&quot;]</text>
<text text-anchor="start" x="55" y="-105.64" font-family="Menlo" font-size="10.00">am []</text>
</g>
<!-- 6&#45;&gt;7 -->
<g id="edge6" class="edge">
<title>6&#45;&gt;7</title>
<path fill="none" stroke="gray" d="M70,-182.68C70,-179.68 70,-176.63 70,-173.6"/>
<polygon fill="gray" stroke="gray" points="71.05,-174 70,-171 68.95,-174 71.05,-174"/>
</g>
<!-- 4 -->
<g id="node5" class="node">
<title>4</title>
<polygon fill="none" stroke="gray" points="242.88,-169.02 135.12,-169.02 135.12,-99.51 242.88,-99.51 242.88,-169.02"/>
<text text-anchor="start" x="186" y="-156.64" font-family="Menlo" font-size="10.00">4</text>
<text text-anchor="start" x="174" y="-143.89" font-family="Menlo" font-size="10.00">T &quot;a&quot;</text>
<text text-anchor="start" x="165" y="-131.14" font-family="Menlo" font-size="10.00">fi [&quot;a&quot;]</text>
<text text-anchor="start" x="138" y="-118.39" font-family="Menlo" font-size="10.00">fo [&quot;&quot;, &quot;a&quot;, &quot;b&quot;]</text>
<text text-anchor="start" x="174" y="-105.64" font-family="Menlo" font-size="10.00">am []</text>
</g>
<!-- 3&#45;&gt;4 -->
<g id="edge4" class="edge">
<title>3&#45;&gt;4</title>
<path fill="none" stroke="gray" d="M204.71,-182.68C203.71,-179.68 202.7,-176.63 201.7,-173.6"/>
<polygon fill="gray" stroke="gray" points="202.75,-173.44 200.81,-170.92 200.76,-174.1 202.75,-173.44"/>
</g>
<!-- 5 -->
<g id="node6" class="node">
<title>5</title>
<polygon fill="none" stroke="gray" points="242.88,-85.51 135.12,-85.51 135.12,-16 242.88,-16 242.88,-85.51"/>
<text text-anchor="start" x="186" y="-73.13" font-family="Menlo" font-size="10.00">5</text>
<text text-anchor="start" x="177" y="-60.38" font-family="Menlo" font-size="10.00">END </text>
<text text-anchor="start" x="168" y="-47.63" font-family="Menlo" font-size="10.00">fi [&quot;&quot;]</text>
<text text-anchor="start" x="138" y="-34.88" font-family="Menlo" font-size="10.00">fo [&quot;&quot;, &quot;a&quot;, &quot;b&quot;]</text>
<text text-anchor="start" x="174" y="-22.13" font-family="Menlo" font-size="10.00">am []</text>
</g>
<!-- 4&#45;&gt;5 -->
<g id="edge5" class="edge">
<title>4&#45;&gt;5</title>
<path fill="none" stroke="gray" d="M189,-99.17C189,-96.17 189,-93.12 189,-90.09"/>
<polygon fill="gray" stroke="gray" points="190.05,-90.49 189,-87.49 187.95,-90.49 190.05,-90.49"/>
</g>
<!-- 5&#45;&gt;6 -->
<g id="edge9" class="edge">
<title>5:e&#45;&gt;6</title>
<path fill="none" stroke="red" stroke-dasharray="1,5" d="M244,-50.76C296.68,-50.76 286.55,-129.25 252,-169.02 237.43,-185.8 174.45,-177.24 153,-183.02 144.87,-185.21 136.46,-187.99 128.27,-191"/>
<polygon fill="red" stroke="red" points="128.12,-189.93 125.68,-191.97 128.86,-191.9 128.12,-189.93"/>
</g>
<!-- 5&#45;&gt;3 -->
<g id="edge8" class="edge">
<title>5:e&#45;&gt;3</title>
<path fill="none" stroke="red" stroke-dasharray="1,5" d="M244,-50.76C259.45,-50.76 253.42,-74.1 243,-85.51 207.68,-124.18 160.76,-60.34 126,-99.51 105.49,-122.62 110.08,-142.55 126,-169.02 133.44,-181.38 145.27,-190.72 157.94,-197.69"/>
<polygon fill="red" stroke="red" points="157.42,-198.6 160.56,-199.08 158.4,-196.75 157.42,-198.6"/>
</g>
<!-- 8 -->
<g id="node8" class="node">
<title>8</title>
<polygon fill="none" stroke="gray" points="93.88,-85.51 46.12,-85.51 46.12,-16 93.88,-16 93.88,-85.51"/>
<text text-anchor="start" x="67" y="-73.13" font-family="Menlo" font-size="10.00">8</text>
<text text-anchor="start" x="58" y="-60.38" font-family="Menlo" font-size="10.00">END </text>
<text text-anchor="start" x="49" y="-47.63" font-family="Menlo" font-size="10.00">fi [&quot;&quot;]</text>
<text text-anchor="start" x="49" y="-34.88" font-family="Menlo" font-size="10.00">fo [&quot;&quot;]</text>
<text text-anchor="start" x="55" y="-22.13" font-family="Menlo" font-size="10.00">am []</text>
</g>
<!-- 7&#45;&gt;8 -->
<g id="edge7" class="edge">
<title>7&#45;&gt;8</title>
<path fill="none" stroke="gray" d="M70,-99.17C70,-96.17 70,-93.12 70,-90.09"/>
<polygon fill="gray" stroke="gray" points="71.05,-90.49 70,-87.49 68.95,-90.49 71.05,-90.49"/>
</g>
<!-- 8&#45;&gt;9 -->
<g id="edge11" class="edge">
<title>8:e&#45;&gt;9</title>
<path fill="none" stroke="red" stroke-dasharray="1,5" d="M95,-50.76C115.7,-50.76 107.61,-76.02 126,-85.51 176.07,-111.36 208.34,-63.89 252,-99.51 305.51,-143.17 325.44,-201.42 279,-252.53 257.08,-276.65 164.2,-257.09 133,-266.53 131.42,-267.01 129.84,-267.53 128.25,-268.08"/>
<polygon fill="red" stroke="red" points="127.93,-267.08 125.48,-269.1 128.66,-269.05 127.93,-267.08"/>
</g>
<!-- 8&#45;&gt;2 -->
<g id="edge10" class="edge">
<title>8:e&#45;&gt;2</title>
<path fill="none" stroke="red" stroke-dasharray="1,5" d="M95,-50.76C115.7,-50.76 107.61,-76.02 126,-85.51 151.03,-98.43 233.21,-78.52 252,-99.51 272.6,-122.53 272.26,-145.7 252,-169.02 222.86,-202.57 182.14,-149.47 153,-183.02 132.74,-206.34 141.93,-223.69 153,-252.53 154.32,-255.97 156.02,-259.32 157.97,-262.55"/>
<polygon fill="red" stroke="red" points="157.05,-263.05 159.56,-265 158.81,-261.91 157.05,-263.05"/>
</g>
</g>
</svg>
