<?xml version="1.0" encoding="UTF-8" standalone="no"?>
<!DOCTYPE svg PUBLIC "-//W3C//DTD SVG 1.1//EN"
 "http://www.w3.org/Graphics/SVG/1.1/DTD/svg11.dtd">
<!-- Generated by graphviz version 9.0.0 (20230911.1827)
 -->
<!-- Title: G Pages: 1 -->
<svg width="720pt" height="363pt"
 viewBox="0.00 0.00 720.00 362.79" xmlns="http://www.w3.org/2000/svg" xmlns:xlink="http://www.w3.org/1999/xlink">
<g id="graph0" class="graph" transform="scale(1 1) rotate(0) translate(4 358.79)">
<title>G</title>
<polygon fill="white" stroke="none" points="-4,4 -4,-358.79 716,-358.79 716,4 -4,4"/>
<g id="clust1" class="cluster">
<title>GSS</title>
<polygon fill="none" stroke="black" points="8,-188.52 8,-323.92 98,-323.92 98,-188.52 8,-188.52"/>
<text text-anchor="start" x="16" y="-310.42" font-family="Menlo" font-size="10.00" fill="green">ac↵</text>
</g>
<g id="clust2" class="cluster">
<title>clusterA</title>
<polygon fill="none" stroke="black" points="106,-8 106,-346.79 410,-346.79 410,-8 106,-8"/>
<text text-anchor="start" x="114" y="-333.29" font-family="Menlo" font-size="10.00">A = [ &quot;a&quot; ] .</text>
</g>
<g id="clust10" class="cluster">
<title>clusterS</title>
<polygon fill="none" stroke="black" points="418,-8 418,-346.79 704,-346.79 704,-8 418,-8"/>
<text text-anchor="start" x="426" y="-333.29" font-family="Menlo" font-size="10.00">S = A &quot;b&quot; | A &quot;c&quot; .</text>
</g>
<!-- E0 -->
<g id="node1" class="node">
<title>E0</title>
<path fill="none" stroke="gray" d="M82.21,-295.17C82.21,-295.17 69.79,-295.17 69.79,-295.17 65.83,-295.17 61.87,-291.21 61.87,-287.25 61.87,-287.25 61.87,-279.33 61.87,-279.33 61.87,-275.37 65.83,-271.41 69.79,-271.41 69.79,-271.41 82.21,-271.41 82.21,-271.41 86.17,-271.41 90.13,-275.37 90.13,-279.33 90.13,-279.33 90.13,-287.25 90.13,-287.25 90.13,-291.21 86.17,-295.17 82.21,-295.17"/>
<text text-anchor="start" x="70" y="-283.79" font-family="Menlo" font-size="10.00">E0</text>
<text text-anchor="start" x="64.75" y="-275.69" font-family="Menlo" font-size="8.00" fill="gray"> 0, 1</text>
</g>
<!-- ●○ -->
<g id="node2" class="node">
<title>●○</title>
<path fill="none" stroke="gray" d="M55.96,-215.03C55.96,-215.03 50.04,-215.03 50.04,-215.03 47.08,-215.03 44.12,-212.07 44.12,-209.11 44.12,-209.11 44.12,-202.44 44.12,-202.44 44.12,-199.48 47.08,-196.52 50.04,-196.52 50.04,-196.52 55.96,-196.52 55.96,-196.52 58.92,-196.52 61.88,-199.48 61.88,-202.44 61.88,-202.44 61.88,-209.11 61.88,-209.11 61.88,-212.07 58.92,-215.03 55.96,-215.03"/>
<text text-anchor="middle" x="53" y="-202.65" font-family="Menlo" font-size="10.00">●○</text>
</g>
<!-- E0&#45;&gt;●○ -->
<g id="edge1" class="edge">
<title>E0&#45;&gt;●○</title>
<path fill="none" stroke="gray" d="M72.61,-271.14C68.39,-257.31 61.23,-233.79 56.82,-219.33"/>
<polygon fill="gray" stroke="gray" points="57.87,-219.17 55.99,-216.61 55.86,-219.78 57.87,-219.17"/>
</g>
<!-- I0 -->
<g id="node3" class="node">
<title>I0</title>
<path fill="none" stroke="gray" d="M36.21,-295.17C36.21,-295.17 23.79,-295.17 23.79,-295.17 19.83,-295.17 15.87,-291.21 15.87,-287.25 15.87,-287.25 15.87,-279.33 15.87,-279.33 15.87,-275.37 19.83,-271.41 23.79,-271.41 23.79,-271.41 36.21,-271.41 36.21,-271.41 40.17,-271.41 44.13,-275.37 44.13,-279.33 44.13,-279.33 44.13,-287.25 44.13,-287.25 44.13,-291.21 40.17,-295.17 36.21,-295.17"/>
<text text-anchor="start" x="24" y="-283.79" font-family="Menlo" font-size="10.00">I0</text>
<text text-anchor="start" x="18.75" y="-275.69" font-family="Menlo" font-size="8.00" fill="gray"> 0, 1</text>
</g>
<!-- I0&#45;&gt;●○ -->
<g id="edge2" class="edge">
<title>I0&#45;&gt;●○</title>
<path fill="none" stroke="gray" d="M33.39,-271.14C37.61,-257.31 44.77,-233.79 49.18,-219.33"/>
<polygon fill="gray" stroke="gray" points="50.14,-219.78 50.01,-216.61 48.13,-219.17 50.14,-219.78"/>
</g>
<!-- AR0C0 -->
<g id="node4" class="node">
<title>AR0C0</title>
<polygon fill="none" stroke="gray" points="197.88,-318.04 114.12,-318.04 114.12,-248.53 197.88,-248.53 197.88,-318.04"/>
<text text-anchor="start" x="153" y="-305.66" font-family="Menlo" font-size="10.00">R</text>
<text text-anchor="start" x="147" y="-292.91" font-family="Menlo" font-size="10.00">N A</text>
<text text-anchor="start" x="120" y="-280.16" font-family="Menlo" font-size="10.00">fi [&quot;&quot;, &quot;a&quot;]</text>
<text text-anchor="start" x="117" y="-267.41" font-family="Menlo" font-size="10.00">fo [&quot;b&quot;, &quot;c&quot;]</text>
<text text-anchor="start" x="141" y="-254.66" font-family="Menlo" font-size="10.00">am []</text>
</g>
<!-- AR0C1 -->
<g id="node5" class="node">
<title>AR0C1</title>
<polygon fill="none" stroke="gray" points="299.88,-318.04 216.12,-318.04 216.12,-248.53 299.88,-248.53 299.88,-318.04"/>
<text text-anchor="start" x="255" y="-305.66" font-family="Menlo" font-size="10.00">L</text>
<text text-anchor="start" x="246" y="-292.91" font-family="Menlo" font-size="10.00">ALT </text>
<text text-anchor="start" x="222" y="-280.16" font-family="Menlo" font-size="10.00">fi [&quot;&quot;, &quot;a&quot;]</text>
<text text-anchor="start" x="219" y="-267.41" font-family="Menlo" font-size="10.00">fo [&quot;b&quot;, &quot;c&quot;]</text>
<text text-anchor="start" x="243" y="-254.66" font-family="Menlo" font-size="10.00">am []</text>
</g>
<!-- AR0C0&#45;&gt;AR0C1 -->
<g id="edge8" class="edge">
<title>AR0C0&#45;&gt;AR0C1</title>
<path fill="none" stroke="gray" d="M198.23,-283.29C202.67,-283.29 207.11,-283.29 211.54,-283.29"/>
<polygon fill="gray" stroke="gray" points="211.46,-284.34 214.46,-283.29 211.46,-282.24 211.46,-284.34"/>
</g>
<!-- AR1C0 -->
<!-- AR0C0&#45;&gt;AR1C0 -->
<!-- AR1C1 -->
<g id="node6" class="node">
<title>AR1C1</title>
<polygon fill="none" stroke="gray" points="299.88,-240.53 216.12,-240.53 216.12,-171.02 299.88,-171.02 299.88,-240.53"/>
<text text-anchor="start" x="255" y="-228.15" font-family="Menlo" font-size="10.00">P</text>
<text text-anchor="start" x="246" y="-215.4" font-family="Menlo" font-size="10.00">OPT </text>
<text text-anchor="start" x="222" y="-202.65" font-family="Menlo" font-size="10.00">fi [&quot;&quot;, &quot;a&quot;]</text>
<text text-anchor="start" x="219" y="-189.9" font-family="Menlo" font-size="10.00">fo [&quot;b&quot;, &quot;c&quot;]</text>
<text text-anchor="start" x="243" y="-177.15" font-family="Menlo" font-size="10.00">am []</text>
</g>
<!-- AR0C1&#45;&gt;AR1C1 -->
<g id="edge7" class="edge">
<title>AR0C1&#45;&gt;AR1C1</title>
<path fill="none" stroke="gray" d="M258,-248.06C258,-247.19 258,-246.31 258,-245.43"/>
<polygon fill="gray" stroke="gray" points="259.05,-245.54 258,-242.54 256.95,-245.54 259.05,-245.54"/>
</g>
<!-- AR0C2 -->
<!-- AR0C1&#45;&gt;AR0C2 -->
<!-- AR2C1 -->
<g id="node7" class="node">
<title>AR2C1</title>
<polygon fill="none" stroke="gray" points="299.88,-163.02 216.12,-163.02 216.12,-93.51 299.88,-93.51 299.88,-163.02"/>
<text text-anchor="start" x="255" y="-150.64" font-family="Menlo" font-size="10.00">Q</text>
<text text-anchor="start" x="246" y="-137.89" font-family="Menlo" font-size="10.00">END </text>
<text text-anchor="start" x="237" y="-125.14" font-family="Menlo" font-size="10.00">fi [&quot;&quot;]</text>
<text text-anchor="start" x="219" y="-112.39" font-family="Menlo" font-size="10.00">fo [&quot;b&quot;, &quot;c&quot;]</text>
<text text-anchor="start" x="243" y="-99.64" font-family="Menlo" font-size="10.00">am []</text>
</g>
<!-- AR1C1&#45;&gt;AR2C1 -->
<g id="edge3" class="edge">
<title>AR1C1&#45;&gt;AR2C1</title>
<path fill="none" stroke="gray" d="M258,-170.55C258,-169.68 258,-168.8 258,-167.92"/>
<polygon fill="gray" stroke="gray" points="259.05,-168.03 258,-165.03 256.95,-168.03 259.05,-168.03"/>
</g>
<!-- AR1C2 -->
<g id="node8" class="node">
<title>AR1C2</title>
<polygon fill="none" stroke="gray" points="401.88,-240.53 318.12,-240.53 318.12,-171.02 401.88,-171.02 401.88,-240.53"/>
<text text-anchor="start" x="357" y="-228.15" font-family="Menlo" font-size="10.00">M</text>
<text text-anchor="start" x="348" y="-215.4" font-family="Menlo" font-size="10.00">ALT </text>
<text text-anchor="start" x="336" y="-202.65" font-family="Menlo" font-size="10.00">fi [&quot;a&quot;]</text>
<text text-anchor="start" x="321" y="-189.9" font-family="Menlo" font-size="10.00">fo [&quot;b&quot;, &quot;c&quot;]</text>
<text text-anchor="start" x="345" y="-177.15" font-family="Menlo" font-size="10.00">am []</text>
</g>
<!-- AR1C1&#45;&gt;AR1C2 -->
<g id="edge6" class="edge">
<title>AR1C1&#45;&gt;AR1C2</title>
<path fill="none" stroke="gray" d="M300.23,-205.78C304.67,-205.78 309.11,-205.78 313.54,-205.78"/>
<polygon fill="gray" stroke="gray" points="313.46,-206.83 316.46,-205.78 313.46,-204.73 313.46,-206.83"/>
</g>
<!-- AR3C1 -->
<!-- AR2C1&#45;&gt;AR3C1 -->
<!-- AR2C2 -->
<g id="node9" class="node">
<title>AR2C2</title>
<polygon fill="none" stroke="gray" points="401.88,-163.02 318.12,-163.02 318.12,-93.51 401.88,-93.51 401.88,-163.02"/>
<text text-anchor="start" x="357" y="-150.64" font-family="Menlo" font-size="10.00">N</text>
<text text-anchor="start" x="345" y="-137.89" font-family="Menlo" font-size="10.00">T &quot;a&quot;</text>
<text text-anchor="start" x="336" y="-125.14" font-family="Menlo" font-size="10.00">fi [&quot;a&quot;]</text>
<text text-anchor="start" x="321" y="-112.39" font-family="Menlo" font-size="10.00">fo [&quot;b&quot;, &quot;c&quot;]</text>
<text text-anchor="start" x="345" y="-99.64" font-family="Menlo" font-size="10.00">am []</text>
</g>
<!-- AR1C2&#45;&gt;AR2C2 -->
<g id="edge5" class="edge">
<title>AR1C2&#45;&gt;AR2C2</title>
<path fill="none" stroke="gray" d="M360,-170.55C360,-169.68 360,-168.8 360,-167.92"/>
<polygon fill="gray" stroke="gray" points="361.05,-168.03 360,-165.03 358.95,-168.03 361.05,-168.03"/>
</g>
<!-- AR3C2 -->
<g id="node10" class="node">
<title>AR3C2</title>
<polygon fill="none" stroke="gray" points="401.88,-85.51 318.12,-85.51 318.12,-16 401.88,-16 401.88,-85.51"/>
<text text-anchor="start" x="357" y="-73.13" font-family="Menlo" font-size="10.00">O</text>
<text text-anchor="start" x="348" y="-60.38" font-family="Menlo" font-size="10.00">END </text>
<text text-anchor="start" x="339" y="-47.63" font-family="Menlo" font-size="10.00">fi [&quot;&quot;]</text>
<text text-anchor="start" x="321" y="-34.88" font-family="Menlo" font-size="10.00">fo [&quot;b&quot;, &quot;c&quot;]</text>
<text text-anchor="start" x="345" y="-22.13" font-family="Menlo" font-size="10.00">am []</text>
</g>
<!-- AR2C2&#45;&gt;AR3C2 -->
<g id="edge4" class="edge">
<title>AR2C2&#45;&gt;AR3C2</title>
<path fill="none" stroke="gray" d="M360,-93.04C360,-92.17 360,-91.29 360,-90.41"/>
<polygon fill="gray" stroke="gray" points="361.05,-90.52 360,-87.52 358.95,-90.52 361.05,-90.52"/>
</g>
<!-- AR0C2&#45;&gt;AR1C2 -->
<!-- AR1C0&#45;&gt;AR1C1 -->
<!-- AR2C0 -->
<!-- AR1C0&#45;&gt;AR2C0 -->
<!-- AR2C0&#45;&gt;AR2C1 -->
<!-- AR3C0 -->
<!-- AR2C0&#45;&gt;AR3C0 -->
<!-- AR3C0&#45;&gt;AR3C1 -->
<!-- AR3C1&#45;&gt;AR3C2 -->
<!-- SR0C0 -->
<g id="node16" class="node">
<title>SR0C0</title>
<polygon fill="none" stroke="gray" points="503.88,-318.04 426.12,-318.04 426.12,-248.53 503.88,-248.53 503.88,-318.04"/>
<text text-anchor="start" x="462" y="-305.66" font-family="Menlo" font-size="10.00">K</text>
<text text-anchor="start" x="456" y="-292.91" font-family="Menlo" font-size="10.00">N S</text>
<text text-anchor="start" x="429" y="-280.16" font-family="Menlo" font-size="10.00">fi [&quot;&quot;, &quot;a&quot;]</text>
<text text-anchor="start" x="441" y="-267.41" font-family="Menlo" font-size="10.00">fo [&quot;$&quot;]</text>
<text text-anchor="start" x="441" y="-254.66" font-family="Menlo" font-size="10.00">am [&quot;a&quot;]</text>
</g>
<!-- SR0C1 -->
<g id="node17" class="node">
<title>SR0C1</title>
<polygon fill="none" stroke="gray" points="599.88,-318.04 522.12,-318.04 522.12,-248.53 599.88,-248.53 599.88,-318.04"/>
<text text-anchor="start" x="558" y="-305.66" font-family="Menlo" font-size="10.00">C</text>
<text text-anchor="start" x="549" y="-292.91" font-family="Menlo" font-size="10.00">ALT </text>
<text text-anchor="start" x="525" y="-280.16" font-family="Menlo" font-size="10.00">fi [&quot;&quot;, &quot;a&quot;]</text>
<text text-anchor="start" x="537" y="-267.41" font-family="Menlo" font-size="10.00">fo [&quot;$&quot;]</text>
<text text-anchor="start" x="546" y="-254.66" font-family="Menlo" font-size="10.00">am []</text>
</g>
<!-- SR0C0&#45;&gt;SR0C1 -->
<g id="edge26" class="edge">
<title>SR0C0&#45;&gt;SR0C1</title>
<path fill="none" stroke="gray" d="M504.38,-283.29C508.69,-283.29 513,-283.29 517.31,-283.29"/>
<polygon fill="gray" stroke="gray" points="517.11,-284.34 520.11,-283.29 517.11,-282.24 517.11,-284.34"/>
</g>
<!-- SR1C0 -->
<!-- SR0C0&#45;&gt;SR1C0 -->
<!-- SR1C1 -->
<g id="node18" class="node">
<title>SR1C1</title>
<polygon fill="none" stroke="gray" points="599.88,-240.53 522.12,-240.53 522.12,-171.02 599.88,-171.02 599.88,-240.53"/>
<text text-anchor="start" x="558" y="-228.15" font-family="Menlo" font-size="10.00">D</text>
<text text-anchor="start" x="552" y="-215.4" font-family="Menlo" font-size="10.00">N A</text>
<text text-anchor="start" x="525" y="-202.65" font-family="Menlo" font-size="10.00">fi [&quot;&quot;, &quot;a&quot;]</text>
<text text-anchor="start" x="537" y="-189.9" font-family="Menlo" font-size="10.00">fo [&quot;b&quot;]</text>
<text text-anchor="start" x="546" y="-177.15" font-family="Menlo" font-size="10.00">am []</text>
</g>
<!-- SR0C1&#45;&gt;SR1C1 -->
<g id="edge21" class="edge">
<title>SR0C1&#45;&gt;SR1C1</title>
<path fill="none" stroke="gray" d="M561,-248.06C561,-247.19 561,-246.31 561,-245.43"/>
<polygon fill="gray" stroke="gray" points="562.05,-245.54 561,-242.54 559.95,-245.54 562.05,-245.54"/>
</g>
<!-- SR0C2 -->
<g id="node21" class="node">
<title>SR0C2</title>
<polygon fill="none" stroke="gray" points="695.88,-318.04 618.12,-318.04 618.12,-248.53 695.88,-248.53 695.88,-318.04"/>
<text text-anchor="start" x="654" y="-305.66" font-family="Menlo" font-size="10.00">G</text>
<text text-anchor="start" x="645" y="-292.91" font-family="Menlo" font-size="10.00">ALT </text>
<text text-anchor="start" x="621" y="-280.16" font-family="Menlo" font-size="10.00">fi [&quot;&quot;, &quot;a&quot;]</text>
<text text-anchor="start" x="633" y="-267.41" font-family="Menlo" font-size="10.00">fo [&quot;$&quot;]</text>
<text text-anchor="start" x="642" y="-254.66" font-family="Menlo" font-size="10.00">am []</text>
</g>
<!-- SR0C1&#45;&gt;SR0C2 -->
<g id="edge25" class="edge">
<title>SR0C1&#45;&gt;SR0C2</title>
<path fill="none" stroke="gray" d="M600.38,-283.29C604.69,-283.29 609,-283.29 613.31,-283.29"/>
<polygon fill="gray" stroke="gray" points="613.11,-284.34 616.11,-283.29 613.11,-282.24 613.11,-284.34"/>
</g>
<!-- SR2C1 -->
<g id="node19" class="node">
<title>SR2C1</title>
<polygon fill="none" stroke="gray" points="587.88,-163.02 534.12,-163.02 534.12,-93.51 587.88,-93.51 587.88,-163.02"/>
<text text-anchor="start" x="558" y="-150.64" font-family="Menlo" font-size="10.00">E</text>
<text text-anchor="start" x="546" y="-137.89" font-family="Menlo" font-size="10.00">T &quot;b&quot;</text>
<text text-anchor="start" x="537" y="-125.14" font-family="Menlo" font-size="10.00">fi [&quot;b&quot;]</text>
<text text-anchor="start" x="537" y="-112.39" font-family="Menlo" font-size="10.00">fo [&quot;$&quot;]</text>
<text text-anchor="start" x="546" y="-99.64" font-family="Menlo" font-size="10.00">am []</text>
</g>
<!-- SR1C1&#45;&gt;SR2C1 -->
<g id="edge20" class="edge">
<title>SR1C1&#45;&gt;SR2C1</title>
<path fill="none" stroke="gray" d="M561,-170.55C561,-169.68 561,-168.8 561,-167.92"/>
<polygon fill="gray" stroke="gray" points="562.05,-168.03 561,-165.03 559.95,-168.03 562.05,-168.03"/>
</g>
<!-- SR3C1 -->
<g id="node20" class="node">
<title>SR3C1</title>
<polygon fill="none" stroke="gray" points="587.88,-85.51 534.12,-85.51 534.12,-16 587.88,-16 587.88,-85.51"/>
<text text-anchor="start" x="558" y="-73.13" font-family="Menlo" font-size="10.00">F</text>
<text text-anchor="start" x="549" y="-60.38" font-family="Menlo" font-size="10.00">END </text>
<text text-anchor="start" x="540" y="-47.63" font-family="Menlo" font-size="10.00">fi [&quot;&quot;]</text>
<text text-anchor="start" x="537" y="-34.88" font-family="Menlo" font-size="10.00">fo [&quot;$&quot;]</text>
<text text-anchor="start" x="546" y="-22.13" font-family="Menlo" font-size="10.00">am []</text>
</g>
<!-- SR2C1&#45;&gt;SR3C1 -->
<g id="edge19" class="edge">
<title>SR2C1&#45;&gt;SR3C1</title>
<path fill="none" stroke="gray" d="M561,-93.04C561,-92.17 561,-91.29 561,-90.41"/>
<polygon fill="gray" stroke="gray" points="562.05,-90.52 561,-87.52 559.95,-90.52 562.05,-90.52"/>
</g>
<!-- SR1C2 -->
<g id="node22" class="node">
<title>SR1C2</title>
<polygon fill="none" stroke="gray" points="695.88,-240.53 618.12,-240.53 618.12,-171.02 695.88,-171.02 695.88,-240.53"/>
<text text-anchor="start" x="654" y="-228.15" font-family="Menlo" font-size="10.00">H</text>
<text text-anchor="start" x="648" y="-215.4" font-family="Menlo" font-size="10.00">N A</text>
<text text-anchor="start" x="621" y="-202.65" font-family="Menlo" font-size="10.00">fi [&quot;&quot;, &quot;a&quot;]</text>
<text text-anchor="start" x="633" y="-189.9" font-family="Menlo" font-size="10.00">fo [&quot;c&quot;]</text>
<text text-anchor="start" x="642" y="-177.15" font-family="Menlo" font-size="10.00">am []</text>
</g>
<!-- SR0C2&#45;&gt;SR1C2 -->
<g id="edge24" class="edge">
<title>SR0C2&#45;&gt;SR1C2</title>
<path fill="none" stroke="gray" d="M657,-248.06C657,-247.19 657,-246.31 657,-245.43"/>
<polygon fill="gray" stroke="gray" points="658.05,-245.54 657,-242.54 655.95,-245.54 658.05,-245.54"/>
</g>
<!-- SR2C2 -->
<g id="node23" class="node">
<title>SR2C2</title>
<polygon fill="none" stroke="gray" points="683.88,-163.02 630.12,-163.02 630.12,-93.51 683.88,-93.51 683.88,-163.02"/>
<text text-anchor="start" x="654" y="-150.64" font-family="Menlo" font-size="10.00">I</text>
<text text-anchor="start" x="642" y="-137.89" font-family="Menlo" font-size="10.00">T &quot;c&quot;</text>
<text text-anchor="start" x="633" y="-125.14" font-family="Menlo" font-size="10.00">fi [&quot;c&quot;]</text>
<text text-anchor="start" x="633" y="-112.39" font-family="Menlo" font-size="10.00">fo [&quot;$&quot;]</text>
<text text-anchor="start" x="642" y="-99.64" font-family="Menlo" font-size="10.00">am []</text>
</g>
<!-- SR1C2&#45;&gt;SR2C2 -->
<g id="edge23" class="edge">
<title>SR1C2&#45;&gt;SR2C2</title>
<path fill="none" stroke="gray" d="M657,-170.55C657,-169.68 657,-168.8 657,-167.92"/>
<polygon fill="gray" stroke="gray" points="658.05,-168.03 657,-165.03 655.95,-168.03 658.05,-168.03"/>
</g>
<!-- SR3C2 -->
<g id="node24" class="node">
<title>SR3C2</title>
<polygon fill="none" stroke="gray" points="683.88,-85.51 630.12,-85.51 630.12,-16 683.88,-16 683.88,-85.51"/>
<text text-anchor="start" x="654" y="-73.13" font-family="Menlo" font-size="10.00">J</text>
<text text-anchor="start" x="645" y="-60.38" font-family="Menlo" font-size="10.00">END </text>
<text text-anchor="start" x="636" y="-47.63" font-family="Menlo" font-size="10.00">fi [&quot;&quot;]</text>
<text text-anchor="start" x="633" y="-34.88" font-family="Menlo" font-size="10.00">fo [&quot;$&quot;]</text>
<text text-anchor="start" x="642" y="-22.13" font-family="Menlo" font-size="10.00">am []</text>
</g>
<!-- SR2C2&#45;&gt;SR3C2 -->
<g id="edge22" class="edge">
<title>SR2C2&#45;&gt;SR3C2</title>
<path fill="none" stroke="gray" d="M657,-93.04C657,-92.17 657,-91.29 657,-90.41"/>
<polygon fill="gray" stroke="gray" points="658.05,-90.52 657,-87.52 655.95,-90.52 658.05,-90.52"/>
</g>
<!-- SR1C0&#45;&gt;SR1C1 -->
<!-- SR2C0 -->
<!-- SR1C0&#45;&gt;SR2C0 -->
<!-- SR2C0&#45;&gt;SR2C1 -->
<!-- SR3C0 -->
<!-- SR2C0&#45;&gt;SR3C0 -->
<!-- SR3C0&#45;&gt;SR3C1 -->
</g>
</svg>
