<?xml version="1.0" encoding="UTF-8" standalone="no"?>
<!DOCTYPE svg PUBLIC "-//W3C//DTD SVG 1.1//EN"
 "http://www.w3.org/Graphics/SVG/1.1/DTD/svg11.dtd">
<!-- Generated by graphviz version 9.0.0 (20230911.1827)
 -->
<!-- Title: G Pages: 1 -->
<svg width="572pt" height="381pt"
 viewBox="0.00 0.00 572.00 380.79" xmlns="http://www.w3.org/2000/svg" xmlns:xlink="http://www.w3.org/1999/xlink">
<g id="graph0" class="graph" transform="scale(1 1) rotate(0) translate(4 376.79)">
<title>G</title>
<polygon fill="white" stroke="none" points="-4,4 -4,-376.79 568,-376.79 568,4 -4,4"/>
<g id="clust1" class="cluster">
<title>clusterS</title>
<polygon fill="none" stroke="black" points="8,-8 8,-364.79 556,-364.79 556,-8 8,-8"/>
<text text-anchor="start" x="16" y="-351.29" font-family="Menlo" font-size="10.00">S = ( &quot;a&quot; | &quot;b&quot; ) | &quot;c&quot; .</text>
</g>
<!-- 14 -->
<g id="node1" class="node">
<title>14</title>
<polygon fill="none" stroke="gray" points="129.88,-336.04 16.12,-336.04 16.12,-266.53 129.88,-266.53 129.88,-336.04"/>
<text text-anchor="start" x="67" y="-323.66" font-family="Menlo" font-size="10.00">14</text>
<text text-anchor="start" x="64" y="-310.91" font-family="Menlo" font-size="10.00">N S</text>
<text text-anchor="start" x="19" y="-298.16" font-family="Menlo" font-size="10.00">fi [&quot;a&quot;, &quot;b&quot;, &quot;c&quot;]</text>
<text text-anchor="start" x="52" y="-285.41" font-family="Menlo" font-size="10.00">fo [&quot;&quot;]</text>
<text text-anchor="start" x="58" y="-272.66" font-family="Menlo" font-size="10.00">am []</text>
</g>
<!-- 2 -->
<g id="node2" class="node">
<title>2</title>
<polygon fill="none" stroke="gray" points="231.88,-336.04 148.12,-336.04 148.12,-266.53 231.88,-266.53 231.88,-336.04"/>
<text text-anchor="start" x="187" y="-323.66" font-family="Menlo" font-size="10.00">2</text>
<text text-anchor="start" x="178" y="-310.91" font-family="Menlo" font-size="10.00">ALT </text>
<text text-anchor="start" x="151" y="-298.16" font-family="Menlo" font-size="10.00">fi [&quot;a&quot;, &quot;b&quot;]</text>
<text text-anchor="start" x="169" y="-285.41" font-family="Menlo" font-size="10.00">fo [&quot;&quot;]</text>
<text text-anchor="start" x="175" y="-272.66" font-family="Menlo" font-size="10.00">am []</text>
</g>
<!-- 14&#45;&gt;2 -->
<g id="edge1" class="edge">
<title>14&#45;&gt;2</title>
<path fill="none" stroke="gray" d="M130.13,-301.29C134.57,-301.29 139.02,-301.29 143.46,-301.29"/>
<polygon fill="gray" stroke="gray" points="143.39,-302.34 146.39,-301.29 143.39,-300.24 143.39,-302.34"/>
</g>
<!-- 9 -->
<g id="node3" class="node">
<title>9</title>
<polygon fill="none" stroke="gray" points="231.88,-252.53 148.12,-252.53 148.12,-183.02 231.88,-183.02 231.88,-252.53"/>
<text text-anchor="start" x="187" y="-240.15" font-family="Menlo" font-size="10.00">9</text>
<text text-anchor="start" x="181" y="-227.4" font-family="Menlo" font-size="10.00">DO </text>
<text text-anchor="start" x="151" y="-214.65" font-family="Menlo" font-size="10.00">fi [&quot;a&quot;, &quot;b&quot;]</text>
<text text-anchor="start" x="169" y="-201.9" font-family="Menlo" font-size="10.00">fo [&quot;&quot;]</text>
<text text-anchor="start" x="175" y="-189.15" font-family="Menlo" font-size="10.00">am []</text>
</g>
<!-- 2&#45;&gt;9 -->
<g id="edge2" class="edge">
<title>2&#45;&gt;9</title>
<path fill="none" stroke="gray" d="M190,-266.19C190,-263.19 190,-260.14 190,-257.11"/>
<polygon fill="gray" stroke="gray" points="191.05,-257.51 190,-254.51 188.95,-257.51 191.05,-257.51"/>
</g>
<!-- 11 -->
<g id="node11" class="node">
<title>11</title>
<polygon fill="none" stroke="gray" points="323.88,-336.04 270.12,-336.04 270.12,-266.53 323.88,-266.53 323.88,-336.04"/>
<text text-anchor="start" x="291" y="-323.66" font-family="Menlo" font-size="10.00">11</text>
<text text-anchor="start" x="285" y="-310.91" font-family="Menlo" font-size="10.00">ALT </text>
<text text-anchor="start" x="273" y="-298.16" font-family="Menlo" font-size="10.00">fi [&quot;c&quot;]</text>
<text text-anchor="start" x="276" y="-285.41" font-family="Menlo" font-size="10.00">fo [&quot;&quot;]</text>
<text text-anchor="start" x="282" y="-272.66" font-family="Menlo" font-size="10.00">am []</text>
</g>
<!-- 2&#45;&gt;11 -->
<g id="edge10" class="edge">
<title>2&#45;&gt;11</title>
<path fill="none" stroke="gray" d="M232.21,-301.29C243.24,-301.29 254.26,-301.29 265.28,-301.29"/>
<polygon fill="gray" stroke="gray" points="265.16,-302.34 268.16,-301.29 265.16,-300.24 265.16,-302.34"/>
</g>
<!-- 10 -->
<g id="node4" class="node">
<title>10</title>
<polygon fill="none" stroke="gray" points="213.88,-169.02 166.12,-169.02 166.12,-99.51 213.88,-99.51 213.88,-169.02"/>
<text text-anchor="start" x="184" y="-156.64" font-family="Menlo" font-size="10.00">10</text>
<text text-anchor="start" x="178" y="-143.89" font-family="Menlo" font-size="10.00">END </text>
<text text-anchor="start" x="169" y="-131.14" font-family="Menlo" font-size="10.00">fi [&quot;&quot;]</text>
<text text-anchor="start" x="169" y="-118.39" font-family="Menlo" font-size="10.00">fo [&quot;&quot;]</text>
<text text-anchor="start" x="175" y="-105.64" font-family="Menlo" font-size="10.00">am []</text>
</g>
<!-- 9&#45;&gt;10 -->
<g id="edge3" class="edge">
<title>9&#45;&gt;10</title>
<path fill="none" stroke="gray" d="M190,-182.68C190,-179.68 190,-176.63 190,-173.6"/>
<polygon fill="gray" stroke="gray" points="191.05,-174 190,-171 188.95,-174 191.05,-174"/>
</g>
<!-- 3 -->
<g id="node5" class="node">
<title>3</title>
<polygon fill="none" stroke="gray" points="415.88,-252.53 362.12,-252.53 362.12,-183.02 415.88,-183.02 415.88,-252.53"/>
<text text-anchor="start" x="386" y="-240.15" font-family="Menlo" font-size="10.00">3</text>
<text text-anchor="start" x="377" y="-227.4" font-family="Menlo" font-size="10.00">ALT </text>
<text text-anchor="start" x="365" y="-214.65" font-family="Menlo" font-size="10.00">fi [&quot;a&quot;]</text>
<text text-anchor="start" x="368" y="-201.9" font-family="Menlo" font-size="10.00">fo [&quot;&quot;]</text>
<text text-anchor="start" x="374" y="-189.15" font-family="Menlo" font-size="10.00">am []</text>
</g>
<!-- 9&#45;&gt;3 -->
<g id="edge4" class="edge">
<title>9&#45;&gt;3</title>
<path fill="none" stroke="gray" d="M232.09,-244.53C243.9,-250.69 257.07,-256.36 270,-259.53 299.78,-266.84 309.99,-269.48 339,-259.53 345.73,-257.22 352.18,-253.52 358.07,-249.26"/>
<polygon fill="gray" stroke="gray" points="358.7,-250.1 360.45,-247.45 357.43,-248.42 358.7,-250.1"/>
</g>
<!-- 10&#45;&gt;14 -->
<g id="edge13" class="edge">
<title>10:s&#45;&gt;14</title>
<path fill="none" stroke="red" stroke-dasharray="1,5" d="M190,-98.27C190,-87.64 204.51,-94.26 213.88,-99.27 247.79,-117.36 231.21,-150.7 265,-169.02 289.65,-182.39 497.73,-162.65 517,-183.02 538.23,-205.46 538.44,-230.28 517,-252.53 502.42,-267.66 159.34,-261.23 139,-266.53 137.48,-266.93 135.95,-267.36 134.42,-267.83"/>
<polygon fill="red" stroke="red" points="134.34,-266.75 131.82,-268.68 135,-268.75 134.34,-266.75"/>
</g>
<!-- 10&#45;&gt;2 -->
<g id="edge14" class="edge">
<title>10:s&#45;&gt;2</title>
<path fill="none" stroke="red" stroke-dasharray="1,5" d="M190,-98.27C190,-87.64 204.51,-94.26 213.88,-99.27 247.79,-117.36 232.66,-148.26 265,-169.02 290.97,-185.69 313.51,-159.1 333,-183.02 352.52,-206.97 352.65,-228.69 333,-252.53 312.27,-277.69 291.97,-256.34 261,-266.53 252.76,-269.24 244.23,-272.69 236.06,-276.34"/>
<polygon fill="red" stroke="red" points="235.76,-275.33 233.46,-277.52 236.63,-277.24 235.76,-275.33"/>
</g>
<!-- 4 -->
<g id="node6" class="node">
<title>4</title>
<polygon fill="none" stroke="gray" points="415.88,-169.02 362.12,-169.02 362.12,-99.51 415.88,-99.51 415.88,-169.02"/>
<text text-anchor="start" x="386" y="-156.64" font-family="Menlo" font-size="10.00">4</text>
<text text-anchor="start" x="374" y="-143.89" font-family="Menlo" font-size="10.00">T &quot;a&quot;</text>
<text text-anchor="start" x="365" y="-131.14" font-family="Menlo" font-size="10.00">fi [&quot;a&quot;]</text>
<text text-anchor="start" x="368" y="-118.39" font-family="Menlo" font-size="10.00">fo [&quot;&quot;]</text>
<text text-anchor="start" x="374" y="-105.64" font-family="Menlo" font-size="10.00">am []</text>
</g>
<!-- 3&#45;&gt;4 -->
<g id="edge5" class="edge">
<title>3&#45;&gt;4</title>
<path fill="none" stroke="gray" d="M389,-182.68C389,-179.68 389,-176.63 389,-173.6"/>
<polygon fill="gray" stroke="gray" points="390.05,-174 389,-171 387.95,-174 390.05,-174"/>
</g>
<!-- 6 -->
<g id="node8" class="node">
<title>6</title>
<polygon fill="none" stroke="gray" points="507.88,-252.53 454.12,-252.53 454.12,-183.02 507.88,-183.02 507.88,-252.53"/>
<text text-anchor="start" x="478" y="-240.15" font-family="Menlo" font-size="10.00">6</text>
<text text-anchor="start" x="469" y="-227.4" font-family="Menlo" font-size="10.00">ALT </text>
<text text-anchor="start" x="457" y="-214.65" font-family="Menlo" font-size="10.00">fi [&quot;b&quot;]</text>
<text text-anchor="start" x="460" y="-201.9" font-family="Menlo" font-size="10.00">fo [&quot;&quot;]</text>
<text text-anchor="start" x="466" y="-189.15" font-family="Menlo" font-size="10.00">am []</text>
</g>
<!-- 3&#45;&gt;6 -->
<g id="edge7" class="edge">
<title>3&#45;&gt;6</title>
<path fill="none" stroke="gray" d="M416.31,-217.78C427.32,-217.78 438.32,-217.78 449.33,-217.78"/>
<polygon fill="gray" stroke="gray" points="449.2,-218.83 452.2,-217.78 449.2,-216.73 449.2,-218.83"/>
</g>
<!-- 5 -->
<g id="node7" class="node">
<title>5</title>
<polygon fill="none" stroke="gray" points="412.88,-85.51 365.12,-85.51 365.12,-16 412.88,-16 412.88,-85.51"/>
<text text-anchor="start" x="386" y="-73.13" font-family="Menlo" font-size="10.00">5</text>
<text text-anchor="start" x="377" y="-60.38" font-family="Menlo" font-size="10.00">END </text>
<text text-anchor="start" x="368" y="-47.63" font-family="Menlo" font-size="10.00">fi [&quot;&quot;]</text>
<text text-anchor="start" x="368" y="-34.88" font-family="Menlo" font-size="10.00">fo [&quot;&quot;]</text>
<text text-anchor="start" x="374" y="-22.13" font-family="Menlo" font-size="10.00">am []</text>
</g>
<!-- 4&#45;&gt;5 -->
<g id="edge6" class="edge">
<title>4&#45;&gt;5</title>
<path fill="none" stroke="gray" d="M389,-99.17C389,-96.17 389,-93.12 389,-90.09"/>
<polygon fill="gray" stroke="gray" points="390.05,-90.49 389,-87.49 387.95,-90.49 390.05,-90.49"/>
</g>
<!-- 5&#45;&gt;9 -->
<g id="edge15" class="edge">
<title>5:s&#45;&gt;9</title>
<path fill="none" stroke="red" stroke-dasharray="1,5" d="M389,-14.76C389,-9.44 408.4,-12.9 412.88,-15.76 442.32,-34.52 421.17,-64.44 449,-85.51 473.6,-104.14 497.51,-75.59 517,-99.51 536.52,-123.46 538.24,-146.59 517,-169.02 497.41,-189.71 288.61,-175.99 261,-183.02 252.7,-185.13 244.21,-188.24 236.11,-191.72"/>
<polygon fill="red" stroke="red" points="235.88,-190.67 233.56,-192.85 236.72,-192.6 235.88,-190.67"/>
</g>
<!-- 5&#45;&gt;3 -->
<g id="edge16" class="edge">
<title>5:s&#45;&gt;3</title>
<path fill="none" stroke="red" stroke-dasharray="1,5" d="M389,-14.76C389,-9.44 408.94,-12.2 412.88,-15.76 463.59,-61.55 446.69,-104.22 425,-169.02 423.43,-173.71 421.2,-178.31 418.6,-182.69"/>
<polygon fill="red" stroke="red" points="417.84,-181.93 417.14,-185.03 419.62,-183.04 417.84,-181.93"/>
</g>
<!-- 7 -->
<g id="node9" class="node">
<title>7</title>
<polygon fill="none" stroke="gray" points="507.88,-169.02 454.12,-169.02 454.12,-99.51 507.88,-99.51 507.88,-169.02"/>
<text text-anchor="start" x="478" y="-156.64" font-family="Menlo" font-size="10.00">7</text>
<text text-anchor="start" x="466" y="-143.89" font-family="Menlo" font-size="10.00">T &quot;b&quot;</text>
<text text-anchor="start" x="457" y="-131.14" font-family="Menlo" font-size="10.00">fi [&quot;b&quot;]</text>
<text text-anchor="start" x="460" y="-118.39" font-family="Menlo" font-size="10.00">fo [&quot;&quot;]</text>
<text text-anchor="start" x="466" y="-105.64" font-family="Menlo" font-size="10.00">am []</text>
</g>
<!-- 6&#45;&gt;7 -->
<g id="edge8" class="edge">
<title>6&#45;&gt;7</title>
<path fill="none" stroke="gray" d="M481,-182.68C481,-179.68 481,-176.63 481,-173.6"/>
<polygon fill="gray" stroke="gray" points="482.05,-174 481,-171 479.95,-174 482.05,-174"/>
</g>
<!-- 8 -->
<g id="node10" class="node">
<title>8</title>
<polygon fill="none" stroke="gray" points="504.88,-85.51 457.12,-85.51 457.12,-16 504.88,-16 504.88,-85.51"/>
<text text-anchor="start" x="478" y="-73.13" font-family="Menlo" font-size="10.00">8</text>
<text text-anchor="start" x="469" y="-60.38" font-family="Menlo" font-size="10.00">END </text>
<text text-anchor="start" x="460" y="-47.63" font-family="Menlo" font-size="10.00">fi [&quot;&quot;]</text>
<text text-anchor="start" x="460" y="-34.88" font-family="Menlo" font-size="10.00">fo [&quot;&quot;]</text>
<text text-anchor="start" x="466" y="-22.13" font-family="Menlo" font-size="10.00">am []</text>
</g>
<!-- 7&#45;&gt;8 -->
<g id="edge9" class="edge">
<title>7&#45;&gt;8</title>
<path fill="none" stroke="gray" d="M481,-99.17C481,-96.17 481,-93.12 481,-90.09"/>
<polygon fill="gray" stroke="gray" points="482.05,-90.49 481,-87.49 479.95,-90.49 482.05,-90.49"/>
</g>
<!-- 8&#45;&gt;9 -->
<g id="edge17" class="edge">
<title>8:s&#45;&gt;9</title>
<path fill="none" stroke="red" stroke-dasharray="1,5" d="M481,-14.76C481,-9.44 500.7,-12.47 504.88,-15.76 559.09,-58.37 576.47,-119 529,-169.02 508.47,-190.65 289.91,-175.7 261,-183.02 252.7,-185.12 244.2,-188.22 236.11,-191.7"/>
<polygon fill="red" stroke="red" points="235.87,-190.66 233.55,-192.83 236.72,-192.58 235.87,-190.66"/>
</g>
<!-- 8&#45;&gt;6 -->
<g id="edge18" class="edge">
<title>8:s&#45;&gt;6</title>
<path fill="none" stroke="red" stroke-dasharray="1,5" d="M481,-14.76C481,-9.44 501.2,-11.92 504.88,-15.76 526.34,-38.13 525.77,-62.6 504.88,-85.51 482.04,-110.55 375.84,-74.47 353,-99.51 332.18,-122.34 333.35,-145.18 353,-169.02 373.73,-194.18 394.57,-171.32 425,-183.02 433.47,-186.28 442.11,-190.79 449.98,-195.46"/>
<polygon fill="red" stroke="red" points="449.38,-196.32 452.49,-196.97 450.47,-194.52 449.38,-196.32"/>
</g>
<!-- 12 -->
<g id="node12" class="node">
<title>12</title>
<polygon fill="none" stroke="gray" points="323.88,-252.53 270.12,-252.53 270.12,-183.02 323.88,-183.02 323.88,-252.53"/>
<text text-anchor="start" x="291" y="-240.15" font-family="Menlo" font-size="10.00">12</text>
<text text-anchor="start" x="282" y="-227.4" font-family="Menlo" font-size="10.00">T &quot;c&quot;</text>
<text text-anchor="start" x="273" y="-214.65" font-family="Menlo" font-size="10.00">fi [&quot;c&quot;]</text>
<text text-anchor="start" x="276" y="-201.9" font-family="Menlo" font-size="10.00">fo [&quot;&quot;]</text>
<text text-anchor="start" x="282" y="-189.15" font-family="Menlo" font-size="10.00">am []</text>
</g>
<!-- 11&#45;&gt;12 -->
<g id="edge11" class="edge">
<title>11&#45;&gt;12</title>
<path fill="none" stroke="gray" d="M297,-266.19C297,-263.19 297,-260.14 297,-257.11"/>
<polygon fill="gray" stroke="gray" points="298.05,-257.51 297,-254.51 295.95,-257.51 298.05,-257.51"/>
</g>
<!-- 13 -->
<g id="node13" class="node">
<title>13</title>
<polygon fill="none" stroke="gray" points="320.88,-169.02 273.12,-169.02 273.12,-99.51 320.88,-99.51 320.88,-169.02"/>
<text text-anchor="start" x="291" y="-156.64" font-family="Menlo" font-size="10.00">13</text>
<text text-anchor="start" x="285" y="-143.89" font-family="Menlo" font-size="10.00">END </text>
<text text-anchor="start" x="276" y="-131.14" font-family="Menlo" font-size="10.00">fi [&quot;&quot;]</text>
<text text-anchor="start" x="276" y="-118.39" font-family="Menlo" font-size="10.00">fo [&quot;&quot;]</text>
<text text-anchor="start" x="282" y="-105.64" font-family="Menlo" font-size="10.00">am []</text>
</g>
<!-- 12&#45;&gt;13 -->
<g id="edge12" class="edge">
<title>12&#45;&gt;13</title>
<path fill="none" stroke="gray" d="M297,-182.68C297,-179.68 297,-176.63 297,-173.6"/>
<polygon fill="gray" stroke="gray" points="298.05,-174 297,-171 295.95,-174 298.05,-174"/>
</g>
<!-- 13&#45;&gt;14 -->
<g id="edge19" class="edge">
<title>13:s&#45;&gt;14</title>
<path fill="none" stroke="red" stroke-dasharray="1,5" d="M297,-98.27C297,-92.95 316.45,-96.33 320.88,-99.27 349.5,-118.21 325.74,-149.54 354,-169.02 386.31,-191.28 503.38,-154.2 530,-183.02 550.96,-205.71 551.45,-230.3 530,-252.53 514.91,-268.17 160.04,-261.06 139,-266.53 137.48,-266.93 135.95,-267.36 134.42,-267.83"/>
<polygon fill="red" stroke="red" points="134.34,-266.75 131.82,-268.68 134.99,-268.75 134.34,-266.75"/>
</g>
<!-- 13&#45;&gt;11 -->
<g id="edge20" class="edge">
<title>13:s&#45;&gt;11</title>
<path fill="none" stroke="red" stroke-dasharray="1,5" d="M297,-98.27C297,-92.95 317.2,-95.43 320.88,-99.27 331.61,-110.45 330.51,-156.88 320.88,-169.02 303.9,-190.43 277.98,-161.61 261,-183.02 241.8,-207.22 251.19,-223.23 261,-252.53 262.57,-257.22 264.8,-261.82 267.4,-266.2"/>
<polygon fill="red" stroke="red" points="266.38,-266.55 268.86,-268.54 268.16,-265.44 266.38,-266.55"/>
</g>
</g>
</svg>
