<?xml version="1.0" encoding="UTF-8" standalone="no"?>
<!DOCTYPE svg PUBLIC "-//W3C//DTD SVG 1.1//EN"
 "http://www.w3.org/Graphics/SVG/1.1/DTD/svg11.dtd">
<!-- Generated by graphviz version 9.0.0 (20230911.1827)
 -->
<!-- Title: G Pages: 1 -->
<svg width="619pt" height="363pt"
 viewBox="0.00 0.00 619.00 362.79" xmlns="http://www.w3.org/2000/svg" xmlns:xlink="http://www.w3.org/1999/xlink">
<g id="graph0" class="graph" transform="scale(1 1) rotate(0) translate(4 358.79)">
<title>G</title>
<polygon fill="white" stroke="none" points="-4,4 -4,-358.79 615,-358.79 615,4 -4,4"/>
<g id="clust1" class="cluster">
<title>GSS</title>
<polygon fill="none" stroke="black" points="8,-263.41 8,-323.92 66,-323.92 66,-263.41 8,-263.41"/>
<text text-anchor="start" x="16" y="-310.42" font-family="Menlo" font-size="10.00" fill="green">↵aaaaa↵</text>
</g>
<g id="clust2" class="cluster">
<title>clusterS</title>
<polygon fill="none" stroke="black" points="74,-8 74,-346.79 603,-346.79 603,-8 74,-8"/>
<text text-anchor="start" x="82" y="-333.29" font-family="Menlo" font-size="10.00">S = { &quot;a&quot; } &quot;a&quot; .</text>
</g>
<!-- 0.0 -->
<g id="node1" class="node">
<title>0.0</title>
<path fill="none" stroke="gray" d="M40.96,-295.17C40.96,-295.17 33.04,-295.17 33.04,-295.17 29.08,-295.17 25.12,-291.21 25.12,-287.25 25.12,-287.25 25.12,-279.33 25.12,-279.33 25.12,-275.37 29.08,-271.41 33.04,-271.41 33.04,-271.41 40.96,-271.41 40.96,-271.41 44.92,-271.41 48.88,-275.37 48.88,-279.33 48.88,-279.33 48.88,-287.25 48.88,-287.25 48.88,-291.21 44.92,-295.17 40.96,-295.17"/>
<text text-anchor="start" x="28" y="-283.79" font-family="Menlo" font-size="10.00">S,0</text>
<text text-anchor="start" x="32.5" y="-275.69" font-family="Menlo" font-size="8.00" fill="gray"> 5</text>
</g>
<!-- SR0C0 -->
<g id="node2" class="node">
<title>SR0C0</title>
<polygon fill="none" stroke="gray" points="135.88,-318.04 82.12,-318.04 82.12,-248.53 135.88,-248.53 135.88,-318.04"/>
<text text-anchor="start" x="106" y="-305.66" font-family="Menlo" font-size="10.00">0</text>
<text text-anchor="start" x="100" y="-292.91" font-family="Menlo" font-size="10.00">N S</text>
<text text-anchor="start" x="85" y="-280.16" font-family="Menlo" font-size="10.00">fi [&quot;a&quot;]</text>
<text text-anchor="start" x="85" y="-267.41" font-family="Menlo" font-size="10.00">fo [&quot;$&quot;]</text>
<text text-anchor="start" x="88" y="-254.66" font-family="Menlo" font-size="10.00">[0:0:5]</text>
</g>
<!-- SR0C1 -->
<g id="node3" class="node">
<title>SR0C1</title>
<polygon fill="none" stroke="gray" points="279.88,-318.04 226.12,-318.04 226.12,-248.53 279.88,-248.53 279.88,-318.04"/>
<text text-anchor="start" x="250" y="-305.66" font-family="Menlo" font-size="10.00">1</text>
<text text-anchor="start" x="241" y="-292.91" font-family="Menlo" font-size="10.00">ALT </text>
<text text-anchor="start" x="229" y="-280.16" font-family="Menlo" font-size="10.00">fi [&quot;a&quot;]</text>
<text text-anchor="start" x="229" y="-267.41" font-family="Menlo" font-size="10.00">fo [&quot;a&quot;]</text>
<text text-anchor="start" x="247" y="-254.66" font-family="Menlo" font-size="10.00">[]</text>
</g>
<!-- SR0C0&#45;&gt;SR0C1 -->
<g id="edge7" class="edge">
<title>SR0C0&#45;&gt;SR0C1</title>
<path fill="none" stroke="gray" d="M136.28,-283.29C164.67,-283.29 193.06,-283.29 221.46,-283.29"/>
<polygon fill="gray" stroke="gray" points="221.13,-284.34 224.13,-283.29 221.13,-282.24 221.13,-284.34"/>
</g>
<!-- SR1C0 -->
<!-- SR0C0&#45;&gt;SR1C0 -->
<!-- SR1C1 -->
<g id="node4" class="node">
<title>SR1C1</title>
<polygon fill="none" stroke="gray" points="279.88,-240.53 226.12,-240.53 226.12,-171.02 279.88,-171.02 279.88,-240.53"/>
<text text-anchor="start" x="250" y="-228.15" font-family="Menlo" font-size="10.00">2</text>
<text text-anchor="start" x="241" y="-215.4" font-family="Menlo" font-size="10.00">KLN </text>
<text text-anchor="start" x="229" y="-202.65" font-family="Menlo" font-size="10.00">fi [&quot;a&quot;]</text>
<text text-anchor="start" x="229" y="-189.9" font-family="Menlo" font-size="10.00">fo [&quot;a&quot;]</text>
<text text-anchor="start" x="247" y="-177.15" font-family="Menlo" font-size="10.00">[]</text>
</g>
<!-- SR0C1&#45;&gt;SR1C1 -->
<g id="edge6" class="edge">
<title>SR0C1&#45;&gt;SR1C1</title>
<path fill="none" stroke="gray" d="M253,-248.06C253,-247.19 253,-246.31 253,-245.43"/>
<polygon fill="gray" stroke="gray" points="254.05,-245.54 253,-242.54 251.95,-245.54 254.05,-245.54"/>
</g>
<!-- SR0C2 -->
<!-- SR0C1&#45;&gt;SR0C2 -->
<!-- SR2C1 -->
<g id="node5" class="node">
<title>SR2C1</title>
<polygon fill="none" stroke="gray" points="360.88,-163.02 145.12,-163.02 145.12,-93.51 360.88,-93.51 360.88,-163.02"/>
<text text-anchor="start" x="250" y="-150.64" font-family="Menlo" font-size="10.00">6</text>
<text text-anchor="start" x="238" y="-137.89" font-family="Menlo" font-size="10.00">T &quot;a&quot;</text>
<text text-anchor="start" x="229" y="-125.14" font-family="Menlo" font-size="10.00">fi [&quot;a&quot;]</text>
<text text-anchor="start" x="229" y="-112.39" font-family="Menlo" font-size="10.00">fo [&quot;$&quot;]</text>
<text text-anchor="start" x="148" y="-99.64" font-family="Menlo" font-size="10.00">[0:0:1, 0:1:2, 0:2:3, 0:3:4, 0:4:5]</text>
</g>
<!-- SR1C1&#45;&gt;SR2C1 -->
<g id="edge2" class="edge">
<title>SR1C1&#45;&gt;SR2C1</title>
<path fill="none" stroke="gray" d="M253,-170.55C253,-169.68 253,-168.8 253,-167.92"/>
<polygon fill="gray" stroke="gray" points="254.05,-168.03 253,-165.03 251.95,-168.03 254.05,-168.03"/>
</g>
<!-- SR1C2 -->
<g id="node7" class="node">
<title>SR1C2</title>
<polygon fill="none" stroke="gray" points="513.88,-240.53 460.12,-240.53 460.12,-171.02 513.88,-171.02 513.88,-240.53"/>
<text text-anchor="start" x="484" y="-228.15" font-family="Menlo" font-size="10.00">3</text>
<text text-anchor="start" x="475" y="-215.4" font-family="Menlo" font-size="10.00">ALT </text>
<text text-anchor="start" x="463" y="-202.65" font-family="Menlo" font-size="10.00">fi [&quot;a&quot;]</text>
<text text-anchor="start" x="463" y="-189.9" font-family="Menlo" font-size="10.00">fo [&quot;a&quot;]</text>
<text text-anchor="start" x="481" y="-177.15" font-family="Menlo" font-size="10.00">[]</text>
</g>
<!-- SR1C1&#45;&gt;SR1C2 -->
<g id="edge5" class="edge">
<title>SR1C1&#45;&gt;SR1C2</title>
<path fill="none" stroke="gray" d="M279.96,-205.78C338.54,-205.78 397.12,-205.78 455.69,-205.78"/>
<polygon fill="gray" stroke="gray" points="455.39,-206.83 458.39,-205.78 455.39,-204.73 455.39,-206.83"/>
</g>
<!-- SR3C1 -->
<g id="node6" class="node">
<title>SR3C1</title>
<polygon fill="none" stroke="gray" points="279.88,-85.51 226.12,-85.51 226.12,-16 279.88,-16 279.88,-85.51"/>
<text text-anchor="start" x="250" y="-73.13" font-family="Menlo" font-size="10.00">7</text>
<text text-anchor="start" x="241" y="-60.38" font-family="Menlo" font-size="10.00">END </text>
<text text-anchor="start" x="232" y="-47.63" font-family="Menlo" font-size="10.00">fi [&quot;&quot;]</text>
<text text-anchor="start" x="229" y="-34.88" font-family="Menlo" font-size="10.00">fo [&quot;$&quot;]</text>
<text text-anchor="start" x="247" y="-22.13" font-family="Menlo" font-size="10.00">[]</text>
</g>
<!-- SR2C1&#45;&gt;SR3C1 -->
<g id="edge1" class="edge">
<title>SR2C1&#45;&gt;SR3C1</title>
<path fill="none" stroke="gray" d="M253,-93.04C253,-92.17 253,-91.29 253,-90.41"/>
<polygon fill="gray" stroke="gray" points="254.05,-90.52 253,-87.52 251.95,-90.52 254.05,-90.52"/>
</g>
<!-- SR2C2 -->
<g id="node8" class="node">
<title>SR2C2</title>
<polygon fill="none" stroke="gray" points="594.88,-163.02 379.12,-163.02 379.12,-93.51 594.88,-93.51 594.88,-163.02"/>
<text text-anchor="start" x="484" y="-150.64" font-family="Menlo" font-size="10.00">4</text>
<text text-anchor="start" x="472" y="-137.89" font-family="Menlo" font-size="10.00">T &quot;a&quot;</text>
<text text-anchor="start" x="463" y="-125.14" font-family="Menlo" font-size="10.00">fi [&quot;a&quot;]</text>
<text text-anchor="start" x="463" y="-112.39" font-family="Menlo" font-size="10.00">fo [&quot;a&quot;]</text>
<text text-anchor="start" x="382" y="-99.64" font-family="Menlo" font-size="10.00">[0:0:1, 0:1:2, 0:2:3, 0:3:4, 0:4:5]</text>
</g>
<!-- SR1C2&#45;&gt;SR2C2 -->
<g id="edge4" class="edge">
<title>SR1C2&#45;&gt;SR2C2</title>
<path fill="none" stroke="gray" d="M487,-170.55C487,-169.68 487,-168.8 487,-167.92"/>
<polygon fill="gray" stroke="gray" points="488.05,-168.03 487,-165.03 485.95,-168.03 488.05,-168.03"/>
</g>
<!-- SR3C2 -->
<g id="node9" class="node">
<title>SR3C2</title>
<polygon fill="none" stroke="gray" points="513.88,-85.51 460.12,-85.51 460.12,-16 513.88,-16 513.88,-85.51"/>
<text text-anchor="start" x="484" y="-73.13" font-family="Menlo" font-size="10.00">5</text>
<text text-anchor="start" x="475" y="-60.38" font-family="Menlo" font-size="10.00">END </text>
<text text-anchor="start" x="466" y="-47.63" font-family="Menlo" font-size="10.00">fi [&quot;&quot;]</text>
<text text-anchor="start" x="463" y="-34.88" font-family="Menlo" font-size="10.00">fo [&quot;a&quot;]</text>
<text text-anchor="start" x="481" y="-22.13" font-family="Menlo" font-size="10.00">[]</text>
</g>
<!-- SR2C2&#45;&gt;SR3C2 -->
<g id="edge3" class="edge">
<title>SR2C2&#45;&gt;SR3C2</title>
<path fill="none" stroke="gray" d="M487,-93.04C487,-92.17 487,-91.29 487,-90.41"/>
<polygon fill="gray" stroke="gray" points="488.05,-90.52 487,-87.52 485.95,-90.52 488.05,-90.52"/>
</g>
<!-- SR0C2&#45;&gt;SR1C2 -->
<!-- SR1C0&#45;&gt;SR1C1 -->
<!-- SR2C0 -->
<!-- SR1C0&#45;&gt;SR2C0 -->
<!-- SR2C0&#45;&gt;SR2C1 -->
<!-- SR3C0 -->
<!-- SR2C0&#45;&gt;SR3C0 -->
<!-- SR3C0&#45;&gt;SR3C1 -->
</g>
</svg>
