<?xml version="1.0" encoding="UTF-8" standalone="no"?>
<!DOCTYPE svg PUBLIC "-//W3C//DTD SVG 1.1//EN"
 "http://www.w3.org/Graphics/SVG/1.1/DTD/svg11.dtd">
<!-- Generated by graphviz version 9.0.0 (20230911.1827)
 -->
<!-- Title: G Pages: 1 -->
<svg width="1657pt" height="440pt"
 viewBox="0.00 0.00 1657.00 440.30" xmlns="http://www.w3.org/2000/svg" xmlns:xlink="http://www.w3.org/1999/xlink">
<g id="graph0" class="graph" transform="scale(1 1) rotate(0) translate(4 436.3)">
<title>G</title>
<polygon fill="white" stroke="none" points="-4,4 -4,-436.3 1653,-436.3 1653,4 -4,4"/>
<g id="clust1" class="cluster">
<title>GSS</title>
<polygon fill="none" stroke="black" points="8,-262.2 8,-401.43 948,-401.43 948,-262.2 8,-262.2"/>
<text text-anchor="start" x="16" y="-387.93" font-family="Menlo" font-size="10.00" fill="green">↵aaaaa↵</text>
</g>
<g id="clust2" class="cluster">
<title>clusterS</title>
<polygon fill="none" stroke="black" points="956,-8 956,-424.3 1641,-424.3 1641,-8 956,-8"/>
<text text-anchor="start" x="964" y="-410.8" font-family="Menlo" font-size="10.00">S = { &quot;a&quot; } { &quot;a&quot; } .</text>
</g>
<!-- 0.0 -->
<g id="node1" class="node">
<title>0.0</title>
<path fill="none" stroke="gray" d="M931.96,-372.68C931.96,-372.68 924.04,-372.68 924.04,-372.68 920.08,-372.68 916.12,-368.72 916.12,-364.75 916.12,-364.75 916.12,-356.84 916.12,-356.84 916.12,-352.88 920.08,-348.92 924.04,-348.92 924.04,-348.92 931.96,-348.92 931.96,-348.92 935.92,-348.92 939.88,-352.88 939.88,-356.84 939.88,-356.84 939.88,-364.75 939.88,-364.75 939.88,-368.72 935.92,-372.68 931.96,-372.68"/>
<text text-anchor="start" x="919" y="-361.3" font-family="Menlo" font-size="10.00">S,0</text>
<text text-anchor="start" x="923.5" y="-353.19" font-family="Menlo" font-size="8.00" fill="gray"> 5</text>
</g>
<!-- 2.0 -->
<g id="node2" class="node">
<title>2.0</title>
<ellipse fill="none" stroke="gray" cx="682" cy="-283.29" rx="50.74" ry="13.09"/>
<text text-anchor="start" x="649" y="-280.16" font-family="Menlo" font-size="10.00">S=·{a}{a},0</text>
</g>
<!-- 2.0&#45;&gt;2.0 -->
<g id="edge1" class="edge">
<title>2.0&#45;&gt;2.0</title>
<path fill="none" stroke="gray" d="M705.95,-295.23C727.58,-301.04 750.74,-297.06 750.74,-283.29 750.74,-270.42 730.55,-266.1 710.28,-270.31"/>
<polygon fill="gray" stroke="gray" points="710.1,-269.27 707.43,-270.99 710.59,-271.32 710.1,-269.27"/>
</g>
<!-- 2.1 -->
<g id="node3" class="node">
<title>2.1</title>
<path fill="none" stroke="gray" d="M889.96,-372.68C889.96,-372.68 834.04,-372.68 834.04,-372.68 830.08,-372.68 826.12,-368.72 826.12,-364.75 826.12,-364.75 826.12,-356.84 826.12,-356.84 826.12,-352.88 830.08,-348.92 834.04,-348.92 834.04,-348.92 889.96,-348.92 889.96,-348.92 893.92,-348.92 897.88,-352.88 897.88,-356.84 897.88,-356.84 897.88,-364.75 897.88,-364.75 897.88,-368.72 893.92,-372.68 889.96,-372.68"/>
<text text-anchor="start" x="829" y="-361.3" font-family="Menlo" font-size="10.00">S=·{a}{a},1</text>
<text text-anchor="start" x="857.5" y="-353.19" font-family="Menlo" font-size="8.00" fill="gray"> 2</text>
</g>
<!-- 2.1&#45;&gt;2.0 -->
<g id="edge2" class="edge">
<title>2.1&#45;&gt;2.0</title>
<path fill="none" stroke="gray" d="M849.41,-348.48C840.79,-341.23 828.83,-332.08 817,-326.04 787.54,-311.01 751.68,-300.23 724.32,-293.4"/>
<polygon fill="gray" stroke="gray" points="724.64,-292.39 721.48,-292.69 724.14,-294.43 724.64,-292.39"/>
</g>
<!-- 2.2 -->
<g id="node4" class="node">
<title>2.2</title>
<path fill="none" stroke="gray" d="M799.96,-372.68C799.96,-372.68 744.04,-372.68 744.04,-372.68 740.08,-372.68 736.12,-368.72 736.12,-364.75 736.12,-364.75 736.12,-356.84 736.12,-356.84 736.12,-352.88 740.08,-348.92 744.04,-348.92 744.04,-348.92 799.96,-348.92 799.96,-348.92 803.92,-348.92 807.88,-352.88 807.88,-356.84 807.88,-356.84 807.88,-364.75 807.88,-364.75 807.88,-368.72 803.92,-372.68 799.96,-372.68"/>
<text text-anchor="start" x="739" y="-361.3" font-family="Menlo" font-size="10.00">S=·{a}{a},2</text>
<text text-anchor="start" x="767.5" y="-353.19" font-family="Menlo" font-size="8.00" fill="gray"> 3</text>
</g>
<!-- 2.2&#45;&gt;2.0 -->
<g id="edge3" class="edge">
<title>2.2&#45;&gt;2.0</title>
<path fill="none" stroke="gray" d="M758.72,-348.65C743.04,-335.5 716.91,-313.58 699.57,-299.03"/>
<polygon fill="gray" stroke="gray" points="700.36,-298.32 697.39,-297.19 699.01,-299.93 700.36,-298.32"/>
</g>
<!-- 2.3 -->
<g id="node5" class="node">
<title>2.3</title>
<path fill="none" stroke="gray" d="M709.96,-372.68C709.96,-372.68 654.04,-372.68 654.04,-372.68 650.08,-372.68 646.12,-368.72 646.12,-364.75 646.12,-364.75 646.12,-356.84 646.12,-356.84 646.12,-352.88 650.08,-348.92 654.04,-348.92 654.04,-348.92 709.96,-348.92 709.96,-348.92 713.92,-348.92 717.88,-352.88 717.88,-356.84 717.88,-356.84 717.88,-364.75 717.88,-364.75 717.88,-368.72 713.92,-372.68 709.96,-372.68"/>
<text text-anchor="start" x="649" y="-361.3" font-family="Menlo" font-size="10.00">S=·{a}{a},3</text>
<text text-anchor="start" x="677.5" y="-353.19" font-family="Menlo" font-size="8.00" fill="gray"> 4</text>
</g>
<!-- 2.3&#45;&gt;2.0 -->
<g id="edge4" class="edge">
<title>2.3&#45;&gt;2.0</title>
<path fill="none" stroke="gray" d="M682,-348.65C682,-336.09 682,-315.52 682,-301.02"/>
<polygon fill="gray" stroke="gray" points="683.05,-301.24 682,-298.24 680.95,-301.24 683.05,-301.24"/>
</g>
<!-- 2.4 -->
<g id="node6" class="node">
<title>2.4</title>
<path fill="none" stroke="gray" d="M619.96,-372.68C619.96,-372.68 564.04,-372.68 564.04,-372.68 560.08,-372.68 556.12,-368.72 556.12,-364.75 556.12,-364.75 556.12,-356.84 556.12,-356.84 556.12,-352.88 560.08,-348.92 564.04,-348.92 564.04,-348.92 619.96,-348.92 619.96,-348.92 623.92,-348.92 627.88,-352.88 627.88,-356.84 627.88,-356.84 627.88,-364.75 627.88,-364.75 627.88,-368.72 623.92,-372.68 619.96,-372.68"/>
<text text-anchor="start" x="559" y="-361.3" font-family="Menlo" font-size="10.00">S=·{a}{a},4</text>
<text text-anchor="start" x="587.5" y="-353.19" font-family="Menlo" font-size="8.00" fill="gray"> 5</text>
</g>
<!-- 2.4&#45;&gt;2.0 -->
<g id="edge5" class="edge">
<title>2.4&#45;&gt;2.0</title>
<path fill="none" stroke="gray" d="M605.28,-348.65C620.96,-335.5 647.09,-313.58 664.43,-299.03"/>
<polygon fill="gray" stroke="gray" points="664.99,-299.93 666.61,-297.19 663.64,-298.32 664.99,-299.93"/>
</g>
<!-- 2.5 -->
<g id="node7" class="node">
<title>2.5</title>
<path fill="none" stroke="gray" d="M529.96,-372.68C529.96,-372.68 474.04,-372.68 474.04,-372.68 470.08,-372.68 466.12,-368.72 466.12,-364.75 466.12,-364.75 466.12,-356.84 466.12,-356.84 466.12,-352.88 470.08,-348.92 474.04,-348.92 474.04,-348.92 529.96,-348.92 529.96,-348.92 533.92,-348.92 537.88,-352.88 537.88,-356.84 537.88,-356.84 537.88,-364.75 537.88,-364.75 537.88,-368.72 533.92,-372.68 529.96,-372.68"/>
<text text-anchor="start" x="469" y="-361.3" font-family="Menlo" font-size="10.00">S=·{a}{a},5</text>
<text text-anchor="start" x="499.75" y="-353.19" font-family="Menlo" font-size="8.00" fill="gray"> </text>
</g>
<!-- 2.5&#45;&gt;2.0 -->
<g id="edge6" class="edge">
<title>2.5&#45;&gt;2.0</title>
<path fill="none" stroke="gray" d="M514.59,-348.48C523.21,-341.23 535.17,-332.08 547,-326.04 576.46,-311.01 612.32,-300.23 639.68,-293.4"/>
<polygon fill="gray" stroke="gray" points="639.86,-294.43 642.52,-292.69 639.36,-292.39 639.86,-294.43"/>
</g>
<!-- 6.0 -->
<g id="node8" class="node">
<title>6.0</title>
<ellipse fill="none" stroke="gray" cx="232" cy="-283.29" rx="50.74" ry="13.09"/>
<text text-anchor="start" x="199" y="-280.16" font-family="Menlo" font-size="10.00">S={a}·{a},0</text>
</g>
<!-- 6.0&#45;&gt;6.0 -->
<g id="edge7" class="edge">
<title>6.0&#45;&gt;6.0</title>
<path fill="none" stroke="gray" d="M255.95,-295.23C277.58,-301.04 300.74,-297.06 300.74,-283.29 300.74,-270.42 280.55,-266.1 260.28,-270.31"/>
<polygon fill="gray" stroke="gray" points="260.1,-269.27 257.43,-270.99 260.59,-271.32 260.1,-269.27"/>
</g>
<!-- 6.1 -->
<g id="node9" class="node">
<title>6.1</title>
<path fill="none" stroke="gray" d="M439.96,-372.68C439.96,-372.68 384.04,-372.68 384.04,-372.68 380.08,-372.68 376.12,-368.72 376.12,-364.75 376.12,-364.75 376.12,-356.84 376.12,-356.84 376.12,-352.88 380.08,-348.92 384.04,-348.92 384.04,-348.92 439.96,-348.92 439.96,-348.92 443.92,-348.92 447.88,-352.88 447.88,-356.84 447.88,-356.84 447.88,-364.75 447.88,-364.75 447.88,-368.72 443.92,-372.68 439.96,-372.68"/>
<text text-anchor="start" x="379" y="-361.3" font-family="Menlo" font-size="10.00">S={a}·{a},1</text>
<text text-anchor="start" x="407.5" y="-353.19" font-family="Menlo" font-size="8.00" fill="gray"> 2</text>
</g>
<!-- 6.1&#45;&gt;6.0 -->
<g id="edge8" class="edge">
<title>6.1&#45;&gt;6.0</title>
<path fill="none" stroke="gray" d="M399.41,-348.48C390.79,-341.23 378.83,-332.08 367,-326.04 337.54,-311.01 301.68,-300.23 274.32,-293.4"/>
<polygon fill="gray" stroke="gray" points="274.64,-292.39 271.48,-292.69 274.14,-294.43 274.64,-292.39"/>
</g>
<!-- 6.2 -->
<g id="node10" class="node">
<title>6.2</title>
<path fill="none" stroke="gray" d="M349.96,-372.68C349.96,-372.68 294.04,-372.68 294.04,-372.68 290.08,-372.68 286.12,-368.72 286.12,-364.75 286.12,-364.75 286.12,-356.84 286.12,-356.84 286.12,-352.88 290.08,-348.92 294.04,-348.92 294.04,-348.92 349.96,-348.92 349.96,-348.92 353.92,-348.92 357.88,-352.88 357.88,-356.84 357.88,-356.84 357.88,-364.75 357.88,-364.75 357.88,-368.72 353.92,-372.68 349.96,-372.68"/>
<text text-anchor="start" x="289" y="-361.3" font-family="Menlo" font-size="10.00">S={a}·{a},2</text>
<text text-anchor="start" x="317.5" y="-353.19" font-family="Menlo" font-size="8.00" fill="gray"> 3</text>
</g>
<!-- 6.2&#45;&gt;6.0 -->
<g id="edge9" class="edge">
<title>6.2&#45;&gt;6.0</title>
<path fill="none" stroke="gray" d="M308.72,-348.65C293.04,-335.5 266.91,-313.58 249.57,-299.03"/>
<polygon fill="gray" stroke="gray" points="250.36,-298.32 247.39,-297.19 249.01,-299.93 250.36,-298.32"/>
</g>
<!-- 6.3 -->
<g id="node11" class="node">
<title>6.3</title>
<path fill="none" stroke="gray" d="M259.96,-372.68C259.96,-372.68 204.04,-372.68 204.04,-372.68 200.08,-372.68 196.12,-368.72 196.12,-364.75 196.12,-364.75 196.12,-356.84 196.12,-356.84 196.12,-352.88 200.08,-348.92 204.04,-348.92 204.04,-348.92 259.96,-348.92 259.96,-348.92 263.92,-348.92 267.88,-352.88 267.88,-356.84 267.88,-356.84 267.88,-364.75 267.88,-364.75 267.88,-368.72 263.92,-372.68 259.96,-372.68"/>
<text text-anchor="start" x="199" y="-361.3" font-family="Menlo" font-size="10.00">S={a}·{a},3</text>
<text text-anchor="start" x="227.5" y="-353.19" font-family="Menlo" font-size="8.00" fill="gray"> 4</text>
</g>
<!-- 6.3&#45;&gt;6.0 -->
<g id="edge10" class="edge">
<title>6.3&#45;&gt;6.0</title>
<path fill="none" stroke="gray" d="M232,-348.65C232,-336.09 232,-315.52 232,-301.02"/>
<polygon fill="gray" stroke="gray" points="233.05,-301.24 232,-298.24 230.95,-301.24 233.05,-301.24"/>
</g>
<!-- 6.4 -->
<g id="node12" class="node">
<title>6.4</title>
<path fill="none" stroke="gray" d="M169.96,-372.68C169.96,-372.68 114.04,-372.68 114.04,-372.68 110.08,-372.68 106.12,-368.72 106.12,-364.75 106.12,-364.75 106.12,-356.84 106.12,-356.84 106.12,-352.88 110.08,-348.92 114.04,-348.92 114.04,-348.92 169.96,-348.92 169.96,-348.92 173.92,-348.92 177.88,-352.88 177.88,-356.84 177.88,-356.84 177.88,-364.75 177.88,-364.75 177.88,-368.72 173.92,-372.68 169.96,-372.68"/>
<text text-anchor="start" x="109" y="-361.3" font-family="Menlo" font-size="10.00">S={a}·{a},4</text>
<text text-anchor="start" x="137.5" y="-353.19" font-family="Menlo" font-size="8.00" fill="gray"> 5</text>
</g>
<!-- 6.4&#45;&gt;6.0 -->
<g id="edge11" class="edge">
<title>6.4&#45;&gt;6.0</title>
<path fill="none" stroke="gray" d="M155.28,-348.65C170.96,-335.5 197.09,-313.58 214.43,-299.03"/>
<polygon fill="gray" stroke="gray" points="214.99,-299.93 216.61,-297.19 213.64,-298.32 214.99,-299.93"/>
</g>
<!-- 6.5 -->
<g id="node13" class="node">
<title>6.5</title>
<path fill="none" stroke="gray" d="M79.96,-372.68C79.96,-372.68 24.04,-372.68 24.04,-372.68 20.08,-372.68 16.12,-368.72 16.12,-364.75 16.12,-364.75 16.12,-356.84 16.12,-356.84 16.12,-352.88 20.08,-348.92 24.04,-348.92 24.04,-348.92 79.96,-348.92 79.96,-348.92 83.92,-348.92 87.88,-352.88 87.88,-356.84 87.88,-356.84 87.88,-364.75 87.88,-364.75 87.88,-368.72 83.92,-372.68 79.96,-372.68"/>
<text text-anchor="start" x="19" y="-361.3" font-family="Menlo" font-size="10.00">S={a}·{a},5</text>
<text text-anchor="start" x="49.75" y="-353.19" font-family="Menlo" font-size="8.00" fill="gray"> </text>
</g>
<!-- 6.5&#45;&gt;6.0 -->
<g id="edge12" class="edge">
<title>6.5&#45;&gt;6.0</title>
<path fill="none" stroke="gray" d="M64.59,-348.48C73.21,-341.23 85.17,-332.08 97,-326.04 126.46,-311.01 162.32,-300.23 189.68,-293.4"/>
<polygon fill="gray" stroke="gray" points="189.86,-294.43 192.52,-292.69 189.36,-292.39 189.86,-294.43"/>
</g>
<!-- SR0C0 -->
<g id="node14" class="node">
<title>SR0C0</title>
<polygon fill="none" stroke="gray" points="1041.88,-395.55 964.12,-395.55 964.12,-326.04 1041.88,-326.04 1041.88,-395.55"/>
<text text-anchor="start" x="1000" y="-383.17" font-family="Menlo" font-size="10.00">0</text>
<text text-anchor="start" x="994" y="-370.42" font-family="Menlo" font-size="10.00">N S</text>
<text text-anchor="start" x="967" y="-357.67" font-family="Menlo" font-size="10.00">fi [&quot;&quot;, &quot;a&quot;]</text>
<text text-anchor="start" x="979" y="-344.92" font-family="Menlo" font-size="10.00">fo [&quot;$&quot;]</text>
<text text-anchor="start" x="982" y="-332.17" font-family="Menlo" font-size="10.00">[0:0:5]</text>
</g>
<!-- SR0C1 -->
<g id="node15" class="node">
<title>SR0C1</title>
<polygon fill="none" stroke="gray" points="1209.88,-395.55 1126.12,-395.55 1126.12,-326.04 1209.88,-326.04 1209.88,-395.55"/>
<text text-anchor="start" x="1165" y="-383.17" font-family="Menlo" font-size="10.00">1</text>
<text text-anchor="start" x="1156" y="-370.42" font-family="Menlo" font-size="10.00">ALT </text>
<text text-anchor="start" x="1132" y="-357.67" font-family="Menlo" font-size="10.00">fi [&quot;&quot;, &quot;a&quot;]</text>
<text text-anchor="start" x="1129" y="-344.92" font-family="Menlo" font-size="10.00">fo [&quot;$&quot;, &quot;a&quot;]</text>
<text text-anchor="start" x="1162" y="-332.17" font-family="Menlo" font-size="10.00">[]</text>
</g>
<!-- SR0C0&#45;&gt;SR0C1 -->
<g id="edge22" class="edge">
<title>SR0C0&#45;&gt;SR0C1</title>
<path fill="none" stroke="gray" d="M1042.32,-360.8C1068.72,-360.8 1095.13,-360.8 1121.54,-360.8"/>
<polygon fill="gray" stroke="gray" points="1121.26,-361.85 1124.26,-360.8 1121.26,-359.75 1121.26,-361.85"/>
</g>
<!-- SR1C0 -->
<!-- SR0C0&#45;&gt;SR1C0 -->
<!-- SR1C1 -->
<g id="node16" class="node">
<title>SR1C1</title>
<polygon fill="none" stroke="gray" points="1296.88,-318.04 1039.12,-318.04 1039.12,-248.53 1296.88,-248.53 1296.88,-318.04"/>
<text text-anchor="start" x="1165" y="-305.66" font-family="Menlo" font-size="10.00">2</text>
<text text-anchor="start" x="1156" y="-292.91" font-family="Menlo" font-size="10.00">KLN </text>
<text text-anchor="start" x="1132" y="-280.16" font-family="Menlo" font-size="10.00">fi [&quot;&quot;, &quot;a&quot;]</text>
<text text-anchor="start" x="1129" y="-267.41" font-family="Menlo" font-size="10.00">fo [&quot;$&quot;, &quot;a&quot;]</text>
<text text-anchor="start" x="1042" y="-254.66" font-family="Menlo" font-size="10.00">[0:0:0, 0:0:1, 0:1:2, 0:2:3, 0:3:4, 0:4:5]</text>
</g>
<!-- SR0C1&#45;&gt;SR1C1 -->
<g id="edge21" class="edge">
<title>SR0C1&#45;&gt;SR1C1</title>
<path fill="none" stroke="gray" d="M1168,-325.57C1168,-324.7 1168,-323.82 1168,-322.94"/>
<polygon fill="gray" stroke="gray" points="1169.05,-323.05 1168,-320.05 1166.95,-323.05 1169.05,-323.05"/>
</g>
<!-- SR0C2 -->
<!-- SR0C1&#45;&gt;SR0C2 -->
<!-- SR2C1 -->
<g id="node17" class="node">
<title>SR2C1</title>
<polygon fill="none" stroke="gray" points="1296.88,-240.53 1039.12,-240.53 1039.12,-171.02 1296.88,-171.02 1296.88,-240.53"/>
<text text-anchor="start" x="1165" y="-228.15" font-family="Menlo" font-size="10.00">6</text>
<text text-anchor="start" x="1156" y="-215.4" font-family="Menlo" font-size="10.00">KLN </text>
<text text-anchor="start" x="1132" y="-202.65" font-family="Menlo" font-size="10.00">fi [&quot;&quot;, &quot;a&quot;]</text>
<text text-anchor="start" x="1144" y="-189.9" font-family="Menlo" font-size="10.00">fo [&quot;$&quot;]</text>
<text text-anchor="start" x="1042" y="-177.15" font-family="Menlo" font-size="10.00">[0:0:1, 0:1:2, 0:2:3, 0:3:4, 0:4:5, 0:5:5]</text>
</g>
<!-- SR1C1&#45;&gt;SR2C1 -->
<g id="edge17" class="edge">
<title>SR1C1&#45;&gt;SR2C1</title>
<path fill="none" stroke="gray" d="M1168,-248.06C1168,-247.19 1168,-246.31 1168,-245.43"/>
<polygon fill="gray" stroke="gray" points="1169.05,-245.54 1168,-242.54 1166.95,-245.54 1169.05,-245.54"/>
</g>
<!-- SR1C3 -->
<g id="node22" class="node">
<title>SR1C3</title>
<polygon fill="none" stroke="gray" points="1566.88,-318.04 1483.12,-318.04 1483.12,-248.53 1566.88,-248.53 1566.88,-318.04"/>
<text text-anchor="start" x="1522" y="-305.66" font-family="Menlo" font-size="10.00">3</text>
<text text-anchor="start" x="1513" y="-292.91" font-family="Menlo" font-size="10.00">ALT </text>
<text text-anchor="start" x="1501" y="-280.16" font-family="Menlo" font-size="10.00">fi [&quot;a&quot;]</text>
<text text-anchor="start" x="1486" y="-267.41" font-family="Menlo" font-size="10.00">fo [&quot;$&quot;, &quot;a&quot;]</text>
<text text-anchor="start" x="1519" y="-254.66" font-family="Menlo" font-size="10.00">[]</text>
</g>
<!-- SR1C1&#45;&gt;SR1C3 -->
<g id="edge20" class="edge">
<title>SR1C1&#45;&gt;SR1C3</title>
<path fill="none" stroke="gray" d="M1297.34,-283.29C1357.7,-283.29 1418.06,-283.29 1478.41,-283.29"/>
<polygon fill="gray" stroke="gray" points="1478.25,-284.34 1481.25,-283.29 1478.25,-282.24 1478.25,-284.34"/>
</g>
<!-- SR3C1 -->
<g id="node18" class="node">
<title>SR3C1</title>
<polygon fill="none" stroke="gray" points="1194.88,-163.02 1141.12,-163.02 1141.12,-93.51 1194.88,-93.51 1194.88,-163.02"/>
<text text-anchor="start" x="1162" y="-150.64" font-family="Menlo" font-size="10.00">10</text>
<text text-anchor="start" x="1156" y="-137.89" font-family="Menlo" font-size="10.00">END </text>
<text text-anchor="start" x="1147" y="-125.14" font-family="Menlo" font-size="10.00">fi [&quot;&quot;]</text>
<text text-anchor="start" x="1144" y="-112.39" font-family="Menlo" font-size="10.00">fo [&quot;$&quot;]</text>
<text text-anchor="start" x="1162" y="-99.64" font-family="Menlo" font-size="10.00">[]</text>
</g>
<!-- SR2C1&#45;&gt;SR3C1 -->
<g id="edge13" class="edge">
<title>SR2C1&#45;&gt;SR3C1</title>
<path fill="none" stroke="gray" d="M1168,-170.55C1168,-169.68 1168,-168.8 1168,-167.92"/>
<polygon fill="gray" stroke="gray" points="1169.05,-168.03 1168,-165.03 1166.95,-168.03 1169.05,-168.03"/>
</g>
<!-- SR2C2 -->
<g id="node19" class="node">
<title>SR2C2</title>
<polygon fill="none" stroke="gray" points="1398.88,-240.53 1315.12,-240.53 1315.12,-171.02 1398.88,-171.02 1398.88,-240.53"/>
<text text-anchor="start" x="1354" y="-228.15" font-family="Menlo" font-size="10.00">7</text>
<text text-anchor="start" x="1345" y="-215.4" font-family="Menlo" font-size="10.00">ALT </text>
<text text-anchor="start" x="1333" y="-202.65" font-family="Menlo" font-size="10.00">fi [&quot;a&quot;]</text>
<text text-anchor="start" x="1318" y="-189.9" font-family="Menlo" font-size="10.00">fo [&quot;$&quot;, &quot;a&quot;]</text>
<text text-anchor="start" x="1351" y="-177.15" font-family="Menlo" font-size="10.00">[]</text>
</g>
<!-- SR2C1&#45;&gt;SR2C2 -->
<g id="edge16" class="edge">
<title>SR2C1&#45;&gt;SR2C2</title>
<path fill="none" stroke="gray" d="M1297.2,-205.78C1301.64,-205.78 1306.08,-205.78 1310.51,-205.78"/>
<polygon fill="gray" stroke="gray" points="1310.44,-206.83 1313.44,-205.78 1310.44,-204.73 1310.44,-206.83"/>
</g>
<!-- SR4C1 -->
<!-- SR3C1&#45;&gt;SR4C1 -->
<!-- SR3C2 -->
<g id="node20" class="node">
<title>SR3C2</title>
<polygon fill="none" stroke="gray" points="1464.88,-163.02 1249.12,-163.02 1249.12,-93.51 1464.88,-93.51 1464.88,-163.02"/>
<text text-anchor="start" x="1354" y="-150.64" font-family="Menlo" font-size="10.00">8</text>
<text text-anchor="start" x="1342" y="-137.89" font-family="Menlo" font-size="10.00">T &quot;a&quot;</text>
<text text-anchor="start" x="1333" y="-125.14" font-family="Menlo" font-size="10.00">fi [&quot;a&quot;]</text>
<text text-anchor="start" x="1318" y="-112.39" font-family="Menlo" font-size="10.00">fo [&quot;$&quot;, &quot;a&quot;]</text>
<text text-anchor="start" x="1252" y="-99.64" font-family="Menlo" font-size="10.00">[0:0:1, 1:1:2, 2:2:3, 3:3:4, 4:4:5]</text>
</g>
<!-- SR2C2&#45;&gt;SR3C2 -->
<g id="edge15" class="edge">
<title>SR2C2&#45;&gt;SR3C2</title>
<path fill="none" stroke="gray" d="M1357,-170.55C1357,-169.68 1357,-168.8 1357,-167.92"/>
<polygon fill="gray" stroke="gray" points="1358.05,-168.03 1357,-165.03 1355.95,-168.03 1358.05,-168.03"/>
</g>
<!-- SR4C2 -->
<g id="node21" class="node">
<title>SR4C2</title>
<polygon fill="none" stroke="gray" points="1398.88,-85.51 1315.12,-85.51 1315.12,-16 1398.88,-16 1398.88,-85.51"/>
<text text-anchor="start" x="1354" y="-73.13" font-family="Menlo" font-size="10.00">9</text>
<text text-anchor="start" x="1345" y="-60.38" font-family="Menlo" font-size="10.00">END </text>
<text text-anchor="start" x="1336" y="-47.63" font-family="Menlo" font-size="10.00">fi [&quot;&quot;]</text>
<text text-anchor="start" x="1318" y="-34.88" font-family="Menlo" font-size="10.00">fo [&quot;$&quot;, &quot;a&quot;]</text>
<text text-anchor="start" x="1351" y="-22.13" font-family="Menlo" font-size="10.00">[]</text>
</g>
<!-- SR3C2&#45;&gt;SR4C2 -->
<g id="edge14" class="edge">
<title>SR3C2&#45;&gt;SR4C2</title>
<path fill="none" stroke="gray" d="M1357,-93.04C1357,-92.17 1357,-91.29 1357,-90.41"/>
<polygon fill="gray" stroke="gray" points="1358.05,-90.52 1357,-87.52 1355.95,-90.52 1358.05,-90.52"/>
</g>
<!-- SR4C3 -->
<!-- SR4C2&#45;&gt;SR4C3 -->
<!-- SR2C3 -->
<g id="node23" class="node">
<title>SR2C3</title>
<polygon fill="none" stroke="gray" points="1632.88,-240.53 1417.12,-240.53 1417.12,-171.02 1632.88,-171.02 1632.88,-240.53"/>
<text text-anchor="start" x="1522" y="-228.15" font-family="Menlo" font-size="10.00">4</text>
<text text-anchor="start" x="1510" y="-215.4" font-family="Menlo" font-size="10.00">T &quot;a&quot;</text>
<text text-anchor="start" x="1501" y="-202.65" font-family="Menlo" font-size="10.00">fi [&quot;a&quot;]</text>
<text text-anchor="start" x="1486" y="-189.9" font-family="Menlo" font-size="10.00">fo [&quot;$&quot;, &quot;a&quot;]</text>
<text text-anchor="start" x="1420" y="-177.15" font-family="Menlo" font-size="10.00">[0:0:1, 1:1:2, 2:2:3, 3:3:4, 4:4:5]</text>
</g>
<!-- SR1C3&#45;&gt;SR2C3 -->
<g id="edge19" class="edge">
<title>SR1C3&#45;&gt;SR2C3</title>
<path fill="none" stroke="gray" d="M1525,-248.06C1525,-247.19 1525,-246.31 1525,-245.43"/>
<polygon fill="gray" stroke="gray" points="1526.05,-245.54 1525,-242.54 1523.95,-245.54 1526.05,-245.54"/>
</g>
<!-- SR3C3 -->
<g id="node24" class="node">
<title>SR3C3</title>
<polygon fill="none" stroke="gray" points="1566.88,-163.02 1483.12,-163.02 1483.12,-93.51 1566.88,-93.51 1566.88,-163.02"/>
<text text-anchor="start" x="1522" y="-150.64" font-family="Menlo" font-size="10.00">5</text>
<text text-anchor="start" x="1513" y="-137.89" font-family="Menlo" font-size="10.00">END </text>
<text text-anchor="start" x="1504" y="-125.14" font-family="Menlo" font-size="10.00">fi [&quot;&quot;]</text>
<text text-anchor="start" x="1486" y="-112.39" font-family="Menlo" font-size="10.00">fo [&quot;$&quot;, &quot;a&quot;]</text>
<text text-anchor="start" x="1519" y="-99.64" font-family="Menlo" font-size="10.00">[]</text>
</g>
<!-- SR2C3&#45;&gt;SR3C3 -->
<g id="edge18" class="edge">
<title>SR2C3&#45;&gt;SR3C3</title>
<path fill="none" stroke="gray" d="M1525,-170.55C1525,-169.68 1525,-168.8 1525,-167.92"/>
<polygon fill="gray" stroke="gray" points="1526.05,-168.03 1525,-165.03 1523.95,-168.03 1526.05,-168.03"/>
</g>
<!-- SR3C3&#45;&gt;SR4C3 -->
<!-- SR0C3 -->
<!-- SR0C2&#45;&gt;SR0C3 -->
<!-- SR0C3&#45;&gt;SR1C3 -->
<!-- SR1C0&#45;&gt;SR1C1 -->
<!-- SR2C0 -->
<!-- SR1C0&#45;&gt;SR2C0 -->
<!-- SR2C0&#45;&gt;SR2C1 -->
<!-- SR3C0 -->
<!-- SR2C0&#45;&gt;SR3C0 -->
<!-- SR3C0&#45;&gt;SR3C1 -->
<!-- SR4C0 -->
<!-- SR3C0&#45;&gt;SR4C0 -->
<!-- SR4C0&#45;&gt;SR4C1 -->
<!-- SR4C1&#45;&gt;SR4C2 -->
</g>
</svg>
