<?xml version="1.0" encoding="UTF-8" standalone="no"?>
<!DOCTYPE svg PUBLIC "-//W3C//DTD SVG 1.1//EN"
 "http://www.w3.org/Graphics/SVG/1.1/DTD/svg11.dtd">
<!-- Generated by graphviz version 9.0.0 (20230911.1827)
 -->
<!-- Title: G Pages: 1 -->
<svg width="864pt" height="440pt"
 viewBox="0.00 0.00 864.00 440.30" xmlns="http://www.w3.org/2000/svg" xmlns:xlink="http://www.w3.org/1999/xlink">
<g id="graph0" class="graph" transform="scale(1 1) rotate(0) translate(4 436.3)">
<title>G</title>
<polygon fill="white" stroke="none" points="-4,4 -4,-436.3 860,-436.3 860,4 -4,4"/>
<g id="clust1" class="cluster">
<title>GSS</title>
<polygon fill="none" stroke="black" points="8,-262.2 8,-402.63 389,-402.63 389,-262.2 8,-262.2"/>
<text text-anchor="start" x="16" y="-389.13" font-family="Menlo" font-size="10.00" fill="green">↵x↵</text>
</g>
<g id="clust2" class="cluster">
<title>clusterS</title>
<polygon fill="none" stroke="black" points="397,-8 397,-424.3 848,-424.3 848,-8 397,-8"/>
<text text-anchor="start" x="405" y="-410.8" font-family="Menlo" font-size="10.00">S = { [ &quot;x&quot; ] } .</text>
</g>
<!-- 0.0 -->
<g id="node1" class="node">
<title>0.0</title>
<path fill="none" stroke="gray" d="M372.96,-372.68C372.96,-372.68 365.04,-372.68 365.04,-372.68 361.08,-372.68 357.12,-368.72 357.12,-364.75 357.12,-364.75 357.12,-356.84 357.12,-356.84 357.12,-352.88 361.08,-348.92 365.04,-348.92 365.04,-348.92 372.96,-348.92 372.96,-348.92 376.92,-348.92 380.88,-352.88 380.88,-356.84 380.88,-356.84 380.88,-364.75 380.88,-364.75 380.88,-368.72 376.92,-372.68 372.96,-372.68"/>
<text text-anchor="start" x="360" y="-361.3" font-family="Menlo" font-size="10.00">S,0</text>
<text text-anchor="start" x="364.5" y="-353.19" font-family="Menlo" font-size="8.00" fill="gray"> 1</text>
</g>
<!-- 2.0 -->
<g id="node2" class="node">
<title>2.0</title>
<ellipse fill="none" stroke="gray" cx="306" cy="-283.29" rx="46.5" ry="13.09"/>
<text text-anchor="start" x="276" y="-280.16" font-family="Menlo" font-size="10.00">S=·{[x]},0</text>
</g>
<!-- 2.0&#45;&gt;2.0 -->
<g id="edge1" class="edge">
<title>2.0&#45;&gt;2.0</title>
<path fill="none" stroke="gray" d="M328.14,-295.13C348.53,-301.09 370.5,-297.14 370.5,-283.29 370.5,-270.41 351.51,-266.09 332.46,-270.33"/>
<polygon fill="gray" stroke="gray" points="332.25,-269.3 329.61,-271.06 332.77,-271.33 332.25,-269.3"/>
</g>
<!-- 2.1 -->
<g id="node3" class="node">
<title>2.1</title>
<path fill="none" stroke="gray" d="M330.96,-372.68C330.96,-372.68 281.04,-372.68 281.04,-372.68 277.08,-372.68 273.12,-368.72 273.12,-364.75 273.12,-364.75 273.12,-356.84 273.12,-356.84 273.12,-352.88 277.08,-348.92 281.04,-348.92 281.04,-348.92 330.96,-348.92 330.96,-348.92 334.92,-348.92 338.88,-352.88 338.88,-356.84 338.88,-356.84 338.88,-364.75 338.88,-364.75 338.88,-368.72 334.92,-372.68 330.96,-372.68"/>
<text text-anchor="start" x="276" y="-361.3" font-family="Menlo" font-size="10.00">S=·{[x]},1</text>
<text text-anchor="start" x="301.5" y="-353.19" font-family="Menlo" font-size="8.00" fill="gray"> 1</text>
</g>
<!-- 2.1&#45;&gt;2.0 -->
<g id="edge2" class="edge">
<title>2.1&#45;&gt;2.0</title>
<path fill="none" stroke="gray" d="M306,-348.65C306,-336.09 306,-315.52 306,-301.02"/>
<polygon fill="gray" stroke="gray" points="307.05,-301.24 306,-298.24 304.95,-301.24 307.05,-301.24"/>
</g>
<!-- 4.0 -->
<g id="node4" class="node">
<title>4.0</title>
<ellipse fill="none" stroke="gray" cx="191" cy="-360.8" rx="46.5" ry="13.09"/>
<text text-anchor="start" x="161" y="-357.67" font-family="Menlo" font-size="10.00">S={·[x]},0</text>
</g>
<!-- 4.0&#45;&gt;4.0 -->
<g id="edge3" class="edge">
<title>4.0&#45;&gt;4.0</title>
<path fill="none" stroke="gray" d="M213.14,-372.64C233.53,-378.6 255.5,-374.65 255.5,-360.8 255.5,-347.92 236.51,-343.6 217.46,-347.84"/>
<polygon fill="gray" stroke="gray" points="217.25,-346.81 214.61,-348.57 217.77,-348.84 217.25,-346.81"/>
</g>
<!-- 4.1 -->
<g id="node5" class="node">
<title>4.1</title>
<ellipse fill="none" stroke="gray" cx="62" cy="-360.8" rx="46.5" ry="13.09"/>
<text text-anchor="start" x="32" y="-357.67" font-family="Menlo" font-size="10.00">S={·[x]},1</text>
</g>
<!-- 4.1&#45;&gt;4.1 -->
<g id="edge4" class="edge">
<title>4.1&#45;&gt;4.1</title>
<path fill="none" stroke="gray" d="M84.14,-372.64C104.53,-378.6 126.5,-374.65 126.5,-360.8 126.5,-347.92 107.51,-343.6 88.46,-347.84"/>
<polygon fill="gray" stroke="gray" points="88.25,-346.81 85.61,-348.57 88.77,-348.84 88.25,-346.81"/>
</g>
<!-- SR0C0 -->
<g id="node6" class="node">
<title>SR0C0</title>
<polygon fill="none" stroke="gray" points="482.88,-395.55 405.12,-395.55 405.12,-326.04 482.88,-326.04 482.88,-395.55"/>
<text text-anchor="start" x="441" y="-383.17" font-family="Menlo" font-size="10.00">0</text>
<text text-anchor="start" x="435" y="-370.42" font-family="Menlo" font-size="10.00">N S</text>
<text text-anchor="start" x="408" y="-357.67" font-family="Menlo" font-size="10.00">fi [&quot;&quot;, &quot;x&quot;]</text>
<text text-anchor="start" x="420" y="-344.92" font-family="Menlo" font-size="10.00">fo [&quot;$&quot;]</text>
<text text-anchor="start" x="423" y="-332.17" font-family="Menlo" font-size="10.00">[0:0:1]</text>
</g>
<!-- SR0C1 -->
<g id="node7" class="node">
<title>SR0C1</title>
<polygon fill="none" stroke="gray" points="584.88,-395.55 507.12,-395.55 507.12,-326.04 584.88,-326.04 584.88,-395.55"/>
<text text-anchor="start" x="543" y="-383.17" font-family="Menlo" font-size="10.00">1</text>
<text text-anchor="start" x="534" y="-370.42" font-family="Menlo" font-size="10.00">ALT </text>
<text text-anchor="start" x="510" y="-357.67" font-family="Menlo" font-size="10.00">fi [&quot;&quot;, &quot;x&quot;]</text>
<text text-anchor="start" x="522" y="-344.92" font-family="Menlo" font-size="10.00">fo [&quot;$&quot;]</text>
<text text-anchor="start" x="540" y="-332.17" font-family="Menlo" font-size="10.00">[]</text>
</g>
<!-- SR0C0&#45;&gt;SR0C1 -->
<g id="edge13" class="edge">
<title>SR0C0&#45;&gt;SR0C1</title>
<path fill="none" stroke="gray" d="M483.05,-360.8C489.44,-360.8 495.83,-360.8 502.23,-360.8"/>
<polygon fill="gray" stroke="gray" points="502.14,-361.85 505.14,-360.8 502.14,-359.75 502.14,-361.85"/>
</g>
<!-- SR1C0 -->
<!-- SR0C0&#45;&gt;SR1C0 -->
<!-- SR1C1 -->
<g id="node8" class="node">
<title>SR1C1</title>
<polygon fill="none" stroke="gray" points="611.88,-318.04 480.12,-318.04 480.12,-248.53 611.88,-248.53 611.88,-318.04"/>
<text text-anchor="start" x="543" y="-305.66" font-family="Menlo" font-size="10.00">2</text>
<text text-anchor="start" x="534" y="-292.91" font-family="Menlo" font-size="10.00">KLN </text>
<text text-anchor="start" x="510" y="-280.16" font-family="Menlo" font-size="10.00">fi [&quot;&quot;, &quot;x&quot;]</text>
<text text-anchor="start" x="522" y="-267.41" font-family="Menlo" font-size="10.00">fo [&quot;$&quot;]</text>
<text text-anchor="start" x="483" y="-254.66" font-family="Menlo" font-size="10.00">[0:0:0, 0:0:1, 0:1:1]</text>
</g>
<!-- SR0C1&#45;&gt;SR1C1 -->
<g id="edge12" class="edge">
<title>SR0C1&#45;&gt;SR1C1</title>
<path fill="none" stroke="gray" d="M546,-325.57C546,-324.7 546,-323.82 546,-322.94"/>
<polygon fill="gray" stroke="gray" points="547.05,-323.05 546,-320.05 544.95,-323.05 547.05,-323.05"/>
</g>
<!-- SR0C2 -->
<!-- SR0C1&#45;&gt;SR0C2 -->
<!-- SR2C1 -->
<g id="node9" class="node">
<title>SR2C1</title>
<polygon fill="none" stroke="gray" points="572.88,-240.53 519.12,-240.53 519.12,-171.02 572.88,-171.02 572.88,-240.53"/>
<text text-anchor="start" x="543" y="-228.15" font-family="Menlo" font-size="10.00">9</text>
<text text-anchor="start" x="534" y="-215.4" font-family="Menlo" font-size="10.00">END </text>
<text text-anchor="start" x="525" y="-202.65" font-family="Menlo" font-size="10.00">fi [&quot;&quot;]</text>
<text text-anchor="start" x="522" y="-189.9" font-family="Menlo" font-size="10.00">fo [&quot;$&quot;]</text>
<text text-anchor="start" x="540" y="-177.15" font-family="Menlo" font-size="10.00">[]</text>
</g>
<!-- SR1C1&#45;&gt;SR2C1 -->
<g id="edge5" class="edge">
<title>SR1C1&#45;&gt;SR2C1</title>
<path fill="none" stroke="gray" d="M546,-248.06C546,-247.19 546,-246.31 546,-245.43"/>
<polygon fill="gray" stroke="gray" points="547.05,-245.54 546,-242.54 544.95,-245.54 547.05,-245.54"/>
</g>
<!-- SR1C2 -->
<g id="node10" class="node">
<title>SR1C2</title>
<polygon fill="none" stroke="gray" points="713.88,-318.04 630.12,-318.04 630.12,-248.53 713.88,-248.53 713.88,-318.04"/>
<text text-anchor="start" x="669" y="-305.66" font-family="Menlo" font-size="10.00">3</text>
<text text-anchor="start" x="660" y="-292.91" font-family="Menlo" font-size="10.00">ALT </text>
<text text-anchor="start" x="636" y="-280.16" font-family="Menlo" font-size="10.00">fi [&quot;&quot;, &quot;x&quot;]</text>
<text text-anchor="start" x="633" y="-267.41" font-family="Menlo" font-size="10.00">fo [&quot;$&quot;, &quot;x&quot;]</text>
<text text-anchor="start" x="666" y="-254.66" font-family="Menlo" font-size="10.00">[]</text>
</g>
<!-- SR1C1&#45;&gt;SR1C2 -->
<g id="edge11" class="edge">
<title>SR1C1&#45;&gt;SR1C2</title>
<path fill="none" stroke="gray" d="M611.95,-283.29C616.41,-283.29 620.87,-283.29 625.32,-283.29"/>
<polygon fill="gray" stroke="gray" points="625.27,-284.34 628.27,-283.29 625.27,-282.24 625.27,-284.34"/>
</g>
<!-- SR3C1 -->
<!-- SR2C1&#45;&gt;SR3C1 -->
<!-- SR2C2 -->
<g id="node11" class="node">
<title>SR2C2</title>
<polygon fill="none" stroke="gray" points="737.88,-240.53 606.12,-240.53 606.12,-171.02 737.88,-171.02 737.88,-240.53"/>
<text text-anchor="start" x="669" y="-228.15" font-family="Menlo" font-size="10.00">4</text>
<text text-anchor="start" x="660" y="-215.4" font-family="Menlo" font-size="10.00">OPT </text>
<text text-anchor="start" x="636" y="-202.65" font-family="Menlo" font-size="10.00">fi [&quot;&quot;, &quot;x&quot;]</text>
<text text-anchor="start" x="633" y="-189.9" font-family="Menlo" font-size="10.00">fo [&quot;$&quot;, &quot;x&quot;]</text>
<text text-anchor="start" x="609" y="-177.15" font-family="Menlo" font-size="10.00">[0:0:0, 0:0:1, 1:1:1]</text>
</g>
<!-- SR1C2&#45;&gt;SR2C2 -->
<g id="edge10" class="edge">
<title>SR1C2&#45;&gt;SR2C2</title>
<path fill="none" stroke="gray" d="M672,-248.06C672,-247.19 672,-246.31 672,-245.43"/>
<polygon fill="gray" stroke="gray" points="673.05,-245.54 672,-242.54 670.95,-245.54 673.05,-245.54"/>
</g>
<!-- SR1C3 -->
<!-- SR1C2&#45;&gt;SR1C3 -->
<!-- SR3C2 -->
<g id="node12" class="node">
<title>SR3C2</title>
<polygon fill="none" stroke="gray" points="713.88,-163.02 630.12,-163.02 630.12,-93.51 713.88,-93.51 713.88,-163.02"/>
<text text-anchor="start" x="669" y="-150.64" font-family="Menlo" font-size="10.00">8</text>
<text text-anchor="start" x="660" y="-137.89" font-family="Menlo" font-size="10.00">END </text>
<text text-anchor="start" x="651" y="-125.14" font-family="Menlo" font-size="10.00">fi [&quot;&quot;]</text>
<text text-anchor="start" x="633" y="-112.39" font-family="Menlo" font-size="10.00">fo [&quot;$&quot;, &quot;x&quot;]</text>
<text text-anchor="start" x="666" y="-99.64" font-family="Menlo" font-size="10.00">[]</text>
</g>
<!-- SR2C2&#45;&gt;SR3C2 -->
<g id="edge6" class="edge">
<title>SR2C2&#45;&gt;SR3C2</title>
<path fill="none" stroke="gray" d="M672,-170.55C672,-169.68 672,-168.8 672,-167.92"/>
<polygon fill="gray" stroke="gray" points="673.05,-168.03 672,-165.03 670.95,-168.03 673.05,-168.03"/>
</g>
<!-- SR2C3 -->
<g id="node13" class="node">
<title>SR2C3</title>
<polygon fill="none" stroke="gray" points="839.88,-240.53 756.12,-240.53 756.12,-171.02 839.88,-171.02 839.88,-240.53"/>
<text text-anchor="start" x="795" y="-228.15" font-family="Menlo" font-size="10.00">5</text>
<text text-anchor="start" x="786" y="-215.4" font-family="Menlo" font-size="10.00">ALT </text>
<text text-anchor="start" x="774" y="-202.65" font-family="Menlo" font-size="10.00">fi [&quot;x&quot;]</text>
<text text-anchor="start" x="759" y="-189.9" font-family="Menlo" font-size="10.00">fo [&quot;$&quot;, &quot;x&quot;]</text>
<text text-anchor="start" x="792" y="-177.15" font-family="Menlo" font-size="10.00">[]</text>
</g>
<!-- SR2C2&#45;&gt;SR2C3 -->
<g id="edge9" class="edge">
<title>SR2C2&#45;&gt;SR2C3</title>
<path fill="none" stroke="gray" d="M737.95,-205.78C742.41,-205.78 746.87,-205.78 751.32,-205.78"/>
<polygon fill="gray" stroke="gray" points="751.27,-206.83 754.27,-205.78 751.27,-204.73 751.27,-206.83"/>
</g>
<!-- SR4C2 -->
<!-- SR3C2&#45;&gt;SR4C2 -->
<!-- SR3C3 -->
<g id="node14" class="node">
<title>SR3C3</title>
<polygon fill="none" stroke="gray" points="839.88,-163.02 756.12,-163.02 756.12,-93.51 839.88,-93.51 839.88,-163.02"/>
<text text-anchor="start" x="795" y="-150.64" font-family="Menlo" font-size="10.00">6</text>
<text text-anchor="start" x="783" y="-137.89" font-family="Menlo" font-size="10.00">T &quot;x&quot;</text>
<text text-anchor="start" x="774" y="-125.14" font-family="Menlo" font-size="10.00">fi [&quot;x&quot;]</text>
<text text-anchor="start" x="759" y="-112.39" font-family="Menlo" font-size="10.00">fo [&quot;$&quot;, &quot;x&quot;]</text>
<text text-anchor="start" x="777" y="-99.64" font-family="Menlo" font-size="10.00">[0:0:1]</text>
</g>
<!-- SR2C3&#45;&gt;SR3C3 -->
<g id="edge8" class="edge">
<title>SR2C3&#45;&gt;SR3C3</title>
<path fill="none" stroke="gray" d="M798,-170.55C798,-169.68 798,-168.8 798,-167.92"/>
<polygon fill="gray" stroke="gray" points="799.05,-168.03 798,-165.03 796.95,-168.03 799.05,-168.03"/>
</g>
<!-- SR4C3 -->
<g id="node15" class="node">
<title>SR4C3</title>
<polygon fill="none" stroke="gray" points="839.88,-85.51 756.12,-85.51 756.12,-16 839.88,-16 839.88,-85.51"/>
<text text-anchor="start" x="795" y="-73.13" font-family="Menlo" font-size="10.00">7</text>
<text text-anchor="start" x="786" y="-60.38" font-family="Menlo" font-size="10.00">END </text>
<text text-anchor="start" x="777" y="-47.63" font-family="Menlo" font-size="10.00">fi [&quot;&quot;]</text>
<text text-anchor="start" x="759" y="-34.88" font-family="Menlo" font-size="10.00">fo [&quot;$&quot;, &quot;x&quot;]</text>
<text text-anchor="start" x="792" y="-22.13" font-family="Menlo" font-size="10.00">[]</text>
</g>
<!-- SR3C3&#45;&gt;SR4C3 -->
<g id="edge7" class="edge">
<title>SR3C3&#45;&gt;SR4C3</title>
<path fill="none" stroke="gray" d="M798,-93.04C798,-92.17 798,-91.29 798,-90.41"/>
<polygon fill="gray" stroke="gray" points="799.05,-90.52 798,-87.52 796.95,-90.52 799.05,-90.52"/>
</g>
<!-- SR0C2&#45;&gt;SR1C2 -->
<!-- SR0C3 -->
<!-- SR0C2&#45;&gt;SR0C3 -->
<!-- SR0C3&#45;&gt;SR1C3 -->
<!-- SR1C0&#45;&gt;SR1C1 -->
<!-- SR2C0 -->
<!-- SR1C0&#45;&gt;SR2C0 -->
<!-- SR1C3&#45;&gt;SR2C3 -->
<!-- SR2C0&#45;&gt;SR2C1 -->
<!-- SR3C0 -->
<!-- SR2C0&#45;&gt;SR3C0 -->
<!-- SR3C0&#45;&gt;SR3C1 -->
<!-- SR4C0 -->
<!-- SR3C0&#45;&gt;SR4C0 -->
<!-- SR3C1&#45;&gt;SR3C2 -->
<!-- SR4C1 -->
<!-- SR3C1&#45;&gt;SR4C1 -->
<!-- SR4C0&#45;&gt;SR4C1 -->
<!-- SR4C1&#45;&gt;SR4C2 -->
<!-- SR4C2&#45;&gt;SR4C3 -->
</g>
</svg>
