<?xml version="1.0" encoding="UTF-8" standalone="no"?>
<!DOCTYPE svg PUBLIC "-//W3C//DTD SVG 1.1//EN"
 "http://www.w3.org/Graphics/SVG/1.1/DTD/svg11.dtd">
<!-- Generated by graphviz version 9.0.0 (20230911.1827)
 -->
<!-- Title: G Pages: 1 -->
<svg width="415pt" height="595pt"
 viewBox="0.00 0.00 415.00 595.32" xmlns="http://www.w3.org/2000/svg" xmlns:xlink="http://www.w3.org/1999/xlink">
<g id="graph0" class="graph" transform="scale(1 1) rotate(0) translate(4 591.32)">
<title>G</title>
<polygon fill="white" stroke="none" points="-4,4 -4,-591.32 411,-591.32 411,4 -4,4"/>
<g id="clust2" class="cluster">
<title>clusterS</title>
<polygon fill="none" stroke="black" points="8,-8 8,-579.32 399,-579.32 399,-8 8,-8"/>
<text text-anchor="start" x="16" y="-565.82" font-family="Menlo" font-size="10.00">S = &quot;bla&quot; { ( &quot;hup&quot; &quot;lala&quot; ) } &quot;!&quot; .</text>
</g>
<!-- SR0C0 -->
<g id="node1" class="node">
<title>SR0C0</title>
<polygon fill="none" stroke="gray" points="81.88,-550.57 16.12,-550.57 16.12,-481.06 81.88,-481.06 81.88,-550.57"/>
<text text-anchor="start" x="46" y="-538.19" font-family="Menlo" font-size="10.00">O</text>
<text text-anchor="start" x="40" y="-525.44" font-family="Menlo" font-size="10.00">N S</text>
<text text-anchor="start" x="19" y="-512.69" font-family="Menlo" font-size="10.00">fi [&quot;bla&quot;]</text>
<text text-anchor="start" x="25" y="-499.94" font-family="Menlo" font-size="10.00">fo [&quot;$&quot;]</text>
<text text-anchor="start" x="34" y="-487.19" font-family="Menlo" font-size="10.00">am []</text>
</g>
<!-- SR0C1 -->
<g id="node2" class="node">
<title>SR0C1</title>
<polygon fill="none" stroke="gray" points="165.88,-550.57 100.12,-550.57 100.12,-481.06 165.88,-481.06 165.88,-550.57"/>
<text text-anchor="start" x="130" y="-538.19" font-family="Menlo" font-size="10.00">C</text>
<text text-anchor="start" x="121" y="-525.44" font-family="Menlo" font-size="10.00">ALT </text>
<text text-anchor="start" x="103" y="-512.69" font-family="Menlo" font-size="10.00">fi [&quot;bla&quot;]</text>
<text text-anchor="start" x="109" y="-499.94" font-family="Menlo" font-size="10.00">fo [&quot;$&quot;]</text>
<text text-anchor="start" x="118" y="-487.19" font-family="Menlo" font-size="10.00">am []</text>
</g>
<!-- SR0C0&#45;&gt;SR0C1 -->
<g id="edge12" class="edge">
<title>SR0C0&#45;&gt;SR0C1</title>
<path fill="none" stroke="gray" d="M82.14,-515.82C86.51,-515.82 90.88,-515.82 95.25,-515.82"/>
<polygon fill="gray" stroke="gray" points="95.11,-516.87 98.11,-515.82 95.11,-514.77 95.11,-516.87"/>
</g>
<!-- SR1C0 -->
<!-- SR0C0&#45;&gt;SR1C0 -->
<!-- SR1C1 -->
<g id="node3" class="node">
<title>SR1C1</title>
<polygon fill="none" stroke="gray" points="180.88,-473.06 85.12,-473.06 85.12,-403.55 180.88,-403.55 180.88,-473.06"/>
<text text-anchor="start" x="130" y="-460.68" font-family="Menlo" font-size="10.00">D</text>
<text text-anchor="start" x="112" y="-447.93" font-family="Menlo" font-size="10.00">T &quot;bla&quot;</text>
<text text-anchor="start" x="103" y="-435.18" font-family="Menlo" font-size="10.00">fi [&quot;bla&quot;]</text>
<text text-anchor="start" x="88" y="-422.43" font-family="Menlo" font-size="10.00">fo [&quot;!&quot;, &quot;hup&quot;]</text>
<text text-anchor="start" x="118" y="-409.68" font-family="Menlo" font-size="10.00">am []</text>
</g>
<!-- SR0C1&#45;&gt;SR1C1 -->
<g id="edge11" class="edge">
<title>SR0C1&#45;&gt;SR1C1</title>
<path fill="none" stroke="gray" d="M133,-480.59C133,-479.72 133,-478.84 133,-477.96"/>
<polygon fill="gray" stroke="gray" points="134.05,-478.07 133,-475.07 131.95,-478.07 134.05,-478.07"/>
</g>
<!-- SR0C2 -->
<!-- SR0C1&#45;&gt;SR0C2 -->
<!-- SR2C1 -->
<g id="node4" class="node">
<title>SR2C1</title>
<polygon fill="none" stroke="gray" points="177.88,-395.55 88.12,-395.55 88.12,-326.04 177.88,-326.04 177.88,-395.55"/>
<text text-anchor="start" x="130" y="-383.17" font-family="Menlo" font-size="10.00">L</text>
<text text-anchor="start" x="121" y="-370.42" font-family="Menlo" font-size="10.00">KLN </text>
<text text-anchor="start" x="91" y="-357.67" font-family="Menlo" font-size="10.00">fi [&quot;&quot;, &quot;hup&quot;]</text>
<text text-anchor="start" x="109" y="-344.92" font-family="Menlo" font-size="10.00">fo [&quot;!&quot;]</text>
<text text-anchor="start" x="118" y="-332.17" font-family="Menlo" font-size="10.00">am []</text>
</g>
<!-- SR1C1&#45;&gt;SR2C1 -->
<g id="edge10" class="edge">
<title>SR1C1&#45;&gt;SR2C1</title>
<path fill="none" stroke="gray" d="M133,-403.08C133,-402.21 133,-401.33 133,-400.45"/>
<polygon fill="gray" stroke="gray" points="134.05,-400.56 133,-397.56 131.95,-400.56 134.05,-400.56"/>
</g>
<!-- SR1C2 -->
<!-- SR1C1&#45;&gt;SR1C2 -->
<!-- SR3C1 -->
<g id="node5" class="node">
<title>SR3C1</title>
<polygon fill="none" stroke="gray" points="159.88,-318.04 106.12,-318.04 106.12,-248.53 159.88,-248.53 159.88,-318.04"/>
<text text-anchor="start" x="130" y="-305.66" font-family="Menlo" font-size="10.00">M</text>
<text text-anchor="start" x="118" y="-292.91" font-family="Menlo" font-size="10.00">T &quot;!&quot;</text>
<text text-anchor="start" x="109" y="-280.16" font-family="Menlo" font-size="10.00">fi [&quot;!&quot;]</text>
<text text-anchor="start" x="109" y="-267.41" font-family="Menlo" font-size="10.00">fo [&quot;$&quot;]</text>
<text text-anchor="start" x="118" y="-254.66" font-family="Menlo" font-size="10.00">am []</text>
</g>
<!-- SR2C1&#45;&gt;SR3C1 -->
<g id="edge2" class="edge">
<title>SR2C1&#45;&gt;SR3C1</title>
<path fill="none" stroke="gray" d="M133,-325.57C133,-324.7 133,-323.82 133,-322.94"/>
<polygon fill="gray" stroke="gray" points="134.05,-323.05 133,-320.05 131.95,-323.05 134.05,-323.05"/>
</g>
<!-- SR2C2 -->
<g id="node7" class="node">
<title>SR2C2</title>
<polygon fill="none" stroke="gray" points="261.88,-395.55 196.12,-395.55 196.12,-326.04 261.88,-326.04 261.88,-395.55"/>
<text text-anchor="start" x="226" y="-383.17" font-family="Menlo" font-size="10.00">J</text>
<text text-anchor="start" x="217" y="-370.42" font-family="Menlo" font-size="10.00">ALT </text>
<text text-anchor="start" x="199" y="-357.67" font-family="Menlo" font-size="10.00">fi [&quot;hup&quot;]</text>
<text text-anchor="start" x="205" y="-344.92" font-family="Menlo" font-size="10.00">fo [&quot;!&quot;]</text>
<text text-anchor="start" x="214" y="-332.17" font-family="Menlo" font-size="10.00">am []</text>
</g>
<!-- SR2C1&#45;&gt;SR2C2 -->
<g id="edge9" class="edge">
<title>SR2C1&#45;&gt;SR2C2</title>
<path fill="none" stroke="gray" d="M178.38,-360.8C182.73,-360.8 187.08,-360.8 191.43,-360.8"/>
<polygon fill="gray" stroke="gray" points="191.26,-361.85 194.26,-360.8 191.26,-359.75 191.26,-361.85"/>
</g>
<!-- SR4C1 -->
<g id="node6" class="node">
<title>SR4C1</title>
<polygon fill="none" stroke="gray" points="159.88,-240.53 106.12,-240.53 106.12,-171.02 159.88,-171.02 159.88,-240.53"/>
<text text-anchor="start" x="130" y="-228.15" font-family="Menlo" font-size="10.00">N</text>
<text text-anchor="start" x="121" y="-215.4" font-family="Menlo" font-size="10.00">END </text>
<text text-anchor="start" x="112" y="-202.65" font-family="Menlo" font-size="10.00">fi [&quot;&quot;]</text>
<text text-anchor="start" x="109" y="-189.9" font-family="Menlo" font-size="10.00">fo [&quot;$&quot;]</text>
<text text-anchor="start" x="118" y="-177.15" font-family="Menlo" font-size="10.00">am []</text>
</g>
<!-- SR3C1&#45;&gt;SR4C1 -->
<g id="edge1" class="edge">
<title>SR3C1&#45;&gt;SR4C1</title>
<path fill="none" stroke="gray" d="M133,-248.06C133,-247.19 133,-246.31 133,-245.43"/>
<polygon fill="gray" stroke="gray" points="134.05,-245.54 133,-242.54 131.95,-245.54 134.05,-245.54"/>
</g>
<!-- SR5C1 -->
<!-- SR4C1&#45;&gt;SR5C1 -->
<!-- SR3C2 -->
<g id="node8" class="node">
<title>SR3C2</title>
<polygon fill="none" stroke="gray" points="276.88,-318.04 181.12,-318.04 181.12,-248.53 276.88,-248.53 276.88,-318.04"/>
<text text-anchor="start" x="226" y="-305.66" font-family="Menlo" font-size="10.00">I</text>
<text text-anchor="start" x="220" y="-292.91" font-family="Menlo" font-size="10.00">DO </text>
<text text-anchor="start" x="199" y="-280.16" font-family="Menlo" font-size="10.00">fi [&quot;hup&quot;]</text>
<text text-anchor="start" x="184" y="-267.41" font-family="Menlo" font-size="10.00">fo [&quot;!&quot;, &quot;hup&quot;]</text>
<text text-anchor="start" x="214" y="-254.66" font-family="Menlo" font-size="10.00">am []</text>
</g>
<!-- SR2C2&#45;&gt;SR3C2 -->
<g id="edge8" class="edge">
<title>SR2C2&#45;&gt;SR3C2</title>
<path fill="none" stroke="gray" d="M229,-325.57C229,-324.7 229,-323.82 229,-322.94"/>
<polygon fill="gray" stroke="gray" points="230.05,-323.05 229,-320.05 227.95,-323.05 230.05,-323.05"/>
</g>
<!-- SR2C3 -->
<!-- SR2C2&#45;&gt;SR2C3 -->
<!-- SR4C2 -->
<g id="node9" class="node">
<title>SR4C2</title>
<polygon fill="none" stroke="gray" points="276.88,-240.53 181.12,-240.53 181.12,-171.02 276.88,-171.02 276.88,-240.53"/>
<text text-anchor="start" x="226" y="-228.15" font-family="Menlo" font-size="10.00">K</text>
<text text-anchor="start" x="217" y="-215.4" font-family="Menlo" font-size="10.00">END </text>
<text text-anchor="start" x="208" y="-202.65" font-family="Menlo" font-size="10.00">fi [&quot;&quot;]</text>
<text text-anchor="start" x="184" y="-189.9" font-family="Menlo" font-size="10.00">fo [&quot;!&quot;, &quot;hup&quot;]</text>
<text text-anchor="start" x="214" y="-177.15" font-family="Menlo" font-size="10.00">am []</text>
</g>
<!-- SR3C2&#45;&gt;SR4C2 -->
<g id="edge3" class="edge">
<title>SR3C2&#45;&gt;SR4C2</title>
<path fill="none" stroke="gray" d="M229,-248.06C229,-247.19 229,-246.31 229,-245.43"/>
<polygon fill="gray" stroke="gray" points="230.05,-245.54 229,-242.54 227.95,-245.54 230.05,-245.54"/>
</g>
<!-- SR3C3 -->
<g id="node10" class="node">
<title>SR3C3</title>
<polygon fill="none" stroke="gray" points="390.88,-318.04 295.12,-318.04 295.12,-248.53 390.88,-248.53 390.88,-318.04"/>
<text text-anchor="start" x="340" y="-305.66" font-family="Menlo" font-size="10.00">E</text>
<text text-anchor="start" x="331" y="-292.91" font-family="Menlo" font-size="10.00">ALT </text>
<text text-anchor="start" x="313" y="-280.16" font-family="Menlo" font-size="10.00">fi [&quot;hup&quot;]</text>
<text text-anchor="start" x="298" y="-267.41" font-family="Menlo" font-size="10.00">fo [&quot;!&quot;, &quot;hup&quot;]</text>
<text text-anchor="start" x="328" y="-254.66" font-family="Menlo" font-size="10.00">am []</text>
</g>
<!-- SR3C2&#45;&gt;SR3C3 -->
<g id="edge7" class="edge">
<title>SR3C2&#45;&gt;SR3C3</title>
<path fill="none" stroke="gray" d="M277.09,-283.29C281.53,-283.29 285.98,-283.29 290.42,-283.29"/>
<polygon fill="gray" stroke="gray" points="290.34,-284.34 293.34,-283.29 290.34,-282.24 290.34,-284.34"/>
</g>
<!-- SR5C2 -->
<!-- SR4C2&#45;&gt;SR5C2 -->
<!-- SR4C3 -->
<g id="node11" class="node">
<title>SR4C3</title>
<polygon fill="none" stroke="gray" points="378.88,-240.53 307.12,-240.53 307.12,-171.02 378.88,-171.02 378.88,-240.53"/>
<text text-anchor="start" x="340" y="-228.15" font-family="Menlo" font-size="10.00">F</text>
<text text-anchor="start" x="322" y="-215.4" font-family="Menlo" font-size="10.00">T &quot;hup&quot;</text>
<text text-anchor="start" x="313" y="-202.65" font-family="Menlo" font-size="10.00">fi [&quot;hup&quot;]</text>
<text text-anchor="start" x="310" y="-189.9" font-family="Menlo" font-size="10.00">fo [&quot;lala&quot;]</text>
<text text-anchor="start" x="328" y="-177.15" font-family="Menlo" font-size="10.00">am []</text>
</g>
<!-- SR3C3&#45;&gt;SR4C3 -->
<g id="edge6" class="edge">
<title>SR3C3&#45;&gt;SR4C3</title>
<path fill="none" stroke="gray" d="M343,-248.06C343,-247.19 343,-246.31 343,-245.43"/>
<polygon fill="gray" stroke="gray" points="344.05,-245.54 343,-242.54 341.95,-245.54 344.05,-245.54"/>
</g>
<!-- SR5C3 -->
<g id="node12" class="node">
<title>SR5C3</title>
<polygon fill="none" stroke="gray" points="390.88,-163.02 295.12,-163.02 295.12,-93.51 390.88,-93.51 390.88,-163.02"/>
<text text-anchor="start" x="340" y="-150.64" font-family="Menlo" font-size="10.00">G</text>
<text text-anchor="start" x="319" y="-137.89" font-family="Menlo" font-size="10.00">T &quot;lala&quot;</text>
<text text-anchor="start" x="310" y="-125.14" font-family="Menlo" font-size="10.00">fi [&quot;lala&quot;]</text>
<text text-anchor="start" x="298" y="-112.39" font-family="Menlo" font-size="10.00">fo [&quot;!&quot;, &quot;hup&quot;]</text>
<text text-anchor="start" x="328" y="-99.64" font-family="Menlo" font-size="10.00">am []</text>
</g>
<!-- SR4C3&#45;&gt;SR5C3 -->
<g id="edge5" class="edge">
<title>SR4C3&#45;&gt;SR5C3</title>
<path fill="none" stroke="gray" d="M343,-170.55C343,-169.68 343,-168.8 343,-167.92"/>
<polygon fill="gray" stroke="gray" points="344.05,-168.03 343,-165.03 341.95,-168.03 344.05,-168.03"/>
</g>
<!-- SR6C3 -->
<g id="node13" class="node">
<title>SR6C3</title>
<polygon fill="none" stroke="gray" points="390.88,-85.51 295.12,-85.51 295.12,-16 390.88,-16 390.88,-85.51"/>
<text text-anchor="start" x="340" y="-73.13" font-family="Menlo" font-size="10.00">H</text>
<text text-anchor="start" x="331" y="-60.38" font-family="Menlo" font-size="10.00">END </text>
<text text-anchor="start" x="322" y="-47.63" font-family="Menlo" font-size="10.00">fi [&quot;&quot;]</text>
<text text-anchor="start" x="298" y="-34.88" font-family="Menlo" font-size="10.00">fo [&quot;!&quot;, &quot;hup&quot;]</text>
<text text-anchor="start" x="328" y="-22.13" font-family="Menlo" font-size="10.00">am []</text>
</g>
<!-- SR5C3&#45;&gt;SR6C3 -->
<g id="edge4" class="edge">
<title>SR5C3&#45;&gt;SR6C3</title>
<path fill="none" stroke="gray" d="M343,-93.04C343,-92.17 343,-91.29 343,-90.41"/>
<polygon fill="gray" stroke="gray" points="344.05,-90.52 343,-87.52 341.95,-90.52 344.05,-90.52"/>
</g>
<!-- SR0C3 -->
<!-- SR0C2&#45;&gt;SR0C3 -->
<!-- SR0C2&#45;&gt;SR1C2 -->
<!-- SR1C3 -->
<!-- SR0C3&#45;&gt;SR1C3 -->
<!-- SR1C0&#45;&gt;SR1C1 -->
<!-- SR2C0 -->
<!-- SR1C0&#45;&gt;SR2C0 -->
<!-- SR1C2&#45;&gt;SR2C2 -->
<!-- SR1C2&#45;&gt;SR1C3 -->
<!-- SR1C3&#45;&gt;SR2C3 -->
<!-- SR2C0&#45;&gt;SR2C1 -->
<!-- SR3C0 -->
<!-- SR2C0&#45;&gt;SR3C0 -->
<!-- SR2C3&#45;&gt;SR3C3 -->
<!-- SR3C0&#45;&gt;SR3C1 -->
<!-- SR4C0 -->
<!-- SR3C0&#45;&gt;SR4C0 -->
<!-- SR4C0&#45;&gt;SR4C1 -->
<!-- SR5C0 -->
<!-- SR4C0&#45;&gt;SR5C0 -->
<!-- SR5C0&#45;&gt;SR5C1 -->
<!-- SR6C0 -->
<!-- SR5C0&#45;&gt;SR6C0 -->
<!-- SR5C1&#45;&gt;SR5C2 -->
<!-- SR6C1 -->
<!-- SR5C1&#45;&gt;SR6C1 -->
<!-- SR5C2&#45;&gt;SR5C3 -->
<!-- SR6C2 -->
<!-- SR5C2&#45;&gt;SR6C2 -->
<!-- SR6C0&#45;&gt;SR6C1 -->
<!-- SR6C1&#45;&gt;SR6C2 -->
<!-- SR6C2&#45;&gt;SR6C3 -->
</g>
</svg>
