<?xml version="1.0" encoding="UTF-8" standalone="no"?>
<!DOCTYPE svg PUBLIC "-//W3C//DTD SVG 1.1//EN"
 "http://www.w3.org/Graphics/SVG/1.1/DTD/svg11.dtd">
<!-- Generated by graphviz version 9.0.0 (20230911.1827)
 -->
<!-- Title: G Pages: 1 -->
<svg width="673pt" height="440pt"
 viewBox="0.00 0.00 673.00 440.30" xmlns="http://www.w3.org/2000/svg" xmlns:xlink="http://www.w3.org/1999/xlink">
<g id="graph0" class="graph" transform="scale(1 1) rotate(0) translate(4 436.3)">
<title>G</title>
<polygon fill="white" stroke="none" points="-4,4 -4,-436.3 669,-436.3 669,4 -4,4"/>
<g id="clust1" class="cluster">
<title>GSS</title>
<polygon fill="none" stroke="black" points="8,-340.92 8,-401.43 66,-401.43 66,-340.92 8,-340.92"/>
<text text-anchor="start" x="16" y="-387.93" font-family="Menlo" font-size="10.00" fill="green">↵aaaaa↵</text>
</g>
<g id="clust2" class="cluster">
<title>clusterS</title>
<polygon fill="none" stroke="black" points="74,-8 74,-424.3 657,-424.3 657,-8 74,-8"/>
<text text-anchor="start" x="82" y="-410.8" font-family="Menlo" font-size="10.00">S = { &quot;a&quot; } { &quot;a&quot; } .</text>
</g>
<!-- 0.0 -->
<g id="node1" class="node">
<title>0.0</title>
<path fill="none" stroke="gray" d="M40.96,-372.68C40.96,-372.68 33.04,-372.68 33.04,-372.68 29.08,-372.68 25.12,-368.72 25.12,-364.75 25.12,-364.75 25.12,-356.84 25.12,-356.84 25.12,-352.88 29.08,-348.92 33.04,-348.92 33.04,-348.92 40.96,-348.92 40.96,-348.92 44.92,-348.92 48.88,-352.88 48.88,-356.84 48.88,-356.84 48.88,-364.75 48.88,-364.75 48.88,-368.72 44.92,-372.68 40.96,-372.68"/>
<text text-anchor="start" x="28" y="-361.3" font-family="Menlo" font-size="10.00">S,0</text>
<text text-anchor="start" x="32.5" y="-353.19" font-family="Menlo" font-size="8.00" fill="gray"> 5</text>
</g>
<!-- SR0C0 -->
<g id="node2" class="node">
<title>SR0C0</title>
<polygon fill="none" stroke="gray" points="159.88,-395.55 82.12,-395.55 82.12,-326.04 159.88,-326.04 159.88,-395.55"/>
<text text-anchor="start" x="118" y="-383.17" font-family="Menlo" font-size="10.00">0</text>
<text text-anchor="start" x="112" y="-370.42" font-family="Menlo" font-size="10.00">N S</text>
<text text-anchor="start" x="85" y="-357.67" font-family="Menlo" font-size="10.00">fi [&quot;&quot;, &quot;a&quot;]</text>
<text text-anchor="start" x="97" y="-344.92" font-family="Menlo" font-size="10.00">fo [&quot;$&quot;]</text>
<text text-anchor="start" x="100" y="-332.17" font-family="Menlo" font-size="10.00">[0:0:5]</text>
</g>
<!-- SR0C1 -->
<g id="node3" class="node">
<title>SR0C1</title>
<polygon fill="none" stroke="gray" points="261.88,-395.55 178.12,-395.55 178.12,-326.04 261.88,-326.04 261.88,-395.55"/>
<text text-anchor="start" x="217" y="-383.17" font-family="Menlo" font-size="10.00">1</text>
<text text-anchor="start" x="208" y="-370.42" font-family="Menlo" font-size="10.00">ALT </text>
<text text-anchor="start" x="184" y="-357.67" font-family="Menlo" font-size="10.00">fi [&quot;&quot;, &quot;a&quot;]</text>
<text text-anchor="start" x="181" y="-344.92" font-family="Menlo" font-size="10.00">fo [&quot;$&quot;, &quot;a&quot;]</text>
<text text-anchor="start" x="214" y="-332.17" font-family="Menlo" font-size="10.00">[]</text>
</g>
<!-- SR0C0&#45;&gt;SR0C1 -->
<g id="edge10" class="edge">
<title>SR0C0&#45;&gt;SR0C1</title>
<path fill="none" stroke="gray" d="M160.06,-360.8C164.51,-360.8 168.96,-360.8 173.4,-360.8"/>
<polygon fill="gray" stroke="gray" points="173.34,-361.85 176.34,-360.8 173.34,-359.75 173.34,-361.85"/>
</g>
<!-- SR1C0 -->
<!-- SR0C0&#45;&gt;SR1C0 -->
<!-- SR1C1 -->
<g id="node4" class="node">
<title>SR1C1</title>
<polygon fill="none" stroke="gray" points="261.88,-318.04 178.12,-318.04 178.12,-248.53 261.88,-248.53 261.88,-318.04"/>
<text text-anchor="start" x="217" y="-305.66" font-family="Menlo" font-size="10.00">2</text>
<text text-anchor="start" x="208" y="-292.91" font-family="Menlo" font-size="10.00">KLN </text>
<text text-anchor="start" x="184" y="-280.16" font-family="Menlo" font-size="10.00">fi [&quot;&quot;, &quot;a&quot;]</text>
<text text-anchor="start" x="181" y="-267.41" font-family="Menlo" font-size="10.00">fo [&quot;$&quot;, &quot;a&quot;]</text>
<text text-anchor="start" x="214" y="-254.66" font-family="Menlo" font-size="10.00">[]</text>
</g>
<!-- SR0C1&#45;&gt;SR1C1 -->
<g id="edge9" class="edge">
<title>SR0C1&#45;&gt;SR1C1</title>
<path fill="none" stroke="gray" d="M220,-325.57C220,-324.7 220,-323.82 220,-322.94"/>
<polygon fill="gray" stroke="gray" points="221.05,-323.05 220,-320.05 218.95,-323.05 221.05,-323.05"/>
</g>
<!-- SR0C2 -->
<!-- SR0C1&#45;&gt;SR0C2 -->
<!-- SR2C1 -->
<g id="node5" class="node">
<title>SR2C1</title>
<polygon fill="none" stroke="gray" points="258.88,-240.53 181.12,-240.53 181.12,-171.02 258.88,-171.02 258.88,-240.53"/>
<text text-anchor="start" x="217" y="-228.15" font-family="Menlo" font-size="10.00">6</text>
<text text-anchor="start" x="208" y="-215.4" font-family="Menlo" font-size="10.00">KLN </text>
<text text-anchor="start" x="184" y="-202.65" font-family="Menlo" font-size="10.00">fi [&quot;&quot;, &quot;a&quot;]</text>
<text text-anchor="start" x="196" y="-189.9" font-family="Menlo" font-size="10.00">fo [&quot;$&quot;]</text>
<text text-anchor="start" x="214" y="-177.15" font-family="Menlo" font-size="10.00">[]</text>
</g>
<!-- SR1C1&#45;&gt;SR2C1 -->
<g id="edge5" class="edge">
<title>SR1C1&#45;&gt;SR2C1</title>
<path fill="none" stroke="gray" d="M220,-248.06C220,-247.19 220,-246.31 220,-245.43"/>
<polygon fill="gray" stroke="gray" points="221.05,-245.54 220,-242.54 218.95,-245.54 221.05,-245.54"/>
</g>
<!-- SR1C3 -->
<g id="node10" class="node">
<title>SR1C3</title>
<polygon fill="none" stroke="gray" points="582.88,-318.04 499.12,-318.04 499.12,-248.53 582.88,-248.53 582.88,-318.04"/>
<text text-anchor="start" x="538" y="-305.66" font-family="Menlo" font-size="10.00">3</text>
<text text-anchor="start" x="529" y="-292.91" font-family="Menlo" font-size="10.00">ALT </text>
<text text-anchor="start" x="517" y="-280.16" font-family="Menlo" font-size="10.00">fi [&quot;a&quot;]</text>
<text text-anchor="start" x="502" y="-267.41" font-family="Menlo" font-size="10.00">fo [&quot;$&quot;, &quot;a&quot;]</text>
<text text-anchor="start" x="535" y="-254.66" font-family="Menlo" font-size="10.00">[]</text>
</g>
<!-- SR1C1&#45;&gt;SR1C3 -->
<g id="edge8" class="edge">
<title>SR1C1&#45;&gt;SR1C3</title>
<path fill="none" stroke="gray" d="M262.32,-283.29C339.77,-283.29 417.21,-283.29 494.66,-283.29"/>
<polygon fill="gray" stroke="gray" points="494.3,-284.34 497.3,-283.29 494.3,-282.24 494.3,-284.34"/>
</g>
<!-- SR3C1 -->
<g id="node6" class="node">
<title>SR3C1</title>
<polygon fill="none" stroke="gray" points="246.88,-163.02 193.12,-163.02 193.12,-93.51 246.88,-93.51 246.88,-163.02"/>
<text text-anchor="start" x="214" y="-150.64" font-family="Menlo" font-size="10.00">10</text>
<text text-anchor="start" x="208" y="-137.89" font-family="Menlo" font-size="10.00">END </text>
<text text-anchor="start" x="199" y="-125.14" font-family="Menlo" font-size="10.00">fi [&quot;&quot;]</text>
<text text-anchor="start" x="196" y="-112.39" font-family="Menlo" font-size="10.00">fo [&quot;$&quot;]</text>
<text text-anchor="start" x="214" y="-99.64" font-family="Menlo" font-size="10.00">[]</text>
</g>
<!-- SR2C1&#45;&gt;SR3C1 -->
<g id="edge1" class="edge">
<title>SR2C1&#45;&gt;SR3C1</title>
<path fill="none" stroke="gray" d="M220,-170.55C220,-169.68 220,-168.8 220,-167.92"/>
<polygon fill="gray" stroke="gray" points="221.05,-168.03 220,-165.03 218.95,-168.03 221.05,-168.03"/>
</g>
<!-- SR2C2 -->
<g id="node7" class="node">
<title>SR2C2</title>
<polygon fill="none" stroke="gray" points="414.88,-240.53 331.12,-240.53 331.12,-171.02 414.88,-171.02 414.88,-240.53"/>
<text text-anchor="start" x="370" y="-228.15" font-family="Menlo" font-size="10.00">7</text>
<text text-anchor="start" x="361" y="-215.4" font-family="Menlo" font-size="10.00">ALT </text>
<text text-anchor="start" x="349" y="-202.65" font-family="Menlo" font-size="10.00">fi [&quot;a&quot;]</text>
<text text-anchor="start" x="334" y="-189.9" font-family="Menlo" font-size="10.00">fo [&quot;$&quot;, &quot;a&quot;]</text>
<text text-anchor="start" x="367" y="-177.15" font-family="Menlo" font-size="10.00">[]</text>
</g>
<!-- SR2C1&#45;&gt;SR2C2 -->
<g id="edge4" class="edge">
<title>SR2C1&#45;&gt;SR2C2</title>
<path fill="none" stroke="gray" d="M259.15,-205.78C281.52,-205.78 303.9,-205.78 326.27,-205.78"/>
<polygon fill="gray" stroke="gray" points="326.24,-206.83 329.24,-205.78 326.24,-204.73 326.24,-206.83"/>
</g>
<!-- SR4C1 -->
<!-- SR3C1&#45;&gt;SR4C1 -->
<!-- SR3C2 -->
<g id="node8" class="node">
<title>SR3C2</title>
<polygon fill="none" stroke="gray" points="480.88,-163.02 265.12,-163.02 265.12,-93.51 480.88,-93.51 480.88,-163.02"/>
<text text-anchor="start" x="370" y="-150.64" font-family="Menlo" font-size="10.00">8</text>
<text text-anchor="start" x="358" y="-137.89" font-family="Menlo" font-size="10.00">T &quot;a&quot;</text>
<text text-anchor="start" x="349" y="-125.14" font-family="Menlo" font-size="10.00">fi [&quot;a&quot;]</text>
<text text-anchor="start" x="334" y="-112.39" font-family="Menlo" font-size="10.00">fo [&quot;$&quot;, &quot;a&quot;]</text>
<text text-anchor="start" x="268" y="-99.64" font-family="Menlo" font-size="10.00">[0:0:1, 0:1:2, 0:2:3, 0:3:4, 0:4:5]</text>
</g>
<!-- SR2C2&#45;&gt;SR3C2 -->
<g id="edge3" class="edge">
<title>SR2C2&#45;&gt;SR3C2</title>
<path fill="none" stroke="gray" d="M373,-170.55C373,-169.68 373,-168.8 373,-167.92"/>
<polygon fill="gray" stroke="gray" points="374.05,-168.03 373,-165.03 371.95,-168.03 374.05,-168.03"/>
</g>
<!-- SR4C2 -->
<g id="node9" class="node">
<title>SR4C2</title>
<polygon fill="none" stroke="gray" points="414.88,-85.51 331.12,-85.51 331.12,-16 414.88,-16 414.88,-85.51"/>
<text text-anchor="start" x="370" y="-73.13" font-family="Menlo" font-size="10.00">9</text>
<text text-anchor="start" x="361" y="-60.38" font-family="Menlo" font-size="10.00">END </text>
<text text-anchor="start" x="352" y="-47.63" font-family="Menlo" font-size="10.00">fi [&quot;&quot;]</text>
<text text-anchor="start" x="334" y="-34.88" font-family="Menlo" font-size="10.00">fo [&quot;$&quot;, &quot;a&quot;]</text>
<text text-anchor="start" x="367" y="-22.13" font-family="Menlo" font-size="10.00">[]</text>
</g>
<!-- SR3C2&#45;&gt;SR4C2 -->
<g id="edge2" class="edge">
<title>SR3C2&#45;&gt;SR4C2</title>
<path fill="none" stroke="gray" d="M373,-93.04C373,-92.17 373,-91.29 373,-90.41"/>
<polygon fill="gray" stroke="gray" points="374.05,-90.52 373,-87.52 371.95,-90.52 374.05,-90.52"/>
</g>
<!-- SR4C3 -->
<!-- SR4C2&#45;&gt;SR4C3 -->
<!-- SR2C3 -->
<g id="node11" class="node">
<title>SR2C3</title>
<polygon fill="none" stroke="gray" points="648.88,-240.53 433.12,-240.53 433.12,-171.02 648.88,-171.02 648.88,-240.53"/>
<text text-anchor="start" x="538" y="-228.15" font-family="Menlo" font-size="10.00">4</text>
<text text-anchor="start" x="526" y="-215.4" font-family="Menlo" font-size="10.00">T &quot;a&quot;</text>
<text text-anchor="start" x="517" y="-202.65" font-family="Menlo" font-size="10.00">fi [&quot;a&quot;]</text>
<text text-anchor="start" x="502" y="-189.9" font-family="Menlo" font-size="10.00">fo [&quot;$&quot;, &quot;a&quot;]</text>
<text text-anchor="start" x="436" y="-177.15" font-family="Menlo" font-size="10.00">[0:0:1, 0:1:2, 0:2:3, 0:3:4, 0:4:5]</text>
</g>
<!-- SR1C3&#45;&gt;SR2C3 -->
<g id="edge7" class="edge">
<title>SR1C3&#45;&gt;SR2C3</title>
<path fill="none" stroke="gray" d="M541,-248.06C541,-247.19 541,-246.31 541,-245.43"/>
<polygon fill="gray" stroke="gray" points="542.05,-245.54 541,-242.54 539.95,-245.54 542.05,-245.54"/>
</g>
<!-- SR3C3 -->
<g id="node12" class="node">
<title>SR3C3</title>
<polygon fill="none" stroke="gray" points="582.88,-163.02 499.12,-163.02 499.12,-93.51 582.88,-93.51 582.88,-163.02"/>
<text text-anchor="start" x="538" y="-150.64" font-family="Menlo" font-size="10.00">5</text>
<text text-anchor="start" x="529" y="-137.89" font-family="Menlo" font-size="10.00">END </text>
<text text-anchor="start" x="520" y="-125.14" font-family="Menlo" font-size="10.00">fi [&quot;&quot;]</text>
<text text-anchor="start" x="502" y="-112.39" font-family="Menlo" font-size="10.00">fo [&quot;$&quot;, &quot;a&quot;]</text>
<text text-anchor="start" x="535" y="-99.64" font-family="Menlo" font-size="10.00">[]</text>
</g>
<!-- SR2C3&#45;&gt;SR3C3 -->
<g id="edge6" class="edge">
<title>SR2C3&#45;&gt;SR3C3</title>
<path fill="none" stroke="gray" d="M541,-170.55C541,-169.68 541,-168.8 541,-167.92"/>
<polygon fill="gray" stroke="gray" points="542.05,-168.03 541,-165.03 539.95,-168.03 542.05,-168.03"/>
</g>
<!-- SR3C3&#45;&gt;SR4C3 -->
<!-- SR0C3 -->
<!-- SR0C2&#45;&gt;SR0C3 -->
<!-- SR0C3&#45;&gt;SR1C3 -->
<!-- SR1C0&#45;&gt;SR1C1 -->
<!-- SR2C0 -->
<!-- SR1C0&#45;&gt;SR2C0 -->
<!-- SR2C0&#45;&gt;SR2C1 -->
<!-- SR3C0 -->
<!-- SR2C0&#45;&gt;SR3C0 -->
<!-- SR3C0&#45;&gt;SR3C1 -->
<!-- SR4C0 -->
<!-- SR3C0&#45;&gt;SR4C0 -->
<!-- SR4C0&#45;&gt;SR4C1 -->
<!-- SR4C1&#45;&gt;SR4C2 -->
</g>
</svg>
