<?xml version="1.0" encoding="UTF-8" standalone="no"?>
<!DOCTYPE svg PUBLIC "-//W3C//DTD SVG 1.1//EN"
 "http://www.w3.org/Graphics/SVG/1.1/DTD/svg11.dtd">
<!-- Generated by graphviz version 9.0.0 (20230911.1827)
 -->
<!-- Title: G Pages: 1 -->
<svg width="193pt" height="464pt"
 viewBox="0.00 0.00 193.04 464.30" xmlns="http://www.w3.org/2000/svg" xmlns:xlink="http://www.w3.org/1999/xlink">
<g id="graph0" class="graph" transform="scale(1 1) rotate(0) translate(4 460.3)">
<title>G</title>
<polygon fill="white" stroke="none" points="-4,4 -4,-460.3 189.04,-460.3 189.04,4 -4,4"/>
<g id="clust1" class="cluster">
<title>clusterS</title>
<polygon fill="none" stroke="black" points="8,-8 8,-448.3 150,-448.3 150,-8 8,-8"/>
<text text-anchor="start" x="16" y="-434.8" font-family="Menlo" font-size="10.00">S = &quot;&quot; &quot;&quot; &quot;a&quot; .</text>
</g>
<!-- 7 -->
<g id="node1" class="node">
<title>7</title>
<polygon fill="none" stroke="gray" points="69.88,-419.55 16.12,-419.55 16.12,-350.04 69.88,-350.04 69.88,-419.55"/>
<text text-anchor="start" x="40" y="-407.17" font-family="Menlo" font-size="10.00">7</text>
<text text-anchor="start" x="34" y="-394.42" font-family="Menlo" font-size="10.00">N S</text>
<text text-anchor="start" x="19" y="-381.67" font-family="Menlo" font-size="10.00">fi [&quot;a&quot;]</text>
<text text-anchor="start" x="22" y="-368.92" font-family="Menlo" font-size="10.00">fo [&quot;&quot;]</text>
<text text-anchor="start" x="28" y="-356.17" font-family="Menlo" font-size="10.00">am []</text>
</g>
<!-- 2 -->
<g id="node2" class="node">
<title>2</title>
<polygon fill="none" stroke="gray" points="141.88,-419.55 88.12,-419.55 88.12,-350.04 141.88,-350.04 141.88,-419.55"/>
<text text-anchor="start" x="112" y="-407.17" font-family="Menlo" font-size="10.00">2</text>
<text text-anchor="start" x="103" y="-394.42" font-family="Menlo" font-size="10.00">ALT </text>
<text text-anchor="start" x="91" y="-381.67" font-family="Menlo" font-size="10.00">fi [&quot;a&quot;]</text>
<text text-anchor="start" x="94" y="-368.92" font-family="Menlo" font-size="10.00">fo [&quot;&quot;]</text>
<text text-anchor="start" x="100" y="-356.17" font-family="Menlo" font-size="10.00">am []</text>
</g>
<!-- 7&#45;&gt;2 -->
<g id="edge1" class="edge">
<title>7&#45;&gt;2</title>
<path fill="none" stroke="gray" d="M70.28,-384.8C74.65,-384.8 79.02,-384.8 83.38,-384.8"/>
<polygon fill="gray" stroke="gray" points="83.24,-385.85 86.24,-384.8 83.24,-383.75 83.24,-385.85"/>
</g>
<!-- 3 -->
<g id="node3" class="node">
<title>3</title>
<polygon fill="none" stroke="gray" points="121.88,-336.04 68.12,-336.04 68.12,-266.53 121.88,-266.53 121.88,-336.04"/>
<text text-anchor="start" x="92" y="-323.66" font-family="Menlo" font-size="10.00">3</text>
<text text-anchor="start" x="83" y="-310.91" font-family="Menlo" font-size="10.00">T &quot;&quot;</text>
<text text-anchor="start" x="74" y="-298.16" font-family="Menlo" font-size="10.00">fi [&quot;&quot;]</text>
<text text-anchor="start" x="71" y="-285.41" font-family="Menlo" font-size="10.00">fo [&quot;a&quot;]</text>
<text text-anchor="start" x="80" y="-272.66" font-family="Menlo" font-size="10.00">am []</text>
</g>
<!-- 2&#45;&gt;3 -->
<g id="edge2" class="edge">
<title>2&#45;&gt;3</title>
<path fill="none" stroke="gray" d="M106.63,-349.7C105.9,-346.7 105.15,-343.65 104.41,-340.62"/>
<polygon fill="gray" stroke="gray" points="105.49,-340.64 103.76,-337.98 103.45,-341.14 105.49,-340.64"/>
</g>
<!-- 4 -->
<g id="node4" class="node">
<title>4</title>
<polygon fill="none" stroke="gray" points="121.88,-252.53 68.12,-252.53 68.12,-183.02 121.88,-183.02 121.88,-252.53"/>
<text text-anchor="start" x="92" y="-240.15" font-family="Menlo" font-size="10.00">4</text>
<text text-anchor="start" x="83" y="-227.4" font-family="Menlo" font-size="10.00">T &quot;&quot;</text>
<text text-anchor="start" x="74" y="-214.65" font-family="Menlo" font-size="10.00">fi [&quot;&quot;]</text>
<text text-anchor="start" x="71" y="-201.9" font-family="Menlo" font-size="10.00">fo [&quot;a&quot;]</text>
<text text-anchor="start" x="80" y="-189.15" font-family="Menlo" font-size="10.00">am []</text>
</g>
<!-- 3&#45;&gt;4 -->
<g id="edge3" class="edge">
<title>3&#45;&gt;4</title>
<path fill="none" stroke="gray" d="M95,-266.19C95,-263.19 95,-260.14 95,-257.11"/>
<polygon fill="gray" stroke="gray" points="96.05,-257.51 95,-254.51 93.95,-257.51 96.05,-257.51"/>
</g>
<!-- 5 -->
<g id="node5" class="node">
<title>5</title>
<polygon fill="none" stroke="gray" points="121.88,-169.02 68.12,-169.02 68.12,-99.51 121.88,-99.51 121.88,-169.02"/>
<text text-anchor="start" x="92" y="-156.64" font-family="Menlo" font-size="10.00">5</text>
<text text-anchor="start" x="80" y="-143.89" font-family="Menlo" font-size="10.00">T &quot;a&quot;</text>
<text text-anchor="start" x="71" y="-131.14" font-family="Menlo" font-size="10.00">fi [&quot;a&quot;]</text>
<text text-anchor="start" x="74" y="-118.39" font-family="Menlo" font-size="10.00">fo [&quot;&quot;]</text>
<text text-anchor="start" x="80" y="-105.64" font-family="Menlo" font-size="10.00">am []</text>
</g>
<!-- 4&#45;&gt;5 -->
<g id="edge4" class="edge">
<title>4&#45;&gt;5</title>
<path fill="none" stroke="gray" d="M95,-182.68C95,-179.68 95,-176.63 95,-173.6"/>
<polygon fill="gray" stroke="gray" points="96.05,-174 95,-171 93.95,-174 96.05,-174"/>
</g>
<!-- 6 -->
<g id="node6" class="node">
<title>6</title>
<polygon fill="none" stroke="gray" points="118.88,-85.51 71.12,-85.51 71.12,-16 118.88,-16 118.88,-85.51"/>
<text text-anchor="start" x="92" y="-73.13" font-family="Menlo" font-size="10.00">6</text>
<text text-anchor="start" x="83" y="-60.38" font-family="Menlo" font-size="10.00">END </text>
<text text-anchor="start" x="74" y="-47.63" font-family="Menlo" font-size="10.00">fi [&quot;&quot;]</text>
<text text-anchor="start" x="74" y="-34.88" font-family="Menlo" font-size="10.00">fo [&quot;&quot;]</text>
<text text-anchor="start" x="80" y="-22.13" font-family="Menlo" font-size="10.00">am []</text>
</g>
<!-- 5&#45;&gt;6 -->
<g id="edge5" class="edge">
<title>5&#45;&gt;6</title>
<path fill="none" stroke="gray" d="M95,-99.17C95,-96.17 95,-93.12 95,-90.09"/>
<polygon fill="gray" stroke="gray" points="96.05,-90.49 95,-87.49 93.95,-90.49 96.05,-90.49"/>
</g>
<!-- 6&#45;&gt;2 -->
<g id="edge6" class="edge">
<title>6:e&#45;&gt;2</title>
<path fill="none" stroke="gray" stroke-dasharray="1,5" d="M120,-50.75C236.83,-50.75 166.14,-258.2 131.14,-345.65"/>
<polygon fill="gray" stroke="gray" points="130.22,-345.14 130.07,-348.31 132.16,-345.92 130.22,-345.14"/>
</g>
</g>
</svg>
