<?xml version="1.0" encoding="UTF-8" standalone="no"?>
<!DOCTYPE svg PUBLIC "-//W3C//DTD SVG 1.1//EN"
 "http://www.w3.org/Graphics/SVG/1.1/DTD/svg11.dtd">
<!-- Generated by graphviz version 9.0.0 (20230911.1827)
 -->
<!-- Title: G Pages: 1 -->
<svg width="310pt" height="285pt"
 viewBox="0.00 0.00 310.00 285.28" xmlns="http://www.w3.org/2000/svg" xmlns:xlink="http://www.w3.org/1999/xlink">
<g id="graph0" class="graph" transform="scale(1 1) rotate(0) translate(4 281.28)">
<title>G</title>
<polygon fill="white" stroke="none" points="-4,4 -4,-281.28 306,-281.28 306,4 -4,4"/>
<g id="clust1" class="cluster">
<title>GSS</title>
<polygon fill="none" stroke="black" points="8,-185.9 8,-246.41 48,-246.41 48,-185.9 8,-185.9"/>
<text text-anchor="start" x="16" y="-232.91" font-family="Menlo" font-size="10.00" fill="red">↵a↵</text>
</g>
<g id="clust2" class="cluster">
<title>clusterS</title>
<polygon fill="none" stroke="black" points="56,-8 56,-269.28 294,-269.28 294,-8 56,-8"/>
<text text-anchor="start" x="64" y="-255.78" font-family="Menlo" font-size="10.00">S = &quot;#&quot; | &quot;a&quot; .</text>
</g>
<!-- 0.0 -->
<g id="node1" class="node">
<title>0.0</title>
<path fill="none" stroke="gray" d="M31.96,-217.66C31.96,-217.66 24.04,-217.66 24.04,-217.66 20.08,-217.66 16.12,-213.7 16.12,-209.74 16.12,-209.74 16.12,-201.82 16.12,-201.82 16.12,-197.86 20.08,-193.9 24.04,-193.9 24.04,-193.9 31.96,-193.9 31.96,-193.9 35.92,-193.9 39.88,-197.86 39.88,-201.82 39.88,-201.82 39.88,-209.74 39.88,-209.74 39.88,-213.7 35.92,-217.66 31.96,-217.66"/>
<text text-anchor="start" x="19" y="-206.28" font-family="Menlo" font-size="10.00">S,0</text>
<text text-anchor="start" x="23.5" y="-198.18" font-family="Menlo" font-size="8.00" fill="gray"> 1</text>
</g>
<!-- SR0C0 -->
<g id="node2" class="node">
<title>SR0C0</title>
<polygon fill="none" stroke="gray" points="141.88,-240.53 64.12,-240.53 64.12,-171.02 141.88,-171.02 141.88,-240.53"/>
<text text-anchor="start" x="100" y="-228.15" font-family="Menlo" font-size="10.00">0</text>
<text text-anchor="start" x="94" y="-215.4" font-family="Menlo" font-size="10.00">N S</text>
<text text-anchor="start" x="67" y="-202.65" font-family="Menlo" font-size="10.00">fi [&quot;&quot;, &quot;a&quot;]</text>
<text text-anchor="start" x="79" y="-189.9" font-family="Menlo" font-size="10.00">fo [&quot;$&quot;]</text>
<text text-anchor="start" x="97" y="-177.15" font-family="Menlo" font-size="10.00">[]</text>
</g>
<!-- SR0C1 -->
<g id="node3" class="node">
<title>SR0C1</title>
<polygon fill="none" stroke="gray" points="213.88,-240.53 160.12,-240.53 160.12,-171.02 213.88,-171.02 213.88,-240.53"/>
<text text-anchor="start" x="184" y="-228.15" font-family="Menlo" font-size="10.00">1</text>
<text text-anchor="start" x="175" y="-215.4" font-family="Menlo" font-size="10.00">ALT </text>
<text text-anchor="start" x="166" y="-202.65" font-family="Menlo" font-size="10.00">fi [&quot;&quot;]</text>
<text text-anchor="start" x="163" y="-189.9" font-family="Menlo" font-size="10.00">fo [&quot;$&quot;]</text>
<text text-anchor="start" x="181" y="-177.15" font-family="Menlo" font-size="10.00">[]</text>
</g>
<!-- SR0C0&#45;&gt;SR0C1 -->
<g id="edge6" class="edge">
<title>SR0C0&#45;&gt;SR0C1</title>
<path fill="none" stroke="gray" d="M142.38,-205.78C146.73,-205.78 151.09,-205.78 155.45,-205.78"/>
<polygon fill="gray" stroke="gray" points="155.29,-206.83 158.29,-205.78 155.29,-204.73 155.29,-206.83"/>
</g>
<!-- SR1C0 -->
<!-- SR0C0&#45;&gt;SR1C0 -->
<!-- SR1C1 -->
<g id="node4" class="node">
<title>SR1C1</title>
<polygon fill="none" stroke="gray" points="213.88,-163.02 160.12,-163.02 160.12,-93.51 213.88,-93.51 213.88,-163.02"/>
<text text-anchor="start" x="184" y="-150.64" font-family="Menlo" font-size="10.00">2</text>
<text text-anchor="start" x="172" y="-137.89" font-family="Menlo" font-size="10.00">EPS #</text>
<text text-anchor="start" x="166" y="-125.14" font-family="Menlo" font-size="10.00">fi [&quot;&quot;]</text>
<text text-anchor="start" x="163" y="-112.39" font-family="Menlo" font-size="10.00">fo [&quot;$&quot;]</text>
<text text-anchor="start" x="181" y="-99.64" font-family="Menlo" font-size="10.00">[]</text>
</g>
<!-- SR0C1&#45;&gt;SR1C1 -->
<g id="edge2" class="edge">
<title>SR0C1&#45;&gt;SR1C1</title>
<path fill="none" stroke="gray" d="M187,-170.55C187,-169.68 187,-168.8 187,-167.92"/>
<polygon fill="gray" stroke="gray" points="188.05,-168.03 187,-165.03 185.95,-168.03 188.05,-168.03"/>
</g>
<!-- SR0C2 -->
<g id="node6" class="node">
<title>SR0C2</title>
<polygon fill="none" stroke="gray" points="285.88,-240.53 232.12,-240.53 232.12,-171.02 285.88,-171.02 285.88,-240.53"/>
<text text-anchor="start" x="256" y="-228.15" font-family="Menlo" font-size="10.00">4</text>
<text text-anchor="start" x="247" y="-215.4" font-family="Menlo" font-size="10.00">ALT </text>
<text text-anchor="start" x="235" y="-202.65" font-family="Menlo" font-size="10.00">fi [&quot;a&quot;]</text>
<text text-anchor="start" x="235" y="-189.9" font-family="Menlo" font-size="10.00">fo [&quot;$&quot;]</text>
<text text-anchor="start" x="253" y="-177.15" font-family="Menlo" font-size="10.00">[]</text>
</g>
<!-- SR0C1&#45;&gt;SR0C2 -->
<g id="edge5" class="edge">
<title>SR0C1&#45;&gt;SR0C2</title>
<path fill="none" stroke="gray" d="M214.28,-205.78C218.65,-205.78 223.02,-205.78 227.38,-205.78"/>
<polygon fill="gray" stroke="gray" points="227.24,-206.83 230.24,-205.78 227.24,-204.73 227.24,-206.83"/>
</g>
<!-- SR2C1 -->
<g id="node5" class="node">
<title>SR2C1</title>
<polygon fill="none" stroke="gray" points="213.88,-85.51 160.12,-85.51 160.12,-16 213.88,-16 213.88,-85.51"/>
<text text-anchor="start" x="184" y="-73.13" font-family="Menlo" font-size="10.00">3</text>
<text text-anchor="start" x="175" y="-60.38" font-family="Menlo" font-size="10.00">END </text>
<text text-anchor="start" x="166" y="-47.63" font-family="Menlo" font-size="10.00">fi [&quot;&quot;]</text>
<text text-anchor="start" x="163" y="-34.88" font-family="Menlo" font-size="10.00">fo [&quot;$&quot;]</text>
<text text-anchor="start" x="181" y="-22.13" font-family="Menlo" font-size="10.00">[]</text>
</g>
<!-- SR1C1&#45;&gt;SR2C1 -->
<g id="edge1" class="edge">
<title>SR1C1&#45;&gt;SR2C1</title>
<path fill="none" stroke="gray" d="M187,-93.04C187,-92.17 187,-91.29 187,-90.41"/>
<polygon fill="gray" stroke="gray" points="188.05,-90.52 187,-87.52 185.95,-90.52 188.05,-90.52"/>
</g>
<!-- SR1C2 -->
<g id="node7" class="node">
<title>SR1C2</title>
<polygon fill="none" stroke="gray" points="285.88,-163.02 232.12,-163.02 232.12,-93.51 285.88,-93.51 285.88,-163.02"/>
<text text-anchor="start" x="256" y="-150.64" font-family="Menlo" font-size="10.00">5</text>
<text text-anchor="start" x="244" y="-137.89" font-family="Menlo" font-size="10.00">T &quot;a&quot;</text>
<text text-anchor="start" x="235" y="-125.14" font-family="Menlo" font-size="10.00">fi [&quot;a&quot;]</text>
<text text-anchor="start" x="235" y="-112.39" font-family="Menlo" font-size="10.00">fo [&quot;$&quot;]</text>
<text text-anchor="start" x="238" y="-99.64" font-family="Menlo" font-size="10.00">[0:0:1]</text>
</g>
<!-- SR0C2&#45;&gt;SR1C2 -->
<g id="edge4" class="edge">
<title>SR0C2&#45;&gt;SR1C2</title>
<path fill="none" stroke="gray" d="M259,-170.55C259,-169.68 259,-168.8 259,-167.92"/>
<polygon fill="gray" stroke="gray" points="260.05,-168.03 259,-165.03 257.95,-168.03 260.05,-168.03"/>
</g>
<!-- SR2C2 -->
<g id="node8" class="node">
<title>SR2C2</title>
<polygon fill="none" stroke="gray" points="285.88,-85.51 232.12,-85.51 232.12,-16 285.88,-16 285.88,-85.51"/>
<text text-anchor="start" x="256" y="-73.13" font-family="Menlo" font-size="10.00">6</text>
<text text-anchor="start" x="247" y="-60.38" font-family="Menlo" font-size="10.00">END </text>
<text text-anchor="start" x="238" y="-47.63" font-family="Menlo" font-size="10.00">fi [&quot;&quot;]</text>
<text text-anchor="start" x="235" y="-34.88" font-family="Menlo" font-size="10.00">fo [&quot;$&quot;]</text>
<text text-anchor="start" x="253" y="-22.13" font-family="Menlo" font-size="10.00">[]</text>
</g>
<!-- SR1C2&#45;&gt;SR2C2 -->
<g id="edge3" class="edge">
<title>SR1C2&#45;&gt;SR2C2</title>
<path fill="none" stroke="gray" d="M259,-93.04C259,-92.17 259,-91.29 259,-90.41"/>
<polygon fill="gray" stroke="gray" points="260.05,-90.52 259,-87.52 257.95,-90.52 260.05,-90.52"/>
</g>
<!-- SR1C0&#45;&gt;SR1C1 -->
<!-- SR2C0 -->
<!-- SR1C0&#45;&gt;SR2C0 -->
<!-- SR2C0&#45;&gt;SR2C1 -->
</g>
</svg>
