<?xml version="1.0" encoding="UTF-8" standalone="no"?>
<!DOCTYPE svg PUBLIC "-//W3C//DTD SVG 1.1//EN"
 "http://www.w3.org/Graphics/SVG/1.1/DTD/svg11.dtd">
<!-- Generated by graphviz version 9.0.0 (20230911.1827)
 -->
<!-- Title: G Pages: 1 -->
<svg width="792pt" height="320pt"
 viewBox="0.00 0.00 792.00 319.79" xmlns="http://www.w3.org/2000/svg" xmlns:xlink="http://www.w3.org/1999/xlink">
<g id="graph0" class="graph" transform="scale(1 1) rotate(0) translate(4 315.79)">
<title>G</title>
<polygon fill="white" stroke="none" points="-4,4 -4,-315.79 788,-315.79 788,4 -4,4"/>
<g id="clust1" class="cluster">
<title>GSS</title>
<polygon fill="none" stroke="black" points="8,-164.64 8,-287.29 72,-287.29 72,-164.64 8,-164.64"/>
<text text-anchor="start" x="16" y="-273.79" font-family="Menlo" font-size="10.00" fill="green">↵at↵</text>
</g>
<g id="clust2" class="cluster">
<title>clusterT</title>
<polygon fill="none" stroke="black" points="80,-80.76 80,-303.79 486,-303.79 486,-80.76 80,-80.76"/>
<text text-anchor="start" x="88" y="-290.29" font-family="Menlo" font-size="10.00">T = &quot;a&quot; | &quot;b&quot; | &quot;c&quot; .</text>
</g>
<g id="clust8" class="cluster">
<title>clusterS</title>
<polygon fill="none" stroke="black" points="494,-8 494,-303.79 776,-303.79 776,-8 494,-8"/>
<text text-anchor="start" x="502" y="-290.29" font-family="Menlo" font-size="10.00">S = T &quot;t&quot; .</text>
</g>
<!-- 13.0 -->
<g id="node1" class="node">
<title>13.0</title>
<path fill="none" stroke="gray" d="M55.96,-258.54C55.96,-258.54 24.04,-258.54 24.04,-258.54 20.08,-258.54 16.12,-254.58 16.12,-250.62 16.12,-250.62 16.12,-242.7 16.12,-242.7 16.12,-238.74 20.08,-234.78 24.04,-234.78 24.04,-234.78 55.96,-234.78 55.96,-234.78 59.92,-234.78 63.88,-238.74 63.88,-242.7 63.88,-242.7 63.88,-250.62 63.88,-250.62 63.88,-254.58 59.92,-258.54 55.96,-258.54"/>
<text text-anchor="start" x="19" y="-247.16" font-family="Menlo" font-size="10.00">S=T·t.0</text>
<text text-anchor="start" x="35.5" y="-239.06" font-family="Menlo" font-size="8.00" fill="gray"> 1</text>
</g>
<!-- 0.0 -->
<g id="node2" class="node">
<title>0.0</title>
<path fill="none" stroke="gray" d="M45.71,-191.15C45.71,-191.15 34.29,-191.15 34.29,-191.15 31.2,-191.15 28.12,-188.07 28.12,-184.98 28.12,-184.98 28.12,-178.81 28.12,-178.81 28.12,-175.73 31.2,-172.64 34.29,-172.64 34.29,-172.64 45.71,-172.64 45.71,-172.64 48.8,-172.64 51.88,-175.73 51.88,-178.81 51.88,-178.81 51.88,-184.98 51.88,-184.98 51.88,-188.07 48.79,-191.15 45.71,-191.15"/>
<text text-anchor="middle" x="40" y="-178.77" font-family="Menlo" font-size="10.00">0.0</text>
</g>
<!-- 13.0&#45;&gt;0.0 -->
<g id="edge1" class="edge">
<title>13.0&#45;&gt;0.0</title>
<path fill="none" stroke="gray" d="M40,-234.44C40,-223.61 40,-207.22 40,-195.84"/>
<polygon fill="gray" stroke="gray" points="41.05,-196.11 40,-193.11 38.95,-196.11 41.05,-196.11"/>
</g>
<!-- TR0C0 -->
<g id="node3" class="node">
<title>TR0C0</title>
<polygon fill="none" stroke="gray" points="201.88,-275.04 88.12,-275.04 88.12,-218.28 201.88,-218.28 201.88,-275.04"/>
<text text-anchor="start" x="142" y="-262.66" font-family="Menlo" font-size="10.00">0</text>
<text text-anchor="start" x="136" y="-249.91" font-family="Menlo" font-size="10.00">N T</text>
<text text-anchor="start" x="91" y="-237.16" font-family="Menlo" font-size="10.00">fi [&quot;a&quot;, &quot;b&quot;, &quot;c&quot;]</text>
<text text-anchor="start" x="121" y="-224.41" font-family="Menlo" font-size="10.00">fo [&quot;t&quot;]</text>
</g>
<!-- TR0C1 -->
<g id="node4" class="node">
<title>TR0C1</title>
<polygon fill="none" stroke="gray" points="273.88,-275.04 220.12,-275.04 220.12,-218.28 273.88,-218.28 273.88,-275.04"/>
<text text-anchor="start" x="244" y="-262.66" font-family="Menlo" font-size="10.00">1</text>
<text text-anchor="start" x="235" y="-249.91" font-family="Menlo" font-size="10.00">ALT </text>
<text text-anchor="start" x="223" y="-237.16" font-family="Menlo" font-size="10.00">fi [&quot;a&quot;]</text>
<text text-anchor="start" x="223" y="-224.41" font-family="Menlo" font-size="10.00">fo [&quot;t&quot;]</text>
</g>
<!-- TR0C0&#45;&gt;TR0C1 -->
<g id="edge10" class="edge">
<title>TR0C0&#45;&gt;TR0C1</title>
<path fill="none" stroke="gray" d="M202.38,-246.66C206.73,-246.66 211.09,-246.66 215.45,-246.66"/>
<polygon fill="gray" stroke="gray" points="215.29,-247.71 218.29,-246.66 215.29,-245.61 215.29,-247.71"/>
</g>
<!-- TR1C0 -->
<!-- TR0C0&#45;&gt;TR1C0 -->
<!-- TR1C1 -->
<g id="node5" class="node">
<title>TR1C1</title>
<polygon fill="none" stroke="gray" points="273.88,-210.28 220.12,-210.28 220.12,-153.52 273.88,-153.52 273.88,-210.28"/>
<text text-anchor="start" x="244" y="-197.9" font-family="Menlo" font-size="10.00">2</text>
<text text-anchor="start" x="232" y="-185.15" font-family="Menlo" font-size="10.00">T &quot;a&quot;</text>
<text text-anchor="start" x="223" y="-172.4" font-family="Menlo" font-size="10.00">fi [&quot;a&quot;]</text>
<text text-anchor="start" x="223" y="-159.65" font-family="Menlo" font-size="10.00">fo [&quot;t&quot;]</text>
</g>
<!-- TR0C1&#45;&gt;TR1C1 -->
<g id="edge3" class="edge">
<title>TR0C1&#45;&gt;TR1C1</title>
<path fill="none" stroke="gray" d="M247,-217.95C247,-216.86 247,-215.76 247,-214.66"/>
<polygon fill="gray" stroke="gray" points="248.05,-214.95 247,-211.95 245.95,-214.95 248.05,-214.95"/>
</g>
<!-- TR0C2 -->
<g id="node7" class="node">
<title>TR0C2</title>
<polygon fill="none" stroke="gray" points="345.88,-275.04 292.12,-275.04 292.12,-218.28 345.88,-218.28 345.88,-275.04"/>
<text text-anchor="start" x="316" y="-262.66" font-family="Menlo" font-size="10.00">4</text>
<text text-anchor="start" x="307" y="-249.91" font-family="Menlo" font-size="10.00">ALT </text>
<text text-anchor="start" x="295" y="-237.16" font-family="Menlo" font-size="10.00">fi [&quot;b&quot;]</text>
<text text-anchor="start" x="295" y="-224.41" font-family="Menlo" font-size="10.00">fo [&quot;t&quot;]</text>
</g>
<!-- TR0C1&#45;&gt;TR0C2 -->
<g id="edge9" class="edge">
<title>TR0C1&#45;&gt;TR0C2</title>
<path fill="none" stroke="gray" d="M274.28,-246.66C278.65,-246.66 283.02,-246.66 287.38,-246.66"/>
<polygon fill="gray" stroke="gray" points="287.24,-247.71 290.24,-246.66 287.24,-245.61 287.24,-247.71"/>
</g>
<!-- TR2C1 -->
<g id="node6" class="node">
<title>TR2C1</title>
<polygon fill="none" stroke="gray" points="273.88,-145.52 220.12,-145.52 220.12,-88.76 273.88,-88.76 273.88,-145.52"/>
<text text-anchor="start" x="244" y="-133.14" font-family="Menlo" font-size="10.00">3</text>
<text text-anchor="start" x="235" y="-120.39" font-family="Menlo" font-size="10.00">END </text>
<text text-anchor="start" x="226" y="-107.64" font-family="Menlo" font-size="10.00">fi [&quot;&quot;]</text>
<text text-anchor="start" x="223" y="-94.89" font-family="Menlo" font-size="10.00">fo [&quot;t&quot;]</text>
</g>
<!-- TR1C1&#45;&gt;TR2C1 -->
<g id="edge2" class="edge">
<title>TR1C1&#45;&gt;TR2C1</title>
<path fill="none" stroke="gray" d="M247,-153.19C247,-152.1 247,-151 247,-149.9"/>
<polygon fill="gray" stroke="gray" points="248.05,-150.19 247,-147.19 245.95,-150.19 248.05,-150.19"/>
</g>
<!-- TR2C1&#45;&gt;TR0C0 -->
<g id="edge25" class="edge">
<title>TR2C1:s&#45;&gt;TR0C0:s</title>
<path fill="none" stroke="red" d="M247,-88.14C247,-85.15 271.62,-87.18 273.88,-89.14 293.1,-105.83 264.94,-128.65 284,-145.52 295.92,-156.07 416.07,-141.96 427,-153.52 444.33,-171.85 444.58,-192.19 427,-210.28 416.8,-220.77 179.86,-204.99 148.43,-215.6"/>
<polygon fill="red" stroke="red" points="147.91,-214.67 146.19,-217.35 149.2,-216.33 147.91,-214.67"/>
</g>
<!-- TR1C2 -->
<g id="node8" class="node">
<title>TR1C2</title>
<polygon fill="none" stroke="gray" points="345.88,-210.28 292.12,-210.28 292.12,-153.52 345.88,-153.52 345.88,-210.28"/>
<text text-anchor="start" x="316" y="-197.9" font-family="Menlo" font-size="10.00">5</text>
<text text-anchor="start" x="304" y="-185.15" font-family="Menlo" font-size="10.00">T &quot;b&quot;</text>
<text text-anchor="start" x="295" y="-172.4" font-family="Menlo" font-size="10.00">fi [&quot;b&quot;]</text>
<text text-anchor="start" x="295" y="-159.65" font-family="Menlo" font-size="10.00">fo [&quot;t&quot;]</text>
</g>
<!-- TR0C2&#45;&gt;TR1C2 -->
<g id="edge5" class="edge">
<title>TR0C2&#45;&gt;TR1C2</title>
<path fill="none" stroke="gray" d="M319,-217.95C319,-216.86 319,-215.76 319,-214.66"/>
<polygon fill="gray" stroke="gray" points="320.05,-214.95 319,-211.95 317.95,-214.95 320.05,-214.95"/>
</g>
<!-- TR0C3 -->
<g id="node10" class="node">
<title>TR0C3</title>
<polygon fill="none" stroke="gray" points="417.88,-275.04 364.12,-275.04 364.12,-218.28 417.88,-218.28 417.88,-275.04"/>
<text text-anchor="start" x="388" y="-262.66" font-family="Menlo" font-size="10.00">7</text>
<text text-anchor="start" x="379" y="-249.91" font-family="Menlo" font-size="10.00">ALT </text>
<text text-anchor="start" x="367" y="-237.16" font-family="Menlo" font-size="10.00">fi [&quot;c&quot;]</text>
<text text-anchor="start" x="367" y="-224.41" font-family="Menlo" font-size="10.00">fo [&quot;t&quot;]</text>
</g>
<!-- TR0C2&#45;&gt;TR0C3 -->
<g id="edge8" class="edge">
<title>TR0C2&#45;&gt;TR0C3</title>
<path fill="none" stroke="gray" d="M346.28,-246.66C350.65,-246.66 355.02,-246.66 359.38,-246.66"/>
<polygon fill="gray" stroke="gray" points="359.24,-247.71 362.24,-246.66 359.24,-245.61 359.24,-247.71"/>
</g>
<!-- TR2C2 -->
<g id="node9" class="node">
<title>TR2C2</title>
<polygon fill="none" stroke="gray" points="345.88,-145.52 292.12,-145.52 292.12,-88.76 345.88,-88.76 345.88,-145.52"/>
<text text-anchor="start" x="316" y="-133.14" font-family="Menlo" font-size="10.00">6</text>
<text text-anchor="start" x="307" y="-120.39" font-family="Menlo" font-size="10.00">END </text>
<text text-anchor="start" x="298" y="-107.64" font-family="Menlo" font-size="10.00">fi [&quot;&quot;]</text>
<text text-anchor="start" x="295" y="-94.89" font-family="Menlo" font-size="10.00">fo [&quot;t&quot;]</text>
</g>
<!-- TR1C2&#45;&gt;TR2C2 -->
<g id="edge4" class="edge">
<title>TR1C2&#45;&gt;TR2C2</title>
<path fill="none" stroke="gray" d="M319,-153.19C319,-152.1 319,-151 319,-149.9"/>
<polygon fill="gray" stroke="gray" points="320.05,-150.19 319,-147.19 317.95,-150.19 320.05,-150.19"/>
</g>
<!-- TR2C2&#45;&gt;TR0C0 -->
<g id="edge26" class="edge">
<title>TR2C2:s&#45;&gt;TR0C0:s</title>
<path fill="none" stroke="red" d="M319,-88.14C319,-85.15 343.62,-87.18 345.88,-89.14 365.1,-105.83 337.29,-128.26 356,-145.52 369.46,-157.94 425.7,-139.96 438,-153.52 454.95,-172.2 455.59,-192.2 438,-210.28 427.35,-221.22 179.15,-204.37 148.17,-215.63"/>
<polygon fill="red" stroke="red" points="147.79,-214.58 146.16,-217.31 149.14,-216.19 147.79,-214.58"/>
</g>
<!-- TR1C3 -->
<g id="node11" class="node">
<title>TR1C3</title>
<polygon fill="none" stroke="gray" points="417.88,-210.28 364.12,-210.28 364.12,-153.52 417.88,-153.52 417.88,-210.28"/>
<text text-anchor="start" x="388" y="-197.9" font-family="Menlo" font-size="10.00">8</text>
<text text-anchor="start" x="376" y="-185.15" font-family="Menlo" font-size="10.00">T &quot;c&quot;</text>
<text text-anchor="start" x="367" y="-172.4" font-family="Menlo" font-size="10.00">fi [&quot;c&quot;]</text>
<text text-anchor="start" x="367" y="-159.65" font-family="Menlo" font-size="10.00">fo [&quot;t&quot;]</text>
</g>
<!-- TR0C3&#45;&gt;TR1C3 -->
<g id="edge7" class="edge">
<title>TR0C3&#45;&gt;TR1C3</title>
<path fill="none" stroke="gray" d="M391,-217.95C391,-216.86 391,-215.76 391,-214.66"/>
<polygon fill="gray" stroke="gray" points="392.05,-214.95 391,-211.95 389.95,-214.95 392.05,-214.95"/>
</g>
<!-- TR2C3 -->
<g id="node12" class="node">
<title>TR2C3</title>
<polygon fill="none" stroke="gray" points="417.88,-145.52 364.12,-145.52 364.12,-88.76 417.88,-88.76 417.88,-145.52"/>
<text text-anchor="start" x="388" y="-133.14" font-family="Menlo" font-size="10.00">9</text>
<text text-anchor="start" x="379" y="-120.39" font-family="Menlo" font-size="10.00">END </text>
<text text-anchor="start" x="370" y="-107.64" font-family="Menlo" font-size="10.00">fi [&quot;&quot;]</text>
<text text-anchor="start" x="367" y="-94.89" font-family="Menlo" font-size="10.00">fo [&quot;t&quot;]</text>
</g>
<!-- TR1C3&#45;&gt;TR2C3 -->
<g id="edge6" class="edge">
<title>TR1C3&#45;&gt;TR2C3</title>
<path fill="none" stroke="gray" d="M391,-153.19C391,-152.1 391,-151 391,-149.9"/>
<polygon fill="gray" stroke="gray" points="392.05,-150.19 391,-147.19 389.95,-150.19 392.05,-150.19"/>
</g>
<!-- TR2C3&#45;&gt;TR0C0 -->
<g id="edge27" class="edge">
<title>TR2C3:s&#45;&gt;TR0C0:s</title>
<path fill="none" stroke="red" d="M391,-88.14C391,-85.15 415.38,-87.5 417.88,-89.14 464.41,-119.55 487.79,-170.46 449,-210.28 437.95,-221.63 180.43,-203.88 148.28,-215.54"/>
<polygon fill="red" stroke="red" points="147.79,-214.58 146.16,-217.31 149.14,-216.19 147.79,-214.58"/>
</g>
<!-- TR1C0&#45;&gt;TR1C1 -->
<!-- TR2C0 -->
<!-- TR1C0&#45;&gt;TR2C0 -->
<!-- TR2C0&#45;&gt;TR2C1 -->
<!-- SR0C0 -->
<g id="node15" class="node">
<title>SR0C0</title>
<polygon fill="none" stroke="gray" points="615.88,-275.04 502.12,-275.04 502.12,-218.28 615.88,-218.28 615.88,-275.04"/>
<text text-anchor="start" x="553" y="-262.66" font-family="Menlo" font-size="10.00">10</text>
<text text-anchor="start" x="550" y="-249.91" font-family="Menlo" font-size="10.00">N S</text>
<text text-anchor="start" x="505" y="-237.16" font-family="Menlo" font-size="10.00">fi [&quot;a&quot;, &quot;b&quot;, &quot;c&quot;]</text>
<text text-anchor="start" x="535" y="-224.41" font-family="Menlo" font-size="10.00">fo [&quot;$&quot;]</text>
</g>
<!-- SR0C1 -->
<g id="node16" class="node">
<title>SR0C1</title>
<polygon fill="none" stroke="gray" points="747.88,-275.04 634.12,-275.04 634.12,-218.28 747.88,-218.28 747.88,-275.04"/>
<text text-anchor="start" x="685" y="-262.66" font-family="Menlo" font-size="10.00">11</text>
<text text-anchor="start" x="679" y="-249.91" font-family="Menlo" font-size="10.00">ALT </text>
<text text-anchor="start" x="637" y="-237.16" font-family="Menlo" font-size="10.00">fi [&quot;a&quot;, &quot;b&quot;, &quot;c&quot;]</text>
<text text-anchor="start" x="667" y="-224.41" font-family="Menlo" font-size="10.00">fo [&quot;t&quot;]</text>
</g>
<!-- SR0C0&#45;&gt;SR0C1 -->
<g id="edge18" class="edge">
<title>SR0C0&#45;&gt;SR0C1</title>
<path fill="none" stroke="gray" d="M616.23,-246.66C620.62,-246.66 625,-246.66 629.38,-246.66"/>
<polygon fill="gray" stroke="gray" points="629.24,-247.71 632.24,-246.66 629.24,-245.61 629.24,-247.71"/>
</g>
<!-- SR1C0 -->
<!-- SR0C0&#45;&gt;SR1C0 -->
<!-- SR1C1 -->
<g id="node17" class="node">
<title>SR1C1</title>
<polygon fill="none" stroke="gray" points="747.88,-210.28 634.12,-210.28 634.12,-153.52 747.88,-153.52 747.88,-210.28"/>
<text text-anchor="start" x="685" y="-197.9" font-family="Menlo" font-size="10.00">12</text>
<text text-anchor="start" x="682" y="-185.15" font-family="Menlo" font-size="10.00">N T</text>
<text text-anchor="start" x="637" y="-172.4" font-family="Menlo" font-size="10.00">fi [&quot;a&quot;, &quot;b&quot;, &quot;c&quot;]</text>
<text text-anchor="start" x="667" y="-159.65" font-family="Menlo" font-size="10.00">fo [&quot;t&quot;]</text>
</g>
<!-- SR0C1&#45;&gt;SR1C1 -->
<g id="edge17" class="edge">
<title>SR0C1&#45;&gt;SR1C1</title>
<path fill="none" stroke="gray" d="M691,-217.95C691,-216.86 691,-215.76 691,-214.66"/>
<polygon fill="gray" stroke="gray" points="692.05,-214.95 691,-211.95 689.95,-214.95 692.05,-214.95"/>
</g>
<!-- SR2C1 -->
<g id="node18" class="node">
<title>SR2C1</title>
<polygon fill="none" stroke="gray" points="717.88,-145.52 664.12,-145.52 664.12,-88.76 717.88,-88.76 717.88,-145.52"/>
<text text-anchor="start" x="685" y="-133.14" font-family="Menlo" font-size="10.00">13</text>
<text text-anchor="start" x="676" y="-120.39" font-family="Menlo" font-size="10.00">T &quot;t&quot;</text>
<text text-anchor="start" x="667" y="-107.64" font-family="Menlo" font-size="10.00">fi [&quot;t&quot;]</text>
<text text-anchor="start" x="667" y="-94.89" font-family="Menlo" font-size="10.00">fo [&quot;$&quot;]</text>
</g>
<!-- SR1C1&#45;&gt;SR2C1 -->
<g id="edge16" class="edge">
<title>SR1C1&#45;&gt;SR2C1</title>
<path fill="none" stroke="gray" d="M691,-153.19C691,-152.1 691,-151 691,-149.9"/>
<polygon fill="gray" stroke="gray" points="692.05,-150.19 691,-147.19 689.95,-150.19 692.05,-150.19"/>
</g>
<!-- SR3C1 -->
<g id="node19" class="node">
<title>SR3C1</title>
<polygon fill="none" stroke="gray" points="717.88,-72.76 664.12,-72.76 664.12,-16 717.88,-16 717.88,-72.76"/>
<text text-anchor="start" x="685" y="-60.38" font-family="Menlo" font-size="10.00">14</text>
<text text-anchor="start" x="679" y="-47.63" font-family="Menlo" font-size="10.00">END </text>
<text text-anchor="start" x="670" y="-34.88" font-family="Menlo" font-size="10.00">fi [&quot;&quot;]</text>
<text text-anchor="start" x="667" y="-22.13" font-family="Menlo" font-size="10.00">fo [&quot;$&quot;]</text>
</g>
<!-- SR2C1&#45;&gt;SR3C1 -->
<g id="edge15" class="edge">
<title>SR2C1&#45;&gt;SR3C1</title>
<path fill="none" stroke="gray" d="M691,-88.58C691,-84.9 691,-81.1 691,-77.35"/>
<polygon fill="gray" stroke="gray" points="692.05,-77.49 691,-74.5 689.95,-77.5 692.05,-77.49"/>
</g>
<!-- SR3C1&#45;&gt;SR0C0 -->
<g id="edge28" class="edge">
<title>SR3C1:s&#45;&gt;SR0C0:s</title>
<path fill="none" stroke="red" d="M691,-15.38C691,-12.39 715.53,-14.54 717.88,-16.38 762.13,-51.08 798.12,-167.46 757,-210.28 750,-217.57 589,-208.94 562.64,-215.99"/>
<polygon fill="red" stroke="red" points="562.26,-214.99 560.28,-217.47 563.38,-216.76 562.26,-214.99"/>
</g>
<!-- SR1C0&#45;&gt;SR1C1 -->
<!-- SR2C0 -->
<!-- SR1C0&#45;&gt;SR2C0 -->
<!-- SR2C0&#45;&gt;SR2C1 -->
<!-- SR3C0 -->
<!-- SR2C0&#45;&gt;SR3C0 -->
<!-- SR3C0&#45;&gt;SR3C1 -->
</g>
</svg>
