<?xml version="1.0" encoding="UTF-8" standalone="no"?>
<!DOCTYPE svg PUBLIC "-//W3C//DTD SVG 1.1//EN"
 "http://www.w3.org/Graphics/SVG/1.1/DTD/svg11.dtd">
<!-- Generated by graphviz version 9.0.0 (20230911.1827)
 -->
<!-- Title: G Pages: 1 -->
<svg width="838pt" height="363pt"
 viewBox="0.00 0.00 838.00 362.79" xmlns="http://www.w3.org/2000/svg" xmlns:xlink="http://www.w3.org/1999/xlink">
<g id="graph0" class="graph" transform="scale(1 1) rotate(0) translate(4 358.79)">
<title>G</title>
<polygon fill="white" stroke="none" points="-4,4 -4,-358.79 834,-358.79 834,4 -4,4"/>
<g id="clust2" class="cluster">
<title>clusterS</title>
<polygon fill="none" stroke="black" points="8,-8 8,-346.79 822,-346.79 822,-8 8,-8"/>
<text text-anchor="start" x="16" y="-333.29" font-family="Menlo" font-size="10.00">S = [ &quot;a&quot; ] | [ &quot;b&quot; ] | [ &quot;c&quot; ] .</text>
</g>
<!-- SR0C0 -->
<g id="node1" class="node">
<title>SR0C0</title>
<polygon fill="none" stroke="gray" points="153.88,-318.04 16.12,-318.04 16.12,-248.53 153.88,-248.53 153.88,-318.04"/>
<text text-anchor="start" x="82" y="-305.66" font-family="Menlo" font-size="10.00">U</text>
<text text-anchor="start" x="76" y="-292.91" font-family="Menlo" font-size="10.00">N S</text>
<text text-anchor="start" x="19" y="-280.16" font-family="Menlo" font-size="10.00">fi [&quot;&quot;, &quot;a&quot;, &quot;b&quot;, &quot;c&quot;]</text>
<text text-anchor="start" x="61" y="-267.41" font-family="Menlo" font-size="10.00">fo [&quot;$&quot;]</text>
<text text-anchor="start" x="70" y="-254.66" font-family="Menlo" font-size="10.00">am []</text>
</g>
<!-- SR0C1 -->
<g id="node2" class="node">
<title>SR0C1</title>
<polygon fill="none" stroke="gray" points="249.88,-318.04 172.12,-318.04 172.12,-248.53 249.88,-248.53 249.88,-318.04"/>
<text text-anchor="start" x="208" y="-305.66" font-family="Menlo" font-size="10.00">C</text>
<text text-anchor="start" x="199" y="-292.91" font-family="Menlo" font-size="10.00">ALT </text>
<text text-anchor="start" x="175" y="-280.16" font-family="Menlo" font-size="10.00">fi [&quot;&quot;, &quot;a&quot;]</text>
<text text-anchor="start" x="187" y="-267.41" font-family="Menlo" font-size="10.00">fo [&quot;$&quot;]</text>
<text text-anchor="start" x="196" y="-254.66" font-family="Menlo" font-size="10.00">am []</text>
</g>
<!-- SR0C0&#45;&gt;SR0C1 -->
<g id="edge18" class="edge">
<title>SR0C0&#45;&gt;SR0C1</title>
<path fill="none" stroke="gray" d="M153.91,-283.29C158.37,-283.29 162.83,-283.29 167.29,-283.29"/>
<polygon fill="gray" stroke="gray" points="167.23,-284.34 170.23,-283.29 167.23,-282.24 167.23,-284.34"/>
</g>
<!-- SR1C0 -->
<!-- SR0C0&#45;&gt;SR1C0 -->
<!-- SR1C1 -->
<g id="node3" class="node">
<title>SR1C1</title>
<polygon fill="none" stroke="gray" points="249.88,-240.53 172.12,-240.53 172.12,-171.02 249.88,-171.02 249.88,-240.53"/>
<text text-anchor="start" x="208" y="-228.15" font-family="Menlo" font-size="10.00">G</text>
<text text-anchor="start" x="199" y="-215.4" font-family="Menlo" font-size="10.00">OPT </text>
<text text-anchor="start" x="175" y="-202.65" font-family="Menlo" font-size="10.00">fi [&quot;&quot;, &quot;a&quot;]</text>
<text text-anchor="start" x="187" y="-189.9" font-family="Menlo" font-size="10.00">fo [&quot;$&quot;]</text>
<text text-anchor="start" x="196" y="-177.15" font-family="Menlo" font-size="10.00">am []</text>
</g>
<!-- SR0C1&#45;&gt;SR1C1 -->
<g id="edge5" class="edge">
<title>SR0C1&#45;&gt;SR1C1</title>
<path fill="none" stroke="gray" d="M211,-248.06C211,-247.19 211,-246.31 211,-245.43"/>
<polygon fill="gray" stroke="gray" points="212.05,-245.54 211,-242.54 209.95,-245.54 212.05,-245.54"/>
</g>
<!-- SR0C3 -->
<g id="node8" class="node">
<title>SR0C3</title>
<polygon fill="none" stroke="gray" points="445.88,-318.04 368.12,-318.04 368.12,-248.53 445.88,-248.53 445.88,-318.04"/>
<text text-anchor="start" x="404" y="-305.66" font-family="Menlo" font-size="10.00">I</text>
<text text-anchor="start" x="395" y="-292.91" font-family="Menlo" font-size="10.00">ALT </text>
<text text-anchor="start" x="371" y="-280.16" font-family="Menlo" font-size="10.00">fi [&quot;&quot;, &quot;b&quot;]</text>
<text text-anchor="start" x="383" y="-267.41" font-family="Menlo" font-size="10.00">fo [&quot;$&quot;]</text>
<text text-anchor="start" x="392" y="-254.66" font-family="Menlo" font-size="10.00">am []</text>
</g>
<!-- SR0C1&#45;&gt;SR0C3 -->
<g id="edge17" class="edge">
<title>SR0C1&#45;&gt;SR0C3</title>
<path fill="none" stroke="gray" d="M250.05,-283.29C287.91,-283.29 325.76,-283.29 363.62,-283.29"/>
<polygon fill="gray" stroke="gray" points="363.25,-284.34 366.25,-283.29 363.25,-282.24 363.25,-284.34"/>
</g>
<!-- SR2C1 -->
<g id="node4" class="node">
<title>SR2C1</title>
<polygon fill="none" stroke="gray" points="237.88,-163.02 184.12,-163.02 184.12,-93.51 237.88,-93.51 237.88,-163.02"/>
<text text-anchor="start" x="208" y="-150.64" font-family="Menlo" font-size="10.00">H</text>
<text text-anchor="start" x="199" y="-137.89" font-family="Menlo" font-size="10.00">END </text>
<text text-anchor="start" x="190" y="-125.14" font-family="Menlo" font-size="10.00">fi [&quot;&quot;]</text>
<text text-anchor="start" x="187" y="-112.39" font-family="Menlo" font-size="10.00">fo [&quot;$&quot;]</text>
<text text-anchor="start" x="196" y="-99.64" font-family="Menlo" font-size="10.00">am []</text>
</g>
<!-- SR1C1&#45;&gt;SR2C1 -->
<g id="edge1" class="edge">
<title>SR1C1&#45;&gt;SR2C1</title>
<path fill="none" stroke="gray" d="M211,-170.55C211,-169.68 211,-168.8 211,-167.92"/>
<polygon fill="gray" stroke="gray" points="212.05,-168.03 211,-165.03 209.95,-168.03 212.05,-168.03"/>
</g>
<!-- SR1C2 -->
<g id="node5" class="node">
<title>SR1C2</title>
<polygon fill="none" stroke="gray" points="341.88,-240.53 288.12,-240.53 288.12,-171.02 341.88,-171.02 341.88,-240.53"/>
<text text-anchor="start" x="312" y="-228.15" font-family="Menlo" font-size="10.00">D</text>
<text text-anchor="start" x="303" y="-215.4" font-family="Menlo" font-size="10.00">ALT </text>
<text text-anchor="start" x="291" y="-202.65" font-family="Menlo" font-size="10.00">fi [&quot;a&quot;]</text>
<text text-anchor="start" x="291" y="-189.9" font-family="Menlo" font-size="10.00">fo [&quot;$&quot;]</text>
<text text-anchor="start" x="300" y="-177.15" font-family="Menlo" font-size="10.00">am []</text>
</g>
<!-- SR1C1&#45;&gt;SR1C2 -->
<g id="edge4" class="edge">
<title>SR1C1&#45;&gt;SR1C2</title>
<path fill="none" stroke="gray" d="M250,-205.78C261.13,-205.78 272.27,-205.78 283.4,-205.78"/>
<polygon fill="gray" stroke="gray" points="283.32,-206.83 286.32,-205.78 283.32,-204.73 283.32,-206.83"/>
</g>
<!-- SR2C1&#45;&gt;SR0C0 -->
<g id="edge35" class="edge">
<title>SR2C1:w&#45;&gt;SR0C0:s</title>
<path fill="none" stroke="red" d="M183,-128.27C167.55,-128.27 172.99,-152.18 184,-163.02 206.92,-185.6 740.41,-148.12 763,-171.02 784.69,-193.02 784.72,-218.56 763,-240.53 750.33,-253.35 140.92,-231.71 88.58,-246.33"/>
<polygon fill="red" stroke="red" points="88.3,-245.27 86.29,-247.74 89.4,-247.06 88.3,-245.27"/>
</g>
<!-- SR2C1&#45;&gt;SR0C1 -->
<g id="edge41" class="edge">
<title>SR2C1:e&#45;&gt;SR0C1</title>
<path fill="none" stroke="green" stroke-dasharray="1,5" d="M239,-128.27C256.6,-128.27 243.04,-153.74 258,-163.02 276.61,-174.57 439.83,-155.22 455,-171.02 476.4,-193.3 475.92,-217.8 455,-240.53 447.75,-248.41 369.58,-246.89 359,-248.53 323.5,-254.03 283.85,-263.24 254.53,-270.65"/>
<polygon fill="green" stroke="green" points="254.4,-269.6 251.75,-271.36 254.92,-271.64 254.4,-269.6"/>
</g>
<!-- SR3C1 -->
<!-- SR2C1&#45;&gt;SR3C1 -->
<!-- SR2C2 -->
<g id="node6" class="node">
<title>SR2C2</title>
<polygon fill="none" stroke="gray" points="341.88,-163.02 288.12,-163.02 288.12,-93.51 341.88,-93.51 341.88,-163.02"/>
<text text-anchor="start" x="312" y="-150.64" font-family="Menlo" font-size="10.00">E</text>
<text text-anchor="start" x="300" y="-137.89" font-family="Menlo" font-size="10.00">T &quot;a&quot;</text>
<text text-anchor="start" x="291" y="-125.14" font-family="Menlo" font-size="10.00">fi [&quot;a&quot;]</text>
<text text-anchor="start" x="291" y="-112.39" font-family="Menlo" font-size="10.00">fo [&quot;$&quot;]</text>
<text text-anchor="start" x="300" y="-99.64" font-family="Menlo" font-size="10.00">am []</text>
</g>
<!-- SR1C2&#45;&gt;SR2C2 -->
<g id="edge3" class="edge">
<title>SR1C2&#45;&gt;SR2C2</title>
<path fill="none" stroke="gray" d="M315,-170.55C315,-169.68 315,-168.8 315,-167.92"/>
<polygon fill="gray" stroke="gray" points="316.05,-168.03 315,-165.03 313.95,-168.03 316.05,-168.03"/>
</g>
<!-- SR3C2 -->
<g id="node7" class="node">
<title>SR3C2</title>
<polygon fill="none" stroke="gray" points="341.88,-85.51 288.12,-85.51 288.12,-16 341.88,-16 341.88,-85.51"/>
<text text-anchor="start" x="312" y="-73.13" font-family="Menlo" font-size="10.00">F</text>
<text text-anchor="start" x="303" y="-60.38" font-family="Menlo" font-size="10.00">END </text>
<text text-anchor="start" x="294" y="-47.63" font-family="Menlo" font-size="10.00">fi [&quot;&quot;]</text>
<text text-anchor="start" x="291" y="-34.88" font-family="Menlo" font-size="10.00">fo [&quot;$&quot;]</text>
<text text-anchor="start" x="300" y="-22.13" font-family="Menlo" font-size="10.00">am []</text>
</g>
<!-- SR2C2&#45;&gt;SR3C2 -->
<g id="edge2" class="edge">
<title>SR2C2&#45;&gt;SR3C2</title>
<path fill="none" stroke="gray" d="M315,-93.04C315,-92.17 315,-91.29 315,-90.41"/>
<polygon fill="gray" stroke="gray" points="316.05,-90.52 315,-87.52 313.95,-90.52 316.05,-90.52"/>
</g>
<!-- SR3C2&#45;&gt;SR1C1 -->
<g id="edge36" class="edge">
<title>SR3C2:w&#45;&gt;SR1C1:s</title>
<path fill="none" stroke="red" d="M287,-50.76C271.55,-50.76 277.07,-74.58 288,-85.51 309.93,-107.44 545.39,-71.27 567,-93.51 588.53,-115.67 588.6,-140.93 567,-163.02 553.93,-176.39 247.44,-153.95 213.96,-168.17"/>
<polygon fill="red" stroke="red" points="213.52,-167.13 212.09,-169.97 214.98,-168.65 213.52,-167.13"/>
</g>
<!-- SR3C2&#45;&gt;SR1C2 -->
<g id="edge42" class="edge">
<title>SR3C2:e&#45;&gt;SR1C2</title>
<path fill="none" stroke="green" stroke-dasharray="1,5" d="M343,-50.76C365.56,-50.76 359.21,-76.76 380,-85.51 399.17,-93.58 552.61,-78.49 567,-93.51 588.37,-115.82 588.42,-140.76 567,-163.02 550.96,-179.69 380.75,-163.17 359,-171.02 354.56,-172.62 350.21,-174.85 346.08,-177.4"/>
<polygon fill="green" stroke="green" points="345.56,-176.48 343.61,-179 346.7,-178.25 345.56,-176.48"/>
</g>
<!-- SR3C3 -->
<!-- SR3C2&#45;&gt;SR3C3 -->
<!-- SR1C3 -->
<g id="node9" class="node">
<title>SR1C3</title>
<polygon fill="none" stroke="gray" points="445.88,-240.53 368.12,-240.53 368.12,-171.02 445.88,-171.02 445.88,-240.53"/>
<text text-anchor="start" x="404" y="-228.15" font-family="Menlo" font-size="10.00">M</text>
<text text-anchor="start" x="395" y="-215.4" font-family="Menlo" font-size="10.00">OPT </text>
<text text-anchor="start" x="371" y="-202.65" font-family="Menlo" font-size="10.00">fi [&quot;&quot;, &quot;b&quot;]</text>
<text text-anchor="start" x="383" y="-189.9" font-family="Menlo" font-size="10.00">fo [&quot;$&quot;]</text>
<text text-anchor="start" x="392" y="-177.15" font-family="Menlo" font-size="10.00">am []</text>
</g>
<!-- SR0C3&#45;&gt;SR1C3 -->
<g id="edge10" class="edge">
<title>SR0C3&#45;&gt;SR1C3</title>
<path fill="none" stroke="gray" d="M407,-248.06C407,-247.19 407,-246.31 407,-245.43"/>
<polygon fill="gray" stroke="gray" points="408.05,-245.54 407,-242.54 405.95,-245.54 408.05,-245.54"/>
</g>
<!-- SR0C5 -->
<g id="node14" class="node">
<title>SR0C5</title>
<polygon fill="none" stroke="gray" points="681.88,-318.04 604.12,-318.04 604.12,-248.53 681.88,-248.53 681.88,-318.04"/>
<text text-anchor="start" x="640" y="-305.66" font-family="Menlo" font-size="10.00">O</text>
<text text-anchor="start" x="631" y="-292.91" font-family="Menlo" font-size="10.00">ALT </text>
<text text-anchor="start" x="607" y="-280.16" font-family="Menlo" font-size="10.00">fi [&quot;&quot;, &quot;c&quot;]</text>
<text text-anchor="start" x="619" y="-267.41" font-family="Menlo" font-size="10.00">fo [&quot;$&quot;]</text>
<text text-anchor="start" x="628" y="-254.66" font-family="Menlo" font-size="10.00">am []</text>
</g>
<!-- SR0C3&#45;&gt;SR0C5 -->
<g id="edge16" class="edge">
<title>SR0C3&#45;&gt;SR0C5</title>
<path fill="none" stroke="gray" d="M446.18,-283.29C497.28,-283.29 548.38,-283.29 599.48,-283.29"/>
<polygon fill="gray" stroke="gray" points="599.28,-284.34 602.28,-283.29 599.28,-282.24 599.28,-284.34"/>
</g>
<!-- SR2C3 -->
<g id="node10" class="node">
<title>SR2C3</title>
<polygon fill="none" stroke="gray" points="433.88,-163.02 380.12,-163.02 380.12,-93.51 433.88,-93.51 433.88,-163.02"/>
<text text-anchor="start" x="404" y="-150.64" font-family="Menlo" font-size="10.00">N</text>
<text text-anchor="start" x="395" y="-137.89" font-family="Menlo" font-size="10.00">END </text>
<text text-anchor="start" x="386" y="-125.14" font-family="Menlo" font-size="10.00">fi [&quot;&quot;]</text>
<text text-anchor="start" x="383" y="-112.39" font-family="Menlo" font-size="10.00">fo [&quot;$&quot;]</text>
<text text-anchor="start" x="392" y="-99.64" font-family="Menlo" font-size="10.00">am []</text>
</g>
<!-- SR1C3&#45;&gt;SR2C3 -->
<g id="edge6" class="edge">
<title>SR1C3&#45;&gt;SR2C3</title>
<path fill="none" stroke="gray" d="M407,-170.55C407,-169.68 407,-168.8 407,-167.92"/>
<polygon fill="gray" stroke="gray" points="408.05,-168.03 407,-165.03 405.95,-168.03 408.05,-168.03"/>
</g>
<!-- SR1C4 -->
<g id="node11" class="node">
<title>SR1C4</title>
<polygon fill="none" stroke="gray" points="557.88,-240.53 504.12,-240.53 504.12,-171.02 557.88,-171.02 557.88,-240.53"/>
<text text-anchor="start" x="528" y="-228.15" font-family="Menlo" font-size="10.00">J</text>
<text text-anchor="start" x="519" y="-215.4" font-family="Menlo" font-size="10.00">ALT </text>
<text text-anchor="start" x="507" y="-202.65" font-family="Menlo" font-size="10.00">fi [&quot;b&quot;]</text>
<text text-anchor="start" x="507" y="-189.9" font-family="Menlo" font-size="10.00">fo [&quot;$&quot;]</text>
<text text-anchor="start" x="516" y="-177.15" font-family="Menlo" font-size="10.00">am []</text>
</g>
<!-- SR1C3&#45;&gt;SR1C4 -->
<g id="edge9" class="edge">
<title>SR1C3&#45;&gt;SR1C4</title>
<path fill="none" stroke="gray" d="M446.23,-205.78C463.94,-205.78 481.64,-205.78 499.35,-205.78"/>
<polygon fill="gray" stroke="gray" points="499.33,-206.83 502.33,-205.78 499.33,-204.73 499.33,-206.83"/>
</g>
<!-- SR2C3&#45;&gt;SR0C0 -->
<g id="edge37" class="edge">
<title>SR2C3:w&#45;&gt;SR0C0:s</title>
<path fill="none" stroke="red" d="M379,-128.27C363.55,-128.27 369.03,-152.14 380,-163.02 395.63,-178.51 760.6,-155.3 776,-171.02 797.62,-193.08 797.72,-218.56 776,-240.53 763.09,-253.6 142,-231.4 88.65,-246.29"/>
<polygon fill="red" stroke="red" points="88.3,-245.27 86.29,-247.74 89.4,-247.06 88.3,-245.27"/>
</g>
<!-- SR2C3&#45;&gt;SR0C3 -->
<g id="edge43" class="edge">
<title>SR2C3:e&#45;&gt;SR0C3</title>
<path fill="none" stroke="green" stroke-dasharray="1,5" d="M435,-128.27C485.68,-128.27 476.01,-194.41 455,-240.53 453.35,-244.15 451.22,-247.58 448.77,-250.79"/>
<polygon fill="green" stroke="green" points="448.24,-249.77 447.17,-252.76 449.88,-251.09 448.24,-249.77"/>
</g>
<!-- SR2C3&#45;&gt;SR3C3 -->
<!-- SR2C4 -->
<g id="node12" class="node">
<title>SR2C4</title>
<polygon fill="none" stroke="gray" points="557.88,-163.02 504.12,-163.02 504.12,-93.51 557.88,-93.51 557.88,-163.02"/>
<text text-anchor="start" x="528" y="-150.64" font-family="Menlo" font-size="10.00">K</text>
<text text-anchor="start" x="516" y="-137.89" font-family="Menlo" font-size="10.00">T &quot;b&quot;</text>
<text text-anchor="start" x="507" y="-125.14" font-family="Menlo" font-size="10.00">fi [&quot;b&quot;]</text>
<text text-anchor="start" x="507" y="-112.39" font-family="Menlo" font-size="10.00">fo [&quot;$&quot;]</text>
<text text-anchor="start" x="516" y="-99.64" font-family="Menlo" font-size="10.00">am []</text>
</g>
<!-- SR1C4&#45;&gt;SR2C4 -->
<g id="edge8" class="edge">
<title>SR1C4&#45;&gt;SR2C4</title>
<path fill="none" stroke="gray" d="M531,-170.55C531,-169.68 531,-168.8 531,-167.92"/>
<polygon fill="gray" stroke="gray" points="532.05,-168.03 531,-165.03 529.95,-168.03 532.05,-168.03"/>
</g>
<!-- SR3C4 -->
<g id="node13" class="node">
<title>SR3C4</title>
<polygon fill="none" stroke="gray" points="557.88,-85.51 504.12,-85.51 504.12,-16 557.88,-16 557.88,-85.51"/>
<text text-anchor="start" x="528" y="-73.13" font-family="Menlo" font-size="10.00">L</text>
<text text-anchor="start" x="519" y="-60.38" font-family="Menlo" font-size="10.00">END </text>
<text text-anchor="start" x="510" y="-47.63" font-family="Menlo" font-size="10.00">fi [&quot;&quot;]</text>
<text text-anchor="start" x="507" y="-34.88" font-family="Menlo" font-size="10.00">fo [&quot;$&quot;]</text>
<text text-anchor="start" x="516" y="-22.13" font-family="Menlo" font-size="10.00">am []</text>
</g>
<!-- SR2C4&#45;&gt;SR3C4 -->
<g id="edge7" class="edge">
<title>SR2C4&#45;&gt;SR3C4</title>
<path fill="none" stroke="gray" d="M531,-93.04C531,-92.17 531,-91.29 531,-90.41"/>
<polygon fill="gray" stroke="gray" points="532.05,-90.52 531,-87.52 529.95,-90.52 532.05,-90.52"/>
</g>
<!-- SR3C4&#45;&gt;SR1C3 -->
<g id="edge38" class="edge">
<title>SR3C4:w&#45;&gt;SR1C3:s</title>
<path fill="none" stroke="red" d="M503,-50.76C446.43,-50.76 488.06,-128.81 443,-163.02 431.37,-171.85 411.9,-158.3 407.78,-166.8"/>
<polygon fill="red" stroke="red" points="406.79,-166.39 407.28,-169.53 408.85,-166.77 406.79,-166.39"/>
</g>
<!-- SR3C4&#45;&gt;SR1C4 -->
<g id="edge44" class="edge">
<title>SR3C4:e&#45;&gt;SR1C4</title>
<path fill="none" stroke="green" stroke-dasharray="1,5" d="M559,-50.76C574.45,-50.76 568.85,-74.51 558,-85.51 543.4,-100.32 385.39,-78.49 371,-93.51 349.63,-115.82 350.07,-140.3 371,-163.02 385.65,-178.93 447.26,-164.9 468,-171.02 478.93,-174.25 490.12,-179.5 499.98,-184.91"/>
<polygon fill="green" stroke="green" points="499.38,-185.78 502.51,-186.33 500.41,-183.95 499.38,-185.78"/>
</g>
<!-- SR3C5 -->
<!-- SR3C4&#45;&gt;SR3C5 -->
<!-- SR1C5 -->
<g id="node15" class="node">
<title>SR1C5</title>
<polygon fill="none" stroke="gray" points="681.88,-240.53 604.12,-240.53 604.12,-171.02 681.88,-171.02 681.88,-240.53"/>
<text text-anchor="start" x="640" y="-228.15" font-family="Menlo" font-size="10.00">S</text>
<text text-anchor="start" x="631" y="-215.4" font-family="Menlo" font-size="10.00">OPT </text>
<text text-anchor="start" x="607" y="-202.65" font-family="Menlo" font-size="10.00">fi [&quot;&quot;, &quot;c&quot;]</text>
<text text-anchor="start" x="619" y="-189.9" font-family="Menlo" font-size="10.00">fo [&quot;$&quot;]</text>
<text text-anchor="start" x="628" y="-177.15" font-family="Menlo" font-size="10.00">am []</text>
</g>
<!-- SR0C5&#45;&gt;SR1C5 -->
<g id="edge15" class="edge">
<title>SR0C5&#45;&gt;SR1C5</title>
<path fill="none" stroke="gray" d="M643,-248.06C643,-247.19 643,-246.31 643,-245.43"/>
<polygon fill="gray" stroke="gray" points="644.05,-245.54 643,-242.54 641.95,-245.54 644.05,-245.54"/>
</g>
<!-- SR0C6 -->
<!-- SR0C5&#45;&gt;SR0C6 -->
<!-- SR2C5 -->
<g id="node16" class="node">
<title>SR2C5</title>
<polygon fill="none" stroke="gray" points="669.88,-163.02 616.12,-163.02 616.12,-93.51 669.88,-93.51 669.88,-163.02"/>
<text text-anchor="start" x="640" y="-150.64" font-family="Menlo" font-size="10.00">T</text>
<text text-anchor="start" x="631" y="-137.89" font-family="Menlo" font-size="10.00">END </text>
<text text-anchor="start" x="622" y="-125.14" font-family="Menlo" font-size="10.00">fi [&quot;&quot;]</text>
<text text-anchor="start" x="619" y="-112.39" font-family="Menlo" font-size="10.00">fo [&quot;$&quot;]</text>
<text text-anchor="start" x="628" y="-99.64" font-family="Menlo" font-size="10.00">am []</text>
</g>
<!-- SR1C5&#45;&gt;SR2C5 -->
<g id="edge11" class="edge">
<title>SR1C5&#45;&gt;SR2C5</title>
<path fill="none" stroke="gray" d="M643,-170.55C643,-169.68 643,-168.8 643,-167.92"/>
<polygon fill="gray" stroke="gray" points="644.05,-168.03 643,-165.03 641.95,-168.03 644.05,-168.03"/>
</g>
<!-- SR1C6 -->
<g id="node17" class="node">
<title>SR1C6</title>
<polygon fill="none" stroke="gray" points="753.88,-240.53 700.12,-240.53 700.12,-171.02 753.88,-171.02 753.88,-240.53"/>
<text text-anchor="start" x="724" y="-228.15" font-family="Menlo" font-size="10.00">P</text>
<text text-anchor="start" x="715" y="-215.4" font-family="Menlo" font-size="10.00">ALT </text>
<text text-anchor="start" x="703" y="-202.65" font-family="Menlo" font-size="10.00">fi [&quot;c&quot;]</text>
<text text-anchor="start" x="703" y="-189.9" font-family="Menlo" font-size="10.00">fo [&quot;$&quot;]</text>
<text text-anchor="start" x="712" y="-177.15" font-family="Menlo" font-size="10.00">am []</text>
</g>
<!-- SR1C5&#45;&gt;SR1C6 -->
<g id="edge14" class="edge">
<title>SR1C5&#45;&gt;SR1C6</title>
<path fill="none" stroke="gray" d="M682.38,-205.78C686.73,-205.78 691.09,-205.78 695.45,-205.78"/>
<polygon fill="gray" stroke="gray" points="695.29,-206.83 698.29,-205.78 695.29,-204.73 695.29,-206.83"/>
</g>
<!-- SR2C5&#45;&gt;SR0C0 -->
<g id="edge39" class="edge">
<title>SR2C5:w&#45;&gt;SR0C0:s</title>
<path fill="none" stroke="red" d="M615,-128.27C599.55,-128.27 605.17,-152 616,-163.02 629.49,-176.74 775.71,-157.1 789,-171.02 810.33,-193.36 810.72,-218.56 789,-240.53 775.84,-253.84 143.07,-231.09 88.71,-246.25"/>
<polygon fill="red" stroke="red" points="88.3,-245.28 86.29,-247.74 89.4,-247.07 88.3,-245.28"/>
</g>
<!-- SR2C5&#45;&gt;SR0C5 -->
<g id="edge45" class="edge">
<title>SR2C5:e&#45;&gt;SR0C5</title>
<path fill="none" stroke="green" stroke-dasharray="1,5" d="M671,-128.27C686.45,-128.27 680.97,-152.14 670,-163.02 654.57,-178.32 294.21,-155.5 279,-171.02 257.38,-193.09 257.66,-218.19 279,-240.53 285.76,-247.61 445.27,-247.44 455,-248.53 505.08,-254.14 561.95,-264.98 599.9,-272.87"/>
<polygon fill="green" stroke="green" points="599.34,-273.83 602.49,-273.41 599.77,-271.77 599.34,-273.83"/>
</g>
<!-- SR2C5&#45;&gt;SR3C5 -->
<!-- SR2C6 -->
<g id="node18" class="node">
<title>SR2C6</title>
<polygon fill="none" stroke="gray" points="753.88,-163.02 700.12,-163.02 700.12,-93.51 753.88,-93.51 753.88,-163.02"/>
<text text-anchor="start" x="724" y="-150.64" font-family="Menlo" font-size="10.00">Q</text>
<text text-anchor="start" x="712" y="-137.89" font-family="Menlo" font-size="10.00">T &quot;c&quot;</text>
<text text-anchor="start" x="703" y="-125.14" font-family="Menlo" font-size="10.00">fi [&quot;c&quot;]</text>
<text text-anchor="start" x="703" y="-112.39" font-family="Menlo" font-size="10.00">fo [&quot;$&quot;]</text>
<text text-anchor="start" x="712" y="-99.64" font-family="Menlo" font-size="10.00">am []</text>
</g>
<!-- SR1C6&#45;&gt;SR2C6 -->
<g id="edge13" class="edge">
<title>SR1C6&#45;&gt;SR2C6</title>
<path fill="none" stroke="gray" d="M727,-170.55C727,-169.68 727,-168.8 727,-167.92"/>
<polygon fill="gray" stroke="gray" points="728.05,-168.03 727,-165.03 725.95,-168.03 728.05,-168.03"/>
</g>
<!-- SR3C6 -->
<g id="node19" class="node">
<title>SR3C6</title>
<polygon fill="none" stroke="gray" points="753.88,-85.51 700.12,-85.51 700.12,-16 753.88,-16 753.88,-85.51"/>
<text text-anchor="start" x="724" y="-73.13" font-family="Menlo" font-size="10.00">R</text>
<text text-anchor="start" x="715" y="-60.38" font-family="Menlo" font-size="10.00">END </text>
<text text-anchor="start" x="706" y="-47.63" font-family="Menlo" font-size="10.00">fi [&quot;&quot;]</text>
<text text-anchor="start" x="703" y="-34.88" font-family="Menlo" font-size="10.00">fo [&quot;$&quot;]</text>
<text text-anchor="start" x="712" y="-22.13" font-family="Menlo" font-size="10.00">am []</text>
</g>
<!-- SR2C6&#45;&gt;SR3C6 -->
<g id="edge12" class="edge">
<title>SR2C6&#45;&gt;SR3C6</title>
<path fill="none" stroke="gray" d="M727,-93.04C727,-92.17 727,-91.29 727,-90.41"/>
<polygon fill="gray" stroke="gray" points="728.05,-90.52 727,-87.52 725.95,-90.52 728.05,-90.52"/>
</g>
<!-- SR3C6&#45;&gt;SR1C5 -->
<g id="edge40" class="edge">
<title>SR3C6:w&#45;&gt;SR1C5:s</title>
<path fill="none" stroke="red" d="M699,-50.76C678.88,-50.76 688.13,-76.8 670,-85.51 650.42,-94.92 294.21,-77.99 279,-93.51 257.38,-115.58 257.4,-140.94 279,-163.02 292.37,-176.69 605.74,-153.59 639.97,-168.11"/>
<polygon fill="red" stroke="red" points="639.02,-168.65 641.91,-169.97 640.48,-167.13 639.02,-168.65"/>
</g>
<!-- SR3C6&#45;&gt;SR1C6 -->
<g id="edge46" class="edge">
<title>SR3C6:e&#45;&gt;SR1C6</title>
<path fill="none" stroke="green" stroke-dasharray="1,5" d="M755,-50.76C770.45,-50.76 765.01,-74.67 754,-85.51 731.08,-108.09 197.59,-70.61 175,-93.51 153.31,-115.51 153.33,-141.01 175,-163.02 185.06,-173.23 677.71,-165.64 691,-171.02 692.7,-171.71 694.36,-172.51 695.99,-173.42"/>
<polygon fill="green" stroke="green" points="695.31,-174.23 698.42,-174.9 696.4,-172.44 695.31,-174.23"/>
</g>
<!-- SR0C6&#45;&gt;SR1C6 -->
<!-- SR1C0&#45;&gt;SR1C1 -->
<!-- SR2C0 -->
<!-- SR1C0&#45;&gt;SR2C0 -->
<!-- SR2C0&#45;&gt;SR2C1 -->
<!-- SR3C0 -->
<!-- SR2C0&#45;&gt;SR3C0 -->
<!-- SR3C0&#45;&gt;SR3C1 -->
<!-- SR3C1&#45;&gt;SR3C2 -->
<!-- SR3C3&#45;&gt;SR3C4 -->
<!-- SR3C5&#45;&gt;SR3C6 -->
</g>
</svg>
