<?xml version="1.0" encoding="UTF-8" standalone="no"?>
<!DOCTYPE svg PUBLIC "-//W3C//DTD SVG 1.1//EN"
 "http://www.w3.org/Graphics/SVG/1.1/DTD/svg11.dtd">
<!-- Generated by graphviz version 9.0.0 (20230911.1827)
 -->
<!-- Title: G Pages: 1 -->
<svg width="1024pt" height="448pt"
 viewBox="0.00 0.00 1024.00 448.30" xmlns="http://www.w3.org/2000/svg" xmlns:xlink="http://www.w3.org/1999/xlink">
<g id="graph0" class="graph" transform="scale(1 1) rotate(0) translate(4 444.3)">
<title>G</title>
<polygon fill="white" stroke="none" points="-4,4 -4,-444.3 1020,-444.3 1020,4 -4,4"/>
<g id="clust1" class="cluster">
<title>CallReturnForest</title>
<polygon fill="none" stroke="black" points="8,-274.03 8,-409.43 324,-409.43 324,-274.03 8,-274.03"/>
<text text-anchor="start" x="16" y="-395.93" font-family="Menlo" font-size="10.00" fill="green">↵a·b↵</text>
</g>
<g id="clust2" class="cluster">
<title>clusterS</title>
<polygon fill="none" stroke="black" points="332,-8 332,-432.3 810,-432.3 810,-8 332,-8"/>
<text text-anchor="start" x="340" y="-418.8" font-family="Menlo" font-size="10.00">S = &quot;a&quot; | S &quot;b&quot; | S [ &quot;b&quot; ] C .</text>
</g>
<g id="clust16" class="cluster">
<title>clusterC</title>
<polygon fill="none" stroke="black" points="818,-171.02 818,-432.3 1008,-432.3 1008,-171.02 818,-171.02"/>
<text text-anchor="start" x="826" y="-418.8" font-family="Menlo" font-size="10.00">C = &quot;c&quot; .</text>
</g>
<!-- 0.0 -->
<g id="node1" class="node">
<title>0.0</title>
<path fill="none" stroke="gray" d="M283.21,-380.68C283.21,-380.68 270.79,-380.68 270.79,-380.68 266.83,-380.68 262.87,-376.72 262.87,-372.75 262.87,-372.75 262.87,-364.84 262.87,-364.84 262.87,-360.88 266.83,-356.92 270.79,-356.92 270.79,-356.92 283.21,-356.92 283.21,-356.92 287.17,-356.92 291.13,-360.88 291.13,-364.84 291.13,-364.84 291.13,-372.75 291.13,-372.75 291.13,-376.72 287.17,-380.68 283.21,-380.68"/>
<text text-anchor="start" x="268" y="-369.3" font-family="Menlo" font-size="10.00">S,0</text>
<text text-anchor="start" x="265.75" y="-361.19" font-family="Menlo" font-size="8.00" fill="gray"> 1, 2</text>
</g>
<!-- 5.0 -->
<g id="node2" class="node">
<title>5.0</title>
<path fill="none" stroke="gray" d="M225.71,-300.54C225.71,-300.54 190.29,-300.54 190.29,-300.54 187.21,-300.54 184.12,-297.46 184.12,-294.37 184.12,-294.37 184.12,-288.2 184.12,-288.2 184.12,-285.12 187.21,-282.03 190.29,-282.03 190.29,-282.03 225.71,-282.03 225.71,-282.03 228.79,-282.03 231.88,-285.12 231.88,-288.2 231.88,-288.2 231.88,-294.37 231.88,-294.37 231.88,-297.46 228.79,-300.54 225.71,-300.54"/>
<text text-anchor="start" x="187" y="-288.16" font-family="Menlo" font-size="10.00">S=S·b,0</text>
</g>
<!-- 0.0&#45;&gt;5.0 -->
<g id="edge1" class="edge">
<title>0.0&#45;&gt;5.0</title>
<path fill="none" stroke="gray" d="M267.74,-356.72C262.12,-350.07 254.75,-341.48 248,-334.04 238.51,-323.58 227.36,-312 219.25,-303.7"/>
<polygon fill="gray" stroke="gray" points="220.32,-303.28 217.47,-301.87 218.82,-304.75 220.32,-303.28"/>
</g>
<!-- 9.0 -->
<g id="node3" class="node">
<title>9.0</title>
<path fill="none" stroke="gray" d="M309.71,-300.54C309.71,-300.54 256.29,-300.54 256.29,-300.54 253.21,-300.54 250.12,-297.46 250.12,-294.37 250.12,-294.37 250.12,-288.2 250.12,-288.2 250.12,-285.12 253.21,-282.03 256.29,-282.03 256.29,-282.03 309.71,-282.03 309.71,-282.03 312.8,-282.03 315.88,-285.12 315.88,-288.2 315.88,-288.2 315.88,-294.37 315.88,-294.37 315.88,-297.46 312.8,-300.54 309.71,-300.54"/>
<text text-anchor="start" x="253" y="-288.16" font-family="Menlo" font-size="10.00">S=S·[b]C,0</text>
</g>
<!-- 0.0&#45;&gt;9.0 -->
<g id="edge2" class="edge">
<title>0.0&#45;&gt;9.0</title>
<path fill="none" stroke="gray" d="M277.89,-356.65C278.98,-342.82 280.85,-319.3 282,-304.84"/>
<polygon fill="gray" stroke="gray" points="283.02,-305.25 282.21,-302.18 280.93,-305.08 283.02,-305.25"/>
</g>
<!-- 10.1 -->
<g id="node4" class="node">
<title>10.1</title>
<path fill="none" stroke="gray" d="M230.96,-380.68C230.96,-380.68 181.04,-380.68 181.04,-380.68 177.08,-380.68 173.12,-376.72 173.12,-372.75 173.12,-372.75 173.12,-364.84 173.12,-364.84 173.12,-360.88 177.08,-356.92 181.04,-356.92 181.04,-356.92 230.96,-356.92 230.96,-356.92 234.92,-356.92 238.88,-360.88 238.88,-364.84 238.88,-364.84 238.88,-372.75 238.88,-372.75 238.88,-376.72 234.92,-380.68 230.96,-380.68"/>
<text text-anchor="start" x="176" y="-369.3" font-family="Menlo" font-size="10.00">S=S[b]·C,1</text>
<text text-anchor="start" x="201.5" y="-361.19" font-family="Menlo" font-size="8.00" fill="gray"> 2</text>
</g>
<!-- 10.0 -->
<g id="node5" class="node">
<title>10.0</title>
<path fill="none" stroke="gray" d="M159.71,-300.54C159.71,-300.54 106.29,-300.54 106.29,-300.54 103.21,-300.54 100.12,-297.46 100.12,-294.37 100.12,-294.37 100.12,-288.2 100.12,-288.2 100.12,-285.12 103.2,-282.03 106.29,-282.03 106.29,-282.03 159.71,-282.03 159.71,-282.03 162.79,-282.03 165.88,-285.12 165.88,-288.2 165.88,-288.2 165.88,-294.37 165.88,-294.37 165.88,-297.46 162.79,-300.54 159.71,-300.54"/>
<text text-anchor="start" x="103" y="-288.16" font-family="Menlo" font-size="10.00">S=S[b]·C,0</text>
</g>
<!-- 10.1&#45;&gt;10.0 -->
<g id="edge3" class="edge">
<title>10.1&#45;&gt;10.0</title>
<path fill="none" stroke="gray" d="M195.23,-356.65C181.51,-342.47 157.93,-318.08 144.07,-303.74"/>
<polygon fill="gray" stroke="gray" points="145,-303.18 142.16,-301.76 143.49,-304.64 145,-303.18"/>
</g>
<!-- 10.2 -->
<g id="node6" class="node">
<title>10.2</title>
<path fill="none" stroke="gray" d="M146.96,-380.68C146.96,-380.68 97.04,-380.68 97.04,-380.68 93.08,-380.68 89.12,-376.72 89.12,-372.75 89.12,-372.75 89.12,-364.84 89.12,-364.84 89.12,-360.88 93.08,-356.92 97.04,-356.92 97.04,-356.92 146.96,-356.92 146.96,-356.92 150.92,-356.92 154.88,-360.88 154.88,-364.84 154.88,-364.84 154.88,-372.75 154.88,-372.75 154.88,-376.72 150.92,-380.68 146.96,-380.68"/>
<text text-anchor="start" x="92" y="-369.3" font-family="Menlo" font-size="10.00">S=S[b]·C,2</text>
<text text-anchor="start" x="119.75" y="-361.19" font-family="Menlo" font-size="8.00" fill="gray"> </text>
</g>
<!-- 10.2&#45;&gt;10.0 -->
<g id="edge4" class="edge">
<title>10.2&#45;&gt;10.0</title>
<path fill="none" stroke="gray" d="M123.62,-356.65C125.64,-342.82 129.06,-319.3 131.17,-304.84"/>
<polygon fill="gray" stroke="gray" points="132.17,-305.29 131.56,-302.17 130.09,-304.98 132.17,-305.29"/>
</g>
<!-- 16.2 -->
<g id="node7" class="node">
<title>16.2</title>
<path fill="none" stroke="gray" d="M52.96,-380.68C52.96,-380.68 45.04,-380.68 45.04,-380.68 41.08,-380.68 37.12,-376.72 37.12,-372.75 37.12,-372.75 37.12,-364.84 37.12,-364.84 37.12,-360.88 41.08,-356.92 45.04,-356.92 45.04,-356.92 52.96,-356.92 52.96,-356.92 56.92,-356.92 60.88,-360.88 60.88,-364.84 60.88,-364.84 60.88,-372.75 60.88,-372.75 60.88,-376.72 56.92,-380.68 52.96,-380.68"/>
<text text-anchor="start" x="40" y="-369.3" font-family="Menlo" font-size="10.00">C,2</text>
<text text-anchor="start" x="46.75" y="-361.19" font-family="Menlo" font-size="8.00" fill="gray"> </text>
</g>
<!-- 14.0 -->
<g id="node8" class="node">
<title>14.0</title>
<path fill="none" stroke="gray" d="M75.71,-300.54C75.71,-300.54 22.29,-300.54 22.29,-300.54 19.21,-300.54 16.12,-297.46 16.12,-294.37 16.12,-294.37 16.12,-288.2 16.12,-288.2 16.12,-285.12 19.2,-282.03 22.29,-282.03 22.29,-282.03 75.71,-282.03 75.71,-282.03 78.79,-282.03 81.88,-285.12 81.88,-288.2 81.88,-288.2 81.88,-294.37 81.88,-294.37 81.88,-297.46 78.8,-300.54 75.71,-300.54"/>
<text text-anchor="start" x="19" y="-288.16" font-family="Menlo" font-size="10.00">S=S[b]C·,0</text>
</g>
<!-- 16.2&#45;&gt;14.0 -->
<g id="edge5" class="edge">
<title>16.2&#45;&gt;14.0</title>
<path fill="none" stroke="gray" d="M49,-356.65C49,-342.82 49,-319.3 49,-304.84"/>
<polygon fill="gray" stroke="gray" points="50.05,-305.18 49,-302.18 47.95,-305.18 50.05,-305.18"/>
</g>
<!-- SR0C0 -->
<g id="node9" class="node">
<title>SR0C0</title>
<polygon fill="none" stroke="gray" points="429.88,-403.55 340.12,-403.55 340.12,-334.04 429.88,-334.04 429.88,-403.55"/>
<text text-anchor="start" x="382" y="-391.17" font-family="Menlo" font-size="10.00">0</text>
<text text-anchor="start" x="376" y="-378.42" font-family="Menlo" font-size="10.00">N S</text>
<text text-anchor="start" x="367" y="-365.67" font-family="Menlo" font-size="10.00">fi [a]</text>
<text text-anchor="start" x="349" y="-352.92" font-family="Menlo" font-size="10.00">fo [$, b, c]</text>
<text text-anchor="start" x="343" y="-340.17" font-family="Menlo" font-size="10.00">[0:0:1, 0:0:2]</text>
</g>
<!-- SR0C1 -->
<g id="node10" class="node">
<title>SR0C1</title>
<polygon fill="none" stroke="gray" points="525.88,-403.55 448.12,-403.55 448.12,-334.04 525.88,-334.04 525.88,-403.55"/>
<text text-anchor="start" x="484" y="-391.17" font-family="Menlo" font-size="10.00">1</text>
<text text-anchor="start" x="475" y="-378.42" font-family="Menlo" font-size="10.00">ALT </text>
<text text-anchor="start" x="469" y="-365.67" font-family="Menlo" font-size="10.00">fi [a]</text>
<text text-anchor="start" x="451" y="-352.92" font-family="Menlo" font-size="10.00">fo [$, b, c]</text>
<text text-anchor="start" x="481" y="-340.17" font-family="Menlo" font-size="10.00">[]</text>
</g>
<!-- SR0C0&#45;&gt;SR0C1 -->
<g id="edge20" class="edge">
<title>SR0C0&#45;&gt;SR0C1</title>
<path fill="none" stroke="gray" d="M430.02,-368.8C434.47,-368.8 438.93,-368.8 443.38,-368.8"/>
<polygon fill="gray" stroke="gray" points="443.32,-369.85 446.32,-368.8 443.32,-367.75 443.32,-369.85"/>
</g>
<!-- SR1C0 -->
<!-- SR0C0&#45;&gt;SR1C0 -->
<!-- SR1C1 -->
<g id="node11" class="node">
<title>SR1C1</title>
<polygon fill="none" stroke="gray" points="525.88,-326.04 448.12,-326.04 448.12,-256.53 525.88,-256.53 525.88,-326.04"/>
<text text-anchor="start" x="484" y="-313.66" font-family="Menlo" font-size="10.00">2</text>
<text text-anchor="start" x="472" y="-300.91" font-family="Menlo" font-size="10.00">T &quot;a&quot;</text>
<text text-anchor="start" x="469" y="-288.16" font-family="Menlo" font-size="10.00">fi [a]</text>
<text text-anchor="start" x="451" y="-275.41" font-family="Menlo" font-size="10.00">fo [$, b, c]</text>
<text text-anchor="start" x="466" y="-262.66" font-family="Menlo" font-size="10.00">[0:0:1]</text>
</g>
<!-- SR0C1&#45;&gt;SR1C1 -->
<g id="edge7" class="edge">
<title>SR0C1&#45;&gt;SR1C1</title>
<path fill="none" stroke="gray" d="M487,-333.57C487,-332.7 487,-331.82 487,-330.94"/>
<polygon fill="gray" stroke="gray" points="488.05,-331.05 487,-328.05 485.95,-331.05 488.05,-331.05"/>
</g>
<!-- SR0C2 -->
<g id="node13" class="node">
<title>SR0C2</title>
<polygon fill="none" stroke="gray" points="609.88,-403.55 568.12,-403.55 568.12,-334.04 609.88,-334.04 609.88,-403.55"/>
<text text-anchor="start" x="586" y="-391.17" font-family="Menlo" font-size="10.00">4</text>
<text text-anchor="start" x="577" y="-378.42" font-family="Menlo" font-size="10.00">ALT </text>
<text text-anchor="start" x="571" y="-365.67" font-family="Menlo" font-size="10.00">fi [a]</text>
<text text-anchor="start" x="571" y="-352.92" font-family="Menlo" font-size="10.00">fo [b]</text>
<text text-anchor="start" x="583" y="-340.17" font-family="Menlo" font-size="10.00">[]</text>
</g>
<!-- SR0C1&#45;&gt;SR0C2 -->
<g id="edge19" class="edge">
<title>SR0C1&#45;&gt;SR0C2</title>
<path fill="none" stroke="gray" d="M526.05,-368.8C538.57,-368.8 551.09,-368.8 563.61,-368.8"/>
<polygon fill="gray" stroke="gray" points="563.34,-369.85 566.34,-368.8 563.34,-367.75 563.34,-369.85"/>
</g>
<!-- SR2C1 -->
<g id="node12" class="node">
<title>SR2C1</title>
<polygon fill="none" stroke="gray" points="525.88,-248.53 448.12,-248.53 448.12,-179.02 525.88,-179.02 525.88,-248.53"/>
<text text-anchor="start" x="484" y="-236.15" font-family="Menlo" font-size="10.00">3</text>
<text text-anchor="start" x="475" y="-223.4" font-family="Menlo" font-size="10.00">END </text>
<text text-anchor="start" x="469" y="-210.65" font-family="Menlo" font-size="10.00">fi [ε]</text>
<text text-anchor="start" x="451" y="-197.9" font-family="Menlo" font-size="10.00">fo [$, b, c]</text>
<text text-anchor="start" x="481" y="-185.15" font-family="Menlo" font-size="10.00">[]</text>
</g>
<!-- SR1C1&#45;&gt;SR2C1 -->
<g id="edge6" class="edge">
<title>SR1C1&#45;&gt;SR2C1</title>
<path fill="none" stroke="gray" d="M487,-256.06C487,-255.19 487,-254.31 487,-253.43"/>
<polygon fill="gray" stroke="gray" points="488.05,-253.54 487,-250.54 485.95,-253.54 488.05,-253.54"/>
</g>
<!-- SR3C1 -->
<!-- SR2C1&#45;&gt;SR3C1 -->
<!-- SR1C2 -->
<g id="node14" class="node">
<title>SR1C2</title>
<polygon fill="none" stroke="gray" points="633.88,-326.04 544.12,-326.04 544.12,-256.53 633.88,-256.53 633.88,-326.04"/>
<text text-anchor="start" x="586" y="-313.66" font-family="Menlo" font-size="10.00">5</text>
<text text-anchor="start" x="580" y="-300.91" font-family="Menlo" font-size="10.00">N S</text>
<text text-anchor="start" x="571" y="-288.16" font-family="Menlo" font-size="10.00">fi [a]</text>
<text text-anchor="start" x="571" y="-275.41" font-family="Menlo" font-size="10.00">fo [b]</text>
<text text-anchor="start" x="547" y="-262.66" font-family="Menlo" font-size="10.00">[0:0:1, 0:0:2]</text>
</g>
<!-- SR0C2&#45;&gt;SR1C2 -->
<g id="edge10" class="edge">
<title>SR0C2&#45;&gt;SR1C2</title>
<path fill="none" stroke="gray" d="M589,-333.57C589,-332.7 589,-331.82 589,-330.94"/>
<polygon fill="gray" stroke="gray" points="590.05,-331.05 589,-328.05 587.95,-331.05 590.05,-331.05"/>
</g>
<!-- SR0C3 -->
<g id="node17" class="node">
<title>SR0C3</title>
<polygon fill="none" stroke="gray" points="726.88,-403.55 667.12,-403.55 667.12,-334.04 726.88,-334.04 726.88,-403.55"/>
<text text-anchor="start" x="694" y="-391.17" font-family="Menlo" font-size="10.00">8</text>
<text text-anchor="start" x="685" y="-378.42" font-family="Menlo" font-size="10.00">ALT </text>
<text text-anchor="start" x="679" y="-365.67" font-family="Menlo" font-size="10.00">fi [a]</text>
<text text-anchor="start" x="670" y="-352.92" font-family="Menlo" font-size="10.00">fo [b, c]</text>
<text text-anchor="start" x="691" y="-340.17" font-family="Menlo" font-size="10.00">[]</text>
</g>
<!-- SR0C2&#45;&gt;SR0C3 -->
<g id="edge18" class="edge">
<title>SR0C2&#45;&gt;SR0C3</title>
<path fill="none" stroke="gray" d="M610.09,-368.8C627.51,-368.8 644.94,-368.8 662.36,-368.8"/>
<polygon fill="gray" stroke="gray" points="662.27,-369.85 665.27,-368.8 662.27,-367.75 662.27,-369.85"/>
</g>
<!-- SR2C2 -->
<g id="node15" class="node">
<title>SR2C2</title>
<polygon fill="none" stroke="gray" points="627.88,-248.53 550.12,-248.53 550.12,-179.02 627.88,-179.02 627.88,-248.53"/>
<text text-anchor="start" x="586" y="-236.15" font-family="Menlo" font-size="10.00">6</text>
<text text-anchor="start" x="574" y="-223.4" font-family="Menlo" font-size="10.00">T &quot;b&quot;</text>
<text text-anchor="start" x="571" y="-210.65" font-family="Menlo" font-size="10.00">fi [b]</text>
<text text-anchor="start" x="553" y="-197.9" font-family="Menlo" font-size="10.00">fo [$, b, c]</text>
<text text-anchor="start" x="568" y="-185.15" font-family="Menlo" font-size="10.00">[0:1:2]</text>
</g>
<!-- SR1C2&#45;&gt;SR2C2 -->
<g id="edge9" class="edge">
<title>SR1C2&#45;&gt;SR2C2</title>
<path fill="none" stroke="gray" d="M589,-256.06C589,-255.19 589,-254.31 589,-253.43"/>
<polygon fill="gray" stroke="gray" points="590.05,-253.54 589,-250.54 587.95,-253.54 590.05,-253.54"/>
</g>
<!-- SR3C2 -->
<g id="node16" class="node">
<title>SR3C2</title>
<polygon fill="none" stroke="gray" points="627.88,-163.02 550.12,-163.02 550.12,-93.51 627.88,-93.51 627.88,-163.02"/>
<text text-anchor="start" x="586" y="-150.64" font-family="Menlo" font-size="10.00">7</text>
<text text-anchor="start" x="577" y="-137.89" font-family="Menlo" font-size="10.00">END </text>
<text text-anchor="start" x="571" y="-125.14" font-family="Menlo" font-size="10.00">fi [ε]</text>
<text text-anchor="start" x="553" y="-112.39" font-family="Menlo" font-size="10.00">fo [$, b, c]</text>
<text text-anchor="start" x="583" y="-99.64" font-family="Menlo" font-size="10.00">[]</text>
</g>
<!-- SR2C2&#45;&gt;SR3C2 -->
<g id="edge8" class="edge">
<title>SR2C2&#45;&gt;SR3C2</title>
<path fill="none" stroke="gray" d="M589,-178.81C589,-175.17 589,-171.46 589,-167.77"/>
<polygon fill="gray" stroke="gray" points="590.05,-167.99 589,-164.99 587.95,-167.99 590.05,-167.99"/>
</g>
<!-- SR4C2 -->
<!-- SR3C2&#45;&gt;SR4C2 -->
<!-- SR1C3 -->
<g id="node18" class="node">
<title>SR1C3</title>
<polygon fill="none" stroke="gray" points="741.88,-326.04 652.12,-326.04 652.12,-256.53 741.88,-256.53 741.88,-326.04"/>
<text text-anchor="start" x="694" y="-313.66" font-family="Menlo" font-size="10.00">9</text>
<text text-anchor="start" x="688" y="-300.91" font-family="Menlo" font-size="10.00">N S</text>
<text text-anchor="start" x="679" y="-288.16" font-family="Menlo" font-size="10.00">fi [a]</text>
<text text-anchor="start" x="670" y="-275.41" font-family="Menlo" font-size="10.00">fo [b, c]</text>
<text text-anchor="start" x="655" y="-262.66" font-family="Menlo" font-size="10.00">[0:0:1, 0:0:2]</text>
</g>
<!-- SR0C3&#45;&gt;SR1C3 -->
<g id="edge17" class="edge">
<title>SR0C3&#45;&gt;SR1C3</title>
<path fill="none" stroke="gray" d="M697,-333.57C697,-332.7 697,-331.82 697,-330.94"/>
<polygon fill="gray" stroke="gray" points="698.05,-331.05 697,-328.05 695.95,-331.05 698.05,-331.05"/>
</g>
<!-- SR0C4 -->
<!-- SR0C3&#45;&gt;SR0C4 -->
<!-- SR2C3 -->
<g id="node19" class="node">
<title>SR2C3</title>
<polygon fill="none" stroke="gray" points="726.88,-248.53 667.12,-248.53 667.12,-179.02 726.88,-179.02 726.88,-248.53"/>
<text text-anchor="start" x="691" y="-236.15" font-family="Menlo" font-size="10.00">10</text>
<text text-anchor="start" x="685" y="-223.4" font-family="Menlo" font-size="10.00">OPT </text>
<text text-anchor="start" x="670" y="-210.65" font-family="Menlo" font-size="10.00">fi [b, c]</text>
<text text-anchor="start" x="679" y="-197.9" font-family="Menlo" font-size="10.00">fo [c]</text>
<text text-anchor="start" x="676" y="-185.15" font-family="Menlo" font-size="10.00">[0:1:2]</text>
</g>
<!-- SR1C3&#45;&gt;SR2C3 -->
<g id="edge16" class="edge">
<title>SR1C3&#45;&gt;SR2C3</title>
<path fill="none" stroke="gray" d="M697,-256.06C697,-255.19 697,-254.31 697,-253.43"/>
<polygon fill="gray" stroke="gray" points="698.05,-253.54 697,-250.54 695.95,-253.54 698.05,-253.54"/>
</g>
<!-- SR1C4 -->
<!-- SR1C3&#45;&gt;SR1C4 -->
<!-- SR3C3 -->
<g id="node20" class="node">
<title>SR3C3</title>
<polygon fill="none" stroke="gray" points="735.88,-163.02 658.12,-163.02 658.12,-93.51 735.88,-93.51 735.88,-163.02"/>
<text text-anchor="start" x="691" y="-150.64" font-family="Menlo" font-size="10.00">14</text>
<text text-anchor="start" x="688" y="-137.89" font-family="Menlo" font-size="10.00">N C</text>
<text text-anchor="start" x="679" y="-125.14" font-family="Menlo" font-size="10.00">fi [c]</text>
<text text-anchor="start" x="661" y="-112.39" font-family="Menlo" font-size="10.00">fo [$, b, c]</text>
<text text-anchor="start" x="691" y="-99.64" font-family="Menlo" font-size="10.00">[]</text>
</g>
<!-- SR2C3&#45;&gt;SR3C3 -->
<g id="edge12" class="edge">
<title>SR2C3&#45;&gt;SR3C3</title>
<path fill="none" stroke="gray" d="M697,-178.81C697,-175.17 697,-171.46 697,-167.77"/>
<polygon fill="gray" stroke="gray" points="698.05,-167.99 697,-164.99 695.95,-167.99 698.05,-167.99"/>
</g>
<!-- SR2C4 -->
<g id="node22" class="node">
<title>SR2C4</title>
<polygon fill="none" stroke="gray" points="798.88,-248.53 757.12,-248.53 757.12,-179.02 798.88,-179.02 798.88,-248.53"/>
<text text-anchor="start" x="772" y="-236.15" font-family="Menlo" font-size="10.00">11</text>
<text text-anchor="start" x="766" y="-223.4" font-family="Menlo" font-size="10.00">ALT </text>
<text text-anchor="start" x="760" y="-210.65" font-family="Menlo" font-size="10.00">fi [b]</text>
<text text-anchor="start" x="760" y="-197.9" font-family="Menlo" font-size="10.00">fo [c]</text>
<text text-anchor="start" x="772" y="-185.15" font-family="Menlo" font-size="10.00">[]</text>
</g>
<!-- SR2C3&#45;&gt;SR2C4 -->
<g id="edge15" class="edge">
<title>SR2C3&#45;&gt;SR2C4</title>
<path fill="none" stroke="gray" d="M727.38,-213.78C735.76,-213.78 744.14,-213.78 752.53,-213.78"/>
<polygon fill="gray" stroke="gray" points="752.13,-214.83 755.13,-213.78 752.13,-212.73 752.13,-214.83"/>
</g>
<!-- SR4C3 -->
<g id="node21" class="node">
<title>SR4C3</title>
<polygon fill="none" stroke="gray" points="735.88,-85.51 658.12,-85.51 658.12,-16 735.88,-16 735.88,-85.51"/>
<text text-anchor="start" x="691" y="-73.13" font-family="Menlo" font-size="10.00">15</text>
<text text-anchor="start" x="685" y="-60.38" font-family="Menlo" font-size="10.00">END </text>
<text text-anchor="start" x="679" y="-47.63" font-family="Menlo" font-size="10.00">fi [ε]</text>
<text text-anchor="start" x="661" y="-34.88" font-family="Menlo" font-size="10.00">fo [$, b, c]</text>
<text text-anchor="start" x="691" y="-22.13" font-family="Menlo" font-size="10.00">[]</text>
</g>
<!-- SR3C3&#45;&gt;SR4C3 -->
<g id="edge11" class="edge">
<title>SR3C3&#45;&gt;SR4C3</title>
<path fill="none" stroke="gray" d="M697,-93.04C697,-92.17 697,-91.29 697,-90.41"/>
<polygon fill="gray" stroke="gray" points="698.05,-90.52 697,-87.52 695.95,-90.52 698.05,-90.52"/>
</g>
<!-- SR3C4 -->
<g id="node23" class="node">
<title>SR3C4</title>
<polygon fill="none" stroke="gray" points="801.88,-163.02 754.12,-163.02 754.12,-93.51 801.88,-93.51 801.88,-163.02"/>
<text text-anchor="start" x="772" y="-150.64" font-family="Menlo" font-size="10.00">12</text>
<text text-anchor="start" x="763" y="-137.89" font-family="Menlo" font-size="10.00">T &quot;b&quot;</text>
<text text-anchor="start" x="760" y="-125.14" font-family="Menlo" font-size="10.00">fi [b]</text>
<text text-anchor="start" x="760" y="-112.39" font-family="Menlo" font-size="10.00">fo [c]</text>
<text text-anchor="start" x="757" y="-99.64" font-family="Menlo" font-size="10.00">[1:1:2]</text>
</g>
<!-- SR2C4&#45;&gt;SR3C4 -->
<g id="edge14" class="edge">
<title>SR2C4&#45;&gt;SR3C4</title>
<path fill="none" stroke="gray" d="M778,-178.81C778,-175.17 778,-171.46 778,-167.77"/>
<polygon fill="gray" stroke="gray" points="779.05,-167.99 778,-164.99 776.95,-167.99 779.05,-167.99"/>
</g>
<!-- SR4C4 -->
<g id="node24" class="node">
<title>SR4C4</title>
<polygon fill="none" stroke="gray" points="798.88,-85.51 757.12,-85.51 757.12,-16 798.88,-16 798.88,-85.51"/>
<text text-anchor="start" x="772" y="-73.13" font-family="Menlo" font-size="10.00">13</text>
<text text-anchor="start" x="766" y="-60.38" font-family="Menlo" font-size="10.00">END </text>
<text text-anchor="start" x="760" y="-47.63" font-family="Menlo" font-size="10.00">fi [ε]</text>
<text text-anchor="start" x="760" y="-34.88" font-family="Menlo" font-size="10.00">fo [c]</text>
<text text-anchor="start" x="772" y="-22.13" font-family="Menlo" font-size="10.00">[]</text>
</g>
<!-- SR3C4&#45;&gt;SR4C4 -->
<g id="edge13" class="edge">
<title>SR3C4&#45;&gt;SR4C4</title>
<path fill="none" stroke="gray" d="M778,-93.04C778,-92.17 778,-91.29 778,-90.41"/>
<polygon fill="gray" stroke="gray" points="779.05,-90.52 778,-87.52 776.95,-90.52 779.05,-90.52"/>
</g>
<!-- SR0C4&#45;&gt;SR1C4 -->
<!-- SR1C0&#45;&gt;SR1C1 -->
<!-- SR2C0 -->
<!-- SR1C0&#45;&gt;SR2C0 -->
<!-- SR1C4&#45;&gt;SR2C4 -->
<!-- SR2C0&#45;&gt;SR2C1 -->
<!-- SR3C0 -->
<!-- SR2C0&#45;&gt;SR3C0 -->
<!-- SR3C0&#45;&gt;SR3C1 -->
<!-- SR4C0 -->
<!-- SR3C0&#45;&gt;SR4C0 -->
<!-- SR3C1&#45;&gt;SR3C2 -->
<!-- SR4C1 -->
<!-- SR3C1&#45;&gt;SR4C1 -->
<!-- SR4C0&#45;&gt;SR4C1 -->
<!-- SR4C1&#45;&gt;SR4C2 -->
<!-- SR4C2&#45;&gt;SR4C3 -->
<!-- CR0C0 -->
<g id="node34" class="node">
<title>CR0C0</title>
<polygon fill="none" stroke="gray" points="903.88,-403.55 826.12,-403.55 826.12,-334.04 903.88,-334.04 903.88,-403.55"/>
<text text-anchor="start" x="859" y="-391.17" font-family="Menlo" font-size="10.00">16</text>
<text text-anchor="start" x="856" y="-378.42" font-family="Menlo" font-size="10.00">N C</text>
<text text-anchor="start" x="847" y="-365.67" font-family="Menlo" font-size="10.00">fi [c]</text>
<text text-anchor="start" x="829" y="-352.92" font-family="Menlo" font-size="10.00">fo [$, b, c]</text>
<text text-anchor="start" x="859" y="-340.17" font-family="Menlo" font-size="10.00">[]</text>
</g>
<!-- CR0C1 -->
<g id="node35" class="node">
<title>CR0C1</title>
<polygon fill="none" stroke="gray" points="999.88,-403.55 922.12,-403.55 922.12,-334.04 999.88,-334.04 999.88,-403.55"/>
<text text-anchor="start" x="955" y="-391.17" font-family="Menlo" font-size="10.00">17</text>
<text text-anchor="start" x="949" y="-378.42" font-family="Menlo" font-size="10.00">ALT </text>
<text text-anchor="start" x="943" y="-365.67" font-family="Menlo" font-size="10.00">fi [c]</text>
<text text-anchor="start" x="925" y="-352.92" font-family="Menlo" font-size="10.00">fo [$, b, c]</text>
<text text-anchor="start" x="955" y="-340.17" font-family="Menlo" font-size="10.00">[]</text>
</g>
<!-- CR0C0&#45;&gt;CR0C1 -->
<g id="edge41" class="edge">
<title>CR0C0&#45;&gt;CR0C1</title>
<path fill="none" stroke="gray" d="M904.38,-368.8C908.69,-368.8 913,-368.8 917.31,-368.8"/>
<polygon fill="gray" stroke="gray" points="917.11,-369.85 920.11,-368.8 917.11,-367.75 917.11,-369.85"/>
</g>
<!-- CR1C0 -->
<!-- CR0C0&#45;&gt;CR1C0 -->
<!-- CR1C1 -->
<g id="node36" class="node">
<title>CR1C1</title>
<polygon fill="none" stroke="gray" points="999.88,-326.04 922.12,-326.04 922.12,-256.53 999.88,-256.53 999.88,-326.04"/>
<text text-anchor="start" x="955" y="-313.66" font-family="Menlo" font-size="10.00">18</text>
<text text-anchor="start" x="946" y="-300.91" font-family="Menlo" font-size="10.00">T &quot;c&quot;</text>
<text text-anchor="start" x="943" y="-288.16" font-family="Menlo" font-size="10.00">fi [c]</text>
<text text-anchor="start" x="925" y="-275.41" font-family="Menlo" font-size="10.00">fo [$, b, c]</text>
<text text-anchor="start" x="955" y="-262.66" font-family="Menlo" font-size="10.00">[]</text>
</g>
<!-- CR0C1&#45;&gt;CR1C1 -->
<g id="edge40" class="edge">
<title>CR0C1&#45;&gt;CR1C1</title>
<path fill="none" stroke="gray" d="M961,-333.57C961,-332.7 961,-331.82 961,-330.94"/>
<polygon fill="gray" stroke="gray" points="962.05,-331.05 961,-328.05 959.95,-331.05 962.05,-331.05"/>
</g>
<!-- CR2C1 -->
<g id="node37" class="node">
<title>CR2C1</title>
<polygon fill="none" stroke="gray" points="999.88,-248.53 922.12,-248.53 922.12,-179.02 999.88,-179.02 999.88,-248.53"/>
<text text-anchor="start" x="955" y="-236.15" font-family="Menlo" font-size="10.00">19</text>
<text text-anchor="start" x="949" y="-223.4" font-family="Menlo" font-size="10.00">END </text>
<text text-anchor="start" x="943" y="-210.65" font-family="Menlo" font-size="10.00">fi [ε]</text>
<text text-anchor="start" x="925" y="-197.9" font-family="Menlo" font-size="10.00">fo [$, b, c]</text>
<text text-anchor="start" x="955" y="-185.15" font-family="Menlo" font-size="10.00">[]</text>
</g>
<!-- CR1C1&#45;&gt;CR2C1 -->
<g id="edge39" class="edge">
<title>CR1C1&#45;&gt;CR2C1</title>
<path fill="none" stroke="gray" d="M961,-256.06C961,-255.19 961,-254.31 961,-253.43"/>
<polygon fill="gray" stroke="gray" points="962.05,-253.54 961,-250.54 959.95,-253.54 962.05,-253.54"/>
</g>
<!-- CR1C0&#45;&gt;CR1C1 -->
<!-- CR2C0 -->
<!-- CR1C0&#45;&gt;CR2C0 -->
<!-- CR2C0&#45;&gt;CR2C1 -->
</g>
</svg>
