<?xml version="1.0" encoding="UTF-8" standalone="no"?>
<!DOCTYPE svg PUBLIC "-//W3C//DTD SVG 1.1//EN"
 "http://www.w3.org/Graphics/SVG/1.1/DTD/svg11.dtd">
<!-- Generated by graphviz version 9.0.0 (20230911.1827)
 -->
<!-- Title: G Pages: 1 -->
<svg width="232pt" height="312pt"
 viewBox="0.00 0.00 232.00 311.79" xmlns="http://www.w3.org/2000/svg" xmlns:xlink="http://www.w3.org/1999/xlink">
<g id="graph0" class="graph" transform="scale(1 1) rotate(0) translate(4 307.79)">
<title>G</title>
<polygon fill="white" stroke="none" points="-4,4 -4,-307.79 228,-307.79 228,4 -4,4"/>
<g id="clust2" class="cluster">
<title>clusterS</title>
<polygon fill="none" stroke="black" points="8,-8 8,-295.79 216,-295.79 216,-8 8,-8"/>
<text text-anchor="start" x="16" y="-282.29" font-family="Menlo" font-size="10.00">S = &quot;for&quot; &quot;identifier&quot; .</text>
</g>
<!-- SR0C0 -->
<g id="node1" class="node">
<title>SR0C0</title>
<polygon fill="none" stroke="gray" points="81.88,-267.04 16.12,-267.04 16.12,-210.28 81.88,-210.28 81.88,-267.04"/>
<text text-anchor="start" x="46" y="-254.66" font-family="Menlo" font-size="10.00">G</text>
<text text-anchor="start" x="40" y="-241.91" font-family="Menlo" font-size="10.00">N S</text>
<text text-anchor="start" x="19" y="-229.16" font-family="Menlo" font-size="10.00">fi [&quot;for&quot;]</text>
<text text-anchor="start" x="25" y="-216.41" font-family="Menlo" font-size="10.00">fo [&quot;$&quot;]</text>
</g>
<!-- SR0C1 -->
<g id="node2" class="node">
<title>SR0C1</title>
<polygon fill="none" stroke="gray" points="207.88,-267.04 100.12,-267.04 100.12,-210.28 207.88,-210.28 207.88,-267.04"/>
<text text-anchor="start" x="151" y="-254.66" font-family="Menlo" font-size="10.00">C</text>
<text text-anchor="start" x="142" y="-241.91" font-family="Menlo" font-size="10.00">ALT </text>
<text text-anchor="start" x="124" y="-229.16" font-family="Menlo" font-size="10.00">fi [&quot;for&quot;]</text>
<text text-anchor="start" x="103" y="-216.41" font-family="Menlo" font-size="10.00">fo [&quot;identifier&quot;]</text>
</g>
<!-- SR0C0&#45;&gt;SR0C1 -->
<g id="edge4" class="edge">
<title>SR0C0&#45;&gt;SR0C1</title>
<path fill="none" stroke="gray" d="M82.22,-238.66C86.64,-238.66 91.05,-238.66 95.47,-238.66"/>
<polygon fill="gray" stroke="gray" points="95.37,-239.71 98.37,-238.66 95.37,-237.61 95.37,-239.71"/>
</g>
<!-- SR1C0 -->
<!-- SR0C0&#45;&gt;SR1C0 -->
<!-- SR1C1 -->
<g id="node3" class="node">
<title>SR1C1</title>
<polygon fill="none" stroke="gray" points="207.88,-202.28 100.12,-202.28 100.12,-145.52 207.88,-145.52 207.88,-202.28"/>
<text text-anchor="start" x="151" y="-189.9" font-family="Menlo" font-size="10.00">D</text>
<text text-anchor="start" x="133" y="-177.15" font-family="Menlo" font-size="10.00">T &quot;for&quot;</text>
<text text-anchor="start" x="124" y="-164.4" font-family="Menlo" font-size="10.00">fi [&quot;for&quot;]</text>
<text text-anchor="start" x="103" y="-151.65" font-family="Menlo" font-size="10.00">fo [&quot;identifier&quot;]</text>
</g>
<!-- SR0C1&#45;&gt;SR1C1 -->
<g id="edge3" class="edge">
<title>SR0C1&#45;&gt;SR1C1</title>
<path fill="none" stroke="gray" d="M154,-209.95C154,-208.86 154,-207.76 154,-206.66"/>
<polygon fill="gray" stroke="gray" points="155.05,-206.95 154,-203.95 152.95,-206.95 155.05,-206.95"/>
</g>
<!-- SR2C1 -->
<g id="node4" class="node">
<title>SR2C1</title>
<polygon fill="none" stroke="gray" points="207.88,-137.52 100.12,-137.52 100.12,-80.76 207.88,-80.76 207.88,-137.52"/>
<text text-anchor="start" x="151" y="-125.14" font-family="Menlo" font-size="10.00">E</text>
<text text-anchor="start" x="112" y="-112.39" font-family="Menlo" font-size="10.00">T &quot;identifier&quot;</text>
<text text-anchor="start" x="103" y="-99.64" font-family="Menlo" font-size="10.00">fi [&quot;identifier&quot;]</text>
<text text-anchor="start" x="130" y="-86.89" font-family="Menlo" font-size="10.00">fo [&quot;$&quot;]</text>
</g>
<!-- SR1C1&#45;&gt;SR2C1 -->
<g id="edge2" class="edge">
<title>SR1C1&#45;&gt;SR2C1</title>
<path fill="none" stroke="gray" d="M154,-145.19C154,-144.1 154,-143 154,-141.9"/>
<polygon fill="gray" stroke="gray" points="155.05,-142.19 154,-139.19 152.95,-142.19 155.05,-142.19"/>
</g>
<!-- SR3C1 -->
<g id="node5" class="node">
<title>SR3C1</title>
<polygon fill="none" stroke="gray" points="180.88,-72.76 127.12,-72.76 127.12,-16 180.88,-16 180.88,-72.76"/>
<text text-anchor="start" x="151" y="-60.38" font-family="Menlo" font-size="10.00">F</text>
<text text-anchor="start" x="142" y="-47.63" font-family="Menlo" font-size="10.00">END </text>
<text text-anchor="start" x="133" y="-34.88" font-family="Menlo" font-size="10.00">fi [&quot;&quot;]</text>
<text text-anchor="start" x="130" y="-22.13" font-family="Menlo" font-size="10.00">fo [&quot;$&quot;]</text>
</g>
<!-- SR2C1&#45;&gt;SR3C1 -->
<g id="edge1" class="edge">
<title>SR2C1&#45;&gt;SR3C1</title>
<path fill="none" stroke="gray" d="M154,-80.43C154,-79.34 154,-78.24 154,-77.14"/>
<polygon fill="gray" stroke="gray" points="155.05,-77.43 154,-74.43 152.95,-77.43 155.05,-77.43"/>
</g>
<!-- SR1C0&#45;&gt;SR1C1 -->
<!-- SR2C0 -->
<!-- SR1C0&#45;&gt;SR2C0 -->
<!-- SR2C0&#45;&gt;SR2C1 -->
<!-- SR3C0 -->
<!-- SR2C0&#45;&gt;SR3C0 -->
<!-- SR3C0&#45;&gt;SR3C1 -->
</g>
</svg>
