<?xml version="1.0" encoding="UTF-8" standalone="no"?>
<!DOCTYPE svg PUBLIC "-//W3C//DTD SVG 1.1//EN"
 "http://www.w3.org/Graphics/SVG/1.1/DTD/svg11.dtd">
<!-- Generated by graphviz version 9.0.0 (20230911.1827)
 -->
<!-- Title: G Pages: 1 -->
<svg width="274pt" height="548pt"
 viewBox="0.00 0.00 274.13 547.81" xmlns="http://www.w3.org/2000/svg" xmlns:xlink="http://www.w3.org/1999/xlink">
<g id="graph0" class="graph" transform="scale(1 1) rotate(0) translate(4 543.81)">
<title>G</title>
<polygon fill="white" stroke="none" points="-4,4 -4,-543.81 270.13,-543.81 270.13,4 -4,4"/>
<g id="clust1" class="cluster">
<title>clusterS</title>
<polygon fill="none" stroke="black" points="8,-8 8,-531.81 256,-531.81 256,-8 8,-8"/>
<text text-anchor="start" x="16" y="-518.31" font-family="Menlo" font-size="10.00">S = ( ( ( &quot;a&quot; ) ) ) .</text>
</g>
<!-- 14 -->
<g id="node1" class="node">
<title>14</title>
<polygon fill="none" stroke="gray" points="69.88,-503.06 16.12,-503.06 16.12,-433.55 69.88,-433.55 69.88,-503.06"/>
<text text-anchor="start" x="37" y="-490.68" font-family="Menlo" font-size="10.00">14</text>
<text text-anchor="start" x="34" y="-477.93" font-family="Menlo" font-size="10.00">N S</text>
<text text-anchor="start" x="19" y="-465.18" font-family="Menlo" font-size="10.00">fi [&quot;a&quot;]</text>
<text text-anchor="start" x="22" y="-452.43" font-family="Menlo" font-size="10.00">fo [&quot;&quot;]</text>
<text text-anchor="start" x="28" y="-439.68" font-family="Menlo" font-size="10.00">am []</text>
</g>
<!-- 2 -->
<g id="node2" class="node">
<title>2</title>
<polygon fill="none" stroke="gray" points="141.88,-503.06 88.12,-503.06 88.12,-433.55 141.88,-433.55 141.88,-503.06"/>
<text text-anchor="start" x="112" y="-490.68" font-family="Menlo" font-size="10.00">2</text>
<text text-anchor="start" x="103" y="-477.93" font-family="Menlo" font-size="10.00">ALT </text>
<text text-anchor="start" x="91" y="-465.18" font-family="Menlo" font-size="10.00">fi [&quot;a&quot;]</text>
<text text-anchor="start" x="94" y="-452.43" font-family="Menlo" font-size="10.00">fo [&quot;&quot;]</text>
<text text-anchor="start" x="100" y="-439.68" font-family="Menlo" font-size="10.00">am []</text>
</g>
<!-- 14&#45;&gt;2 -->
<g id="edge1" class="edge">
<title>14&#45;&gt;2</title>
<path fill="none" stroke="gray" d="M70.28,-468.31C74.65,-468.31 79.02,-468.31 83.38,-468.31"/>
<polygon fill="gray" stroke="gray" points="83.24,-469.36 86.24,-468.31 83.24,-467.26 83.24,-469.36"/>
</g>
<!-- 12 -->
<g id="node3" class="node">
<title>12</title>
<polygon fill="none" stroke="gray" points="135.88,-419.55 82.12,-419.55 82.12,-350.04 135.88,-350.04 135.88,-419.55"/>
<text text-anchor="start" x="103" y="-407.17" font-family="Menlo" font-size="10.00">12</text>
<text text-anchor="start" x="100" y="-394.42" font-family="Menlo" font-size="10.00">DO </text>
<text text-anchor="start" x="85" y="-381.67" font-family="Menlo" font-size="10.00">fi [&quot;a&quot;]</text>
<text text-anchor="start" x="88" y="-368.92" font-family="Menlo" font-size="10.00">fo [&quot;&quot;]</text>
<text text-anchor="start" x="94" y="-356.17" font-family="Menlo" font-size="10.00">am []</text>
</g>
<!-- 2&#45;&gt;12 -->
<g id="edge2" class="edge">
<title>2&#45;&gt;12</title>
<path fill="none" stroke="gray" d="M112.49,-433.21C112.27,-430.21 112.05,-427.16 111.82,-424.13"/>
<polygon fill="gray" stroke="gray" points="112.9,-424.44 111.63,-421.53 110.8,-424.59 112.9,-424.44"/>
</g>
<!-- 3 -->
<g id="node4" class="node">
<title>3</title>
<polygon fill="none" stroke="gray" points="227.88,-419.55 174.12,-419.55 174.12,-350.04 227.88,-350.04 227.88,-419.55"/>
<text text-anchor="start" x="198" y="-407.17" font-family="Menlo" font-size="10.00">3</text>
<text text-anchor="start" x="189" y="-394.42" font-family="Menlo" font-size="10.00">ALT </text>
<text text-anchor="start" x="177" y="-381.67" font-family="Menlo" font-size="10.00">fi [&quot;a&quot;]</text>
<text text-anchor="start" x="180" y="-368.92" font-family="Menlo" font-size="10.00">fo [&quot;&quot;]</text>
<text text-anchor="start" x="186" y="-356.17" font-family="Menlo" font-size="10.00">am []</text>
</g>
<!-- 12&#45;&gt;3 -->
<g id="edge3" class="edge">
<title>12&#45;&gt;3</title>
<path fill="none" stroke="gray" d="M136.31,-384.8C147.32,-384.8 158.32,-384.8 169.33,-384.8"/>
<polygon fill="gray" stroke="gray" points="169.2,-385.85 172.2,-384.8 169.2,-383.75 169.2,-385.85"/>
</g>
<!-- 13 -->
<g id="node13" class="node">
<title>13</title>
<polygon fill="none" stroke="gray" points="227.88,-336.04 180.12,-336.04 180.12,-266.53 227.88,-266.53 227.88,-336.04"/>
<text text-anchor="start" x="198" y="-323.66" font-family="Menlo" font-size="10.00">13</text>
<text text-anchor="start" x="192" y="-310.91" font-family="Menlo" font-size="10.00">END </text>
<text text-anchor="start" x="183" y="-298.16" font-family="Menlo" font-size="10.00">fi [&quot;&quot;]</text>
<text text-anchor="start" x="183" y="-285.41" font-family="Menlo" font-size="10.00">fo [&quot;&quot;]</text>
<text text-anchor="start" x="189" y="-272.66" font-family="Menlo" font-size="10.00">am []</text>
</g>
<!-- 12&#45;&gt;13 -->
<g id="edge12" class="edge">
<title>12&#45;&gt;13</title>
<path fill="none" stroke="gray" d="M136.04,-360.89C140.64,-357.18 145.41,-353.45 150,-350.04 159.01,-343.36 162.37,-343.2 171,-336.04 172.81,-334.54 174.64,-332.94 176.44,-331.3"/>
<polygon fill="gray" stroke="gray" points="177.08,-332.14 178.56,-329.33 175.65,-330.61 177.08,-332.14"/>
</g>
<!-- 10 -->
<g id="node5" class="node">
<title>10</title>
<polygon fill="none" stroke="gray" points="69.88,-336.04 16.12,-336.04 16.12,-266.53 69.88,-266.53 69.88,-336.04"/>
<text text-anchor="start" x="37" y="-323.66" font-family="Menlo" font-size="10.00">10</text>
<text text-anchor="start" x="34" y="-310.91" font-family="Menlo" font-size="10.00">DO </text>
<text text-anchor="start" x="19" y="-298.16" font-family="Menlo" font-size="10.00">fi [&quot;a&quot;]</text>
<text text-anchor="start" x="22" y="-285.41" font-family="Menlo" font-size="10.00">fo [&quot;&quot;]</text>
<text text-anchor="start" x="28" y="-272.66" font-family="Menlo" font-size="10.00">am []</text>
</g>
<!-- 3&#45;&gt;10 -->
<g id="edge4" class="edge">
<title>3&#45;&gt;10</title>
<path fill="none" stroke="gray" d="M173.71,-364.98C164.86,-359.53 154.79,-354 145,-350.04 119.21,-339.62 108.96,-348.32 84,-336.04 80.4,-334.27 76.84,-332.13 73.41,-329.79"/>
<polygon fill="gray" stroke="gray" points="74.32,-329.14 71.26,-328.27 73.1,-330.86 74.32,-329.14"/>
</g>
<!-- 4 -->
<g id="node6" class="node">
<title>4</title>
<polygon fill="none" stroke="gray" points="161.88,-336.04 108.12,-336.04 108.12,-266.53 161.88,-266.53 161.88,-336.04"/>
<text text-anchor="start" x="132" y="-323.66" font-family="Menlo" font-size="10.00">4</text>
<text text-anchor="start" x="123" y="-310.91" font-family="Menlo" font-size="10.00">ALT </text>
<text text-anchor="start" x="111" y="-298.16" font-family="Menlo" font-size="10.00">fi [&quot;a&quot;]</text>
<text text-anchor="start" x="114" y="-285.41" font-family="Menlo" font-size="10.00">fo [&quot;&quot;]</text>
<text text-anchor="start" x="120" y="-272.66" font-family="Menlo" font-size="10.00">am []</text>
</g>
<!-- 10&#45;&gt;4 -->
<g id="edge5" class="edge">
<title>10&#45;&gt;4</title>
<path fill="none" stroke="gray" d="M70.31,-301.29C81.32,-301.29 92.32,-301.29 103.33,-301.29"/>
<polygon fill="gray" stroke="gray" points="103.2,-302.34 106.2,-301.29 103.2,-300.24 103.2,-302.34"/>
</g>
<!-- 11 -->
<g id="node12" class="node">
<title>11</title>
<polygon fill="none" stroke="gray" points="227.88,-252.53 180.12,-252.53 180.12,-183.02 227.88,-183.02 227.88,-252.53"/>
<text text-anchor="start" x="198" y="-240.15" font-family="Menlo" font-size="10.00">11</text>
<text text-anchor="start" x="192" y="-227.4" font-family="Menlo" font-size="10.00">END </text>
<text text-anchor="start" x="183" y="-214.65" font-family="Menlo" font-size="10.00">fi [&quot;&quot;]</text>
<text text-anchor="start" x="183" y="-201.9" font-family="Menlo" font-size="10.00">fo [&quot;&quot;]</text>
<text text-anchor="start" x="189" y="-189.15" font-family="Menlo" font-size="10.00">am []</text>
</g>
<!-- 10&#45;&gt;11 -->
<g id="edge11" class="edge">
<title>10&#45;&gt;11</title>
<path fill="none" stroke="gray" d="M70.36,-274.56C74.69,-271.47 79.29,-268.65 84,-266.53 119.69,-250.41 136.23,-270.55 171,-252.53 172.81,-251.59 174.59,-250.51 176.31,-249.33"/>
<polygon fill="gray" stroke="gray" points="176.77,-250.3 178.56,-247.68 175.52,-248.61 176.77,-250.3"/>
</g>
<!-- 8 -->
<g id="node7" class="node">
<title>8</title>
<polygon fill="none" stroke="gray" points="69.88,-252.53 16.12,-252.53 16.12,-183.02 69.88,-183.02 69.88,-252.53"/>
<text text-anchor="start" x="40" y="-240.15" font-family="Menlo" font-size="10.00">8</text>
<text text-anchor="start" x="34" y="-227.4" font-family="Menlo" font-size="10.00">DO </text>
<text text-anchor="start" x="19" y="-214.65" font-family="Menlo" font-size="10.00">fi [&quot;a&quot;]</text>
<text text-anchor="start" x="22" y="-201.9" font-family="Menlo" font-size="10.00">fo [&quot;&quot;]</text>
<text text-anchor="start" x="28" y="-189.15" font-family="Menlo" font-size="10.00">am []</text>
</g>
<!-- 4&#45;&gt;8 -->
<g id="edge6" class="edge">
<title>4&#45;&gt;8</title>
<path fill="none" stroke="gray" d="M107.89,-276.27C97.04,-266.66 84.49,-255.54 73.34,-245.65"/>
<polygon fill="gray" stroke="gray" points="74.3,-245.11 71.36,-243.9 72.91,-246.68 74.3,-245.11"/>
</g>
<!-- 5 -->
<g id="node8" class="node">
<title>5</title>
<polygon fill="none" stroke="gray" points="161.88,-252.53 108.12,-252.53 108.12,-183.02 161.88,-183.02 161.88,-252.53"/>
<text text-anchor="start" x="132" y="-240.15" font-family="Menlo" font-size="10.00">5</text>
<text text-anchor="start" x="123" y="-227.4" font-family="Menlo" font-size="10.00">ALT </text>
<text text-anchor="start" x="111" y="-214.65" font-family="Menlo" font-size="10.00">fi [&quot;a&quot;]</text>
<text text-anchor="start" x="114" y="-201.9" font-family="Menlo" font-size="10.00">fo [&quot;&quot;]</text>
<text text-anchor="start" x="120" y="-189.15" font-family="Menlo" font-size="10.00">am []</text>
</g>
<!-- 8&#45;&gt;5 -->
<g id="edge7" class="edge">
<title>8&#45;&gt;5</title>
<path fill="none" stroke="gray" d="M70.31,-217.78C81.32,-217.78 92.32,-217.78 103.33,-217.78"/>
<polygon fill="gray" stroke="gray" points="103.2,-218.83 106.2,-217.78 103.2,-216.73 103.2,-218.83"/>
</g>
<!-- 9 -->
<g id="node11" class="node">
<title>9</title>
<polygon fill="none" stroke="gray" points="66.88,-169.02 19.12,-169.02 19.12,-99.51 66.88,-99.51 66.88,-169.02"/>
<text text-anchor="start" x="40" y="-156.64" font-family="Menlo" font-size="10.00">9</text>
<text text-anchor="start" x="31" y="-143.89" font-family="Menlo" font-size="10.00">END </text>
<text text-anchor="start" x="22" y="-131.14" font-family="Menlo" font-size="10.00">fi [&quot;&quot;]</text>
<text text-anchor="start" x="22" y="-118.39" font-family="Menlo" font-size="10.00">fo [&quot;&quot;]</text>
<text text-anchor="start" x="28" y="-105.64" font-family="Menlo" font-size="10.00">am []</text>
</g>
<!-- 8&#45;&gt;9 -->
<g id="edge10" class="edge">
<title>8&#45;&gt;9</title>
<path fill="none" stroke="gray" d="M43,-182.68C43,-179.68 43,-176.63 43,-173.6"/>
<polygon fill="gray" stroke="gray" points="44.05,-174 43,-171 41.95,-174 44.05,-174"/>
</g>
<!-- 6 -->
<g id="node9" class="node">
<title>6</title>
<polygon fill="none" stroke="gray" points="161.88,-169.02 108.12,-169.02 108.12,-99.51 161.88,-99.51 161.88,-169.02"/>
<text text-anchor="start" x="132" y="-156.64" font-family="Menlo" font-size="10.00">6</text>
<text text-anchor="start" x="120" y="-143.89" font-family="Menlo" font-size="10.00">T &quot;a&quot;</text>
<text text-anchor="start" x="111" y="-131.14" font-family="Menlo" font-size="10.00">fi [&quot;a&quot;]</text>
<text text-anchor="start" x="114" y="-118.39" font-family="Menlo" font-size="10.00">fo [&quot;&quot;]</text>
<text text-anchor="start" x="120" y="-105.64" font-family="Menlo" font-size="10.00">am []</text>
</g>
<!-- 5&#45;&gt;6 -->
<g id="edge8" class="edge">
<title>5&#45;&gt;6</title>
<path fill="none" stroke="gray" d="M135,-182.68C135,-179.68 135,-176.63 135,-173.6"/>
<polygon fill="gray" stroke="gray" points="136.05,-174 135,-171 133.95,-174 136.05,-174"/>
</g>
<!-- 7 -->
<g id="node10" class="node">
<title>7</title>
<polygon fill="none" stroke="gray" points="158.88,-85.51 111.12,-85.51 111.12,-16 158.88,-16 158.88,-85.51"/>
<text text-anchor="start" x="132" y="-73.13" font-family="Menlo" font-size="10.00">7</text>
<text text-anchor="start" x="123" y="-60.38" font-family="Menlo" font-size="10.00">END </text>
<text text-anchor="start" x="114" y="-47.63" font-family="Menlo" font-size="10.00">fi [&quot;&quot;]</text>
<text text-anchor="start" x="114" y="-34.88" font-family="Menlo" font-size="10.00">fo [&quot;&quot;]</text>
<text text-anchor="start" x="120" y="-22.13" font-family="Menlo" font-size="10.00">am []</text>
</g>
<!-- 6&#45;&gt;7 -->
<g id="edge9" class="edge">
<title>6&#45;&gt;7</title>
<path fill="none" stroke="gray" d="M135,-99.17C135,-96.17 135,-93.12 135,-90.09"/>
<polygon fill="gray" stroke="gray" points="136.05,-90.49 135,-87.49 133.95,-90.49 136.05,-90.49"/>
</g>
<!-- 7&#45;&gt;8 -->
<g id="edge14" class="edge">
<title>7:e&#45;&gt;8</title>
<path fill="none" stroke="red" stroke-dasharray="1,5" d="M160,-50.76C212.79,-50.76 204.58,-128.29 171,-169.02 150.27,-194.18 129.43,-171.32 99,-183.02 90.53,-186.28 81.89,-190.79 74.02,-195.46"/>
<polygon fill="red" stroke="red" points="73.53,-194.52 71.51,-196.97 74.62,-196.32 73.53,-194.52"/>
</g>
<!-- 7&#45;&gt;5 -->
<g id="edge13" class="edge">
<title>7:e&#45;&gt;5</title>
<path fill="none" stroke="red" stroke-dasharray="1,5" d="M160,-50.76C175.45,-50.76 168.78,-73.54 159,-85.51 141.67,-106.71 116.02,-78.06 99,-99.51 79.8,-123.71 89.19,-139.72 99,-169.02 100.57,-173.71 102.8,-178.31 105.4,-182.69"/>
<polygon fill="red" stroke="red" points="104.38,-183.04 106.86,-185.03 106.16,-181.93 104.38,-183.04"/>
</g>
<!-- 9&#45;&gt;10 -->
<g id="edge16" class="edge">
<title>9:e&#45;&gt;10</title>
<path fill="none" stroke="red" stroke-dasharray="1,5" d="M68,-134.27C88.7,-134.27 80.56,-159.61 99,-169.02 126.46,-183.03 216.33,-160.15 237,-183.02 257.71,-205.94 257.71,-229.61 237,-252.53 216.33,-275.4 128.24,-256.78 99,-266.53 90.49,-269.37 81.89,-273.67 74.07,-278.27"/>
<polygon fill="red" stroke="red" points="73.63,-277.31 71.6,-279.76 74.71,-279.11 73.63,-277.31"/>
</g>
<!-- 9&#45;&gt;4 -->
<g id="edge15" class="edge">
<title>9:e&#45;&gt;4</title>
<path fill="none" stroke="red" stroke-dasharray="1,5" d="M68,-134.27C81.58,-134.27 93.08,-240.3 99,-252.53 100.83,-256.31 102.99,-260.1 105.32,-263.78"/>
<polygon fill="red" stroke="red" points="104.35,-264.23 106.87,-266.16 106.11,-263.08 104.35,-264.23"/>
</g>
<!-- 11&#45;&gt;12 -->
<g id="edge18" class="edge">
<title>11:e&#45;&gt;12</title>
<path fill="none" stroke="red" stroke-dasharray="1,5" d="M229,-217.78C281.68,-217.78 270.51,-295.39 237,-336.04 216.27,-361.2 195.43,-338.34 165,-350.04 156.53,-353.3 147.89,-357.81 140.02,-362.48"/>
<polygon fill="red" stroke="red" points="139.53,-361.54 137.51,-363.99 140.62,-363.34 139.53,-361.54"/>
</g>
<!-- 11&#45;&gt;3 -->
<g id="edge17" class="edge">
<title>11:e&#45;&gt;3</title>
<path fill="none" stroke="red" stroke-dasharray="1,5" d="M229,-217.78C244.45,-217.78 238.49,-241.18 228,-252.53 208.44,-273.71 118.26,-245.07 99,-266.53 78.37,-289.52 80.61,-311.22 99,-336.04 111.72,-353.21 125.48,-341.35 145,-350.04 153.38,-353.77 162.04,-358.51 169.98,-363.24"/>
<polygon fill="red" stroke="red" points="169.41,-364.13 172.52,-364.78 170.5,-362.33 169.41,-364.13"/>
</g>
<!-- 13&#45;&gt;14 -->
<g id="edge20" class="edge">
<title>13:e&#45;&gt;14</title>
<path fill="none" stroke="red" stroke-dasharray="1,5" d="M229,-301.29C281.68,-301.29 272.57,-380.69 237,-419.55 213.2,-445.55 111.17,-419.15 79,-433.55 77.14,-434.38 75.32,-435.35 73.54,-436.42"/>
<polygon fill="red" stroke="red" points="73.17,-435.41 71.23,-437.93 74.31,-437.17 73.17,-435.41"/>
</g>
<!-- 13&#45;&gt;2 -->
<g id="edge19" class="edge">
<title>13:e&#45;&gt;2</title>
<path fill="none" stroke="red" stroke-dasharray="1,5" d="M229,-301.29C244.45,-301.29 237.84,-324.13 228,-336.04 209.73,-358.15 185.9,-330.39 165,-350.04 141.58,-372.06 158.12,-390.2 145,-419.55 143.53,-422.83 141.87,-426.14 140.1,-429.42"/>
<polygon fill="red" stroke="red" points="139.25,-428.79 138.72,-431.93 141.09,-429.81 139.25,-428.79"/>
</g>
</g>
</svg>
