<?xml version="1.0" encoding="UTF-8" standalone="no"?>
<!DOCTYPE svg PUBLIC "-//W3C//DTD SVG 1.1//EN"
 "http://www.w3.org/Graphics/SVG/1.1/DTD/svg11.dtd">
<!-- Generated by graphviz version 9.0.0 (20230911.1827)
 -->
<!-- Title: G Pages: 1 -->
<svg width="492pt" height="715pt"
 viewBox="0.00 0.00 492.07 714.83" xmlns="http://www.w3.org/2000/svg" xmlns:xlink="http://www.w3.org/1999/xlink">
<g id="graph0" class="graph" transform="scale(1 1) rotate(0) translate(4 710.83)">
<title>G</title>
<polygon fill="white" stroke="none" points="-4,4 -4,-710.83 488.07,-710.83 488.07,4 -4,4"/>
<g id="clust1" class="cluster">
<title>clusterS</title>
<polygon fill="none" stroke="black" points="46.14,-8 46.14,-698.83 459.14,-698.83 459.14,-8 46.14,-8"/>
<text text-anchor="start" x="54.14" y="-685.33" font-family="Menlo" font-size="10.00">S = { &quot;a&quot; } &quot;x&quot; &quot;y&quot; &quot;z&quot; { &quot;b&quot; } .</text>
</g>
<!-- R0C0 -->
<g id="node1" class="node">
<title>R0C0</title>
<polygon fill="none" stroke="gray" points="138.02,-670.08 54.26,-670.08 54.26,-600.57 138.02,-600.57 138.02,-670.08"/>
<text text-anchor="start" x="84.14" y="-657.7" font-family="Menlo" font-size="10.00">R0C0</text>
<text text-anchor="start" x="87.14" y="-644.95" font-family="Menlo" font-size="10.00">N S</text>
<text text-anchor="start" x="57.14" y="-632.2" font-family="Menlo" font-size="10.00">fi [&quot;a&quot;, &quot;x&quot;]</text>
<text text-anchor="start" x="75.14" y="-619.45" font-family="Menlo" font-size="10.00">fo [&quot;&quot;]</text>
<text text-anchor="start" x="81.14" y="-606.7" font-family="Menlo" font-size="10.00">am []</text>
</g>
<!-- R0C1 -->
<g id="node2" class="node">
<title>R0C1</title>
<polygon fill="none" stroke="gray" points="240.02,-670.08 156.26,-670.08 156.26,-600.57 240.02,-600.57 240.02,-670.08"/>
<text text-anchor="start" x="186.14" y="-657.7" font-family="Menlo" font-size="10.00">R0C1</text>
<text text-anchor="start" x="186.14" y="-644.95" font-family="Menlo" font-size="10.00">ALT </text>
<text text-anchor="start" x="159.14" y="-632.2" font-family="Menlo" font-size="10.00">fi [&quot;a&quot;, &quot;x&quot;]</text>
<text text-anchor="start" x="177.14" y="-619.45" font-family="Menlo" font-size="10.00">fo [&quot;&quot;]</text>
<text text-anchor="start" x="183.14" y="-606.7" font-family="Menlo" font-size="10.00">am []</text>
</g>
<!-- R0C0&#45;&gt;R0C1 -->
<g id="edge13" class="edge">
<title>R0C0&#45;&gt;R0C1</title>
<path fill="none" stroke="gray" d="M138.38,-635.33C142.81,-635.33 147.25,-635.33 151.68,-635.33"/>
<polygon fill="gray" stroke="gray" points="151.61,-636.38 154.61,-635.33 151.61,-634.28 151.61,-636.38"/>
</g>
<!-- R1C0 -->
<!-- R0C0&#45;&gt;R1C0 -->
<!-- R1C1 -->
<g id="node3" class="node">
<title>R1C1</title>
<polygon fill="none" stroke="gray" points="240.02,-586.57 156.26,-586.57 156.26,-517.06 240.02,-517.06 240.02,-586.57"/>
<text text-anchor="start" x="186.14" y="-574.19" font-family="Menlo" font-size="10.00">R1C1</text>
<text text-anchor="start" x="186.14" y="-561.44" font-family="Menlo" font-size="10.00">KLN </text>
<text text-anchor="start" x="162.14" y="-548.69" font-family="Menlo" font-size="10.00">fi [&quot;&quot;, &quot;a&quot;]</text>
<text text-anchor="start" x="159.14" y="-535.94" font-family="Menlo" font-size="10.00">fo [&quot;a&quot;, &quot;x&quot;]</text>
<text text-anchor="start" x="174.14" y="-523.19" font-family="Menlo" font-size="10.00">am [&quot;a&quot;]</text>
</g>
<!-- R0C1&#45;&gt;R1C1 -->
<g id="edge12" class="edge">
<title>R0C1:s&#45;&gt;R1C1</title>
<path fill="none" stroke="gray" d="M198.14,-600.57C198.14,-597.55 198.14,-594.42 198.14,-591.28"/>
<polygon fill="gray" stroke="gray" points="199.19,-591.5 198.14,-588.5 197.09,-591.5 199.19,-591.5"/>
</g>
<!-- R0C2 -->
<!-- R0C1&#45;&gt;R0C2 -->
<!-- R2C1 -->
<g id="node4" class="node">
<title>R2C1</title>
<polygon fill="none" stroke="gray" points="225.02,-503.06 171.26,-503.06 171.26,-433.55 225.02,-433.55 225.02,-503.06"/>
<text text-anchor="start" x="186.14" y="-490.68" font-family="Menlo" font-size="10.00">R2C1</text>
<text text-anchor="start" x="183.14" y="-477.93" font-family="Menlo" font-size="10.00">T &quot;x&quot;</text>
<text text-anchor="start" x="174.14" y="-465.18" font-family="Menlo" font-size="10.00">fi [&quot;x&quot;]</text>
<text text-anchor="start" x="174.14" y="-452.43" font-family="Menlo" font-size="10.00">fo [&quot;y&quot;]</text>
<text text-anchor="start" x="183.14" y="-439.68" font-family="Menlo" font-size="10.00">am []</text>
</g>
<!-- R1C1&#45;&gt;R2C1 -->
<g id="edge8" class="edge">
<title>R1C1:s&#45;&gt;R2C1</title>
<path fill="none" stroke="gray" d="M198.14,-517.06C198.14,-514.04 198.14,-510.91 198.14,-507.77"/>
<polygon fill="gray" stroke="gray" points="199.19,-507.99 198.14,-504.99 197.09,-507.99 199.19,-507.99"/>
</g>
<!-- R1C3 -->
<g id="node12" class="node">
<title>R1C3</title>
<polygon fill="none" stroke="gray" points="411.02,-586.57 327.26,-586.57 327.26,-517.06 411.02,-517.06 411.02,-586.57"/>
<text text-anchor="start" x="357.14" y="-574.19" font-family="Menlo" font-size="10.00">R1C3</text>
<text text-anchor="start" x="357.14" y="-561.44" font-family="Menlo" font-size="10.00">ALT </text>
<text text-anchor="start" x="345.14" y="-548.69" font-family="Menlo" font-size="10.00">fi [&quot;a&quot;]</text>
<text text-anchor="start" x="330.14" y="-535.94" font-family="Menlo" font-size="10.00">fo [&quot;a&quot;, &quot;x&quot;]</text>
<text text-anchor="start" x="354.14" y="-523.19" font-family="Menlo" font-size="10.00">am []</text>
</g>
<!-- R1C1&#45;&gt;R1C3 -->
<g id="edge11" class="edge">
<title>R1C1&#45;&gt;R1C3</title>
<path fill="none" stroke="gray" d="M240.23,-551.82C267.63,-551.82 295.04,-551.82 322.44,-551.82"/>
<polygon fill="gray" stroke="gray" points="322.33,-552.87 325.33,-551.82 322.33,-550.77 322.33,-552.87"/>
</g>
<!-- R3C1 -->
<g id="node5" class="node">
<title>R3C1</title>
<polygon fill="none" stroke="gray" points="225.02,-419.55 171.26,-419.55 171.26,-350.04 225.02,-350.04 225.02,-419.55"/>
<text text-anchor="start" x="186.14" y="-407.17" font-family="Menlo" font-size="10.00">R3C1</text>
<text text-anchor="start" x="183.14" y="-394.42" font-family="Menlo" font-size="10.00">T &quot;y&quot;</text>
<text text-anchor="start" x="174.14" y="-381.67" font-family="Menlo" font-size="10.00">fi [&quot;y&quot;]</text>
<text text-anchor="start" x="174.14" y="-368.92" font-family="Menlo" font-size="10.00">fo [&quot;z&quot;]</text>
<text text-anchor="start" x="183.14" y="-356.17" font-family="Menlo" font-size="10.00">am []</text>
</g>
<!-- R2C1&#45;&gt;R3C1 -->
<g id="edge7" class="edge">
<title>R2C1:s&#45;&gt;R3C1</title>
<path fill="none" stroke="gray" d="M198.14,-433.55C198.14,-430.53 198.14,-427.4 198.14,-424.26"/>
<polygon fill="gray" stroke="gray" points="199.19,-424.48 198.14,-421.48 197.09,-424.48 199.19,-424.48"/>
</g>
<!-- R2C2 -->
<!-- R2C1&#45;&gt;R2C2 -->
<!-- R4C1 -->
<g id="node6" class="node">
<title>R4C1</title>
<polygon fill="none" stroke="gray" points="237.02,-336.04 159.26,-336.04 159.26,-266.53 237.02,-266.53 237.02,-336.04"/>
<text text-anchor="start" x="186.14" y="-323.66" font-family="Menlo" font-size="10.00">R4C1</text>
<text text-anchor="start" x="183.14" y="-310.91" font-family="Menlo" font-size="10.00">T &quot;z&quot;</text>
<text text-anchor="start" x="174.14" y="-298.16" font-family="Menlo" font-size="10.00">fi [&quot;z&quot;]</text>
<text text-anchor="start" x="162.14" y="-285.41" font-family="Menlo" font-size="10.00">fo [&quot;&quot;, &quot;b&quot;]</text>
<text text-anchor="start" x="183.14" y="-272.66" font-family="Menlo" font-size="10.00">am []</text>
</g>
<!-- R3C1&#45;&gt;R4C1 -->
<g id="edge6" class="edge">
<title>R3C1:s&#45;&gt;R4C1</title>
<path fill="none" stroke="gray" d="M198.14,-350.04C198.14,-347.02 198.14,-343.89 198.14,-340.75"/>
<polygon fill="gray" stroke="gray" points="199.19,-340.97 198.14,-337.97 197.09,-340.97 199.19,-340.97"/>
</g>
<!-- R3C2 -->
<!-- R3C1&#45;&gt;R3C2 -->
<!-- R5C1 -->
<g id="node7" class="node">
<title>R5C1</title>
<polygon fill="none" stroke="gray" points="237.02,-252.53 159.26,-252.53 159.26,-183.02 237.02,-183.02 237.02,-252.53"/>
<text text-anchor="start" x="186.14" y="-240.15" font-family="Menlo" font-size="10.00">R5C1</text>
<text text-anchor="start" x="186.14" y="-227.4" font-family="Menlo" font-size="10.00">KLN </text>
<text text-anchor="start" x="162.14" y="-214.65" font-family="Menlo" font-size="10.00">fi [&quot;&quot;, &quot;b&quot;]</text>
<text text-anchor="start" x="162.14" y="-201.9" font-family="Menlo" font-size="10.00">fo [&quot;&quot;, &quot;b&quot;]</text>
<text text-anchor="start" x="174.14" y="-189.15" font-family="Menlo" font-size="10.00">am [&quot;b&quot;]</text>
</g>
<!-- R4C1&#45;&gt;R5C1 -->
<g id="edge5" class="edge">
<title>R4C1:s&#45;&gt;R5C1</title>
<path fill="none" stroke="gray" d="M198.14,-266.53C198.14,-263.51 198.14,-260.38 198.14,-257.24"/>
<polygon fill="gray" stroke="gray" points="199.19,-257.46 198.14,-254.46 197.09,-257.46 199.19,-257.46"/>
</g>
<!-- R4C2 -->
<!-- R4C1&#45;&gt;R4C2 -->
<!-- R6C1 -->
<g id="node8" class="node">
<title>R6C1</title>
<polygon fill="none" stroke="gray" points="222.02,-169.02 174.26,-169.02 174.26,-99.51 222.02,-99.51 222.02,-169.02"/>
<text text-anchor="start" x="186.14" y="-156.64" font-family="Menlo" font-size="10.00">R6C1</text>
<text text-anchor="start" x="186.14" y="-143.89" font-family="Menlo" font-size="10.00">END </text>
<text text-anchor="start" x="177.14" y="-131.14" font-family="Menlo" font-size="10.00">fi [&quot;&quot;]</text>
<text text-anchor="start" x="177.14" y="-118.39" font-family="Menlo" font-size="10.00">fo [&quot;&quot;]</text>
<text text-anchor="start" x="183.14" y="-105.64" font-family="Menlo" font-size="10.00">am []</text>
</g>
<!-- R5C1&#45;&gt;R6C1 -->
<g id="edge1" class="edge">
<title>R5C1:s&#45;&gt;R6C1</title>
<path fill="none" stroke="gray" d="M198.14,-183.02C198.14,-180 198.14,-176.87 198.14,-173.73"/>
<polygon fill="gray" stroke="gray" points="199.19,-173.95 198.14,-170.95 197.09,-173.95 199.19,-173.95"/>
</g>
<!-- R5C2 -->
<g id="node9" class="node">
<title>R5C2</title>
<polygon fill="none" stroke="gray" points="333.02,-252.53 255.26,-252.53 255.26,-183.02 333.02,-183.02 333.02,-252.53"/>
<text text-anchor="start" x="282.14" y="-240.15" font-family="Menlo" font-size="10.00">R5C2</text>
<text text-anchor="start" x="282.14" y="-227.4" font-family="Menlo" font-size="10.00">ALT </text>
<text text-anchor="start" x="270.14" y="-214.65" font-family="Menlo" font-size="10.00">fi [&quot;b&quot;]</text>
<text text-anchor="start" x="258.14" y="-201.9" font-family="Menlo" font-size="10.00">fo [&quot;&quot;, &quot;b&quot;]</text>
<text text-anchor="start" x="279.14" y="-189.15" font-family="Menlo" font-size="10.00">am []</text>
</g>
<!-- R5C1&#45;&gt;R5C2 -->
<g id="edge4" class="edge">
<title>R5C1&#45;&gt;R5C2</title>
<path fill="none" stroke="gray" d="M237.52,-217.78C241.83,-217.78 246.14,-217.78 250.46,-217.78"/>
<polygon fill="gray" stroke="gray" points="250.26,-218.83 253.26,-217.78 250.26,-216.73 250.26,-218.83"/>
</g>
<!-- R6C1&#45;&gt;R0C0 -->
<g id="edge49" class="edge">
<title>R6C1:s&#45;&gt;R0C0</title>
<path fill="none" stroke="red" stroke-dasharray="1,5" d="M198.14,-98.27C198.14,-92.95 217.74,-96.12 222.02,-99.27 248.58,-118.77 221.12,-148.81 247.14,-169.02 272.88,-189.01 369.36,-160.73 393.14,-183.02 497.29,-280.64 518.46,-399.57 420.14,-503.06 399.22,-525.08 171.76,-499.27 147.14,-517.06 120.28,-536.47 133.6,-556.28 120.14,-586.57 118.74,-589.74 117.23,-593 115.68,-596.26"/>
<polygon fill="red" stroke="red" points="114.85,-595.56 114.5,-598.72 116.74,-596.47 114.85,-595.56"/>
</g>
<!-- R6C1&#45;&gt;R0C1 -->
<g id="edge50" class="edge">
<title>R6C1:s&#45;&gt;R0C1</title>
<path fill="none" stroke="red" stroke-dasharray="1,5" d="M198.14,-98.27C198.14,-92.95 218.35,-95.43 222.02,-99.27 243.48,-121.64 242.9,-146.1 222.02,-169.02 199.5,-193.75 94.67,-158.29 72.14,-183.02 -23.64,-288.17 -24.39,-398.59 72.14,-503.06 98.92,-532.04 222.37,-488.08 249.14,-517.06 270.11,-539.75 261.43,-558.23 249.14,-586.57 247.48,-590.41 245.34,-594.08 242.88,-597.56"/>
<polygon fill="red" stroke="red" points="242.18,-596.74 241.22,-599.77 243.86,-598 242.18,-596.74"/>
</g>
<!-- R7C1 -->
<!-- R6C1&#45;&gt;R7C1 -->
<!-- R6C2 -->
<g id="node10" class="node">
<title>R6C2</title>
<polygon fill="none" stroke="gray" points="333.02,-169.02 255.26,-169.02 255.26,-99.51 333.02,-99.51 333.02,-169.02"/>
<text text-anchor="start" x="282.14" y="-156.64" font-family="Menlo" font-size="10.00">R6C2</text>
<text text-anchor="start" x="279.14" y="-143.89" font-family="Menlo" font-size="10.00">T &quot;b&quot;</text>
<text text-anchor="start" x="270.14" y="-131.14" font-family="Menlo" font-size="10.00">fi [&quot;b&quot;]</text>
<text text-anchor="start" x="258.14" y="-118.39" font-family="Menlo" font-size="10.00">fo [&quot;&quot;, &quot;b&quot;]</text>
<text text-anchor="start" x="279.14" y="-105.64" font-family="Menlo" font-size="10.00">am []</text>
</g>
<!-- R5C2&#45;&gt;R6C2 -->
<g id="edge3" class="edge">
<title>R5C2:s&#45;&gt;R6C2</title>
<path fill="none" stroke="gray" d="M294.14,-183.02C294.14,-180 294.14,-176.87 294.14,-173.73"/>
<polygon fill="gray" stroke="gray" points="295.19,-173.95 294.14,-170.95 293.09,-173.95 295.19,-173.95"/>
</g>
<!-- R5C3 -->
<!-- R5C2&#45;&gt;R5C3 -->
<!-- R7C2 -->
<g id="node11" class="node">
<title>R7C2</title>
<polygon fill="none" stroke="gray" points="333.02,-85.51 255.26,-85.51 255.26,-16 333.02,-16 333.02,-85.51"/>
<text text-anchor="start" x="282.14" y="-73.13" font-family="Menlo" font-size="10.00">R7C2</text>
<text text-anchor="start" x="282.14" y="-60.38" font-family="Menlo" font-size="10.00">END </text>
<text text-anchor="start" x="273.14" y="-47.63" font-family="Menlo" font-size="10.00">fi [&quot;&quot;]</text>
<text text-anchor="start" x="258.14" y="-34.88" font-family="Menlo" font-size="10.00">fo [&quot;&quot;, &quot;b&quot;]</text>
<text text-anchor="start" x="279.14" y="-22.13" font-family="Menlo" font-size="10.00">am []</text>
</g>
<!-- R6C2&#45;&gt;R7C2 -->
<g id="edge2" class="edge">
<title>R6C2:s&#45;&gt;R7C2</title>
<path fill="none" stroke="gray" d="M294.14,-99.51C294.14,-96.49 294.14,-93.36 294.14,-90.22"/>
<polygon fill="gray" stroke="gray" points="295.19,-90.44 294.14,-87.44 293.09,-90.44 295.19,-90.44"/>
</g>
<!-- R6C3 -->
<!-- R6C2&#45;&gt;R6C3 -->
<!-- R7C2&#45;&gt;R5C1 -->
<g id="edge51" class="edge">
<title>R7C2:s&#45;&gt;R5C1</title>
<path fill="none" stroke="red" stroke-dasharray="1,5" d="M294.14,-14.76C294.14,-6.11 326.44,-10.15 333.02,-15.76 357.04,-36.2 325.02,-62.08 346.14,-85.51 360.74,-101.7 380.12,-82.04 393.14,-99.51 411.61,-124.28 413.93,-146.16 393.14,-169.02 371.07,-193.3 276.92,-171.65 246.14,-183.02 244.48,-183.64 242.81,-184.32 241.16,-185.07"/>
<polygon fill="red" stroke="red" points="240.94,-184.01 238.7,-186.26 241.86,-185.9 240.94,-184.01"/>
</g>
<!-- R7C2&#45;&gt;R5C2 -->
<g id="edge52" class="edge">
<title>R7C2:s&#45;&gt;R5C2</title>
<path fill="none" stroke="red" stroke-dasharray="1,5" d="M294.14,-14.76C294.14,-6.11 326.99,-9.57 333.02,-15.76 343.84,-26.86 343.52,-74.1 333.02,-85.51 307.68,-113.06 190.49,-71.96 165.14,-99.51 144.23,-122.24 145.25,-145.39 165.14,-169.02 188.67,-196.97 212.38,-169.06 246.14,-183.02 247.78,-183.7 249.43,-184.44 251.06,-185.24"/>
<polygon fill="red" stroke="red" points="250.35,-186.05 253.5,-186.49 251.31,-184.19 250.35,-186.05"/>
</g>
<!-- R7C3 -->
<!-- R7C2&#45;&gt;R7C3 -->
<!-- R2C3 -->
<g id="node13" class="node">
<title>R2C3</title>
<polygon fill="none" stroke="gray" points="411.02,-503.06 327.26,-503.06 327.26,-433.55 411.02,-433.55 411.02,-503.06"/>
<text text-anchor="start" x="357.14" y="-490.68" font-family="Menlo" font-size="10.00">R2C3</text>
<text text-anchor="start" x="354.14" y="-477.93" font-family="Menlo" font-size="10.00">T &quot;a&quot;</text>
<text text-anchor="start" x="345.14" y="-465.18" font-family="Menlo" font-size="10.00">fi [&quot;a&quot;]</text>
<text text-anchor="start" x="330.14" y="-452.43" font-family="Menlo" font-size="10.00">fo [&quot;a&quot;, &quot;x&quot;]</text>
<text text-anchor="start" x="354.14" y="-439.68" font-family="Menlo" font-size="10.00">am []</text>
</g>
<!-- R1C3&#45;&gt;R2C3 -->
<g id="edge10" class="edge">
<title>R1C3:s&#45;&gt;R2C3</title>
<path fill="none" stroke="gray" d="M369.14,-517.06C369.14,-514.04 369.14,-510.91 369.14,-507.77"/>
<polygon fill="gray" stroke="gray" points="370.19,-507.99 369.14,-504.99 368.09,-507.99 370.19,-507.99"/>
</g>
<!-- R3C3 -->
<g id="node14" class="node">
<title>R3C3</title>
<polygon fill="none" stroke="gray" points="411.02,-419.55 327.26,-419.55 327.26,-350.04 411.02,-350.04 411.02,-419.55"/>
<text text-anchor="start" x="357.14" y="-407.17" font-family="Menlo" font-size="10.00">R3C3</text>
<text text-anchor="start" x="357.14" y="-394.42" font-family="Menlo" font-size="10.00">END </text>
<text text-anchor="start" x="348.14" y="-381.67" font-family="Menlo" font-size="10.00">fi [&quot;&quot;]</text>
<text text-anchor="start" x="330.14" y="-368.92" font-family="Menlo" font-size="10.00">fo [&quot;a&quot;, &quot;x&quot;]</text>
<text text-anchor="start" x="354.14" y="-356.17" font-family="Menlo" font-size="10.00">am []</text>
</g>
<!-- R2C3&#45;&gt;R3C3 -->
<g id="edge9" class="edge">
<title>R2C3:s&#45;&gt;R3C3</title>
<path fill="none" stroke="gray" d="M369.14,-433.55C369.14,-430.53 369.14,-427.4 369.14,-424.26"/>
<polygon fill="gray" stroke="gray" points="370.19,-424.48 369.14,-421.48 368.09,-424.48 370.19,-424.48"/>
</g>
<!-- R3C3&#45;&gt;R1C1 -->
<g id="edge53" class="edge">
<title>R3C3:s&#45;&gt;R1C1</title>
<path fill="none" stroke="red" stroke-dasharray="1,5" d="M369.14,-348.8C369.14,-339.49 404.52,-343.13 411.02,-349.8 432.68,-371.98 431.83,-396.57 411.02,-419.55 389.91,-442.87 296.18,-415.89 270.14,-433.55 241.35,-453.08 252.68,-473.62 234.14,-503.06 232.03,-506.42 229.74,-509.84 227.38,-513.23"/>
<polygon fill="red" stroke="red" points="226.74,-512.32 225.87,-515.37 228.46,-513.53 226.74,-512.32"/>
</g>
<!-- R3C3&#45;&gt;R1C3 -->
<g id="edge54" class="edge">
<title>R3C3:s&#45;&gt;R1C3</title>
<path fill="none" stroke="red" stroke-dasharray="1,5" d="M369.14,-348.8C369.14,-339.49 404.17,-343.5 411.02,-349.8 461.27,-395.96 447.29,-440.45 420.14,-503.06 418.48,-506.9 416.34,-510.57 413.88,-514.05"/>
<polygon fill="red" stroke="red" points="413.18,-513.23 412.22,-516.26 414.86,-514.49 413.18,-513.23"/>
</g>
<!-- R4C3 -->
<!-- R3C3&#45;&gt;R4C3 -->
<!-- R0C3 -->
<!-- R0C2&#45;&gt;R0C3 -->
<!-- R0C3&#45;&gt;R1C3 -->
<!-- R1C0&#45;&gt;R1C1 -->
<!-- R2C0 -->
<!-- R1C0&#45;&gt;R2C0 -->
<!-- R2C0&#45;&gt;R2C1 -->
<!-- R3C0 -->
<!-- R2C0&#45;&gt;R3C0 -->
<!-- R2C2&#45;&gt;R2C3 -->
<!-- R2C2&#45;&gt;R3C2 -->
<!-- R3C0&#45;&gt;R3C1 -->
<!-- R4C0 -->
<!-- R3C0&#45;&gt;R4C0 -->
<!-- R3C2&#45;&gt;R3C3 -->
<!-- R3C2&#45;&gt;R4C2 -->
<!-- R4C0&#45;&gt;R4C1 -->
<!-- R5C0 -->
<!-- R4C0&#45;&gt;R5C0 -->
<!-- R4C2&#45;&gt;R5C2 -->
<!-- R4C2&#45;&gt;R4C3 -->
<!-- R4C3&#45;&gt;R5C3 -->
<!-- R5C0&#45;&gt;R5C1 -->
<!-- R6C0 -->
<!-- R5C0&#45;&gt;R6C0 -->
<!-- R5C3&#45;&gt;R6C3 -->
<!-- R6C0&#45;&gt;R6C1 -->
<!-- R7C0 -->
<!-- R6C0&#45;&gt;R7C0 -->
<!-- R6C3&#45;&gt;R7C3 -->
<!-- R7C0&#45;&gt;R7C1 -->
<!-- R7C1&#45;&gt;R7C2 -->
</g>
</svg>
