<?xml version="1.0" encoding="UTF-8" standalone="no"?>
<!DOCTYPE svg PUBLIC "-//W3C//DTD SVG 1.1//EN"
 "http://www.w3.org/Graphics/SVG/1.1/DTD/svg11.dtd">
<!-- Generated by graphviz version 9.0.0 (20230911.1827)
 -->
<!-- Title: G Pages: 1 -->
<svg width="461pt" height="548pt"
 viewBox="0.00 0.00 461.00 547.81" xmlns="http://www.w3.org/2000/svg" xmlns:xlink="http://www.w3.org/1999/xlink">
<g id="graph0" class="graph" transform="scale(1 1) rotate(0) translate(4 543.81)">
<title>G</title>
<polygon fill="white" stroke="none" points="-4,4 -4,-543.81 457,-543.81 457,4 -4,4"/>
<g id="clust1" class="cluster">
<title>clusterS</title>
<polygon fill="none" stroke="black" points="8,-8 8,-531.81 445,-531.81 445,-8 8,-8"/>
<text text-anchor="start" x="16" y="-518.31" font-family="Menlo" font-size="10.00">S = { &quot;a&quot; } &quot;x&quot; { &quot;b&quot; } .</text>
</g>
<!-- R0C0 -->
<g id="node1" class="node">
<title>R0C0</title>
<polygon fill="none" stroke="gray" points="99.88,-503.06 16.12,-503.06 16.12,-433.55 99.88,-433.55 99.88,-503.06"/>
<text text-anchor="start" x="46" y="-490.68" font-family="Menlo" font-size="10.00">R0C0</text>
<text text-anchor="start" x="49" y="-477.93" font-family="Menlo" font-size="10.00">N S</text>
<text text-anchor="start" x="19" y="-465.18" font-family="Menlo" font-size="10.00">fi [&quot;a&quot;, &quot;x&quot;]</text>
<text text-anchor="start" x="37" y="-452.43" font-family="Menlo" font-size="10.00">fo [&quot;&quot;]</text>
<text text-anchor="start" x="43" y="-439.68" font-family="Menlo" font-size="10.00">am []</text>
</g>
<!-- R0C1 -->
<g id="node2" class="node">
<title>R0C1</title>
<polygon fill="none" stroke="gray" points="201.88,-503.06 118.12,-503.06 118.12,-433.55 201.88,-433.55 201.88,-503.06"/>
<text text-anchor="start" x="148" y="-490.68" font-family="Menlo" font-size="10.00">R0C1</text>
<text text-anchor="start" x="148" y="-477.93" font-family="Menlo" font-size="10.00">ALT </text>
<text text-anchor="start" x="121" y="-465.18" font-family="Menlo" font-size="10.00">fi [&quot;a&quot;, &quot;x&quot;]</text>
<text text-anchor="start" x="139" y="-452.43" font-family="Menlo" font-size="10.00">fo [&quot;&quot;]</text>
<text text-anchor="start" x="145" y="-439.68" font-family="Menlo" font-size="10.00">am []</text>
</g>
<!-- R0C0&#45;&gt;R0C1 -->
<g id="edge11" class="edge">
<title>R0C0&#45;&gt;R0C1</title>
<path fill="none" stroke="gray" d="M100.23,-468.31C104.67,-468.31 109.11,-468.31 113.54,-468.31"/>
<polygon fill="gray" stroke="gray" points="113.46,-469.36 116.46,-468.31 113.46,-467.26 113.46,-469.36"/>
</g>
<!-- R1C0 -->
<!-- R0C0&#45;&gt;R1C0 -->
<!-- R1C1 -->
<g id="node3" class="node">
<title>R1C1</title>
<polygon fill="none" stroke="gray" points="201.88,-419.55 118.12,-419.55 118.12,-350.04 201.88,-350.04 201.88,-419.55"/>
<text text-anchor="start" x="148" y="-407.17" font-family="Menlo" font-size="10.00">R1C1</text>
<text text-anchor="start" x="148" y="-394.42" font-family="Menlo" font-size="10.00">KLN </text>
<text text-anchor="start" x="124" y="-381.67" font-family="Menlo" font-size="10.00">fi [&quot;&quot;, &quot;a&quot;]</text>
<text text-anchor="start" x="121" y="-368.92" font-family="Menlo" font-size="10.00">fo [&quot;a&quot;, &quot;x&quot;]</text>
<text text-anchor="start" x="136" y="-356.17" font-family="Menlo" font-size="10.00">am [&quot;a&quot;]</text>
</g>
<!-- R0C1&#45;&gt;R1C1 -->
<g id="edge10" class="edge">
<title>R0C1:s&#45;&gt;R1C1</title>
<path fill="none" stroke="gray" d="M160,-433.55C160,-430.53 160,-427.4 160,-424.26"/>
<polygon fill="gray" stroke="gray" points="161.05,-424.48 160,-421.48 158.95,-424.48 161.05,-424.48"/>
</g>
<!-- R0C2 -->
<!-- R0C1&#45;&gt;R0C2 -->
<!-- R2C1 -->
<g id="node4" class="node">
<title>R2C1</title>
<polygon fill="none" stroke="gray" points="198.88,-336.04 121.12,-336.04 121.12,-266.53 198.88,-266.53 198.88,-336.04"/>
<text text-anchor="start" x="148" y="-323.66" font-family="Menlo" font-size="10.00">R2C1</text>
<text text-anchor="start" x="145" y="-310.91" font-family="Menlo" font-size="10.00">T &quot;x&quot;</text>
<text text-anchor="start" x="136" y="-298.16" font-family="Menlo" font-size="10.00">fi [&quot;x&quot;]</text>
<text text-anchor="start" x="124" y="-285.41" font-family="Menlo" font-size="10.00">fo [&quot;&quot;, &quot;b&quot;]</text>
<text text-anchor="start" x="145" y="-272.66" font-family="Menlo" font-size="10.00">am []</text>
</g>
<!-- R1C1&#45;&gt;R2C1 -->
<g id="edge6" class="edge">
<title>R1C1:s&#45;&gt;R2C1</title>
<path fill="none" stroke="gray" d="M160,-350.04C160,-347.02 160,-343.89 160,-340.75"/>
<polygon fill="gray" stroke="gray" points="161.05,-340.97 160,-337.97 158.95,-340.97 161.05,-340.97"/>
</g>
<!-- R1C3 -->
<g id="node10" class="node">
<title>R1C3</title>
<polygon fill="none" stroke="gray" points="396.88,-419.55 313.12,-419.55 313.12,-350.04 396.88,-350.04 396.88,-419.55"/>
<text text-anchor="start" x="343" y="-407.17" font-family="Menlo" font-size="10.00">R1C3</text>
<text text-anchor="start" x="343" y="-394.42" font-family="Menlo" font-size="10.00">ALT </text>
<text text-anchor="start" x="331" y="-381.67" font-family="Menlo" font-size="10.00">fi [&quot;a&quot;]</text>
<text text-anchor="start" x="316" y="-368.92" font-family="Menlo" font-size="10.00">fo [&quot;a&quot;, &quot;x&quot;]</text>
<text text-anchor="start" x="340" y="-356.17" font-family="Menlo" font-size="10.00">am []</text>
</g>
<!-- R1C1&#45;&gt;R1C3 -->
<g id="edge9" class="edge">
<title>R1C1&#45;&gt;R1C3</title>
<path fill="none" stroke="gray" d="M202.28,-384.8C237.63,-384.8 272.98,-384.8 308.33,-384.8"/>
<polygon fill="gray" stroke="gray" points="308.13,-385.85 311.13,-384.8 308.13,-383.75 308.13,-385.85"/>
</g>
<!-- R3C1 -->
<g id="node5" class="node">
<title>R3C1</title>
<polygon fill="none" stroke="gray" points="198.88,-252.53 121.12,-252.53 121.12,-183.02 198.88,-183.02 198.88,-252.53"/>
<text text-anchor="start" x="148" y="-240.15" font-family="Menlo" font-size="10.00">R3C1</text>
<text text-anchor="start" x="148" y="-227.4" font-family="Menlo" font-size="10.00">KLN </text>
<text text-anchor="start" x="124" y="-214.65" font-family="Menlo" font-size="10.00">fi [&quot;&quot;, &quot;b&quot;]</text>
<text text-anchor="start" x="124" y="-201.9" font-family="Menlo" font-size="10.00">fo [&quot;&quot;, &quot;b&quot;]</text>
<text text-anchor="start" x="136" y="-189.15" font-family="Menlo" font-size="10.00">am [&quot;b&quot;]</text>
</g>
<!-- R2C1&#45;&gt;R3C1 -->
<g id="edge5" class="edge">
<title>R2C1:s&#45;&gt;R3C1</title>
<path fill="none" stroke="gray" d="M160,-266.53C160,-263.51 160,-260.38 160,-257.24"/>
<polygon fill="gray" stroke="gray" points="161.05,-257.46 160,-254.46 158.95,-257.46 161.05,-257.46"/>
</g>
<!-- R2C2 -->
<!-- R2C1&#45;&gt;R2C2 -->
<!-- R4C1 -->
<g id="node6" class="node">
<title>R4C1</title>
<polygon fill="none" stroke="gray" points="183.88,-169.02 136.12,-169.02 136.12,-99.51 183.88,-99.51 183.88,-169.02"/>
<text text-anchor="start" x="148" y="-156.64" font-family="Menlo" font-size="10.00">R4C1</text>
<text text-anchor="start" x="148" y="-143.89" font-family="Menlo" font-size="10.00">END </text>
<text text-anchor="start" x="139" y="-131.14" font-family="Menlo" font-size="10.00">fi [&quot;&quot;]</text>
<text text-anchor="start" x="139" y="-118.39" font-family="Menlo" font-size="10.00">fo [&quot;&quot;]</text>
<text text-anchor="start" x="145" y="-105.64" font-family="Menlo" font-size="10.00">am []</text>
</g>
<!-- R3C1&#45;&gt;R4C1 -->
<g id="edge1" class="edge">
<title>R3C1:s&#45;&gt;R4C1</title>
<path fill="none" stroke="gray" d="M160,-183.02C160,-180 160,-176.87 160,-173.73"/>
<polygon fill="gray" stroke="gray" points="161.05,-173.95 160,-170.95 158.95,-173.95 161.05,-173.95"/>
</g>
<!-- R3C2 -->
<g id="node7" class="node">
<title>R3C2</title>
<polygon fill="none" stroke="gray" points="294.88,-252.53 217.12,-252.53 217.12,-183.02 294.88,-183.02 294.88,-252.53"/>
<text text-anchor="start" x="244" y="-240.15" font-family="Menlo" font-size="10.00">R3C2</text>
<text text-anchor="start" x="244" y="-227.4" font-family="Menlo" font-size="10.00">ALT </text>
<text text-anchor="start" x="232" y="-214.65" font-family="Menlo" font-size="10.00">fi [&quot;b&quot;]</text>
<text text-anchor="start" x="220" y="-201.9" font-family="Menlo" font-size="10.00">fo [&quot;&quot;, &quot;b&quot;]</text>
<text text-anchor="start" x="241" y="-189.15" font-family="Menlo" font-size="10.00">am []</text>
</g>
<!-- R3C1&#45;&gt;R3C2 -->
<g id="edge4" class="edge">
<title>R3C1&#45;&gt;R3C2</title>
<path fill="none" stroke="gray" d="M199.38,-217.78C203.69,-217.78 208,-217.78 212.31,-217.78"/>
<polygon fill="gray" stroke="gray" points="212.11,-218.83 215.11,-217.78 212.11,-216.73 212.11,-218.83"/>
</g>
<!-- R4C1&#45;&gt;R0C0 -->
<g id="edge34" class="edge">
<title>R4C1:s&#45;&gt;R0C0</title>
<path fill="none" stroke="red" stroke-dasharray="1,5" d="M160,-98.27C160,-92.95 179.6,-96.12 183.88,-99.27 210.44,-118.77 182.73,-149.13 209,-169.02 243.99,-195.51 376.09,-150.91 406,-183.02 452.35,-232.78 452.94,-286.83 406,-336.04 383.2,-359.94 135.82,-330.75 109,-350.04 82.1,-369.4 95.46,-389.26 82,-419.55 80.59,-422.72 79.08,-425.98 77.53,-429.24"/>
<polygon fill="red" stroke="red" points="76.71,-428.54 76.35,-431.7 78.6,-429.45 76.71,-428.54"/>
</g>
<!-- R4C1&#45;&gt;R0C1 -->
<g id="edge35" class="edge">
<title>R4C1:s&#45;&gt;R0C1</title>
<path fill="none" stroke="red" stroke-dasharray="1,5" d="M160,-98.27C160,-92.95 180.2,-95.43 183.88,-99.27 205.34,-121.64 203.6,-145.09 183.88,-169.02 163.18,-194.14 137.35,-162.61 112,-183.02 85.79,-204.12 107.22,-230.25 82,-252.53 65.35,-267.24 47.33,-248.75 34,-266.53 15.46,-291.24 13.03,-313.35 34,-336.04 60.78,-365.02 184.22,-321.06 211,-350.04 231.97,-372.73 223.29,-391.21 211,-419.55 209.34,-423.39 207.19,-427.06 204.73,-430.54"/>
<polygon fill="red" stroke="red" points="204.04,-429.72 203.08,-432.75 205.72,-430.98 204.04,-429.72"/>
</g>
<!-- R5C1 -->
<!-- R4C1&#45;&gt;R5C1 -->
<!-- R4C2 -->
<g id="node8" class="node">
<title>R4C2</title>
<polygon fill="none" stroke="gray" points="294.88,-169.02 217.12,-169.02 217.12,-99.51 294.88,-99.51 294.88,-169.02"/>
<text text-anchor="start" x="244" y="-156.64" font-family="Menlo" font-size="10.00">R4C2</text>
<text text-anchor="start" x="241" y="-143.89" font-family="Menlo" font-size="10.00">T &quot;b&quot;</text>
<text text-anchor="start" x="232" y="-131.14" font-family="Menlo" font-size="10.00">fi [&quot;b&quot;]</text>
<text text-anchor="start" x="220" y="-118.39" font-family="Menlo" font-size="10.00">fo [&quot;&quot;, &quot;b&quot;]</text>
<text text-anchor="start" x="241" y="-105.64" font-family="Menlo" font-size="10.00">am []</text>
</g>
<!-- R3C2&#45;&gt;R4C2 -->
<g id="edge3" class="edge">
<title>R3C2:s&#45;&gt;R4C2</title>
<path fill="none" stroke="gray" d="M256,-183.02C256,-180 256,-176.87 256,-173.73"/>
<polygon fill="gray" stroke="gray" points="257.05,-173.95 256,-170.95 254.95,-173.95 257.05,-173.95"/>
</g>
<!-- R5C2 -->
<g id="node9" class="node">
<title>R5C2</title>
<polygon fill="none" stroke="gray" points="294.88,-85.51 217.12,-85.51 217.12,-16 294.88,-16 294.88,-85.51"/>
<text text-anchor="start" x="244" y="-73.13" font-family="Menlo" font-size="10.00">R5C2</text>
<text text-anchor="start" x="244" y="-60.38" font-family="Menlo" font-size="10.00">END </text>
<text text-anchor="start" x="235" y="-47.63" font-family="Menlo" font-size="10.00">fi [&quot;&quot;]</text>
<text text-anchor="start" x="220" y="-34.88" font-family="Menlo" font-size="10.00">fo [&quot;&quot;, &quot;b&quot;]</text>
<text text-anchor="start" x="241" y="-22.13" font-family="Menlo" font-size="10.00">am []</text>
</g>
<!-- R4C2&#45;&gt;R5C2 -->
<g id="edge2" class="edge">
<title>R4C2:s&#45;&gt;R5C2</title>
<path fill="none" stroke="gray" d="M256,-99.51C256,-96.49 256,-93.36 256,-90.22"/>
<polygon fill="gray" stroke="gray" points="257.05,-90.44 256,-87.44 254.95,-90.44 257.05,-90.44"/>
</g>
<!-- R4C3 -->
<!-- R4C2&#45;&gt;R4C3 -->
<!-- R5C2&#45;&gt;R3C1 -->
<g id="edge36" class="edge">
<title>R5C2:s&#45;&gt;R3C1</title>
<path fill="none" stroke="red" stroke-dasharray="1,5" d="M256,-14.76C256,-6.11 287.53,-11.21 294.88,-15.76 324.75,-34.22 304.82,-63.27 332,-85.51 348.87,-99.31 365.97,-82.04 379,-99.51 397.47,-124.28 399.93,-146.3 379,-169.02 353.16,-197.06 243.85,-170.04 208,-183.02 206.33,-183.62 204.66,-184.3 203.01,-185.04"/>
<polygon fill="red" stroke="red" points="202.8,-183.98 200.54,-186.22 203.7,-185.88 202.8,-183.98"/>
</g>
<!-- R5C2&#45;&gt;R3C2 -->
<g id="edge37" class="edge">
<title>R5C2:s&#45;&gt;R3C2</title>
<path fill="none" stroke="red" stroke-dasharray="1,5" d="M256,-14.76C256,-6.11 288.85,-9.57 294.88,-15.76 316.52,-37.96 315.87,-62.7 294.88,-85.51 269.53,-113.06 152.35,-71.96 127,-99.51 106.08,-122.24 107.1,-145.39 127,-169.02 150.53,-196.97 174.24,-169.06 208,-183.02 209.64,-183.7 211.28,-184.44 212.91,-185.24"/>
<polygon fill="red" stroke="red" points="212.21,-186.05 215.36,-186.49 213.17,-184.19 212.21,-186.05"/>
</g>
<!-- R5C3 -->
<!-- R5C2&#45;&gt;R5C3 -->
<!-- R2C3 -->
<g id="node11" class="node">
<title>R2C3</title>
<polygon fill="none" stroke="gray" points="396.88,-336.04 313.12,-336.04 313.12,-266.53 396.88,-266.53 396.88,-336.04"/>
<text text-anchor="start" x="343" y="-323.66" font-family="Menlo" font-size="10.00">R2C3</text>
<text text-anchor="start" x="340" y="-310.91" font-family="Menlo" font-size="10.00">T &quot;a&quot;</text>
<text text-anchor="start" x="331" y="-298.16" font-family="Menlo" font-size="10.00">fi [&quot;a&quot;]</text>
<text text-anchor="start" x="316" y="-285.41" font-family="Menlo" font-size="10.00">fo [&quot;a&quot;, &quot;x&quot;]</text>
<text text-anchor="start" x="340" y="-272.66" font-family="Menlo" font-size="10.00">am []</text>
</g>
<!-- R1C3&#45;&gt;R2C3 -->
<g id="edge8" class="edge">
<title>R1C3:s&#45;&gt;R2C3</title>
<path fill="none" stroke="gray" d="M355,-350.04C355,-347.02 355,-343.89 355,-340.75"/>
<polygon fill="gray" stroke="gray" points="356.05,-340.97 355,-337.97 353.95,-340.97 356.05,-340.97"/>
</g>
<!-- R3C3 -->
<g id="node12" class="node">
<title>R3C3</title>
<polygon fill="none" stroke="gray" points="396.88,-252.53 313.12,-252.53 313.12,-183.02 396.88,-183.02 396.88,-252.53"/>
<text text-anchor="start" x="343" y="-240.15" font-family="Menlo" font-size="10.00">R3C3</text>
<text text-anchor="start" x="343" y="-227.4" font-family="Menlo" font-size="10.00">END </text>
<text text-anchor="start" x="334" y="-214.65" font-family="Menlo" font-size="10.00">fi [&quot;&quot;]</text>
<text text-anchor="start" x="316" y="-201.9" font-family="Menlo" font-size="10.00">fo [&quot;a&quot;, &quot;x&quot;]</text>
<text text-anchor="start" x="340" y="-189.15" font-family="Menlo" font-size="10.00">am []</text>
</g>
<!-- R2C3&#45;&gt;R3C3 -->
<g id="edge7" class="edge">
<title>R2C3:s&#45;&gt;R3C3</title>
<path fill="none" stroke="gray" d="M355,-266.53C355,-263.51 355,-260.38 355,-257.24"/>
<polygon fill="gray" stroke="gray" points="356.05,-257.46 355,-254.46 353.95,-257.46 356.05,-257.46"/>
</g>
<!-- R3C3&#45;&gt;R1C1 -->
<g id="edge38" class="edge">
<title>R3C3:s&#45;&gt;R1C1</title>
<path fill="none" stroke="red" stroke-dasharray="1,5" d="M355,-181.78C355,-172.47 390.38,-176.11 396.88,-182.78 418.54,-204.96 417.85,-229.7 396.88,-252.53 372,-279.61 261.02,-243.94 232,-266.53 206.21,-286.61 225.37,-308.35 208,-336.04 205.8,-339.55 203.29,-343 200.61,-346.34"/>
<polygon fill="red" stroke="red" points="199.95,-345.49 198.84,-348.47 201.56,-346.83 199.95,-345.49"/>
</g>
<!-- R3C3&#45;&gt;R1C3 -->
<g id="edge39" class="edge">
<title>R3C3:s&#45;&gt;R1C3</title>
<path fill="none" stroke="red" stroke-dasharray="1,5" d="M355,-181.78C355,-172.47 390.02,-176.48 396.88,-182.78 447.13,-228.94 433.15,-273.43 406,-336.04 404.34,-339.88 402.19,-343.55 399.73,-347.03"/>
<polygon fill="red" stroke="red" points="399.04,-346.21 398.08,-349.24 400.72,-347.47 399.04,-346.21"/>
</g>
<!-- R3C3&#45;&gt;R4C3 -->
<!-- R0C3 -->
<!-- R0C2&#45;&gt;R0C3 -->
<!-- R0C3&#45;&gt;R1C3 -->
<!-- R1C0&#45;&gt;R1C1 -->
<!-- R2C0 -->
<!-- R1C0&#45;&gt;R2C0 -->
<!-- R2C0&#45;&gt;R2C1 -->
<!-- R3C0 -->
<!-- R2C0&#45;&gt;R3C0 -->
<!-- R2C2&#45;&gt;R3C2 -->
<!-- R2C2&#45;&gt;R2C3 -->
<!-- R3C0&#45;&gt;R3C1 -->
<!-- R4C0 -->
<!-- R3C0&#45;&gt;R4C0 -->
<!-- R4C0&#45;&gt;R4C1 -->
<!-- R5C0 -->
<!-- R4C0&#45;&gt;R5C0 -->
<!-- R4C3&#45;&gt;R5C3 -->
<!-- R5C0&#45;&gt;R5C1 -->
<!-- R5C1&#45;&gt;R5C2 -->
</g>
</svg>
