<?xml version="1.0" encoding="UTF-8" standalone="no"?>
<!DOCTYPE svg PUBLIC "-//W3C//DTD SVG 1.1//EN"
 "http://www.w3.org/Graphics/SVG/1.1/DTD/svg11.dtd">
<!-- Generated by graphviz version 9.0.0 (20230911.1827)
 -->
<!-- Title: G Pages: 1 -->
<svg width="712pt" height="569pt"
 viewBox="0.00 0.00 712.00 568.62" xmlns="http://www.w3.org/2000/svg" xmlns:xlink="http://www.w3.org/1999/xlink">
<g id="graph0" class="graph" transform="scale(1 1) rotate(0) translate(4 564.62)">
<title>G</title>
<polygon fill="white" stroke="none" points="-4,4 -4,-564.62 708,-564.62 708,4 -4,4"/>
<g id="clust1" class="cluster">
<title>GSS</title>
<polygon fill="none" stroke="black" points="8,-8 8,-536.12 384,-536.12 384,-8 8,-8"/>
<text text-anchor="start" x="16" y="-522.62" font-family="Menlo" font-size="10.00" fill="green">↵bbbbb↵</text>
</g>
<g id="clust2" class="cluster">
<title>clusterS</title>
<polygon fill="none" stroke="black" points="392,-264.83 392,-552.62 696,-552.62 696,-264.83 392,-264.83"/>
<text text-anchor="start" x="400" y="-539.12" font-family="Menlo" font-size="10.00">S = &quot;b&quot; | S S .</text>
</g>
<!-- G0 -->
<g id="node1" class="node">
<title>G0</title>
<path fill="none" stroke="gray" d="M136.46,-66.27C136.46,-66.27 83.54,-66.27 83.54,-66.27 79.58,-66.27 75.62,-62.31 75.62,-58.35 75.62,-58.35 75.62,-50.43 75.62,-50.43 75.62,-46.47 79.58,-42.51 83.54,-42.51 83.54,-42.51 136.46,-42.51 136.46,-42.51 140.42,-42.51 144.38,-46.47 144.38,-50.43 144.38,-50.43 144.38,-58.35 144.38,-58.35 144.38,-62.31 140.42,-66.27 136.46,-66.27"/>
<text text-anchor="start" x="104" y="-54.89" font-family="Menlo" font-size="10.00">G0</text>
<text text-anchor="start" x="78.5" y="-46.79" font-family="Menlo" font-size="8.00" fill="gray"> 1, 2, 3, 4, 5</text>
</g>
<!-- G0&#45;&gt;G0 -->
<g id="edge2" class="edge">
<title>G0&#45;&gt;G0</title>
<path fill="none" stroke="gray" d="M144.76,-59.83C154.71,-59.62 162.38,-57.8 162.38,-54.39 162.38,-51.51 156.92,-49.77 149.23,-49.17"/>
<polygon fill="gray" stroke="gray" points="149.32,-48.12 146.27,-49.02 149.21,-50.22 149.32,-48.12"/>
</g>
<!-- ●○ -->
<g id="node2" class="node">
<title>●○</title>
<path fill="none" stroke="gray" d="M39.96,-34.51C39.96,-34.51 34.04,-34.51 34.04,-34.51 31.08,-34.51 28.12,-31.55 28.12,-28.59 28.12,-28.59 28.12,-21.92 28.12,-21.92 28.12,-18.96 31.08,-16 34.04,-16 34.04,-16 39.96,-16 39.96,-16 42.92,-16 45.88,-18.96 45.88,-21.92 45.88,-21.92 45.88,-28.59 45.88,-28.59 45.88,-31.55 42.92,-34.51 39.96,-34.51"/>
<text text-anchor="middle" x="37" y="-22.13" font-family="Menlo" font-size="10.00">●○</text>
</g>
<!-- G0&#45;&gt;●○ -->
<g id="edge1" class="edge">
<title>G0&#45;&gt;●○</title>
<path fill="none" stroke="gray" d="M79.46,-42.04C69.12,-38.2 58.13,-34.11 49.91,-31.06"/>
<polygon fill="gray" stroke="gray" points="50.72,-30.23 47.54,-30.17 49.99,-32.2 50.72,-30.23"/>
</g>
<!-- G1 -->
<g id="node3" class="node">
<title>G1</title>
<path fill="none" stroke="gray" d="M223.71,-129.79C223.71,-129.79 184.29,-129.79 184.29,-129.79 180.33,-129.79 176.37,-125.83 176.37,-121.87 176.37,-121.87 176.37,-113.95 176.37,-113.95 176.37,-109.99 180.33,-106.03 184.29,-106.03 184.29,-106.03 223.71,-106.03 223.71,-106.03 227.67,-106.03 231.63,-109.99 231.63,-113.95 231.63,-113.95 231.63,-121.87 231.63,-121.87 231.63,-125.83 227.67,-129.79 223.71,-129.79"/>
<text text-anchor="start" x="198" y="-118.41" font-family="Menlo" font-size="10.00">G1</text>
<text text-anchor="start" x="179.25" y="-110.31" font-family="Menlo" font-size="8.00" fill="gray"> 2, 3, 4, 5</text>
</g>
<!-- G1&#45;&gt;G1 -->
<g id="edge4" class="edge">
<title>G1&#45;&gt;G1</title>
<path fill="none" stroke="gray" d="M232.07,-123.86C241.79,-123.93 249.63,-121.94 249.63,-117.91 249.63,-114.51 244.05,-112.56 236.47,-112.08"/>
<polygon fill="gray" stroke="gray" points="236.61,-111.03 233.58,-112 236.55,-113.13 236.61,-111.03"/>
</g>
<!-- H1 -->
<g id="node4" class="node">
<title>H1</title>
<path fill="none" stroke="gray" d="M183.71,-98.03C183.71,-98.03 144.29,-98.03 144.29,-98.03 140.33,-98.03 136.37,-94.07 136.37,-90.11 136.37,-90.11 136.37,-82.19 136.37,-82.19 136.37,-78.23 140.33,-74.27 144.29,-74.27 144.29,-74.27 183.71,-74.27 183.71,-74.27 187.67,-74.27 191.63,-78.23 191.63,-82.19 191.63,-82.19 191.63,-90.11 191.63,-90.11 191.63,-94.07 187.67,-98.03 183.71,-98.03"/>
<text text-anchor="start" x="158" y="-86.65" font-family="Menlo" font-size="10.00">H1</text>
<text text-anchor="start" x="139.25" y="-78.55" font-family="Menlo" font-size="8.00" fill="gray"> 2, 3, 4, 5</text>
</g>
<!-- G1&#45;&gt;H1 -->
<g id="edge3" class="edge">
<title>G1&#45;&gt;H1</title>
<path fill="none" stroke="gray" d="M189.11,-105.83C186.95,-104.22 184.71,-102.56 182.49,-100.91"/>
<polygon fill="gray" stroke="gray" points="183.29,-100.19 180.25,-99.24 182.03,-101.88 183.29,-100.19"/>
</g>
<!-- H1&#45;&gt;G0 -->
<g id="edge13" class="edge">
<title>H1&#45;&gt;G0</title>
<path fill="none" stroke="gray" d="M143.58,-73.9C140.49,-72.2 137.28,-70.42 134.12,-68.68"/>
<polygon fill="gray" stroke="gray" points="134.9,-67.92 131.77,-67.39 133.89,-69.76 134.9,-67.92"/>
</g>
<!-- H1&#45;&gt;●○ -->
<g id="edge14" class="edge">
<title>H1&#45;&gt;●○</title>
<path fill="none" stroke="gray" d="M170.27,-73.98C174.68,-64.48 178.56,-51.04 171,-42.51 155.3,-24.79 80.9,-24.92 50.25,-25.76"/>
<polygon fill="gray" stroke="gray" points="50.53,-24.7 47.57,-25.84 50.6,-26.8 50.53,-24.7"/>
</g>
<!-- G2 -->
<g id="node5" class="node">
<title>G2</title>
<path fill="none" stroke="gray" d="M189.96,-193.31C189.96,-193.31 164.04,-193.31 164.04,-193.31 160.08,-193.31 156.12,-189.35 156.12,-185.39 156.12,-185.39 156.12,-177.47 156.12,-177.47 156.12,-173.51 160.08,-169.55 164.04,-169.55 164.04,-169.55 189.96,-169.55 189.96,-169.55 193.92,-169.55 197.88,-173.51 197.88,-177.47 197.88,-177.47 197.88,-185.39 197.88,-185.39 197.88,-189.35 193.92,-193.31 189.96,-193.31"/>
<text text-anchor="start" x="171" y="-181.93" font-family="Menlo" font-size="10.00">G2</text>
<text text-anchor="start" x="159" y="-173.83" font-family="Menlo" font-size="8.00" fill="gray"> 3, 4, 5</text>
</g>
<!-- G2&#45;&gt;G2 -->
<g id="edge6" class="edge">
<title>G2&#45;&gt;G2</title>
<path fill="none" stroke="gray" d="M198.2,-187.29C207.68,-187.85 215.88,-185.9 215.88,-181.43 215.88,-177.66 210.04,-175.68 202.52,-175.49"/>
<polygon fill="gray" stroke="gray" points="202.69,-174.44 199.71,-175.54 202.73,-176.54 202.69,-174.44"/>
</g>
<!-- H2 -->
<g id="node6" class="node">
<title>H2</title>
<path fill="none" stroke="gray" d="M149.96,-161.55C149.96,-161.55 124.04,-161.55 124.04,-161.55 120.08,-161.55 116.12,-157.59 116.12,-153.63 116.12,-153.63 116.12,-145.71 116.12,-145.71 116.12,-141.75 120.08,-137.79 124.04,-137.79 124.04,-137.79 149.96,-137.79 149.96,-137.79 153.92,-137.79 157.88,-141.75 157.88,-145.71 157.88,-145.71 157.88,-153.63 157.88,-153.63 157.88,-157.59 153.92,-161.55 149.96,-161.55"/>
<text text-anchor="start" x="131" y="-150.17" font-family="Menlo" font-size="10.00">H2</text>
<text text-anchor="start" x="119" y="-142.07" font-family="Menlo" font-size="8.00" fill="gray"> 3, 4, 5</text>
</g>
<!-- G2&#45;&gt;H2 -->
<g id="edge5" class="edge">
<title>G2&#45;&gt;H2</title>
<path fill="none" stroke="gray" d="M162.11,-169.35C159.95,-167.74 157.71,-166.08 155.49,-164.43"/>
<polygon fill="gray" stroke="gray" points="156.29,-163.71 153.25,-162.76 155.03,-165.4 156.29,-163.71"/>
</g>
<!-- H2&#45;&gt;G0 -->
<g id="edge17" class="edge">
<title>H2&#45;&gt;G0</title>
<path fill="none" stroke="gray" d="M133.8,-137.6C128.99,-121 119.9,-89.6 114.45,-70.78"/>
<polygon fill="gray" stroke="gray" points="115.55,-70.78 113.7,-68.19 113.53,-71.36 115.55,-70.78"/>
</g>
<!-- H2&#45;&gt;●○ -->
<g id="edge18" class="edge">
<title>H2&#45;&gt;●○</title>
<path fill="none" stroke="gray" d="M127.04,-137.39C113.26,-121.69 87.73,-92.23 67,-66.27 59.61,-57.01 51.57,-46.25 45.67,-38.22"/>
<polygon fill="gray" stroke="gray" points="46.8,-37.98 44.18,-36.18 45.11,-39.22 46.8,-37.98"/>
</g>
<!-- H2&#45;&gt;G1 -->
<g id="edge15" class="edge">
<title>H2&#45;&gt;G1</title>
<path fill="none" stroke="gray" d="M158.2,-139.25C163.43,-136.93 169.13,-134.4 174.67,-131.94"/>
<polygon fill="gray" stroke="gray" points="174.78,-133.04 177.1,-130.86 173.93,-131.12 174.78,-133.04"/>
</g>
<!-- H2&#45;&gt;H1 -->
<g id="edge16" class="edge">
<title>H2&#45;&gt;H1</title>
<path fill="none" stroke="gray" d="M141.95,-137.39C146.25,-127.59 152.52,-113.31 157.27,-102.48"/>
<polygon fill="gray" stroke="gray" points="158.23,-102.92 158.47,-99.75 156.3,-102.07 158.23,-102.92"/>
</g>
<!-- G3 -->
<g id="node7" class="node">
<title>G3</title>
<path fill="none" stroke="gray" d="M236.21,-256.83C236.21,-256.83 223.79,-256.83 223.79,-256.83 219.83,-256.83 215.87,-252.87 215.87,-248.91 215.87,-248.91 215.87,-240.99 215.87,-240.99 215.87,-237.03 219.83,-233.07 223.79,-233.07 223.79,-233.07 236.21,-233.07 236.21,-233.07 240.17,-233.07 244.13,-237.03 244.13,-240.99 244.13,-240.99 244.13,-248.91 244.13,-248.91 244.13,-252.87 240.17,-256.83 236.21,-256.83"/>
<text text-anchor="start" x="224" y="-245.45" font-family="Menlo" font-size="10.00">G3</text>
<text text-anchor="start" x="218.75" y="-237.35" font-family="Menlo" font-size="8.00" fill="gray"> 4, 5</text>
</g>
<!-- G3&#45;&gt;G3 -->
<g id="edge8" class="edge">
<title>G3&#45;&gt;G3</title>
<path fill="none" stroke="gray" d="M244.54,-250.48C253.55,-251.82 262.13,-249.97 262.13,-244.95 262.13,-240.71 256.02,-238.73 248.7,-239.02"/>
<polygon fill="gray" stroke="gray" points="248.93,-237.95 246.05,-239.27 249.13,-240.04 248.93,-237.95"/>
</g>
<!-- H3 -->
<g id="node8" class="node">
<title>H3</title>
<path fill="none" stroke="gray" d="M236.21,-225.07C236.21,-225.07 223.79,-225.07 223.79,-225.07 219.83,-225.07 215.87,-221.11 215.87,-217.15 215.87,-217.15 215.87,-209.23 215.87,-209.23 215.87,-205.27 219.83,-201.31 223.79,-201.31 223.79,-201.31 236.21,-201.31 236.21,-201.31 240.17,-201.31 244.13,-205.27 244.13,-209.23 244.13,-209.23 244.13,-217.15 244.13,-217.15 244.13,-221.11 240.17,-225.07 236.21,-225.07"/>
<text text-anchor="start" x="224" y="-213.69" font-family="Menlo" font-size="10.00">H3</text>
<text text-anchor="start" x="218.75" y="-205.59" font-family="Menlo" font-size="8.00" fill="gray"> 4, 5</text>
</g>
<!-- G3&#45;&gt;H3 -->
<g id="edge7" class="edge">
<title>G3&#45;&gt;H3</title>
<path fill="none" stroke="gray" d="M230,-232.87C230,-231.77 230,-230.64 230,-229.51"/>
<polygon fill="gray" stroke="gray" points="231.05,-229.7 230,-226.7 228.95,-229.7 231.05,-229.7"/>
</g>
<!-- H3&#45;&gt;G0 -->
<g id="edge23" class="edge">
<title>H3&#45;&gt;G0</title>
<path fill="none" stroke="gray" d="M244.44,-203.84C248.58,-200.92 252.83,-197.35 256,-193.31 280.18,-162.51 289.45,-138.79 268,-106.03 254.8,-85.88 191.41,-70.44 149.04,-62.16"/>
<polygon fill="gray" stroke="gray" points="149.38,-61.16 146.24,-61.62 148.98,-63.22 149.38,-61.16"/>
</g>
<!-- H3&#45;&gt;●○ -->
<g id="edge24" class="edge">
<title>H3&#45;&gt;●○</title>
<path fill="none" stroke="gray" d="M244.42,-207.66C252.2,-204.62 261.5,-199.94 268,-193.31 295.33,-165.43 298.25,-139.41 278,-106.03 265.68,-85.72 255.65,-86.02 235,-74.27 227.04,-69.74 224.13,-70.49 216,-66.27 198.32,-57.1 196.8,-49.09 178,-42.51 133.34,-26.87 76.33,-25.55 50.64,-25.86"/>
<polygon fill="gray" stroke="gray" points="50.71,-24.81 47.73,-25.91 50.75,-26.91 50.71,-24.81"/>
</g>
<!-- H3&#45;&gt;G1 -->
<g id="edge21" class="edge">
<title>H3&#45;&gt;G1</title>
<path fill="none" stroke="gray" d="M232.73,-201.14C234.42,-192.42 235.79,-180.02 233,-169.55 229.55,-156.59 221.91,-143.48 215.34,-133.86"/>
<polygon fill="gray" stroke="gray" points="216.24,-133.31 213.66,-131.45 214.52,-134.51 216.24,-133.31"/>
</g>
<!-- H3&#45;&gt;H1 -->
<g id="edge22" class="edge">
<title>H3&#45;&gt;H1</title>
<path fill="none" stroke="gray" d="M239.02,-200.82C254.65,-179.65 282.93,-133.84 259,-106.03 251.23,-97 217.67,-100.42 206,-98.03 202.71,-97.36 199.3,-96.59 195.9,-95.78"/>
<polygon fill="gray" stroke="gray" points="196.55,-94.86 193.39,-95.17 196.06,-96.9 196.55,-94.86"/>
</g>
<!-- H3&#45;&gt;G2 -->
<g id="edge19" class="edge">
<title>H3&#45;&gt;G2</title>
<path fill="none" stroke="gray" d="M215.52,-204.06C211.02,-201.53 205.94,-198.68 200.98,-195.9"/>
<polygon fill="gray" stroke="gray" points="201.68,-195.08 198.55,-194.53 200.65,-196.91 201.68,-195.08"/>
</g>
<!-- H3&#45;&gt;H2 -->
<g id="edge20" class="edge">
<title>H3&#45;&gt;H2</title>
<path fill="none" stroke="gray" d="M231.97,-200.95C232.96,-191.39 232.62,-177.93 225,-169.55 222.85,-167.19 187.53,-160.14 162.3,-155.35"/>
<polygon fill="gray" stroke="gray" points="162.67,-154.35 159.52,-154.83 162.28,-156.42 162.67,-154.35"/>
</g>
<!-- G4 -->
<g id="node9" class="node">
<title>G4</title>
<path fill="none" stroke="gray" d="M87.96,-377.85C87.96,-377.85 82.04,-377.85 82.04,-377.85 79.08,-377.85 76.12,-374.89 76.12,-371.93 76.12,-371.93 76.12,-360.01 76.12,-360.01 76.12,-357.05 79.08,-354.09 82.04,-354.09 82.04,-354.09 87.96,-354.09 87.96,-354.09 90.92,-354.09 93.88,-357.05 93.88,-360.01 93.88,-360.01 93.88,-371.93 93.88,-371.93 93.88,-374.89 90.92,-377.85 87.96,-377.85"/>
<text text-anchor="start" x="79" y="-366.47" font-family="Menlo" font-size="10.00">G4</text>
<text text-anchor="start" x="80.5" y="-358.37" font-family="Menlo" font-size="8.00" fill="gray"> 5</text>
</g>
<!-- G4&#45;&gt;G4 -->
<g id="edge10" class="edge">
<title>G4&#45;&gt;G4</title>
<path fill="none" stroke="gray" d="M94.37,-375.95C102.82,-380.81 111.88,-377.48 111.88,-365.97 111.88,-356.26 105.43,-352.37 98.34,-354.31"/>
<polygon fill="gray" stroke="gray" points="98.12,-353.27 95.76,-355.4 98.93,-355.2 98.12,-353.27"/>
</g>
<!-- H4 -->
<g id="node10" class="node">
<title>H4</title>
<path fill="none" stroke="gray" d="M122.96,-313.09C122.96,-313.09 117.04,-313.09 117.04,-313.09 114.08,-313.09 111.12,-310.13 111.12,-307.17 111.12,-307.17 111.12,-295.25 111.12,-295.25 111.12,-292.29 114.08,-289.33 117.04,-289.33 117.04,-289.33 122.96,-289.33 122.96,-289.33 125.92,-289.33 128.88,-292.29 128.88,-295.25 128.88,-295.25 128.88,-307.17 128.88,-307.17 128.88,-310.13 125.92,-313.09 122.96,-313.09"/>
<text text-anchor="start" x="114" y="-301.71" font-family="Menlo" font-size="10.00">H4</text>
<text text-anchor="start" x="115.5" y="-293.61" font-family="Menlo" font-size="8.00" fill="gray"> 5</text>
</g>
<!-- G4&#45;&gt;H4 -->
<g id="edge9" class="edge">
<title>G4&#45;&gt;H4</title>
<path fill="none" stroke="gray" d="M91.26,-353.75C96.98,-343.49 105.49,-328.23 111.76,-316.98"/>
<polygon fill="gray" stroke="gray" points="112.52,-317.79 113.06,-314.65 110.68,-316.76 112.52,-317.79"/>
</g>
<!-- H4&#45;&gt;G0 -->
<g id="edge31" class="edge">
<title>H4&#45;&gt;G0</title>
<path fill="none" stroke="gray" d="M110.67,-289.66C98.02,-274.22 77,-244.08 77,-214.19 77,-214.19 77,-214.19 77,-148.67 77,-119.76 91.26,-88.56 101.03,-70.56"/>
<polygon fill="gray" stroke="gray" points="101.89,-71.17 102.43,-68.04 100.06,-70.15 101.89,-71.17"/>
</g>
<!-- H4&#45;&gt;●○ -->
<g id="edge32" class="edge">
<title>H4&#45;&gt;●○</title>
<path fill="none" stroke="gray" d="M110.99,-293.92C100.74,-286.31 84.26,-272.54 75,-256.83 31.84,-183.61 33.87,-75.83 36.03,-39.07"/>
<polygon fill="gray" stroke="gray" points="37.06,-39.52 36.2,-36.46 34.96,-39.39 37.06,-39.52"/>
</g>
<!-- H4&#45;&gt;G1 -->
<g id="edge29" class="edge">
<title>H4&#45;&gt;G1</title>
<path fill="none" stroke="gray" d="M122.2,-288.85C128.29,-257.49 145.06,-171.87 147,-169.55 153.15,-162.21 159.2,-167.1 167,-161.55 177.81,-153.86 187.54,-142.38 194.3,-133.27"/>
<polygon fill="gray" stroke="gray" points="194.85,-134.3 195.76,-131.25 193.15,-133.06 194.85,-134.3"/>
</g>
<!-- H4&#45;&gt;H1 -->
<g id="edge30" class="edge">
<title>H4&#45;&gt;H1</title>
<path fill="none" stroke="gray" d="M115.01,-289.06C108.24,-272.89 97,-241.86 97,-214.19 97,-214.19 97,-214.19 97,-148.67 97,-126.91 116.42,-110.75 134.34,-100.46"/>
<polygon fill="gray" stroke="gray" points="134.47,-101.6 136.58,-99.22 133.45,-99.76 134.47,-101.6"/>
</g>
<!-- H4&#45;&gt;G2 -->
<g id="edge27" class="edge">
<title>H4&#45;&gt;G2</title>
<path fill="none" stroke="gray" d="M125.88,-288.84C130.37,-280.12 136.66,-267.76 142,-256.83 151.97,-236.43 163.06,-212.66 170.03,-197.58"/>
<polygon fill="gray" stroke="gray" points="170.94,-198.11 171.25,-194.95 169.04,-197.23 170.94,-198.11"/>
</g>
<!-- H4&#45;&gt;H2 -->
<g id="edge28" class="edge">
<title>H4&#45;&gt;H2</title>
<path fill="none" stroke="gray" d="M120.4,-288.94C121.35,-266.21 124.26,-213.29 132,-169.55 132.2,-168.44 132.43,-167.3 132.68,-166.16"/>
<polygon fill="gray" stroke="gray" points="133.69,-166.42 133.37,-163.25 131.65,-165.93 133.69,-166.42"/>
</g>
<!-- H4&#45;&gt;G3 -->
<g id="edge25" class="edge">
<title>H4&#45;&gt;G3</title>
<path fill="none" stroke="gray" d="M129.06,-291.28C137.79,-283.17 151.76,-271.48 166,-264.83 180.85,-257.89 186.32,-261.59 202,-256.83 205.09,-255.89 208.32,-254.77 211.44,-253.61"/>
<polygon fill="gray" stroke="gray" points="211.77,-254.61 214.2,-252.56 211.02,-252.65 211.77,-254.61"/>
</g>
<!-- H4&#45;&gt;H3 -->
<g id="edge26" class="edge">
<title>H4&#45;&gt;H3</title>
<path fill="none" stroke="gray" d="M129.38,-292.88C147.7,-278.55 188.52,-246.63 212.15,-228.15"/>
<polygon fill="gray" stroke="gray" points="212.6,-229.13 214.32,-226.45 211.31,-227.47 212.6,-229.13"/>
</g>
<!-- G5 -->
<g id="node11" class="node">
<title>G5</title>
<path fill="none" stroke="gray" d="M27.96,-507.37C27.96,-507.37 22.04,-507.37 22.04,-507.37 19.08,-507.37 16.12,-504.41 16.12,-501.45 16.12,-501.45 16.12,-489.53 16.12,-489.53 16.12,-486.57 19.08,-483.61 22.04,-483.61 22.04,-483.61 27.96,-483.61 27.96,-483.61 30.92,-483.61 33.88,-486.57 33.88,-489.53 33.88,-489.53 33.88,-501.45 33.88,-501.45 33.88,-504.41 30.92,-507.37 27.96,-507.37"/>
<text text-anchor="start" x="19" y="-495.99" font-family="Menlo" font-size="10.00">G5</text>
<text text-anchor="start" x="22.75" y="-487.89" font-family="Menlo" font-size="8.00" fill="gray"> </text>
</g>
<!-- G5&#45;&gt;G5 -->
<g id="edge12" class="edge">
<title>G5&#45;&gt;G5</title>
<path fill="none" stroke="gray" d="M34.37,-505.47C42.82,-510.33 51.88,-507 51.88,-495.49 51.88,-485.78 45.43,-481.89 38.34,-483.83"/>
<polygon fill="gray" stroke="gray" points="38.12,-482.79 35.76,-484.92 38.93,-484.72 38.12,-482.79"/>
</g>
<!-- H5 -->
<g id="node12" class="node">
<title>H5</title>
<path fill="none" stroke="gray" d="M27.96,-442.61C27.96,-442.61 22.04,-442.61 22.04,-442.61 19.08,-442.61 16.12,-439.65 16.12,-436.69 16.12,-436.69 16.12,-424.77 16.12,-424.77 16.12,-421.81 19.08,-418.85 22.04,-418.85 22.04,-418.85 27.96,-418.85 27.96,-418.85 30.92,-418.85 33.88,-421.81 33.88,-424.77 33.88,-424.77 33.88,-436.69 33.88,-436.69 33.88,-439.65 30.92,-442.61 27.96,-442.61"/>
<text text-anchor="start" x="19" y="-431.23" font-family="Menlo" font-size="10.00">H5</text>
<text text-anchor="start" x="22.75" y="-423.13" font-family="Menlo" font-size="8.00" fill="gray"> </text>
</g>
<!-- G5&#45;&gt;H5 -->
<g id="edge11" class="edge">
<title>G5&#45;&gt;H5</title>
<path fill="none" stroke="gray" d="M25,-483.27C25,-473.18 25,-458.28 25,-447.09"/>
<polygon fill="gray" stroke="gray" points="26.05,-447.37 25,-444.37 23.95,-447.37 26.05,-447.37"/>
</g>
<!-- H5&#45;&gt;G0 -->
<g id="edge41" class="edge">
<title>H5&#45;&gt;G0</title>
<path fill="none" stroke="gray" d="M25.7,-418.45C28.11,-382.03 37.1,-264.49 58,-169.55 64.26,-141.12 66.07,-134.04 74,-106.03 78.03,-91.79 75.35,-86.28 84,-74.27 85.26,-72.52 86.74,-70.86 88.34,-69.31"/>
<polygon fill="gray" stroke="gray" points="88.65,-70.44 90.19,-67.66 87.25,-68.87 88.65,-70.44"/>
</g>
<!-- H5&#45;&gt;●○ -->
<g id="edge42" class="edge">
<title>H5&#45;&gt;●○</title>
<path fill="none" stroke="gray" d="M34.28,-428.99C68.05,-426.14 184.05,-415.01 214,-394.35 284.14,-345.97 296.06,-309.91 304,-225.07 310.53,-155.3 309.21,-122.1 258,-74.27 237.09,-54.74 229.27,-51.16 202,-42.51 147.83,-25.33 79.07,-24.98 50.45,-25.72"/>
<polygon fill="gray" stroke="gray" points="50.69,-24.66 47.72,-25.8 50.75,-26.76 50.69,-24.66"/>
</g>
<!-- H5&#45;&gt;G1 -->
<g id="edge39" class="edge">
<title>H5&#45;&gt;G1</title>
<path fill="none" stroke="gray" d="M34.14,-428.86C64.38,-425.8 160.59,-414.62 183,-394.35 227.98,-353.66 179.67,-303.97 226,-264.83 243.86,-249.74 262.77,-274.58 278,-256.83 306.69,-223.39 288.2,-208.15 229,-137.79 227.56,-136.07 225.93,-134.42 224.21,-132.85"/>
<polygon fill="gray" stroke="gray" points="225.16,-132.28 222.2,-131.12 223.79,-133.87 225.16,-132.28"/>
</g>
<!-- H5&#45;&gt;H1 -->
<g id="edge40" class="edge">
<title>H5&#45;&gt;H1</title>
<path fill="none" stroke="gray" d="M34.06,-429.02C66,-426.37 172.75,-416 198,-394.35 244.6,-354.39 199.04,-304.37 246,-264.83 260.87,-252.31 276.11,-271.38 289,-256.83 317.9,-224.21 279.75,-117.13 268,-106.03 257.8,-96.4 222.72,-91.54 196.09,-89.19"/>
<polygon fill="gray" stroke="gray" points="196.49,-88.17 193.41,-88.96 196.31,-90.26 196.49,-88.17"/>
</g>
<!-- H5&#45;&gt;G2 -->
<g id="edge37" class="edge">
<title>H5&#45;&gt;G2</title>
<path fill="none" stroke="gray" d="M34.28,-429.54C54.97,-428.58 105.09,-423.23 131,-394.35 144.3,-379.52 167.06,-244.33 174.54,-197.96"/>
<polygon fill="gray" stroke="gray" points="175.53,-198.38 174.97,-195.25 173.46,-198.04 175.53,-198.38"/>
</g>
<!-- H5&#45;&gt;H2 -->
<g id="edge38" class="edge">
<title>H5&#45;&gt;H2</title>
<path fill="none" stroke="gray" d="M29.86,-418.37C38.81,-396.37 57,-346.26 57,-302.21 57,-302.21 57,-302.21 57,-212.19 57,-184.03 88.53,-166.98 112,-158.19"/>
<polygon fill="gray" stroke="gray" points="112.09,-159.27 114.56,-157.27 111.38,-157.3 112.09,-159.27"/>
</g>
<!-- H5&#45;&gt;G3 -->
<g id="edge35" class="edge">
<title>H5&#45;&gt;G3</title>
<path fill="none" stroke="gray" d="M34.18,-430.21C58.01,-430.9 122.31,-429.28 156,-394.35 197.02,-351.82 148.09,-310.15 186,-264.83 192.42,-257.16 202.52,-252.53 211.43,-249.77"/>
<polygon fill="gray" stroke="gray" points="211.63,-250.81 214.23,-248.98 211.05,-248.79 211.63,-250.81"/>
</g>
<!-- H5&#45;&gt;H3 -->
<g id="edge36" class="edge">
<title>H5&#45;&gt;H3</title>
<path fill="none" stroke="gray" d="M34.15,-428.68C62.68,-425.23 149.25,-413.37 169,-394.35 212.12,-352.82 160.5,-303.74 206,-264.83 228.12,-245.91 251.72,-278.63 271,-256.83 278,-248.92 276.7,-241.96 271,-233.07 265.99,-225.24 256.82,-220.62 248.42,-217.9"/>
<polygon fill="gray" stroke="gray" points="249.01,-216.98 245.84,-217.15 248.42,-219 249.01,-216.98"/>
</g>
<!-- H5&#45;&gt;G4 -->
<g id="edge33" class="edge">
<title>H5&#45;&gt;G4</title>
<path fill="none" stroke="gray" d="M34.09,-421.56C41.75,-414.55 52.88,-404.08 62,-394.35 65.78,-390.32 69.72,-385.78 73.24,-381.57"/>
<polygon fill="gray" stroke="gray" points="74.02,-382.28 75.12,-379.3 72.4,-380.94 74.02,-382.28"/>
</g>
<!-- H5&#45;&gt;H4 -->
<g id="edge34" class="edge">
<title>H5&#45;&gt;H4</title>
<path fill="none" stroke="gray" d="M34.15,-429.56C53.99,-428.64 100.78,-423.35 121,-394.35 136.91,-371.54 130.75,-337.21 125.16,-317.54"/>
<polygon fill="gray" stroke="gray" points="126.2,-317.36 124.34,-314.79 124.19,-317.96 126.2,-317.36"/>
</g>
<!-- SR0C0 -->
<g id="node13" class="node">
<title>SR0C0</title>
<polygon fill="none" stroke="gray" points="483.88,-523.87 400.12,-523.87 400.12,-467.11 483.88,-467.11 483.88,-523.87"/>
<text text-anchor="start" x="439" y="-511.49" font-family="Menlo" font-size="10.00">I</text>
<text text-anchor="start" x="433" y="-498.74" font-family="Menlo" font-size="10.00">N S</text>
<text text-anchor="start" x="418" y="-485.99" font-family="Menlo" font-size="10.00">fi [&quot;b&quot;]</text>
<text text-anchor="start" x="403" y="-473.24" font-family="Menlo" font-size="10.00">fo [&quot;$&quot;, &quot;b&quot;]</text>
</g>
<!-- SR0C1 -->
<g id="node14" class="node">
<title>SR0C1</title>
<polygon fill="none" stroke="gray" points="585.88,-523.87 502.12,-523.87 502.12,-467.11 585.88,-467.11 585.88,-523.87"/>
<text text-anchor="start" x="541" y="-511.49" font-family="Menlo" font-size="10.00">B</text>
<text text-anchor="start" x="532" y="-498.74" font-family="Menlo" font-size="10.00">ALT </text>
<text text-anchor="start" x="520" y="-485.99" font-family="Menlo" font-size="10.00">fi [&quot;b&quot;]</text>
<text text-anchor="start" x="505" y="-473.24" font-family="Menlo" font-size="10.00">fo [&quot;$&quot;, &quot;b&quot;]</text>
</g>
<!-- SR0C0&#45;&gt;SR0C1 -->
<g id="edge49" class="edge">
<title>SR0C0&#45;&gt;SR0C1</title>
<path fill="none" stroke="gray" d="M484.23,-495.49C488.67,-495.49 493.11,-495.49 497.54,-495.49"/>
<polygon fill="gray" stroke="gray" points="497.46,-496.54 500.46,-495.49 497.46,-494.44 497.46,-496.54"/>
</g>
<!-- SR1C0 -->
<!-- SR0C0&#45;&gt;SR1C0 -->
<!-- SR1C1 -->
<g id="node15" class="node">
<title>SR1C1</title>
<polygon fill="none" stroke="gray" points="585.88,-459.11 502.12,-459.11 502.12,-402.35 585.88,-402.35 585.88,-459.11"/>
<text text-anchor="start" x="541" y="-446.73" font-family="Menlo" font-size="10.00">C</text>
<text text-anchor="start" x="529" y="-433.98" font-family="Menlo" font-size="10.00">T &quot;b&quot;</text>
<text text-anchor="start" x="520" y="-421.23" font-family="Menlo" font-size="10.00">fi [&quot;b&quot;]</text>
<text text-anchor="start" x="505" y="-408.48" font-family="Menlo" font-size="10.00">fo [&quot;$&quot;, &quot;b&quot;]</text>
</g>
<!-- SR0C1&#45;&gt;SR1C1 -->
<g id="edge44" class="edge">
<title>SR0C1&#45;&gt;SR1C1</title>
<path fill="none" stroke="gray" d="M544,-466.78C544,-465.69 544,-464.59 544,-463.49"/>
<polygon fill="gray" stroke="gray" points="545.05,-463.78 544,-460.78 542.95,-463.78 545.05,-463.78"/>
</g>
<!-- SR0C2 -->
<g id="node17" class="node">
<title>SR0C2</title>
<polygon fill="none" stroke="gray" points="672.88,-523.87 619.12,-523.87 619.12,-467.11 672.88,-467.11 672.88,-523.87"/>
<text text-anchor="start" x="643" y="-511.49" font-family="Menlo" font-size="10.00">E</text>
<text text-anchor="start" x="634" y="-498.74" font-family="Menlo" font-size="10.00">ALT </text>
<text text-anchor="start" x="622" y="-485.99" font-family="Menlo" font-size="10.00">fi [&quot;b&quot;]</text>
<text text-anchor="start" x="622" y="-473.24" font-family="Menlo" font-size="10.00">fo [&quot;b&quot;]</text>
</g>
<!-- SR0C1&#45;&gt;SR0C2 -->
<g id="edge48" class="edge">
<title>SR0C1&#45;&gt;SR0C2</title>
<path fill="none" stroke="gray" d="M586.23,-495.49C595.68,-495.49 605.13,-495.49 614.58,-495.49"/>
<polygon fill="gray" stroke="gray" points="614.41,-496.54 617.41,-495.49 614.41,-494.44 614.41,-496.54"/>
</g>
<!-- SR2C1 -->
<g id="node16" class="node">
<title>SR2C1</title>
<polygon fill="none" stroke="gray" points="585.88,-394.35 502.12,-394.35 502.12,-337.59 585.88,-337.59 585.88,-394.35"/>
<text text-anchor="start" x="541" y="-381.97" font-family="Menlo" font-size="10.00">D</text>
<text text-anchor="start" x="532" y="-369.22" font-family="Menlo" font-size="10.00">END </text>
<text text-anchor="start" x="523" y="-356.47" font-family="Menlo" font-size="10.00">fi [&quot;&quot;]</text>
<text text-anchor="start" x="505" y="-343.72" font-family="Menlo" font-size="10.00">fo [&quot;$&quot;, &quot;b&quot;]</text>
</g>
<!-- SR1C1&#45;&gt;SR2C1 -->
<g id="edge43" class="edge">
<title>SR1C1&#45;&gt;SR2C1</title>
<path fill="none" stroke="gray" d="M544,-402.02C544,-400.93 544,-399.83 544,-398.73"/>
<polygon fill="gray" stroke="gray" points="545.05,-399.02 544,-396.02 542.95,-399.02 545.05,-399.02"/>
</g>
<!-- SR3C1 -->
<!-- SR2C1&#45;&gt;SR3C1 -->
<!-- SR1C2 -->
<g id="node18" class="node">
<title>SR1C2</title>
<polygon fill="none" stroke="gray" points="672.88,-459.11 619.12,-459.11 619.12,-402.35 672.88,-402.35 672.88,-459.11"/>
<text text-anchor="start" x="643" y="-446.73" font-family="Menlo" font-size="10.00">F</text>
<text text-anchor="start" x="637" y="-433.98" font-family="Menlo" font-size="10.00">N S</text>
<text text-anchor="start" x="622" y="-421.23" font-family="Menlo" font-size="10.00">fi [&quot;b&quot;]</text>
<text text-anchor="start" x="622" y="-408.48" font-family="Menlo" font-size="10.00">fo [&quot;b&quot;]</text>
</g>
<!-- SR0C2&#45;&gt;SR1C2 -->
<g id="edge47" class="edge">
<title>SR0C2&#45;&gt;SR1C2</title>
<path fill="none" stroke="gray" d="M646,-466.78C646,-465.69 646,-464.59 646,-463.49"/>
<polygon fill="gray" stroke="gray" points="647.05,-463.78 646,-460.78 644.95,-463.78 647.05,-463.78"/>
</g>
<!-- SR2C2 -->
<g id="node19" class="node">
<title>SR2C2</title>
<polygon fill="none" stroke="gray" points="687.88,-394.35 604.12,-394.35 604.12,-337.59 687.88,-337.59 687.88,-394.35"/>
<text text-anchor="start" x="643" y="-381.97" font-family="Menlo" font-size="10.00">G</text>
<text text-anchor="start" x="637" y="-369.22" font-family="Menlo" font-size="10.00">N S</text>
<text text-anchor="start" x="622" y="-356.47" font-family="Menlo" font-size="10.00">fi [&quot;b&quot;]</text>
<text text-anchor="start" x="607" y="-343.72" font-family="Menlo" font-size="10.00">fo [&quot;$&quot;, &quot;b&quot;]</text>
</g>
<!-- SR1C2&#45;&gt;SR2C2 -->
<g id="edge46" class="edge">
<title>SR1C2&#45;&gt;SR2C2</title>
<path fill="none" stroke="gray" d="M646,-402.02C646,-400.93 646,-399.83 646,-398.73"/>
<polygon fill="gray" stroke="gray" points="647.05,-399.02 646,-396.02 644.95,-399.02 647.05,-399.02"/>
</g>
<!-- SR3C2 -->
<g id="node20" class="node">
<title>SR3C2</title>
<polygon fill="none" stroke="gray" points="687.88,-329.59 604.12,-329.59 604.12,-272.83 687.88,-272.83 687.88,-329.59"/>
<text text-anchor="start" x="643" y="-317.21" font-family="Menlo" font-size="10.00">H</text>
<text text-anchor="start" x="634" y="-304.46" font-family="Menlo" font-size="10.00">END </text>
<text text-anchor="start" x="625" y="-291.71" font-family="Menlo" font-size="10.00">fi [&quot;&quot;]</text>
<text text-anchor="start" x="607" y="-278.96" font-family="Menlo" font-size="10.00">fo [&quot;$&quot;, &quot;b&quot;]</text>
</g>
<!-- SR2C2&#45;&gt;SR3C2 -->
<g id="edge45" class="edge">
<title>SR2C2&#45;&gt;SR3C2</title>
<path fill="none" stroke="gray" d="M646,-337.26C646,-336.17 646,-335.07 646,-333.97"/>
<polygon fill="gray" stroke="gray" points="647.05,-334.26 646,-331.26 644.95,-334.26 647.05,-334.26"/>
</g>
<!-- SR1C0&#45;&gt;SR1C1 -->
<!-- SR2C0 -->
<!-- SR1C0&#45;&gt;SR2C0 -->
<!-- SR2C0&#45;&gt;SR2C1 -->
<!-- SR3C0 -->
<!-- SR2C0&#45;&gt;SR3C0 -->
<!-- SR3C0&#45;&gt;SR3C1 -->
<!-- SR3C1&#45;&gt;SR3C2 -->
</g>
</svg>
