<?xml version="1.0" encoding="UTF-8" standalone="no"?>
<!DOCTYPE svg PUBLIC "-//W3C//DTD SVG 1.1//EN"
 "http://www.w3.org/Graphics/SVG/1.1/DTD/svg11.dtd">
<!-- Generated by graphviz version 9.0.0 (20230911.1827)
 -->
<!-- Title: G Pages: 1 -->
<svg width="425pt" height="363pt"
 viewBox="0.00 0.00 425.00 362.79" xmlns="http://www.w3.org/2000/svg" xmlns:xlink="http://www.w3.org/1999/xlink">
<g id="graph0" class="graph" transform="scale(1 1) rotate(0) translate(4 358.79)">
<title>G</title>
<polygon fill="white" stroke="none" points="-4,4 -4,-358.79 421,-358.79 421,4 -4,4"/>
<g id="clust1" class="cluster">
<title>GSS</title>
<polygon fill="none" stroke="black" points="8,-33.5 8,-323.92 66,-323.92 66,-33.5 8,-33.5"/>
<text text-anchor="start" x="16" y="-310.42" font-family="Menlo" font-size="10.00" fill="green">xxx↵</text>
</g>
<g id="clust2" class="cluster">
<title>clusterS</title>
<polygon fill="none" stroke="black" points="74,-8 74,-346.79 409,-346.79 409,-8 74,-8"/>
<text text-anchor="start" x="82" y="-333.29" font-family="Menlo" font-size="10.00">S = &quot;x&quot; S | &quot;&quot; .</text>
</g>
<!-- F1 -->
<g id="node1" class="node">
<title>F1</title>
<path fill="none" stroke="gray" d="M49.96,-140.15C49.96,-140.15 24.04,-140.15 24.04,-140.15 20.08,-140.15 16.12,-136.19 16.12,-132.23 16.12,-132.23 16.12,-124.31 16.12,-124.31 16.12,-120.35 20.08,-116.39 24.04,-116.39 24.04,-116.39 49.96,-116.39 49.96,-116.39 53.92,-116.39 57.88,-120.35 57.88,-124.31 57.88,-124.31 57.88,-132.23 57.88,-132.23 57.88,-136.19 53.92,-140.15 49.96,-140.15"/>
<text text-anchor="start" x="31" y="-128.77" font-family="Menlo" font-size="10.00">F1</text>
<text text-anchor="start" x="19" y="-120.67" font-family="Menlo" font-size="8.00" fill="gray"> 1, 2, 3</text>
</g>
<!-- K0 -->
<g id="node2" class="node">
<title>K0</title>
<path fill="none" stroke="gray" d="M39.96,-60.01C39.96,-60.01 34.04,-60.01 34.04,-60.01 31.08,-60.01 28.12,-57.05 28.12,-54.09 28.12,-54.09 28.12,-47.42 28.12,-47.42 28.12,-44.46 31.08,-41.5 34.04,-41.5 34.04,-41.5 39.96,-41.5 39.96,-41.5 42.92,-41.5 45.88,-44.46 45.88,-47.42 45.88,-47.42 45.88,-54.09 45.88,-54.09 45.88,-57.05 42.92,-60.01 39.96,-60.01"/>
<text text-anchor="middle" x="37" y="-47.63" font-family="Menlo" font-size="10.00">K0</text>
</g>
<!-- F1&#45;&gt;K0 -->
<g id="edge1" class="edge">
<title>F1&#45;&gt;K0</title>
<path fill="none" stroke="gray" d="M37,-116.12C37,-102.29 37,-78.77 37,-64.31"/>
<polygon fill="gray" stroke="gray" points="38.05,-64.65 37,-61.65 35.95,-64.65 38.05,-64.65"/>
</g>
<!-- F2 -->
<g id="node3" class="node">
<title>F2</title>
<path fill="none" stroke="gray" d="M43.21,-217.66C43.21,-217.66 30.79,-217.66 30.79,-217.66 26.83,-217.66 22.87,-213.7 22.87,-209.74 22.87,-209.74 22.87,-201.82 22.87,-201.82 22.87,-197.86 26.83,-193.9 30.79,-193.9 30.79,-193.9 43.21,-193.9 43.21,-193.9 47.17,-193.9 51.13,-197.86 51.13,-201.82 51.13,-201.82 51.13,-209.74 51.13,-209.74 51.13,-213.7 47.17,-217.66 43.21,-217.66"/>
<text text-anchor="start" x="31" y="-206.28" font-family="Menlo" font-size="10.00">F2</text>
<text text-anchor="start" x="25.75" y="-198.18" font-family="Menlo" font-size="8.00" fill="gray"> 2, 3</text>
</g>
<!-- F2&#45;&gt;F1 -->
<g id="edge2" class="edge">
<title>F2&#45;&gt;F1</title>
<path fill="none" stroke="gray" d="M37,-193.63C37,-180.7 37,-159.27 37,-144.73"/>
<polygon fill="gray" stroke="gray" points="38.05,-144.97 37,-141.97 35.95,-144.97 38.05,-144.97"/>
</g>
<!-- F3 -->
<g id="node4" class="node">
<title>F3</title>
<path fill="none" stroke="gray" d="M39.96,-295.17C39.96,-295.17 34.04,-295.17 34.04,-295.17 31.08,-295.17 28.12,-292.21 28.12,-289.25 28.12,-289.25 28.12,-277.33 28.12,-277.33 28.12,-274.37 31.08,-271.41 34.04,-271.41 34.04,-271.41 39.96,-271.41 39.96,-271.41 42.92,-271.41 45.88,-274.37 45.88,-277.33 45.88,-277.33 45.88,-289.25 45.88,-289.25 45.88,-292.21 42.92,-295.17 39.96,-295.17"/>
<text text-anchor="start" x="31" y="-283.79" font-family="Menlo" font-size="10.00">F3</text>
<text text-anchor="start" x="32.5" y="-275.69" font-family="Menlo" font-size="8.00" fill="gray"> 3</text>
</g>
<!-- F3&#45;&gt;F2 -->
<g id="edge3" class="edge">
<title>F3&#45;&gt;F2</title>
<path fill="none" stroke="gray" d="M37,-271.14C37,-258.21 37,-236.78 37,-222.24"/>
<polygon fill="gray" stroke="gray" points="38.05,-222.48 37,-219.48 35.95,-222.48 38.05,-222.48"/>
</g>
<!-- SR0C0 -->
<g id="node5" class="node">
<title>SR0C0</title>
<polygon fill="none" stroke="gray" points="159.88,-318.04 82.12,-318.04 82.12,-248.53 159.88,-248.53 159.88,-318.04"/>
<text text-anchor="start" x="118" y="-305.66" font-family="Menlo" font-size="10.00">J</text>
<text text-anchor="start" x="112" y="-292.91" font-family="Menlo" font-size="10.00">N S</text>
<text text-anchor="start" x="85" y="-280.16" font-family="Menlo" font-size="10.00">fi [&quot;&quot;, &quot;x&quot;]</text>
<text text-anchor="start" x="100" y="-267.41" font-family="Menlo" font-size="10.00">fo [&quot;&quot;]</text>
<text text-anchor="start" x="106" y="-254.66" font-family="Menlo" font-size="10.00">am []</text>
</g>
<!-- SR0C1 -->
<g id="node6" class="node">
<title>SR0C1</title>
<polygon fill="none" stroke="gray" points="282.88,-318.04 229.12,-318.04 229.12,-248.53 282.88,-248.53 282.88,-318.04"/>
<text text-anchor="start" x="253" y="-305.66" font-family="Menlo" font-size="10.00">C</text>
<text text-anchor="start" x="244" y="-292.91" font-family="Menlo" font-size="10.00">ALT </text>
<text text-anchor="start" x="232" y="-280.16" font-family="Menlo" font-size="10.00">fi [&quot;x&quot;]</text>
<text text-anchor="start" x="235" y="-267.41" font-family="Menlo" font-size="10.00">fo [&quot;&quot;]</text>
<text text-anchor="start" x="241" y="-254.66" font-family="Menlo" font-size="10.00">am []</text>
</g>
<!-- SR0C0&#45;&gt;SR0C1 -->
<g id="edge10" class="edge">
<title>SR0C0&#45;&gt;SR0C1</title>
<path fill="none" stroke="gray" d="M160.29,-283.29C181.67,-283.29 203.05,-283.29 224.43,-283.29"/>
<polygon fill="gray" stroke="gray" points="224.19,-284.34 227.19,-283.29 224.19,-282.24 224.19,-284.34"/>
</g>
<!-- SR1C0 -->
<!-- SR0C0&#45;&gt;SR1C0 -->
<!-- SR1C1 -->
<g id="node7" class="node">
<title>SR1C1</title>
<polygon fill="none" stroke="gray" points="294.88,-240.53 217.12,-240.53 217.12,-171.02 294.88,-171.02 294.88,-240.53"/>
<text text-anchor="start" x="253" y="-228.15" font-family="Menlo" font-size="10.00">D</text>
<text text-anchor="start" x="241" y="-215.4" font-family="Menlo" font-size="10.00">T &quot;x&quot;</text>
<text text-anchor="start" x="232" y="-202.65" font-family="Menlo" font-size="10.00">fi [&quot;x&quot;]</text>
<text text-anchor="start" x="220" y="-189.9" font-family="Menlo" font-size="10.00">fo [&quot;&quot;, &quot;x&quot;]</text>
<text text-anchor="start" x="241" y="-177.15" font-family="Menlo" font-size="10.00">am []</text>
</g>
<!-- SR0C1&#45;&gt;SR1C1 -->
<g id="edge6" class="edge">
<title>SR0C1&#45;&gt;SR1C1</title>
<path fill="none" stroke="gray" d="M256,-248.06C256,-247.19 256,-246.31 256,-245.43"/>
<polygon fill="gray" stroke="gray" points="257.05,-245.54 256,-242.54 254.95,-245.54 257.05,-245.54"/>
</g>
<!-- SR0C2 -->
<g id="node10" class="node">
<title>SR0C2</title>
<polygon fill="none" stroke="gray" points="360.88,-318.04 313.12,-318.04 313.12,-248.53 360.88,-248.53 360.88,-318.04"/>
<text text-anchor="start" x="334" y="-305.66" font-family="Menlo" font-size="10.00">G</text>
<text text-anchor="start" x="325" y="-292.91" font-family="Menlo" font-size="10.00">ALT </text>
<text text-anchor="start" x="316" y="-280.16" font-family="Menlo" font-size="10.00">fi [&quot;&quot;]</text>
<text text-anchor="start" x="316" y="-267.41" font-family="Menlo" font-size="10.00">fo [&quot;&quot;]</text>
<text text-anchor="start" x="322" y="-254.66" font-family="Menlo" font-size="10.00">am []</text>
</g>
<!-- SR0C1&#45;&gt;SR0C2 -->
<g id="edge9" class="edge">
<title>SR0C1&#45;&gt;SR0C2</title>
<path fill="none" stroke="gray" d="M283.21,-283.29C291.64,-283.29 300.06,-283.29 308.49,-283.29"/>
<polygon fill="gray" stroke="gray" points="308.11,-284.34 311.11,-283.29 308.11,-282.24 308.11,-284.34"/>
</g>
<!-- SR2C1 -->
<g id="node8" class="node">
<title>SR2C1</title>
<polygon fill="none" stroke="gray" points="294.88,-163.02 217.12,-163.02 217.12,-93.51 294.88,-93.51 294.88,-163.02"/>
<text text-anchor="start" x="253" y="-150.64" font-family="Menlo" font-size="10.00">E</text>
<text text-anchor="start" x="247" y="-137.89" font-family="Menlo" font-size="10.00">N S</text>
<text text-anchor="start" x="220" y="-125.14" font-family="Menlo" font-size="10.00">fi [&quot;&quot;, &quot;x&quot;]</text>
<text text-anchor="start" x="235" y="-112.39" font-family="Menlo" font-size="10.00">fo [&quot;&quot;]</text>
<text text-anchor="start" x="241" y="-99.64" font-family="Menlo" font-size="10.00">am []</text>
</g>
<!-- SR1C1&#45;&gt;SR2C1 -->
<g id="edge5" class="edge">
<title>SR1C1&#45;&gt;SR2C1</title>
<path fill="none" stroke="gray" d="M256,-170.55C256,-169.68 256,-168.8 256,-167.92"/>
<polygon fill="gray" stroke="gray" points="257.05,-168.03 256,-165.03 254.95,-168.03 257.05,-168.03"/>
</g>
<!-- SR2C1&#45;&gt;SR0C1 -->
<g id="edge23" class="edge">
<title>SR2C1:e&#45;&gt;SR0C1</title>
<path fill="none" stroke="blue" stroke-dasharray="1,5" d="M296,-128.27C303.73,-128.27 300.29,-157.39 295,-163.02 281.71,-177.17 221.08,-156.68 208,-171.02 187.18,-193.84 195.19,-212.42 208,-240.53 211.93,-249.15 218.61,-256.68 225.76,-262.88"/>
<polygon fill="blue" stroke="blue" points="224.71,-263.37 227.68,-264.49 226.05,-261.76 224.71,-263.37"/>
</g>
<!-- SR3C1 -->
<g id="node9" class="node">
<title>SR3C1</title>
<polygon fill="none" stroke="gray" points="279.88,-85.51 232.12,-85.51 232.12,-16 279.88,-16 279.88,-85.51"/>
<text text-anchor="start" x="253" y="-73.13" font-family="Menlo" font-size="10.00">F</text>
<text text-anchor="start" x="244" y="-60.38" font-family="Menlo" font-size="10.00">END </text>
<text text-anchor="start" x="235" y="-47.63" font-family="Menlo" font-size="10.00">fi [&quot;&quot;]</text>
<text text-anchor="start" x="235" y="-34.88" font-family="Menlo" font-size="10.00">fo [&quot;&quot;]</text>
<text text-anchor="start" x="241" y="-22.13" font-family="Menlo" font-size="10.00">am []</text>
</g>
<!-- SR2C1&#45;&gt;SR3C1 -->
<g id="edge4" class="edge">
<title>SR2C1&#45;&gt;SR3C1</title>
<path fill="none" stroke="gray" d="M256,-93.04C256,-92.17 256,-91.29 256,-90.41"/>
<polygon fill="gray" stroke="gray" points="257.05,-90.52 256,-87.52 254.95,-90.52 257.05,-90.52"/>
</g>
<!-- SR3C1&#45;&gt;SR0C0 -->
<g id="edge19" class="edge">
<title>SR3C1:w&#45;&gt;SR0C0:s</title>
<path fill="none" stroke="red" d="M231,-50.76C215.55,-50.76 221.23,-74.42 232,-85.51 253.4,-107.55 348.92,-71.17 370,-93.51 414.85,-141.03 415.46,-193.59 370,-240.53 361.05,-249.77 153.53,-236.78 124.39,-246.03"/>
<polygon fill="red" stroke="red" points="124.01,-245.01 122.22,-247.63 125.26,-246.69 124.01,-245.01"/>
</g>
<!-- SR3C1&#45;&gt;SR0C1 -->
<g id="edge21" class="edge">
<title>SR3C1:e&#45;&gt;SR0C1</title>
<path fill="none" stroke="green" stroke-dasharray="1,5" d="M281,-50.76C296.45,-50.76 290.47,-74.14 280,-85.51 269.09,-97.35 218.74,-81.51 208,-93.51 164.42,-142.2 180.91,-181.07 208,-240.53 211.93,-249.15 218.61,-256.68 225.76,-262.88"/>
<polygon fill="green" stroke="green" points="224.71,-263.37 227.68,-264.49 226.05,-261.76 224.71,-263.37"/>
</g>
<!-- SR3C2 -->
<!-- SR3C1&#45;&gt;SR3C2 -->
<!-- SR1C2 -->
<g id="node11" class="node">
<title>SR1C2</title>
<polygon fill="none" stroke="gray" points="360.88,-240.53 313.12,-240.53 313.12,-171.02 360.88,-171.02 360.88,-240.53"/>
<text text-anchor="start" x="334" y="-228.15" font-family="Menlo" font-size="10.00">H</text>
<text text-anchor="start" x="325" y="-215.4" font-family="Menlo" font-size="10.00">EPS </text>
<text text-anchor="start" x="316" y="-202.65" font-family="Menlo" font-size="10.00">fi [&quot;&quot;]</text>
<text text-anchor="start" x="316" y="-189.9" font-family="Menlo" font-size="10.00">fo [&quot;&quot;]</text>
<text text-anchor="start" x="322" y="-177.15" font-family="Menlo" font-size="10.00">am []</text>
</g>
<!-- SR0C2&#45;&gt;SR1C2 -->
<g id="edge8" class="edge">
<title>SR0C2&#45;&gt;SR1C2</title>
<path fill="none" stroke="gray" d="M337,-248.06C337,-247.19 337,-246.31 337,-245.43"/>
<polygon fill="gray" stroke="gray" points="338.05,-245.54 337,-242.54 335.95,-245.54 338.05,-245.54"/>
</g>
<!-- SR2C2 -->
<g id="node12" class="node">
<title>SR2C2</title>
<polygon fill="none" stroke="gray" points="360.88,-163.02 313.12,-163.02 313.12,-93.51 360.88,-93.51 360.88,-163.02"/>
<text text-anchor="start" x="334" y="-150.64" font-family="Menlo" font-size="10.00">I</text>
<text text-anchor="start" x="325" y="-137.89" font-family="Menlo" font-size="10.00">END </text>
<text text-anchor="start" x="316" y="-125.14" font-family="Menlo" font-size="10.00">fi [&quot;&quot;]</text>
<text text-anchor="start" x="316" y="-112.39" font-family="Menlo" font-size="10.00">fo [&quot;&quot;]</text>
<text text-anchor="start" x="322" y="-99.64" font-family="Menlo" font-size="10.00">am []</text>
</g>
<!-- SR1C2&#45;&gt;SR2C2 -->
<g id="edge7" class="edge">
<title>SR1C2&#45;&gt;SR2C2</title>
<path fill="none" stroke="gray" d="M337,-170.55C337,-169.68 337,-168.8 337,-167.92"/>
<polygon fill="gray" stroke="gray" points="338.05,-168.03 337,-165.03 335.95,-168.03 338.05,-168.03"/>
</g>
<!-- SR2C2&#45;&gt;SR0C0 -->
<g id="edge20" class="edge">
<title>SR2C2:w&#45;&gt;SR0C0:s</title>
<path fill="none" stroke="red" d="M312,-128.27C304.27,-128.27 307.85,-157.26 313,-163.02 330.06,-182.08 353.22,-151.71 370,-171.02 390.27,-194.33 391.49,-218.34 370,-240.53 361.05,-249.77 153.53,-236.78 124.39,-246.03"/>
<polygon fill="red" stroke="red" points="124.01,-245.01 122.22,-247.63 125.26,-246.69 124.01,-245.01"/>
</g>
<!-- SR2C2&#45;&gt;SR0C2 -->
<g id="edge22" class="edge">
<title>SR2C2:e&#45;&gt;SR0C2</title>
<path fill="none" stroke="green" stroke-dasharray="1,5" d="M362,-128.27C377.45,-128.27 371.8,-151.97 361,-163.02 349.1,-175.2 219.72,-158.67 208,-171.02 186.73,-193.43 187.22,-217.67 208,-240.53 220.61,-254.4 274.51,-241.76 292,-248.53 297.92,-250.82 303.73,-254.12 309.12,-257.78"/>
<polygon fill="green" stroke="green" points="308.48,-258.61 311.53,-259.48 309.69,-256.9 308.48,-258.61"/>
</g>
<!-- SR2C2&#45;&gt;SR3C2 -->
<!-- SR1C0&#45;&gt;SR1C1 -->
<!-- SR2C0 -->
<!-- SR1C0&#45;&gt;SR2C0 -->
<!-- SR2C0&#45;&gt;SR2C1 -->
<!-- SR3C0 -->
<!-- SR2C0&#45;&gt;SR3C0 -->
<!-- SR3C0&#45;&gt;SR3C1 -->
</g>
</svg>
