<?xml version="1.0" encoding="UTF-8" standalone="no"?>
<!DOCTYPE svg PUBLIC "-//W3C//DTD SVG 1.1//EN"
 "http://www.w3.org/Graphics/SVG/1.1/DTD/svg11.dtd">
<!-- Generated by graphviz version 9.0.0 (20230911.1827)
 -->
<!-- Title: G Pages: 1 -->
<svg width="214pt" height="330pt"
 viewBox="0.00 0.00 214.00 329.79" xmlns="http://www.w3.org/2000/svg" xmlns:xlink="http://www.w3.org/1999/xlink">
<g id="graph0" class="graph" transform="scale(1 1) rotate(0) translate(4 325.79)">
<title>G</title>
<polygon fill="white" stroke="none" points="-4,4 -4,-325.79 210,-325.79 210,4 -4,4"/>
<g id="clust1" class="cluster">
<title>clusterS</title>
<polygon fill="none" stroke="black" points="8,-8 8,-313.79 198,-313.79 198,-8 8,-8"/>
<text text-anchor="start" x="16" y="-300.29" font-family="Menlo" font-size="10.00">S = [ &quot;x&quot; ] .</text>
</g>
<!-- 8 -->
<g id="node1" class="node">
<title>8</title>
<polygon fill="none" stroke="gray" points="93.88,-285.04 16.12,-285.04 16.12,-228.28 93.88,-228.28 93.88,-285.04"/>
<text text-anchor="start" x="52" y="-272.66" font-family="Menlo" font-size="10.00">8</text>
<text text-anchor="start" x="46" y="-259.91" font-family="Menlo" font-size="10.00">N S</text>
<text text-anchor="start" x="19" y="-247.16" font-family="Menlo" font-size="10.00">fi [&quot;&quot;, &quot;x&quot;]</text>
<text text-anchor="start" x="34" y="-234.41" font-family="Menlo" font-size="10.00">fo [&quot;&quot;]</text>
</g>
<!-- 2 -->
<g id="node2" class="node">
<title>2</title>
<polygon fill="none" stroke="gray" points="189.88,-285.04 112.12,-285.04 112.12,-228.28 189.88,-228.28 189.88,-285.04"/>
<text text-anchor="start" x="148" y="-272.66" font-family="Menlo" font-size="10.00">2</text>
<text text-anchor="start" x="139" y="-259.91" font-family="Menlo" font-size="10.00">ALT </text>
<text text-anchor="start" x="115" y="-247.16" font-family="Menlo" font-size="10.00">fi [&quot;&quot;, &quot;x&quot;]</text>
<text text-anchor="start" x="130" y="-234.41" font-family="Menlo" font-size="10.00">fo [&quot;&quot;]</text>
</g>
<!-- 8&#45;&gt;2 -->
<g id="edge1" class="edge">
<title>8&#45;&gt;2</title>
<path fill="none" stroke="gray" d="M94.38,-256.66C98.69,-256.66 103,-256.66 107.31,-256.66"/>
<polygon fill="gray" stroke="gray" points="107.11,-257.71 110.11,-256.66 107.11,-255.61 107.11,-257.71"/>
</g>
<!-- 6 -->
<g id="node3" class="node">
<title>6</title>
<polygon fill="none" stroke="gray" points="97.88,-214.28 20.12,-214.28 20.12,-157.52 97.88,-157.52 97.88,-214.28"/>
<text text-anchor="start" x="56" y="-201.9" font-family="Menlo" font-size="10.00">6</text>
<text text-anchor="start" x="47" y="-189.15" font-family="Menlo" font-size="10.00">OPT </text>
<text text-anchor="start" x="23" y="-176.4" font-family="Menlo" font-size="10.00">fi [&quot;&quot;, &quot;x&quot;]</text>
<text text-anchor="start" x="38" y="-163.65" font-family="Menlo" font-size="10.00">fo [&quot;&quot;]</text>
</g>
<!-- 2&#45;&gt;6 -->
<g id="edge2" class="edge">
<title>2&#45;&gt;6</title>
<path fill="none" stroke="gray" d="M113.85,-227.89C109.24,-224.45 104.5,-220.91 99.84,-217.42"/>
<polygon fill="gray" stroke="gray" points="100.54,-216.63 97.51,-215.68 99.28,-218.32 100.54,-216.63"/>
</g>
<!-- 3 -->
<g id="node4" class="node">
<title>3</title>
<polygon fill="none" stroke="gray" points="189.88,-214.28 136.12,-214.28 136.12,-157.52 189.88,-157.52 189.88,-214.28"/>
<text text-anchor="start" x="160" y="-201.9" font-family="Menlo" font-size="10.00">3</text>
<text text-anchor="start" x="151" y="-189.15" font-family="Menlo" font-size="10.00">ALT </text>
<text text-anchor="start" x="139" y="-176.4" font-family="Menlo" font-size="10.00">fi [&quot;x&quot;]</text>
<text text-anchor="start" x="142" y="-163.65" font-family="Menlo" font-size="10.00">fo [&quot;&quot;]</text>
</g>
<!-- 6&#45;&gt;3 -->
<g id="edge3" class="edge">
<title>6&#45;&gt;3</title>
<path fill="none" stroke="gray" d="M98,-185.9C109.13,-185.9 120.27,-185.9 131.4,-185.9"/>
<polygon fill="gray" stroke="gray" points="131.32,-186.95 134.32,-185.9 131.32,-184.85 131.32,-186.95"/>
</g>
<!-- 7 -->
<g id="node7" class="node">
<title>7</title>
<polygon fill="none" stroke="gray" points="82.88,-143.52 35.12,-143.52 35.12,-86.76 82.88,-86.76 82.88,-143.52"/>
<text text-anchor="start" x="56" y="-131.14" font-family="Menlo" font-size="10.00">7</text>
<text text-anchor="start" x="47" y="-118.39" font-family="Menlo" font-size="10.00">END </text>
<text text-anchor="start" x="38" y="-105.64" font-family="Menlo" font-size="10.00">fi [&quot;&quot;]</text>
<text text-anchor="start" x="38" y="-92.89" font-family="Menlo" font-size="10.00">fo [&quot;&quot;]</text>
</g>
<!-- 6&#45;&gt;7 -->
<g id="edge6" class="edge">
<title>6&#45;&gt;7</title>
<path fill="none" stroke="gray" d="M59,-157.33C59,-154.25 59,-151.09 59,-147.96"/>
<polygon fill="gray" stroke="gray" points="60.05,-148.23 59,-145.23 57.95,-148.23 60.05,-148.23"/>
</g>
<!-- 4 -->
<g id="node5" class="node">
<title>4</title>
<polygon fill="none" stroke="gray" points="189.88,-143.52 136.12,-143.52 136.12,-86.76 189.88,-86.76 189.88,-143.52"/>
<text text-anchor="start" x="160" y="-131.14" font-family="Menlo" font-size="10.00">4</text>
<text text-anchor="start" x="148" y="-118.39" font-family="Menlo" font-size="10.00">T &quot;x&quot;</text>
<text text-anchor="start" x="139" y="-105.64" font-family="Menlo" font-size="10.00">fi [&quot;x&quot;]</text>
<text text-anchor="start" x="148" y="-92.89" font-family="Menlo" font-size="10.00">fo []</text>
</g>
<!-- 3&#45;&gt;4 -->
<g id="edge4" class="edge">
<title>3&#45;&gt;4</title>
<path fill="none" stroke="gray" d="M163,-157.33C163,-154.25 163,-151.09 163,-147.96"/>
<polygon fill="gray" stroke="gray" points="164.05,-148.23 163,-145.23 161.95,-148.23 164.05,-148.23"/>
</g>
<!-- 5 -->
<g id="node6" class="node">
<title>5</title>
<polygon fill="none" stroke="gray" points="186.88,-72.76 139.12,-72.76 139.12,-16 186.88,-16 186.88,-72.76"/>
<text text-anchor="start" x="160" y="-60.38" font-family="Menlo" font-size="10.00">5</text>
<text text-anchor="start" x="151" y="-47.63" font-family="Menlo" font-size="10.00">END </text>
<text text-anchor="start" x="142" y="-34.88" font-family="Menlo" font-size="10.00">fi [&quot;&quot;]</text>
<text text-anchor="start" x="148" y="-22.13" font-family="Menlo" font-size="10.00">fo []</text>
</g>
<!-- 4&#45;&gt;5 -->
<g id="edge5" class="edge">
<title>4&#45;&gt;5</title>
<path fill="none" stroke="gray" d="M163,-86.57C163,-83.49 163,-80.33 163,-77.2"/>
<polygon fill="gray" stroke="gray" points="164.05,-77.47 163,-74.47 161.95,-77.47 164.05,-77.47"/>
</g>
<!-- 5&#45;&gt;3 -->
<g id="edge7" class="edge">
<title>5:e&#45;&gt;3</title>
<path fill="none" stroke="gray" stroke-dasharray="1,5" d="M188,-44.38C200.62,-44.38 195.02,-63.01 187,-72.76 169.6,-93.91 144.02,-65.31 127,-86.76 111.32,-106.52 118.16,-119.89 127,-143.52 128.62,-147.84 130.91,-152.01 133.57,-155.92"/>
<polygon fill="gray" stroke="gray" points="132.4,-156.09 135,-157.92 134.1,-154.87 132.4,-156.09"/>
</g>
<!-- 7&#45;&gt;2 -->
<g id="edge8" class="edge">
<title>7:e&#45;&gt;2</title>
<path fill="none" stroke="gray" stroke-dasharray="1,5" d="M84,-115.14C108.01,-115.14 116.94,-192.47 127,-214.28 128.5,-217.53 130.18,-220.86 131.93,-224.15"/>
<polygon fill="gray" stroke="gray" points="130.93,-224.52 133.29,-226.66 132.78,-223.52 130.93,-224.52"/>
</g>
</g>
</svg>
