<?xml version="1.0" encoding="UTF-8" standalone="no"?>
<!DOCTYPE svg PUBLIC "-//W3C//DTD SVG 1.1//EN"
 "http://www.w3.org/Graphics/SVG/1.1/DTD/svg11.dtd">
<!-- Generated by graphviz version 9.0.0 (20230911.1827)
 -->
<!-- Title: G Pages: 1 -->
<svg width="526pt" height="518pt"
 viewBox="0.00 0.00 526.00 517.81" xmlns="http://www.w3.org/2000/svg" xmlns:xlink="http://www.w3.org/1999/xlink">
<g id="graph0" class="graph" transform="scale(1 1) rotate(0) translate(4 513.81)">
<title>G</title>
<polygon fill="white" stroke="none" points="-4,4 -4,-513.81 522,-513.81 522,4 -4,4"/>
<g id="clust1" class="cluster">
<title>CallReturnForest</title>
<polygon fill="none" stroke="black" points="8,-343.54 8,-478.94 162,-478.94 162,-343.54 8,-343.54"/>
<text text-anchor="start" x="16" y="-465.44" font-family="Menlo" font-size="10.00" fill="red">↵&lt;·s·&lt;·s·&gt;&gt;↵</text>
</g>
<g id="clust2" class="cluster">
<title>clusterS</title>
<polygon fill="none" stroke="black" points="170,-8 170,-501.81 510,-501.81 510,-8 170,-8"/>
<text text-anchor="start" x="178" y="-488.31" font-family="Menlo" font-size="10.00">S = &quot;&lt;&quot; &quot;s&quot; S &quot;&gt;&quot; | ε | &quot;&gt;&gt;&quot; .</text>
</g>
<!-- 0.0 -->
<g id="node1" class="node">
<title>0.0</title>
<path fill="none" stroke="gray" d="M145.96,-450.19C145.96,-450.19 138.04,-450.19 138.04,-450.19 134.08,-450.19 130.12,-446.23 130.12,-442.26 130.12,-442.26 130.12,-434.35 130.12,-434.35 130.12,-430.38 134.08,-426.43 138.04,-426.43 138.04,-426.43 145.96,-426.43 145.96,-426.43 149.92,-426.43 153.88,-430.38 153.88,-434.35 153.88,-434.35 153.88,-442.26 153.88,-442.26 153.88,-446.23 149.92,-450.19 145.96,-450.19"/>
<text text-anchor="start" x="133" y="-438.81" font-family="Menlo" font-size="10.00">S,0</text>
<text text-anchor="start" x="139.75" y="-430.7" font-family="Menlo" font-size="8.00" fill="gray"> </text>
</g>
<!-- 0.2 -->
<g id="node2" class="node">
<title>0.2</title>
<path fill="none" stroke="gray" d="M103.96,-450.19C103.96,-450.19 96.04,-450.19 96.04,-450.19 92.08,-450.19 88.12,-446.23 88.12,-442.26 88.12,-442.26 88.12,-434.35 88.12,-434.35 88.12,-430.38 92.08,-426.43 96.04,-426.43 96.04,-426.43 103.96,-426.43 103.96,-426.43 107.92,-426.43 111.88,-430.38 111.88,-434.35 111.88,-434.35 111.88,-442.26 111.88,-442.26 111.88,-446.23 107.92,-450.19 103.96,-450.19"/>
<text text-anchor="start" x="91" y="-438.81" font-family="Menlo" font-size="10.00">S,2</text>
<text text-anchor="start" x="97.75" y="-430.7" font-family="Menlo" font-size="8.00" fill="gray"> </text>
</g>
<!-- 4.0 -->
<g id="node3" class="node">
<title>4.0</title>
<path fill="none" stroke="gray" d="M147.71,-370.05C147.71,-370.05 100.29,-370.05 100.29,-370.05 97.2,-370.05 94.12,-366.97 94.12,-363.88 94.12,-363.88 94.12,-357.71 94.12,-357.71 94.12,-354.62 97.2,-351.54 100.29,-351.54 100.29,-351.54 147.71,-351.54 147.71,-351.54 150.79,-351.54 153.88,-354.62 153.88,-357.71 153.88,-357.71 153.88,-363.88 153.88,-363.88 153.88,-366.97 150.79,-370.05 147.71,-370.05"/>
<text text-anchor="start" x="97" y="-357.67" font-family="Menlo" font-size="10.00">S=&lt;sS·&gt;,0</text>
</g>
<!-- 0.2&#45;&gt;4.0 -->
<g id="edge1" class="edge">
<title>0.2&#45;&gt;4.0</title>
<path fill="none" stroke="gray" d="M103.54,-426.16C107.94,-412.33 115.41,-388.81 120.01,-374.35"/>
<polygon fill="gray" stroke="gray" points="120.97,-374.8 120.88,-371.62 118.97,-374.16 120.97,-374.8"/>
</g>
<!-- 0.4 -->
<g id="node4" class="node">
<title>0.4</title>
<path fill="none" stroke="gray" d="M49.96,-450.19C49.96,-450.19 42.04,-450.19 42.04,-450.19 38.08,-450.19 34.12,-446.23 34.12,-442.26 34.12,-442.26 34.12,-434.35 34.12,-434.35 34.12,-430.38 38.08,-426.43 42.04,-426.43 42.04,-426.43 49.96,-426.43 49.96,-426.43 53.92,-426.43 57.88,-430.38 57.88,-434.35 57.88,-434.35 57.88,-442.26 57.88,-442.26 57.88,-446.23 53.92,-450.19 49.96,-450.19"/>
<text text-anchor="start" x="37" y="-438.81" font-family="Menlo" font-size="10.00">S,4</text>
<text text-anchor="start" x="41.5" y="-430.7" font-family="Menlo" font-size="8.00" fill="gray"> 5</text>
</g>
<!-- 4.2 -->
<g id="node5" class="node">
<title>4.2</title>
<path fill="none" stroke="gray" d="M69.71,-370.05C69.71,-370.05 22.29,-370.05 22.29,-370.05 19.21,-370.05 16.12,-366.97 16.12,-363.88 16.12,-363.88 16.12,-357.71 16.12,-357.71 16.12,-354.62 19.21,-351.54 22.29,-351.54 22.29,-351.54 69.71,-351.54 69.71,-351.54 72.8,-351.54 75.88,-354.62 75.88,-357.71 75.88,-357.71 75.88,-363.88 75.88,-363.88 75.88,-366.97 72.8,-370.05 69.71,-370.05"/>
<text text-anchor="start" x="19" y="-357.67" font-family="Menlo" font-size="10.00">S=&lt;sS·&gt;,2</text>
</g>
<!-- 0.4&#45;&gt;4.2 -->
<g id="edge2" class="edge">
<title>0.4&#45;&gt;4.2</title>
<path fill="none" stroke="gray" d="M46,-426.16C46,-412.33 46,-388.81 46,-374.35"/>
<polygon fill="gray" stroke="gray" points="47.05,-374.69 46,-371.69 44.95,-374.69 47.05,-374.69"/>
</g>
<!-- SR0C0 -->
<g id="node6" class="node">
<title>SR0C0</title>
<polygon fill="none" stroke="gray" points="261.88,-473.06 178.12,-473.06 178.12,-403.55 261.88,-403.55 261.88,-473.06"/>
<text text-anchor="start" x="217" y="-460.68" font-family="Menlo" font-size="10.00">0</text>
<text text-anchor="start" x="211" y="-447.93" font-family="Menlo" font-size="10.00">N S</text>
<text text-anchor="start" x="181" y="-435.18" font-family="Menlo" font-size="10.00">fi [&lt;, &gt;&gt;, ε]</text>
<text text-anchor="start" x="193" y="-422.43" font-family="Menlo" font-size="10.00">fo [$, &gt;]</text>
<text text-anchor="start" x="199" y="-409.68" font-family="Menlo" font-size="10.00">[4:4:5]</text>
</g>
<!-- SR0C1 -->
<g id="node7" class="node">
<title>SR0C1</title>
<polygon fill="none" stroke="gray" points="321.88,-473.06 280.12,-473.06 280.12,-403.55 321.88,-403.55 321.88,-473.06"/>
<text text-anchor="start" x="298" y="-460.68" font-family="Menlo" font-size="10.00">1</text>
<text text-anchor="start" x="289" y="-447.93" font-family="Menlo" font-size="10.00">ALT </text>
<text text-anchor="start" x="283" y="-435.18" font-family="Menlo" font-size="10.00">fi [&lt;]</text>
<text text-anchor="start" x="283" y="-422.43" font-family="Menlo" font-size="10.00">fo [s]</text>
<text text-anchor="start" x="295" y="-409.68" font-family="Menlo" font-size="10.00">[]</text>
</g>
<!-- SR0C0&#45;&gt;SR0C1 -->
<g id="edge14" class="edge">
<title>SR0C0&#45;&gt;SR0C1</title>
<path fill="none" stroke="gray" d="M262.08,-438.31C266.49,-438.31 270.9,-438.31 275.31,-438.31"/>
<polygon fill="gray" stroke="gray" points="275.2,-439.36 278.2,-438.31 275.2,-437.26 275.2,-439.36"/>
</g>
<!-- SR1C0 -->
<!-- SR0C0&#45;&gt;SR1C0 -->
<!-- SR1C1 -->
<g id="node8" class="node">
<title>SR1C1</title>
<polygon fill="none" stroke="gray" points="345.88,-395.55 256.12,-395.55 256.12,-326.04 345.88,-326.04 345.88,-395.55"/>
<text text-anchor="start" x="298" y="-383.17" font-family="Menlo" font-size="10.00">2</text>
<text text-anchor="start" x="286" y="-370.42" font-family="Menlo" font-size="10.00">T &quot;&lt;&quot;</text>
<text text-anchor="start" x="283" y="-357.67" font-family="Menlo" font-size="10.00">fi [&lt;]</text>
<text text-anchor="start" x="283" y="-344.92" font-family="Menlo" font-size="10.00">fo [s]</text>
<text text-anchor="start" x="259" y="-332.17" font-family="Menlo" font-size="10.00">[0:0:1, 2:2:3]</text>
</g>
<!-- SR0C1&#45;&gt;SR1C1 -->
<g id="edge7" class="edge">
<title>SR0C1&#45;&gt;SR1C1</title>
<path fill="none" stroke="gray" d="M301,-403.08C301,-402.21 301,-401.33 301,-400.45"/>
<polygon fill="gray" stroke="gray" points="302.05,-400.56 301,-397.56 299.95,-400.56 302.05,-400.56"/>
</g>
<!-- SR0C2 -->
<g id="node13" class="node">
<title>SR0C2</title>
<polygon fill="none" stroke="gray" points="423.88,-473.06 364.12,-473.06 364.12,-403.55 423.88,-403.55 423.88,-473.06"/>
<text text-anchor="start" x="391" y="-460.68" font-family="Menlo" font-size="10.00">7</text>
<text text-anchor="start" x="382" y="-447.93" font-family="Menlo" font-size="10.00">ALT </text>
<text text-anchor="start" x="376" y="-435.18" font-family="Menlo" font-size="10.00">fi [ε]</text>
<text text-anchor="start" x="367" y="-422.43" font-family="Menlo" font-size="10.00">fo [$, &gt;]</text>
<text text-anchor="start" x="388" y="-409.68" font-family="Menlo" font-size="10.00">[]</text>
</g>
<!-- SR0C1&#45;&gt;SR0C2 -->
<g id="edge13" class="edge">
<title>SR0C1&#45;&gt;SR0C2</title>
<path fill="none" stroke="gray" d="M322.07,-438.31C334.52,-438.31 346.98,-438.31 359.43,-438.31"/>
<polygon fill="gray" stroke="gray" points="359.14,-439.36 362.14,-438.31 359.14,-437.26 359.14,-439.36"/>
</g>
<!-- SR2C1 -->
<g id="node9" class="node">
<title>SR2C1</title>
<polygon fill="none" stroke="gray" points="345.88,-318.04 256.12,-318.04 256.12,-248.53 345.88,-248.53 345.88,-318.04"/>
<text text-anchor="start" x="298" y="-305.66" font-family="Menlo" font-size="10.00">3</text>
<text text-anchor="start" x="286" y="-292.91" font-family="Menlo" font-size="10.00">T &quot;s&quot;</text>
<text text-anchor="start" x="283" y="-280.16" font-family="Menlo" font-size="10.00">fi [s]</text>
<text text-anchor="start" x="262" y="-267.41" font-family="Menlo" font-size="10.00">fo [&lt;, &gt;, &gt;&gt;]</text>
<text text-anchor="start" x="259" y="-254.66" font-family="Menlo" font-size="10.00">[0:1:2, 2:3:4]</text>
</g>
<!-- SR1C1&#45;&gt;SR2C1 -->
<g id="edge6" class="edge">
<title>SR1C1&#45;&gt;SR2C1</title>
<path fill="none" stroke="gray" d="M301,-325.57C301,-324.7 301,-323.82 301,-322.94"/>
<polygon fill="gray" stroke="gray" points="302.05,-323.05 301,-320.05 299.95,-323.05 302.05,-323.05"/>
</g>
<!-- SR3C1 -->
<g id="node10" class="node">
<title>SR3C1</title>
<polygon fill="none" stroke="gray" points="342.88,-240.53 259.12,-240.53 259.12,-171.02 342.88,-171.02 342.88,-240.53"/>
<text text-anchor="start" x="298" y="-228.15" font-family="Menlo" font-size="10.00">4</text>
<text text-anchor="start" x="292" y="-215.4" font-family="Menlo" font-size="10.00">N S</text>
<text text-anchor="start" x="262" y="-202.65" font-family="Menlo" font-size="10.00">fi [&lt;, &gt;, &gt;&gt;]</text>
<text text-anchor="start" x="283" y="-189.9" font-family="Menlo" font-size="10.00">fo [&gt;]</text>
<text text-anchor="start" x="280" y="-177.15" font-family="Menlo" font-size="10.00">[2:4:5]</text>
</g>
<!-- SR2C1&#45;&gt;SR3C1 -->
<g id="edge5" class="edge">
<title>SR2C1&#45;&gt;SR3C1</title>
<path fill="none" stroke="gray" d="M301,-248.06C301,-247.19 301,-246.31 301,-245.43"/>
<polygon fill="gray" stroke="gray" points="302.05,-245.54 301,-242.54 299.95,-245.54 302.05,-245.54"/>
</g>
<!-- SR4C1 -->
<g id="node11" class="node">
<title>SR4C1</title>
<polygon fill="none" stroke="gray" points="330.88,-163.02 271.12,-163.02 271.12,-93.51 330.88,-93.51 330.88,-163.02"/>
<text text-anchor="start" x="298" y="-150.64" font-family="Menlo" font-size="10.00">5</text>
<text text-anchor="start" x="286" y="-137.89" font-family="Menlo" font-size="10.00">T &quot;&gt;&quot;</text>
<text text-anchor="start" x="283" y="-125.14" font-family="Menlo" font-size="10.00">fi [&gt;]</text>
<text text-anchor="start" x="274" y="-112.39" font-family="Menlo" font-size="10.00">fo [$, &gt;]</text>
<text text-anchor="start" x="295" y="-99.64" font-family="Menlo" font-size="10.00">[]</text>
</g>
<!-- SR3C1&#45;&gt;SR4C1 -->
<g id="edge4" class="edge">
<title>SR3C1&#45;&gt;SR4C1</title>
<path fill="none" stroke="gray" d="M301,-170.55C301,-169.68 301,-168.8 301,-167.92"/>
<polygon fill="gray" stroke="gray" points="302.05,-168.03 301,-165.03 299.95,-168.03 302.05,-168.03"/>
</g>
<!-- SR3C2 -->
<!-- SR3C1&#45;&gt;SR3C2 -->
<!-- SR5C1 -->
<g id="node12" class="node">
<title>SR5C1</title>
<polygon fill="none" stroke="gray" points="330.88,-85.51 271.12,-85.51 271.12,-16 330.88,-16 330.88,-85.51"/>
<text text-anchor="start" x="298" y="-73.13" font-family="Menlo" font-size="10.00">6</text>
<text text-anchor="start" x="289" y="-60.38" font-family="Menlo" font-size="10.00">END </text>
<text text-anchor="start" x="283" y="-47.63" font-family="Menlo" font-size="10.00">fi [ε]</text>
<text text-anchor="start" x="274" y="-34.88" font-family="Menlo" font-size="10.00">fo [$, &gt;]</text>
<text text-anchor="start" x="295" y="-22.13" font-family="Menlo" font-size="10.00">[]</text>
</g>
<!-- SR4C1&#45;&gt;SR5C1 -->
<g id="edge3" class="edge">
<title>SR4C1&#45;&gt;SR5C1</title>
<path fill="none" stroke="gray" d="M301,-93.04C301,-92.17 301,-91.29 301,-90.41"/>
<polygon fill="gray" stroke="gray" points="302.05,-90.52 301,-87.52 299.95,-90.52 302.05,-90.52"/>
</g>
<!-- SR4C2 -->
<!-- SR4C1&#45;&gt;SR4C2 -->
<!-- SR5C2 -->
<!-- SR5C1&#45;&gt;SR5C2 -->
<!-- SR1C2 -->
<g id="node14" class="node">
<title>SR1C2</title>
<polygon fill="none" stroke="gray" points="423.88,-395.55 364.12,-395.55 364.12,-326.04 423.88,-326.04 423.88,-395.55"/>
<text text-anchor="start" x="391" y="-383.17" font-family="Menlo" font-size="10.00">8</text>
<text text-anchor="start" x="379" y="-370.42" font-family="Menlo" font-size="10.00">EPS ε</text>
<text text-anchor="start" x="376" y="-357.67" font-family="Menlo" font-size="10.00">fi [ε]</text>
<text text-anchor="start" x="367" y="-344.92" font-family="Menlo" font-size="10.00">fo [$, &gt;]</text>
<text text-anchor="start" x="388" y="-332.17" font-family="Menlo" font-size="10.00">[]</text>
</g>
<!-- SR0C2&#45;&gt;SR1C2 -->
<g id="edge9" class="edge">
<title>SR0C2&#45;&gt;SR1C2</title>
<path fill="none" stroke="gray" d="M394,-403.08C394,-402.21 394,-401.33 394,-400.45"/>
<polygon fill="gray" stroke="gray" points="395.05,-400.56 394,-397.56 392.95,-400.56 395.05,-400.56"/>
</g>
<!-- SR0C3 -->
<g id="node16" class="node">
<title>SR0C3</title>
<polygon fill="none" stroke="gray" points="501.88,-473.06 442.12,-473.06 442.12,-403.55 501.88,-403.55 501.88,-473.06"/>
<text text-anchor="start" x="466" y="-460.68" font-family="Menlo" font-size="10.00">10</text>
<text text-anchor="start" x="460" y="-447.93" font-family="Menlo" font-size="10.00">ALT </text>
<text text-anchor="start" x="451" y="-435.18" font-family="Menlo" font-size="10.00">fi [&gt;&gt;]</text>
<text text-anchor="start" x="445" y="-422.43" font-family="Menlo" font-size="10.00">fo [$, &gt;]</text>
<text text-anchor="start" x="466" y="-409.68" font-family="Menlo" font-size="10.00">[]</text>
</g>
<!-- SR0C2&#45;&gt;SR0C3 -->
<g id="edge12" class="edge">
<title>SR0C2&#45;&gt;SR0C3</title>
<path fill="none" stroke="gray" d="M424.16,-438.31C428.56,-438.31 432.95,-438.31 437.34,-438.31"/>
<polygon fill="gray" stroke="gray" points="437.22,-439.36 440.22,-438.31 437.22,-437.26 437.22,-439.36"/>
</g>
<!-- SR2C2 -->
<g id="node15" class="node">
<title>SR2C2</title>
<polygon fill="none" stroke="gray" points="423.88,-318.04 364.12,-318.04 364.12,-248.53 423.88,-248.53 423.88,-318.04"/>
<text text-anchor="start" x="391" y="-305.66" font-family="Menlo" font-size="10.00">9</text>
<text text-anchor="start" x="382" y="-292.91" font-family="Menlo" font-size="10.00">END </text>
<text text-anchor="start" x="376" y="-280.16" font-family="Menlo" font-size="10.00">fi [ε]</text>
<text text-anchor="start" x="367" y="-267.41" font-family="Menlo" font-size="10.00">fo [$, &gt;]</text>
<text text-anchor="start" x="388" y="-254.66" font-family="Menlo" font-size="10.00">[]</text>
</g>
<!-- SR1C2&#45;&gt;SR2C2 -->
<g id="edge8" class="edge">
<title>SR1C2&#45;&gt;SR2C2</title>
<path fill="none" stroke="gray" d="M394,-325.57C394,-324.7 394,-323.82 394,-322.94"/>
<polygon fill="gray" stroke="gray" points="395.05,-323.05 394,-320.05 392.95,-323.05 395.05,-323.05"/>
</g>
<!-- SR2C2&#45;&gt;SR3C2 -->
<!-- SR1C3 -->
<g id="node17" class="node">
<title>SR1C3</title>
<polygon fill="none" stroke="gray" points="501.88,-395.55 442.12,-395.55 442.12,-326.04 501.88,-326.04 501.88,-395.55"/>
<text text-anchor="start" x="466" y="-383.17" font-family="Menlo" font-size="10.00">11</text>
<text text-anchor="start" x="454" y="-370.42" font-family="Menlo" font-size="10.00">T &quot;&gt;&gt;&quot;</text>
<text text-anchor="start" x="451" y="-357.67" font-family="Menlo" font-size="10.00">fi [&gt;&gt;]</text>
<text text-anchor="start" x="445" y="-344.92" font-family="Menlo" font-size="10.00">fo [$, &gt;]</text>
<text text-anchor="start" x="451" y="-332.17" font-family="Menlo" font-size="10.00">[4:4:5]</text>
</g>
<!-- SR0C3&#45;&gt;SR1C3 -->
<g id="edge11" class="edge">
<title>SR0C3&#45;&gt;SR1C3</title>
<path fill="none" stroke="gray" d="M472,-403.08C472,-402.21 472,-401.33 472,-400.45"/>
<polygon fill="gray" stroke="gray" points="473.05,-400.56 472,-397.56 470.95,-400.56 473.05,-400.56"/>
</g>
<!-- SR2C3 -->
<g id="node18" class="node">
<title>SR2C3</title>
<polygon fill="none" stroke="gray" points="501.88,-318.04 442.12,-318.04 442.12,-248.53 501.88,-248.53 501.88,-318.04"/>
<text text-anchor="start" x="466" y="-305.66" font-family="Menlo" font-size="10.00">12</text>
<text text-anchor="start" x="460" y="-292.91" font-family="Menlo" font-size="10.00">END </text>
<text text-anchor="start" x="454" y="-280.16" font-family="Menlo" font-size="10.00">fi [ε]</text>
<text text-anchor="start" x="445" y="-267.41" font-family="Menlo" font-size="10.00">fo [$, &gt;]</text>
<text text-anchor="start" x="466" y="-254.66" font-family="Menlo" font-size="10.00">[]</text>
</g>
<!-- SR1C3&#45;&gt;SR2C3 -->
<g id="edge10" class="edge">
<title>SR1C3&#45;&gt;SR2C3</title>
<path fill="none" stroke="gray" d="M472,-325.57C472,-324.7 472,-323.82 472,-322.94"/>
<polygon fill="gray" stroke="gray" points="473.05,-323.05 472,-320.05 470.95,-323.05 473.05,-323.05"/>
</g>
<!-- SR3C3 -->
<!-- SR2C3&#45;&gt;SR3C3 -->
<!-- SR1C0&#45;&gt;SR1C1 -->
<!-- SR2C0 -->
<!-- SR1C0&#45;&gt;SR2C0 -->
<!-- SR2C0&#45;&gt;SR2C1 -->
<!-- SR3C0 -->
<!-- SR2C0&#45;&gt;SR3C0 -->
<!-- SR3C0&#45;&gt;SR3C1 -->
<!-- SR4C0 -->
<!-- SR3C0&#45;&gt;SR4C0 -->
<!-- SR3C2&#45;&gt;SR3C3 -->
<!-- SR3C2&#45;&gt;SR4C2 -->
<!-- SR4C3 -->
<!-- SR3C3&#45;&gt;SR4C3 -->
<!-- SR4C0&#45;&gt;SR4C1 -->
<!-- SR5C0 -->
<!-- SR4C0&#45;&gt;SR5C0 -->
<!-- SR4C2&#45;&gt;SR4C3 -->
<!-- SR4C2&#45;&gt;SR5C2 -->
<!-- SR5C3 -->
<!-- SR4C3&#45;&gt;SR5C3 -->
<!-- SR5C0&#45;&gt;SR5C1 -->
<!-- SR5C2&#45;&gt;SR5C3 -->
</g>
</svg>
