<?xml version="1.0" encoding="UTF-8" standalone="no"?>
<!DOCTYPE svg PUBLIC "-//W3C//DTD SVG 1.1//EN"
 "http://www.w3.org/Graphics/SVG/1.1/DTD/svg11.dtd">
<!-- Generated by graphviz version 9.0.0 (20230911.1827)
 -->
<!-- Title: G Pages: 1 -->
<svg width="1578pt" height="456pt"
 viewBox="0.00 0.00 1578.00 456.30" xmlns="http://www.w3.org/2000/svg" xmlns:xlink="http://www.w3.org/1999/xlink">
<g id="graph0" class="graph" transform="scale(1 1) rotate(0) translate(4 452.3)">
<title>G</title>
<polygon fill="white" stroke="none" points="-4,4 -4,-452.3 1574,-452.3 1574,4 -4,4"/>
<g id="clust1" class="cluster">
<title>GSS</title>
<polygon fill="none" stroke="black" points="8,-282.03 8,-417.43 182,-417.43 182,-282.03 8,-282.03"/>
<text text-anchor="start" x="16" y="-403.93" font-family="Menlo" font-size="10.00" fill="green">↵ac↵</text>
</g>
<g id="clust2" class="cluster">
<title>clusterA</title>
<polygon fill="none" stroke="black" points="190,-179.02 190,-440.3 716,-440.3 716,-179.02 190,-179.02"/>
<text text-anchor="start" x="198" y="-426.8" font-family="Menlo" font-size="10.00">A = &quot;a&quot; | &quot;c&quot; | ε .</text>
</g>
<g id="clust8" class="cluster">
<title>clusterB</title>
<polygon fill="none" stroke="black" points="724,-93.51 724,-440.3 1190,-440.3 1190,-93.51 724,-93.51"/>
<text text-anchor="start" x="732" y="-426.8" font-family="Menlo" font-size="10.00">B = &quot;b&quot; | B &quot;c&quot; | ε .</text>
</g>
<g id="clust17" class="cluster">
<title>clusterS</title>
<polygon fill="none" stroke="black" points="1198,-8 1198,-440.3 1562,-440.3 1562,-8 1198,-8"/>
<text text-anchor="start" x="1206" y="-426.8" font-family="Menlo" font-size="10.00">S = &quot;a&quot; A B | &quot;a&quot; A &quot;b&quot; .</text>
</g>
<!-- 0.0 -->
<g id="node1" class="node">
<title>0.0</title>
<path fill="none" stroke="gray" d="M165.96,-388.68C165.96,-388.68 158.04,-388.68 158.04,-388.68 154.08,-388.68 150.12,-384.72 150.12,-380.75 150.12,-380.75 150.12,-372.84 150.12,-372.84 150.12,-368.88 154.08,-364.92 158.04,-364.92 158.04,-364.92 165.96,-364.92 165.96,-364.92 169.92,-364.92 173.88,-368.88 173.88,-372.84 173.88,-372.84 173.88,-380.75 173.88,-380.75 173.88,-384.72 169.92,-388.68 165.96,-388.68"/>
<text text-anchor="start" x="153" y="-377.3" font-family="Menlo" font-size="10.00">S,0</text>
<text text-anchor="start" x="157.5" y="-369.19" font-family="Menlo" font-size="8.00" fill="gray"> 2</text>
</g>
<!-- 11.1 -->
<g id="node2" class="node">
<title>11.1</title>
<path fill="none" stroke="gray" d="M124.21,-388.68C124.21,-388.68 111.79,-388.68 111.79,-388.68 107.83,-388.68 103.87,-384.72 103.87,-380.75 103.87,-380.75 103.87,-372.84 103.87,-372.84 103.87,-368.88 107.83,-364.92 111.79,-364.92 111.79,-364.92 124.21,-364.92 124.21,-364.92 128.17,-364.92 132.13,-368.88 132.13,-372.84 132.13,-372.84 132.13,-380.75 132.13,-380.75 132.13,-384.72 128.17,-388.68 124.21,-388.68"/>
<text text-anchor="start" x="109" y="-377.3" font-family="Menlo" font-size="10.00">B,1</text>
<text text-anchor="start" x="106.75" y="-369.19" font-family="Menlo" font-size="8.00" fill="gray"> 1, 2</text>
</g>
<!-- 4.0 -->
<g id="node3" class="node">
<title>4.0</title>
<path fill="none" stroke="gray" d="M117.71,-308.54C117.71,-308.54 106.29,-308.54 106.29,-308.54 103.2,-308.54 100.12,-305.46 100.12,-302.37 100.12,-302.37 100.12,-296.2 100.12,-296.2 100.12,-293.12 103.2,-290.03 106.29,-290.03 106.29,-290.03 117.71,-290.03 117.71,-290.03 120.8,-290.03 123.88,-293.12 123.88,-296.2 123.88,-296.2 123.88,-302.37 123.88,-302.37 123.88,-305.46 120.8,-308.54 117.71,-308.54"/>
<text text-anchor="middle" x="112" y="-296.16" font-family="Menlo" font-size="10.00">4.0</text>
</g>
<!-- 11.1&#45;&gt;4.0 -->
<g id="edge1" class="edge">
<title>11.1&#45;&gt;4.0</title>
<path fill="none" stroke="gray" d="M117.11,-364.65C116.02,-350.82 114.15,-327.3 113,-312.84"/>
<polygon fill="gray" stroke="gray" points="114.07,-313.08 112.79,-310.18 111.98,-313.25 114.07,-313.08"/>
</g>
<!-- 16.1 -->
<g id="node4" class="node">
<title>16.1</title>
<path fill="none" stroke="gray" d="M165.71,-308.54C165.71,-308.54 148.29,-308.54 148.29,-308.54 145.21,-308.54 142.12,-305.46 142.12,-302.37 142.12,-302.37 142.12,-296.2 142.12,-296.2 142.12,-293.12 145.21,-290.03 148.29,-290.03 148.29,-290.03 165.71,-290.03 165.71,-290.03 168.79,-290.03 171.88,-293.12 171.88,-296.2 171.88,-296.2 171.88,-302.37 171.88,-302.37 171.88,-305.46 168.79,-308.54 165.71,-308.54"/>
<text text-anchor="middle" x="157" y="-296.16" font-family="Menlo" font-size="10.00">16.1</text>
</g>
<!-- 11.1&#45;&gt;16.1 -->
<g id="edge2" class="edge">
<title>11.1&#45;&gt;16.1</title>
<path fill="none" stroke="gray" d="M123.75,-364.65C130.96,-350.7 143.26,-326.89 150.71,-312.47"/>
<polygon fill="gray" stroke="gray" points="151.53,-313.16 151.98,-310.01 149.67,-312.2 151.53,-313.16"/>
</g>
<!-- 11.2 -->
<g id="node5" class="node">
<title>11.2</title>
<path fill="none" stroke="gray" d="M77.96,-388.68C77.96,-388.68 70.04,-388.68 70.04,-388.68 66.08,-388.68 62.12,-384.72 62.12,-380.75 62.12,-380.75 62.12,-372.84 62.12,-372.84 62.12,-368.88 66.08,-364.92 70.04,-364.92 70.04,-364.92 77.96,-364.92 77.96,-364.92 81.92,-364.92 85.88,-368.88 85.88,-372.84 85.88,-372.84 85.88,-380.75 85.88,-380.75 85.88,-384.72 81.92,-388.68 77.96,-388.68"/>
<text text-anchor="start" x="65" y="-377.3" font-family="Menlo" font-size="10.00">B,2</text>
<text text-anchor="start" x="69.5" y="-369.19" font-family="Menlo" font-size="8.00" fill="gray"> 2</text>
</g>
<!-- 11.2&#45;&gt;4.0 -->
<g id="edge3" class="edge">
<title>11.2&#45;&gt;4.0</title>
<path fill="none" stroke="gray" d="M79.61,-364.65C86.63,-350.7 98.61,-326.89 105.87,-312.47"/>
<polygon fill="gray" stroke="gray" points="106.69,-313.17 107.1,-310.02 104.81,-312.23 106.69,-313.17"/>
</g>
<!-- 22.1 -->
<g id="node6" class="node">
<title>22.1</title>
<path fill="none" stroke="gray" d="M36.21,-388.68C36.21,-388.68 23.79,-388.68 23.79,-388.68 19.83,-388.68 15.87,-384.72 15.87,-380.75 15.87,-380.75 15.87,-372.84 15.87,-372.84 15.87,-368.88 19.83,-364.92 23.79,-364.92 23.79,-364.92 36.21,-364.92 36.21,-364.92 40.17,-364.92 44.13,-368.88 44.13,-372.84 44.13,-372.84 44.13,-380.75 44.13,-380.75 44.13,-384.72 40.17,-388.68 36.21,-388.68"/>
<text text-anchor="start" x="21" y="-377.3" font-family="Menlo" font-size="10.00">A,1</text>
<text text-anchor="start" x="18.75" y="-369.19" font-family="Menlo" font-size="8.00" fill="gray"> 1, 2</text>
</g>
<!-- 8.0 -->
<g id="node7" class="node">
<title>8.0</title>
<path fill="none" stroke="gray" d="M33.71,-308.54C33.71,-308.54 22.29,-308.54 22.29,-308.54 19.2,-308.54 16.12,-305.46 16.12,-302.37 16.12,-302.37 16.12,-296.2 16.12,-296.2 16.12,-293.12 19.2,-290.03 22.29,-290.03 22.29,-290.03 33.71,-290.03 33.71,-290.03 36.8,-290.03 39.88,-293.12 39.88,-296.2 39.88,-296.2 39.88,-302.37 39.88,-302.37 39.88,-305.46 36.79,-308.54 33.71,-308.54"/>
<text text-anchor="middle" x="28" y="-296.16" font-family="Menlo" font-size="10.00">8.0</text>
</g>
<!-- 22.1&#45;&gt;8.0 -->
<g id="edge4" class="edge">
<title>22.1&#45;&gt;8.0</title>
<path fill="none" stroke="gray" d="M29.7,-364.65C29.34,-350.82 28.72,-327.3 28.33,-312.84"/>
<polygon fill="gray" stroke="gray" points="29.39,-313.15 28.26,-310.18 27.29,-313.21 29.39,-313.15"/>
</g>
<!-- 3.0 -->
<g id="node8" class="node">
<title>3.0</title>
<path fill="none" stroke="gray" d="M75.71,-308.54C75.71,-308.54 64.29,-308.54 64.29,-308.54 61.21,-308.54 58.12,-305.46 58.12,-302.37 58.12,-302.37 58.12,-296.2 58.12,-296.2 58.12,-293.12 61.21,-290.03 64.29,-290.03 64.29,-290.03 75.71,-290.03 75.71,-290.03 78.8,-290.03 81.88,-293.12 81.88,-296.2 81.88,-296.2 81.88,-302.37 81.88,-302.37 81.88,-305.46 78.8,-308.54 75.71,-308.54"/>
<text text-anchor="middle" x="70" y="-296.16" font-family="Menlo" font-size="10.00">3.0</text>
</g>
<!-- 22.1&#45;&gt;3.0 -->
<g id="edge5" class="edge">
<title>22.1&#45;&gt;3.0</title>
<path fill="none" stroke="gray" d="M35.9,-364.65C43.29,-350.7 55.91,-326.89 63.54,-312.47"/>
<polygon fill="gray" stroke="gray" points="64.37,-313.15 64.85,-310.01 62.52,-312.16 64.37,-313.15"/>
</g>
<!-- AR0C0 -->
<g id="node9" class="node">
<title>AR0C0</title>
<polygon fill="none" stroke="gray" points="311.88,-411.55 198.12,-411.55 198.12,-342.04 311.88,-342.04 311.88,-411.55"/>
<text text-anchor="start" x="249" y="-399.17" font-family="Menlo" font-size="10.00">22</text>
<text text-anchor="start" x="246" y="-386.42" font-family="Menlo" font-size="10.00">N A</text>
<text text-anchor="start" x="204" y="-373.67" font-family="Menlo" font-size="10.00">fi [&quot;&quot;, &quot;a&quot;, &quot;c&quot;]</text>
<text text-anchor="start" x="201" y="-360.92" font-family="Menlo" font-size="10.00">fo [&quot;$&quot;, &quot;b&quot;, &quot;c&quot;]</text>
<text text-anchor="start" x="213" y="-348.17" font-family="Menlo" font-size="10.00">[1:1:1, 1:1:2]</text>
</g>
<!-- AR0C1 -->
<g id="node10" class="node">
<title>AR0C1</title>
<polygon fill="none" stroke="gray" points="443.88,-411.55 330.12,-411.55 330.12,-342.04 443.88,-342.04 443.88,-411.55"/>
<text text-anchor="start" x="381" y="-399.17" font-family="Menlo" font-size="10.00">23</text>
<text text-anchor="start" x="375" y="-386.42" font-family="Menlo" font-size="10.00">ALT </text>
<text text-anchor="start" x="363" y="-373.67" font-family="Menlo" font-size="10.00">fi [&quot;a&quot;]</text>
<text text-anchor="start" x="333" y="-360.92" font-family="Menlo" font-size="10.00">fo [&quot;$&quot;, &quot;b&quot;, &quot;c&quot;]</text>
<text text-anchor="start" x="381" y="-348.17" font-family="Menlo" font-size="10.00">[]</text>
</g>
<!-- AR0C0&#45;&gt;AR0C1 -->
<g id="edge14" class="edge">
<title>AR0C0&#45;&gt;AR0C1</title>
<path fill="none" stroke="gray" d="M312.23,-376.8C316.62,-376.8 321,-376.8 325.38,-376.8"/>
<polygon fill="gray" stroke="gray" points="325.24,-377.85 328.24,-376.8 325.24,-375.75 325.24,-377.85"/>
</g>
<!-- AR1C0 -->
<!-- AR0C0&#45;&gt;AR1C0 -->
<!-- AR1C1 -->
<g id="node11" class="node">
<title>AR1C1</title>
<polygon fill="none" stroke="gray" points="443.88,-334.04 330.12,-334.04 330.12,-264.53 443.88,-264.53 443.88,-334.04"/>
<text text-anchor="start" x="381" y="-321.66" font-family="Menlo" font-size="10.00">24</text>
<text text-anchor="start" x="372" y="-308.91" font-family="Menlo" font-size="10.00">T &quot;a&quot;</text>
<text text-anchor="start" x="363" y="-296.16" font-family="Menlo" font-size="10.00">fi [&quot;a&quot;]</text>
<text text-anchor="start" x="333" y="-283.41" font-family="Menlo" font-size="10.00">fo [&quot;$&quot;, &quot;b&quot;, &quot;c&quot;]</text>
<text text-anchor="start" x="381" y="-270.66" font-family="Menlo" font-size="10.00">[]</text>
</g>
<!-- AR0C1&#45;&gt;AR1C1 -->
<g id="edge7" class="edge">
<title>AR0C1&#45;&gt;AR1C1</title>
<path fill="none" stroke="gray" d="M387,-341.57C387,-340.7 387,-339.82 387,-338.94"/>
<polygon fill="gray" stroke="gray" points="388.05,-339.05 387,-336.05 385.95,-339.05 388.05,-339.05"/>
</g>
<!-- AR0C2 -->
<g id="node13" class="node">
<title>AR0C2</title>
<polygon fill="none" stroke="gray" points="575.88,-411.55 462.12,-411.55 462.12,-342.04 575.88,-342.04 575.88,-411.55"/>
<text text-anchor="start" x="513" y="-399.17" font-family="Menlo" font-size="10.00">26</text>
<text text-anchor="start" x="507" y="-386.42" font-family="Menlo" font-size="10.00">ALT </text>
<text text-anchor="start" x="495" y="-373.67" font-family="Menlo" font-size="10.00">fi [&quot;c&quot;]</text>
<text text-anchor="start" x="465" y="-360.92" font-family="Menlo" font-size="10.00">fo [&quot;$&quot;, &quot;b&quot;, &quot;c&quot;]</text>
<text text-anchor="start" x="513" y="-348.17" font-family="Menlo" font-size="10.00">[]</text>
</g>
<!-- AR0C1&#45;&gt;AR0C2 -->
<g id="edge13" class="edge">
<title>AR0C1&#45;&gt;AR0C2</title>
<path fill="none" stroke="gray" d="M444.23,-376.8C448.62,-376.8 453,-376.8 457.38,-376.8"/>
<polygon fill="gray" stroke="gray" points="457.24,-377.85 460.24,-376.8 457.24,-375.75 457.24,-377.85"/>
</g>
<!-- AR2C1 -->
<g id="node12" class="node">
<title>AR2C1</title>
<polygon fill="none" stroke="gray" points="443.88,-256.53 330.12,-256.53 330.12,-187.02 443.88,-187.02 443.88,-256.53"/>
<text text-anchor="start" x="381" y="-244.15" font-family="Menlo" font-size="10.00">25</text>
<text text-anchor="start" x="375" y="-231.4" font-family="Menlo" font-size="10.00">END </text>
<text text-anchor="start" x="366" y="-218.65" font-family="Menlo" font-size="10.00">fi [&quot;&quot;]</text>
<text text-anchor="start" x="333" y="-205.9" font-family="Menlo" font-size="10.00">fo [&quot;$&quot;, &quot;b&quot;, &quot;c&quot;]</text>
<text text-anchor="start" x="381" y="-193.15" font-family="Menlo" font-size="10.00">[]</text>
</g>
<!-- AR1C1&#45;&gt;AR2C1 -->
<g id="edge6" class="edge">
<title>AR1C1&#45;&gt;AR2C1</title>
<path fill="none" stroke="gray" d="M387,-264.06C387,-263.19 387,-262.31 387,-261.43"/>
<polygon fill="gray" stroke="gray" points="388.05,-261.54 387,-258.54 385.95,-261.54 388.05,-261.54"/>
</g>
<!-- AR1C2 -->
<g id="node14" class="node">
<title>AR1C2</title>
<polygon fill="none" stroke="gray" points="575.88,-334.04 462.12,-334.04 462.12,-264.53 575.88,-264.53 575.88,-334.04"/>
<text text-anchor="start" x="513" y="-321.66" font-family="Menlo" font-size="10.00">27</text>
<text text-anchor="start" x="504" y="-308.91" font-family="Menlo" font-size="10.00">T &quot;c&quot;</text>
<text text-anchor="start" x="495" y="-296.16" font-family="Menlo" font-size="10.00">fi [&quot;c&quot;]</text>
<text text-anchor="start" x="465" y="-283.41" font-family="Menlo" font-size="10.00">fo [&quot;$&quot;, &quot;b&quot;, &quot;c&quot;]</text>
<text text-anchor="start" x="498" y="-270.66" font-family="Menlo" font-size="10.00">[1:1:2]</text>
</g>
<!-- AR0C2&#45;&gt;AR1C2 -->
<g id="edge9" class="edge">
<title>AR0C2&#45;&gt;AR1C2</title>
<path fill="none" stroke="gray" d="M519,-341.57C519,-340.7 519,-339.82 519,-338.94"/>
<polygon fill="gray" stroke="gray" points="520.05,-339.05 519,-336.05 517.95,-339.05 520.05,-339.05"/>
</g>
<!-- AR0C3 -->
<g id="node16" class="node">
<title>AR0C3</title>
<polygon fill="none" stroke="gray" points="707.88,-411.55 594.12,-411.55 594.12,-342.04 707.88,-342.04 707.88,-411.55"/>
<text text-anchor="start" x="645" y="-399.17" font-family="Menlo" font-size="10.00">29</text>
<text text-anchor="start" x="639" y="-386.42" font-family="Menlo" font-size="10.00">ALT </text>
<text text-anchor="start" x="630" y="-373.67" font-family="Menlo" font-size="10.00">fi [&quot;&quot;]</text>
<text text-anchor="start" x="597" y="-360.92" font-family="Menlo" font-size="10.00">fo [&quot;$&quot;, &quot;b&quot;, &quot;c&quot;]</text>
<text text-anchor="start" x="645" y="-348.17" font-family="Menlo" font-size="10.00">[]</text>
</g>
<!-- AR0C2&#45;&gt;AR0C3 -->
<g id="edge12" class="edge">
<title>AR0C2&#45;&gt;AR0C3</title>
<path fill="none" stroke="gray" d="M576.23,-376.8C580.62,-376.8 585,-376.8 589.38,-376.8"/>
<polygon fill="gray" stroke="gray" points="589.24,-377.85 592.24,-376.8 589.24,-375.75 589.24,-377.85"/>
</g>
<!-- AR2C2 -->
<g id="node15" class="node">
<title>AR2C2</title>
<polygon fill="none" stroke="gray" points="575.88,-256.53 462.12,-256.53 462.12,-187.02 575.88,-187.02 575.88,-256.53"/>
<text text-anchor="start" x="513" y="-244.15" font-family="Menlo" font-size="10.00">28</text>
<text text-anchor="start" x="507" y="-231.4" font-family="Menlo" font-size="10.00">END </text>
<text text-anchor="start" x="498" y="-218.65" font-family="Menlo" font-size="10.00">fi [&quot;&quot;]</text>
<text text-anchor="start" x="465" y="-205.9" font-family="Menlo" font-size="10.00">fo [&quot;$&quot;, &quot;b&quot;, &quot;c&quot;]</text>
<text text-anchor="start" x="513" y="-193.15" font-family="Menlo" font-size="10.00">[]</text>
</g>
<!-- AR1C2&#45;&gt;AR2C2 -->
<g id="edge8" class="edge">
<title>AR1C2&#45;&gt;AR2C2</title>
<path fill="none" stroke="gray" d="M519,-264.06C519,-263.19 519,-262.31 519,-261.43"/>
<polygon fill="gray" stroke="gray" points="520.05,-261.54 519,-258.54 517.95,-261.54 520.05,-261.54"/>
</g>
<!-- AR1C3 -->
<g id="node17" class="node">
<title>AR1C3</title>
<polygon fill="none" stroke="gray" points="707.88,-334.04 594.12,-334.04 594.12,-264.53 707.88,-264.53 707.88,-334.04"/>
<text text-anchor="start" x="645" y="-321.66" font-family="Menlo" font-size="10.00">30</text>
<text text-anchor="start" x="636" y="-308.91" font-family="Menlo" font-size="10.00">EPS ε</text>
<text text-anchor="start" x="630" y="-296.16" font-family="Menlo" font-size="10.00">fi [&quot;&quot;]</text>
<text text-anchor="start" x="597" y="-283.41" font-family="Menlo" font-size="10.00">fo [&quot;$&quot;, &quot;b&quot;, &quot;c&quot;]</text>
<text text-anchor="start" x="630" y="-270.66" font-family="Menlo" font-size="10.00">[1:1:1]</text>
</g>
<!-- AR0C3&#45;&gt;AR1C3 -->
<g id="edge11" class="edge">
<title>AR0C3&#45;&gt;AR1C3</title>
<path fill="none" stroke="gray" d="M651,-341.57C651,-340.7 651,-339.82 651,-338.94"/>
<polygon fill="gray" stroke="gray" points="652.05,-339.05 651,-336.05 649.95,-339.05 652.05,-339.05"/>
</g>
<!-- AR2C3 -->
<g id="node18" class="node">
<title>AR2C3</title>
<polygon fill="none" stroke="gray" points="707.88,-256.53 594.12,-256.53 594.12,-187.02 707.88,-187.02 707.88,-256.53"/>
<text text-anchor="start" x="645" y="-244.15" font-family="Menlo" font-size="10.00">31</text>
<text text-anchor="start" x="639" y="-231.4" font-family="Menlo" font-size="10.00">END </text>
<text text-anchor="start" x="630" y="-218.65" font-family="Menlo" font-size="10.00">fi [&quot;&quot;]</text>
<text text-anchor="start" x="597" y="-205.9" font-family="Menlo" font-size="10.00">fo [&quot;$&quot;, &quot;b&quot;, &quot;c&quot;]</text>
<text text-anchor="start" x="645" y="-193.15" font-family="Menlo" font-size="10.00">[]</text>
</g>
<!-- AR1C3&#45;&gt;AR2C3 -->
<g id="edge10" class="edge">
<title>AR1C3&#45;&gt;AR2C3</title>
<path fill="none" stroke="gray" d="M651,-264.06C651,-263.19 651,-262.31 651,-261.43"/>
<polygon fill="gray" stroke="gray" points="652.05,-261.54 651,-258.54 649.95,-261.54 652.05,-261.54"/>
</g>
<!-- AR1C0&#45;&gt;AR1C1 -->
<!-- AR2C0 -->
<!-- AR1C0&#45;&gt;AR2C0 -->
<!-- AR2C0&#45;&gt;AR2C1 -->
<!-- BR0C0 -->
<g id="node21" class="node">
<title>BR0C0</title>
<polygon fill="none" stroke="gray" points="863.88,-411.55 732.12,-411.55 732.12,-342.04 863.88,-342.04 863.88,-411.55"/>
<text text-anchor="start" x="792" y="-399.17" font-family="Menlo" font-size="10.00">11</text>
<text text-anchor="start" x="789" y="-386.42" font-family="Menlo" font-size="10.00">N B</text>
<text text-anchor="start" x="747" y="-373.67" font-family="Menlo" font-size="10.00">fi [&quot;&quot;, &quot;b&quot;, &quot;c&quot;]</text>
<text text-anchor="start" x="759" y="-360.92" font-family="Menlo" font-size="10.00">fo [&quot;$&quot;, &quot;c&quot;]</text>
<text text-anchor="start" x="735" y="-348.17" font-family="Menlo" font-size="10.00">[1:1:1, 1:1:2, 2:2:2]</text>
</g>
<!-- BR0C1 -->
<g id="node22" class="node">
<title>BR0C1</title>
<polygon fill="none" stroke="gray" points="965.88,-411.55 882.12,-411.55 882.12,-342.04 965.88,-342.04 965.88,-411.55"/>
<text text-anchor="start" x="918" y="-399.17" font-family="Menlo" font-size="10.00">12</text>
<text text-anchor="start" x="912" y="-386.42" font-family="Menlo" font-size="10.00">ALT </text>
<text text-anchor="start" x="900" y="-373.67" font-family="Menlo" font-size="10.00">fi [&quot;b&quot;]</text>
<text text-anchor="start" x="885" y="-360.92" font-family="Menlo" font-size="10.00">fo [&quot;$&quot;, &quot;c&quot;]</text>
<text text-anchor="start" x="918" y="-348.17" font-family="Menlo" font-size="10.00">[]</text>
</g>
<!-- BR0C0&#45;&gt;BR0C1 -->
<g id="edge28" class="edge">
<title>BR0C0&#45;&gt;BR0C1</title>
<path fill="none" stroke="gray" d="M863.95,-376.8C868.41,-376.8 872.87,-376.8 877.32,-376.8"/>
<polygon fill="gray" stroke="gray" points="877.27,-377.85 880.27,-376.8 877.27,-375.75 877.27,-377.85"/>
</g>
<!-- BR1C0 -->
<!-- BR0C0&#45;&gt;BR1C0 -->
<!-- BR1C1 -->
<g id="node23" class="node">
<title>BR1C1</title>
<polygon fill="none" stroke="gray" points="965.88,-334.04 882.12,-334.04 882.12,-264.53 965.88,-264.53 965.88,-334.04"/>
<text text-anchor="start" x="918" y="-321.66" font-family="Menlo" font-size="10.00">13</text>
<text text-anchor="start" x="909" y="-308.91" font-family="Menlo" font-size="10.00">T &quot;b&quot;</text>
<text text-anchor="start" x="900" y="-296.16" font-family="Menlo" font-size="10.00">fi [&quot;b&quot;]</text>
<text text-anchor="start" x="885" y="-283.41" font-family="Menlo" font-size="10.00">fo [&quot;$&quot;, &quot;c&quot;]</text>
<text text-anchor="start" x="918" y="-270.66" font-family="Menlo" font-size="10.00">[]</text>
</g>
<!-- BR0C1&#45;&gt;BR1C1 -->
<g id="edge20" class="edge">
<title>BR0C1&#45;&gt;BR1C1</title>
<path fill="none" stroke="gray" d="M924,-341.57C924,-340.7 924,-339.82 924,-338.94"/>
<polygon fill="gray" stroke="gray" points="925.05,-339.05 924,-336.05 922.95,-339.05 925.05,-339.05"/>
</g>
<!-- BR0C2 -->
<g id="node25" class="node">
<title>BR0C2</title>
<polygon fill="none" stroke="gray" points="1070.88,-411.55 987.12,-411.55 987.12,-342.04 1070.88,-342.04 1070.88,-411.55"/>
<text text-anchor="start" x="1023" y="-399.17" font-family="Menlo" font-size="10.00">15</text>
<text text-anchor="start" x="1017" y="-386.42" font-family="Menlo" font-size="10.00">ALT </text>
<text text-anchor="start" x="990" y="-373.67" font-family="Menlo" font-size="10.00">fi [&quot;b&quot;, &quot;c&quot;]</text>
<text text-anchor="start" x="1005" y="-360.92" font-family="Menlo" font-size="10.00">fo [&quot;c&quot;]</text>
<text text-anchor="start" x="1023" y="-348.17" font-family="Menlo" font-size="10.00">[]</text>
</g>
<!-- BR0C1&#45;&gt;BR0C2 -->
<g id="edge27" class="edge">
<title>BR0C1&#45;&gt;BR0C2</title>
<path fill="none" stroke="gray" d="M966.25,-376.8C971.61,-376.8 976.97,-376.8 982.33,-376.8"/>
<polygon fill="gray" stroke="gray" points="982.32,-377.85 985.32,-376.8 982.32,-375.75 982.32,-377.85"/>
</g>
<!-- BR2C1 -->
<g id="node24" class="node">
<title>BR2C1</title>
<polygon fill="none" stroke="gray" points="965.88,-256.53 882.12,-256.53 882.12,-187.02 965.88,-187.02 965.88,-256.53"/>
<text text-anchor="start" x="918" y="-244.15" font-family="Menlo" font-size="10.00">14</text>
<text text-anchor="start" x="912" y="-231.4" font-family="Menlo" font-size="10.00">END </text>
<text text-anchor="start" x="903" y="-218.65" font-family="Menlo" font-size="10.00">fi [&quot;&quot;]</text>
<text text-anchor="start" x="885" y="-205.9" font-family="Menlo" font-size="10.00">fo [&quot;$&quot;, &quot;c&quot;]</text>
<text text-anchor="start" x="918" y="-193.15" font-family="Menlo" font-size="10.00">[]</text>
</g>
<!-- BR1C1&#45;&gt;BR2C1 -->
<g id="edge19" class="edge">
<title>BR1C1&#45;&gt;BR2C1</title>
<path fill="none" stroke="gray" d="M924,-264.06C924,-263.19 924,-262.31 924,-261.43"/>
<polygon fill="gray" stroke="gray" points="925.05,-261.54 924,-258.54 922.95,-261.54 925.05,-261.54"/>
</g>
<!-- BR3C1 -->
<!-- BR2C1&#45;&gt;BR3C1 -->
<!-- BR1C2 -->
<g id="node26" class="node">
<title>BR1C2</title>
<polygon fill="none" stroke="gray" points="1073.88,-334.04 984.12,-334.04 984.12,-264.53 1073.88,-264.53 1073.88,-334.04"/>
<text text-anchor="start" x="1023" y="-321.66" font-family="Menlo" font-size="10.00">16</text>
<text text-anchor="start" x="1020" y="-308.91" font-family="Menlo" font-size="10.00">N B</text>
<text text-anchor="start" x="990" y="-296.16" font-family="Menlo" font-size="10.00">fi [&quot;b&quot;, &quot;c&quot;]</text>
<text text-anchor="start" x="1005" y="-283.41" font-family="Menlo" font-size="10.00">fo [&quot;c&quot;]</text>
<text text-anchor="start" x="987" y="-270.66" font-family="Menlo" font-size="10.00">[1:1:1, 1:1:2]</text>
</g>
<!-- BR0C2&#45;&gt;BR1C2 -->
<g id="edge23" class="edge">
<title>BR0C2&#45;&gt;BR1C2</title>
<path fill="none" stroke="gray" d="M1029,-341.57C1029,-340.7 1029,-339.82 1029,-338.94"/>
<polygon fill="gray" stroke="gray" points="1030.05,-339.05 1029,-336.05 1027.95,-339.05 1030.05,-339.05"/>
</g>
<!-- BR0C3 -->
<g id="node29" class="node">
<title>BR0C3</title>
<polygon fill="none" stroke="gray" points="1178.88,-411.55 1095.12,-411.55 1095.12,-342.04 1178.88,-342.04 1178.88,-411.55"/>
<text text-anchor="start" x="1131" y="-399.17" font-family="Menlo" font-size="10.00">19</text>
<text text-anchor="start" x="1125" y="-386.42" font-family="Menlo" font-size="10.00">ALT </text>
<text text-anchor="start" x="1116" y="-373.67" font-family="Menlo" font-size="10.00">fi [&quot;&quot;]</text>
<text text-anchor="start" x="1098" y="-360.92" font-family="Menlo" font-size="10.00">fo [&quot;$&quot;, &quot;c&quot;]</text>
<text text-anchor="start" x="1131" y="-348.17" font-family="Menlo" font-size="10.00">[]</text>
</g>
<!-- BR0C2&#45;&gt;BR0C3 -->
<g id="edge26" class="edge">
<title>BR0C2&#45;&gt;BR0C3</title>
<path fill="none" stroke="gray" d="M1071.19,-376.8C1077.59,-376.8 1084,-376.8 1090.4,-376.8"/>
<polygon fill="gray" stroke="gray" points="1090.33,-377.85 1093.33,-376.8 1090.33,-375.75 1090.33,-377.85"/>
</g>
<!-- BR2C2 -->
<g id="node27" class="node">
<title>BR2C2</title>
<polygon fill="none" stroke="gray" points="1070.88,-256.53 987.12,-256.53 987.12,-187.02 1070.88,-187.02 1070.88,-256.53"/>
<text text-anchor="start" x="1023" y="-244.15" font-family="Menlo" font-size="10.00">17</text>
<text text-anchor="start" x="1014" y="-231.4" font-family="Menlo" font-size="10.00">T &quot;c&quot;</text>
<text text-anchor="start" x="1005" y="-218.65" font-family="Menlo" font-size="10.00">fi [&quot;c&quot;]</text>
<text text-anchor="start" x="990" y="-205.9" font-family="Menlo" font-size="10.00">fo [&quot;$&quot;, &quot;c&quot;]</text>
<text text-anchor="start" x="1008" y="-193.15" font-family="Menlo" font-size="10.00">[1:1:2]</text>
</g>
<!-- BR1C2&#45;&gt;BR2C2 -->
<g id="edge22" class="edge">
<title>BR1C2&#45;&gt;BR2C2</title>
<path fill="none" stroke="gray" d="M1029,-264.06C1029,-263.19 1029,-262.31 1029,-261.43"/>
<polygon fill="gray" stroke="gray" points="1030.05,-261.54 1029,-258.54 1027.95,-261.54 1030.05,-261.54"/>
</g>
<!-- BR3C2 -->
<g id="node28" class="node">
<title>BR3C2</title>
<polygon fill="none" stroke="gray" points="1070.88,-171.02 987.12,-171.02 987.12,-101.51 1070.88,-101.51 1070.88,-171.02"/>
<text text-anchor="start" x="1023" y="-158.64" font-family="Menlo" font-size="10.00">18</text>
<text text-anchor="start" x="1017" y="-145.89" font-family="Menlo" font-size="10.00">END </text>
<text text-anchor="start" x="1008" y="-133.14" font-family="Menlo" font-size="10.00">fi [&quot;&quot;]</text>
<text text-anchor="start" x="990" y="-120.39" font-family="Menlo" font-size="10.00">fo [&quot;$&quot;, &quot;c&quot;]</text>
<text text-anchor="start" x="1023" y="-107.64" font-family="Menlo" font-size="10.00">[]</text>
</g>
<!-- BR2C2&#45;&gt;BR3C2 -->
<g id="edge21" class="edge">
<title>BR2C2&#45;&gt;BR3C2</title>
<path fill="none" stroke="gray" d="M1029,-186.81C1029,-183.17 1029,-179.46 1029,-175.77"/>
<polygon fill="gray" stroke="gray" points="1030.05,-175.99 1029,-172.99 1027.95,-175.99 1030.05,-175.99"/>
</g>
<!-- BR3C3 -->
<!-- BR3C2&#45;&gt;BR3C3 -->
<!-- BR1C3 -->
<g id="node30" class="node">
<title>BR1C3</title>
<polygon fill="none" stroke="gray" points="1181.88,-334.04 1092.12,-334.04 1092.12,-264.53 1181.88,-264.53 1181.88,-334.04"/>
<text text-anchor="start" x="1131" y="-321.66" font-family="Menlo" font-size="10.00">20</text>
<text text-anchor="start" x="1122" y="-308.91" font-family="Menlo" font-size="10.00">EPS ε</text>
<text text-anchor="start" x="1116" y="-296.16" font-family="Menlo" font-size="10.00">fi [&quot;&quot;]</text>
<text text-anchor="start" x="1098" y="-283.41" font-family="Menlo" font-size="10.00">fo [&quot;$&quot;, &quot;c&quot;]</text>
<text text-anchor="start" x="1095" y="-270.66" font-family="Menlo" font-size="10.00">[1:1:1, 2:2:2]</text>
</g>
<!-- BR0C3&#45;&gt;BR1C3 -->
<g id="edge25" class="edge">
<title>BR0C3&#45;&gt;BR1C3</title>
<path fill="none" stroke="gray" d="M1137,-341.57C1137,-340.7 1137,-339.82 1137,-338.94"/>
<polygon fill="gray" stroke="gray" points="1138.05,-339.05 1137,-336.05 1135.95,-339.05 1138.05,-339.05"/>
</g>
<!-- BR2C3 -->
<g id="node31" class="node">
<title>BR2C3</title>
<polygon fill="none" stroke="gray" points="1178.88,-256.53 1095.12,-256.53 1095.12,-187.02 1178.88,-187.02 1178.88,-256.53"/>
<text text-anchor="start" x="1131" y="-244.15" font-family="Menlo" font-size="10.00">21</text>
<text text-anchor="start" x="1125" y="-231.4" font-family="Menlo" font-size="10.00">END </text>
<text text-anchor="start" x="1116" y="-218.65" font-family="Menlo" font-size="10.00">fi [&quot;&quot;]</text>
<text text-anchor="start" x="1098" y="-205.9" font-family="Menlo" font-size="10.00">fo [&quot;$&quot;, &quot;c&quot;]</text>
<text text-anchor="start" x="1131" y="-193.15" font-family="Menlo" font-size="10.00">[]</text>
</g>
<!-- BR1C3&#45;&gt;BR2C3 -->
<g id="edge24" class="edge">
<title>BR1C3&#45;&gt;BR2C3</title>
<path fill="none" stroke="gray" d="M1137,-264.06C1137,-263.19 1137,-262.31 1137,-261.43"/>
<polygon fill="gray" stroke="gray" points="1138.05,-261.54 1137,-258.54 1135.95,-261.54 1138.05,-261.54"/>
</g>
<!-- BR2C3&#45;&gt;BR3C3 -->
<!-- BR1C0&#45;&gt;BR1C1 -->
<!-- BR2C0 -->
<!-- BR1C0&#45;&gt;BR2C0 -->
<!-- BR2C0&#45;&gt;BR2C1 -->
<!-- BR3C0 -->
<!-- BR2C0&#45;&gt;BR3C0 -->
<!-- BR3C0&#45;&gt;BR3C1 -->
<!-- BR3C1&#45;&gt;BR3C2 -->
<!-- SR0C0 -->
<g id="node37" class="node">
<title>SR0C0</title>
<polygon fill="none" stroke="gray" points="1259.88,-411.55 1206.12,-411.55 1206.12,-342.04 1259.88,-342.04 1259.88,-411.55"/>
<text text-anchor="start" x="1230" y="-399.17" font-family="Menlo" font-size="10.00">0</text>
<text text-anchor="start" x="1224" y="-386.42" font-family="Menlo" font-size="10.00">N S</text>
<text text-anchor="start" x="1209" y="-373.67" font-family="Menlo" font-size="10.00">fi [&quot;a&quot;]</text>
<text text-anchor="start" x="1209" y="-360.92" font-family="Menlo" font-size="10.00">fo [&quot;$&quot;]</text>
<text text-anchor="start" x="1212" y="-348.17" font-family="Menlo" font-size="10.00">[0:0:2]</text>
</g>
<!-- SR0C1 -->
<g id="node38" class="node">
<title>SR0C1</title>
<polygon fill="none" stroke="gray" points="1421.88,-411.55 1278.12,-411.55 1278.12,-342.04 1421.88,-342.04 1421.88,-411.55"/>
<text text-anchor="start" x="1347" y="-399.17" font-family="Menlo" font-size="10.00">1</text>
<text text-anchor="start" x="1338" y="-386.42" font-family="Menlo" font-size="10.00">ALT </text>
<text text-anchor="start" x="1326" y="-373.67" font-family="Menlo" font-size="10.00">fi [&quot;a&quot;]</text>
<text text-anchor="start" x="1281" y="-360.92" font-family="Menlo" font-size="10.00">fo [&quot;$&quot;, &quot;a&quot;, &quot;b&quot;, &quot;c&quot;]</text>
<text text-anchor="start" x="1344" y="-348.17" font-family="Menlo" font-size="10.00">[]</text>
</g>
<!-- SR0C0&#45;&gt;SR0C1 -->
<g id="edge48" class="edge">
<title>SR0C0&#45;&gt;SR0C1</title>
<path fill="none" stroke="gray" d="M1259.96,-376.8C1264.45,-376.8 1268.93,-376.8 1273.42,-376.8"/>
<polygon fill="gray" stroke="gray" points="1273.39,-377.85 1276.39,-376.8 1273.39,-375.75 1273.39,-377.85"/>
</g>
<!-- SR1C0 -->
<!-- SR0C0&#45;&gt;SR1C0 -->
<!-- SR1C1 -->
<g id="node39" class="node">
<title>SR1C1</title>
<polygon fill="none" stroke="gray" points="1421.88,-334.04 1278.12,-334.04 1278.12,-264.53 1421.88,-264.53 1421.88,-334.04"/>
<text text-anchor="start" x="1347" y="-321.66" font-family="Menlo" font-size="10.00">2</text>
<text text-anchor="start" x="1335" y="-308.91" font-family="Menlo" font-size="10.00">T &quot;a&quot;</text>
<text text-anchor="start" x="1326" y="-296.16" font-family="Menlo" font-size="10.00">fi [&quot;a&quot;]</text>
<text text-anchor="start" x="1281" y="-283.41" font-family="Menlo" font-size="10.00">fo [&quot;$&quot;, &quot;a&quot;, &quot;b&quot;, &quot;c&quot;]</text>
<text text-anchor="start" x="1329" y="-270.66" font-family="Menlo" font-size="10.00">[0:0:1]</text>
</g>
<!-- SR0C1&#45;&gt;SR1C1 -->
<g id="edge42" class="edge">
<title>SR0C1&#45;&gt;SR1C1</title>
<path fill="none" stroke="gray" d="M1350,-341.57C1350,-340.7 1350,-339.82 1350,-338.94"/>
<polygon fill="gray" stroke="gray" points="1351.05,-339.05 1350,-336.05 1348.95,-339.05 1351.05,-339.05"/>
</g>
<!-- SR0C2 -->
<g id="node43" class="node">
<title>SR0C2</title>
<polygon fill="none" stroke="gray" points="1553.88,-411.55 1440.12,-411.55 1440.12,-342.04 1553.88,-342.04 1553.88,-411.55"/>
<text text-anchor="start" x="1494" y="-399.17" font-family="Menlo" font-size="10.00">6</text>
<text text-anchor="start" x="1485" y="-386.42" font-family="Menlo" font-size="10.00">ALT </text>
<text text-anchor="start" x="1473" y="-373.67" font-family="Menlo" font-size="10.00">fi [&quot;a&quot;]</text>
<text text-anchor="start" x="1443" y="-360.92" font-family="Menlo" font-size="10.00">fo [&quot;a&quot;, &quot;b&quot;, &quot;c&quot;]</text>
<text text-anchor="start" x="1491" y="-348.17" font-family="Menlo" font-size="10.00">[]</text>
</g>
<!-- SR0C1&#45;&gt;SR0C2 -->
<g id="edge47" class="edge">
<title>SR0C1&#45;&gt;SR0C2</title>
<path fill="none" stroke="gray" d="M1422.35,-376.8C1426.73,-376.8 1431.1,-376.8 1435.47,-376.8"/>
<polygon fill="gray" stroke="gray" points="1435.33,-377.85 1438.33,-376.8 1435.33,-375.75 1435.33,-377.85"/>
</g>
<!-- SR2C1 -->
<g id="node40" class="node">
<title>SR2C1</title>
<polygon fill="none" stroke="gray" points="1418.88,-256.53 1281.12,-256.53 1281.12,-187.02 1418.88,-187.02 1418.88,-256.53"/>
<text text-anchor="start" x="1347" y="-244.15" font-family="Menlo" font-size="10.00">3</text>
<text text-anchor="start" x="1341" y="-231.4" font-family="Menlo" font-size="10.00">N A</text>
<text text-anchor="start" x="1284" y="-218.65" font-family="Menlo" font-size="10.00">fi [&quot;&quot;, &quot;a&quot;, &quot;b&quot;, &quot;c&quot;]</text>
<text text-anchor="start" x="1296" y="-205.9" font-family="Menlo" font-size="10.00">fo [&quot;$&quot;, &quot;b&quot;, &quot;c&quot;]</text>
<text text-anchor="start" x="1308" y="-193.15" font-family="Menlo" font-size="10.00">[0:1:1, 0:1:2]</text>
</g>
<!-- SR1C1&#45;&gt;SR2C1 -->
<g id="edge41" class="edge">
<title>SR1C1&#45;&gt;SR2C1</title>
<path fill="none" stroke="gray" d="M1350,-264.06C1350,-263.19 1350,-262.31 1350,-261.43"/>
<polygon fill="gray" stroke="gray" points="1351.05,-261.54 1350,-258.54 1348.95,-261.54 1351.05,-261.54"/>
</g>
<!-- SR3C1 -->
<g id="node41" class="node">
<title>SR3C1</title>
<polygon fill="none" stroke="gray" points="1415.88,-171.02 1284.12,-171.02 1284.12,-101.51 1415.88,-101.51 1415.88,-171.02"/>
<text text-anchor="start" x="1347" y="-158.64" font-family="Menlo" font-size="10.00">4</text>
<text text-anchor="start" x="1341" y="-145.89" font-family="Menlo" font-size="10.00">N B</text>
<text text-anchor="start" x="1299" y="-133.14" font-family="Menlo" font-size="10.00">fi [&quot;&quot;, &quot;b&quot;, &quot;c&quot;]</text>
<text text-anchor="start" x="1326" y="-120.39" font-family="Menlo" font-size="10.00">fo [&quot;$&quot;]</text>
<text text-anchor="start" x="1287" y="-107.64" font-family="Menlo" font-size="10.00">[0:1:1, 0:1:2, 0:2:2]</text>
</g>
<!-- SR2C1&#45;&gt;SR3C1 -->
<g id="edge40" class="edge">
<title>SR2C1&#45;&gt;SR3C1</title>
<path fill="none" stroke="gray" d="M1350,-186.81C1350,-183.17 1350,-179.46 1350,-175.77"/>
<polygon fill="gray" stroke="gray" points="1351.05,-175.99 1350,-172.99 1348.95,-175.99 1351.05,-175.99"/>
</g>
<!-- SR4C1 -->
<g id="node42" class="node">
<title>SR4C1</title>
<polygon fill="none" stroke="gray" points="1376.88,-85.51 1323.12,-85.51 1323.12,-16 1376.88,-16 1376.88,-85.51"/>
<text text-anchor="start" x="1347" y="-73.13" font-family="Menlo" font-size="10.00">5</text>
<text text-anchor="start" x="1338" y="-60.38" font-family="Menlo" font-size="10.00">END </text>
<text text-anchor="start" x="1329" y="-47.63" font-family="Menlo" font-size="10.00">fi [&quot;&quot;]</text>
<text text-anchor="start" x="1326" y="-34.88" font-family="Menlo" font-size="10.00">fo [&quot;$&quot;]</text>
<text text-anchor="start" x="1344" y="-22.13" font-family="Menlo" font-size="10.00">[]</text>
</g>
<!-- SR3C1&#45;&gt;SR4C1 -->
<g id="edge39" class="edge">
<title>SR3C1&#45;&gt;SR4C1</title>
<path fill="none" stroke="gray" d="M1350,-101.3C1350,-97.66 1350,-93.95 1350,-90.26"/>
<polygon fill="gray" stroke="gray" points="1351.05,-90.48 1350,-87.48 1348.95,-90.48 1351.05,-90.48"/>
</g>
<!-- SR1C2 -->
<g id="node44" class="node">
<title>SR1C2</title>
<polygon fill="none" stroke="gray" points="1553.88,-334.04 1440.12,-334.04 1440.12,-264.53 1553.88,-264.53 1553.88,-334.04"/>
<text text-anchor="start" x="1494" y="-321.66" font-family="Menlo" font-size="10.00">7</text>
<text text-anchor="start" x="1482" y="-308.91" font-family="Menlo" font-size="10.00">T &quot;a&quot;</text>
<text text-anchor="start" x="1473" y="-296.16" font-family="Menlo" font-size="10.00">fi [&quot;a&quot;]</text>
<text text-anchor="start" x="1443" y="-283.41" font-family="Menlo" font-size="10.00">fo [&quot;a&quot;, &quot;b&quot;, &quot;c&quot;]</text>
<text text-anchor="start" x="1476" y="-270.66" font-family="Menlo" font-size="10.00">[0:0:1]</text>
</g>
<!-- SR0C2&#45;&gt;SR1C2 -->
<g id="edge46" class="edge">
<title>SR0C2&#45;&gt;SR1C2</title>
<path fill="none" stroke="gray" d="M1497,-341.57C1497,-340.7 1497,-339.82 1497,-338.94"/>
<polygon fill="gray" stroke="gray" points="1498.05,-339.05 1497,-336.05 1495.95,-339.05 1498.05,-339.05"/>
</g>
<!-- SR2C2 -->
<g id="node45" class="node">
<title>SR2C2</title>
<polygon fill="none" stroke="gray" points="1553.88,-256.53 1440.12,-256.53 1440.12,-187.02 1553.88,-187.02 1553.88,-256.53"/>
<text text-anchor="start" x="1494" y="-244.15" font-family="Menlo" font-size="10.00">8</text>
<text text-anchor="start" x="1488" y="-231.4" font-family="Menlo" font-size="10.00">N A</text>
<text text-anchor="start" x="1443" y="-218.65" font-family="Menlo" font-size="10.00">fi [&quot;a&quot;, &quot;b&quot;, &quot;c&quot;]</text>
<text text-anchor="start" x="1473" y="-205.9" font-family="Menlo" font-size="10.00">fo [&quot;b&quot;]</text>
<text text-anchor="start" x="1455" y="-193.15" font-family="Menlo" font-size="10.00">[0:1:1, 0:1:2]</text>
</g>
<!-- SR1C2&#45;&gt;SR2C2 -->
<g id="edge45" class="edge">
<title>SR1C2&#45;&gt;SR2C2</title>
<path fill="none" stroke="gray" d="M1497,-264.06C1497,-263.19 1497,-262.31 1497,-261.43"/>
<polygon fill="gray" stroke="gray" points="1498.05,-261.54 1497,-258.54 1495.95,-261.54 1498.05,-261.54"/>
</g>
<!-- SR3C2 -->
<g id="node46" class="node">
<title>SR3C2</title>
<polygon fill="none" stroke="gray" points="1523.88,-171.02 1470.12,-171.02 1470.12,-101.51 1523.88,-101.51 1523.88,-171.02"/>
<text text-anchor="start" x="1494" y="-158.64" font-family="Menlo" font-size="10.00">9</text>
<text text-anchor="start" x="1482" y="-145.89" font-family="Menlo" font-size="10.00">T &quot;b&quot;</text>
<text text-anchor="start" x="1473" y="-133.14" font-family="Menlo" font-size="10.00">fi [&quot;b&quot;]</text>
<text text-anchor="start" x="1473" y="-120.39" font-family="Menlo" font-size="10.00">fo [&quot;$&quot;]</text>
<text text-anchor="start" x="1491" y="-107.64" font-family="Menlo" font-size="10.00">[]</text>
</g>
<!-- SR2C2&#45;&gt;SR3C2 -->
<g id="edge44" class="edge">
<title>SR2C2&#45;&gt;SR3C2</title>
<path fill="none" stroke="gray" d="M1497,-186.81C1497,-183.17 1497,-179.46 1497,-175.77"/>
<polygon fill="gray" stroke="gray" points="1498.05,-175.99 1497,-172.99 1495.95,-175.99 1498.05,-175.99"/>
</g>
<!-- SR4C2 -->
<g id="node47" class="node">
<title>SR4C2</title>
<polygon fill="none" stroke="gray" points="1523.88,-85.51 1470.12,-85.51 1470.12,-16 1523.88,-16 1523.88,-85.51"/>
<text text-anchor="start" x="1491" y="-73.13" font-family="Menlo" font-size="10.00">10</text>
<text text-anchor="start" x="1485" y="-60.38" font-family="Menlo" font-size="10.00">END </text>
<text text-anchor="start" x="1476" y="-47.63" font-family="Menlo" font-size="10.00">fi [&quot;&quot;]</text>
<text text-anchor="start" x="1473" y="-34.88" font-family="Menlo" font-size="10.00">fo [&quot;$&quot;]</text>
<text text-anchor="start" x="1491" y="-22.13" font-family="Menlo" font-size="10.00">[]</text>
</g>
<!-- SR3C2&#45;&gt;SR4C2 -->
<g id="edge43" class="edge">
<title>SR3C2&#45;&gt;SR4C2</title>
<path fill="none" stroke="gray" d="M1497,-101.3C1497,-97.66 1497,-93.95 1497,-90.26"/>
<polygon fill="gray" stroke="gray" points="1498.05,-90.48 1497,-87.48 1495.95,-90.48 1498.05,-90.48"/>
</g>
<!-- SR1C0&#45;&gt;SR1C1 -->
<!-- SR2C0 -->
<!-- SR1C0&#45;&gt;SR2C0 -->
<!-- SR2C0&#45;&gt;SR2C1 -->
<!-- SR3C0 -->
<!-- SR2C0&#45;&gt;SR3C0 -->
<!-- SR3C0&#45;&gt;SR3C1 -->
<!-- SR4C0 -->
<!-- SR3C0&#45;&gt;SR4C0 -->
<!-- SR4C0&#45;&gt;SR4C1 -->
</g>
</svg>
