<?xml version="1.0" encoding="UTF-8" standalone="no"?>
<!DOCTYPE svg PUBLIC "-//W3C//DTD SVG 1.1//EN"
 "http://www.w3.org/Graphics/SVG/1.1/DTD/svg11.dtd">
<!-- Generated by graphviz version 9.0.0 (20230911.1827)
 -->
<!-- Title: G Pages: 1 -->
<svg width="313pt" height="363pt"
 viewBox="0.00 0.00 313.00 362.79" xmlns="http://www.w3.org/2000/svg" xmlns:xlink="http://www.w3.org/1999/xlink">
<g id="graph0" class="graph" transform="scale(1 1) rotate(0) translate(4 358.79)">
<title>G</title>
<polygon fill="white" stroke="none" points="-4,4 -4,-358.79 309,-358.79 309,4 -4,4"/>
<g id="clust1" class="cluster">
<title>GSS</title>
<polygon fill="none" stroke="black" points="8,-263.41 8,-323.92 48,-323.92 48,-263.41 8,-263.41"/>
<text text-anchor="start" x="16" y="-310.42" font-family="Menlo" font-size="10.00" fill="red">↵aa↵</text>
</g>
<g id="clust2" class="cluster">
<title>clusterS</title>
<polygon fill="none" stroke="black" points="56,-8 56,-346.79 297,-346.79 297,-8 56,-8"/>
<text text-anchor="start" x="64" y="-333.29" font-family="Menlo" font-size="10.00">S = [ &quot;a&quot; ] &quot;a&quot; .</text>
</g>
<!-- 0.0 -->
<g id="node1" class="node">
<title>0.0</title>
<path fill="none" stroke="gray" d="M31.96,-295.17C31.96,-295.17 24.04,-295.17 24.04,-295.17 20.08,-295.17 16.12,-291.21 16.12,-287.25 16.12,-287.25 16.12,-279.33 16.12,-279.33 16.12,-275.37 20.08,-271.41 24.04,-271.41 24.04,-271.41 31.96,-271.41 31.96,-271.41 35.92,-271.41 39.88,-275.37 39.88,-279.33 39.88,-279.33 39.88,-287.25 39.88,-287.25 39.88,-291.21 35.92,-295.17 31.96,-295.17"/>
<text text-anchor="start" x="19" y="-283.79" font-family="Menlo" font-size="10.00">S,0</text>
<text text-anchor="start" x="23.5" y="-275.69" font-family="Menlo" font-size="8.00" fill="gray"> 2</text>
</g>
<!-- SR0C0 -->
<g id="node2" class="node">
<title>SR0C0</title>
<polygon fill="none" stroke="gray" points="117.88,-318.04 64.12,-318.04 64.12,-248.53 117.88,-248.53 117.88,-318.04"/>
<text text-anchor="start" x="88" y="-305.66" font-family="Menlo" font-size="10.00">0</text>
<text text-anchor="start" x="82" y="-292.91" font-family="Menlo" font-size="10.00">N S</text>
<text text-anchor="start" x="67" y="-280.16" font-family="Menlo" font-size="10.00">fi [&quot;a&quot;]</text>
<text text-anchor="start" x="67" y="-267.41" font-family="Menlo" font-size="10.00">fo [&quot;$&quot;]</text>
<text text-anchor="start" x="85" y="-254.66" font-family="Menlo" font-size="10.00">[]</text>
</g>
<!-- SR0C1 -->
<g id="node3" class="node">
<title>SR0C1</title>
<polygon fill="none" stroke="gray" points="198.88,-318.04 145.12,-318.04 145.12,-248.53 198.88,-248.53 198.88,-318.04"/>
<text text-anchor="start" x="169" y="-305.66" font-family="Menlo" font-size="10.00">1</text>
<text text-anchor="start" x="160" y="-292.91" font-family="Menlo" font-size="10.00">ALT </text>
<text text-anchor="start" x="148" y="-280.16" font-family="Menlo" font-size="10.00">fi [&quot;a&quot;]</text>
<text text-anchor="start" x="148" y="-267.41" font-family="Menlo" font-size="10.00">fo [&quot;a&quot;]</text>
<text text-anchor="start" x="166" y="-254.66" font-family="Menlo" font-size="10.00">[]</text>
</g>
<!-- SR0C0&#45;&gt;SR0C1 -->
<g id="edge7" class="edge">
<title>SR0C0&#45;&gt;SR0C1</title>
<path fill="none" stroke="gray" d="M118.21,-283.29C125.66,-283.29 133.1,-283.29 140.55,-283.29"/>
<polygon fill="gray" stroke="gray" points="140.17,-284.34 143.17,-283.29 140.17,-282.24 140.17,-284.34"/>
</g>
<!-- SR1C0 -->
<!-- SR0C0&#45;&gt;SR1C0 -->
<!-- SR1C1 -->
<g id="node4" class="node">
<title>SR1C1</title>
<polygon fill="none" stroke="gray" points="198.88,-240.53 145.12,-240.53 145.12,-171.02 198.88,-171.02 198.88,-240.53"/>
<text text-anchor="start" x="169" y="-228.15" font-family="Menlo" font-size="10.00">2</text>
<text text-anchor="start" x="160" y="-215.4" font-family="Menlo" font-size="10.00">OPT </text>
<text text-anchor="start" x="148" y="-202.65" font-family="Menlo" font-size="10.00">fi [&quot;a&quot;]</text>
<text text-anchor="start" x="148" y="-189.9" font-family="Menlo" font-size="10.00">fo [&quot;a&quot;]</text>
<text text-anchor="start" x="166" y="-177.15" font-family="Menlo" font-size="10.00">[]</text>
</g>
<!-- SR0C1&#45;&gt;SR1C1 -->
<g id="edge6" class="edge">
<title>SR0C1&#45;&gt;SR1C1</title>
<path fill="none" stroke="gray" d="M172,-248.06C172,-247.19 172,-246.31 172,-245.43"/>
<polygon fill="gray" stroke="gray" points="173.05,-245.54 172,-242.54 170.95,-245.54 173.05,-245.54"/>
</g>
<!-- SR0C2 -->
<!-- SR0C1&#45;&gt;SR0C2 -->
<!-- SR2C1 -->
<g id="node5" class="node">
<title>SR2C1</title>
<polygon fill="none" stroke="gray" points="216.88,-163.02 127.12,-163.02 127.12,-93.51 216.88,-93.51 216.88,-163.02"/>
<text text-anchor="start" x="169" y="-150.64" font-family="Menlo" font-size="10.00">6</text>
<text text-anchor="start" x="157" y="-137.89" font-family="Menlo" font-size="10.00">T &quot;a&quot;</text>
<text text-anchor="start" x="148" y="-125.14" font-family="Menlo" font-size="10.00">fi [&quot;a&quot;]</text>
<text text-anchor="start" x="148" y="-112.39" font-family="Menlo" font-size="10.00">fo [&quot;$&quot;]</text>
<text text-anchor="start" x="130" y="-99.64" font-family="Menlo" font-size="10.00">[0:0:1, 0:1:2]</text>
</g>
<!-- SR1C1&#45;&gt;SR2C1 -->
<g id="edge2" class="edge">
<title>SR1C1&#45;&gt;SR2C1</title>
<path fill="none" stroke="gray" d="M172,-170.55C172,-169.68 172,-168.8 172,-167.92"/>
<polygon fill="gray" stroke="gray" points="173.05,-168.03 172,-165.03 170.95,-168.03 173.05,-168.03"/>
</g>
<!-- SR1C2 -->
<g id="node7" class="node">
<title>SR1C2</title>
<polygon fill="none" stroke="gray" points="288.88,-240.53 235.12,-240.53 235.12,-171.02 288.88,-171.02 288.88,-240.53"/>
<text text-anchor="start" x="259" y="-228.15" font-family="Menlo" font-size="10.00">3</text>
<text text-anchor="start" x="250" y="-215.4" font-family="Menlo" font-size="10.00">ALT </text>
<text text-anchor="start" x="238" y="-202.65" font-family="Menlo" font-size="10.00">fi [&quot;a&quot;]</text>
<text text-anchor="start" x="238" y="-189.9" font-family="Menlo" font-size="10.00">fo [&quot;a&quot;]</text>
<text text-anchor="start" x="256" y="-177.15" font-family="Menlo" font-size="10.00">[]</text>
</g>
<!-- SR1C1&#45;&gt;SR1C2 -->
<g id="edge5" class="edge">
<title>SR1C1&#45;&gt;SR1C2</title>
<path fill="none" stroke="gray" d="M199.07,-205.78C209.54,-205.78 220.01,-205.78 230.47,-205.78"/>
<polygon fill="gray" stroke="gray" points="230.45,-206.83 233.45,-205.78 230.45,-204.73 230.45,-206.83"/>
</g>
<!-- SR3C1 -->
<g id="node6" class="node">
<title>SR3C1</title>
<polygon fill="none" stroke="gray" points="198.88,-85.51 145.12,-85.51 145.12,-16 198.88,-16 198.88,-85.51"/>
<text text-anchor="start" x="169" y="-73.13" font-family="Menlo" font-size="10.00">7</text>
<text text-anchor="start" x="160" y="-60.38" font-family="Menlo" font-size="10.00">END </text>
<text text-anchor="start" x="151" y="-47.63" font-family="Menlo" font-size="10.00">fi [&quot;&quot;]</text>
<text text-anchor="start" x="148" y="-34.88" font-family="Menlo" font-size="10.00">fo [&quot;$&quot;]</text>
<text text-anchor="start" x="166" y="-22.13" font-family="Menlo" font-size="10.00">[]</text>
</g>
<!-- SR2C1&#45;&gt;SR3C1 -->
<g id="edge1" class="edge">
<title>SR2C1&#45;&gt;SR3C1</title>
<path fill="none" stroke="gray" d="M172,-93.04C172,-92.17 172,-91.29 172,-90.41"/>
<polygon fill="gray" stroke="gray" points="173.05,-90.52 172,-87.52 170.95,-90.52 173.05,-90.52"/>
</g>
<!-- SR2C2 -->
<g id="node8" class="node">
<title>SR2C2</title>
<polygon fill="none" stroke="gray" points="288.88,-163.02 235.12,-163.02 235.12,-93.51 288.88,-93.51 288.88,-163.02"/>
<text text-anchor="start" x="259" y="-150.64" font-family="Menlo" font-size="10.00">4</text>
<text text-anchor="start" x="247" y="-137.89" font-family="Menlo" font-size="10.00">T &quot;a&quot;</text>
<text text-anchor="start" x="238" y="-125.14" font-family="Menlo" font-size="10.00">fi [&quot;a&quot;]</text>
<text text-anchor="start" x="238" y="-112.39" font-family="Menlo" font-size="10.00">fo [&quot;a&quot;]</text>
<text text-anchor="start" x="241" y="-99.64" font-family="Menlo" font-size="10.00">[0:0:1]</text>
</g>
<!-- SR1C2&#45;&gt;SR2C2 -->
<g id="edge4" class="edge">
<title>SR1C2&#45;&gt;SR2C2</title>
<path fill="none" stroke="gray" d="M262,-170.55C262,-169.68 262,-168.8 262,-167.92"/>
<polygon fill="gray" stroke="gray" points="263.05,-168.03 262,-165.03 260.95,-168.03 263.05,-168.03"/>
</g>
<!-- SR3C2 -->
<g id="node9" class="node">
<title>SR3C2</title>
<polygon fill="none" stroke="gray" points="288.88,-85.51 235.12,-85.51 235.12,-16 288.88,-16 288.88,-85.51"/>
<text text-anchor="start" x="259" y="-73.13" font-family="Menlo" font-size="10.00">5</text>
<text text-anchor="start" x="250" y="-60.38" font-family="Menlo" font-size="10.00">END </text>
<text text-anchor="start" x="241" y="-47.63" font-family="Menlo" font-size="10.00">fi [&quot;&quot;]</text>
<text text-anchor="start" x="238" y="-34.88" font-family="Menlo" font-size="10.00">fo [&quot;a&quot;]</text>
<text text-anchor="start" x="256" y="-22.13" font-family="Menlo" font-size="10.00">[]</text>
</g>
<!-- SR2C2&#45;&gt;SR3C2 -->
<g id="edge3" class="edge">
<title>SR2C2&#45;&gt;SR3C2</title>
<path fill="none" stroke="gray" d="M262,-93.04C262,-92.17 262,-91.29 262,-90.41"/>
<polygon fill="gray" stroke="gray" points="263.05,-90.52 262,-87.52 260.95,-90.52 263.05,-90.52"/>
</g>
<!-- SR0C2&#45;&gt;SR1C2 -->
<!-- SR1C0&#45;&gt;SR1C1 -->
<!-- SR2C0 -->
<!-- SR1C0&#45;&gt;SR2C0 -->
<!-- SR2C0&#45;&gt;SR2C1 -->
<!-- SR3C0 -->
<!-- SR2C0&#45;&gt;SR3C0 -->
<!-- SR3C0&#45;&gt;SR3C1 -->
</g>
</svg>
