<?xml version="1.0" encoding="UTF-8" standalone="no"?>
<!DOCTYPE svg PUBLIC "-//W3C//DTD SVG 1.1//EN"
 "http://www.w3.org/Graphics/SVG/1.1/DTD/svg11.dtd">
<!-- Generated by graphviz version 9.0.0 (20230911.1827)
 -->
<!-- Title: G Pages: 1 -->
<svg width="529pt" height="526pt"
 viewBox="0.00 0.00 529.00 525.81" xmlns="http://www.w3.org/2000/svg" xmlns:xlink="http://www.w3.org/1999/xlink">
<g id="graph0" class="graph" transform="scale(1 1) rotate(0) translate(4 521.81)">
<title>G</title>
<polygon fill="white" stroke="none" points="-4,4 -4,-521.81 525,-521.81 525,4 -4,4"/>
<g id="clust1" class="cluster">
<title>GSS</title>
<polygon fill="none" stroke="black" points="8,-348.92 8,-486.94 150,-486.94 150,-348.92 8,-348.92"/>
<text text-anchor="start" x="16" y="-473.44" font-family="Menlo" font-size="10.00" fill="red">↵abab↵</text>
</g>
<g id="clust2" class="cluster">
<title>clusterS</title>
<polygon fill="none" stroke="black" points="158,-8 158,-509.81 300,-509.81 300,-8 158,-8"/>
<text text-anchor="start" x="166" y="-496.31" font-family="Menlo" font-size="10.00">S = &quot;a&quot; B &quot;a&quot; B .</text>
</g>
<g id="clust9" class="cluster">
<title>clusterB</title>
<polygon fill="none" stroke="black" points="308,-248.53 308,-509.81 513,-509.81 513,-248.53 308,-248.53"/>
<text text-anchor="start" x="316" y="-496.31" font-family="Menlo" font-size="10.00">B = &quot;b&quot; .</text>
</g>
<!-- 0.0 -->
<g id="node1" class="node">
<title>0.0</title>
<path fill="none" stroke="gray" d="M133.96,-458.19C133.96,-458.19 126.04,-458.19 126.04,-458.19 122.08,-458.19 118.12,-454.23 118.12,-450.26 118.12,-450.26 118.12,-442.35 118.12,-442.35 118.12,-438.38 122.08,-434.43 126.04,-434.43 126.04,-434.43 133.96,-434.43 133.96,-434.43 137.92,-434.43 141.88,-438.38 141.88,-442.35 141.88,-442.35 141.88,-450.26 141.88,-450.26 141.88,-454.23 137.92,-458.19 133.96,-458.19"/>
<text text-anchor="start" x="121" y="-446.81" font-family="Menlo" font-size="10.00">S,0</text>
<text text-anchor="start" x="127.75" y="-438.7" font-family="Menlo" font-size="8.00" fill="gray"> </text>
</g>
<!-- 3.0 -->
<g id="node2" class="node">
<title>3.0</title>
<path fill="none" stroke="gray" d="M133.96,-380.68C133.96,-380.68 96.04,-380.68 96.04,-380.68 92.08,-380.68 88.12,-376.72 88.12,-372.75 88.12,-372.75 88.12,-364.84 88.12,-364.84 88.12,-360.88 92.08,-356.92 96.04,-356.92 96.04,-356.92 133.96,-356.92 133.96,-356.92 137.92,-356.92 141.88,-360.88 141.88,-364.84 141.88,-364.84 141.88,-372.75 141.88,-372.75 141.88,-376.72 137.92,-380.68 133.96,-380.68"/>
<text text-anchor="start" x="91" y="-369.3" font-family="Menlo" font-size="10.00">S=aB̲aB,0</text>
<text text-anchor="start" x="112.75" y="-361.19" font-family="Menlo" font-size="8.00" fill="gray"> </text>
</g>
<!-- 5.1 -->
<g id="node3" class="node">
<title>5.1</title>
<path fill="none" stroke="gray" d="M61.96,-380.68C61.96,-380.68 24.04,-380.68 24.04,-380.68 20.08,-380.68 16.12,-376.72 16.12,-372.75 16.12,-372.75 16.12,-364.84 16.12,-364.84 16.12,-360.88 20.08,-356.92 24.04,-356.92 24.04,-356.92 61.96,-356.92 61.96,-356.92 65.92,-356.92 69.88,-360.88 69.88,-364.84 69.88,-364.84 69.88,-372.75 69.88,-372.75 69.88,-376.72 65.92,-380.68 61.96,-380.68"/>
<text text-anchor="start" x="19" y="-369.3" font-family="Menlo" font-size="10.00">S=aBaB̲,1</text>
<text text-anchor="start" x="40.75" y="-361.19" font-family="Menlo" font-size="8.00" fill="gray"> </text>
</g>
<!-- 7.1 -->
<g id="node4" class="node">
<title>7.1</title>
<path fill="none" stroke="gray" d="M91.96,-458.19C91.96,-458.19 84.04,-458.19 84.04,-458.19 80.08,-458.19 76.12,-454.23 76.12,-450.26 76.12,-450.26 76.12,-442.35 76.12,-442.35 76.12,-438.38 80.08,-434.43 84.04,-434.43 84.04,-434.43 91.96,-434.43 91.96,-434.43 95.92,-434.43 99.88,-438.38 99.88,-442.35 99.88,-442.35 99.88,-450.26 99.88,-450.26 99.88,-454.23 95.92,-458.19 91.96,-458.19"/>
<text text-anchor="start" x="79" y="-446.81" font-family="Menlo" font-size="10.00">B,1</text>
<text text-anchor="start" x="83.5" y="-438.7" font-family="Menlo" font-size="8.00" fill="gray"> 2</text>
</g>
<!-- 7.1&#45;&gt;3.0 -->
<g id="edge1" class="edge">
<title>7.1&#45;&gt;3.0</title>
<path fill="none" stroke="gray" d="M91.98,-434.16C96.65,-421.11 104.4,-399.43 109.6,-384.88"/>
<polygon fill="gray" stroke="gray" points="110.47,-385.59 110.49,-382.41 108.49,-384.88 110.47,-385.59"/>
</g>
<!-- 7.3 -->
<g id="node5" class="node">
<title>7.3</title>
<path fill="none" stroke="gray" d="M46.96,-458.19C46.96,-458.19 39.04,-458.19 39.04,-458.19 35.08,-458.19 31.12,-454.23 31.12,-450.26 31.12,-450.26 31.12,-442.35 31.12,-442.35 31.12,-438.38 35.08,-434.43 39.04,-434.43 39.04,-434.43 46.96,-434.43 46.96,-434.43 50.92,-434.43 54.88,-438.38 54.88,-442.35 54.88,-442.35 54.88,-450.26 54.88,-450.26 54.88,-454.23 50.92,-458.19 46.96,-458.19"/>
<text text-anchor="start" x="34" y="-446.81" font-family="Menlo" font-size="10.00">B,3</text>
<text text-anchor="start" x="38.5" y="-438.7" font-family="Menlo" font-size="8.00" fill="gray"> 4</text>
</g>
<!-- 7.3&#45;&gt;5.1 -->
<g id="edge2" class="edge">
<title>7.3&#45;&gt;5.1</title>
<path fill="none" stroke="gray" d="M43,-434.16C43,-421.23 43,-399.8 43,-385.26"/>
<polygon fill="gray" stroke="gray" points="44.05,-385.5 43,-382.5 41.95,-385.5 44.05,-385.5"/>
</g>
<!-- SR0C0 -->
<g id="node6" class="node">
<title>SR0C0</title>
<polygon fill="none" stroke="gray" points="219.88,-481.06 166.12,-481.06 166.12,-411.55 219.88,-411.55 219.88,-481.06"/>
<text text-anchor="start" x="190" y="-468.68" font-family="Menlo" font-size="10.00">0</text>
<text text-anchor="start" x="184" y="-455.93" font-family="Menlo" font-size="10.00">N S</text>
<text text-anchor="start" x="169" y="-443.18" font-family="Menlo" font-size="10.00">fi [&quot;a&quot;]</text>
<text text-anchor="start" x="169" y="-430.43" font-family="Menlo" font-size="10.00">fo [&quot;$&quot;]</text>
<text text-anchor="start" x="187" y="-417.68" font-family="Menlo" font-size="10.00">[]</text>
</g>
<!-- SR0C1 -->
<g id="node7" class="node">
<title>SR0C1</title>
<polygon fill="none" stroke="gray" points="291.88,-481.06 238.12,-481.06 238.12,-411.55 291.88,-411.55 291.88,-481.06"/>
<text text-anchor="start" x="262" y="-468.68" font-family="Menlo" font-size="10.00">1</text>
<text text-anchor="start" x="253" y="-455.93" font-family="Menlo" font-size="10.00">ALT </text>
<text text-anchor="start" x="241" y="-443.18" font-family="Menlo" font-size="10.00">fi [&quot;a&quot;]</text>
<text text-anchor="start" x="241" y="-430.43" font-family="Menlo" font-size="10.00">fo [&quot;b&quot;]</text>
<text text-anchor="start" x="259" y="-417.68" font-family="Menlo" font-size="10.00">[]</text>
</g>
<!-- SR0C0&#45;&gt;SR0C1 -->
<g id="edge8" class="edge">
<title>SR0C0&#45;&gt;SR0C1</title>
<path fill="none" stroke="gray" d="M220.28,-446.31C224.65,-446.31 229.02,-446.31 233.38,-446.31"/>
<polygon fill="gray" stroke="gray" points="233.24,-447.36 236.24,-446.31 233.24,-445.26 233.24,-447.36"/>
</g>
<!-- SR1C0 -->
<!-- SR0C0&#45;&gt;SR1C0 -->
<!-- SR1C1 -->
<g id="node8" class="node">
<title>SR1C1</title>
<polygon fill="none" stroke="gray" points="291.88,-403.55 238.12,-403.55 238.12,-334.04 291.88,-334.04 291.88,-403.55"/>
<text text-anchor="start" x="262" y="-391.17" font-family="Menlo" font-size="10.00">2</text>
<text text-anchor="start" x="250" y="-378.42" font-family="Menlo" font-size="10.00">T &quot;a&quot;</text>
<text text-anchor="start" x="241" y="-365.67" font-family="Menlo" font-size="10.00">fi [&quot;a&quot;]</text>
<text text-anchor="start" x="241" y="-352.92" font-family="Menlo" font-size="10.00">fo [&quot;b&quot;]</text>
<text text-anchor="start" x="244" y="-340.17" font-family="Menlo" font-size="10.00">[0:0:1]</text>
</g>
<!-- SR0C1&#45;&gt;SR1C1 -->
<g id="edge7" class="edge">
<title>SR0C1&#45;&gt;SR1C1</title>
<path fill="none" stroke="gray" d="M265,-411.08C265,-410.21 265,-409.33 265,-408.45"/>
<polygon fill="gray" stroke="gray" points="266.05,-408.56 265,-405.56 263.95,-408.56 266.05,-408.56"/>
</g>
<!-- SR2C1 -->
<g id="node9" class="node">
<title>SR2C1</title>
<polygon fill="none" stroke="gray" points="291.88,-326.04 238.12,-326.04 238.12,-256.53 291.88,-256.53 291.88,-326.04"/>
<text text-anchor="start" x="262" y="-313.66" font-family="Menlo" font-size="10.00">3</text>
<text text-anchor="start" x="256" y="-300.91" font-family="Menlo" font-size="10.00">N B</text>
<text text-anchor="start" x="241" y="-288.16" font-family="Menlo" font-size="10.00">fi [&quot;b&quot;]</text>
<text text-anchor="start" x="241" y="-275.41" font-family="Menlo" font-size="10.00">fo [&quot;a&quot;]</text>
<text text-anchor="start" x="244" y="-262.66" font-family="Menlo" font-size="10.00">[0:1:2]</text>
</g>
<!-- SR1C1&#45;&gt;SR2C1 -->
<g id="edge6" class="edge">
<title>SR1C1&#45;&gt;SR2C1</title>
<path fill="none" stroke="gray" d="M265,-333.57C265,-332.7 265,-331.82 265,-330.94"/>
<polygon fill="gray" stroke="gray" points="266.05,-331.05 265,-328.05 263.95,-331.05 266.05,-331.05"/>
</g>
<!-- SR3C1 -->
<g id="node10" class="node">
<title>SR3C1</title>
<polygon fill="none" stroke="gray" points="291.88,-240.53 238.12,-240.53 238.12,-171.02 291.88,-171.02 291.88,-240.53"/>
<text text-anchor="start" x="262" y="-228.15" font-family="Menlo" font-size="10.00">4</text>
<text text-anchor="start" x="250" y="-215.4" font-family="Menlo" font-size="10.00">T &quot;a&quot;</text>
<text text-anchor="start" x="241" y="-202.65" font-family="Menlo" font-size="10.00">fi [&quot;a&quot;]</text>
<text text-anchor="start" x="241" y="-189.9" font-family="Menlo" font-size="10.00">fo [&quot;b&quot;]</text>
<text text-anchor="start" x="244" y="-177.15" font-family="Menlo" font-size="10.00">[1:2:3]</text>
</g>
<!-- SR2C1&#45;&gt;SR3C1 -->
<g id="edge5" class="edge">
<title>SR2C1&#45;&gt;SR3C1</title>
<path fill="none" stroke="gray" d="M265,-256.32C265,-252.68 265,-248.97 265,-245.28"/>
<polygon fill="gray" stroke="gray" points="266.05,-245.5 265,-242.5 263.95,-245.5 266.05,-245.5"/>
</g>
<!-- SR4C1 -->
<g id="node11" class="node">
<title>SR4C1</title>
<polygon fill="none" stroke="gray" points="291.88,-163.02 238.12,-163.02 238.12,-93.51 291.88,-93.51 291.88,-163.02"/>
<text text-anchor="start" x="262" y="-150.64" font-family="Menlo" font-size="10.00">5</text>
<text text-anchor="start" x="256" y="-137.89" font-family="Menlo" font-size="10.00">N B</text>
<text text-anchor="start" x="241" y="-125.14" font-family="Menlo" font-size="10.00">fi [&quot;b&quot;]</text>
<text text-anchor="start" x="241" y="-112.39" font-family="Menlo" font-size="10.00">fo [&quot;$&quot;]</text>
<text text-anchor="start" x="244" y="-99.64" font-family="Menlo" font-size="10.00">[1:3:4]</text>
</g>
<!-- SR3C1&#45;&gt;SR4C1 -->
<g id="edge4" class="edge">
<title>SR3C1&#45;&gt;SR4C1</title>
<path fill="none" stroke="gray" d="M265,-170.55C265,-169.68 265,-168.8 265,-167.92"/>
<polygon fill="gray" stroke="gray" points="266.05,-168.03 265,-165.03 263.95,-168.03 266.05,-168.03"/>
</g>
<!-- SR5C1 -->
<g id="node12" class="node">
<title>SR5C1</title>
<polygon fill="none" stroke="gray" points="291.88,-85.51 238.12,-85.51 238.12,-16 291.88,-16 291.88,-85.51"/>
<text text-anchor="start" x="262" y="-73.13" font-family="Menlo" font-size="10.00">6</text>
<text text-anchor="start" x="253" y="-60.38" font-family="Menlo" font-size="10.00">END </text>
<text text-anchor="start" x="244" y="-47.63" font-family="Menlo" font-size="10.00">fi [&quot;&quot;]</text>
<text text-anchor="start" x="241" y="-34.88" font-family="Menlo" font-size="10.00">fo [&quot;$&quot;]</text>
<text text-anchor="start" x="259" y="-22.13" font-family="Menlo" font-size="10.00">[]</text>
</g>
<!-- SR4C1&#45;&gt;SR5C1 -->
<g id="edge3" class="edge">
<title>SR4C1&#45;&gt;SR5C1</title>
<path fill="none" stroke="gray" d="M265,-93.04C265,-92.17 265,-91.29 265,-90.41"/>
<polygon fill="gray" stroke="gray" points="266.05,-90.52 265,-87.52 263.95,-90.52 266.05,-90.52"/>
</g>
<!-- SR1C0&#45;&gt;SR1C1 -->
<!-- SR2C0 -->
<!-- SR1C0&#45;&gt;SR2C0 -->
<!-- SR2C0&#45;&gt;SR2C1 -->
<!-- SR3C0 -->
<!-- SR2C0&#45;&gt;SR3C0 -->
<!-- SR3C0&#45;&gt;SR3C1 -->
<!-- SR4C0 -->
<!-- SR3C0&#45;&gt;SR4C0 -->
<!-- SR4C0&#45;&gt;SR4C1 -->
<!-- SR5C0 -->
<!-- SR4C0&#45;&gt;SR5C0 -->
<!-- SR5C0&#45;&gt;SR5C1 -->
<!-- BR0C0 -->
<g id="node18" class="node">
<title>BR0C0</title>
<polygon fill="none" stroke="gray" points="399.88,-481.06 316.12,-481.06 316.12,-411.55 399.88,-411.55 399.88,-481.06"/>
<text text-anchor="start" x="355" y="-468.68" font-family="Menlo" font-size="10.00">7</text>
<text text-anchor="start" x="349" y="-455.93" font-family="Menlo" font-size="10.00">N B</text>
<text text-anchor="start" x="334" y="-443.18" font-family="Menlo" font-size="10.00">fi [&quot;b&quot;]</text>
<text text-anchor="start" x="319" y="-430.43" font-family="Menlo" font-size="10.00">fo [&quot;$&quot;, &quot;a&quot;]</text>
<text text-anchor="start" x="352" y="-417.68" font-family="Menlo" font-size="10.00">[]</text>
</g>
<!-- BR0C1 -->
<g id="node19" class="node">
<title>BR0C1</title>
<polygon fill="none" stroke="gray" points="501.88,-481.06 418.12,-481.06 418.12,-411.55 501.88,-411.55 501.88,-481.06"/>
<text text-anchor="start" x="457" y="-468.68" font-family="Menlo" font-size="10.00">8</text>
<text text-anchor="start" x="448" y="-455.93" font-family="Menlo" font-size="10.00">ALT </text>
<text text-anchor="start" x="436" y="-443.18" font-family="Menlo" font-size="10.00">fi [&quot;b&quot;]</text>
<text text-anchor="start" x="421" y="-430.43" font-family="Menlo" font-size="10.00">fo [&quot;$&quot;, &quot;a&quot;]</text>
<text text-anchor="start" x="454" y="-417.68" font-family="Menlo" font-size="10.00">[]</text>
</g>
<!-- BR0C0&#45;&gt;BR0C1 -->
<g id="edge21" class="edge">
<title>BR0C0&#45;&gt;BR0C1</title>
<path fill="none" stroke="gray" d="M400.23,-446.31C404.67,-446.31 409.11,-446.31 413.54,-446.31"/>
<polygon fill="gray" stroke="gray" points="413.46,-447.36 416.46,-446.31 413.46,-445.26 413.46,-447.36"/>
</g>
<!-- BR1C0 -->
<!-- BR0C0&#45;&gt;BR1C0 -->
<!-- BR1C1 -->
<g id="node20" class="node">
<title>BR1C1</title>
<polygon fill="none" stroke="gray" points="504.88,-403.55 415.12,-403.55 415.12,-334.04 504.88,-334.04 504.88,-403.55"/>
<text text-anchor="start" x="457" y="-391.17" font-family="Menlo" font-size="10.00">9</text>
<text text-anchor="start" x="445" y="-378.42" font-family="Menlo" font-size="10.00">T &quot;b&quot;</text>
<text text-anchor="start" x="436" y="-365.67" font-family="Menlo" font-size="10.00">fi [&quot;b&quot;]</text>
<text text-anchor="start" x="421" y="-352.92" font-family="Menlo" font-size="10.00">fo [&quot;$&quot;, &quot;a&quot;]</text>
<text text-anchor="start" x="418" y="-340.17" font-family="Menlo" font-size="10.00">[1:1:2, 3:3:4]</text>
</g>
<!-- BR0C1&#45;&gt;BR1C1 -->
<g id="edge20" class="edge">
<title>BR0C1&#45;&gt;BR1C1</title>
<path fill="none" stroke="gray" d="M460,-411.08C460,-410.21 460,-409.33 460,-408.45"/>
<polygon fill="gray" stroke="gray" points="461.05,-408.56 460,-405.56 458.95,-408.56 461.05,-408.56"/>
</g>
<!-- BR2C1 -->
<g id="node21" class="node">
<title>BR2C1</title>
<polygon fill="none" stroke="gray" points="501.88,-326.04 418.12,-326.04 418.12,-256.53 501.88,-256.53 501.88,-326.04"/>
<text text-anchor="start" x="454" y="-313.66" font-family="Menlo" font-size="10.00">10</text>
<text text-anchor="start" x="448" y="-300.91" font-family="Menlo" font-size="10.00">END </text>
<text text-anchor="start" x="439" y="-288.16" font-family="Menlo" font-size="10.00">fi [&quot;&quot;]</text>
<text text-anchor="start" x="421" y="-275.41" font-family="Menlo" font-size="10.00">fo [&quot;$&quot;, &quot;a&quot;]</text>
<text text-anchor="start" x="454" y="-262.66" font-family="Menlo" font-size="10.00">[]</text>
</g>
<!-- BR1C1&#45;&gt;BR2C1 -->
<g id="edge19" class="edge">
<title>BR1C1&#45;&gt;BR2C1</title>
<path fill="none" stroke="gray" d="M460,-333.57C460,-332.7 460,-331.82 460,-330.94"/>
<polygon fill="gray" stroke="gray" points="461.05,-331.05 460,-328.05 458.95,-331.05 461.05,-331.05"/>
</g>
<!-- BR1C0&#45;&gt;BR1C1 -->
<!-- BR2C0 -->
<!-- BR1C0&#45;&gt;BR2C0 -->
<!-- BR2C0&#45;&gt;BR2C1 -->
</g>
</svg>
