<?xml version="1.0" encoding="UTF-8" standalone="no"?>
<!DOCTYPE svg PUBLIC "-//W3C//DTD SVG 1.1//EN"
 "http://www.w3.org/Graphics/SVG/1.1/DTD/svg11.dtd">
<!-- Generated by graphviz version 9.0.0 (20230911.1827)
 -->
<!-- Title: G Pages: 1 -->
<svg width="700pt" height="441pt"
 viewBox="0.00 0.00 700.00 441.31" xmlns="http://www.w3.org/2000/svg" xmlns:xlink="http://www.w3.org/1999/xlink">
<g id="graph0" class="graph" transform="scale(1 1) rotate(0) translate(4 437.31)">
<title>G</title>
<polygon fill="white" stroke="none" points="-4,4 -4,-437.31 696,-437.31 696,4 -4,4"/>
<g id="clust2" class="cluster">
<title>clusterS</title>
<polygon fill="none" stroke="black" points="8,-8 8,-425.31 684,-425.31 684,-8 8,-8"/>
<text text-anchor="start" x="16" y="-411.81" font-family="Menlo" font-size="10.00">S = { &quot;a&quot; } { &quot;b&quot; } { &quot;c&quot; } .</text>
</g>
<!-- SR0C0 -->
<g id="node1" class="node">
<title>SR0C0</title>
<polygon fill="none" stroke="gray" points="153.88,-396.56 16.12,-396.56 16.12,-339.8 153.88,-339.8 153.88,-396.56"/>
<text text-anchor="start" x="82" y="-384.18" font-family="Menlo" font-size="10.00">P</text>
<text text-anchor="start" x="76" y="-371.43" font-family="Menlo" font-size="10.00">N S</text>
<text text-anchor="start" x="19" y="-358.68" font-family="Menlo" font-size="10.00">fi [&quot;&quot;, &quot;a&quot;, &quot;b&quot;, &quot;c&quot;]</text>
<text text-anchor="start" x="61" y="-345.93" font-family="Menlo" font-size="10.00">fo [&quot;$&quot;]</text>
</g>
<!-- SR0C1 -->
<g id="node2" class="node">
<title>SR0C1</title>
<polygon fill="none" stroke="gray" points="309.88,-396.56 172.12,-396.56 172.12,-339.8 309.88,-339.8 309.88,-396.56"/>
<text text-anchor="start" x="238" y="-384.18" font-family="Menlo" font-size="10.00">B</text>
<text text-anchor="start" x="229" y="-371.43" font-family="Menlo" font-size="10.00">ALT </text>
<text text-anchor="start" x="175" y="-358.68" font-family="Menlo" font-size="10.00">fi [&quot;&quot;, &quot;a&quot;, &quot;b&quot;, &quot;c&quot;]</text>
<text text-anchor="start" x="187" y="-345.93" font-family="Menlo" font-size="10.00">fo [&quot;$&quot;, &quot;b&quot;, &quot;c&quot;]</text>
</g>
<!-- SR0C0&#45;&gt;SR0C1 -->
<g id="edge14" class="edge">
<title>SR0C0&#45;&gt;SR0C1</title>
<path fill="none" stroke="gray" d="M154.16,-368.18C158.57,-368.18 162.98,-368.18 167.39,-368.18"/>
<polygon fill="gray" stroke="gray" points="167.29,-369.23 170.29,-368.18 167.29,-367.13 167.29,-369.23"/>
</g>
<!-- SR1C0 -->
<!-- SR0C0&#45;&gt;SR1C0 -->
<!-- SR1C1 -->
<g id="node3" class="node">
<title>SR1C1</title>
<polygon fill="none" stroke="gray" points="309.88,-331.8 172.12,-331.8 172.12,-275.04 309.88,-275.04 309.88,-331.8"/>
<text text-anchor="start" x="238" y="-319.42" font-family="Menlo" font-size="10.00">F</text>
<text text-anchor="start" x="229" y="-306.67" font-family="Menlo" font-size="10.00">KLN </text>
<text text-anchor="start" x="175" y="-293.92" font-family="Menlo" font-size="10.00">fi [&quot;&quot;, &quot;a&quot;, &quot;b&quot;, &quot;c&quot;]</text>
<text text-anchor="start" x="187" y="-281.17" font-family="Menlo" font-size="10.00">fo [&quot;$&quot;, &quot;b&quot;, &quot;c&quot;]</text>
</g>
<!-- SR0C1&#45;&gt;SR1C1 -->
<g id="edge13" class="edge">
<title>SR0C1&#45;&gt;SR1C1</title>
<path fill="none" stroke="gray" d="M241,-339.47C241,-338.38 241,-337.28 241,-336.18"/>
<polygon fill="gray" stroke="gray" points="242.05,-336.47 241,-333.47 239.95,-336.47 242.05,-336.47"/>
</g>
<!-- SR0C2 -->
<!-- SR0C1&#45;&gt;SR0C2 -->
<!-- SR2C1 -->
<g id="node4" class="node">
<title>SR2C1</title>
<polygon fill="none" stroke="gray" points="294.88,-267.04 187.12,-267.04 187.12,-210.28 294.88,-210.28 294.88,-267.04"/>
<text text-anchor="start" x="238" y="-254.66" font-family="Menlo" font-size="10.00">J</text>
<text text-anchor="start" x="229" y="-241.91" font-family="Menlo" font-size="10.00">KLN </text>
<text text-anchor="start" x="190" y="-229.16" font-family="Menlo" font-size="10.00">fi [&quot;&quot;, &quot;b&quot;, &quot;c&quot;]</text>
<text text-anchor="start" x="202" y="-216.41" font-family="Menlo" font-size="10.00">fo [&quot;$&quot;, &quot;c&quot;]</text>
</g>
<!-- SR1C1&#45;&gt;SR2C1 -->
<g id="edge9" class="edge">
<title>SR1C1&#45;&gt;SR2C1</title>
<path fill="none" stroke="gray" d="M241,-274.71C241,-273.62 241,-272.52 241,-271.42"/>
<polygon fill="gray" stroke="gray" points="242.05,-271.71 241,-268.71 239.95,-271.71 242.05,-271.71"/>
</g>
<!-- SR1C4 -->
<g id="node13" class="node">
<title>SR1C4</title>
<polygon fill="none" stroke="gray" points="675.88,-331.8 532.12,-331.8 532.12,-275.04 675.88,-275.04 675.88,-331.8"/>
<text text-anchor="start" x="601" y="-319.42" font-family="Menlo" font-size="10.00">C</text>
<text text-anchor="start" x="592" y="-306.67" font-family="Menlo" font-size="10.00">ALT </text>
<text text-anchor="start" x="580" y="-293.92" font-family="Menlo" font-size="10.00">fi [&quot;a&quot;]</text>
<text text-anchor="start" x="535" y="-281.17" font-family="Menlo" font-size="10.00">fo [&quot;$&quot;, &quot;a&quot;, &quot;b&quot;, &quot;c&quot;]</text>
</g>
<!-- SR1C1&#45;&gt;SR1C4 -->
<g id="edge12" class="edge">
<title>SR1C1&#45;&gt;SR1C4</title>
<path fill="none" stroke="gray" d="M310.13,-303.42C382.53,-303.42 454.94,-303.42 527.35,-303.42"/>
<polygon fill="gray" stroke="gray" points="527.17,-304.47 530.17,-303.42 527.17,-302.37 527.17,-304.47"/>
</g>
<!-- SR3C1 -->
<g id="node5" class="node">
<title>SR3C1</title>
<polygon fill="none" stroke="gray" points="279.88,-202.28 202.12,-202.28 202.12,-145.52 279.88,-145.52 279.88,-202.28"/>
<text text-anchor="start" x="238" y="-189.9" font-family="Menlo" font-size="10.00">N</text>
<text text-anchor="start" x="229" y="-177.15" font-family="Menlo" font-size="10.00">KLN </text>
<text text-anchor="start" x="205" y="-164.4" font-family="Menlo" font-size="10.00">fi [&quot;&quot;, &quot;c&quot;]</text>
<text text-anchor="start" x="217" y="-151.65" font-family="Menlo" font-size="10.00">fo [&quot;$&quot;]</text>
</g>
<!-- SR2C1&#45;&gt;SR3C1 -->
<g id="edge5" class="edge">
<title>SR2C1&#45;&gt;SR3C1</title>
<path fill="none" stroke="gray" d="M241,-209.95C241,-208.86 241,-207.76 241,-206.66"/>
<polygon fill="gray" stroke="gray" points="242.05,-206.95 241,-203.95 239.95,-206.95 242.05,-206.95"/>
</g>
<!-- SR2C3 -->
<g id="node10" class="node">
<title>SR2C3</title>
<polygon fill="none" stroke="gray" points="513.88,-267.04 400.12,-267.04 400.12,-210.28 513.88,-210.28 513.88,-267.04"/>
<text text-anchor="start" x="454" y="-254.66" font-family="Menlo" font-size="10.00">G</text>
<text text-anchor="start" x="445" y="-241.91" font-family="Menlo" font-size="10.00">ALT </text>
<text text-anchor="start" x="433" y="-229.16" font-family="Menlo" font-size="10.00">fi [&quot;b&quot;]</text>
<text text-anchor="start" x="403" y="-216.41" font-family="Menlo" font-size="10.00">fo [&quot;$&quot;, &quot;b&quot;, &quot;c&quot;]</text>
</g>
<!-- SR2C1&#45;&gt;SR2C3 -->
<g id="edge8" class="edge">
<title>SR2C1&#45;&gt;SR2C3</title>
<path fill="none" stroke="gray" d="M295,-238.66C328.41,-238.66 361.82,-238.66 395.23,-238.66"/>
<polygon fill="gray" stroke="gray" points="395.22,-239.71 398.22,-238.66 395.22,-237.61 395.22,-239.71"/>
</g>
<!-- SR4C1 -->
<g id="node6" class="node">
<title>SR4C1</title>
<polygon fill="none" stroke="gray" points="267.88,-137.52 214.12,-137.52 214.12,-80.76 267.88,-80.76 267.88,-137.52"/>
<text text-anchor="start" x="238" y="-125.14" font-family="Menlo" font-size="10.00">O</text>
<text text-anchor="start" x="229" y="-112.39" font-family="Menlo" font-size="10.00">END </text>
<text text-anchor="start" x="220" y="-99.64" font-family="Menlo" font-size="10.00">fi [&quot;&quot;]</text>
<text text-anchor="start" x="217" y="-86.89" font-family="Menlo" font-size="10.00">fo [&quot;$&quot;]</text>
</g>
<!-- SR3C1&#45;&gt;SR4C1 -->
<g id="edge1" class="edge">
<title>SR3C1&#45;&gt;SR4C1</title>
<path fill="none" stroke="gray" d="M241,-145.19C241,-144.1 241,-143 241,-141.9"/>
<polygon fill="gray" stroke="gray" points="242.05,-142.19 241,-139.19 239.95,-142.19 242.05,-142.19"/>
</g>
<!-- SR3C2 -->
<g id="node7" class="node">
<title>SR3C2</title>
<polygon fill="none" stroke="gray" points="381.88,-202.28 298.12,-202.28 298.12,-145.52 381.88,-145.52 381.88,-202.28"/>
<text text-anchor="start" x="337" y="-189.9" font-family="Menlo" font-size="10.00">K</text>
<text text-anchor="start" x="328" y="-177.15" font-family="Menlo" font-size="10.00">ALT </text>
<text text-anchor="start" x="316" y="-164.4" font-family="Menlo" font-size="10.00">fi [&quot;c&quot;]</text>
<text text-anchor="start" x="301" y="-151.65" font-family="Menlo" font-size="10.00">fo [&quot;$&quot;, &quot;c&quot;]</text>
</g>
<!-- SR3C1&#45;&gt;SR3C2 -->
<g id="edge4" class="edge">
<title>SR3C1&#45;&gt;SR3C2</title>
<path fill="none" stroke="gray" d="M280.06,-173.9C284.51,-173.9 288.96,-173.9 293.4,-173.9"/>
<polygon fill="gray" stroke="gray" points="293.34,-174.95 296.34,-173.9 293.34,-172.85 293.34,-174.95"/>
</g>
<!-- SR5C1 -->
<!-- SR4C1&#45;&gt;SR5C1 -->
<!-- SR4C2 -->
<g id="node8" class="node">
<title>SR4C2</title>
<polygon fill="none" stroke="gray" points="381.88,-137.52 298.12,-137.52 298.12,-80.76 381.88,-80.76 381.88,-137.52"/>
<text text-anchor="start" x="337" y="-125.14" font-family="Menlo" font-size="10.00">L</text>
<text text-anchor="start" x="325" y="-112.39" font-family="Menlo" font-size="10.00">T &quot;c&quot;</text>
<text text-anchor="start" x="316" y="-99.64" font-family="Menlo" font-size="10.00">fi [&quot;c&quot;]</text>
<text text-anchor="start" x="301" y="-86.89" font-family="Menlo" font-size="10.00">fo [&quot;$&quot;, &quot;c&quot;]</text>
</g>
<!-- SR3C2&#45;&gt;SR4C2 -->
<g id="edge3" class="edge">
<title>SR3C2&#45;&gt;SR4C2</title>
<path fill="none" stroke="gray" d="M340,-145.19C340,-144.1 340,-143 340,-141.9"/>
<polygon fill="gray" stroke="gray" points="341.05,-142.19 340,-139.19 338.95,-142.19 341.05,-142.19"/>
</g>
<!-- SR5C2 -->
<g id="node9" class="node">
<title>SR5C2</title>
<polygon fill="none" stroke="gray" points="381.88,-72.76 298.12,-72.76 298.12,-16 381.88,-16 381.88,-72.76"/>
<text text-anchor="start" x="337" y="-60.38" font-family="Menlo" font-size="10.00">M</text>
<text text-anchor="start" x="328" y="-47.63" font-family="Menlo" font-size="10.00">END </text>
<text text-anchor="start" x="319" y="-34.88" font-family="Menlo" font-size="10.00">fi [&quot;&quot;]</text>
<text text-anchor="start" x="301" y="-22.13" font-family="Menlo" font-size="10.00">fo [&quot;$&quot;, &quot;c&quot;]</text>
</g>
<!-- SR4C2&#45;&gt;SR5C2 -->
<g id="edge2" class="edge">
<title>SR4C2&#45;&gt;SR5C2</title>
<path fill="none" stroke="gray" d="M340,-80.43C340,-79.34 340,-78.24 340,-77.14"/>
<polygon fill="gray" stroke="gray" points="341.05,-77.43 340,-74.43 338.95,-77.43 341.05,-77.43"/>
</g>
<!-- SR5C3 -->
<!-- SR5C2&#45;&gt;SR5C3 -->
<!-- SR3C3 -->
<g id="node11" class="node">
<title>SR3C3</title>
<polygon fill="none" stroke="gray" points="513.88,-202.28 400.12,-202.28 400.12,-145.52 513.88,-145.52 513.88,-202.28"/>
<text text-anchor="start" x="454" y="-189.9" font-family="Menlo" font-size="10.00">H</text>
<text text-anchor="start" x="442" y="-177.15" font-family="Menlo" font-size="10.00">T &quot;b&quot;</text>
<text text-anchor="start" x="433" y="-164.4" font-family="Menlo" font-size="10.00">fi [&quot;b&quot;]</text>
<text text-anchor="start" x="403" y="-151.65" font-family="Menlo" font-size="10.00">fo [&quot;$&quot;, &quot;b&quot;, &quot;c&quot;]</text>
</g>
<!-- SR2C3&#45;&gt;SR3C3 -->
<g id="edge7" class="edge">
<title>SR2C3&#45;&gt;SR3C3</title>
<path fill="none" stroke="gray" d="M457,-209.95C457,-208.86 457,-207.76 457,-206.66"/>
<polygon fill="gray" stroke="gray" points="458.05,-206.95 457,-203.95 455.95,-206.95 458.05,-206.95"/>
</g>
<!-- SR4C3 -->
<g id="node12" class="node">
<title>SR4C3</title>
<polygon fill="none" stroke="gray" points="513.88,-137.52 400.12,-137.52 400.12,-80.76 513.88,-80.76 513.88,-137.52"/>
<text text-anchor="start" x="454" y="-125.14" font-family="Menlo" font-size="10.00">I</text>
<text text-anchor="start" x="445" y="-112.39" font-family="Menlo" font-size="10.00">END </text>
<text text-anchor="start" x="436" y="-99.64" font-family="Menlo" font-size="10.00">fi [&quot;&quot;]</text>
<text text-anchor="start" x="403" y="-86.89" font-family="Menlo" font-size="10.00">fo [&quot;$&quot;, &quot;b&quot;, &quot;c&quot;]</text>
</g>
<!-- SR3C3&#45;&gt;SR4C3 -->
<g id="edge6" class="edge">
<title>SR3C3&#45;&gt;SR4C3</title>
<path fill="none" stroke="gray" d="M457,-145.19C457,-144.1 457,-143 457,-141.9"/>
<polygon fill="gray" stroke="gray" points="458.05,-142.19 457,-139.19 455.95,-142.19 458.05,-142.19"/>
</g>
<!-- SR4C4 -->
<!-- SR4C3&#45;&gt;SR4C4 -->
<!-- SR4C3&#45;&gt;SR5C3 -->
<!-- SR2C4 -->
<g id="node14" class="node">
<title>SR2C4</title>
<polygon fill="none" stroke="gray" points="675.88,-267.04 532.12,-267.04 532.12,-210.28 675.88,-210.28 675.88,-267.04"/>
<text text-anchor="start" x="601" y="-254.66" font-family="Menlo" font-size="10.00">D</text>
<text text-anchor="start" x="589" y="-241.91" font-family="Menlo" font-size="10.00">T &quot;a&quot;</text>
<text text-anchor="start" x="580" y="-229.16" font-family="Menlo" font-size="10.00">fi [&quot;a&quot;]</text>
<text text-anchor="start" x="535" y="-216.41" font-family="Menlo" font-size="10.00">fo [&quot;$&quot;, &quot;a&quot;, &quot;b&quot;, &quot;c&quot;]</text>
</g>
<!-- SR1C4&#45;&gt;SR2C4 -->
<g id="edge11" class="edge">
<title>SR1C4&#45;&gt;SR2C4</title>
<path fill="none" stroke="gray" d="M604,-274.71C604,-273.62 604,-272.52 604,-271.42"/>
<polygon fill="gray" stroke="gray" points="605.05,-271.71 604,-268.71 602.95,-271.71 605.05,-271.71"/>
</g>
<!-- SR3C4 -->
<g id="node15" class="node">
<title>SR3C4</title>
<polygon fill="none" stroke="gray" points="675.88,-202.28 532.12,-202.28 532.12,-145.52 675.88,-145.52 675.88,-202.28"/>
<text text-anchor="start" x="601" y="-189.9" font-family="Menlo" font-size="10.00">E</text>
<text text-anchor="start" x="592" y="-177.15" font-family="Menlo" font-size="10.00">END </text>
<text text-anchor="start" x="583" y="-164.4" font-family="Menlo" font-size="10.00">fi [&quot;&quot;]</text>
<text text-anchor="start" x="535" y="-151.65" font-family="Menlo" font-size="10.00">fo [&quot;$&quot;, &quot;a&quot;, &quot;b&quot;, &quot;c&quot;]</text>
</g>
<!-- SR2C4&#45;&gt;SR3C4 -->
<g id="edge10" class="edge">
<title>SR2C4&#45;&gt;SR3C4</title>
<path fill="none" stroke="gray" d="M604,-209.95C604,-208.86 604,-207.76 604,-206.66"/>
<polygon fill="gray" stroke="gray" points="605.05,-206.95 604,-203.95 602.95,-206.95 605.05,-206.95"/>
</g>
<!-- SR3C4&#45;&gt;SR4C4 -->
<!-- SR0C3 -->
<!-- SR0C2&#45;&gt;SR0C3 -->
<!-- SR0C4 -->
<!-- SR0C3&#45;&gt;SR0C4 -->
<!-- SR0C4&#45;&gt;SR1C4 -->
<!-- SR1C0&#45;&gt;SR1C1 -->
<!-- SR2C0 -->
<!-- SR1C0&#45;&gt;SR2C0 -->
<!-- SR2C0&#45;&gt;SR2C1 -->
<!-- SR3C0 -->
<!-- SR2C0&#45;&gt;SR3C0 -->
<!-- SR3C0&#45;&gt;SR3C1 -->
<!-- SR4C0 -->
<!-- SR3C0&#45;&gt;SR4C0 -->
<!-- SR4C0&#45;&gt;SR4C1 -->
<!-- SR5C0 -->
<!-- SR4C0&#45;&gt;SR5C0 -->
<!-- SR5C4 -->
<!-- SR4C4&#45;&gt;SR5C4 -->
<!-- SR5C0&#45;&gt;SR5C1 -->
<!-- SR5C1&#45;&gt;SR5C2 -->
<!-- SR5C3&#45;&gt;SR5C4 -->
</g>
</svg>
