<?xml version="1.0" encoding="UTF-8" standalone="no"?>
<!DOCTYPE svg PUBLIC "-//W3C//DTD SVG 1.1//EN"
 "http://www.w3.org/Graphics/SVG/1.1/DTD/svg11.dtd">
<!-- Generated by graphviz version 9.0.0 (20230911.1827)
 -->
<!-- Title: G Pages: 1 -->
<svg width="166pt" height="247pt"
 viewBox="0.00 0.00 166.00 247.03" xmlns="http://www.w3.org/2000/svg" xmlns:xlink="http://www.w3.org/1999/xlink">
<g id="graph0" class="graph" transform="scale(1 1) rotate(0) translate(4 243.03)">
<title>G</title>
<polygon fill="white" stroke="none" points="-4,4 -4,-243.03 162,-243.03 162,4 -4,4"/>
<g id="clust2" class="cluster">
<title>clusterS</title>
<polygon fill="none" stroke="black" points="8,-8 8,-231.03 150,-231.03 150,-8 8,-8"/>
<text text-anchor="start" x="16" y="-217.53" font-family="Menlo" font-size="10.00">S = &quot;a&quot; .</text>
</g>
<!-- SR0C0 -->
<g id="node1" class="node">
<title>SR0C0</title>
<polygon fill="none" stroke="gray" points="69.88,-202.28 16.12,-202.28 16.12,-145.52 69.88,-145.52 69.88,-202.28"/>
<text text-anchor="start" x="40" y="-189.9" font-family="Menlo" font-size="10.00">0</text>
<text text-anchor="start" x="34" y="-177.15" font-family="Menlo" font-size="10.00">N S</text>
<text text-anchor="start" x="19" y="-164.4" font-family="Menlo" font-size="10.00">fi [&quot;a&quot;]</text>
<text text-anchor="start" x="19" y="-151.65" font-family="Menlo" font-size="10.00">fo [&quot;$&quot;]</text>
</g>
<!-- SR0C1 -->
<g id="node2" class="node">
<title>SR0C1</title>
<polygon fill="none" stroke="gray" points="141.88,-202.28 88.12,-202.28 88.12,-145.52 141.88,-145.52 141.88,-202.28"/>
<text text-anchor="start" x="112" y="-189.9" font-family="Menlo" font-size="10.00">1</text>
<text text-anchor="start" x="103" y="-177.15" font-family="Menlo" font-size="10.00">ALT </text>
<text text-anchor="start" x="91" y="-164.4" font-family="Menlo" font-size="10.00">fi [&quot;a&quot;]</text>
<text text-anchor="start" x="91" y="-151.65" font-family="Menlo" font-size="10.00">fo [&quot;$&quot;]</text>
</g>
<!-- SR0C0&#45;&gt;SR0C1 -->
<g id="edge3" class="edge">
<title>SR0C0&#45;&gt;SR0C1</title>
<path fill="none" stroke="gray" d="M70.28,-173.9C74.65,-173.9 79.02,-173.9 83.38,-173.9"/>
<polygon fill="gray" stroke="gray" points="83.24,-174.95 86.24,-173.9 83.24,-172.85 83.24,-174.95"/>
</g>
<!-- SR1C0 -->
<!-- SR0C0&#45;&gt;SR1C0 -->
<!-- SR1C1 -->
<g id="node3" class="node">
<title>SR1C1</title>
<polygon fill="none" stroke="gray" points="141.88,-137.52 88.12,-137.52 88.12,-80.76 141.88,-80.76 141.88,-137.52"/>
<text text-anchor="start" x="112" y="-125.14" font-family="Menlo" font-size="10.00">2</text>
<text text-anchor="start" x="100" y="-112.39" font-family="Menlo" font-size="10.00">T &quot;a&quot;</text>
<text text-anchor="start" x="91" y="-99.64" font-family="Menlo" font-size="10.00">fi [&quot;a&quot;]</text>
<text text-anchor="start" x="91" y="-86.89" font-family="Menlo" font-size="10.00">fo [&quot;$&quot;]</text>
</g>
<!-- SR0C1&#45;&gt;SR1C1 -->
<g id="edge2" class="edge">
<title>SR0C1&#45;&gt;SR1C1</title>
<path fill="none" stroke="gray" d="M115,-145.19C115,-144.1 115,-143 115,-141.9"/>
<polygon fill="gray" stroke="gray" points="116.05,-142.19 115,-139.19 113.95,-142.19 116.05,-142.19"/>
</g>
<!-- SR2C1 -->
<g id="node4" class="node">
<title>SR2C1</title>
<polygon fill="none" stroke="gray" points="141.88,-72.76 88.12,-72.76 88.12,-16 141.88,-16 141.88,-72.76"/>
<text text-anchor="start" x="112" y="-60.38" font-family="Menlo" font-size="10.00">3</text>
<text text-anchor="start" x="103" y="-47.63" font-family="Menlo" font-size="10.00">END </text>
<text text-anchor="start" x="94" y="-34.88" font-family="Menlo" font-size="10.00">fi [&quot;&quot;]</text>
<text text-anchor="start" x="91" y="-22.13" font-family="Menlo" font-size="10.00">fo [&quot;$&quot;]</text>
</g>
<!-- SR1C1&#45;&gt;SR2C1 -->
<g id="edge1" class="edge">
<title>SR1C1&#45;&gt;SR2C1</title>
<path fill="none" stroke="gray" d="M115,-80.43C115,-79.34 115,-78.24 115,-77.14"/>
<polygon fill="gray" stroke="gray" points="116.05,-77.43 115,-74.43 113.95,-77.43 116.05,-77.43"/>
</g>
<!-- SR1C0&#45;&gt;SR1C1 -->
<!-- SR2C0 -->
<!-- SR1C0&#45;&gt;SR2C0 -->
<!-- SR2C0&#45;&gt;SR2C1 -->
</g>
</svg>
