<?xml version="1.0" encoding="UTF-8" standalone="no"?>
<!DOCTYPE svg PUBLIC "-//W3C//DTD SVG 1.1//EN"
 "http://www.w3.org/Graphics/SVG/1.1/DTD/svg11.dtd">
<!-- Generated by graphviz version 9.0.0 (20230911.1827)
 -->
<!-- Title: G Pages: 1 -->
<svg width="1546pt" height="456pt"
 viewBox="0.00 0.00 1546.00 456.30" xmlns="http://www.w3.org/2000/svg" xmlns:xlink="http://www.w3.org/1999/xlink">
<g id="graph0" class="graph" transform="scale(1 1) rotate(0) translate(4 452.3)">
<title>G</title>
<polygon fill="white" stroke="none" points="-4,4 -4,-452.3 1542,-452.3 1542,4 -4,4"/>
<g id="clust1" class="cluster">
<title>CallReturnForest</title>
<polygon fill="none" stroke="black" points="8,-282.03 8,-417.43 180,-417.43 180,-282.03 8,-282.03"/>
<text text-anchor="start" x="16" y="-403.93" font-family="Menlo" font-size="10.00" fill="green">↵abc↵</text>
</g>
<g id="clust2" class="cluster">
<title>clusterS</title>
<polygon fill="none" stroke="black" points="188,-8 188,-440.3 552,-440.3 552,-8 188,-8"/>
<text text-anchor="start" x="196" y="-426.8" font-family="Menlo" font-size="10.00">S = &quot;a&quot; A B | &quot;a&quot; A &quot;b&quot; .</text>
</g>
<g id="clust9" class="cluster">
<title>clusterA</title>
<polygon fill="none" stroke="black" points="560,-179.02 560,-440.3 1086,-440.3 1086,-179.02 560,-179.02"/>
<text text-anchor="start" x="568" y="-426.8" font-family="Menlo" font-size="10.00">A = &quot;a&quot; | &quot;c&quot; | ε .</text>
</g>
<g id="clust15" class="cluster">
<title>clusterB</title>
<polygon fill="none" stroke="black" points="1094,-93.51 1094,-440.3 1530,-440.3 1530,-93.51 1094,-93.51"/>
<text text-anchor="start" x="1102" y="-426.8" font-family="Menlo" font-size="10.00">B = &quot;b&quot; | B &quot;c&quot; | ε .</text>
</g>
<!-- 0.0 -->
<g id="node1" class="node">
<title>0.0</title>
<path fill="none" stroke="gray" d="M162.96,-388.68C162.96,-388.68 155.04,-388.68 155.04,-388.68 151.08,-388.68 147.12,-384.72 147.12,-380.75 147.12,-380.75 147.12,-372.84 147.12,-372.84 147.12,-368.88 151.08,-364.92 155.04,-364.92 155.04,-364.92 162.96,-364.92 162.96,-364.92 166.92,-364.92 170.88,-368.88 170.88,-372.84 170.88,-372.84 170.88,-380.75 170.88,-380.75 170.88,-384.72 166.92,-388.68 162.96,-388.68"/>
<text text-anchor="start" x="150" y="-377.3" font-family="Menlo" font-size="10.00">S,0</text>
<text text-anchor="start" x="154.5" y="-369.19" font-family="Menlo" font-size="8.00" fill="gray"> 3</text>
</g>
<!-- 11.1 -->
<g id="node2" class="node">
<title>11.1</title>
<path fill="none" stroke="gray" d="M119.21,-388.68C119.21,-388.68 106.79,-388.68 106.79,-388.68 102.83,-388.68 98.87,-384.72 98.87,-380.75 98.87,-380.75 98.87,-372.84 98.87,-372.84 98.87,-368.88 102.83,-364.92 106.79,-364.92 106.79,-364.92 119.21,-364.92 119.21,-364.92 123.17,-364.92 127.13,-368.88 127.13,-372.84 127.13,-372.84 127.13,-380.75 127.13,-380.75 127.13,-384.72 123.17,-388.68 119.21,-388.68"/>
<text text-anchor="start" x="104" y="-377.3" font-family="Menlo" font-size="10.00">B,1</text>
<text text-anchor="start" x="101.75" y="-369.19" font-family="Menlo" font-size="8.00" fill="gray"> 2, 3</text>
</g>
<!-- 4.0 -->
<g id="node3" class="node">
<title>4.0</title>
<path fill="none" stroke="gray" d="M117.71,-308.54C117.71,-308.54 106.29,-308.54 106.29,-308.54 103.2,-308.54 100.12,-305.46 100.12,-302.37 100.12,-302.37 100.12,-296.2 100.12,-296.2 100.12,-293.12 103.2,-290.03 106.29,-290.03 106.29,-290.03 117.71,-290.03 117.71,-290.03 120.8,-290.03 123.88,-293.12 123.88,-296.2 123.88,-296.2 123.88,-302.37 123.88,-302.37 123.88,-305.46 120.8,-308.54 117.71,-308.54"/>
<text text-anchor="middle" x="112" y="-296.16" font-family="Menlo" font-size="10.00">4.0</text>
</g>
<!-- 11.1&#45;&gt;4.0 -->
<g id="edge1" class="edge">
<title>11.1&#45;&gt;4.0</title>
<path fill="none" stroke="gray" d="M112.85,-364.65C112.67,-350.82 112.36,-327.3 112.17,-312.84"/>
<polygon fill="gray" stroke="gray" points="113.22,-313.17 112.13,-310.18 111.12,-313.2 113.22,-313.17"/>
</g>
<!-- 16.1 -->
<g id="node4" class="node">
<title>16.1</title>
<path fill="none" stroke="gray" d="M165.71,-308.54C165.71,-308.54 148.29,-308.54 148.29,-308.54 145.21,-308.54 142.12,-305.46 142.12,-302.37 142.12,-302.37 142.12,-296.2 142.12,-296.2 142.12,-293.12 145.21,-290.03 148.29,-290.03 148.29,-290.03 165.71,-290.03 165.71,-290.03 168.79,-290.03 171.88,-293.12 171.88,-296.2 171.88,-296.2 171.88,-302.37 171.88,-302.37 171.88,-305.46 168.79,-308.54 165.71,-308.54"/>
<text text-anchor="middle" x="157" y="-296.16" font-family="Menlo" font-size="10.00">16.1</text>
</g>
<!-- 11.1&#45;&gt;16.1 -->
<g id="edge2" class="edge">
<title>11.1&#45;&gt;16.1</title>
<path fill="none" stroke="gray" d="M119.49,-364.65C127.62,-350.7 141.5,-326.89 149.9,-312.47"/>
<polygon fill="gray" stroke="gray" points="150.75,-313.1 151.35,-309.98 148.94,-312.04 150.75,-313.1"/>
</g>
<!-- 22.1 -->
<g id="node5" class="node">
<title>22.1</title>
<path fill="none" stroke="gray" d="M52.96,-388.68C52.96,-388.68 45.04,-388.68 45.04,-388.68 41.08,-388.68 37.12,-384.72 37.12,-380.75 37.12,-380.75 37.12,-372.84 37.12,-372.84 37.12,-368.88 41.08,-364.92 45.04,-364.92 45.04,-364.92 52.96,-364.92 52.96,-364.92 56.92,-364.92 60.88,-368.88 60.88,-372.84 60.88,-372.84 60.88,-380.75 60.88,-380.75 60.88,-384.72 56.92,-388.68 52.96,-388.68"/>
<text text-anchor="start" x="40" y="-377.3" font-family="Menlo" font-size="10.00">A,1</text>
<text text-anchor="start" x="44.5" y="-369.19" font-family="Menlo" font-size="8.00" fill="gray"> 1</text>
</g>
<!-- 8.0 -->
<g id="node6" class="node">
<title>8.0</title>
<path fill="none" stroke="gray" d="M33.71,-308.54C33.71,-308.54 22.29,-308.54 22.29,-308.54 19.2,-308.54 16.12,-305.46 16.12,-302.37 16.12,-302.37 16.12,-296.2 16.12,-296.2 16.12,-293.12 19.2,-290.03 22.29,-290.03 22.29,-290.03 33.71,-290.03 33.71,-290.03 36.8,-290.03 39.88,-293.12 39.88,-296.2 39.88,-296.2 39.88,-302.37 39.88,-302.37 39.88,-305.46 36.79,-308.54 33.71,-308.54"/>
<text text-anchor="middle" x="28" y="-296.16" font-family="Menlo" font-size="10.00">8.0</text>
</g>
<!-- 22.1&#45;&gt;8.0 -->
<g id="edge3" class="edge">
<title>22.1&#45;&gt;8.0</title>
<path fill="none" stroke="gray" d="M45.9,-364.65C42.06,-350.82 35.51,-327.3 31.49,-312.84"/>
<polygon fill="gray" stroke="gray" points="32.55,-312.74 30.74,-310.13 30.53,-313.3 32.55,-312.74"/>
</g>
<!-- 3.0 -->
<g id="node7" class="node">
<title>3.0</title>
<path fill="none" stroke="gray" d="M75.71,-308.54C75.71,-308.54 64.29,-308.54 64.29,-308.54 61.21,-308.54 58.12,-305.46 58.12,-302.37 58.12,-302.37 58.12,-296.2 58.12,-296.2 58.12,-293.12 61.21,-290.03 64.29,-290.03 64.29,-290.03 75.71,-290.03 75.71,-290.03 78.8,-290.03 81.88,-293.12 81.88,-296.2 81.88,-296.2 81.88,-302.37 81.88,-302.37 81.88,-305.46 78.8,-308.54 75.71,-308.54"/>
<text text-anchor="middle" x="70" y="-296.16" font-family="Menlo" font-size="10.00">3.0</text>
</g>
<!-- 22.1&#45;&gt;3.0 -->
<g id="edge4" class="edge">
<title>22.1&#45;&gt;3.0</title>
<path fill="none" stroke="gray" d="M52.1,-364.65C55.94,-350.82 62.49,-327.3 66.51,-312.84"/>
<polygon fill="gray" stroke="gray" points="67.47,-313.3 67.26,-310.13 65.45,-312.74 67.47,-313.3"/>
</g>
<!-- SR0C0 -->
<g id="node8" class="node">
<title>SR0C0</title>
<polygon fill="none" stroke="gray" points="249.88,-411.55 196.12,-411.55 196.12,-342.04 249.88,-342.04 249.88,-411.55"/>
<text text-anchor="start" x="220" y="-399.17" font-family="Menlo" font-size="10.00">0</text>
<text text-anchor="start" x="214" y="-386.42" font-family="Menlo" font-size="10.00">N S</text>
<text text-anchor="start" x="199" y="-373.67" font-family="Menlo" font-size="10.00">fi [&quot;a&quot;]</text>
<text text-anchor="start" x="199" y="-360.92" font-family="Menlo" font-size="10.00">fo [&quot;$&quot;]</text>
<text text-anchor="start" x="202" y="-348.17" font-family="Menlo" font-size="10.00">[0:0:3]</text>
</g>
<!-- SR0C1 -->
<g id="node9" class="node">
<title>SR0C1</title>
<polygon fill="none" stroke="gray" points="411.88,-411.55 268.12,-411.55 268.12,-342.04 411.88,-342.04 411.88,-411.55"/>
<text text-anchor="start" x="337" y="-399.17" font-family="Menlo" font-size="10.00">1</text>
<text text-anchor="start" x="328" y="-386.42" font-family="Menlo" font-size="10.00">ALT </text>
<text text-anchor="start" x="316" y="-373.67" font-family="Menlo" font-size="10.00">fi [&quot;a&quot;]</text>
<text text-anchor="start" x="271" y="-360.92" font-family="Menlo" font-size="10.00">fo [&quot;$&quot;, &quot;a&quot;, &quot;b&quot;, &quot;c&quot;]</text>
<text text-anchor="start" x="334" y="-348.17" font-family="Menlo" font-size="10.00">[]</text>
</g>
<!-- SR0C0&#45;&gt;SR0C1 -->
<g id="edge14" class="edge">
<title>SR0C0&#45;&gt;SR0C1</title>
<path fill="none" stroke="gray" d="M249.96,-376.8C254.45,-376.8 258.93,-376.8 263.42,-376.8"/>
<polygon fill="gray" stroke="gray" points="263.39,-377.85 266.39,-376.8 263.39,-375.75 263.39,-377.85"/>
</g>
<!-- SR1C0 -->
<!-- SR0C0&#45;&gt;SR1C0 -->
<!-- SR1C1 -->
<g id="node10" class="node">
<title>SR1C1</title>
<polygon fill="none" stroke="gray" points="411.88,-334.04 268.12,-334.04 268.12,-264.53 411.88,-264.53 411.88,-334.04"/>
<text text-anchor="start" x="337" y="-321.66" font-family="Menlo" font-size="10.00">2</text>
<text text-anchor="start" x="325" y="-308.91" font-family="Menlo" font-size="10.00">T &quot;a&quot;</text>
<text text-anchor="start" x="316" y="-296.16" font-family="Menlo" font-size="10.00">fi [&quot;a&quot;]</text>
<text text-anchor="start" x="271" y="-283.41" font-family="Menlo" font-size="10.00">fo [&quot;$&quot;, &quot;a&quot;, &quot;b&quot;, &quot;c&quot;]</text>
<text text-anchor="start" x="319" y="-270.66" font-family="Menlo" font-size="10.00">[0:0:1]</text>
</g>
<!-- SR0C1&#45;&gt;SR1C1 -->
<g id="edge8" class="edge">
<title>SR0C1&#45;&gt;SR1C1</title>
<path fill="none" stroke="gray" d="M340,-341.57C340,-340.7 340,-339.82 340,-338.94"/>
<polygon fill="gray" stroke="gray" points="341.05,-339.05 340,-336.05 338.95,-339.05 341.05,-339.05"/>
</g>
<!-- SR0C2 -->
<g id="node14" class="node">
<title>SR0C2</title>
<polygon fill="none" stroke="gray" points="543.88,-411.55 430.12,-411.55 430.12,-342.04 543.88,-342.04 543.88,-411.55"/>
<text text-anchor="start" x="484" y="-399.17" font-family="Menlo" font-size="10.00">6</text>
<text text-anchor="start" x="475" y="-386.42" font-family="Menlo" font-size="10.00">ALT </text>
<text text-anchor="start" x="463" y="-373.67" font-family="Menlo" font-size="10.00">fi [&quot;a&quot;]</text>
<text text-anchor="start" x="433" y="-360.92" font-family="Menlo" font-size="10.00">fo [&quot;a&quot;, &quot;b&quot;, &quot;c&quot;]</text>
<text text-anchor="start" x="481" y="-348.17" font-family="Menlo" font-size="10.00">[]</text>
</g>
<!-- SR0C1&#45;&gt;SR0C2 -->
<g id="edge13" class="edge">
<title>SR0C1&#45;&gt;SR0C2</title>
<path fill="none" stroke="gray" d="M412.35,-376.8C416.73,-376.8 421.1,-376.8 425.47,-376.8"/>
<polygon fill="gray" stroke="gray" points="425.33,-377.85 428.33,-376.8 425.33,-375.75 425.33,-377.85"/>
</g>
<!-- SR2C1 -->
<g id="node11" class="node">
<title>SR2C1</title>
<polygon fill="none" stroke="gray" points="408.88,-256.53 271.12,-256.53 271.12,-187.02 408.88,-187.02 408.88,-256.53"/>
<text text-anchor="start" x="337" y="-244.15" font-family="Menlo" font-size="10.00">3</text>
<text text-anchor="start" x="331" y="-231.4" font-family="Menlo" font-size="10.00">N A</text>
<text text-anchor="start" x="274" y="-218.65" font-family="Menlo" font-size="10.00">fi [&quot;&quot;, &quot;a&quot;, &quot;b&quot;, &quot;c&quot;]</text>
<text text-anchor="start" x="286" y="-205.9" font-family="Menlo" font-size="10.00">fo [&quot;$&quot;, &quot;b&quot;, &quot;c&quot;]</text>
<text text-anchor="start" x="319" y="-193.15" font-family="Menlo" font-size="10.00">[0:1:1]</text>
</g>
<!-- SR1C1&#45;&gt;SR2C1 -->
<g id="edge7" class="edge">
<title>SR1C1&#45;&gt;SR2C1</title>
<path fill="none" stroke="gray" d="M340,-264.06C340,-263.19 340,-262.31 340,-261.43"/>
<polygon fill="gray" stroke="gray" points="341.05,-261.54 340,-258.54 338.95,-261.54 341.05,-261.54"/>
</g>
<!-- SR3C1 -->
<g id="node12" class="node">
<title>SR3C1</title>
<polygon fill="none" stroke="gray" points="393.88,-171.02 286.12,-171.02 286.12,-101.51 393.88,-101.51 393.88,-171.02"/>
<text text-anchor="start" x="337" y="-158.64" font-family="Menlo" font-size="10.00">4</text>
<text text-anchor="start" x="331" y="-145.89" font-family="Menlo" font-size="10.00">N B</text>
<text text-anchor="start" x="289" y="-133.14" font-family="Menlo" font-size="10.00">fi [&quot;&quot;, &quot;b&quot;, &quot;c&quot;]</text>
<text text-anchor="start" x="316" y="-120.39" font-family="Menlo" font-size="10.00">fo [&quot;$&quot;]</text>
<text text-anchor="start" x="298" y="-107.64" font-family="Menlo" font-size="10.00">[0:1:2, 0:1:3]</text>
</g>
<!-- SR2C1&#45;&gt;SR3C1 -->
<g id="edge6" class="edge">
<title>SR2C1&#45;&gt;SR3C1</title>
<path fill="none" stroke="gray" d="M340,-186.81C340,-183.17 340,-179.46 340,-175.77"/>
<polygon fill="gray" stroke="gray" points="341.05,-175.99 340,-172.99 338.95,-175.99 341.05,-175.99"/>
</g>
<!-- SR4C1 -->
<g id="node13" class="node">
<title>SR4C1</title>
<polygon fill="none" stroke="gray" points="366.88,-85.51 313.12,-85.51 313.12,-16 366.88,-16 366.88,-85.51"/>
<text text-anchor="start" x="337" y="-73.13" font-family="Menlo" font-size="10.00">5</text>
<text text-anchor="start" x="328" y="-60.38" font-family="Menlo" font-size="10.00">END </text>
<text text-anchor="start" x="319" y="-47.63" font-family="Menlo" font-size="10.00">fi [&quot;&quot;]</text>
<text text-anchor="start" x="316" y="-34.88" font-family="Menlo" font-size="10.00">fo [&quot;$&quot;]</text>
<text text-anchor="start" x="334" y="-22.13" font-family="Menlo" font-size="10.00">[]</text>
</g>
<!-- SR3C1&#45;&gt;SR4C1 -->
<g id="edge5" class="edge">
<title>SR3C1&#45;&gt;SR4C1</title>
<path fill="none" stroke="gray" d="M340,-101.3C340,-97.66 340,-93.95 340,-90.26"/>
<polygon fill="gray" stroke="gray" points="341.05,-90.48 340,-87.48 338.95,-90.48 341.05,-90.48"/>
</g>
<!-- SR1C2 -->
<g id="node15" class="node">
<title>SR1C2</title>
<polygon fill="none" stroke="gray" points="543.88,-334.04 430.12,-334.04 430.12,-264.53 543.88,-264.53 543.88,-334.04"/>
<text text-anchor="start" x="484" y="-321.66" font-family="Menlo" font-size="10.00">7</text>
<text text-anchor="start" x="472" y="-308.91" font-family="Menlo" font-size="10.00">T &quot;a&quot;</text>
<text text-anchor="start" x="463" y="-296.16" font-family="Menlo" font-size="10.00">fi [&quot;a&quot;]</text>
<text text-anchor="start" x="433" y="-283.41" font-family="Menlo" font-size="10.00">fo [&quot;a&quot;, &quot;b&quot;, &quot;c&quot;]</text>
<text text-anchor="start" x="466" y="-270.66" font-family="Menlo" font-size="10.00">[0:0:1]</text>
</g>
<!-- SR0C2&#45;&gt;SR1C2 -->
<g id="edge12" class="edge">
<title>SR0C2&#45;&gt;SR1C2</title>
<path fill="none" stroke="gray" d="M487,-341.57C487,-340.7 487,-339.82 487,-338.94"/>
<polygon fill="gray" stroke="gray" points="488.05,-339.05 487,-336.05 485.95,-339.05 488.05,-339.05"/>
</g>
<!-- SR2C2 -->
<g id="node16" class="node">
<title>SR2C2</title>
<polygon fill="none" stroke="gray" points="543.88,-256.53 430.12,-256.53 430.12,-187.02 543.88,-187.02 543.88,-256.53"/>
<text text-anchor="start" x="484" y="-244.15" font-family="Menlo" font-size="10.00">8</text>
<text text-anchor="start" x="478" y="-231.4" font-family="Menlo" font-size="10.00">N A</text>
<text text-anchor="start" x="433" y="-218.65" font-family="Menlo" font-size="10.00">fi [&quot;a&quot;, &quot;b&quot;, &quot;c&quot;]</text>
<text text-anchor="start" x="463" y="-205.9" font-family="Menlo" font-size="10.00">fo [&quot;b&quot;]</text>
<text text-anchor="start" x="466" y="-193.15" font-family="Menlo" font-size="10.00">[0:1:1]</text>
</g>
<!-- SR1C2&#45;&gt;SR2C2 -->
<g id="edge11" class="edge">
<title>SR1C2&#45;&gt;SR2C2</title>
<path fill="none" stroke="gray" d="M487,-264.06C487,-263.19 487,-262.31 487,-261.43"/>
<polygon fill="gray" stroke="gray" points="488.05,-261.54 487,-258.54 485.95,-261.54 488.05,-261.54"/>
</g>
<!-- SR3C2 -->
<g id="node17" class="node">
<title>SR3C2</title>
<polygon fill="none" stroke="gray" points="513.88,-171.02 460.12,-171.02 460.12,-101.51 513.88,-101.51 513.88,-171.02"/>
<text text-anchor="start" x="484" y="-158.64" font-family="Menlo" font-size="10.00">9</text>
<text text-anchor="start" x="472" y="-145.89" font-family="Menlo" font-size="10.00">T &quot;b&quot;</text>
<text text-anchor="start" x="463" y="-133.14" font-family="Menlo" font-size="10.00">fi [&quot;b&quot;]</text>
<text text-anchor="start" x="463" y="-120.39" font-family="Menlo" font-size="10.00">fo [&quot;$&quot;]</text>
<text text-anchor="start" x="466" y="-107.64" font-family="Menlo" font-size="10.00">[0:1:2]</text>
</g>
<!-- SR2C2&#45;&gt;SR3C2 -->
<g id="edge10" class="edge">
<title>SR2C2&#45;&gt;SR3C2</title>
<path fill="none" stroke="gray" d="M487,-186.81C487,-183.17 487,-179.46 487,-175.77"/>
<polygon fill="gray" stroke="gray" points="488.05,-175.99 487,-172.99 485.95,-175.99 488.05,-175.99"/>
</g>
<!-- SR4C2 -->
<g id="node18" class="node">
<title>SR4C2</title>
<polygon fill="none" stroke="gray" points="513.88,-85.51 460.12,-85.51 460.12,-16 513.88,-16 513.88,-85.51"/>
<text text-anchor="start" x="481" y="-73.13" font-family="Menlo" font-size="10.00">10</text>
<text text-anchor="start" x="475" y="-60.38" font-family="Menlo" font-size="10.00">END </text>
<text text-anchor="start" x="466" y="-47.63" font-family="Menlo" font-size="10.00">fi [&quot;&quot;]</text>
<text text-anchor="start" x="463" y="-34.88" font-family="Menlo" font-size="10.00">fo [&quot;$&quot;]</text>
<text text-anchor="start" x="481" y="-22.13" font-family="Menlo" font-size="10.00">[]</text>
</g>
<!-- SR3C2&#45;&gt;SR4C2 -->
<g id="edge9" class="edge">
<title>SR3C2&#45;&gt;SR4C2</title>
<path fill="none" stroke="gray" d="M487,-101.3C487,-97.66 487,-93.95 487,-90.26"/>
<polygon fill="gray" stroke="gray" points="488.05,-90.48 487,-87.48 485.95,-90.48 488.05,-90.48"/>
</g>
<!-- SR1C0&#45;&gt;SR1C1 -->
<!-- SR2C0 -->
<!-- SR1C0&#45;&gt;SR2C0 -->
<!-- SR2C0&#45;&gt;SR2C1 -->
<!-- SR3C0 -->
<!-- SR2C0&#45;&gt;SR3C0 -->
<!-- SR3C0&#45;&gt;SR3C1 -->
<!-- SR4C0 -->
<!-- SR3C0&#45;&gt;SR4C0 -->
<!-- SR4C0&#45;&gt;SR4C1 -->
<!-- AR0C0 -->
<g id="node23" class="node">
<title>AR0C0</title>
<polygon fill="none" stroke="gray" points="681.88,-411.55 568.12,-411.55 568.12,-342.04 681.88,-342.04 681.88,-411.55"/>
<text text-anchor="start" x="619" y="-399.17" font-family="Menlo" font-size="10.00">22</text>
<text text-anchor="start" x="616" y="-386.42" font-family="Menlo" font-size="10.00">N A</text>
<text text-anchor="start" x="574" y="-373.67" font-family="Menlo" font-size="10.00">fi [&quot;&quot;, &quot;a&quot;, &quot;c&quot;]</text>
<text text-anchor="start" x="571" y="-360.92" font-family="Menlo" font-size="10.00">fo [&quot;$&quot;, &quot;b&quot;, &quot;c&quot;]</text>
<text text-anchor="start" x="604" y="-348.17" font-family="Menlo" font-size="10.00">[1:1:1]</text>
</g>
<!-- AR0C1 -->
<g id="node24" class="node">
<title>AR0C1</title>
<polygon fill="none" stroke="gray" points="813.88,-411.55 700.12,-411.55 700.12,-342.04 813.88,-342.04 813.88,-411.55"/>
<text text-anchor="start" x="751" y="-399.17" font-family="Menlo" font-size="10.00">23</text>
<text text-anchor="start" x="745" y="-386.42" font-family="Menlo" font-size="10.00">ALT </text>
<text text-anchor="start" x="733" y="-373.67" font-family="Menlo" font-size="10.00">fi [&quot;a&quot;]</text>
<text text-anchor="start" x="703" y="-360.92" font-family="Menlo" font-size="10.00">fo [&quot;$&quot;, &quot;b&quot;, &quot;c&quot;]</text>
<text text-anchor="start" x="751" y="-348.17" font-family="Menlo" font-size="10.00">[]</text>
</g>
<!-- AR0C0&#45;&gt;AR0C1 -->
<g id="edge31" class="edge">
<title>AR0C0&#45;&gt;AR0C1</title>
<path fill="none" stroke="gray" d="M682.23,-376.8C686.62,-376.8 691,-376.8 695.38,-376.8"/>
<polygon fill="gray" stroke="gray" points="695.24,-377.85 698.24,-376.8 695.24,-375.75 695.24,-377.85"/>
</g>
<!-- AR1C0 -->
<!-- AR0C0&#45;&gt;AR1C0 -->
<!-- AR1C1 -->
<g id="node25" class="node">
<title>AR1C1</title>
<polygon fill="none" stroke="gray" points="813.88,-334.04 700.12,-334.04 700.12,-264.53 813.88,-264.53 813.88,-334.04"/>
<text text-anchor="start" x="751" y="-321.66" font-family="Menlo" font-size="10.00">24</text>
<text text-anchor="start" x="742" y="-308.91" font-family="Menlo" font-size="10.00">T &quot;a&quot;</text>
<text text-anchor="start" x="733" y="-296.16" font-family="Menlo" font-size="10.00">fi [&quot;a&quot;]</text>
<text text-anchor="start" x="703" y="-283.41" font-family="Menlo" font-size="10.00">fo [&quot;$&quot;, &quot;b&quot;, &quot;c&quot;]</text>
<text text-anchor="start" x="751" y="-270.66" font-family="Menlo" font-size="10.00">[]</text>
</g>
<!-- AR0C1&#45;&gt;AR1C1 -->
<g id="edge24" class="edge">
<title>AR0C1&#45;&gt;AR1C1</title>
<path fill="none" stroke="gray" d="M757,-341.57C757,-340.7 757,-339.82 757,-338.94"/>
<polygon fill="gray" stroke="gray" points="758.05,-339.05 757,-336.05 755.95,-339.05 758.05,-339.05"/>
</g>
<!-- AR0C2 -->
<g id="node27" class="node">
<title>AR0C2</title>
<polygon fill="none" stroke="gray" points="945.88,-411.55 832.12,-411.55 832.12,-342.04 945.88,-342.04 945.88,-411.55"/>
<text text-anchor="start" x="883" y="-399.17" font-family="Menlo" font-size="10.00">26</text>
<text text-anchor="start" x="877" y="-386.42" font-family="Menlo" font-size="10.00">ALT </text>
<text text-anchor="start" x="865" y="-373.67" font-family="Menlo" font-size="10.00">fi [&quot;c&quot;]</text>
<text text-anchor="start" x="835" y="-360.92" font-family="Menlo" font-size="10.00">fo [&quot;$&quot;, &quot;b&quot;, &quot;c&quot;]</text>
<text text-anchor="start" x="883" y="-348.17" font-family="Menlo" font-size="10.00">[]</text>
</g>
<!-- AR0C1&#45;&gt;AR0C2 -->
<g id="edge30" class="edge">
<title>AR0C1&#45;&gt;AR0C2</title>
<path fill="none" stroke="gray" d="M814.23,-376.8C818.62,-376.8 823,-376.8 827.38,-376.8"/>
<polygon fill="gray" stroke="gray" points="827.24,-377.85 830.24,-376.8 827.24,-375.75 827.24,-377.85"/>
</g>
<!-- AR2C1 -->
<g id="node26" class="node">
<title>AR2C1</title>
<polygon fill="none" stroke="gray" points="813.88,-256.53 700.12,-256.53 700.12,-187.02 813.88,-187.02 813.88,-256.53"/>
<text text-anchor="start" x="751" y="-244.15" font-family="Menlo" font-size="10.00">25</text>
<text text-anchor="start" x="745" y="-231.4" font-family="Menlo" font-size="10.00">END </text>
<text text-anchor="start" x="736" y="-218.65" font-family="Menlo" font-size="10.00">fi [&quot;&quot;]</text>
<text text-anchor="start" x="703" y="-205.9" font-family="Menlo" font-size="10.00">fo [&quot;$&quot;, &quot;b&quot;, &quot;c&quot;]</text>
<text text-anchor="start" x="751" y="-193.15" font-family="Menlo" font-size="10.00">[]</text>
</g>
<!-- AR1C1&#45;&gt;AR2C1 -->
<g id="edge23" class="edge">
<title>AR1C1&#45;&gt;AR2C1</title>
<path fill="none" stroke="gray" d="M757,-264.06C757,-263.19 757,-262.31 757,-261.43"/>
<polygon fill="gray" stroke="gray" points="758.05,-261.54 757,-258.54 755.95,-261.54 758.05,-261.54"/>
</g>
<!-- AR1C2 -->
<g id="node28" class="node">
<title>AR1C2</title>
<polygon fill="none" stroke="gray" points="945.88,-334.04 832.12,-334.04 832.12,-264.53 945.88,-264.53 945.88,-334.04"/>
<text text-anchor="start" x="883" y="-321.66" font-family="Menlo" font-size="10.00">27</text>
<text text-anchor="start" x="874" y="-308.91" font-family="Menlo" font-size="10.00">T &quot;c&quot;</text>
<text text-anchor="start" x="865" y="-296.16" font-family="Menlo" font-size="10.00">fi [&quot;c&quot;]</text>
<text text-anchor="start" x="835" y="-283.41" font-family="Menlo" font-size="10.00">fo [&quot;$&quot;, &quot;b&quot;, &quot;c&quot;]</text>
<text text-anchor="start" x="883" y="-270.66" font-family="Menlo" font-size="10.00">[]</text>
</g>
<!-- AR0C2&#45;&gt;AR1C2 -->
<g id="edge26" class="edge">
<title>AR0C2&#45;&gt;AR1C2</title>
<path fill="none" stroke="gray" d="M889,-341.57C889,-340.7 889,-339.82 889,-338.94"/>
<polygon fill="gray" stroke="gray" points="890.05,-339.05 889,-336.05 887.95,-339.05 890.05,-339.05"/>
</g>
<!-- AR0C3 -->
<g id="node30" class="node">
<title>AR0C3</title>
<polygon fill="none" stroke="gray" points="1077.88,-411.55 964.12,-411.55 964.12,-342.04 1077.88,-342.04 1077.88,-411.55"/>
<text text-anchor="start" x="1015" y="-399.17" font-family="Menlo" font-size="10.00">29</text>
<text text-anchor="start" x="1009" y="-386.42" font-family="Menlo" font-size="10.00">ALT </text>
<text text-anchor="start" x="1000" y="-373.67" font-family="Menlo" font-size="10.00">fi [&quot;&quot;]</text>
<text text-anchor="start" x="967" y="-360.92" font-family="Menlo" font-size="10.00">fo [&quot;$&quot;, &quot;b&quot;, &quot;c&quot;]</text>
<text text-anchor="start" x="1015" y="-348.17" font-family="Menlo" font-size="10.00">[]</text>
</g>
<!-- AR0C2&#45;&gt;AR0C3 -->
<g id="edge29" class="edge">
<title>AR0C2&#45;&gt;AR0C3</title>
<path fill="none" stroke="gray" d="M946.23,-376.8C950.62,-376.8 955,-376.8 959.38,-376.8"/>
<polygon fill="gray" stroke="gray" points="959.24,-377.85 962.24,-376.8 959.24,-375.75 959.24,-377.85"/>
</g>
<!-- AR2C2 -->
<g id="node29" class="node">
<title>AR2C2</title>
<polygon fill="none" stroke="gray" points="945.88,-256.53 832.12,-256.53 832.12,-187.02 945.88,-187.02 945.88,-256.53"/>
<text text-anchor="start" x="883" y="-244.15" font-family="Menlo" font-size="10.00">28</text>
<text text-anchor="start" x="877" y="-231.4" font-family="Menlo" font-size="10.00">END </text>
<text text-anchor="start" x="868" y="-218.65" font-family="Menlo" font-size="10.00">fi [&quot;&quot;]</text>
<text text-anchor="start" x="835" y="-205.9" font-family="Menlo" font-size="10.00">fo [&quot;$&quot;, &quot;b&quot;, &quot;c&quot;]</text>
<text text-anchor="start" x="883" y="-193.15" font-family="Menlo" font-size="10.00">[]</text>
</g>
<!-- AR1C2&#45;&gt;AR2C2 -->
<g id="edge25" class="edge">
<title>AR1C2&#45;&gt;AR2C2</title>
<path fill="none" stroke="gray" d="M889,-264.06C889,-263.19 889,-262.31 889,-261.43"/>
<polygon fill="gray" stroke="gray" points="890.05,-261.54 889,-258.54 887.95,-261.54 890.05,-261.54"/>
</g>
<!-- AR1C3 -->
<g id="node31" class="node">
<title>AR1C3</title>
<polygon fill="none" stroke="gray" points="1077.88,-334.04 964.12,-334.04 964.12,-264.53 1077.88,-264.53 1077.88,-334.04"/>
<text text-anchor="start" x="1015" y="-321.66" font-family="Menlo" font-size="10.00">30</text>
<text text-anchor="start" x="1006" y="-308.91" font-family="Menlo" font-size="10.00">EPS ε</text>
<text text-anchor="start" x="1000" y="-296.16" font-family="Menlo" font-size="10.00">fi [&quot;&quot;]</text>
<text text-anchor="start" x="967" y="-283.41" font-family="Menlo" font-size="10.00">fo [&quot;$&quot;, &quot;b&quot;, &quot;c&quot;]</text>
<text text-anchor="start" x="1000" y="-270.66" font-family="Menlo" font-size="10.00">[1:1:1]</text>
</g>
<!-- AR0C3&#45;&gt;AR1C3 -->
<g id="edge28" class="edge">
<title>AR0C3&#45;&gt;AR1C3</title>
<path fill="none" stroke="gray" d="M1021,-341.57C1021,-340.7 1021,-339.82 1021,-338.94"/>
<polygon fill="gray" stroke="gray" points="1022.05,-339.05 1021,-336.05 1019.95,-339.05 1022.05,-339.05"/>
</g>
<!-- AR2C3 -->
<g id="node32" class="node">
<title>AR2C3</title>
<polygon fill="none" stroke="gray" points="1077.88,-256.53 964.12,-256.53 964.12,-187.02 1077.88,-187.02 1077.88,-256.53"/>
<text text-anchor="start" x="1015" y="-244.15" font-family="Menlo" font-size="10.00">31</text>
<text text-anchor="start" x="1009" y="-231.4" font-family="Menlo" font-size="10.00">END </text>
<text text-anchor="start" x="1000" y="-218.65" font-family="Menlo" font-size="10.00">fi [&quot;&quot;]</text>
<text text-anchor="start" x="967" y="-205.9" font-family="Menlo" font-size="10.00">fo [&quot;$&quot;, &quot;b&quot;, &quot;c&quot;]</text>
<text text-anchor="start" x="1015" y="-193.15" font-family="Menlo" font-size="10.00">[]</text>
</g>
<!-- AR1C3&#45;&gt;AR2C3 -->
<g id="edge27" class="edge">
<title>AR1C3&#45;&gt;AR2C3</title>
<path fill="none" stroke="gray" d="M1021,-264.06C1021,-263.19 1021,-262.31 1021,-261.43"/>
<polygon fill="gray" stroke="gray" points="1022.05,-261.54 1021,-258.54 1019.95,-261.54 1022.05,-261.54"/>
</g>
<!-- AR1C0&#45;&gt;AR1C1 -->
<!-- AR2C0 -->
<!-- AR1C0&#45;&gt;AR2C0 -->
<!-- AR2C0&#45;&gt;AR2C1 -->
<!-- BR0C0 -->
<g id="node35" class="node">
<title>BR0C0</title>
<polygon fill="none" stroke="gray" points="1209.88,-411.55 1102.12,-411.55 1102.12,-342.04 1209.88,-342.04 1209.88,-411.55"/>
<text text-anchor="start" x="1150" y="-399.17" font-family="Menlo" font-size="10.00">11</text>
<text text-anchor="start" x="1147" y="-386.42" font-family="Menlo" font-size="10.00">N B</text>
<text text-anchor="start" x="1105" y="-373.67" font-family="Menlo" font-size="10.00">fi [&quot;&quot;, &quot;b&quot;, &quot;c&quot;]</text>
<text text-anchor="start" x="1117" y="-360.92" font-family="Menlo" font-size="10.00">fo [&quot;$&quot;, &quot;c&quot;]</text>
<text text-anchor="start" x="1114" y="-348.17" font-family="Menlo" font-size="10.00">[1:1:2, 1:1:3]</text>
</g>
<!-- BR0C1 -->
<g id="node36" class="node">
<title>BR0C1</title>
<polygon fill="none" stroke="gray" points="1311.88,-411.55 1228.12,-411.55 1228.12,-342.04 1311.88,-342.04 1311.88,-411.55"/>
<text text-anchor="start" x="1264" y="-399.17" font-family="Menlo" font-size="10.00">12</text>
<text text-anchor="start" x="1258" y="-386.42" font-family="Menlo" font-size="10.00">ALT </text>
<text text-anchor="start" x="1246" y="-373.67" font-family="Menlo" font-size="10.00">fi [&quot;b&quot;]</text>
<text text-anchor="start" x="1231" y="-360.92" font-family="Menlo" font-size="10.00">fo [&quot;$&quot;, &quot;c&quot;]</text>
<text text-anchor="start" x="1264" y="-348.17" font-family="Menlo" font-size="10.00">[]</text>
</g>
<!-- BR0C0&#45;&gt;BR0C1 -->
<g id="edge45" class="edge">
<title>BR0C0&#45;&gt;BR0C1</title>
<path fill="none" stroke="gray" d="M1210.33,-376.8C1214.76,-376.8 1219.19,-376.8 1223.61,-376.8"/>
<polygon fill="gray" stroke="gray" points="1223.53,-377.85 1226.53,-376.8 1223.53,-375.75 1223.53,-377.85"/>
</g>
<!-- BR1C0 -->
<!-- BR0C0&#45;&gt;BR1C0 -->
<!-- BR1C1 -->
<g id="node37" class="node">
<title>BR1C1</title>
<polygon fill="none" stroke="gray" points="1311.88,-334.04 1228.12,-334.04 1228.12,-264.53 1311.88,-264.53 1311.88,-334.04"/>
<text text-anchor="start" x="1264" y="-321.66" font-family="Menlo" font-size="10.00">13</text>
<text text-anchor="start" x="1255" y="-308.91" font-family="Menlo" font-size="10.00">T &quot;b&quot;</text>
<text text-anchor="start" x="1246" y="-296.16" font-family="Menlo" font-size="10.00">fi [&quot;b&quot;]</text>
<text text-anchor="start" x="1231" y="-283.41" font-family="Menlo" font-size="10.00">fo [&quot;$&quot;, &quot;c&quot;]</text>
<text text-anchor="start" x="1249" y="-270.66" font-family="Menlo" font-size="10.00">[1:1:2]</text>
</g>
<!-- BR0C1&#45;&gt;BR1C1 -->
<g id="edge37" class="edge">
<title>BR0C1&#45;&gt;BR1C1</title>
<path fill="none" stroke="gray" d="M1270,-341.57C1270,-340.7 1270,-339.82 1270,-338.94"/>
<polygon fill="gray" stroke="gray" points="1271.05,-339.05 1270,-336.05 1268.95,-339.05 1271.05,-339.05"/>
</g>
<!-- BR0C2 -->
<g id="node39" class="node">
<title>BR0C2</title>
<polygon fill="none" stroke="gray" points="1416.88,-411.55 1333.12,-411.55 1333.12,-342.04 1416.88,-342.04 1416.88,-411.55"/>
<text text-anchor="start" x="1369" y="-399.17" font-family="Menlo" font-size="10.00">15</text>
<text text-anchor="start" x="1363" y="-386.42" font-family="Menlo" font-size="10.00">ALT </text>
<text text-anchor="start" x="1336" y="-373.67" font-family="Menlo" font-size="10.00">fi [&quot;b&quot;, &quot;c&quot;]</text>
<text text-anchor="start" x="1351" y="-360.92" font-family="Menlo" font-size="10.00">fo [&quot;c&quot;]</text>
<text text-anchor="start" x="1369" y="-348.17" font-family="Menlo" font-size="10.00">[]</text>
</g>
<!-- BR0C1&#45;&gt;BR0C2 -->
<g id="edge44" class="edge">
<title>BR0C1&#45;&gt;BR0C2</title>
<path fill="none" stroke="gray" d="M1312.25,-376.8C1317.61,-376.8 1322.97,-376.8 1328.33,-376.8"/>
<polygon fill="gray" stroke="gray" points="1328.32,-377.85 1331.32,-376.8 1328.32,-375.75 1328.32,-377.85"/>
</g>
<!-- BR2C1 -->
<g id="node38" class="node">
<title>BR2C1</title>
<polygon fill="none" stroke="gray" points="1311.88,-256.53 1228.12,-256.53 1228.12,-187.02 1311.88,-187.02 1311.88,-256.53"/>
<text text-anchor="start" x="1264" y="-244.15" font-family="Menlo" font-size="10.00">14</text>
<text text-anchor="start" x="1258" y="-231.4" font-family="Menlo" font-size="10.00">END </text>
<text text-anchor="start" x="1249" y="-218.65" font-family="Menlo" font-size="10.00">fi [&quot;&quot;]</text>
<text text-anchor="start" x="1231" y="-205.9" font-family="Menlo" font-size="10.00">fo [&quot;$&quot;, &quot;c&quot;]</text>
<text text-anchor="start" x="1264" y="-193.15" font-family="Menlo" font-size="10.00">[]</text>
</g>
<!-- BR1C1&#45;&gt;BR2C1 -->
<g id="edge36" class="edge">
<title>BR1C1&#45;&gt;BR2C1</title>
<path fill="none" stroke="gray" d="M1270,-264.06C1270,-263.19 1270,-262.31 1270,-261.43"/>
<polygon fill="gray" stroke="gray" points="1271.05,-261.54 1270,-258.54 1268.95,-261.54 1271.05,-261.54"/>
</g>
<!-- BR3C1 -->
<!-- BR2C1&#45;&gt;BR3C1 -->
<!-- BR1C2 -->
<g id="node40" class="node">
<title>BR1C2</title>
<polygon fill="none" stroke="gray" points="1419.88,-334.04 1330.12,-334.04 1330.12,-264.53 1419.88,-264.53 1419.88,-334.04"/>
<text text-anchor="start" x="1369" y="-321.66" font-family="Menlo" font-size="10.00">16</text>
<text text-anchor="start" x="1366" y="-308.91" font-family="Menlo" font-size="10.00">N B</text>
<text text-anchor="start" x="1336" y="-296.16" font-family="Menlo" font-size="10.00">fi [&quot;b&quot;, &quot;c&quot;]</text>
<text text-anchor="start" x="1351" y="-283.41" font-family="Menlo" font-size="10.00">fo [&quot;c&quot;]</text>
<text text-anchor="start" x="1333" y="-270.66" font-family="Menlo" font-size="10.00">[1:1:2, 1:1:3]</text>
</g>
<!-- BR0C2&#45;&gt;BR1C2 -->
<g id="edge40" class="edge">
<title>BR0C2&#45;&gt;BR1C2</title>
<path fill="none" stroke="gray" d="M1375,-341.57C1375,-340.7 1375,-339.82 1375,-338.94"/>
<polygon fill="gray" stroke="gray" points="1376.05,-339.05 1375,-336.05 1373.95,-339.05 1376.05,-339.05"/>
</g>
<!-- BR0C3 -->
<g id="node43" class="node">
<title>BR0C3</title>
<polygon fill="none" stroke="gray" points="1521.88,-411.55 1438.12,-411.55 1438.12,-342.04 1521.88,-342.04 1521.88,-411.55"/>
<text text-anchor="start" x="1474" y="-399.17" font-family="Menlo" font-size="10.00">19</text>
<text text-anchor="start" x="1468" y="-386.42" font-family="Menlo" font-size="10.00">ALT </text>
<text text-anchor="start" x="1459" y="-373.67" font-family="Menlo" font-size="10.00">fi [&quot;&quot;]</text>
<text text-anchor="start" x="1441" y="-360.92" font-family="Menlo" font-size="10.00">fo [&quot;$&quot;, &quot;c&quot;]</text>
<text text-anchor="start" x="1474" y="-348.17" font-family="Menlo" font-size="10.00">[]</text>
</g>
<!-- BR0C2&#45;&gt;BR0C3 -->
<g id="edge43" class="edge">
<title>BR0C2&#45;&gt;BR0C3</title>
<path fill="none" stroke="gray" d="M1417.25,-376.8C1422.61,-376.8 1427.97,-376.8 1433.33,-376.8"/>
<polygon fill="gray" stroke="gray" points="1433.32,-377.85 1436.32,-376.8 1433.32,-375.75 1433.32,-377.85"/>
</g>
<!-- BR2C2 -->
<g id="node41" class="node">
<title>BR2C2</title>
<polygon fill="none" stroke="gray" points="1416.88,-256.53 1333.12,-256.53 1333.12,-187.02 1416.88,-187.02 1416.88,-256.53"/>
<text text-anchor="start" x="1369" y="-244.15" font-family="Menlo" font-size="10.00">17</text>
<text text-anchor="start" x="1360" y="-231.4" font-family="Menlo" font-size="10.00">T &quot;c&quot;</text>
<text text-anchor="start" x="1351" y="-218.65" font-family="Menlo" font-size="10.00">fi [&quot;c&quot;]</text>
<text text-anchor="start" x="1336" y="-205.9" font-family="Menlo" font-size="10.00">fo [&quot;$&quot;, &quot;c&quot;]</text>
<text text-anchor="start" x="1354" y="-193.15" font-family="Menlo" font-size="10.00">[1:2:3]</text>
</g>
<!-- BR1C2&#45;&gt;BR2C2 -->
<g id="edge39" class="edge">
<title>BR1C2&#45;&gt;BR2C2</title>
<path fill="none" stroke="gray" d="M1375,-264.06C1375,-263.19 1375,-262.31 1375,-261.43"/>
<polygon fill="gray" stroke="gray" points="1376.05,-261.54 1375,-258.54 1373.95,-261.54 1376.05,-261.54"/>
</g>
<!-- BR3C2 -->
<g id="node42" class="node">
<title>BR3C2</title>
<polygon fill="none" stroke="gray" points="1416.88,-171.02 1333.12,-171.02 1333.12,-101.51 1416.88,-101.51 1416.88,-171.02"/>
<text text-anchor="start" x="1369" y="-158.64" font-family="Menlo" font-size="10.00">18</text>
<text text-anchor="start" x="1363" y="-145.89" font-family="Menlo" font-size="10.00">END </text>
<text text-anchor="start" x="1354" y="-133.14" font-family="Menlo" font-size="10.00">fi [&quot;&quot;]</text>
<text text-anchor="start" x="1336" y="-120.39" font-family="Menlo" font-size="10.00">fo [&quot;$&quot;, &quot;c&quot;]</text>
<text text-anchor="start" x="1369" y="-107.64" font-family="Menlo" font-size="10.00">[]</text>
</g>
<!-- BR2C2&#45;&gt;BR3C2 -->
<g id="edge38" class="edge">
<title>BR2C2&#45;&gt;BR3C2</title>
<path fill="none" stroke="gray" d="M1375,-186.81C1375,-183.17 1375,-179.46 1375,-175.77"/>
<polygon fill="gray" stroke="gray" points="1376.05,-175.99 1375,-172.99 1373.95,-175.99 1376.05,-175.99"/>
</g>
<!-- BR3C3 -->
<!-- BR3C2&#45;&gt;BR3C3 -->
<!-- BR1C3 -->
<g id="node44" class="node">
<title>BR1C3</title>
<polygon fill="none" stroke="gray" points="1521.88,-334.04 1438.12,-334.04 1438.12,-264.53 1521.88,-264.53 1521.88,-334.04"/>
<text text-anchor="start" x="1474" y="-321.66" font-family="Menlo" font-size="10.00">20</text>
<text text-anchor="start" x="1465" y="-308.91" font-family="Menlo" font-size="10.00">EPS ε</text>
<text text-anchor="start" x="1459" y="-296.16" font-family="Menlo" font-size="10.00">fi [&quot;&quot;]</text>
<text text-anchor="start" x="1441" y="-283.41" font-family="Menlo" font-size="10.00">fo [&quot;$&quot;, &quot;c&quot;]</text>
<text text-anchor="start" x="1474" y="-270.66" font-family="Menlo" font-size="10.00">[]</text>
</g>
<!-- BR0C3&#45;&gt;BR1C3 -->
<g id="edge42" class="edge">
<title>BR0C3&#45;&gt;BR1C3</title>
<path fill="none" stroke="gray" d="M1480,-341.57C1480,-340.7 1480,-339.82 1480,-338.94"/>
<polygon fill="gray" stroke="gray" points="1481.05,-339.05 1480,-336.05 1478.95,-339.05 1481.05,-339.05"/>
</g>
<!-- BR2C3 -->
<g id="node45" class="node">
<title>BR2C3</title>
<polygon fill="none" stroke="gray" points="1521.88,-256.53 1438.12,-256.53 1438.12,-187.02 1521.88,-187.02 1521.88,-256.53"/>
<text text-anchor="start" x="1474" y="-244.15" font-family="Menlo" font-size="10.00">21</text>
<text text-anchor="start" x="1468" y="-231.4" font-family="Menlo" font-size="10.00">END </text>
<text text-anchor="start" x="1459" y="-218.65" font-family="Menlo" font-size="10.00">fi [&quot;&quot;]</text>
<text text-anchor="start" x="1441" y="-205.9" font-family="Menlo" font-size="10.00">fo [&quot;$&quot;, &quot;c&quot;]</text>
<text text-anchor="start" x="1474" y="-193.15" font-family="Menlo" font-size="10.00">[]</text>
</g>
<!-- BR1C3&#45;&gt;BR2C3 -->
<g id="edge41" class="edge">
<title>BR1C3&#45;&gt;BR2C3</title>
<path fill="none" stroke="gray" d="M1480,-264.06C1480,-263.19 1480,-262.31 1480,-261.43"/>
<polygon fill="gray" stroke="gray" points="1481.05,-261.54 1480,-258.54 1478.95,-261.54 1481.05,-261.54"/>
</g>
<!-- BR2C3&#45;&gt;BR3C3 -->
<!-- BR1C0&#45;&gt;BR1C1 -->
<!-- BR2C0 -->
<!-- BR1C0&#45;&gt;BR2C0 -->
<!-- BR2C0&#45;&gt;BR2C1 -->
<!-- BR3C0 -->
<!-- BR2C0&#45;&gt;BR3C0 -->
<!-- BR3C0&#45;&gt;BR3C1 -->
<!-- BR3C1&#45;&gt;BR3C2 -->
</g>
</svg>
