<?xml version="1.0" encoding="UTF-8" standalone="no"?>
<!DOCTYPE svg PUBLIC "-//W3C//DTD SVG 1.1//EN"
 "http://www.w3.org/Graphics/SVG/1.1/DTD/svg11.dtd">
<!-- Generated by graphviz version 9.0.0 (20230911.1827)
 -->
<!-- Title: G Pages: 1 -->
<svg width="235pt" height="249pt"
 viewBox="0.00 0.00 235.00 249.05" xmlns="http://www.w3.org/2000/svg" xmlns:xlink="http://www.w3.org/1999/xlink">
<g id="graph0" class="graph" transform="scale(1 1) rotate(0) translate(4 245.05)">
<title>G</title>
<polygon fill="white" stroke="none" points="-4,4 -4,-245.05 231,-245.05 231,4 -4,4"/>
<g id="clust2" class="cluster">
<title>clusterS</title>
<polygon fill="none" stroke="black" points="8,-8 8,-233.05 219,-233.05 219,-8 8,-8"/>
<text text-anchor="start" x="16" y="-219.55" font-family="Menlo" font-size="10.00">S = { &quot;b&quot; } { &quot;b&quot; } .</text>
</g>
<!-- SR0C0 -->
<g id="node1" class="node">
<title>SR0C0</title>
<polygon fill="none" stroke="gray" points="45.88,-204.3 22.12,-204.3 22.12,-173.04 45.88,-173.04 45.88,-204.3"/>
<text text-anchor="start" x="31" y="-191.92" font-family="Menlo" font-size="10.00">L</text>
<text text-anchor="start" x="25" y="-179.17" font-family="Menlo" font-size="10.00">N S</text>
</g>
<!-- SR0C1 -->
<g id="node2" class="node">
<title>SR0C1</title>
<polygon fill="none" stroke="gray" points="102.88,-204.3 73.12,-204.3 73.12,-173.04 102.88,-173.04 102.88,-204.3"/>
<text text-anchor="start" x="85" y="-191.92" font-family="Menlo" font-size="10.00">B</text>
<text text-anchor="start" x="76" y="-179.17" font-family="Menlo" font-size="10.00">ALT </text>
</g>
<!-- SR0C0&#45;&gt;SR0C1 -->
<g id="edge10" class="edge">
<title>SR0C0&#45;&gt;SR0C1</title>
<path fill="none" stroke="gray" d="M46.23,-188.67C53.67,-188.67 61.1,-188.67 68.53,-188.67"/>
<polygon fill="gray" stroke="gray" points="68.15,-189.72 71.15,-188.67 68.15,-187.62 68.15,-189.72"/>
</g>
<!-- SR1C0 -->
<!-- SR0C0&#45;&gt;SR1C0 -->
<!-- SR1C1 -->
<g id="node3" class="node">
<title>SR1C1</title>
<polygon fill="none" stroke="gray" points="102.88,-165.04 73.12,-165.04 73.12,-133.78 102.88,-133.78 102.88,-165.04"/>
<text text-anchor="start" x="85" y="-152.66" font-family="Menlo" font-size="10.00">F</text>
<text text-anchor="start" x="76" y="-139.91" font-family="Menlo" font-size="10.00">KLN </text>
</g>
<!-- SR0C1&#45;&gt;SR1C1 -->
<g id="edge9" class="edge">
<title>SR0C1&#45;&gt;SR1C1</title>
<path fill="none" stroke="gray" d="M88,-172.94C88,-171.88 88,-170.79 88,-169.7"/>
<polygon fill="gray" stroke="gray" points="89.05,-170.03 88,-167.03 86.95,-170.03 89.05,-170.03"/>
</g>
<!-- SR0C2 -->
<!-- SR0C1&#45;&gt;SR0C2 -->
<!-- SR2C1 -->
<g id="node4" class="node">
<title>SR2C1</title>
<polygon fill="none" stroke="gray" points="102.88,-125.78 73.12,-125.78 73.12,-94.52 102.88,-94.52 102.88,-125.78"/>
<text text-anchor="start" x="85" y="-113.4" font-family="Menlo" font-size="10.00">J</text>
<text text-anchor="start" x="76" y="-100.65" font-family="Menlo" font-size="10.00">KLN </text>
</g>
<!-- SR1C1&#45;&gt;SR2C1 -->
<g id="edge5" class="edge">
<title>SR1C1&#45;&gt;SR2C1</title>
<path fill="none" stroke="gray" d="M88,-133.68C88,-132.62 88,-131.53 88,-130.44"/>
<polygon fill="gray" stroke="gray" points="89.05,-130.77 88,-127.77 86.95,-130.77 89.05,-130.77"/>
</g>
<!-- SR1C3 -->
<g id="node9" class="node">
<title>SR1C3</title>
<polygon fill="none" stroke="gray" points="207.88,-165.04 178.12,-165.04 178.12,-133.78 207.88,-133.78 207.88,-165.04"/>
<text text-anchor="start" x="190" y="-152.66" font-family="Menlo" font-size="10.00">C</text>
<text text-anchor="start" x="181" y="-139.91" font-family="Menlo" font-size="10.00">ALT </text>
</g>
<!-- SR1C1&#45;&gt;SR1C3 -->
<g id="edge8" class="edge">
<title>SR1C1&#45;&gt;SR1C3</title>
<path fill="none" stroke="gray" d="M103.18,-149.41C126.63,-149.41 150.08,-149.41 173.53,-149.41"/>
<polygon fill="gray" stroke="gray" points="173.4,-150.46 176.4,-149.41 173.4,-148.36 173.4,-150.46"/>
</g>
<!-- SR3C1 -->
<g id="node5" class="node">
<title>SR3C1</title>
<polygon fill="none" stroke="gray" points="102.88,-86.52 73.12,-86.52 73.12,-55.26 102.88,-55.26 102.88,-86.52"/>
<text text-anchor="start" x="85" y="-74.14" font-family="Menlo" font-size="10.00">K</text>
<text text-anchor="start" x="76" y="-61.39" font-family="Menlo" font-size="10.00">END </text>
</g>
<!-- SR2C1&#45;&gt;SR3C1 -->
<g id="edge1" class="edge">
<title>SR2C1&#45;&gt;SR3C1</title>
<path fill="none" stroke="gray" d="M88,-94.42C88,-93.36 88,-92.27 88,-91.18"/>
<polygon fill="gray" stroke="gray" points="89.05,-91.51 88,-88.51 86.95,-91.51 89.05,-91.51"/>
</g>
<!-- SR2C2 -->
<g id="node6" class="node">
<title>SR2C2</title>
<polygon fill="none" stroke="gray" points="153.88,-125.78 124.12,-125.78 124.12,-94.52 153.88,-94.52 153.88,-125.78"/>
<text text-anchor="start" x="136" y="-113.4" font-family="Menlo" font-size="10.00">G</text>
<text text-anchor="start" x="127" y="-100.65" font-family="Menlo" font-size="10.00">ALT </text>
</g>
<!-- SR2C1&#45;&gt;SR2C2 -->
<g id="edge4" class="edge">
<title>SR2C1&#45;&gt;SR2C2</title>
<path fill="none" stroke="gray" d="M103.14,-110.15C108.65,-110.15 114.15,-110.15 119.66,-110.15"/>
<polygon fill="gray" stroke="gray" points="119.36,-111.2 122.36,-110.15 119.36,-109.1 119.36,-111.2"/>
</g>
<!-- SR4C1 -->
<!-- SR3C1&#45;&gt;SR4C1 -->
<!-- SR3C2 -->
<g id="node7" class="node">
<title>SR3C2</title>
<polygon fill="none" stroke="gray" points="156.88,-86.52 121.12,-86.52 121.12,-55.26 156.88,-55.26 156.88,-86.52"/>
<text text-anchor="start" x="136" y="-74.14" font-family="Menlo" font-size="10.00">H</text>
<text text-anchor="start" x="124" y="-61.39" font-family="Menlo" font-size="10.00">T &quot;b&quot;</text>
</g>
<!-- SR2C2&#45;&gt;SR3C2 -->
<g id="edge3" class="edge">
<title>SR2C2&#45;&gt;SR3C2</title>
<path fill="none" stroke="gray" d="M139,-94.42C139,-93.36 139,-92.27 139,-91.18"/>
<polygon fill="gray" stroke="gray" points="140.05,-91.51 139,-88.51 137.95,-91.51 140.05,-91.51"/>
</g>
<!-- SR4C2 -->
<g id="node8" class="node">
<title>SR4C2</title>
<polygon fill="none" stroke="gray" points="153.88,-47.26 124.12,-47.26 124.12,-16 153.88,-16 153.88,-47.26"/>
<text text-anchor="start" x="136" y="-34.88" font-family="Menlo" font-size="10.00">I</text>
<text text-anchor="start" x="127" y="-22.13" font-family="Menlo" font-size="10.00">END </text>
</g>
<!-- SR3C2&#45;&gt;SR4C2 -->
<g id="edge2" class="edge">
<title>SR3C2&#45;&gt;SR4C2</title>
<path fill="none" stroke="gray" d="M139,-55.16C139,-54.1 139,-53.01 139,-51.92"/>
<polygon fill="gray" stroke="gray" points="140.05,-52.25 139,-49.25 137.95,-52.25 140.05,-52.25"/>
</g>
<!-- SR4C3 -->
<!-- SR4C2&#45;&gt;SR4C3 -->
<!-- SR2C3 -->
<g id="node10" class="node">
<title>SR2C3</title>
<polygon fill="none" stroke="gray" points="210.88,-125.78 175.12,-125.78 175.12,-94.52 210.88,-94.52 210.88,-125.78"/>
<text text-anchor="start" x="190" y="-113.4" font-family="Menlo" font-size="10.00">D</text>
<text text-anchor="start" x="178" y="-100.65" font-family="Menlo" font-size="10.00">T &quot;b&quot;</text>
</g>
<!-- SR1C3&#45;&gt;SR2C3 -->
<g id="edge7" class="edge">
<title>SR1C3&#45;&gt;SR2C3</title>
<path fill="none" stroke="gray" d="M193,-133.68C193,-132.62 193,-131.53 193,-130.44"/>
<polygon fill="gray" stroke="gray" points="194.05,-130.77 193,-127.77 191.95,-130.77 194.05,-130.77"/>
</g>
<!-- SR3C3 -->
<g id="node11" class="node">
<title>SR3C3</title>
<polygon fill="none" stroke="gray" points="207.88,-86.52 178.12,-86.52 178.12,-55.26 207.88,-55.26 207.88,-86.52"/>
<text text-anchor="start" x="190" y="-74.14" font-family="Menlo" font-size="10.00">E</text>
<text text-anchor="start" x="181" y="-61.39" font-family="Menlo" font-size="10.00">END </text>
</g>
<!-- SR2C3&#45;&gt;SR3C3 -->
<g id="edge6" class="edge">
<title>SR2C3&#45;&gt;SR3C3</title>
<path fill="none" stroke="gray" d="M193,-94.42C193,-93.36 193,-92.27 193,-91.18"/>
<polygon fill="gray" stroke="gray" points="194.05,-91.51 193,-88.51 191.95,-91.51 194.05,-91.51"/>
</g>
<!-- SR3C3&#45;&gt;SR4C3 -->
<!-- SR0C3 -->
<!-- SR0C2&#45;&gt;SR0C3 -->
<!-- SR0C3&#45;&gt;SR1C3 -->
<!-- SR1C0&#45;&gt;SR1C1 -->
<!-- SR2C0 -->
<!-- SR1C0&#45;&gt;SR2C0 -->
<!-- SR2C0&#45;&gt;SR2C1 -->
<!-- SR3C0 -->
<!-- SR2C0&#45;&gt;SR3C0 -->
<!-- SR3C0&#45;&gt;SR3C1 -->
<!-- SR4C0 -->
<!-- SR3C0&#45;&gt;SR4C0 -->
<!-- SR4C0&#45;&gt;SR4C1 -->
<!-- SR4C1&#45;&gt;SR4C2 -->
</g>
</svg>
