<?xml version="1.0" encoding="UTF-8" standalone="no"?>
<!DOCTYPE svg PUBLIC "-//W3C//DTD SVG 1.1//EN"
 "http://www.w3.org/Graphics/SVG/1.1/DTD/svg11.dtd">
<!-- Generated by graphviz version 9.0.0 (20230911.1827)
 -->
<!-- Title: G Pages: 1 -->
<svg width="868pt" height="371pt"
 viewBox="0.00 0.00 868.00 370.79" xmlns="http://www.w3.org/2000/svg" xmlns:xlink="http://www.w3.org/1999/xlink">
<g id="graph0" class="graph" transform="scale(1 1) rotate(0) translate(4 366.79)">
<title>G</title>
<polygon fill="white" stroke="none" points="-4,4 -4,-366.79 864,-366.79 864,4 -4,4"/>
<g id="clust1" class="cluster">
<title>CallReturnForest</title>
<polygon fill="none" stroke="black" points="8,-196.52 8,-331.92 270,-331.92 270,-196.52 8,-196.52"/>
<text text-anchor="start" x="16" y="-318.42" font-family="Menlo" font-size="10.00" fill="red">↵&lt;&lt;·x·&gt;&gt;↵</text>
</g>
<g id="clust2" class="cluster">
<title>clusterS</title>
<polygon fill="none" stroke="black" points="278,-8 278,-354.79 540,-354.79 540,-8 278,-8"/>
<text text-anchor="start" x="286" y="-341.29" font-family="Menlo" font-size="10.00">S = &quot;x&quot; | &quot;&lt;&quot; Y .</text>
</g>
<g id="clust9" class="cluster">
<title>clusterB</title>
<polygon fill="none" stroke="black" points="548,-93.51 548,-354.79 690,-354.79 690,-93.51 548,-93.51"/>
<text text-anchor="start" x="556" y="-341.29" font-family="Menlo" font-size="10.00">B = &quot;&gt;&gt;&quot; .</text>
</g>
<g id="clust13" class="cluster">
<title>clusterY</title>
<polygon fill="none" stroke="black" points="698,-8 698,-354.79 852,-354.79 852,-8 698,-8"/>
<text text-anchor="start" x="706" y="-341.29" font-family="Menlo" font-size="10.00">Y = S &quot;&gt;&quot; .</text>
</g>
<!-- 0.1 -->
<g id="node1" class="node">
<title>0.1</title>
<path fill="none" stroke="gray" d="M241.96,-303.17C241.96,-303.17 234.04,-303.17 234.04,-303.17 230.08,-303.17 226.12,-299.21 226.12,-295.25 226.12,-295.25 226.12,-287.33 226.12,-287.33 226.12,-283.37 230.08,-279.41 234.04,-279.41 234.04,-279.41 241.96,-279.41 241.96,-279.41 245.92,-279.41 249.88,-283.37 249.88,-287.33 249.88,-287.33 249.88,-295.25 249.88,-295.25 249.88,-299.21 245.92,-303.17 241.96,-303.17"/>
<text text-anchor="start" x="229" y="-291.79" font-family="Menlo" font-size="10.00">Y,1</text>
<text text-anchor="start" x="235.75" y="-283.69" font-family="Menlo" font-size="8.00" fill="gray"> </text>
</g>
<!-- 11.0 -->
<g id="node2" class="node">
<title>11.0</title>
<path fill="none" stroke="gray" d="M255.71,-223.03C255.71,-223.03 220.29,-223.03 220.29,-223.03 217.21,-223.03 214.12,-219.95 214.12,-216.86 214.12,-216.86 214.12,-210.69 214.12,-210.69 214.12,-207.61 217.21,-204.52 220.29,-204.52 220.29,-204.52 255.71,-204.52 255.71,-204.52 258.8,-204.52 261.88,-207.61 261.88,-210.69 261.88,-210.69 261.88,-216.86 261.88,-216.86 261.88,-219.95 258.8,-223.03 255.71,-223.03"/>
<text text-anchor="start" x="217" y="-210.65" font-family="Menlo" font-size="10.00">S=&lt;Y·,0</text>
</g>
<!-- 0.1&#45;&gt;11.0 -->
<g id="edge1" class="edge">
<title>0.1&#45;&gt;11.0</title>
<path fill="none" stroke="gray" d="M238,-279.14C238,-265.31 238,-241.79 238,-227.33"/>
<polygon fill="gray" stroke="gray" points="239.05,-227.67 238,-224.67 236.95,-227.67 239.05,-227.67"/>
</g>
<!-- 0.2 -->
<g id="node3" class="node">
<title>0.2</title>
<path fill="none" stroke="gray" d="M184.96,-303.17C184.96,-303.17 177.04,-303.17 177.04,-303.17 173.08,-303.17 169.12,-299.21 169.12,-295.25 169.12,-295.25 169.12,-287.33 169.12,-287.33 169.12,-283.37 173.08,-279.41 177.04,-279.41 177.04,-279.41 184.96,-279.41 184.96,-279.41 188.92,-279.41 192.88,-283.37 192.88,-287.33 192.88,-287.33 192.88,-295.25 192.88,-295.25 192.88,-299.21 188.92,-303.17 184.96,-303.17"/>
<text text-anchor="start" x="172" y="-291.79" font-family="Menlo" font-size="10.00">Y,2</text>
<text text-anchor="start" x="178.75" y="-283.69" font-family="Menlo" font-size="8.00" fill="gray"> </text>
</g>
<!-- 11.1 -->
<g id="node4" class="node">
<title>11.1</title>
<path fill="none" stroke="gray" d="M189.71,-223.03C189.71,-223.03 154.29,-223.03 154.29,-223.03 151.21,-223.03 148.12,-219.95 148.12,-216.86 148.12,-216.86 148.12,-210.69 148.12,-210.69 148.12,-207.61 151.21,-204.52 154.29,-204.52 154.29,-204.52 189.71,-204.52 189.71,-204.52 192.79,-204.52 195.88,-207.61 195.88,-210.69 195.88,-210.69 195.88,-216.86 195.88,-216.86 195.88,-219.95 192.79,-223.03 189.71,-223.03"/>
<text text-anchor="start" x="151" y="-210.65" font-family="Menlo" font-size="10.00">S=&lt;Y·,1</text>
</g>
<!-- 0.2&#45;&gt;11.1 -->
<g id="edge2" class="edge">
<title>0.2&#45;&gt;11.1</title>
<path fill="none" stroke="gray" d="M179.67,-279.14C178.02,-265.31 175.22,-241.79 173.5,-227.33"/>
<polygon fill="gray" stroke="gray" points="174.58,-227.52 173.18,-224.66 172.49,-227.76 174.58,-227.52"/>
</g>
<!-- 5.0 -->
<g id="node5" class="node">
<title>5.0</title>
<path fill="none" stroke="gray" d="M142.96,-303.17C142.96,-303.17 135.04,-303.17 135.04,-303.17 131.08,-303.17 127.12,-299.21 127.12,-295.25 127.12,-295.25 127.12,-287.33 127.12,-287.33 127.12,-283.37 131.08,-279.41 135.04,-279.41 135.04,-279.41 142.96,-279.41 142.96,-279.41 146.92,-279.41 150.88,-283.37 150.88,-287.33 150.88,-287.33 150.88,-295.25 150.88,-295.25 150.88,-299.21 146.92,-303.17 142.96,-303.17"/>
<text text-anchor="start" x="130" y="-291.79" font-family="Menlo" font-size="10.00">S,0</text>
<text text-anchor="start" x="136.75" y="-283.69" font-family="Menlo" font-size="8.00" fill="gray"> </text>
</g>
<!-- 5.1 -->
<g id="node6" class="node">
<title>5.1</title>
<path fill="none" stroke="gray" d="M100.96,-303.17C100.96,-303.17 93.04,-303.17 93.04,-303.17 89.08,-303.17 85.12,-299.21 85.12,-295.25 85.12,-295.25 85.12,-287.33 85.12,-287.33 85.12,-283.37 89.08,-279.41 93.04,-279.41 93.04,-279.41 100.96,-279.41 100.96,-279.41 104.92,-279.41 108.88,-283.37 108.88,-287.33 108.88,-287.33 108.88,-295.25 108.88,-295.25 108.88,-299.21 104.92,-303.17 100.96,-303.17"/>
<text text-anchor="start" x="88" y="-291.79" font-family="Menlo" font-size="10.00">S,1</text>
<text text-anchor="start" x="94.75" y="-283.69" font-family="Menlo" font-size="8.00" fill="gray"> </text>
</g>
<!-- 2.1 -->
<g id="node7" class="node">
<title>2.1</title>
<path fill="none" stroke="gray" d="M123.71,-223.03C123.71,-223.03 88.29,-223.03 88.29,-223.03 85.2,-223.03 82.12,-219.95 82.12,-216.86 82.12,-216.86 82.12,-210.69 82.12,-210.69 82.12,-207.61 85.2,-204.52 88.29,-204.52 88.29,-204.52 123.71,-204.52 123.71,-204.52 126.8,-204.52 129.88,-207.61 129.88,-210.69 129.88,-210.69 129.88,-216.86 129.88,-216.86 129.88,-219.95 126.8,-223.03 123.71,-223.03"/>
<text text-anchor="start" x="85" y="-210.65" font-family="Menlo" font-size="10.00">Y=S·&gt;,1</text>
</g>
<!-- 5.1&#45;&gt;2.1 -->
<g id="edge3" class="edge">
<title>5.1&#45;&gt;2.1</title>
<path fill="none" stroke="gray" d="M98.33,-279.14C99.98,-265.31 102.78,-241.79 104.5,-227.33"/>
<polygon fill="gray" stroke="gray" points="105.51,-227.76 104.82,-224.66 103.42,-227.52 105.51,-227.76"/>
</g>
<!-- 5.2 -->
<g id="node8" class="node">
<title>5.2</title>
<path fill="none" stroke="gray" d="M43.96,-303.17C43.96,-303.17 36.04,-303.17 36.04,-303.17 32.08,-303.17 28.12,-299.21 28.12,-295.25 28.12,-295.25 28.12,-287.33 28.12,-287.33 28.12,-283.37 32.08,-279.41 36.04,-279.41 36.04,-279.41 43.96,-279.41 43.96,-279.41 47.92,-279.41 51.88,-283.37 51.88,-287.33 51.88,-287.33 51.88,-295.25 51.88,-295.25 51.88,-299.21 47.92,-303.17 43.96,-303.17"/>
<text text-anchor="start" x="31" y="-291.79" font-family="Menlo" font-size="10.00">S,2</text>
<text text-anchor="start" x="37.75" y="-283.69" font-family="Menlo" font-size="8.00" fill="gray"> </text>
</g>
<!-- 2.2 -->
<g id="node9" class="node">
<title>2.2</title>
<path fill="none" stroke="gray" d="M57.71,-223.03C57.71,-223.03 22.29,-223.03 22.29,-223.03 19.21,-223.03 16.12,-219.95 16.12,-216.86 16.12,-216.86 16.12,-210.69 16.12,-210.69 16.12,-207.61 19.2,-204.52 22.29,-204.52 22.29,-204.52 57.71,-204.52 57.71,-204.52 60.79,-204.52 63.88,-207.61 63.88,-210.69 63.88,-210.69 63.88,-216.86 63.88,-216.86 63.88,-219.95 60.79,-223.03 57.71,-223.03"/>
<text text-anchor="start" x="19" y="-210.65" font-family="Menlo" font-size="10.00">Y=S·&gt;,2</text>
</g>
<!-- 5.2&#45;&gt;2.2 -->
<g id="edge4" class="edge">
<title>5.2&#45;&gt;2.2</title>
<path fill="none" stroke="gray" d="M40,-279.14C40,-265.31 40,-241.79 40,-227.33"/>
<polygon fill="gray" stroke="gray" points="41.05,-227.67 40,-224.67 38.95,-227.67 41.05,-227.67"/>
</g>
<!-- SR0C0 -->
<g id="node10" class="node">
<title>SR0C0</title>
<polygon fill="none" stroke="gray" points="345.88,-326.04 286.12,-326.04 286.12,-256.53 345.88,-256.53 345.88,-326.04"/>
<text text-anchor="start" x="295" y="-313.66" font-family="Menlo" font-size="10.00">5 false</text>
<text text-anchor="start" x="307" y="-300.91" font-family="Menlo" font-size="10.00">N S</text>
<text text-anchor="start" x="289" y="-288.16" font-family="Menlo" font-size="10.00">fi [&lt;, x]</text>
<text text-anchor="start" x="289" y="-275.41" font-family="Menlo" font-size="10.00">fo [$, &gt;]</text>
<text text-anchor="start" x="310" y="-262.66" font-family="Menlo" font-size="10.00">[]</text>
</g>
<!-- SR0C1 -->
<g id="node11" class="node">
<title>SR0C1</title>
<polygon fill="none" stroke="gray" points="423.88,-326.04 364.12,-326.04 364.12,-256.53 423.88,-256.53 423.88,-326.04"/>
<text text-anchor="start" x="373" y="-313.66" font-family="Menlo" font-size="10.00">6 false</text>
<text text-anchor="start" x="382" y="-300.91" font-family="Menlo" font-size="10.00">ALT </text>
<text text-anchor="start" x="376" y="-288.16" font-family="Menlo" font-size="10.00">fi [x]</text>
<text text-anchor="start" x="367" y="-275.41" font-family="Menlo" font-size="10.00">fo [$, &gt;]</text>
<text text-anchor="start" x="388" y="-262.66" font-family="Menlo" font-size="10.00">[]</text>
</g>
<!-- SR0C0&#45;&gt;SR0C1 -->
<g id="edge11" class="edge">
<title>SR0C0&#45;&gt;SR0C1</title>
<path fill="none" stroke="gray" d="M346.16,-291.29C350.56,-291.29 354.95,-291.29 359.34,-291.29"/>
<polygon fill="gray" stroke="gray" points="359.22,-292.34 362.22,-291.29 359.22,-290.24 359.22,-292.34"/>
</g>
<!-- SR1C0 -->
<!-- SR0C0&#45;&gt;SR1C0 -->
<!-- SR1C1 -->
<g id="node12" class="node">
<title>SR1C1</title>
<polygon fill="none" stroke="gray" points="423.88,-248.53 364.12,-248.53 364.12,-179.02 423.88,-179.02 423.88,-248.53"/>
<text text-anchor="start" x="373" y="-236.15" font-family="Menlo" font-size="10.00">7 false</text>
<text text-anchor="start" x="379" y="-223.4" font-family="Menlo" font-size="10.00">T &quot;x&quot;</text>
<text text-anchor="start" x="376" y="-210.65" font-family="Menlo" font-size="10.00">fi [x]</text>
<text text-anchor="start" x="367" y="-197.9" font-family="Menlo" font-size="10.00">fo [$, &gt;]</text>
<text text-anchor="start" x="373" y="-185.15" font-family="Menlo" font-size="10.00">[2:2:3]</text>
</g>
<!-- SR0C1&#45;&gt;SR1C1 -->
<g id="edge6" class="edge">
<title>SR0C1&#45;&gt;SR1C1</title>
<path fill="none" stroke="gray" d="M394,-256.06C394,-255.19 394,-254.31 394,-253.43"/>
<polygon fill="gray" stroke="gray" points="395.05,-253.54 394,-250.54 392.95,-253.54 395.05,-253.54"/>
</g>
<!-- SR0C2 -->
<g id="node14" class="node">
<title>SR0C2</title>
<polygon fill="none" stroke="gray" points="516.88,-326.04 457.12,-326.04 457.12,-256.53 516.88,-256.53 516.88,-326.04"/>
<text text-anchor="start" x="466" y="-313.66" font-family="Menlo" font-size="10.00">9 false</text>
<text text-anchor="start" x="475" y="-300.91" font-family="Menlo" font-size="10.00">ALT </text>
<text text-anchor="start" x="469" y="-288.16" font-family="Menlo" font-size="10.00">fi [&lt;]</text>
<text text-anchor="start" x="460" y="-275.41" font-family="Menlo" font-size="10.00">fo [&lt;, x]</text>
<text text-anchor="start" x="481" y="-262.66" font-family="Menlo" font-size="10.00">[]</text>
</g>
<!-- SR0C1&#45;&gt;SR0C2 -->
<g id="edge10" class="edge">
<title>SR0C1&#45;&gt;SR0C2</title>
<path fill="none" stroke="gray" d="M424.15,-291.29C433.66,-291.29 443.17,-291.29 452.68,-291.29"/>
<polygon fill="gray" stroke="gray" points="452.54,-292.34 455.54,-291.29 452.54,-290.24 452.54,-292.34"/>
</g>
<!-- SR2C1 -->
<g id="node13" class="node">
<title>SR2C1</title>
<polygon fill="none" stroke="gray" points="423.88,-171.02 364.12,-171.02 364.12,-101.51 423.88,-101.51 423.88,-171.02"/>
<text text-anchor="start" x="373" y="-158.64" font-family="Menlo" font-size="10.00">8 false</text>
<text text-anchor="start" x="382" y="-145.89" font-family="Menlo" font-size="10.00">END </text>
<text text-anchor="start" x="376" y="-133.14" font-family="Menlo" font-size="10.00">fi [ε]</text>
<text text-anchor="start" x="367" y="-120.39" font-family="Menlo" font-size="10.00">fo [$, &gt;]</text>
<text text-anchor="start" x="388" y="-107.64" font-family="Menlo" font-size="10.00">[]</text>
</g>
<!-- SR1C1&#45;&gt;SR2C1 -->
<g id="edge5" class="edge">
<title>SR1C1&#45;&gt;SR2C1</title>
<path fill="none" stroke="gray" d="M394,-178.55C394,-177.68 394,-176.8 394,-175.92"/>
<polygon fill="gray" stroke="gray" points="395.05,-176.03 394,-173.03 392.95,-176.03 395.05,-176.03"/>
</g>
<!-- SR3C1 -->
<!-- SR2C1&#45;&gt;SR3C1 -->
<!-- SR1C2 -->
<g id="node15" class="node">
<title>SR1C2</title>
<polygon fill="none" stroke="gray" points="531.88,-248.53 442.12,-248.53 442.12,-179.02 531.88,-179.02 531.88,-248.53"/>
<text text-anchor="start" x="463" y="-236.15" font-family="Menlo" font-size="10.00">10 false</text>
<text text-anchor="start" x="472" y="-223.4" font-family="Menlo" font-size="10.00">T &quot;&lt;&quot;</text>
<text text-anchor="start" x="469" y="-210.65" font-family="Menlo" font-size="10.00">fi [&lt;]</text>
<text text-anchor="start" x="460" y="-197.9" font-family="Menlo" font-size="10.00">fo [&lt;, x]</text>
<text text-anchor="start" x="445" y="-185.15" font-family="Menlo" font-size="10.00">[0:0:1, 1:1:2]</text>
</g>
<!-- SR0C2&#45;&gt;SR1C2 -->
<g id="edge9" class="edge">
<title>SR0C2&#45;&gt;SR1C2</title>
<path fill="none" stroke="gray" d="M487,-256.06C487,-255.19 487,-254.31 487,-253.43"/>
<polygon fill="gray" stroke="gray" points="488.05,-253.54 487,-250.54 485.95,-253.54 488.05,-253.54"/>
</g>
<!-- SR2C2 -->
<g id="node16" class="node">
<title>SR2C2</title>
<polygon fill="none" stroke="gray" points="516.88,-171.02 457.12,-171.02 457.12,-101.51 516.88,-101.51 516.88,-171.02"/>
<text text-anchor="start" x="463" y="-158.64" font-family="Menlo" font-size="10.00">11 false</text>
<text text-anchor="start" x="478" y="-145.89" font-family="Menlo" font-size="10.00">N Y</text>
<text text-anchor="start" x="460" y="-133.14" font-family="Menlo" font-size="10.00">fi [&lt;, x]</text>
<text text-anchor="start" x="460" y="-120.39" font-family="Menlo" font-size="10.00">fo [$, &gt;]</text>
<text text-anchor="start" x="481" y="-107.64" font-family="Menlo" font-size="10.00">[]</text>
</g>
<!-- SR1C2&#45;&gt;SR2C2 -->
<g id="edge8" class="edge">
<title>SR1C2&#45;&gt;SR2C2</title>
<path fill="none" stroke="gray" d="M487,-178.55C487,-177.68 487,-176.8 487,-175.92"/>
<polygon fill="gray" stroke="gray" points="488.05,-176.03 487,-173.03 485.95,-176.03 488.05,-176.03"/>
</g>
<!-- SR3C2 -->
<g id="node17" class="node">
<title>SR3C2</title>
<polygon fill="none" stroke="gray" points="516.88,-85.51 457.12,-85.51 457.12,-16 516.88,-16 516.88,-85.51"/>
<text text-anchor="start" x="463" y="-73.13" font-family="Menlo" font-size="10.00">12 false</text>
<text text-anchor="start" x="475" y="-60.38" font-family="Menlo" font-size="10.00">END </text>
<text text-anchor="start" x="469" y="-47.63" font-family="Menlo" font-size="10.00">fi [ε]</text>
<text text-anchor="start" x="460" y="-34.88" font-family="Menlo" font-size="10.00">fo [$, &gt;]</text>
<text text-anchor="start" x="481" y="-22.13" font-family="Menlo" font-size="10.00">[]</text>
</g>
<!-- SR2C2&#45;&gt;SR3C2 -->
<g id="edge7" class="edge">
<title>SR2C2&#45;&gt;SR3C2</title>
<path fill="none" stroke="gray" d="M487,-101.3C487,-97.66 487,-93.95 487,-90.26"/>
<polygon fill="gray" stroke="gray" points="488.05,-90.48 487,-87.48 485.95,-90.48 488.05,-90.48"/>
</g>
<!-- SR1C0&#45;&gt;SR1C1 -->
<!-- SR2C0 -->
<!-- SR1C0&#45;&gt;SR2C0 -->
<!-- SR2C0&#45;&gt;SR2C1 -->
<!-- SR3C0 -->
<!-- SR2C0&#45;&gt;SR3C0 -->
<!-- SR3C0&#45;&gt;SR3C1 -->
<!-- SR3C1&#45;&gt;SR3C2 -->
<!-- BR0C0 -->
<g id="node22" class="node">
<title>BR0C0</title>
<polygon fill="none" stroke="gray" points="609.88,-326.04 556.12,-326.04 556.12,-256.53 609.88,-256.53 609.88,-326.04"/>
<text text-anchor="start" x="559" y="-313.66" font-family="Menlo" font-size="10.00">13 false</text>
<text text-anchor="start" x="574" y="-300.91" font-family="Menlo" font-size="10.00">N B</text>
<text text-anchor="start" x="562" y="-288.16" font-family="Menlo" font-size="10.00">fi [&gt;&gt;]</text>
<text text-anchor="start" x="568" y="-275.41" font-family="Menlo" font-size="10.00">fo []</text>
<text text-anchor="start" x="577" y="-262.66" font-family="Menlo" font-size="10.00">[]</text>
</g>
<!-- BR0C1 -->
<g id="node23" class="node">
<title>BR0C1</title>
<polygon fill="none" stroke="gray" points="681.88,-326.04 628.12,-326.04 628.12,-256.53 681.88,-256.53 681.88,-326.04"/>
<text text-anchor="start" x="631" y="-313.66" font-family="Menlo" font-size="10.00">14 false</text>
<text text-anchor="start" x="643" y="-300.91" font-family="Menlo" font-size="10.00">ALT </text>
<text text-anchor="start" x="634" y="-288.16" font-family="Menlo" font-size="10.00">fi [&gt;&gt;]</text>
<text text-anchor="start" x="640" y="-275.41" font-family="Menlo" font-size="10.00">fo []</text>
<text text-anchor="start" x="649" y="-262.66" font-family="Menlo" font-size="10.00">[]</text>
</g>
<!-- BR0C0&#45;&gt;BR0C1 -->
<g id="edge22" class="edge">
<title>BR0C0&#45;&gt;BR0C1</title>
<path fill="none" stroke="gray" d="M610.28,-291.29C614.65,-291.29 619.02,-291.29 623.38,-291.29"/>
<polygon fill="gray" stroke="gray" points="623.24,-292.34 626.24,-291.29 623.24,-290.24 623.24,-292.34"/>
</g>
<!-- BR1C0 -->
<!-- BR0C0&#45;&gt;BR1C0 -->
<!-- BR1C1 -->
<g id="node24" class="node">
<title>BR1C1</title>
<polygon fill="none" stroke="gray" points="681.88,-248.53 628.12,-248.53 628.12,-179.02 681.88,-179.02 681.88,-248.53"/>
<text text-anchor="start" x="631" y="-236.15" font-family="Menlo" font-size="10.00">15 false</text>
<text text-anchor="start" x="637" y="-223.4" font-family="Menlo" font-size="10.00">T &quot;&gt;&gt;&quot;</text>
<text text-anchor="start" x="634" y="-210.65" font-family="Menlo" font-size="10.00">fi [&gt;&gt;]</text>
<text text-anchor="start" x="640" y="-197.9" font-family="Menlo" font-size="10.00">fo []</text>
<text text-anchor="start" x="649" y="-185.15" font-family="Menlo" font-size="10.00">[]</text>
</g>
<!-- BR0C1&#45;&gt;BR1C1 -->
<g id="edge21" class="edge">
<title>BR0C1&#45;&gt;BR1C1</title>
<path fill="none" stroke="gray" d="M655,-256.06C655,-255.19 655,-254.31 655,-253.43"/>
<polygon fill="gray" stroke="gray" points="656.05,-253.54 655,-250.54 653.95,-253.54 656.05,-253.54"/>
</g>
<!-- BR2C1 -->
<g id="node25" class="node">
<title>BR2C1</title>
<polygon fill="none" stroke="gray" points="681.88,-171.02 628.12,-171.02 628.12,-101.51 681.88,-101.51 681.88,-171.02"/>
<text text-anchor="start" x="631" y="-158.64" font-family="Menlo" font-size="10.00">16 false</text>
<text text-anchor="start" x="643" y="-145.89" font-family="Menlo" font-size="10.00">END </text>
<text text-anchor="start" x="637" y="-133.14" font-family="Menlo" font-size="10.00">fi [ε]</text>
<text text-anchor="start" x="640" y="-120.39" font-family="Menlo" font-size="10.00">fo []</text>
<text text-anchor="start" x="649" y="-107.64" font-family="Menlo" font-size="10.00">[]</text>
</g>
<!-- BR1C1&#45;&gt;BR2C1 -->
<g id="edge20" class="edge">
<title>BR1C1&#45;&gt;BR2C1</title>
<path fill="none" stroke="gray" d="M655,-178.55C655,-177.68 655,-176.8 655,-175.92"/>
<polygon fill="gray" stroke="gray" points="656.05,-176.03 655,-173.03 653.95,-176.03 656.05,-176.03"/>
</g>
<!-- BR1C0&#45;&gt;BR1C1 -->
<!-- BR2C0 -->
<!-- BR1C0&#45;&gt;BR2C0 -->
<!-- BR2C0&#45;&gt;BR2C1 -->
<!-- YR0C0 -->
<g id="node28" class="node">
<title>YR0C0</title>
<polygon fill="none" stroke="gray" points="765.88,-326.04 706.12,-326.04 706.12,-256.53 765.88,-256.53 765.88,-326.04"/>
<text text-anchor="start" x="715" y="-313.66" font-family="Menlo" font-size="10.00">0 false</text>
<text text-anchor="start" x="727" y="-300.91" font-family="Menlo" font-size="10.00">N Y</text>
<text text-anchor="start" x="709" y="-288.16" font-family="Menlo" font-size="10.00">fi [&lt;, x]</text>
<text text-anchor="start" x="709" y="-275.41" font-family="Menlo" font-size="10.00">fo [$, &gt;]</text>
<text text-anchor="start" x="730" y="-262.66" font-family="Menlo" font-size="10.00">[]</text>
</g>
<!-- YR0C1 -->
<g id="node29" class="node">
<title>YR0C1</title>
<polygon fill="none" stroke="gray" points="843.88,-326.04 784.12,-326.04 784.12,-256.53 843.88,-256.53 843.88,-326.04"/>
<text text-anchor="start" x="796" y="-313.66" font-family="Menlo" font-size="10.00">1 true</text>
<text text-anchor="start" x="802" y="-300.91" font-family="Menlo" font-size="10.00">ALT </text>
<text text-anchor="start" x="787" y="-288.16" font-family="Menlo" font-size="10.00">fi [&lt;, x]</text>
<text text-anchor="start" x="796" y="-275.41" font-family="Menlo" font-size="10.00">fo [&gt;]</text>
<text text-anchor="start" x="808" y="-262.66" font-family="Menlo" font-size="10.00">[]</text>
</g>
<!-- YR0C0&#45;&gt;YR0C1 -->
<g id="edge30" class="edge">
<title>YR0C0&#45;&gt;YR0C1</title>
<path fill="none" stroke="gray" d="M766.16,-291.29C770.56,-291.29 774.95,-291.29 779.34,-291.29"/>
<polygon fill="gray" stroke="gray" points="779.22,-292.34 782.22,-291.29 779.22,-290.24 779.22,-292.34"/>
</g>
<!-- YR1C0 -->
<!-- YR0C0&#45;&gt;YR1C0 -->
<!-- YR1C1 -->
<g id="node30" class="node">
<title>YR1C1</title>
<polygon fill="none" stroke="gray" points="843.88,-248.53 784.12,-248.53 784.12,-179.02 843.88,-179.02 843.88,-248.53"/>
<text text-anchor="start" x="796" y="-236.15" font-family="Menlo" font-size="10.00">2 true</text>
<text text-anchor="start" x="805" y="-223.4" font-family="Menlo" font-size="10.00">N S</text>
<text text-anchor="start" x="787" y="-210.65" font-family="Menlo" font-size="10.00">fi [&lt;, x]</text>
<text text-anchor="start" x="796" y="-197.9" font-family="Menlo" font-size="10.00">fo [&gt;]</text>
<text text-anchor="start" x="808" y="-185.15" font-family="Menlo" font-size="10.00">[]</text>
</g>
<!-- YR0C1&#45;&gt;YR1C1 -->
<g id="edge29" class="edge">
<title>YR0C1&#45;&gt;YR1C1</title>
<path fill="none" stroke="gray" d="M814,-256.06C814,-255.19 814,-254.31 814,-253.43"/>
<polygon fill="gray" stroke="gray" points="815.05,-253.54 814,-250.54 812.95,-253.54 815.05,-253.54"/>
</g>
<!-- YR2C1 -->
<g id="node31" class="node">
<title>YR2C1</title>
<polygon fill="none" stroke="gray" points="843.88,-171.02 784.12,-171.02 784.12,-101.51 843.88,-101.51 843.88,-171.02"/>
<text text-anchor="start" x="796" y="-158.64" font-family="Menlo" font-size="10.00">3 true</text>
<text text-anchor="start" x="799" y="-145.89" font-family="Menlo" font-size="10.00">T &quot;&gt;&quot;</text>
<text text-anchor="start" x="796" y="-133.14" font-family="Menlo" font-size="10.00">fi [&gt;]</text>
<text text-anchor="start" x="787" y="-120.39" font-family="Menlo" font-size="10.00">fo [$, &gt;]</text>
<text text-anchor="start" x="808" y="-107.64" font-family="Menlo" font-size="10.00">[]</text>
</g>
<!-- YR1C1&#45;&gt;YR2C1 -->
<g id="edge28" class="edge">
<title>YR1C1&#45;&gt;YR2C1</title>
<path fill="none" stroke="gray" d="M814,-178.55C814,-177.68 814,-176.8 814,-175.92"/>
<polygon fill="gray" stroke="gray" points="815.05,-176.03 814,-173.03 812.95,-176.03 815.05,-176.03"/>
</g>
<!-- YR3C1 -->
<g id="node32" class="node">
<title>YR3C1</title>
<polygon fill="none" stroke="gray" points="843.88,-85.51 784.12,-85.51 784.12,-16 843.88,-16 843.88,-85.51"/>
<text text-anchor="start" x="793" y="-73.13" font-family="Menlo" font-size="10.00">4 false</text>
<text text-anchor="start" x="802" y="-60.38" font-family="Menlo" font-size="10.00">END </text>
<text text-anchor="start" x="796" y="-47.63" font-family="Menlo" font-size="10.00">fi [ε]</text>
<text text-anchor="start" x="787" y="-34.88" font-family="Menlo" font-size="10.00">fo [$, &gt;]</text>
<text text-anchor="start" x="808" y="-22.13" font-family="Menlo" font-size="10.00">[]</text>
</g>
<!-- YR2C1&#45;&gt;YR3C1 -->
<g id="edge27" class="edge">
<title>YR2C1&#45;&gt;YR3C1</title>
<path fill="none" stroke="gray" d="M814,-101.3C814,-97.66 814,-93.95 814,-90.26"/>
<polygon fill="gray" stroke="gray" points="815.05,-90.48 814,-87.48 812.95,-90.48 815.05,-90.48"/>
</g>
<!-- YR1C0&#45;&gt;YR1C1 -->
<!-- YR2C0 -->
<!-- YR1C0&#45;&gt;YR2C0 -->
<!-- YR2C0&#45;&gt;YR2C1 -->
<!-- YR3C0 -->
<!-- YR2C0&#45;&gt;YR3C0 -->
<!-- YR3C0&#45;&gt;YR3C1 -->
</g>
</svg>
