<?xml version="1.0" encoding="UTF-8" standalone="no"?>
<!DOCTYPE svg PUBLIC "-//W3C//DTD SVG 1.1//EN"
 "http://www.w3.org/Graphics/SVG/1.1/DTD/svg11.dtd">
<!-- Generated by graphviz version 9.0.0 (20230911.1827)
 -->
<!-- Title: G Pages: 1 -->
<svg width="720pt" height="363pt"
 viewBox="0.00 0.00 720.00 362.79" xmlns="http://www.w3.org/2000/svg" xmlns:xlink="http://www.w3.org/1999/xlink">
<g id="graph0" class="graph" transform="scale(1 1) rotate(0) translate(4 358.79)">
<title>G</title>
<polygon fill="white" stroke="none" points="-4,4 -4,-358.79 716,-358.79 716,4 -4,4"/>
<g id="clust1" class="cluster">
<title>GSS</title>
<polygon fill="none" stroke="black" points="8,-188.52 8,-323.92 98,-323.92 98,-188.52 8,-188.52"/>
<text text-anchor="start" x="16" y="-310.42" font-family="Menlo" font-size="10.00" fill="green">ab↵</text>
</g>
<g id="clust2" class="cluster">
<title>clusterS</title>
<polygon fill="none" stroke="black" points="106,-8 106,-346.79 392,-346.79 392,-8 106,-8"/>
<text text-anchor="start" x="114" y="-333.29" font-family="Menlo" font-size="10.00">S = A &quot;b&quot; | A &quot;c&quot; .</text>
</g>
<g id="clust8" class="cluster">
<title>clusterA</title>
<polygon fill="none" stroke="black" points="400,-8 400,-346.79 704,-346.79 704,-8 400,-8"/>
<text text-anchor="start" x="408" y="-333.29" font-family="Menlo" font-size="10.00">A = [ &quot;a&quot; ] .</text>
</g>
<!-- E0 -->
<g id="node1" class="node">
<title>E0</title>
<path fill="none" stroke="gray" d="M82.21,-295.17C82.21,-295.17 69.79,-295.17 69.79,-295.17 65.83,-295.17 61.87,-291.21 61.87,-287.25 61.87,-287.25 61.87,-279.33 61.87,-279.33 61.87,-275.37 65.83,-271.41 69.79,-271.41 69.79,-271.41 82.21,-271.41 82.21,-271.41 86.17,-271.41 90.13,-275.37 90.13,-279.33 90.13,-279.33 90.13,-287.25 90.13,-287.25 90.13,-291.21 86.17,-295.17 82.21,-295.17"/>
<text text-anchor="start" x="70" y="-283.79" font-family="Menlo" font-size="10.00">E0</text>
<text text-anchor="start" x="64.75" y="-275.69" font-family="Menlo" font-size="8.00" fill="gray"> 0, 1</text>
</g>
<!-- ●○ -->
<g id="node2" class="node">
<title>●○</title>
<path fill="none" stroke="gray" d="M55.96,-215.03C55.96,-215.03 50.04,-215.03 50.04,-215.03 47.08,-215.03 44.12,-212.07 44.12,-209.11 44.12,-209.11 44.12,-202.44 44.12,-202.44 44.12,-199.48 47.08,-196.52 50.04,-196.52 50.04,-196.52 55.96,-196.52 55.96,-196.52 58.92,-196.52 61.88,-199.48 61.88,-202.44 61.88,-202.44 61.88,-209.11 61.88,-209.11 61.88,-212.07 58.92,-215.03 55.96,-215.03"/>
<text text-anchor="middle" x="53" y="-202.65" font-family="Menlo" font-size="10.00">●○</text>
</g>
<!-- E0&#45;&gt;●○ -->
<g id="edge1" class="edge">
<title>E0&#45;&gt;●○</title>
<path fill="none" stroke="gray" d="M72.61,-271.14C68.39,-257.31 61.23,-233.79 56.82,-219.33"/>
<polygon fill="gray" stroke="gray" points="57.87,-219.17 55.99,-216.61 55.86,-219.78 57.87,-219.17"/>
</g>
<!-- I0 -->
<g id="node3" class="node">
<title>I0</title>
<path fill="none" stroke="gray" d="M36.21,-295.17C36.21,-295.17 23.79,-295.17 23.79,-295.17 19.83,-295.17 15.87,-291.21 15.87,-287.25 15.87,-287.25 15.87,-279.33 15.87,-279.33 15.87,-275.37 19.83,-271.41 23.79,-271.41 23.79,-271.41 36.21,-271.41 36.21,-271.41 40.17,-271.41 44.13,-275.37 44.13,-279.33 44.13,-279.33 44.13,-287.25 44.13,-287.25 44.13,-291.21 40.17,-295.17 36.21,-295.17"/>
<text text-anchor="start" x="24" y="-283.79" font-family="Menlo" font-size="10.00">I0</text>
<text text-anchor="start" x="18.75" y="-275.69" font-family="Menlo" font-size="8.00" fill="gray"> 0, 1</text>
</g>
<!-- I0&#45;&gt;●○ -->
<g id="edge2" class="edge">
<title>I0&#45;&gt;●○</title>
<path fill="none" stroke="gray" d="M33.39,-271.14C37.61,-257.31 44.77,-233.79 49.18,-219.33"/>
<polygon fill="gray" stroke="gray" points="50.14,-219.78 50.01,-216.61 48.13,-219.17 50.14,-219.78"/>
</g>
<!-- SR0C0 -->
<g id="node4" class="node">
<title>SR0C0</title>
<polygon fill="none" stroke="gray" points="191.88,-318.04 114.12,-318.04 114.12,-248.53 191.88,-248.53 191.88,-318.04"/>
<text text-anchor="start" x="150" y="-305.66" font-family="Menlo" font-size="10.00">K</text>
<text text-anchor="start" x="144" y="-292.91" font-family="Menlo" font-size="10.00">N S</text>
<text text-anchor="start" x="117" y="-280.16" font-family="Menlo" font-size="10.00">fi [&quot;&quot;, &quot;a&quot;]</text>
<text text-anchor="start" x="129" y="-267.41" font-family="Menlo" font-size="10.00">fo [&quot;$&quot;]</text>
<text text-anchor="start" x="129" y="-254.66" font-family="Menlo" font-size="10.00">am [&quot;a&quot;]</text>
</g>
<!-- SR0C1 -->
<g id="node5" class="node">
<title>SR0C1</title>
<polygon fill="none" stroke="gray" points="287.88,-318.04 210.12,-318.04 210.12,-248.53 287.88,-248.53 287.88,-318.04"/>
<text text-anchor="start" x="246" y="-305.66" font-family="Menlo" font-size="10.00">C</text>
<text text-anchor="start" x="237" y="-292.91" font-family="Menlo" font-size="10.00">ALT </text>
<text text-anchor="start" x="213" y="-280.16" font-family="Menlo" font-size="10.00">fi [&quot;&quot;, &quot;a&quot;]</text>
<text text-anchor="start" x="225" y="-267.41" font-family="Menlo" font-size="10.00">fo [&quot;$&quot;]</text>
<text text-anchor="start" x="234" y="-254.66" font-family="Menlo" font-size="10.00">am []</text>
</g>
<!-- SR0C0&#45;&gt;SR0C1 -->
<g id="edge10" class="edge">
<title>SR0C0&#45;&gt;SR0C1</title>
<path fill="none" stroke="gray" d="M192.38,-283.29C196.69,-283.29 201,-283.29 205.31,-283.29"/>
<polygon fill="gray" stroke="gray" points="205.11,-284.34 208.11,-283.29 205.11,-282.24 205.11,-284.34"/>
</g>
<!-- SR1C0 -->
<!-- SR0C0&#45;&gt;SR1C0 -->
<!-- SR1C1 -->
<g id="node6" class="node">
<title>SR1C1</title>
<polygon fill="none" stroke="gray" points="287.88,-240.53 210.12,-240.53 210.12,-171.02 287.88,-171.02 287.88,-240.53"/>
<text text-anchor="start" x="246" y="-228.15" font-family="Menlo" font-size="10.00">D</text>
<text text-anchor="start" x="240" y="-215.4" font-family="Menlo" font-size="10.00">N A</text>
<text text-anchor="start" x="213" y="-202.65" font-family="Menlo" font-size="10.00">fi [&quot;&quot;, &quot;a&quot;]</text>
<text text-anchor="start" x="225" y="-189.9" font-family="Menlo" font-size="10.00">fo [&quot;b&quot;]</text>
<text text-anchor="start" x="234" y="-177.15" font-family="Menlo" font-size="10.00">am []</text>
</g>
<!-- SR0C1&#45;&gt;SR1C1 -->
<g id="edge5" class="edge">
<title>SR0C1&#45;&gt;SR1C1</title>
<path fill="none" stroke="gray" d="M249,-248.06C249,-247.19 249,-246.31 249,-245.43"/>
<polygon fill="gray" stroke="gray" points="250.05,-245.54 249,-242.54 247.95,-245.54 250.05,-245.54"/>
</g>
<!-- SR0C2 -->
<g id="node9" class="node">
<title>SR0C2</title>
<polygon fill="none" stroke="gray" points="383.88,-318.04 306.12,-318.04 306.12,-248.53 383.88,-248.53 383.88,-318.04"/>
<text text-anchor="start" x="342" y="-305.66" font-family="Menlo" font-size="10.00">G</text>
<text text-anchor="start" x="333" y="-292.91" font-family="Menlo" font-size="10.00">ALT </text>
<text text-anchor="start" x="309" y="-280.16" font-family="Menlo" font-size="10.00">fi [&quot;&quot;, &quot;a&quot;]</text>
<text text-anchor="start" x="321" y="-267.41" font-family="Menlo" font-size="10.00">fo [&quot;$&quot;]</text>
<text text-anchor="start" x="330" y="-254.66" font-family="Menlo" font-size="10.00">am []</text>
</g>
<!-- SR0C1&#45;&gt;SR0C2 -->
<g id="edge9" class="edge">
<title>SR0C1&#45;&gt;SR0C2</title>
<path fill="none" stroke="gray" d="M288.38,-283.29C292.69,-283.29 297,-283.29 301.31,-283.29"/>
<polygon fill="gray" stroke="gray" points="301.11,-284.34 304.11,-283.29 301.11,-282.24 301.11,-284.34"/>
</g>
<!-- SR2C1 -->
<g id="node7" class="node">
<title>SR2C1</title>
<polygon fill="none" stroke="gray" points="275.88,-163.02 222.12,-163.02 222.12,-93.51 275.88,-93.51 275.88,-163.02"/>
<text text-anchor="start" x="246" y="-150.64" font-family="Menlo" font-size="10.00">E</text>
<text text-anchor="start" x="234" y="-137.89" font-family="Menlo" font-size="10.00">T &quot;b&quot;</text>
<text text-anchor="start" x="225" y="-125.14" font-family="Menlo" font-size="10.00">fi [&quot;b&quot;]</text>
<text text-anchor="start" x="225" y="-112.39" font-family="Menlo" font-size="10.00">fo [&quot;$&quot;]</text>
<text text-anchor="start" x="234" y="-99.64" font-family="Menlo" font-size="10.00">am []</text>
</g>
<!-- SR1C1&#45;&gt;SR2C1 -->
<g id="edge4" class="edge">
<title>SR1C1&#45;&gt;SR2C1</title>
<path fill="none" stroke="gray" d="M249,-170.55C249,-169.68 249,-168.8 249,-167.92"/>
<polygon fill="gray" stroke="gray" points="250.05,-168.03 249,-165.03 247.95,-168.03 250.05,-168.03"/>
</g>
<!-- SR3C1 -->
<g id="node8" class="node">
<title>SR3C1</title>
<polygon fill="none" stroke="gray" points="275.88,-85.51 222.12,-85.51 222.12,-16 275.88,-16 275.88,-85.51"/>
<text text-anchor="start" x="246" y="-73.13" font-family="Menlo" font-size="10.00">F</text>
<text text-anchor="start" x="237" y="-60.38" font-family="Menlo" font-size="10.00">END </text>
<text text-anchor="start" x="228" y="-47.63" font-family="Menlo" font-size="10.00">fi [&quot;&quot;]</text>
<text text-anchor="start" x="225" y="-34.88" font-family="Menlo" font-size="10.00">fo [&quot;$&quot;]</text>
<text text-anchor="start" x="234" y="-22.13" font-family="Menlo" font-size="10.00">am []</text>
</g>
<!-- SR2C1&#45;&gt;SR3C1 -->
<g id="edge3" class="edge">
<title>SR2C1&#45;&gt;SR3C1</title>
<path fill="none" stroke="gray" d="M249,-93.04C249,-92.17 249,-91.29 249,-90.41"/>
<polygon fill="gray" stroke="gray" points="250.05,-90.52 249,-87.52 247.95,-90.52 250.05,-90.52"/>
</g>
<!-- SR1C2 -->
<g id="node10" class="node">
<title>SR1C2</title>
<polygon fill="none" stroke="gray" points="383.88,-240.53 306.12,-240.53 306.12,-171.02 383.88,-171.02 383.88,-240.53"/>
<text text-anchor="start" x="342" y="-228.15" font-family="Menlo" font-size="10.00">H</text>
<text text-anchor="start" x="336" y="-215.4" font-family="Menlo" font-size="10.00">N A</text>
<text text-anchor="start" x="309" y="-202.65" font-family="Menlo" font-size="10.00">fi [&quot;&quot;, &quot;a&quot;]</text>
<text text-anchor="start" x="321" y="-189.9" font-family="Menlo" font-size="10.00">fo [&quot;c&quot;]</text>
<text text-anchor="start" x="330" y="-177.15" font-family="Menlo" font-size="10.00">am []</text>
</g>
<!-- SR0C2&#45;&gt;SR1C2 -->
<g id="edge8" class="edge">
<title>SR0C2&#45;&gt;SR1C2</title>
<path fill="none" stroke="gray" d="M345,-248.06C345,-247.19 345,-246.31 345,-245.43"/>
<polygon fill="gray" stroke="gray" points="346.05,-245.54 345,-242.54 343.95,-245.54 346.05,-245.54"/>
</g>
<!-- SR2C2 -->
<g id="node11" class="node">
<title>SR2C2</title>
<polygon fill="none" stroke="gray" points="371.88,-163.02 318.12,-163.02 318.12,-93.51 371.88,-93.51 371.88,-163.02"/>
<text text-anchor="start" x="342" y="-150.64" font-family="Menlo" font-size="10.00">I</text>
<text text-anchor="start" x="330" y="-137.89" font-family="Menlo" font-size="10.00">T &quot;c&quot;</text>
<text text-anchor="start" x="321" y="-125.14" font-family="Menlo" font-size="10.00">fi [&quot;c&quot;]</text>
<text text-anchor="start" x="321" y="-112.39" font-family="Menlo" font-size="10.00">fo [&quot;$&quot;]</text>
<text text-anchor="start" x="330" y="-99.64" font-family="Menlo" font-size="10.00">am []</text>
</g>
<!-- SR1C2&#45;&gt;SR2C2 -->
<g id="edge7" class="edge">
<title>SR1C2&#45;&gt;SR2C2</title>
<path fill="none" stroke="gray" d="M345,-170.55C345,-169.68 345,-168.8 345,-167.92"/>
<polygon fill="gray" stroke="gray" points="346.05,-168.03 345,-165.03 343.95,-168.03 346.05,-168.03"/>
</g>
<!-- SR3C2 -->
<g id="node12" class="node">
<title>SR3C2</title>
<polygon fill="none" stroke="gray" points="371.88,-85.51 318.12,-85.51 318.12,-16 371.88,-16 371.88,-85.51"/>
<text text-anchor="start" x="342" y="-73.13" font-family="Menlo" font-size="10.00">J</text>
<text text-anchor="start" x="333" y="-60.38" font-family="Menlo" font-size="10.00">END </text>
<text text-anchor="start" x="324" y="-47.63" font-family="Menlo" font-size="10.00">fi [&quot;&quot;]</text>
<text text-anchor="start" x="321" y="-34.88" font-family="Menlo" font-size="10.00">fo [&quot;$&quot;]</text>
<text text-anchor="start" x="330" y="-22.13" font-family="Menlo" font-size="10.00">am []</text>
</g>
<!-- SR2C2&#45;&gt;SR3C2 -->
<g id="edge6" class="edge">
<title>SR2C2&#45;&gt;SR3C2</title>
<path fill="none" stroke="gray" d="M345,-93.04C345,-92.17 345,-91.29 345,-90.41"/>
<polygon fill="gray" stroke="gray" points="346.05,-90.52 345,-87.52 343.95,-90.52 346.05,-90.52"/>
</g>
<!-- SR1C0&#45;&gt;SR1C1 -->
<!-- SR2C0 -->
<!-- SR1C0&#45;&gt;SR2C0 -->
<!-- SR2C0&#45;&gt;SR2C1 -->
<!-- SR3C0 -->
<!-- SR2C0&#45;&gt;SR3C0 -->
<!-- SR3C0&#45;&gt;SR3C1 -->
<!-- AR0C0 -->
<g id="node16" class="node">
<title>AR0C0</title>
<polygon fill="none" stroke="gray" points="491.88,-318.04 408.12,-318.04 408.12,-248.53 491.88,-248.53 491.88,-318.04"/>
<text text-anchor="start" x="447" y="-305.66" font-family="Menlo" font-size="10.00">R</text>
<text text-anchor="start" x="441" y="-292.91" font-family="Menlo" font-size="10.00">N A</text>
<text text-anchor="start" x="414" y="-280.16" font-family="Menlo" font-size="10.00">fi [&quot;&quot;, &quot;a&quot;]</text>
<text text-anchor="start" x="411" y="-267.41" font-family="Menlo" font-size="10.00">fo [&quot;b&quot;, &quot;c&quot;]</text>
<text text-anchor="start" x="435" y="-254.66" font-family="Menlo" font-size="10.00">am []</text>
</g>
<!-- AR0C1 -->
<g id="node17" class="node">
<title>AR0C1</title>
<polygon fill="none" stroke="gray" points="593.88,-318.04 510.12,-318.04 510.12,-248.53 593.88,-248.53 593.88,-318.04"/>
<text text-anchor="start" x="549" y="-305.66" font-family="Menlo" font-size="10.00">L</text>
<text text-anchor="start" x="540" y="-292.91" font-family="Menlo" font-size="10.00">ALT </text>
<text text-anchor="start" x="516" y="-280.16" font-family="Menlo" font-size="10.00">fi [&quot;&quot;, &quot;a&quot;]</text>
<text text-anchor="start" x="513" y="-267.41" font-family="Menlo" font-size="10.00">fo [&quot;b&quot;, &quot;c&quot;]</text>
<text text-anchor="start" x="537" y="-254.66" font-family="Menlo" font-size="10.00">am []</text>
</g>
<!-- AR0C0&#45;&gt;AR0C1 -->
<g id="edge22" class="edge">
<title>AR0C0&#45;&gt;AR0C1</title>
<path fill="none" stroke="gray" d="M492.23,-283.29C496.67,-283.29 501.11,-283.29 505.54,-283.29"/>
<polygon fill="gray" stroke="gray" points="505.46,-284.34 508.46,-283.29 505.46,-282.24 505.46,-284.34"/>
</g>
<!-- AR1C0 -->
<!-- AR0C0&#45;&gt;AR1C0 -->
<!-- AR1C1 -->
<g id="node18" class="node">
<title>AR1C1</title>
<polygon fill="none" stroke="gray" points="593.88,-240.53 510.12,-240.53 510.12,-171.02 593.88,-171.02 593.88,-240.53"/>
<text text-anchor="start" x="549" y="-228.15" font-family="Menlo" font-size="10.00">P</text>
<text text-anchor="start" x="540" y="-215.4" font-family="Menlo" font-size="10.00">OPT </text>
<text text-anchor="start" x="516" y="-202.65" font-family="Menlo" font-size="10.00">fi [&quot;&quot;, &quot;a&quot;]</text>
<text text-anchor="start" x="513" y="-189.9" font-family="Menlo" font-size="10.00">fo [&quot;b&quot;, &quot;c&quot;]</text>
<text text-anchor="start" x="537" y="-177.15" font-family="Menlo" font-size="10.00">am []</text>
</g>
<!-- AR0C1&#45;&gt;AR1C1 -->
<g id="edge21" class="edge">
<title>AR0C1&#45;&gt;AR1C1</title>
<path fill="none" stroke="gray" d="M552,-248.06C552,-247.19 552,-246.31 552,-245.43"/>
<polygon fill="gray" stroke="gray" points="553.05,-245.54 552,-242.54 550.95,-245.54 553.05,-245.54"/>
</g>
<!-- AR0C2 -->
<!-- AR0C1&#45;&gt;AR0C2 -->
<!-- AR2C1 -->
<g id="node19" class="node">
<title>AR2C1</title>
<polygon fill="none" stroke="gray" points="593.88,-163.02 510.12,-163.02 510.12,-93.51 593.88,-93.51 593.88,-163.02"/>
<text text-anchor="start" x="549" y="-150.64" font-family="Menlo" font-size="10.00">Q</text>
<text text-anchor="start" x="540" y="-137.89" font-family="Menlo" font-size="10.00">END </text>
<text text-anchor="start" x="531" y="-125.14" font-family="Menlo" font-size="10.00">fi [&quot;&quot;]</text>
<text text-anchor="start" x="513" y="-112.39" font-family="Menlo" font-size="10.00">fo [&quot;b&quot;, &quot;c&quot;]</text>
<text text-anchor="start" x="537" y="-99.64" font-family="Menlo" font-size="10.00">am []</text>
</g>
<!-- AR1C1&#45;&gt;AR2C1 -->
<g id="edge17" class="edge">
<title>AR1C1&#45;&gt;AR2C1</title>
<path fill="none" stroke="gray" d="M552,-170.55C552,-169.68 552,-168.8 552,-167.92"/>
<polygon fill="gray" stroke="gray" points="553.05,-168.03 552,-165.03 550.95,-168.03 553.05,-168.03"/>
</g>
<!-- AR1C2 -->
<g id="node20" class="node">
<title>AR1C2</title>
<polygon fill="none" stroke="gray" points="695.88,-240.53 612.12,-240.53 612.12,-171.02 695.88,-171.02 695.88,-240.53"/>
<text text-anchor="start" x="651" y="-228.15" font-family="Menlo" font-size="10.00">M</text>
<text text-anchor="start" x="642" y="-215.4" font-family="Menlo" font-size="10.00">ALT </text>
<text text-anchor="start" x="630" y="-202.65" font-family="Menlo" font-size="10.00">fi [&quot;a&quot;]</text>
<text text-anchor="start" x="615" y="-189.9" font-family="Menlo" font-size="10.00">fo [&quot;b&quot;, &quot;c&quot;]</text>
<text text-anchor="start" x="639" y="-177.15" font-family="Menlo" font-size="10.00">am []</text>
</g>
<!-- AR1C1&#45;&gt;AR1C2 -->
<g id="edge20" class="edge">
<title>AR1C1&#45;&gt;AR1C2</title>
<path fill="none" stroke="gray" d="M594.23,-205.78C598.67,-205.78 603.11,-205.78 607.54,-205.78"/>
<polygon fill="gray" stroke="gray" points="607.46,-206.83 610.46,-205.78 607.46,-204.73 607.46,-206.83"/>
</g>
<!-- AR3C1 -->
<!-- AR2C1&#45;&gt;AR3C1 -->
<!-- AR2C2 -->
<g id="node21" class="node">
<title>AR2C2</title>
<polygon fill="none" stroke="gray" points="695.88,-163.02 612.12,-163.02 612.12,-93.51 695.88,-93.51 695.88,-163.02"/>
<text text-anchor="start" x="651" y="-150.64" font-family="Menlo" font-size="10.00">N</text>
<text text-anchor="start" x="639" y="-137.89" font-family="Menlo" font-size="10.00">T &quot;a&quot;</text>
<text text-anchor="start" x="630" y="-125.14" font-family="Menlo" font-size="10.00">fi [&quot;a&quot;]</text>
<text text-anchor="start" x="615" y="-112.39" font-family="Menlo" font-size="10.00">fo [&quot;b&quot;, &quot;c&quot;]</text>
<text text-anchor="start" x="639" y="-99.64" font-family="Menlo" font-size="10.00">am []</text>
</g>
<!-- AR1C2&#45;&gt;AR2C2 -->
<g id="edge19" class="edge">
<title>AR1C2&#45;&gt;AR2C2</title>
<path fill="none" stroke="gray" d="M654,-170.55C654,-169.68 654,-168.8 654,-167.92"/>
<polygon fill="gray" stroke="gray" points="655.05,-168.03 654,-165.03 652.95,-168.03 655.05,-168.03"/>
</g>
<!-- AR3C2 -->
<g id="node22" class="node">
<title>AR3C2</title>
<polygon fill="none" stroke="gray" points="695.88,-85.51 612.12,-85.51 612.12,-16 695.88,-16 695.88,-85.51"/>
<text text-anchor="start" x="651" y="-73.13" font-family="Menlo" font-size="10.00">O</text>
<text text-anchor="start" x="642" y="-60.38" font-family="Menlo" font-size="10.00">END </text>
<text text-anchor="start" x="633" y="-47.63" font-family="Menlo" font-size="10.00">fi [&quot;&quot;]</text>
<text text-anchor="start" x="615" y="-34.88" font-family="Menlo" font-size="10.00">fo [&quot;b&quot;, &quot;c&quot;]</text>
<text text-anchor="start" x="639" y="-22.13" font-family="Menlo" font-size="10.00">am []</text>
</g>
<!-- AR2C2&#45;&gt;AR3C2 -->
<g id="edge18" class="edge">
<title>AR2C2&#45;&gt;AR3C2</title>
<path fill="none" stroke="gray" d="M654,-93.04C654,-92.17 654,-91.29 654,-90.41"/>
<polygon fill="gray" stroke="gray" points="655.05,-90.52 654,-87.52 652.95,-90.52 655.05,-90.52"/>
</g>
<!-- AR0C2&#45;&gt;AR1C2 -->
<!-- AR1C0&#45;&gt;AR1C1 -->
<!-- AR2C0 -->
<!-- AR1C0&#45;&gt;AR2C0 -->
<!-- AR2C0&#45;&gt;AR2C1 -->
<!-- AR3C0 -->
<!-- AR2C0&#45;&gt;AR3C0 -->
<!-- AR3C0&#45;&gt;AR3C1 -->
<!-- AR3C1&#45;&gt;AR3C2 -->
</g>
</svg>
