<?xml version="1.0" encoding="UTF-8" standalone="no"?>
<!DOCTYPE svg PUBLIC "-//W3C//DTD SVG 1.1//EN"
 "http://www.w3.org/Graphics/SVG/1.1/DTD/svg11.dtd">
<!-- Generated by graphviz version 9.0.0 (20230911.1827)
 -->
<!-- Title: G Pages: 1 -->
<svg width="901pt" height="363pt"
 viewBox="0.00 0.00 901.00 362.79" xmlns="http://www.w3.org/2000/svg" xmlns:xlink="http://www.w3.org/1999/xlink">
<g id="graph0" class="graph" transform="scale(1 1) rotate(0) translate(4 358.79)">
<title>G</title>
<polygon fill="white" stroke="none" points="-4,4 -4,-358.79 897,-358.79 897,4 -4,4"/>
<g id="clust1" class="cluster">
<title>CallReturnForest</title>
<polygon fill="none" stroke="black" points="8,-188.52 8,-323.92 270,-323.92 270,-188.52 8,-188.52"/>
<text text-anchor="start" x="16" y="-310.42" font-family="Menlo" font-size="10.00" fill="green">↵&lt;&lt;·x·&gt;&gt;↵</text>
</g>
<g id="clust2" class="cluster">
<title>clusterS</title>
<polygon fill="none" stroke="black" points="278,-8 278,-346.79 654,-346.79 654,-8 278,-8"/>
<text text-anchor="start" x="286" y="-333.29" font-family="Menlo" font-size="10.00">S = &quot;x&quot; | &quot;&lt;&quot; Y .</text>
</g>
<g id="clust9" class="cluster">
<title>clusterY</title>
<polygon fill="none" stroke="black" points="662,-8 662,-346.79 885,-346.79 885,-8 662,-8"/>
<text text-anchor="start" x="670" y="-333.29" font-family="Menlo" font-size="10.00">Y = S &quot;&gt;&quot; .</text>
</g>
<!-- 0.1 -->
<g id="node1" class="node">
<title>0.1</title>
<path fill="none" stroke="gray" d="M241.96,-295.17C241.96,-295.17 234.04,-295.17 234.04,-295.17 230.08,-295.17 226.12,-291.21 226.12,-287.25 226.12,-287.25 226.12,-279.33 226.12,-279.33 226.12,-275.37 230.08,-271.41 234.04,-271.41 234.04,-271.41 241.96,-271.41 241.96,-271.41 245.92,-271.41 249.88,-275.37 249.88,-279.33 249.88,-279.33 249.88,-287.25 249.88,-287.25 249.88,-291.21 245.92,-295.17 241.96,-295.17"/>
<text text-anchor="start" x="229" y="-283.79" font-family="Menlo" font-size="10.00">Y,1</text>
<text text-anchor="start" x="233.5" y="-275.69" font-family="Menlo" font-size="8.00" fill="gray"> 4</text>
</g>
<!-- 11.0 -->
<g id="node2" class="node">
<title>11.0</title>
<path fill="none" stroke="gray" d="M255.71,-215.03C255.71,-215.03 220.29,-215.03 220.29,-215.03 217.21,-215.03 214.12,-211.95 214.12,-208.86 214.12,-208.86 214.12,-202.69 214.12,-202.69 214.12,-199.61 217.21,-196.52 220.29,-196.52 220.29,-196.52 255.71,-196.52 255.71,-196.52 258.8,-196.52 261.88,-199.61 261.88,-202.69 261.88,-202.69 261.88,-208.86 261.88,-208.86 261.88,-211.95 258.8,-215.03 255.71,-215.03"/>
<text text-anchor="start" x="217" y="-202.65" font-family="Menlo" font-size="10.00">S=&lt;Y·,0</text>
</g>
<!-- 0.1&#45;&gt;11.0 -->
<g id="edge1" class="edge">
<title>0.1&#45;&gt;11.0</title>
<path fill="none" stroke="gray" d="M238,-271.14C238,-257.31 238,-233.79 238,-219.33"/>
<polygon fill="gray" stroke="gray" points="239.05,-219.67 238,-216.67 236.95,-219.67 239.05,-219.67"/>
</g>
<!-- 0.2 -->
<g id="node3" class="node">
<title>0.2</title>
<path fill="none" stroke="gray" d="M184.96,-295.17C184.96,-295.17 177.04,-295.17 177.04,-295.17 173.08,-295.17 169.12,-291.21 169.12,-287.25 169.12,-287.25 169.12,-279.33 169.12,-279.33 169.12,-275.37 173.08,-271.41 177.04,-271.41 177.04,-271.41 184.96,-271.41 184.96,-271.41 188.92,-271.41 192.88,-275.37 192.88,-279.33 192.88,-279.33 192.88,-287.25 192.88,-287.25 192.88,-291.21 188.92,-295.17 184.96,-295.17"/>
<text text-anchor="start" x="172" y="-283.79" font-family="Menlo" font-size="10.00">Y,2</text>
<text text-anchor="start" x="172" y="-275.69" font-family="Menlo" font-size="8.00" fill="gray"> 3.1</text>
</g>
<!-- 11.1 -->
<g id="node4" class="node">
<title>11.1</title>
<path fill="none" stroke="gray" d="M189.71,-215.03C189.71,-215.03 154.29,-215.03 154.29,-215.03 151.21,-215.03 148.12,-211.95 148.12,-208.86 148.12,-208.86 148.12,-202.69 148.12,-202.69 148.12,-199.61 151.21,-196.52 154.29,-196.52 154.29,-196.52 189.71,-196.52 189.71,-196.52 192.79,-196.52 195.88,-199.61 195.88,-202.69 195.88,-202.69 195.88,-208.86 195.88,-208.86 195.88,-211.95 192.79,-215.03 189.71,-215.03"/>
<text text-anchor="start" x="151" y="-202.65" font-family="Menlo" font-size="10.00">S=&lt;Y·,1</text>
</g>
<!-- 0.2&#45;&gt;11.1 -->
<g id="edge2" class="edge">
<title>0.2&#45;&gt;11.1</title>
<path fill="none" stroke="gray" d="M179.67,-271.14C178.02,-257.31 175.22,-233.79 173.5,-219.33"/>
<polygon fill="gray" stroke="gray" points="174.58,-219.52 173.18,-216.66 172.49,-219.76 174.58,-219.52"/>
</g>
<!-- 5.0 -->
<g id="node5" class="node">
<title>5.0</title>
<path fill="none" stroke="gray" d="M142.96,-295.17C142.96,-295.17 135.04,-295.17 135.04,-295.17 131.08,-295.17 127.12,-291.21 127.12,-287.25 127.12,-287.25 127.12,-279.33 127.12,-279.33 127.12,-275.37 131.08,-271.41 135.04,-271.41 135.04,-271.41 142.96,-271.41 142.96,-271.41 146.92,-271.41 150.88,-275.37 150.88,-279.33 150.88,-279.33 150.88,-287.25 150.88,-287.25 150.88,-291.21 146.92,-295.17 142.96,-295.17"/>
<text text-anchor="start" x="130" y="-283.79" font-family="Menlo" font-size="10.00">S,0</text>
<text text-anchor="start" x="134.5" y="-275.69" font-family="Menlo" font-size="8.00" fill="gray"> 4</text>
</g>
<!-- 5.1 -->
<g id="node6" class="node">
<title>5.1</title>
<path fill="none" stroke="gray" d="M100.96,-295.17C100.96,-295.17 93.04,-295.17 93.04,-295.17 89.08,-295.17 85.12,-291.21 85.12,-287.25 85.12,-287.25 85.12,-279.33 85.12,-279.33 85.12,-275.37 89.08,-271.41 93.04,-271.41 93.04,-271.41 100.96,-271.41 100.96,-271.41 104.92,-271.41 108.88,-275.37 108.88,-279.33 108.88,-279.33 108.88,-287.25 108.88,-287.25 108.88,-291.21 104.92,-295.17 100.96,-295.17"/>
<text text-anchor="start" x="88" y="-283.79" font-family="Menlo" font-size="10.00">S,1</text>
<text text-anchor="start" x="88" y="-275.69" font-family="Menlo" font-size="8.00" fill="gray"> 3.1</text>
</g>
<!-- 2.1 -->
<g id="node7" class="node">
<title>2.1</title>
<path fill="none" stroke="gray" d="M123.71,-215.03C123.71,-215.03 88.29,-215.03 88.29,-215.03 85.2,-215.03 82.12,-211.95 82.12,-208.86 82.12,-208.86 82.12,-202.69 82.12,-202.69 82.12,-199.61 85.2,-196.52 88.29,-196.52 88.29,-196.52 123.71,-196.52 123.71,-196.52 126.8,-196.52 129.88,-199.61 129.88,-202.69 129.88,-202.69 129.88,-208.86 129.88,-208.86 129.88,-211.95 126.8,-215.03 123.71,-215.03"/>
<text text-anchor="start" x="85" y="-202.65" font-family="Menlo" font-size="10.00">Y=S·&gt;,1</text>
</g>
<!-- 5.1&#45;&gt;2.1 -->
<g id="edge3" class="edge">
<title>5.1&#45;&gt;2.1</title>
<path fill="none" stroke="gray" d="M98.33,-271.14C99.98,-257.31 102.78,-233.79 104.5,-219.33"/>
<polygon fill="gray" stroke="gray" points="105.51,-219.76 104.82,-216.66 103.42,-219.52 105.51,-219.76"/>
</g>
<!-- 5.2 -->
<g id="node8" class="node">
<title>5.2</title>
<path fill="none" stroke="gray" d="M43.96,-295.17C43.96,-295.17 36.04,-295.17 36.04,-295.17 32.08,-295.17 28.12,-291.21 28.12,-287.25 28.12,-287.25 28.12,-279.33 28.12,-279.33 28.12,-275.37 32.08,-271.41 36.04,-271.41 36.04,-271.41 43.96,-271.41 43.96,-271.41 47.92,-271.41 51.88,-275.37 51.88,-279.33 51.88,-279.33 51.88,-287.25 51.88,-287.25 51.88,-291.21 47.92,-295.17 43.96,-295.17"/>
<text text-anchor="start" x="31" y="-283.79" font-family="Menlo" font-size="10.00">S,2</text>
<text text-anchor="start" x="35.5" y="-275.69" font-family="Menlo" font-size="8.00" fill="gray"> 3</text>
</g>
<!-- 2.2 -->
<g id="node9" class="node">
<title>2.2</title>
<path fill="none" stroke="gray" d="M57.71,-215.03C57.71,-215.03 22.29,-215.03 22.29,-215.03 19.21,-215.03 16.12,-211.95 16.12,-208.86 16.12,-208.86 16.12,-202.69 16.12,-202.69 16.12,-199.61 19.2,-196.52 22.29,-196.52 22.29,-196.52 57.71,-196.52 57.71,-196.52 60.79,-196.52 63.88,-199.61 63.88,-202.69 63.88,-202.69 63.88,-208.86 63.88,-208.86 63.88,-211.95 60.79,-215.03 57.71,-215.03"/>
<text text-anchor="start" x="19" y="-202.65" font-family="Menlo" font-size="10.00">Y=S·&gt;,2</text>
</g>
<!-- 5.2&#45;&gt;2.2 -->
<g id="edge4" class="edge">
<title>5.2&#45;&gt;2.2</title>
<path fill="none" stroke="gray" d="M40,-271.14C40,-257.31 40,-233.79 40,-219.33"/>
<polygon fill="gray" stroke="gray" points="41.05,-219.67 40,-216.67 38.95,-219.67 41.05,-219.67"/>
</g>
<!-- SR0C0 -->
<g id="node10" class="node">
<title>SR0C0</title>
<polygon fill="none" stroke="gray" points="429.88,-318.04 286.12,-318.04 286.12,-248.53 429.88,-248.53 429.88,-318.04"/>
<text text-anchor="start" x="355" y="-305.66" font-family="Menlo" font-size="10.00">5</text>
<text text-anchor="start" x="349" y="-292.91" font-family="Menlo" font-size="10.00">N S</text>
<text text-anchor="start" x="331" y="-280.16" font-family="Menlo" font-size="10.00">fi [&lt;, x]</text>
<text text-anchor="start" x="322" y="-267.41" font-family="Menlo" font-size="10.00">fo [&gt;, ≋, ○]</text>
<text text-anchor="start" x="289" y="-254.66" font-family="Menlo" font-size="10.00">[0:0:4, 1:1:3.1, 2:2:3]</text>
</g>
<!-- SR0C1 -->
<g id="node11" class="node">
<title>SR0C1</title>
<polygon fill="none" stroke="gray" points="525.88,-318.04 448.12,-318.04 448.12,-248.53 525.88,-248.53 525.88,-318.04"/>
<text text-anchor="start" x="484" y="-305.66" font-family="Menlo" font-size="10.00">6</text>
<text text-anchor="start" x="475" y="-292.91" font-family="Menlo" font-size="10.00">ALT </text>
<text text-anchor="start" x="469" y="-280.16" font-family="Menlo" font-size="10.00">fi [x]</text>
<text text-anchor="start" x="451" y="-267.41" font-family="Menlo" font-size="10.00">fo [&gt;, ≋, ○]</text>
<text text-anchor="start" x="481" y="-254.66" font-family="Menlo" font-size="10.00">[]</text>
</g>
<!-- SR0C0&#45;&gt;SR0C1 -->
<g id="edge11" class="edge">
<title>SR0C0&#45;&gt;SR0C1</title>
<path fill="none" stroke="gray" d="M430.31,-283.29C434.74,-283.29 439.17,-283.29 443.6,-283.29"/>
<polygon fill="gray" stroke="gray" points="443.51,-284.34 446.51,-283.29 443.51,-282.24 443.51,-284.34"/>
</g>
<!-- SR1C0 -->
<!-- SR0C0&#45;&gt;SR1C0 -->
<!-- SR1C1 -->
<g id="node12" class="node">
<title>SR1C1</title>
<polygon fill="none" stroke="gray" points="525.88,-240.53 448.12,-240.53 448.12,-171.02 525.88,-171.02 525.88,-240.53"/>
<text text-anchor="start" x="484" y="-228.15" font-family="Menlo" font-size="10.00">7</text>
<text text-anchor="start" x="472" y="-215.4" font-family="Menlo" font-size="10.00">T &quot;x&quot;</text>
<text text-anchor="start" x="469" y="-202.65" font-family="Menlo" font-size="10.00">fi [x]</text>
<text text-anchor="start" x="451" y="-189.9" font-family="Menlo" font-size="10.00">fo [&gt;, ≋, ○]</text>
<text text-anchor="start" x="466" y="-177.15" font-family="Menlo" font-size="10.00">[2:2:3]</text>
</g>
<!-- SR0C1&#45;&gt;SR1C1 -->
<g id="edge6" class="edge">
<title>SR0C1&#45;&gt;SR1C1</title>
<path fill="none" stroke="gray" d="M487,-248.06C487,-247.19 487,-246.31 487,-245.43"/>
<polygon fill="gray" stroke="gray" points="488.05,-245.54 487,-242.54 485.95,-245.54 488.05,-245.54"/>
</g>
<!-- SR0C2 -->
<g id="node14" class="node">
<title>SR0C2</title>
<polygon fill="none" stroke="gray" points="624.88,-318.04 565.12,-318.04 565.12,-248.53 624.88,-248.53 624.88,-318.04"/>
<text text-anchor="start" x="592" y="-305.66" font-family="Menlo" font-size="10.00">9</text>
<text text-anchor="start" x="583" y="-292.91" font-family="Menlo" font-size="10.00">ALT </text>
<text text-anchor="start" x="577" y="-280.16" font-family="Menlo" font-size="10.00">fi [&lt;]</text>
<text text-anchor="start" x="568" y="-267.41" font-family="Menlo" font-size="10.00">fo [&lt;, x]</text>
<text text-anchor="start" x="589" y="-254.66" font-family="Menlo" font-size="10.00">[]</text>
</g>
<!-- SR0C1&#45;&gt;SR0C2 -->
<g id="edge10" class="edge">
<title>SR0C1&#45;&gt;SR0C2</title>
<path fill="none" stroke="gray" d="M526.23,-283.29C537.54,-283.29 548.84,-283.29 560.15,-283.29"/>
<polygon fill="gray" stroke="gray" points="560.13,-284.34 563.13,-283.29 560.13,-282.24 560.13,-284.34"/>
</g>
<!-- SR2C1 -->
<g id="node13" class="node">
<title>SR2C1</title>
<polygon fill="none" stroke="gray" points="525.88,-163.02 448.12,-163.02 448.12,-93.51 525.88,-93.51 525.88,-163.02"/>
<text text-anchor="start" x="484" y="-150.64" font-family="Menlo" font-size="10.00">8</text>
<text text-anchor="start" x="475" y="-137.89" font-family="Menlo" font-size="10.00">END </text>
<text text-anchor="start" x="472" y="-125.14" font-family="Menlo" font-size="10.00">fi []</text>
<text text-anchor="start" x="451" y="-112.39" font-family="Menlo" font-size="10.00">fo [&gt;, ≋, ○]</text>
<text text-anchor="start" x="481" y="-99.64" font-family="Menlo" font-size="10.00">[]</text>
</g>
<!-- SR1C1&#45;&gt;SR2C1 -->
<g id="edge5" class="edge">
<title>SR1C1&#45;&gt;SR2C1</title>
<path fill="none" stroke="gray" d="M487,-170.55C487,-169.68 487,-168.8 487,-167.92"/>
<polygon fill="gray" stroke="gray" points="488.05,-168.03 487,-165.03 485.95,-168.03 488.05,-168.03"/>
</g>
<!-- SR3C1 -->
<!-- SR2C1&#45;&gt;SR3C1 -->
<!-- SR1C2 -->
<g id="node15" class="node">
<title>SR1C2</title>
<polygon fill="none" stroke="gray" points="639.88,-240.53 550.12,-240.53 550.12,-171.02 639.88,-171.02 639.88,-240.53"/>
<text text-anchor="start" x="589" y="-228.15" font-family="Menlo" font-size="10.00">10</text>
<text text-anchor="start" x="580" y="-215.4" font-family="Menlo" font-size="10.00">T &quot;&lt;&quot;</text>
<text text-anchor="start" x="577" y="-202.65" font-family="Menlo" font-size="10.00">fi [&lt;]</text>
<text text-anchor="start" x="568" y="-189.9" font-family="Menlo" font-size="10.00">fo [&lt;, x]</text>
<text text-anchor="start" x="553" y="-177.15" font-family="Menlo" font-size="10.00">[0:0:1, 1:1:2]</text>
</g>
<!-- SR0C2&#45;&gt;SR1C2 -->
<g id="edge9" class="edge">
<title>SR0C2&#45;&gt;SR1C2</title>
<path fill="none" stroke="gray" d="M595,-248.06C595,-247.19 595,-246.31 595,-245.43"/>
<polygon fill="gray" stroke="gray" points="596.05,-245.54 595,-242.54 593.95,-245.54 596.05,-245.54"/>
</g>
<!-- SR2C2 -->
<g id="node16" class="node">
<title>SR2C2</title>
<polygon fill="none" stroke="gray" points="645.88,-163.02 544.12,-163.02 544.12,-93.51 645.88,-93.51 645.88,-163.02"/>
<text text-anchor="start" x="589" y="-150.64" font-family="Menlo" font-size="10.00">11</text>
<text text-anchor="start" x="586" y="-137.89" font-family="Menlo" font-size="10.00">N Y</text>
<text text-anchor="start" x="568" y="-125.14" font-family="Menlo" font-size="10.00">fi [&lt;, x]</text>
<text text-anchor="start" x="559" y="-112.39" font-family="Menlo" font-size="10.00">fo [&gt;, ≋, ○]</text>
<text text-anchor="start" x="547" y="-99.64" font-family="Menlo" font-size="10.00">[0:1:4, 1:2:3.1]</text>
</g>
<!-- SR1C2&#45;&gt;SR2C2 -->
<g id="edge8" class="edge">
<title>SR1C2&#45;&gt;SR2C2</title>
<path fill="none" stroke="gray" d="M595,-170.55C595,-169.68 595,-168.8 595,-167.92"/>
<polygon fill="gray" stroke="gray" points="596.05,-168.03 595,-165.03 593.95,-168.03 596.05,-168.03"/>
</g>
<!-- SR3C2 -->
<g id="node17" class="node">
<title>SR3C2</title>
<polygon fill="none" stroke="gray" points="633.88,-85.51 556.12,-85.51 556.12,-16 633.88,-16 633.88,-85.51"/>
<text text-anchor="start" x="589" y="-73.13" font-family="Menlo" font-size="10.00">12</text>
<text text-anchor="start" x="583" y="-60.38" font-family="Menlo" font-size="10.00">END </text>
<text text-anchor="start" x="580" y="-47.63" font-family="Menlo" font-size="10.00">fi []</text>
<text text-anchor="start" x="559" y="-34.88" font-family="Menlo" font-size="10.00">fo [&gt;, ≋, ○]</text>
<text text-anchor="start" x="589" y="-22.13" font-family="Menlo" font-size="10.00">[]</text>
</g>
<!-- SR2C2&#45;&gt;SR3C2 -->
<g id="edge7" class="edge">
<title>SR2C2&#45;&gt;SR3C2</title>
<path fill="none" stroke="gray" d="M595,-93.04C595,-92.17 595,-91.29 595,-90.41"/>
<polygon fill="gray" stroke="gray" points="596.05,-90.52 595,-87.52 593.95,-90.52 596.05,-90.52"/>
</g>
<!-- SR1C0&#45;&gt;SR1C1 -->
<!-- SR2C0 -->
<!-- SR1C0&#45;&gt;SR2C0 -->
<!-- SR2C0&#45;&gt;SR2C1 -->
<!-- SR3C0 -->
<!-- SR2C0&#45;&gt;SR3C0 -->
<!-- SR3C0&#45;&gt;SR3C1 -->
<!-- SR3C1&#45;&gt;SR3C2 -->
<!-- YR0C0 -->
<g id="node22" class="node">
<title>YR0C0</title>
<polygon fill="none" stroke="gray" points="771.88,-318.04 670.12,-318.04 670.12,-248.53 771.88,-248.53 771.88,-318.04"/>
<text text-anchor="start" x="718" y="-305.66" font-family="Menlo" font-size="10.00">0</text>
<text text-anchor="start" x="712" y="-292.91" font-family="Menlo" font-size="10.00">N Y</text>
<text text-anchor="start" x="694" y="-280.16" font-family="Menlo" font-size="10.00">fi [&lt;, x]</text>
<text text-anchor="start" x="685" y="-267.41" font-family="Menlo" font-size="10.00">fo [&gt;, ≋, ○]</text>
<text text-anchor="start" x="673" y="-254.66" font-family="Menlo" font-size="10.00">[1:1:4, 2:2:3.1]</text>
</g>
<!-- YR0C1 -->
<g id="node23" class="node">
<title>YR0C1</title>
<polygon fill="none" stroke="gray" points="849.88,-318.04 790.12,-318.04 790.12,-248.53 849.88,-248.53 849.88,-318.04"/>
<text text-anchor="start" x="817" y="-305.66" font-family="Menlo" font-size="10.00">1</text>
<text text-anchor="start" x="808" y="-292.91" font-family="Menlo" font-size="10.00">ALT </text>
<text text-anchor="start" x="793" y="-280.16" font-family="Menlo" font-size="10.00">fi [&lt;, x]</text>
<text text-anchor="start" x="793" y="-267.41" font-family="Menlo" font-size="10.00">fo [&gt;, ≋]</text>
<text text-anchor="start" x="814" y="-254.66" font-family="Menlo" font-size="10.00">[]</text>
</g>
<!-- YR0C0&#45;&gt;YR0C1 -->
<g id="edge23" class="edge">
<title>YR0C0&#45;&gt;YR0C1</title>
<path fill="none" stroke="gray" d="M772.05,-283.29C776.45,-283.29 780.85,-283.29 785.25,-283.29"/>
<polygon fill="gray" stroke="gray" points="785.14,-284.34 788.14,-283.29 785.14,-282.24 785.14,-284.34"/>
</g>
<!-- YR1C0 -->
<!-- YR0C0&#45;&gt;YR1C0 -->
<!-- YR1C1 -->
<g id="node24" class="node">
<title>YR1C1</title>
<polygon fill="none" stroke="gray" points="870.88,-240.53 769.12,-240.53 769.12,-171.02 870.88,-171.02 870.88,-240.53"/>
<text text-anchor="start" x="817" y="-228.15" font-family="Menlo" font-size="10.00">2</text>
<text text-anchor="start" x="811" y="-215.4" font-family="Menlo" font-size="10.00">N S</text>
<text text-anchor="start" x="793" y="-202.65" font-family="Menlo" font-size="10.00">fi [&lt;, x]</text>
<text text-anchor="start" x="793" y="-189.9" font-family="Menlo" font-size="10.00">fo [&gt;, ≋]</text>
<text text-anchor="start" x="772" y="-177.15" font-family="Menlo" font-size="10.00">[1:1:3.1, 2:2:3]</text>
</g>
<!-- YR0C1&#45;&gt;YR1C1 -->
<g id="edge22" class="edge">
<title>YR0C1&#45;&gt;YR1C1</title>
<path fill="none" stroke="gray" d="M820,-248.06C820,-247.19 820,-246.31 820,-245.43"/>
<polygon fill="gray" stroke="gray" points="821.05,-245.54 820,-242.54 818.95,-245.54 821.05,-245.54"/>
</g>
<!-- YR2C1 -->
<g id="node25" class="node">
<title>YR2C1</title>
<polygon fill="none" stroke="gray" points="876.88,-163.02 763.12,-163.02 763.12,-93.51 876.88,-93.51 876.88,-163.02"/>
<text text-anchor="start" x="817" y="-150.64" font-family="Menlo" font-size="10.00">3</text>
<text text-anchor="start" x="805" y="-137.89" font-family="Menlo" font-size="10.00">T &quot;&gt;&quot;</text>
<text text-anchor="start" x="793" y="-125.14" font-family="Menlo" font-size="10.00">fi [&gt;, ≋]</text>
<text text-anchor="start" x="784" y="-112.39" font-family="Menlo" font-size="10.00">fo [&gt;, ≋, ○]</text>
<text text-anchor="start" x="766" y="-99.64" font-family="Menlo" font-size="10.00">[1:3.1:4, 2:3:3.1]</text>
</g>
<!-- YR1C1&#45;&gt;YR2C1 -->
<g id="edge21" class="edge">
<title>YR1C1&#45;&gt;YR2C1</title>
<path fill="none" stroke="gray" d="M820,-170.55C820,-169.68 820,-168.8 820,-167.92"/>
<polygon fill="gray" stroke="gray" points="821.05,-168.03 820,-165.03 818.95,-168.03 821.05,-168.03"/>
</g>
<!-- YR3C1 -->
<g id="node26" class="node">
<title>YR3C1</title>
<polygon fill="none" stroke="gray" points="858.88,-85.51 781.12,-85.51 781.12,-16 858.88,-16 858.88,-85.51"/>
<text text-anchor="start" x="817" y="-73.13" font-family="Menlo" font-size="10.00">4</text>
<text text-anchor="start" x="808" y="-60.38" font-family="Menlo" font-size="10.00">END </text>
<text text-anchor="start" x="805" y="-47.63" font-family="Menlo" font-size="10.00">fi []</text>
<text text-anchor="start" x="784" y="-34.88" font-family="Menlo" font-size="10.00">fo [&gt;, ≋, ○]</text>
<text text-anchor="start" x="814" y="-22.13" font-family="Menlo" font-size="10.00">[]</text>
</g>
<!-- YR2C1&#45;&gt;YR3C1 -->
<g id="edge20" class="edge">
<title>YR2C1&#45;&gt;YR3C1</title>
<path fill="none" stroke="gray" d="M820,-93.04C820,-92.17 820,-91.29 820,-90.41"/>
<polygon fill="gray" stroke="gray" points="821.05,-90.52 820,-87.52 818.95,-90.52 821.05,-90.52"/>
</g>
<!-- YR1C0&#45;&gt;YR1C1 -->
<!-- YR2C0 -->
<!-- YR1C0&#45;&gt;YR2C0 -->
<!-- YR2C0&#45;&gt;YR2C1 -->
<!-- YR3C0 -->
<!-- YR2C0&#45;&gt;YR3C0 -->
<!-- YR3C0&#45;&gt;YR3C1 -->
</g>
</svg>
