<?xml version="1.0" encoding="UTF-8" standalone="no"?>
<!DOCTYPE svg PUBLIC "-//W3C//DTD SVG 1.1//EN"
 "http://www.w3.org/Graphics/SVG/1.1/DTD/svg11.dtd">
<!-- Generated by graphviz version 9.0.0 (20230911.1827)
 -->
<!-- Title: G Pages: 1 -->
<svg width="795pt" height="363pt"
 viewBox="0.00 0.00 795.00 362.79" xmlns="http://www.w3.org/2000/svg" xmlns:xlink="http://www.w3.org/1999/xlink">
<g id="graph0" class="graph" transform="scale(1 1) rotate(0) translate(4 358.79)">
<title>G</title>
<polygon fill="white" stroke="none" points="-4,4 -4,-358.79 791,-358.79 791,4 -4,4"/>
<g id="clust1" class="cluster">
<title>GSS</title>
<polygon fill="none" stroke="black" points="8,-188.52 8,-323.92 78,-323.92 78,-188.52 8,-188.52"/>
<text text-anchor="start" x="16" y="-310.42" font-family="Menlo" font-size="10.00" fill="green">a↵</text>
</g>
<g id="clust2" class="cluster">
<title>clusterA</title>
<polygon fill="none" stroke="black" points="86,-8 86,-346.79 426,-346.79 426,-8 86,-8"/>
<text text-anchor="start" x="94" y="-333.29" font-family="Menlo" font-size="10.00">A = [ &quot;a&quot; ] .</text>
</g>
<g id="clust10" class="cluster">
<title>clusterS</title>
<polygon fill="none" stroke="black" points="434,-8 434,-346.79 779,-346.79 779,-8 434,-8"/>
<text text-anchor="start" x="442" y="-333.29" font-family="Menlo" font-size="10.00">S = A &quot;b&quot; | A &quot;c&quot; .</text>
</g>
<!-- E0 -->
<g id="node1" class="node">
<title>E0</title>
<path fill="none" stroke="gray" d="M63.96,-295.17C63.96,-295.17 58.04,-295.17 58.04,-295.17 55.08,-295.17 52.12,-292.21 52.12,-289.25 52.12,-289.25 52.12,-277.33 52.12,-277.33 52.12,-274.37 55.08,-271.41 58.04,-271.41 58.04,-271.41 63.96,-271.41 63.96,-271.41 66.92,-271.41 69.88,-274.37 69.88,-277.33 69.88,-277.33 69.88,-289.25 69.88,-289.25 69.88,-292.21 66.92,-295.17 63.96,-295.17"/>
<text text-anchor="start" x="55" y="-283.79" font-family="Menlo" font-size="10.00">E0</text>
<text text-anchor="start" x="56.5" y="-275.69" font-family="Menlo" font-size="8.00" fill="gray"> 0</text>
</g>
<!-- ●○ -->
<g id="node2" class="node">
<title>●○</title>
<path fill="none" stroke="gray" d="M45.96,-215.03C45.96,-215.03 40.04,-215.03 40.04,-215.03 37.08,-215.03 34.12,-212.07 34.12,-209.11 34.12,-209.11 34.12,-202.44 34.12,-202.44 34.12,-199.48 37.08,-196.52 40.04,-196.52 40.04,-196.52 45.96,-196.52 45.96,-196.52 48.92,-196.52 51.88,-199.48 51.88,-202.44 51.88,-202.44 51.88,-209.11 51.88,-209.11 51.88,-212.07 48.92,-215.03 45.96,-215.03"/>
<text text-anchor="middle" x="43" y="-202.65" font-family="Menlo" font-size="10.00">●○</text>
</g>
<!-- E0&#45;&gt;●○ -->
<g id="edge1" class="edge">
<title>E0&#45;&gt;●○</title>
<path fill="none" stroke="gray" d="M58.34,-271.14C55.05,-257.31 49.44,-233.79 45.99,-219.33"/>
<polygon fill="gray" stroke="gray" points="47.07,-219.31 45.35,-216.63 45.02,-219.79 47.07,-219.31"/>
</g>
<!-- I0 -->
<g id="node3" class="node">
<title>I0</title>
<path fill="none" stroke="gray" d="M27.96,-295.17C27.96,-295.17 22.04,-295.17 22.04,-295.17 19.08,-295.17 16.12,-292.21 16.12,-289.25 16.12,-289.25 16.12,-277.33 16.12,-277.33 16.12,-274.37 19.08,-271.41 22.04,-271.41 22.04,-271.41 27.96,-271.41 27.96,-271.41 30.92,-271.41 33.88,-274.37 33.88,-277.33 33.88,-277.33 33.88,-289.25 33.88,-289.25 33.88,-292.21 30.92,-295.17 27.96,-295.17"/>
<text text-anchor="start" x="19" y="-283.79" font-family="Menlo" font-size="10.00">I0</text>
<text text-anchor="start" x="20.5" y="-275.69" font-family="Menlo" font-size="8.00" fill="gray"> 0</text>
</g>
<!-- I0&#45;&gt;●○ -->
<g id="edge2" class="edge">
<title>I0&#45;&gt;●○</title>
<path fill="none" stroke="gray" d="M27.66,-271.14C30.95,-257.31 36.56,-233.79 40.01,-219.33"/>
<polygon fill="gray" stroke="gray" points="40.98,-219.79 40.65,-216.63 38.93,-219.31 40.98,-219.79"/>
</g>
<!-- AR0C0 -->
<g id="node4" class="node">
<title>AR0C0</title>
<polygon fill="none" stroke="gray" points="177.88,-318.04 94.12,-318.04 94.12,-248.53 177.88,-248.53 177.88,-318.04"/>
<text text-anchor="start" x="133" y="-305.66" font-family="Menlo" font-size="10.00">R</text>
<text text-anchor="start" x="127" y="-292.91" font-family="Menlo" font-size="10.00">N A</text>
<text text-anchor="start" x="100" y="-280.16" font-family="Menlo" font-size="10.00">fi [&quot;&quot;, &quot;a&quot;]</text>
<text text-anchor="start" x="97" y="-267.41" font-family="Menlo" font-size="10.00">fo [&quot;b&quot;, &quot;c&quot;]</text>
<text text-anchor="start" x="121" y="-254.66" font-family="Menlo" font-size="10.00">am []</text>
</g>
<!-- AR0C1 -->
<g id="node5" class="node">
<title>AR0C1</title>
<polygon fill="none" stroke="gray" points="295.88,-318.04 212.12,-318.04 212.12,-248.53 295.88,-248.53 295.88,-318.04"/>
<text text-anchor="start" x="251" y="-305.66" font-family="Menlo" font-size="10.00">L</text>
<text text-anchor="start" x="242" y="-292.91" font-family="Menlo" font-size="10.00">ALT </text>
<text text-anchor="start" x="218" y="-280.16" font-family="Menlo" font-size="10.00">fi [&quot;&quot;, &quot;a&quot;]</text>
<text text-anchor="start" x="215" y="-267.41" font-family="Menlo" font-size="10.00">fo [&quot;b&quot;, &quot;c&quot;]</text>
<text text-anchor="start" x="239" y="-254.66" font-family="Menlo" font-size="10.00">am []</text>
</g>
<!-- AR0C0&#45;&gt;AR0C1 -->
<g id="edge8" class="edge">
<title>AR0C0&#45;&gt;AR0C1</title>
<path fill="none" stroke="gray" d="M177.95,-283.29C187.74,-283.29 197.53,-283.29 207.32,-283.29"/>
<polygon fill="gray" stroke="gray" points="207.3,-284.34 210.3,-283.29 207.3,-282.24 207.3,-284.34"/>
</g>
<!-- AR1C0 -->
<!-- AR0C0&#45;&gt;AR1C0 -->
<!-- AR1C1 -->
<g id="node6" class="node">
<title>AR1C1</title>
<polygon fill="none" stroke="gray" points="295.88,-240.53 212.12,-240.53 212.12,-171.02 295.88,-171.02 295.88,-240.53"/>
<text text-anchor="start" x="251" y="-228.15" font-family="Menlo" font-size="10.00">P</text>
<text text-anchor="start" x="242" y="-215.4" font-family="Menlo" font-size="10.00">OPT </text>
<text text-anchor="start" x="218" y="-202.65" font-family="Menlo" font-size="10.00">fi [&quot;&quot;, &quot;a&quot;]</text>
<text text-anchor="start" x="215" y="-189.9" font-family="Menlo" font-size="10.00">fo [&quot;b&quot;, &quot;c&quot;]</text>
<text text-anchor="start" x="239" y="-177.15" font-family="Menlo" font-size="10.00">am []</text>
</g>
<!-- AR0C1&#45;&gt;AR1C1 -->
<g id="edge7" class="edge">
<title>AR0C1&#45;&gt;AR1C1</title>
<path fill="none" stroke="gray" d="M254,-248.06C254,-247.19 254,-246.31 254,-245.43"/>
<polygon fill="gray" stroke="gray" points="255.05,-245.54 254,-242.54 252.95,-245.54 255.05,-245.54"/>
</g>
<!-- AR0C2 -->
<!-- AR0C1&#45;&gt;AR0C2 -->
<!-- AR2C1 -->
<g id="node7" class="node">
<title>AR2C1</title>
<polygon fill="none" stroke="gray" points="295.88,-163.02 212.12,-163.02 212.12,-93.51 295.88,-93.51 295.88,-163.02"/>
<text text-anchor="start" x="251" y="-150.64" font-family="Menlo" font-size="10.00">Q</text>
<text text-anchor="start" x="242" y="-137.89" font-family="Menlo" font-size="10.00">END </text>
<text text-anchor="start" x="233" y="-125.14" font-family="Menlo" font-size="10.00">fi [&quot;&quot;]</text>
<text text-anchor="start" x="215" y="-112.39" font-family="Menlo" font-size="10.00">fo [&quot;b&quot;, &quot;c&quot;]</text>
<text text-anchor="start" x="239" y="-99.64" font-family="Menlo" font-size="10.00">am []</text>
</g>
<!-- AR1C1&#45;&gt;AR2C1 -->
<g id="edge3" class="edge">
<title>AR1C1&#45;&gt;AR2C1</title>
<path fill="none" stroke="gray" d="M254,-170.55C254,-169.68 254,-168.8 254,-167.92"/>
<polygon fill="gray" stroke="gray" points="255.05,-168.03 254,-165.03 252.95,-168.03 255.05,-168.03"/>
</g>
<!-- AR1C2 -->
<g id="node8" class="node">
<title>AR1C2</title>
<polygon fill="none" stroke="gray" points="397.88,-240.53 314.12,-240.53 314.12,-171.02 397.88,-171.02 397.88,-240.53"/>
<text text-anchor="start" x="353" y="-228.15" font-family="Menlo" font-size="10.00">M</text>
<text text-anchor="start" x="344" y="-215.4" font-family="Menlo" font-size="10.00">ALT </text>
<text text-anchor="start" x="332" y="-202.65" font-family="Menlo" font-size="10.00">fi [&quot;a&quot;]</text>
<text text-anchor="start" x="317" y="-189.9" font-family="Menlo" font-size="10.00">fo [&quot;b&quot;, &quot;c&quot;]</text>
<text text-anchor="start" x="341" y="-177.15" font-family="Menlo" font-size="10.00">am []</text>
</g>
<!-- AR1C1&#45;&gt;AR1C2 -->
<g id="edge6" class="edge">
<title>AR1C1&#45;&gt;AR1C2</title>
<path fill="none" stroke="gray" d="M296.23,-205.78C300.67,-205.78 305.11,-205.78 309.54,-205.78"/>
<polygon fill="gray" stroke="gray" points="309.46,-206.83 312.46,-205.78 309.46,-204.73 309.46,-206.83"/>
</g>
<!-- AR2C1&#45;&gt;AR0C0 -->
<g id="edge33" class="edge">
<title>AR2C1:w&#45;&gt;AR0C0:s</title>
<path fill="none" stroke="red" d="M211,-128.27C195.55,-128.27 201.14,-152.03 212,-163.02 227.24,-178.45 391.98,-155.38 407,-171.02 428.39,-193.31 428.52,-218.37 407,-240.53 397.2,-250.62 169.5,-235.71 139.3,-245.95"/>
<polygon fill="red" stroke="red" points="138.91,-244.92 137.19,-247.6 140.2,-246.57 138.91,-244.92"/>
</g>
<!-- AR2C1&#45;&gt;AR0C1 -->
<g id="edge37" class="edge">
<title>AR2C1:e&#45;&gt;AR0C1</title>
<path fill="none" stroke="green" stroke-dasharray="1,5" d="M297,-128.27C304.73,-128.27 301.43,-157.52 296,-163.02 281.4,-177.83 123.39,-156 109,-171.02 87.63,-193.33 88.3,-217.6 109,-240.53 120.68,-253.46 170.28,-243.64 187,-248.53 193.96,-250.57 201.07,-253.31 207.92,-256.37"/>
<polygon fill="green" stroke="green" points="207.16,-257.17 210.32,-257.46 208.03,-255.26 207.16,-257.17"/>
</g>
<!-- AR3C1 -->
<!-- AR2C1&#45;&gt;AR3C1 -->
<!-- AR2C2 -->
<g id="node9" class="node">
<title>AR2C2</title>
<polygon fill="none" stroke="gray" points="397.88,-163.02 314.12,-163.02 314.12,-93.51 397.88,-93.51 397.88,-163.02"/>
<text text-anchor="start" x="353" y="-150.64" font-family="Menlo" font-size="10.00">N</text>
<text text-anchor="start" x="341" y="-137.89" font-family="Menlo" font-size="10.00">T &quot;a&quot;</text>
<text text-anchor="start" x="332" y="-125.14" font-family="Menlo" font-size="10.00">fi [&quot;a&quot;]</text>
<text text-anchor="start" x="317" y="-112.39" font-family="Menlo" font-size="10.00">fo [&quot;b&quot;, &quot;c&quot;]</text>
<text text-anchor="start" x="341" y="-99.64" font-family="Menlo" font-size="10.00">am []</text>
</g>
<!-- AR1C2&#45;&gt;AR2C2 -->
<g id="edge5" class="edge">
<title>AR1C2&#45;&gt;AR2C2</title>
<path fill="none" stroke="gray" d="M356,-170.55C356,-169.68 356,-168.8 356,-167.92"/>
<polygon fill="gray" stroke="gray" points="357.05,-168.03 356,-165.03 354.95,-168.03 357.05,-168.03"/>
</g>
<!-- AR3C2 -->
<g id="node10" class="node">
<title>AR3C2</title>
<polygon fill="none" stroke="gray" points="397.88,-85.51 314.12,-85.51 314.12,-16 397.88,-16 397.88,-85.51"/>
<text text-anchor="start" x="353" y="-73.13" font-family="Menlo" font-size="10.00">O</text>
<text text-anchor="start" x="344" y="-60.38" font-family="Menlo" font-size="10.00">END </text>
<text text-anchor="start" x="335" y="-47.63" font-family="Menlo" font-size="10.00">fi [&quot;&quot;]</text>
<text text-anchor="start" x="317" y="-34.88" font-family="Menlo" font-size="10.00">fo [&quot;b&quot;, &quot;c&quot;]</text>
<text text-anchor="start" x="341" y="-22.13" font-family="Menlo" font-size="10.00">am []</text>
</g>
<!-- AR2C2&#45;&gt;AR3C2 -->
<g id="edge4" class="edge">
<title>AR2C2&#45;&gt;AR3C2</title>
<path fill="none" stroke="gray" d="M356,-93.04C356,-92.17 356,-91.29 356,-90.41"/>
<polygon fill="gray" stroke="gray" points="357.05,-90.52 356,-87.52 354.95,-90.52 357.05,-90.52"/>
</g>
<!-- AR3C2&#45;&gt;AR1C1 -->
<g id="edge34" class="edge">
<title>AR3C2:w&#45;&gt;AR1C1:s</title>
<path fill="none" stroke="red" d="M313,-50.76C292,-50.76 299.77,-76.11 281,-85.51 265.42,-93.31 214.68,-80.58 203,-93.51 182.3,-116.44 182.92,-139.54 203,-163.02 209.41,-170.51 242.47,-162.56 251.64,-167.46"/>
<polygon fill="red" stroke="red" points="250.63,-167.84 253.16,-169.76 252.38,-166.68 250.63,-167.84"/>
</g>
<!-- AR3C2&#45;&gt;AR1C2 -->
<g id="edge38" class="edge">
<title>AR3C2:e&#45;&gt;AR1C2</title>
<path fill="none" stroke="green" stroke-dasharray="1,5" d="M399,-50.76C414.45,-50.76 408.86,-74.52 398,-85.51 382.76,-100.94 218.02,-77.87 203,-93.51 181.61,-115.8 182.03,-140.34 203,-163.02 218.44,-179.71 283.5,-163.62 305,-171.02 306.55,-171.55 308.09,-172.14 309.63,-172.78"/>
<polygon fill="green" stroke="green" points="309.13,-173.71 312.3,-173.97 309.99,-171.79 309.13,-173.71"/>
</g>
<!-- AR0C2&#45;&gt;AR1C2 -->
<!-- AR1C0&#45;&gt;AR1C1 -->
<!-- AR2C0 -->
<!-- AR1C0&#45;&gt;AR2C0 -->
<!-- AR2C0&#45;&gt;AR2C1 -->
<!-- AR3C0 -->
<!-- AR2C0&#45;&gt;AR3C0 -->
<!-- AR3C0&#45;&gt;AR3C1 -->
<!-- AR3C1&#45;&gt;AR3C2 -->
<!-- SR0C0 -->
<g id="node16" class="node">
<title>SR0C0</title>
<polygon fill="none" stroke="gray" points="519.88,-318.04 442.12,-318.04 442.12,-248.53 519.88,-248.53 519.88,-318.04"/>
<text text-anchor="start" x="478" y="-305.66" font-family="Menlo" font-size="10.00">K</text>
<text text-anchor="start" x="472" y="-292.91" font-family="Menlo" font-size="10.00">N S</text>
<text text-anchor="start" x="445" y="-280.16" font-family="Menlo" font-size="10.00">fi [&quot;&quot;, &quot;a&quot;]</text>
<text text-anchor="start" x="457" y="-267.41" font-family="Menlo" font-size="10.00">fo [&quot;$&quot;]</text>
<text text-anchor="start" x="457" y="-254.66" font-family="Menlo" font-size="10.00">am [&quot;a&quot;]</text>
</g>
<!-- SR0C1 -->
<g id="node17" class="node">
<title>SR0C1</title>
<polygon fill="none" stroke="gray" points="634.88,-318.04 557.12,-318.04 557.12,-248.53 634.88,-248.53 634.88,-318.04"/>
<text text-anchor="start" x="593" y="-305.66" font-family="Menlo" font-size="10.00">C</text>
<text text-anchor="start" x="584" y="-292.91" font-family="Menlo" font-size="10.00">ALT </text>
<text text-anchor="start" x="560" y="-280.16" font-family="Menlo" font-size="10.00">fi [&quot;&quot;, &quot;a&quot;]</text>
<text text-anchor="start" x="572" y="-267.41" font-family="Menlo" font-size="10.00">fo [&quot;$&quot;]</text>
<text text-anchor="start" x="581" y="-254.66" font-family="Menlo" font-size="10.00">am []</text>
</g>
<!-- SR0C0&#45;&gt;SR0C1 -->
<g id="edge26" class="edge">
<title>SR0C0&#45;&gt;SR0C1</title>
<path fill="none" stroke="gray" d="M520.08,-283.29C530.9,-283.29 541.72,-283.29 552.55,-283.29"/>
<polygon fill="gray" stroke="gray" points="552.34,-284.34 555.34,-283.29 552.34,-282.24 552.34,-284.34"/>
</g>
<!-- SR1C0 -->
<!-- SR0C0&#45;&gt;SR1C0 -->
<!-- SR1C1 -->
<g id="node18" class="node">
<title>SR1C1</title>
<polygon fill="none" stroke="gray" points="634.88,-240.53 557.12,-240.53 557.12,-171.02 634.88,-171.02 634.88,-240.53"/>
<text text-anchor="start" x="593" y="-228.15" font-family="Menlo" font-size="10.00">D</text>
<text text-anchor="start" x="587" y="-215.4" font-family="Menlo" font-size="10.00">N A</text>
<text text-anchor="start" x="560" y="-202.65" font-family="Menlo" font-size="10.00">fi [&quot;&quot;, &quot;a&quot;]</text>
<text text-anchor="start" x="572" y="-189.9" font-family="Menlo" font-size="10.00">fo [&quot;b&quot;]</text>
<text text-anchor="start" x="581" y="-177.15" font-family="Menlo" font-size="10.00">am []</text>
</g>
<!-- SR0C1&#45;&gt;SR1C1 -->
<g id="edge21" class="edge">
<title>SR0C1&#45;&gt;SR1C1</title>
<path fill="none" stroke="gray" d="M596,-248.06C596,-247.19 596,-246.31 596,-245.43"/>
<polygon fill="gray" stroke="gray" points="597.05,-245.54 596,-242.54 594.95,-245.54 597.05,-245.54"/>
</g>
<!-- SR0C2 -->
<g id="node21" class="node">
<title>SR0C2</title>
<polygon fill="none" stroke="gray" points="730.88,-318.04 653.12,-318.04 653.12,-248.53 730.88,-248.53 730.88,-318.04"/>
<text text-anchor="start" x="689" y="-305.66" font-family="Menlo" font-size="10.00">G</text>
<text text-anchor="start" x="680" y="-292.91" font-family="Menlo" font-size="10.00">ALT </text>
<text text-anchor="start" x="656" y="-280.16" font-family="Menlo" font-size="10.00">fi [&quot;&quot;, &quot;a&quot;]</text>
<text text-anchor="start" x="668" y="-267.41" font-family="Menlo" font-size="10.00">fo [&quot;$&quot;]</text>
<text text-anchor="start" x="677" y="-254.66" font-family="Menlo" font-size="10.00">am []</text>
</g>
<!-- SR0C1&#45;&gt;SR0C2 -->
<g id="edge25" class="edge">
<title>SR0C1&#45;&gt;SR0C2</title>
<path fill="none" stroke="gray" d="M635.38,-283.29C639.69,-283.29 644,-283.29 648.31,-283.29"/>
<polygon fill="gray" stroke="gray" points="648.11,-284.34 651.11,-283.29 648.11,-282.24 648.11,-284.34"/>
</g>
<!-- SR1C1&#45;&gt;AR0C1 -->
<g id="edge41" class="edge">
<title>SR1C1:e&#45;&gt;AR0C1</title>
<path fill="none" stroke="blue" stroke-dasharray="1,5" d="M636,-205.78C643.73,-205.78 640.47,-235.07 635,-240.53 622.96,-252.54 345.58,-244.74 329,-248.53 319.38,-250.73 309.48,-254.2 300.17,-258.1"/>
<polygon fill="blue" stroke="blue" points="299.95,-257.05 297.6,-259.2 300.77,-258.98 299.95,-257.05"/>
</g>
<!-- SR2C1 -->
<g id="node19" class="node">
<title>SR2C1</title>
<polygon fill="none" stroke="gray" points="622.88,-163.02 569.12,-163.02 569.12,-93.51 622.88,-93.51 622.88,-163.02"/>
<text text-anchor="start" x="593" y="-150.64" font-family="Menlo" font-size="10.00">E</text>
<text text-anchor="start" x="581" y="-137.89" font-family="Menlo" font-size="10.00">T &quot;b&quot;</text>
<text text-anchor="start" x="572" y="-125.14" font-family="Menlo" font-size="10.00">fi [&quot;b&quot;]</text>
<text text-anchor="start" x="572" y="-112.39" font-family="Menlo" font-size="10.00">fo [&quot;$&quot;]</text>
<text text-anchor="start" x="581" y="-99.64" font-family="Menlo" font-size="10.00">am []</text>
</g>
<!-- SR1C1&#45;&gt;SR2C1 -->
<g id="edge20" class="edge">
<title>SR1C1&#45;&gt;SR2C1</title>
<path fill="none" stroke="gray" d="M596,-170.55C596,-169.68 596,-168.8 596,-167.92"/>
<polygon fill="gray" stroke="gray" points="597.05,-168.03 596,-165.03 594.95,-168.03 597.05,-168.03"/>
</g>
<!-- SR3C1 -->
<g id="node20" class="node">
<title>SR3C1</title>
<polygon fill="none" stroke="gray" points="622.88,-85.51 569.12,-85.51 569.12,-16 622.88,-16 622.88,-85.51"/>
<text text-anchor="start" x="593" y="-73.13" font-family="Menlo" font-size="10.00">F</text>
<text text-anchor="start" x="584" y="-60.38" font-family="Menlo" font-size="10.00">END </text>
<text text-anchor="start" x="575" y="-47.63" font-family="Menlo" font-size="10.00">fi [&quot;&quot;]</text>
<text text-anchor="start" x="572" y="-34.88" font-family="Menlo" font-size="10.00">fo [&quot;$&quot;]</text>
<text text-anchor="start" x="581" y="-22.13" font-family="Menlo" font-size="10.00">am []</text>
</g>
<!-- SR2C1&#45;&gt;SR3C1 -->
<g id="edge19" class="edge">
<title>SR2C1&#45;&gt;SR3C1</title>
<path fill="none" stroke="gray" d="M596,-93.04C596,-92.17 596,-91.29 596,-90.41"/>
<polygon fill="gray" stroke="gray" points="597.05,-90.52 596,-87.52 594.95,-90.52 597.05,-90.52"/>
</g>
<!-- SR3C1&#45;&gt;SR0C0 -->
<g id="edge35" class="edge">
<title>SR3C1:w&#45;&gt;SR0C0:s</title>
<path fill="none" stroke="red" d="M568,-50.76C552.55,-50.76 558.19,-74.47 569,-85.51 581.37,-98.15 714.86,-81.66 728,-93.51 752.34,-115.46 762.82,-217 740,-240.53 730.68,-250.14 514.83,-236.35 484.52,-245.93"/>
<polygon fill="red" stroke="red" points="484.01,-245.01 482.22,-247.63 485.26,-246.7 484.01,-245.01"/>
</g>
<!-- SR3C1&#45;&gt;SR0C1 -->
<g id="edge39" class="edge">
<title>SR3C1:e&#45;&gt;SR0C1</title>
<path fill="none" stroke="green" stroke-dasharray="1,5" d="M624,-50.76C639.45,-50.76 633.38,-74.06 623,-85.51 604.04,-106.42 580.23,-73.83 560,-93.51 535.02,-117.82 550.67,-136.26 548,-171.02 545.63,-201.82 535.19,-212.42 548,-240.53 549.65,-244.15 551.78,-247.58 554.23,-250.79"/>
<polygon fill="green" stroke="green" points="553.12,-251.09 555.83,-252.76 554.76,-249.77 553.12,-251.09"/>
</g>
<!-- SR1C2 -->
<g id="node22" class="node">
<title>SR1C2</title>
<polygon fill="none" stroke="gray" points="730.88,-240.53 653.12,-240.53 653.12,-171.02 730.88,-171.02 730.88,-240.53"/>
<text text-anchor="start" x="689" y="-228.15" font-family="Menlo" font-size="10.00">H</text>
<text text-anchor="start" x="683" y="-215.4" font-family="Menlo" font-size="10.00">N A</text>
<text text-anchor="start" x="656" y="-202.65" font-family="Menlo" font-size="10.00">fi [&quot;&quot;, &quot;a&quot;]</text>
<text text-anchor="start" x="668" y="-189.9" font-family="Menlo" font-size="10.00">fo [&quot;c&quot;]</text>
<text text-anchor="start" x="677" y="-177.15" font-family="Menlo" font-size="10.00">am []</text>
</g>
<!-- SR0C2&#45;&gt;SR1C2 -->
<g id="edge24" class="edge">
<title>SR0C2&#45;&gt;SR1C2</title>
<path fill="none" stroke="gray" d="M692,-248.06C692,-247.19 692,-246.31 692,-245.43"/>
<polygon fill="gray" stroke="gray" points="693.05,-245.54 692,-242.54 690.95,-245.54 693.05,-245.54"/>
</g>
<!-- SR1C2&#45;&gt;AR0C1 -->
<g id="edge42" class="edge">
<title>SR1C2:e&#45;&gt;AR0C1</title>
<path fill="none" stroke="blue" stroke-dasharray="1,5" d="M732,-205.78C747.45,-205.78 741.98,-229.65 731,-240.53 723.07,-248.39 339.9,-246.08 329,-248.53 319.37,-250.7 309.47,-254.16 300.15,-258.05"/>
<polygon fill="blue" stroke="blue" points="299.94,-257 297.59,-259.15 300.76,-258.93 299.94,-257"/>
</g>
<!-- SR2C2 -->
<g id="node23" class="node">
<title>SR2C2</title>
<polygon fill="none" stroke="gray" points="718.88,-163.02 665.12,-163.02 665.12,-93.51 718.88,-93.51 718.88,-163.02"/>
<text text-anchor="start" x="689" y="-150.64" font-family="Menlo" font-size="10.00">I</text>
<text text-anchor="start" x="677" y="-137.89" font-family="Menlo" font-size="10.00">T &quot;c&quot;</text>
<text text-anchor="start" x="668" y="-125.14" font-family="Menlo" font-size="10.00">fi [&quot;c&quot;]</text>
<text text-anchor="start" x="668" y="-112.39" font-family="Menlo" font-size="10.00">fo [&quot;$&quot;]</text>
<text text-anchor="start" x="677" y="-99.64" font-family="Menlo" font-size="10.00">am []</text>
</g>
<!-- SR1C2&#45;&gt;SR2C2 -->
<g id="edge23" class="edge">
<title>SR1C2&#45;&gt;SR2C2</title>
<path fill="none" stroke="gray" d="M692,-170.55C692,-169.68 692,-168.8 692,-167.92"/>
<polygon fill="gray" stroke="gray" points="693.05,-168.03 692,-165.03 690.95,-168.03 693.05,-168.03"/>
</g>
<!-- SR3C2 -->
<g id="node24" class="node">
<title>SR3C2</title>
<polygon fill="none" stroke="gray" points="718.88,-85.51 665.12,-85.51 665.12,-16 718.88,-16 718.88,-85.51"/>
<text text-anchor="start" x="689" y="-73.13" font-family="Menlo" font-size="10.00">J</text>
<text text-anchor="start" x="680" y="-60.38" font-family="Menlo" font-size="10.00">END </text>
<text text-anchor="start" x="671" y="-47.63" font-family="Menlo" font-size="10.00">fi [&quot;&quot;]</text>
<text text-anchor="start" x="668" y="-34.88" font-family="Menlo" font-size="10.00">fo [&quot;$&quot;]</text>
<text text-anchor="start" x="677" y="-22.13" font-family="Menlo" font-size="10.00">am []</text>
</g>
<!-- SR2C2&#45;&gt;SR3C2 -->
<g id="edge22" class="edge">
<title>SR2C2&#45;&gt;SR3C2</title>
<path fill="none" stroke="gray" d="M692,-93.04C692,-92.17 692,-91.29 692,-90.41"/>
<polygon fill="gray" stroke="gray" points="693.05,-90.52 692,-87.52 690.95,-90.52 693.05,-90.52"/>
</g>
<!-- SR3C2&#45;&gt;SR0C0 -->
<g id="edge36" class="edge">
<title>SR3C2:w&#45;&gt;SR0C0:s</title>
<path fill="none" stroke="red" d="M664,-50.76C648.55,-50.76 654.47,-74.2 665,-85.51 677.02,-98.43 731.59,-80.97 744,-93.51 790,-140.02 796.57,-193.59 751,-240.53 741.24,-250.58 514.37,-235.76 484.28,-245.96"/>
<polygon fill="red" stroke="red" points="483.91,-244.92 482.19,-247.6 485.2,-246.57 483.91,-244.92"/>
</g>
<!-- SR3C2&#45;&gt;SR0C2 -->
<g id="edge40" class="edge">
<title>SR3C2:e&#45;&gt;SR0C2</title>
<path fill="none" stroke="green" stroke-dasharray="1,5" d="M720,-50.76C735.45,-50.76 729.81,-74.47 719,-85.51 706.63,-98.15 573.14,-81.66 560,-93.51 511.31,-137.41 503.61,-192.29 548,-240.53 562.5,-256.28 623.88,-241.23 644,-248.53 645.67,-249.14 647.34,-249.82 648.99,-250.56"/>
<polygon fill="green" stroke="green" points="648.3,-251.39 651.46,-251.74 649.2,-249.5 648.3,-251.39"/>
</g>
<!-- SR1C0&#45;&gt;SR1C1 -->
<!-- SR2C0 -->
<!-- SR1C0&#45;&gt;SR2C0 -->
<!-- SR2C0&#45;&gt;SR2C1 -->
<!-- SR3C0 -->
<!-- SR2C0&#45;&gt;SR3C0 -->
<!-- SR3C0&#45;&gt;SR3C1 -->
</g>
</svg>
