<?xml version="1.0" encoding="UTF-8" standalone="no"?>
<!DOCTYPE svg PUBLIC "-//W3C//DTD SVG 1.1//EN"
 "http://www.w3.org/Graphics/SVG/1.1/DTD/svg11.dtd">
<!-- Generated by graphviz version 9.0.0 (20230911.1827)
 -->
<!-- Title: G Pages: 1 -->
<svg width="1339pt" height="874pt"
 viewBox="0.00 0.00 1339.00 873.70" xmlns="http://www.w3.org/2000/svg" xmlns:xlink="http://www.w3.org/1999/xlink">
<g id="graph0" class="graph" transform="scale(1 1) rotate(0) translate(4 869.7)">
<title>G</title>
<polygon fill="white" stroke="none" points="-4,4 -4,-869.7 1335,-869.7 1335,4 -4,4"/>
<g id="clust1" class="cluster">
<title>GSS</title>
<polygon fill="none" stroke="black" points="8,-8 8,-834.82 1010,-834.82 1010,-8 8,-8"/>
<text text-anchor="start" x="16" y="-821.32" font-family="Menlo" font-size="10.00" fill="green">xxxxxxxxx↵</text>
</g>
<g id="clust2" class="cluster">
<title>clusterS</title>
<polygon fill="none" stroke="black" points="1018,-518.91 1018,-857.7 1323,-857.7 1323,-518.91 1018,-518.91"/>
<text text-anchor="start" x="1026" y="-844.2" font-family="Menlo" font-size="10.00">S = &quot;x&quot; | S S .</text>
</g>
<!-- I9 -->
<g id="node1" class="node">
<title>I9</title>
<path fill="none" stroke="gray" d="M605.71,-728.56C605.71,-728.56 512.29,-728.56 512.29,-728.56 508.33,-728.56 504.37,-724.6 504.37,-720.64 504.37,-720.64 504.37,-712.72 504.37,-712.72 504.37,-708.76 508.33,-704.8 512.29,-704.8 512.29,-704.8 605.71,-704.8 605.71,-704.8 609.67,-704.8 613.63,-708.76 613.63,-712.72 613.63,-712.72 613.63,-720.64 613.63,-720.64 613.63,-724.6 609.67,-728.56 605.71,-728.56"/>
<text text-anchor="start" x="553" y="-717.18" font-family="Menlo" font-size="10.00">I9</text>
<text text-anchor="start" x="507.25" y="-709.08" font-family="Menlo" font-size="8.00" fill="gray"> 1, 2, 3, 4, 5, 6, 7, 8</text>
</g>
<!-- I7 -->
<g id="node2" class="node">
<title>I7</title>
<path fill="none" stroke="gray" d="M416.71,-479.15C416.71,-479.15 377.29,-479.15 377.29,-479.15 373.33,-479.15 369.37,-475.19 369.37,-471.23 369.37,-471.23 369.37,-463.31 369.37,-463.31 369.37,-459.35 373.33,-455.39 377.29,-455.39 377.29,-455.39 416.71,-455.39 416.71,-455.39 420.67,-455.39 424.63,-459.35 424.63,-463.31 424.63,-463.31 424.63,-471.23 424.63,-471.23 424.63,-475.19 420.67,-479.15 416.71,-479.15"/>
<text text-anchor="start" x="391" y="-467.77" font-family="Menlo" font-size="10.00">I7</text>
<text text-anchor="start" x="372.25" y="-459.67" font-family="Menlo" font-size="8.00" fill="gray"> 6, 7, 8, 9</text>
</g>
<!-- I9&#45;&gt;I7 -->
<g id="edge1" class="edge">
<title>I9&#45;&gt;I7</title>
<path fill="none" stroke="gray" d="M531.59,-704.31C516.03,-697.04 496.78,-686.6 482,-673.93 449.13,-645.76 443.92,-634.32 423,-596.42 403.39,-560.89 398.23,-550.84 391,-510.91 389.12,-500.52 389.38,-497.59 391,-487.15 391.2,-485.86 391.47,-484.53 391.79,-483.22"/>
<polygon fill="gray" stroke="gray" points="392.68,-483.95 392.46,-480.77 390.66,-483.39 392.68,-483.95"/>
</g>
<!-- I2 -->
<g id="node3" class="node">
<title>I2</title>
<path fill="none" stroke="gray" d="M357.71,-161.55C357.71,-161.55 264.29,-161.55 264.29,-161.55 260.33,-161.55 256.37,-157.59 256.37,-153.63 256.37,-153.63 256.37,-145.71 256.37,-145.71 256.37,-141.75 260.33,-137.79 264.29,-137.79 264.29,-137.79 357.71,-137.79 357.71,-137.79 361.67,-137.79 365.63,-141.75 365.63,-145.71 365.63,-145.71 365.63,-153.63 365.63,-153.63 365.63,-157.59 361.67,-161.55 357.71,-161.55"/>
<text text-anchor="start" x="305" y="-150.17" font-family="Menlo" font-size="10.00">I2</text>
<text text-anchor="start" x="259.25" y="-142.07" font-family="Menlo" font-size="8.00" fill="gray"> 1, 2, 3, 4, 5, 6, 7, 8</text>
</g>
<!-- I9&#45;&gt;I2 -->
<g id="edge2" class="edge">
<title>I9&#45;&gt;I2</title>
<path fill="none" stroke="gray" d="M504.29,-715.18C378.45,-713.48 76.82,-706.05 45,-673.93 10.11,-638.71 37,-612.24 37,-562.66 37,-562.66 37,-562.66 37,-339.23 37,-329.32 178.56,-179.84 198,-169.55 214.42,-160.85 233.91,-155.99 252.04,-153.32"/>
<polygon fill="gray" stroke="gray" points="251.8,-154.41 254.63,-152.96 251.51,-152.33 251.8,-154.41"/>
</g>
<!-- H2 -->
<g id="node4" class="node">
<title>H2</title>
<path fill="none" stroke="gray" d="M331.96,-193.31C331.96,-193.31 252.04,-193.31 252.04,-193.31 248.08,-193.31 244.12,-189.35 244.12,-185.39 244.12,-185.39 244.12,-177.47 244.12,-177.47 244.12,-173.51 248.08,-169.55 252.04,-169.55 252.04,-169.55 331.96,-169.55 331.96,-169.55 335.92,-169.55 339.88,-173.51 339.88,-177.47 339.88,-177.47 339.88,-185.39 339.88,-185.39 339.88,-189.35 335.92,-193.31 331.96,-193.31"/>
<text text-anchor="start" x="286" y="-181.93" font-family="Menlo" font-size="10.00">H2</text>
<text text-anchor="start" x="247" y="-173.83" font-family="Menlo" font-size="8.00" fill="gray"> 3, 4, 5, 6, 7, 8, 9</text>
</g>
<!-- I9&#45;&gt;H2 -->
<g id="edge3" class="edge">
<title>I9&#45;&gt;H2</title>
<path fill="none" stroke="gray" d="M503.89,-714.83C382.55,-712.41 100.63,-703.62 70,-673.93 34.25,-639.28 57,-612.45 57,-562.66 57,-562.66 57,-562.66 57,-402.75 57,-293.63 193.51,-222.86 258.44,-195.37"/>
<polygon fill="gray" stroke="gray" points="258.48,-196.5 260.84,-194.37 257.67,-194.56 258.48,-196.5"/>
</g>
<!-- I1 -->
<g id="node5" class="node">
<title>I1</title>
<path fill="none" stroke="gray" d="M562.46,-98.03C562.46,-98.03 455.54,-98.03 455.54,-98.03 451.58,-98.03 447.62,-94.07 447.62,-90.11 447.62,-90.11 447.62,-82.19 447.62,-82.19 447.62,-78.23 451.58,-74.27 455.54,-74.27 455.54,-74.27 562.46,-74.27 562.46,-74.27 566.42,-74.27 570.38,-78.23 570.38,-82.19 570.38,-82.19 570.38,-90.11 570.38,-90.11 570.38,-94.07 566.42,-98.03 562.46,-98.03"/>
<text text-anchor="start" x="503" y="-86.65" font-family="Menlo" font-size="10.00">I1</text>
<text text-anchor="start" x="450.5" y="-78.55" font-family="Menlo" font-size="8.00" fill="gray"> 1, 2, 3, 4, 5, 6, 7, 8, 9</text>
</g>
<!-- I9&#45;&gt;I1 -->
<g id="edge4" class="edge">
<title>I9&#45;&gt;I1</title>
<path fill="none" stroke="gray" d="M613.87,-715.15C701.71,-713.34 869.05,-705.69 918,-673.93 965.67,-643 981,-619.49 981,-562.66 981,-562.66 981,-562.66 981,-402.75 981,-309.7 890,-307.24 890,-214.19 890,-214.19 890,-214.19 890,-180.43 890,-124.32 842.67,-118.66 788,-106.03 777.78,-103.67 654.09,-95.88 574.87,-91.08"/>
<polygon fill="gray" stroke="gray" points="575.23,-90.05 572.17,-90.92 575.1,-92.15 575.23,-90.05"/>
</g>
<!-- H1 -->
<g id="node6" class="node">
<title>H1</title>
<path fill="none" stroke="gray" d="M555.71,-129.79C555.71,-129.79 462.29,-129.79 462.29,-129.79 458.33,-129.79 454.37,-125.83 454.37,-121.87 454.37,-121.87 454.37,-113.95 454.37,-113.95 454.37,-109.99 458.33,-106.03 462.29,-106.03 462.29,-106.03 555.71,-106.03 555.71,-106.03 559.67,-106.03 563.63,-109.99 563.63,-113.95 563.63,-113.95 563.63,-121.87 563.63,-121.87 563.63,-125.83 559.67,-129.79 555.71,-129.79"/>
<text text-anchor="start" x="503" y="-118.41" font-family="Menlo" font-size="10.00">H1</text>
<text text-anchor="start" x="457.25" y="-110.31" font-family="Menlo" font-size="8.00" fill="gray"> 2, 3, 4, 5, 6, 7, 8, 9</text>
</g>
<!-- I9&#45;&gt;H1 -->
<g id="edge5" class="edge">
<title>I9&#45;&gt;H1</title>
<path fill="none" stroke="gray" d="M614.08,-713.36C692.29,-709.24 830.84,-698.61 874,-673.93 928.49,-642.77 961,-625.44 961,-562.66 961,-562.66 961,-562.66 961,-434.51 961,-378.48 923.56,-375.31 893,-328.35 883.77,-314.17 883.55,-308.96 872,-296.59 824.1,-245.26 804.88,-239.55 746,-201.31 722,-185.72 715.75,-182.03 690,-169.55 656.32,-153.23 647.93,-148.28 612,-137.79 598.08,-133.73 582.84,-130.36 568.45,-127.66"/>
<polygon fill="gray" stroke="gray" points="568.64,-126.63 565.5,-127.11 568.26,-128.69 568.64,-126.63"/>
</g>
<!-- H6 -->
<g id="node7" class="node">
<title>H6</title>
<path fill="none" stroke="gray" d="M149.96,-447.39C149.96,-447.39 124.04,-447.39 124.04,-447.39 120.08,-447.39 116.12,-443.43 116.12,-439.47 116.12,-439.47 116.12,-431.55 116.12,-431.55 116.12,-427.59 120.08,-423.63 124.04,-423.63 124.04,-423.63 149.96,-423.63 149.96,-423.63 153.92,-423.63 157.88,-427.59 157.88,-431.55 157.88,-431.55 157.88,-439.47 157.88,-439.47 157.88,-443.43 153.92,-447.39 149.96,-447.39"/>
<text text-anchor="start" x="131" y="-436.01" font-family="Menlo" font-size="10.00">H6</text>
<text text-anchor="start" x="119" y="-427.91" font-family="Menlo" font-size="8.00" fill="gray"> 7, 8, 9</text>
</g>
<!-- I9&#45;&gt;H6 -->
<g id="edge6" class="edge">
<title>I9&#45;&gt;H6</title>
<path fill="none" stroke="gray" d="M504.06,-714.66C409.02,-709.66 224,-684.31 224,-562.66 224,-562.66 224,-562.66 224,-498.03 224,-467.48 187.79,-450.74 162.09,-442.71"/>
<polygon fill="gray" stroke="gray" points="162.68,-441.79 159.51,-441.93 162.08,-443.8 162.68,-441.79"/>
</g>
<!-- I4 -->
<g id="node8" class="node">
<title>I4</title>
<path fill="none" stroke="gray" d="M397.71,-288.59C397.71,-288.59 304.29,-288.59 304.29,-288.59 300.33,-288.59 296.37,-284.63 296.37,-280.67 296.37,-280.67 296.37,-272.75 296.37,-272.75 296.37,-268.79 300.33,-264.83 304.29,-264.83 304.29,-264.83 397.71,-264.83 397.71,-264.83 401.67,-264.83 405.63,-268.79 405.63,-272.75 405.63,-272.75 405.63,-280.67 405.63,-280.67 405.63,-284.63 401.67,-288.59 397.71,-288.59"/>
<text text-anchor="start" x="345" y="-277.21" font-family="Menlo" font-size="10.00">I4</text>
<text text-anchor="start" x="299.25" y="-269.11" font-family="Menlo" font-size="8.00" fill="gray"> 2, 3, 4, 5, 6, 7, 8, 9</text>
</g>
<!-- I9&#45;&gt;I4 -->
<g id="edge7" class="edge">
<title>I9&#45;&gt;I4</title>
<path fill="none" stroke="gray" d="M504.25,-714.25C389.46,-710.72 131.67,-699.98 102,-673.93 63.91,-640.49 77,-613.35 77,-562.66 77,-562.66 77,-562.66 77,-466.27 77,-362.17 212.87,-311.18 293.26,-290.12"/>
<polygon fill="gray" stroke="gray" points="293.41,-291.16 296.05,-289.4 292.89,-289.13 293.41,-291.16"/>
</g>
<!-- I5 -->
<g id="node9" class="node">
<title>I5</title>
<path fill="none" stroke="gray" d="M701.71,-352.11C701.71,-352.11 608.29,-352.11 608.29,-352.11 604.33,-352.11 600.37,-348.15 600.37,-344.19 600.37,-344.19 600.37,-336.27 600.37,-336.27 600.37,-332.31 604.33,-328.35 608.29,-328.35 608.29,-328.35 701.71,-328.35 701.71,-328.35 705.67,-328.35 709.63,-332.31 709.63,-336.27 709.63,-336.27 709.63,-344.19 709.63,-344.19 709.63,-348.15 705.67,-352.11 701.71,-352.11"/>
<text text-anchor="start" x="649" y="-340.73" font-family="Menlo" font-size="10.00">I5</text>
<text text-anchor="start" x="603.25" y="-332.63" font-family="Menlo" font-size="8.00" fill="gray"> 1, 2, 3, 4, 5, 6, 7, 8</text>
</g>
<!-- I9&#45;&gt;I5 -->
<g id="edge8" class="edge">
<title>I9&#45;&gt;I5</title>
<path fill="none" stroke="gray" d="M561.87,-704.48C575.67,-650.65 635.15,-418.66 651.07,-356.57"/>
<polygon fill="gray" stroke="gray" points="652.03,-357.03 651.76,-353.86 650,-356.5 652.03,-357.03"/>
</g>
<!-- I8 -->
<g id="node10" class="node">
<title>I8</title>
<path fill="none" stroke="gray" d="M718.71,-573.54C718.71,-573.54 679.29,-573.54 679.29,-573.54 675.33,-573.54 671.37,-569.58 671.37,-565.62 671.37,-565.62 671.37,-557.7 671.37,-557.7 671.37,-553.75 675.33,-549.78 679.29,-549.78 679.29,-549.78 718.71,-549.78 718.71,-549.78 722.67,-549.78 726.63,-553.75 726.63,-557.7 726.63,-557.7 726.63,-565.62 726.63,-565.62 726.63,-569.58 722.67,-573.54 718.71,-573.54"/>
<text text-anchor="start" x="693" y="-562.16" font-family="Menlo" font-size="10.00">I8</text>
<text text-anchor="start" x="674.25" y="-554.06" font-family="Menlo" font-size="8.00" fill="gray"> 6, 7, 8, 9</text>
</g>
<!-- I9&#45;&gt;I8 -->
<g id="edge9" class="edge">
<title>I9&#45;&gt;I8</title>
<path fill="none" stroke="gray" d="M576.31,-704.35C587.65,-696.51 602.45,-685.44 614,-673.93 645.24,-642.78 674.91,-599.87 689.53,-577.54"/>
<polygon fill="gray" stroke="gray" points="690.33,-578.23 691.09,-575.14 688.57,-577.08 690.33,-578.23"/>
</g>
<!-- H4 -->
<g id="node11" class="node">
<title>H4</title>
<path fill="none" stroke="gray" d="M516.46,-320.35C516.46,-320.35 463.54,-320.35 463.54,-320.35 459.58,-320.35 455.62,-316.39 455.62,-312.43 455.62,-312.43 455.62,-304.51 455.62,-304.51 455.62,-300.55 459.58,-296.59 463.54,-296.59 463.54,-296.59 516.46,-296.59 516.46,-296.59 520.42,-296.59 524.38,-300.55 524.38,-304.51 524.38,-304.51 524.38,-312.43 524.38,-312.43 524.38,-316.39 520.42,-320.35 516.46,-320.35"/>
<text text-anchor="start" x="484" y="-308.97" font-family="Menlo" font-size="10.00">H4</text>
<text text-anchor="start" x="458.5" y="-300.87" font-family="Menlo" font-size="8.00" fill="gray"> 5, 6, 7, 8, 9</text>
</g>
<!-- I9&#45;&gt;H4 -->
<g id="edge10" class="edge">
<title>I9&#45;&gt;H4</title>
<path fill="none" stroke="gray" d="M557.77,-704.57C555.1,-679.36 549,-615.91 549,-562.66 549,-562.66 549,-562.66 549,-466.27 549,-411.1 516.61,-351.61 499.83,-324.48"/>
<polygon fill="gray" stroke="gray" points="500.76,-323.99 498.28,-322 498.98,-325.1 500.76,-323.99"/>
</g>
<!-- H8 -->
<g id="node12" class="node">
<title>H8</title>
<path fill="none" stroke="gray" d="M693.96,-651.05C693.96,-651.05 688.04,-651.05 688.04,-651.05 685.08,-651.05 682.12,-648.09 682.12,-645.13 682.12,-645.13 682.12,-633.21 682.12,-633.21 682.12,-630.25 685.08,-627.29 688.04,-627.29 688.04,-627.29 693.96,-627.29 693.96,-627.29 696.92,-627.29 699.88,-630.25 699.88,-633.21 699.88,-633.21 699.88,-645.13 699.88,-645.13 699.88,-648.09 696.92,-651.05 693.96,-651.05"/>
<text text-anchor="start" x="685" y="-639.67" font-family="Menlo" font-size="10.00">H8</text>
<text text-anchor="start" x="686.5" y="-631.57" font-family="Menlo" font-size="8.00" fill="gray"> 9</text>
</g>
<!-- I9&#45;&gt;H8 -->
<g id="edge11" class="edge">
<title>I9&#45;&gt;H8</title>
<path fill="none" stroke="gray" d="M583.8,-704.31C600.55,-696.36 622.99,-685.19 642,-673.93 654.71,-666.4 668.51,-656.75 678.22,-649.7"/>
<polygon fill="gray" stroke="gray" points="678.83,-650.55 680.63,-647.93 677.59,-648.85 678.83,-650.55"/>
</g>
<!-- H7 -->
<g id="node13" class="node">
<title>H7</title>
<path fill="none" stroke="gray" d="M420.21,-510.91C420.21,-510.91 407.79,-510.91 407.79,-510.91 403.83,-510.91 399.87,-506.95 399.87,-502.99 399.87,-502.99 399.87,-495.07 399.87,-495.07 399.87,-491.11 403.83,-487.15 407.79,-487.15 407.79,-487.15 420.21,-487.15 420.21,-487.15 424.17,-487.15 428.13,-491.11 428.13,-495.07 428.13,-495.07 428.13,-502.99 428.13,-502.99 428.13,-506.95 424.17,-510.91 420.21,-510.91"/>
<text text-anchor="start" x="408" y="-499.53" font-family="Menlo" font-size="10.00">H7</text>
<text text-anchor="start" x="402.75" y="-491.43" font-family="Menlo" font-size="8.00" fill="gray"> 8, 9</text>
</g>
<!-- I9&#45;&gt;H7 -->
<g id="edge12" class="edge">
<title>I9&#45;&gt;H7</title>
<path fill="none" stroke="gray" d="M551.41,-704.39C527.13,-668.29 451.4,-555.66 424.01,-514.92"/>
<polygon fill="gray" stroke="gray" points="424.91,-514.37 422.36,-512.47 423.16,-515.54 424.91,-514.37"/>
</g>
<!-- I6 -->
<g id="node14" class="node">
<title>I6</title>
<path fill="none" stroke="gray" d="M289.96,-415.63C289.96,-415.63 210.04,-415.63 210.04,-415.63 206.08,-415.63 202.12,-411.67 202.12,-407.71 202.12,-407.71 202.12,-399.79 202.12,-399.79 202.12,-395.83 206.08,-391.87 210.04,-391.87 210.04,-391.87 289.96,-391.87 289.96,-391.87 293.92,-391.87 297.88,-395.83 297.88,-399.79 297.88,-399.79 297.88,-407.71 297.88,-407.71 297.88,-411.67 293.92,-415.63 289.96,-415.63"/>
<text text-anchor="start" x="244" y="-404.25" font-family="Menlo" font-size="10.00">I6</text>
<text text-anchor="start" x="205" y="-396.15" font-family="Menlo" font-size="8.00" fill="gray"> 3, 4, 5, 6, 7, 8, 9</text>
</g>
<!-- I9&#45;&gt;I6 -->
<g id="edge13" class="edge">
<title>I9&#45;&gt;I6</title>
<path fill="none" stroke="gray" d="M503.95,-712.5C423.22,-707.2 277.06,-695 229,-673.93 158.73,-643.13 97,-639.39 97,-562.66 97,-562.66 97,-562.66 97,-466.27 97,-446.8 92.57,-436.7 107,-423.63 120.11,-411.76 162.29,-407.24 197.47,-405.57"/>
<polygon fill="gray" stroke="gray" points="197.26,-406.63 200.21,-405.45 197.17,-404.54 197.26,-406.63"/>
</g>
<!-- I3 -->
<g id="node15" class="node">
<title>I3</title>
<path fill="none" stroke="gray" d="M610.46,-225.07C610.46,-225.07 503.54,-225.07 503.54,-225.07 499.58,-225.07 495.62,-221.11 495.62,-217.15 495.62,-217.15 495.62,-209.23 495.62,-209.23 495.62,-205.27 499.58,-201.31 503.54,-201.31 503.54,-201.31 610.46,-201.31 610.46,-201.31 614.42,-201.31 618.38,-205.27 618.38,-209.23 618.38,-209.23 618.38,-217.15 618.38,-217.15 618.38,-221.11 614.42,-225.07 610.46,-225.07"/>
<text text-anchor="start" x="551" y="-213.69" font-family="Menlo" font-size="10.00">I3</text>
<text text-anchor="start" x="498.5" y="-205.59" font-family="Menlo" font-size="8.00" fill="gray"> 1, 2, 3, 4, 5, 6, 7, 8, 9</text>
</g>
<!-- I9&#45;&gt;I3 -->
<g id="edge14" class="edge">
<title>I9&#45;&gt;I3</title>
<path fill="none" stroke="gray" d="M613.84,-713.36C685.51,-709.35 806.14,-699.01 842,-673.93 887.87,-641.85 901,-618.64 901,-562.66 901,-562.66 901,-562.66 901,-402.75 901,-288.2 816.04,-268.16 707,-233.07 680.2,-224.45 649.52,-219.74 622.93,-217.17"/>
<polygon fill="gray" stroke="gray" points="623.29,-216.15 620.2,-216.92 623.09,-218.24 623.29,-216.15"/>
</g>
<!-- H5 -->
<g id="node16" class="node">
<title>H5</title>
<path fill="none" stroke="gray" d="M603.71,-383.87C603.71,-383.87 564.29,-383.87 564.29,-383.87 560.33,-383.87 556.37,-379.91 556.37,-375.95 556.37,-375.95 556.37,-368.03 556.37,-368.03 556.37,-364.07 560.33,-360.11 564.29,-360.11 564.29,-360.11 603.71,-360.11 603.71,-360.11 607.67,-360.11 611.63,-364.07 611.63,-368.03 611.63,-368.03 611.63,-375.95 611.63,-375.95 611.63,-379.91 607.67,-383.87 603.71,-383.87"/>
<text text-anchor="start" x="578" y="-372.49" font-family="Menlo" font-size="10.00">H5</text>
<text text-anchor="start" x="559.25" y="-364.39" font-family="Menlo" font-size="8.00" fill="gray"> 6, 7, 8, 9</text>
</g>
<!-- I9&#45;&gt;H5 -->
<g id="edge15" class="edge">
<title>I9&#45;&gt;H5</title>
<path fill="none" stroke="gray" d="M559.8,-704.67C563.47,-654.43 578.61,-446.89 582.88,-388.4"/>
<polygon fill="gray" stroke="gray" points="583.91,-388.71 583.08,-385.64 581.81,-388.56 583.91,-388.71"/>
</g>
<!-- H0 -->
<g id="node17" class="node">
<title>H0</title>
<path fill="none" stroke="gray" d="M311.71,-66.27C311.71,-66.27 218.29,-66.27 218.29,-66.27 214.33,-66.27 210.37,-62.31 210.37,-58.35 210.37,-58.35 210.37,-50.43 210.37,-50.43 210.37,-46.47 214.33,-42.51 218.29,-42.51 218.29,-42.51 311.71,-42.51 311.71,-42.51 315.67,-42.51 319.63,-46.47 319.63,-50.43 319.63,-50.43 319.63,-58.35 319.63,-58.35 319.63,-62.31 315.67,-66.27 311.71,-66.27"/>
<text text-anchor="start" x="259" y="-54.89" font-family="Menlo" font-size="10.00">H0</text>
<text text-anchor="start" x="213.25" y="-46.79" font-family="Menlo" font-size="8.00" fill="gray"> 1, 2, 3, 4, 5, 6, 7, 8</text>
</g>
<!-- I9&#45;&gt;H0 -->
<g id="edge16" class="edge">
<title>I9&#45;&gt;H0</title>
<path fill="none" stroke="gray" d="M503.97,-715.39C374.15,-714.13 57.18,-707.61 24,-673.93 -10.77,-638.63 17,-612.21 17,-562.66 17,-562.66 17,-562.66 17,-275.71 17,-216.18 65,-210.2 65,-150.67 65,-150.67 65,-150.67 65,-116.91 65,-90.31 83.12,-85.98 107,-74.27 124.11,-65.88 168.67,-61.05 206.13,-58.38"/>
<polygon fill="gray" stroke="gray" points="205.76,-59.46 208.68,-58.2 205.61,-57.36 205.76,-59.46"/>
</g>
<!-- H3 -->
<g id="node18" class="node">
<title>H3</title>
<path fill="none" stroke="gray" d="M578.21,-256.83C578.21,-256.83 511.79,-256.83 511.79,-256.83 507.83,-256.83 503.87,-252.87 503.87,-248.91 503.87,-248.91 503.87,-240.99 503.87,-240.99 503.87,-237.03 507.83,-233.07 511.79,-233.07 511.79,-233.07 578.21,-233.07 578.21,-233.07 582.17,-233.07 586.13,-237.03 586.13,-240.99 586.13,-240.99 586.13,-248.91 586.13,-248.91 586.13,-252.87 582.17,-256.83 578.21,-256.83"/>
<text text-anchor="start" x="539" y="-245.45" font-family="Menlo" font-size="10.00">H3</text>
<text text-anchor="start" x="506.75" y="-237.35" font-family="Menlo" font-size="8.00" fill="gray"> 4, 5, 6, 7, 8, 9</text>
</g>
<!-- I9&#45;&gt;H3 -->
<g id="edge17" class="edge">
<title>I9&#45;&gt;H3</title>
<path fill="none" stroke="gray" d="M613.99,-713.74C705.95,-707.23 881,-679.49 881,-562.66 881,-562.66 881,-562.66 881,-402.75 881,-283.56 765.46,-298.07 651,-264.83 631.56,-259.18 609.59,-254.94 590.72,-251.91"/>
<polygon fill="gray" stroke="gray" points="591.12,-250.91 587.99,-251.48 590.79,-252.99 591.12,-250.91"/>
</g>
<!-- K0 -->
<g id="node19" class="node">
<title>K0</title>
<path fill="none" stroke="gray" d="M432.96,-34.51C432.96,-34.51 427.04,-34.51 427.04,-34.51 424.08,-34.51 421.12,-31.55 421.12,-28.59 421.12,-28.59 421.12,-21.92 421.12,-21.92 421.12,-18.96 424.08,-16 427.04,-16 427.04,-16 432.96,-16 432.96,-16 435.92,-16 438.88,-18.96 438.88,-21.92 438.88,-21.92 438.88,-28.59 438.88,-28.59 438.88,-31.55 435.92,-34.51 432.96,-34.51"/>
<text text-anchor="middle" x="430" y="-22.13" font-family="Menlo" font-size="10.00">K0</text>
</g>
<!-- I9&#45;&gt;K0 -->
<g id="edge18" class="edge">
<title>I9&#45;&gt;K0</title>
<path fill="none" stroke="gray" d="M613.78,-716.46C708.88,-716.74 899.43,-712.33 952,-673.93 995.63,-642.06 1001,-616.7 1001,-562.66 1001,-562.66 1001,-562.66 1001,-85.15 1001,-64.16 1024.98,-67.48 908,-42.51 815.83,-22.83 511.24,-25.27 443.45,-26.08"/>
<polygon fill="gray" stroke="gray" points="443.83,-25.02 440.85,-26.11 443.86,-27.12 443.83,-25.02"/>
</g>
<!-- I7&#45;&gt;I2 -->
<g id="edge43" class="edge">
<title>I7&#45;&gt;I2</title>
<path fill="none" stroke="gray" d="M369.19,-463.19C324.85,-458.24 242.82,-448.91 240,-447.39 227.86,-440.83 231.95,-430.53 220,-423.63 202.41,-413.47 189,-430.35 175,-415.63 98.05,-334.68 142.36,-243.57 226,-169.55 230.49,-165.58 240.34,-162.26 251.82,-159.56"/>
<polygon fill="gray" stroke="gray" points="251.93,-160.61 254.63,-158.93 251.47,-158.56 251.93,-160.61"/>
</g>
<!-- I7&#45;&gt;H2 -->
<g id="edge45" class="edge">
<title>I7&#45;&gt;H2</title>
<path fill="none" stroke="gray" d="M369,-463.9C336.88,-460.87 286.41,-455.09 269,-447.39 253.76,-440.65 255.16,-430.54 240,-423.63 220.72,-414.84 206.67,-431.82 193,-415.63 133.85,-345.56 236.71,-234.94 276.93,-196.3"/>
<polygon fill="gray" stroke="gray" points="277.17,-197.52 278.62,-194.69 275.72,-196 277.17,-197.52"/>
</g>
<!-- I7&#45;&gt;I1 -->
<g id="edge40" class="edge">
<title>I7&#45;&gt;I1</title>
<path fill="none" stroke="gray" d="M402.89,-455.28C408.79,-443.24 417,-423.17 417,-404.75 417,-404.75 417,-404.75 417,-370.99 417,-289.41 432.36,-261.88 487,-201.31 524.58,-159.66 564.89,-179.44 591,-129.79 595.92,-120.44 597.58,-114.29 591,-106.03 589.43,-104.05 582.73,-101.77 573.78,-99.49"/>
<polygon fill="gray" stroke="gray" points="574.45,-98.57 571.29,-98.87 573.95,-100.61 574.45,-98.57"/>
</g>
<!-- I7&#45;&gt;H1 -->
<g id="edge38" class="edge">
<title>I7&#45;&gt;H1</title>
<path fill="none" stroke="gray" d="M375,-455.08C357.87,-444.63 337,-427.28 337,-404.75 337,-404.75 337,-404.75 337,-370.99 337,-318.84 262.24,-310.73 287,-264.83 308.6,-224.79 428.73,-159.81 482.72,-132.11"/>
<polygon fill="gray" stroke="gray" points="482.95,-133.17 485.14,-130.87 481.99,-131.3 482.95,-133.17"/>
</g>
<!-- I7&#45;&gt;H6 -->
<g id="edge41" class="edge">
<title>I7&#45;&gt;H6</title>
<path fill="none" stroke="gray" d="M369.15,-458.21C364.46,-457.09 359.62,-456.09 355,-455.39 282.42,-444.35 262.84,-456.58 190,-447.39 180.95,-446.25 171.14,-444.41 162.45,-442.56"/>
<polygon fill="gray" stroke="gray" points="162.91,-441.59 159.76,-441.98 162.47,-443.64 162.91,-441.59"/>
</g>
<!-- I7&#45;&gt;I4 -->
<g id="edge35" class="edge">
<title>I7&#45;&gt;I4</title>
<path fill="none" stroke="gray" d="M391.11,-455.28C385.21,-443.24 377,-423.17 377,-404.75 377,-404.75 377,-404.75 377,-370.99 377,-342.54 365.64,-310.95 357.94,-292.8"/>
<polygon fill="gray" stroke="gray" points="359.02,-292.64 356.86,-290.31 357.09,-293.48 359.02,-292.64"/>
</g>
<!-- I7&#45;&gt;I5 -->
<g id="edge39" class="edge">
<title>I7&#45;&gt;I5</title>
<path fill="none" stroke="gray" d="M424.93,-464.99C442.51,-463.06 465,-458.4 482,-447.39 522.6,-421.1 505.81,-385.47 547,-360.11 561.49,-351.19 579.04,-346.19 595.74,-343.47"/>
<polygon fill="gray" stroke="gray" points="595.66,-344.55 598.47,-343.06 595.34,-342.47 595.66,-344.55"/>
</g>
<!-- I7&#45;&gt;H4 -->
<g id="edge37" class="edge">
<title>I7&#45;&gt;H4</title>
<path fill="none" stroke="gray" d="M424.85,-463.97C437.58,-461.59 452.01,-456.84 462,-447.39 476.59,-433.58 477,-424.84 477,-404.75 477,-404.75 477,-404.75 477,-370.99 477,-355.05 481.23,-337.27 484.87,-324.94"/>
<polygon fill="gray" stroke="gray" points="485.86,-325.28 485.73,-322.11 483.85,-324.67 485.86,-325.28"/>
</g>
<!-- I7&#45;&gt;I6 -->
<g id="edge44" class="edge">
<title>I7&#45;&gt;I6</title>
<path fill="none" stroke="gray" d="M369.05,-458.74C364.37,-457.56 359.56,-456.4 355,-455.39 336.02,-451.17 329.96,-454.84 312,-447.39 295.01,-440.34 277.96,-428.15 266.05,-418.61"/>
<polygon fill="gray" stroke="gray" points="267,-418.02 264.01,-416.95 265.67,-419.65 267,-418.02"/>
</g>
<!-- I7&#45;&gt;I3 -->
<g id="edge36" class="edge">
<title>I7&#45;&gt;I3</title>
<path fill="none" stroke="gray" d="M369.15,-463.97C356.42,-461.59 341.99,-456.84 332,-447.39 317.41,-433.58 317,-424.84 317,-404.75 317,-404.75 317,-404.75 317,-370.99 317,-332.11 330.58,-318.05 363,-296.59 382.5,-283.68 395.44,-301.41 415,-288.59 425.44,-281.74 421.66,-274.12 430,-264.83 430.24,-264.57 469.68,-233.22 470,-233.07 476.72,-229.89 483.98,-227.24 491.35,-225.02"/>
<polygon fill="gray" stroke="gray" points="491.41,-226.1 494,-224.26 490.82,-224.08 491.41,-226.1"/>
</g>
<!-- I7&#45;&gt;H5 -->
<g id="edge48" class="edge">
<title>I7&#45;&gt;H5</title>
<path fill="none" stroke="gray" d="M425.08,-466.73C449.83,-466.01 486.19,-462.15 514,-447.39 540.73,-433.2 562.92,-404.88 574.76,-387.56"/>
<polygon fill="gray" stroke="gray" points="575.33,-388.58 576.14,-385.51 573.59,-387.41 575.33,-388.58"/>
</g>
<!-- I7&#45;&gt;H0 -->
<g id="edge46" class="edge">
<title>I7&#45;&gt;H0</title>
<path fill="none" stroke="gray" d="M368.99,-463.04C349.63,-460.83 323.25,-457.86 300,-455.39 282.23,-453.51 235.8,-455.73 220,-447.39 207.79,-440.95 211.99,-430.47 200,-423.63 181.21,-412.92 169.25,-428.67 152,-415.63 112.94,-386.1 85,-398.15 85,-214.19 85,-214.19 85,-214.19 85,-148.67 85,-93.21 153.19,-70.68 205.63,-61.56"/>
<polygon fill="gray" stroke="gray" points="205.74,-62.61 208.52,-61.07 205.39,-60.54 205.74,-62.61"/>
</g>
<!-- I7&#45;&gt;H3 -->
<g id="edge42" class="edge">
<title>I7&#45;&gt;H3</title>
<path fill="none" stroke="gray" d="M419,-455.08C436.13,-444.63 457,-427.28 457,-404.75 457,-404.75 457,-404.75 457,-370.99 457,-337.63 425.67,-322.25 447,-296.59 459.42,-281.64 472.26,-296.55 490,-288.59 505.38,-281.69 520.34,-269.64 530.76,-260.11"/>
<polygon fill="gray" stroke="gray" points="531.26,-261.08 532.74,-258.27 529.83,-259.54 531.26,-261.08"/>
</g>
<!-- I7&#45;&gt;K0 -->
<g id="edge47" class="edge">
<title>I7&#45;&gt;K0</title>
<path fill="none" stroke="gray" d="M369.01,-462.89C349.65,-460.61 323.28,-457.63 300,-455.39 277.81,-453.26 219.08,-458.92 200,-447.39 189.31,-440.93 195.57,-430.28 185,-423.63 158.87,-407.19 142.48,-431.51 116,-415.63 51.58,-377 17,-358.32 17,-182.43 17,-182.43 17,-182.43 17,-85.15 17,-59.77 32.07,-53.39 55,-42.51 88.2,-26.75 354.08,-26.14 416.78,-26.22"/>
<polygon fill="gray" stroke="gray" points="416.43,-27.27 419.43,-26.23 416.43,-25.17 416.43,-27.27"/>
</g>
<!-- I2&#45;&gt;I1 -->
<g id="edge87" class="edge">
<title>I2&#45;&gt;I1</title>
<path fill="none" stroke="gray" d="M339.56,-137.44C363.49,-128.27 398.66,-115.36 430,-106.03 437.53,-103.79 445.52,-101.63 453.41,-99.62"/>
<polygon fill="gray" stroke="gray" points="453.66,-100.64 456.32,-98.89 453.15,-98.61 453.66,-100.64"/>
</g>
<!-- I2&#45;&gt;H1 -->
<g id="edge85" class="edge">
<title>I2&#45;&gt;H1</title>
<path fill="none" stroke="gray" d="M365.89,-140.42C391.96,-136.5 423.17,-131.81 449.77,-127.81"/>
<polygon fill="gray" stroke="gray" points="449.69,-128.89 452.51,-127.4 449.38,-126.81 449.69,-128.89"/>
</g>
<!-- I2&#45;&gt;H0 -->
<g id="edge86" class="edge">
<title>I2&#45;&gt;H0</title>
<path fill="none" stroke="gray" d="M305.54,-137.6C297.36,-121 281.87,-89.6 272.59,-70.78"/>
<polygon fill="gray" stroke="gray" points="273.53,-70.32 271.26,-68.09 271.65,-71.25 273.53,-70.32"/>
</g>
<!-- I2&#45;&gt;K0 -->
<g id="edge88" class="edge">
<title>I2&#45;&gt;K0</title>
<path fill="none" stroke="gray" d="M283.28,-137.3C240.67,-118.3 167.35,-78.63 201,-42.51 215.71,-26.72 369.41,-26.01 416.42,-26.17"/>
<polygon fill="gray" stroke="gray" points="416.36,-27.22 419.36,-26.18 416.36,-25.12 416.36,-27.22"/>
</g>
<!-- H2&#45;&gt;I2 -->
<g id="edge106" class="edge">
<title>H2&#45;&gt;I2</title>
<path fill="none" stroke="gray" d="M299.07,-169.35C299.98,-167.94 300.91,-166.47 301.84,-165.02"/>
<polygon fill="gray" stroke="gray" points="302.44,-166.03 303.17,-162.94 300.67,-164.9 302.44,-166.03"/>
</g>
<!-- H2&#45;&gt;H2 -->
<g id="edge105" class="edge">
<title>H2&#45;&gt;H2</title>
<path fill="none" stroke="gray" d="M340.26,-187.19C350.49,-186.61 357.88,-184.69 357.88,-181.43 357.88,-178.63 352.42,-176.82 344.4,-175.99"/>
<polygon fill="gray" stroke="gray" points="344.84,-174.98 341.77,-175.79 344.68,-177.07 344.84,-174.98"/>
</g>
<!-- I1&#45;&gt;H0 -->
<g id="edge90" class="edge">
<title>I1&#45;&gt;H0</title>
<path fill="none" stroke="gray" d="M447.43,-77.64C409.56,-73.02 361.3,-67.14 323.93,-62.58"/>
<polygon fill="gray" stroke="gray" points="324.5,-61.59 321.39,-62.27 324.24,-63.67 324.5,-61.59"/>
</g>
<!-- I1&#45;&gt;K0 -->
<g id="edge89" class="edge">
<title>I1&#45;&gt;K0</title>
<path fill="none" stroke="gray" d="M493.77,-73.79C478.89,-62.7 456.51,-46.02 442.6,-35.65"/>
<polygon fill="gray" stroke="gray" points="443.5,-35.01 440.47,-34.06 442.25,-36.69 443.5,-35.01"/>
</g>
<!-- H1&#45;&gt;I1 -->
<g id="edge107" class="edge">
<title>H1&#45;&gt;I1</title>
<path fill="none" stroke="gray" d="M509,-105.83C509,-104.73 509,-103.6 509,-102.47"/>
<polygon fill="gray" stroke="gray" points="510.05,-102.66 509,-99.66 507.95,-102.66 510.05,-102.66"/>
</g>
<!-- H1&#45;&gt;H1 -->
<g id="edge108" class="edge">
<title>H1&#45;&gt;H1</title>
<path fill="none" stroke="gray" d="M564.11,-123.56C574.39,-122.86 581.63,-120.98 581.63,-117.91 581.63,-115.27 576.28,-113.51 568.25,-112.62"/>
<polygon fill="gray" stroke="gray" points="568.69,-111.61 565.61,-112.39 568.51,-113.7 568.69,-111.61"/>
</g>
<!-- H6&#45;&gt;H6 -->
<g id="edge97" class="edge">
<title>H6&#45;&gt;H6</title>
<path fill="none" stroke="gray" d="M158.2,-441.37C167.68,-441.93 175.88,-439.98 175.88,-435.51 175.88,-431.74 170.04,-429.76 162.52,-429.57"/>
<polygon fill="gray" stroke="gray" points="162.69,-428.52 159.71,-429.62 162.73,-430.62 162.69,-428.52"/>
</g>
<!-- H6&#45;&gt;I6 -->
<g id="edge98" class="edge">
<title>H6&#45;&gt;I6</title>
<path fill="none" stroke="gray" d="M158.25,-428.91C170.76,-425.62 187.1,-421.32 202.52,-417.25"/>
<polygon fill="gray" stroke="gray" points="202.75,-418.28 205.38,-416.5 202.21,-416.25 202.75,-418.28"/>
</g>
<!-- I4&#45;&gt;I2 -->
<g id="edge77" class="edge">
<title>I4&#45;&gt;I2</title>
<path fill="none" stroke="gray" d="M353.31,-264.47C357.57,-243.59 366.33,-200.31 367,-193.31 368.01,-182.8 373.16,-178.13 367,-169.55 365.72,-167.77 364.26,-166.15 362.67,-164.69"/>
<polygon fill="gray" stroke="gray" points="363.38,-163.91 360.39,-162.84 362.06,-165.55 363.38,-163.91"/>
</g>
<!-- I4&#45;&gt;H2 -->
<g id="edge71" class="edge">
<title>I4&#45;&gt;H2</title>
<path fill="none" stroke="gray" d="M328.24,-264.35C325.2,-262.15 322.33,-259.64 320,-256.83 305.67,-239.54 298.25,-214.17 294.74,-197.98"/>
<polygon fill="gray" stroke="gray" points="295.79,-197.88 294.16,-195.16 293.73,-198.31 295.79,-197.88"/>
</g>
<!-- I4&#45;&gt;I1 -->
<g id="edge76" class="edge">
<title>I4&#45;&gt;I1</title>
<path fill="none" stroke="gray" d="M362.42,-264.69C364.96,-262.15 367.61,-259.43 370,-256.83 379.35,-246.68 379.71,-242.27 390,-233.07 394.78,-228.8 397.53,-229.66 402,-225.07 413.64,-213.12 415.35,-208.61 422,-193.31 437.98,-156.52 417.05,-134.81 445,-106.03 446.91,-104.07 449.01,-102.31 451.25,-100.72"/>
<polygon fill="gray" stroke="gray" points="451.65,-101.71 453.61,-99.21 450.52,-99.95 451.65,-101.71"/>
</g>
<!-- I4&#45;&gt;H1 -->
<g id="edge78" class="edge">
<title>I4&#45;&gt;H1</title>
<path fill="none" stroke="gray" d="M377.9,-264.55C382.13,-262.28 386.32,-259.69 390,-256.83 400.9,-248.36 398.29,-240.38 410,-233.07 422.44,-225.31 430.12,-233.66 442,-225.07 474.25,-201.74 494.58,-157.67 503.59,-134.32"/>
<polygon fill="gray" stroke="gray" points="504.53,-134.81 504.61,-131.63 502.57,-134.06 504.53,-134.81"/>
</g>
<!-- I4&#45;&gt;I3 -->
<g id="edge75" class="edge">
<title>I4&#45;&gt;I3</title>
<path fill="none" stroke="gray" d="M389.03,-264.37C396.06,-262.04 403.3,-259.48 410,-256.83 432.88,-247.78 436.63,-240.76 460,-233.07 469.93,-229.8 480.62,-227.02 491.16,-224.68"/>
<polygon fill="gray" stroke="gray" points="491.15,-225.76 493.86,-224.09 490.71,-223.7 491.15,-225.76"/>
</g>
<!-- I4&#45;&gt;H0 -->
<g id="edge74" class="edge">
<title>I4&#45;&gt;H0</title>
<path fill="none" stroke="gray" d="M318.23,-264.36C275.19,-247.11 205,-209.91 205,-150.67 205,-150.67 205,-150.67 205,-116.91 205,-95.97 223.04,-79.49 239.34,-68.88"/>
<polygon fill="gray" stroke="gray" points="239.74,-69.87 241.72,-67.39 238.62,-68.1 239.74,-69.87"/>
</g>
<!-- I4&#45;&gt;H3 -->
<g id="edge72" class="edge">
<title>I4&#45;&gt;H3</title>
<path fill="none" stroke="gray" d="M406.07,-267.26C435.53,-262.74 471.37,-257.25 499.27,-252.97"/>
<polygon fill="gray" stroke="gray" points="499.37,-254.01 502.18,-252.52 499.06,-251.94 499.37,-254.01"/>
</g>
<!-- I4&#45;&gt;K0 -->
<g id="edge73" class="edge">
<title>I4&#45;&gt;K0</title>
<path fill="none" stroke="gray" d="M355.25,-264.35C366.63,-233.49 397,-148.41 397,-118.91 397,-118.91 397,-118.91 397,-85.15 397,-67.09 408.95,-49.44 418.47,-38.24"/>
<polygon fill="gray" stroke="gray" points="419.14,-39.07 420.33,-36.12 417.56,-37.68 419.14,-39.07"/>
</g>
<!-- I5&#45;&gt;I2 -->
<g id="edge68" class="edge">
<title>I5&#45;&gt;I2</title>
<path fill="none" stroke="gray" d="M656.9,-327.89C660.73,-300.76 665.93,-232.04 627,-201.31 588.17,-170.66 450.47,-158.15 370.23,-153.37"/>
<polygon fill="gray" stroke="gray" points="370.55,-152.34 367.49,-153.21 370.43,-154.44 370.55,-152.34"/>
</g>
<!-- I5&#45;&gt;H2 -->
<g id="edge69" class="edge">
<title>I5&#45;&gt;H2</title>
<path fill="none" stroke="gray" d="M651.4,-328.21C642.81,-302.23 621.2,-238.89 613,-233.07 594.77,-220.14 433.95,-229.3 412,-225.07 379.78,-218.85 344.59,-205.51 320.7,-195.4"/>
<polygon fill="gray" stroke="gray" points="321.23,-194.49 318.06,-194.27 320.41,-196.42 321.23,-194.49"/>
</g>
<!-- I5&#45;&gt;I1 -->
<g id="edge63" class="edge">
<title>I5&#45;&gt;I1</title>
<path fill="none" stroke="gray" d="M669.75,-327.87C709.75,-295.72 813.93,-202.23 762,-137.79 739,-109.25 642.01,-96.5 575.03,-91.02"/>
<polygon fill="gray" stroke="gray" points="575.25,-89.99 572.17,-90.79 575.08,-92.08 575.25,-89.99"/>
</g>
<!-- I5&#45;&gt;H1 -->
<g id="edge65" class="edge">
<title>I5&#45;&gt;H1</title>
<path fill="none" stroke="gray" d="M660.67,-327.88C661.63,-325.45 662.49,-322.86 663,-320.35 673.71,-267.62 677.76,-240.6 641,-201.31 611.77,-170.06 568.18,-145.94 539.19,-132.09"/>
<polygon fill="gray" stroke="gray" points="539.9,-131.26 536.74,-130.93 539.01,-133.16 539.9,-131.26"/>
</g>
<!-- I5&#45;&gt;I4 -->
<g id="edge66" class="edge">
<title>I5&#45;&gt;I4</title>
<path fill="none" stroke="gray" d="M612.97,-327.85C607.13,-325.68 601.31,-323.18 596,-320.35 580.99,-312.35 581.8,-302.88 566,-296.59 538.7,-285.73 464.15,-281.09 410.49,-279.12"/>
<polygon fill="gray" stroke="gray" points="410.57,-278.08 407.53,-279.02 410.49,-280.17 410.57,-278.08"/>
</g>
<!-- I5&#45;&gt;H4 -->
<g id="edge67" class="edge">
<title>I5&#45;&gt;H4</title>
<path fill="none" stroke="gray" d="M600.06,-329.32C576.78,-325.12 550.19,-320.33 528.98,-316.5"/>
<polygon fill="gray" stroke="gray" points="529.16,-315.47 526.03,-315.97 528.79,-317.53 529.16,-315.47"/>
</g>
<!-- I5&#45;&gt;I3 -->
<g id="edge61" class="edge">
<title>I5&#45;&gt;I3</title>
<path fill="none" stroke="gray" d="M655.58,-328.18C656.07,-306.74 653.95,-259.3 628,-233.07 626.06,-231.11 623.94,-229.34 621.68,-227.75"/>
<polygon fill="gray" stroke="gray" points="622.39,-226.96 619.3,-226.22 621.25,-228.73 622.39,-226.96"/>
</g>
<!-- I5&#45;&gt;H0 -->
<g id="edge62" class="edge">
<title>I5&#45;&gt;H0</title>
<path fill="none" stroke="gray" d="M683.04,-327.85C687.51,-325.61 691.99,-323.09 696,-320.35 712.81,-308.87 715.34,-303.68 729,-288.59 775.85,-236.83 812.51,-195.35 773,-137.79 738.4,-87.39 710.56,-88.04 651,-74.27 635.4,-70.67 428.52,-61.94 324.24,-57.74"/>
<polygon fill="gray" stroke="gray" points="324.51,-56.7 321.47,-57.62 324.43,-58.79 324.51,-56.7"/>
</g>
<!-- I5&#45;&gt;H3 -->
<g id="edge64" class="edge">
<title>I5&#45;&gt;H3</title>
<path fill="none" stroke="gray" d="M628.25,-327.87C624,-325.62 619.77,-323.1 616,-320.35 592.12,-302.95 569.45,-276.95 556.4,-260.75"/>
<polygon fill="gray" stroke="gray" points="557.24,-260.12 554.55,-258.43 555.6,-261.43 557.24,-260.12"/>
</g>
<!-- I5&#45;&gt;K0 -->
<g id="edge70" class="edge">
<title>I5&#45;&gt;K0</title>
<path fill="none" stroke="gray" d="M710.02,-336.08C784.98,-328.49 910,-302.57 910,-214.19 910,-214.19 910,-214.19 910,-85.15 910,-36.79 521.17,-27.77 443.43,-26.45"/>
<polygon fill="gray" stroke="gray" points="443.69,-25.41 440.67,-26.41 443.66,-27.51 443.69,-25.41"/>
</g>
<!-- I8&#45;&gt;I7 -->
<g id="edge28" class="edge">
<title>I8&#45;&gt;I7</title>
<path fill="none" stroke="gray" d="M670.96,-551.09C627.94,-536.53 543,-508.29 470,-487.15 456.67,-483.29 441.86,-479.39 429.08,-476.14"/>
<polygon fill="gray" stroke="gray" points="429.47,-475.16 426.3,-475.44 428.95,-477.19 429.47,-475.16"/>
</g>
<!-- I8&#45;&gt;I2 -->
<g id="edge27" class="edge">
<title>I8&#45;&gt;I2</title>
<path fill="none" stroke="gray" d="M726.99,-553.04C763.01,-541.32 821,-515.16 821,-468.27 821,-468.27 821,-468.27 821,-370.99 821,-229.68 711.56,-205.87 575,-169.55 537.74,-159.64 435.88,-154.61 370.13,-152.32"/>
<polygon fill="gray" stroke="gray" points="370.4,-151.28 367.37,-152.22 370.33,-153.38 370.4,-151.28"/>
</g>
<!-- I8&#45;&gt;H2 -->
<g id="edge31" class="edge">
<title>I8&#45;&gt;H2</title>
<path fill="none" stroke="gray" d="M713.07,-549.47C731.36,-533.54 761,-502.46 761,-468.27 761,-468.27 761,-468.27 761,-339.23 761,-300.72 660.06,-246.59 624,-233.07 595.45,-222.36 517.21,-229.25 487,-225.07 438.32,-218.34 427.02,-211.8 379,-201.31 367.84,-198.87 355.87,-196.27 344.49,-193.8"/>
<polygon fill="gray" stroke="gray" points="344.96,-192.82 341.8,-193.21 344.51,-194.88 344.96,-192.82"/>
</g>
<!-- I8&#45;&gt;I1 -->
<g id="edge24" class="edge">
<title>I8&#45;&gt;I1</title>
<path fill="none" stroke="gray" d="M726.85,-557.51C773.17,-550.55 861,-529.3 861,-468.27 861,-468.27 861,-468.27 861,-402.75 861,-318.85 870,-298.09 870,-214.19 870,-214.19 870,-214.19 870,-180.43 870,-108 794.6,-126.09 725,-106.03 697.82,-98.2 628.12,-93.05 575.19,-90.14"/>
<polygon fill="gray" stroke="gray" points="575.33,-89.1 572.27,-89.98 575.21,-91.2 575.33,-89.1"/>
</g>
<!-- I8&#45;&gt;H1 -->
<g id="edge22" class="edge">
<title>I8&#45;&gt;H1</title>
<path fill="none" stroke="gray" d="M727.05,-555.54C768.44,-546.18 841,-522.09 841,-468.27 841,-468.27 841,-468.27 841,-402.75 841,-321.17 836.72,-281.41 771,-233.07 693.3,-175.92 666.12,-172.18 576,-137.79 570.13,-135.55 563.88,-133.44 557.65,-131.5"/>
<polygon fill="gray" stroke="gray" points="557.96,-130.5 554.78,-130.63 557.35,-132.51 557.96,-130.5"/>
</g>
<!-- I8&#45;&gt;H6 -->
<g id="edge25" class="edge">
<title>I8&#45;&gt;H6</title>
<path fill="none" stroke="gray" d="M670.9,-561.27C624.79,-560.91 531.99,-554.31 470,-510.91 459.77,-503.75 465.67,-493.63 455,-487.15 436.89,-476.15 380.99,-481.99 360,-479.15 283.83,-468.85 265.43,-462.18 190,-447.39 180.97,-445.62 171.09,-443.61 162.33,-441.81"/>
<polygon fill="gray" stroke="gray" points="162.76,-440.82 159.61,-441.24 162.34,-442.88 162.76,-440.82"/>
</g>
<!-- I8&#45;&gt;I4 -->
<g id="edge19" class="edge">
<title>I8&#45;&gt;I4</title>
<path fill="none" stroke="gray" d="M696.98,-549.33C694.05,-531.95 689,-497.63 689,-468.27 689,-468.27 689,-468.27 689,-402.75 689,-376.77 672.08,-372.04 649,-360.11 625.89,-348.16 613.58,-365.05 591,-352.11 575.41,-343.18 576.36,-335.02 566,-320.35 558.79,-310.15 561.64,-303.13 551,-296.59 528.14,-282.55 460.52,-278.56 410.19,-277.62"/>
<polygon fill="gray" stroke="gray" points="410.22,-276.57 407.2,-277.57 410.18,-278.67 410.22,-276.57"/>
</g>
<!-- I8&#45;&gt;I5 -->
<g id="edge23" class="edge">
<title>I8&#45;&gt;I5</title>
<path fill="none" stroke="gray" d="M701.02,-549.33C703.95,-531.95 709,-497.63 709,-468.27 709,-468.27 709,-468.27 709,-402.75 709,-382.66 707.38,-375.09 694,-360.11 692.37,-358.29 690.53,-356.62 688.55,-355.11"/>
<polygon fill="gray" stroke="gray" points="689.16,-354.25 686.1,-353.4 687.96,-355.98 689.16,-354.25"/>
</g>
<!-- I8&#45;&gt;H4 -->
<g id="edge21" class="edge">
<title>I8&#45;&gt;H4</title>
<path fill="none" stroke="gray" d="M688.15,-549.48C673.45,-533.08 649,-500.92 649,-468.27 649,-468.27 649,-468.27 649,-402.75 649,-383.28 653.46,-373.14 639,-360.11 628.52,-350.66 589.17,-357.19 576,-352.11 558.8,-345.48 558.36,-336.85 542,-328.35 537.82,-326.18 533.34,-324.15 528.82,-322.28"/>
<polygon fill="gray" stroke="gray" points="529.25,-321.32 526.07,-321.18 528.47,-323.27 529.25,-321.32"/>
</g>
<!-- I8&#45;&gt;H7 -->
<g id="edge30" class="edge">
<title>I8&#45;&gt;H7</title>
<path fill="none" stroke="gray" d="M670.98,-555.09C626.29,-546.13 536.13,-527.83 460,-510.91 450.91,-508.89 440.85,-506.52 432.45,-504.51"/>
<polygon fill="gray" stroke="gray" points="433.11,-503.59 429.95,-503.91 432.62,-505.64 433.11,-503.59"/>
</g>
<!-- I8&#45;&gt;I6 -->
<g id="edge29" class="edge">
<title>I8&#45;&gt;I6</title>
<path fill="none" stroke="gray" d="M673.39,-549.4C626.5,-529.02 523.42,-485.36 434,-455.39 389.44,-440.46 337.78,-426.53 300.56,-417.07"/>
<polygon fill="gray" stroke="gray" points="301.18,-416.15 298.02,-416.43 300.67,-418.18 301.18,-416.15"/>
</g>
<!-- I8&#45;&gt;I3 -->
<g id="edge20" class="edge">
<title>I8&#45;&gt;I3</title>
<path fill="none" stroke="gray" d="M726.87,-549.65C757.07,-535.66 801,-508.41 801,-468.27 801,-468.27 801,-468.27 801,-339.23 801,-314.71 783.37,-313.89 766,-296.59 764.02,-294.62 690.56,-234.19 688,-233.07 667.78,-224.2 644.28,-219.33 622.81,-216.71"/>
<polygon fill="gray" stroke="gray" points="623.15,-215.69 620.05,-216.39 622.91,-217.78 623.15,-215.69"/>
</g>
<!-- I8&#45;&gt;H5 -->
<g id="edge34" class="edge">
<title>I8&#45;&gt;H5</title>
<path fill="none" stroke="gray" d="M692.15,-549.49C672.46,-517.36 615.69,-424.71 593.27,-388.12"/>
<polygon fill="gray" stroke="gray" points="594.21,-387.65 591.75,-385.64 592.42,-388.74 594.21,-387.65"/>
</g>
<!-- I8&#45;&gt;H0 -->
<g id="edge32" class="edge">
<title>I8&#45;&gt;H0</title>
<path fill="none" stroke="gray" d="M727.12,-561.32C786.85,-561.1 921,-551.35 921,-468.27 921,-468.27 921,-468.27 921,-370.99 921,-266.7 977.46,-201.64 895,-137.79 821.59,-80.95 787.4,-90.56 696,-74.27 626.43,-61.87 425.26,-57.49 324.28,-56.05"/>
<polygon fill="gray" stroke="gray" points="324.38,-55 321.36,-56.01 324.35,-57.1 324.38,-55"/>
</g>
<!-- I8&#45;&gt;H3 -->
<g id="edge26" class="edge">
<title>I8&#45;&gt;H3</title>
<path fill="none" stroke="gray" d="M705.22,-549.38C714,-532.34 729,-498.8 729,-468.27 729,-468.27 729,-468.27 729,-370.99 729,-351.52 731.23,-343.49 719,-328.35 686.78,-288.46 630.69,-266.79 590.91,-255.82"/>
<polygon fill="gray" stroke="gray" points="591.26,-254.83 588.09,-255.06 590.71,-256.86 591.26,-254.83"/>
</g>
<!-- I8&#45;&gt;K0 -->
<g id="edge33" class="edge">
<title>I8&#45;&gt;K0</title>
<path fill="none" stroke="gray" d="M726.87,-561.06C771.17,-560.32 858.5,-553.09 916,-510.91 933.71,-497.92 941,-490.24 941,-468.27 941,-468.27 941,-468.27 941,-434.51 941,-376.16 981,-367.82 981,-309.47 981,-309.47 981,-309.47 981,-85.15 981,-29.32 528.03,-26.32 443.5,-26.24"/>
<polygon fill="gray" stroke="gray" points="443.62,-25.19 440.62,-26.24 443.62,-27.29 443.62,-25.19"/>
</g>
<!-- H4&#45;&gt;I4 -->
<g id="edge102" class="edge">
<title>H4&#45;&gt;I4</title>
<path fill="none" stroke="gray" d="M455.28,-300.04C440.98,-296.97 424.02,-293.34 407.98,-289.91"/>
<polygon fill="gray" stroke="gray" points="408.56,-288.96 405.41,-289.36 408.12,-291.01 408.56,-288.96"/>
</g>
<!-- H4&#45;&gt;H4 -->
<g id="edge101" class="edge">
<title>H4&#45;&gt;H4</title>
<path fill="none" stroke="gray" d="M524.76,-314.4C534.71,-314.17 542.38,-312.19 542.38,-308.47 542.38,-305.33 536.92,-303.43 529.23,-302.78"/>
<polygon fill="gray" stroke="gray" points="529.32,-301.73 526.27,-302.62 529.21,-303.83 529.32,-301.73"/>
</g>
<!-- H8&#45;&gt;I8 -->
<g id="edge93" class="edge">
<title>H8&#45;&gt;I8</title>
<path fill="none" stroke="gray" d="M692.18,-627.03C693.55,-614.1 695.82,-592.67 697.36,-578.13"/>
<polygon fill="gray" stroke="gray" points="698.38,-578.45 697.66,-575.36 696.29,-578.23 698.38,-578.45"/>
</g>
<!-- H8&#45;&gt;H8 -->
<g id="edge94" class="edge">
<title>H8&#45;&gt;H8</title>
<path fill="none" stroke="gray" d="M700.37,-651.12C708.82,-656.93 717.88,-652.95 717.88,-639.17 717.88,-627.55 711.43,-622.9 704.34,-625.22"/>
<polygon fill="gray" stroke="gray" points="703.92,-624.26 701.72,-626.55 704.87,-626.13 703.92,-624.26"/>
</g>
<!-- H7&#45;&gt;I7 -->
<g id="edge95" class="edge">
<title>H7&#45;&gt;I7</title>
<path fill="none" stroke="gray" d="M407.67,-486.95C406.95,-485.69 406.21,-484.4 405.47,-483.1"/>
<polygon fill="gray" stroke="gray" points="406.43,-482.66 404.03,-480.58 404.61,-483.7 406.43,-482.66"/>
</g>
<!-- H7&#45;&gt;H7 -->
<g id="edge96" class="edge">
<title>H7&#45;&gt;H7</title>
<path fill="none" stroke="gray" d="M428.54,-504.56C437.55,-505.9 446.13,-504.05 446.13,-499.03 446.13,-494.79 440.02,-492.81 432.7,-493.1"/>
<polygon fill="gray" stroke="gray" points="432.93,-492.03 430.05,-493.35 433.13,-494.12 432.93,-492.03"/>
</g>
<!-- I6&#45;&gt;I2 -->
<g id="edge55" class="edge">
<title>I6&#45;&gt;I2</title>
<path fill="none" stroke="gray" d="M248.42,-391.56C242.31,-347.44 221.22,-187.17 235,-169.55 237.77,-166.01 244.19,-163.03 252.18,-160.57"/>
<polygon fill="gray" stroke="gray" points="252.18,-161.67 254.77,-159.83 251.59,-159.65 252.18,-161.67"/>
</g>
<!-- I6&#45;&gt;H2 -->
<g id="edge60" class="edge">
<title>I6&#45;&gt;H2</title>
<path fill="none" stroke="gray" d="M258.3,-391.62C259.77,-389.17 261.11,-386.52 262,-383.87 278.95,-333.56 263.49,-317.24 272,-264.83 275.85,-241.12 282.92,-214.16 287.54,-197.72"/>
<polygon fill="gray" stroke="gray" points="288.43,-198.41 288.24,-195.24 286.41,-197.84 288.43,-198.41"/>
</g>
<!-- I6&#45;&gt;I1 -->
<g id="edge49" class="edge">
<title>I6&#45;&gt;I1</title>
<path fill="none" stroke="gray" d="M233.78,-391.4C231.27,-389.12 228.89,-386.58 227,-383.87 218.46,-371.61 220.48,-366.36 216,-352.11 187.42,-261.25 142.71,-197.41 217,-137.79 250.98,-110.52 367.82,-97.17 443,-91.25"/>
<polygon fill="gray" stroke="gray" points="443.02,-92.3 445.93,-91.02 442.86,-90.21 443.02,-92.3"/>
</g>
<!-- I6&#45;&gt;H1 -->
<g id="edge52" class="edge">
<title>I6&#45;&gt;H1</title>
<path fill="none" stroke="gray" d="M244.66,-391.54C224.65,-347.84 159.64,-188.89 247,-137.79 264.03,-127.83 377.76,-122.71 449.67,-120.43"/>
<polygon fill="gray" stroke="gray" points="449.44,-121.49 452.4,-120.35 449.37,-119.39 449.44,-121.49"/>
</g>
<!-- I6&#45;&gt;I4 -->
<g id="edge50" class="edge">
<title>I6&#45;&gt;I4</title>
<path fill="none" stroke="gray" d="M272.83,-391.4C276.13,-389.18 279.32,-386.66 282,-383.87 301.46,-363.67 297.85,-352.57 312,-328.35 320.41,-313.95 321.57,-309.61 332,-296.59 333.31,-294.96 334.74,-293.31 336.22,-291.72"/>
<polygon fill="gray" stroke="gray" points="336.55,-292.89 337.86,-289.99 335.03,-291.44 336.55,-292.89"/>
</g>
<!-- I6&#45;&gt;I5 -->
<g id="edge51" class="edge">
<title>I6&#45;&gt;I5</title>
<path fill="none" stroke="gray" d="M298.21,-401.07C337.33,-398.97 393.71,-394.3 442,-383.87 474.11,-376.94 480.01,-367.58 512,-360.11 539.09,-353.79 569.59,-349.4 595.44,-346.45"/>
<polygon fill="gray" stroke="gray" points="595.51,-347.5 598.38,-346.13 595.28,-345.42 595.51,-347.5"/>
</g>
<!-- I6&#45;&gt;H4 -->
<g id="edge59" class="edge">
<title>I6&#45;&gt;H4</title>
<path fill="none" stroke="gray" d="M298.33,-399.75C335.66,-396.87 383.91,-391.79 402,-383.87 418.35,-376.71 454.67,-343.38 475.17,-323.84"/>
<polygon fill="gray" stroke="gray" points="475.78,-324.71 477.22,-321.88 474.33,-323.19 475.78,-324.71"/>
</g>
<!-- I6&#45;&gt;I3 -->
<g id="edge54" class="edge">
<title>I6&#45;&gt;I3</title>
<path fill="none" stroke="gray" d="M279.43,-391.44C284.41,-389.15 289.44,-386.61 294,-383.87 347.22,-351.95 348,-325.34 403,-296.59 414.09,-290.79 418.9,-294.36 430,-288.59 450.14,-278.12 452.87,-271.72 470,-256.83 481.57,-246.77 481.76,-240.79 495,-233.07 498.72,-230.9 502.71,-228.96 506.81,-227.23"/>
<polygon fill="gray" stroke="gray" points="507.15,-228.22 509.54,-226.13 506.36,-226.28 507.15,-228.22"/>
</g>
<!-- I6&#45;&gt;H5 -->
<g id="edge56" class="edge">
<title>I6&#45;&gt;H5</title>
<path fill="none" stroke="gray" d="M297.91,-399.98C348.66,-396.85 431.09,-391.22 502,-383.87 518.45,-382.16 536.7,-379.79 551.79,-377.7"/>
<polygon fill="gray" stroke="gray" points="551.64,-378.78 554.46,-377.32 551.35,-376.7 551.64,-378.78"/>
</g>
<!-- I6&#45;&gt;H0 -->
<g id="edge53" class="edge">
<title>I6&#45;&gt;H0</title>
<path fill="none" stroke="gray" d="M222.77,-391.43C219.52,-389.27 216.49,-386.76 214,-383.87 159.69,-320.76 169.38,-284.53 172,-201.31 173.84,-142.89 164.38,-115.3 206,-74.27 207.96,-72.34 210.12,-70.6 212.41,-69.05"/>
<polygon fill="gray" stroke="gray" points="212.85,-70.01 214.84,-67.54 211.74,-68.23 212.85,-70.01"/>
</g>
<!-- I6&#45;&gt;H3 -->
<g id="edge58" class="edge">
<title>I6&#45;&gt;H3</title>
<path fill="none" stroke="gray" d="M298.37,-402.16C319.14,-400.06 342.96,-395.05 362,-383.87 404.88,-358.69 389.64,-322.63 432,-296.59 446.7,-287.55 454.38,-295.92 470,-288.59 485.4,-281.37 485.36,-273.48 500,-264.83 503.5,-262.76 507.27,-260.81 511.09,-258.99"/>
<polygon fill="gray" stroke="gray" points="511.25,-260.07 513.54,-257.86 510.37,-258.17 511.25,-260.07"/>
</g>
<!-- I6&#45;&gt;K0 -->
<g id="edge57" class="edge">
<title>I6&#45;&gt;K0</title>
<path fill="none" stroke="gray" d="M205.6,-391.48C200.48,-389.34 195.49,-386.82 191,-383.87 88.8,-316.74 45,-272.95 45,-150.67 45,-150.67 45,-150.67 45,-85.15 45,-67.11 37.32,-66.08 188,-42.51 274.35,-29 379.76,-26.71 416.56,-26.33"/>
<polygon fill="gray" stroke="gray" points="416.2,-27.38 419.19,-26.31 416.18,-25.28 416.2,-27.38"/>
</g>
<!-- I3&#45;&gt;I2 -->
<g id="edge80" class="edge">
<title>I3&#45;&gt;I2</title>
<path fill="none" stroke="gray" d="M511.18,-200.83C501.23,-198.35 490.76,-195.75 481,-193.31 440.29,-183.15 394.11,-171.56 360.17,-163.03"/>
<polygon fill="gray" stroke="gray" points="360.73,-162.09 357.56,-162.38 360.21,-164.13 360.73,-162.09"/>
</g>
<!-- I3&#45;&gt;H2 -->
<g id="edge79" class="edge">
<title>I3&#45;&gt;H2</title>
<path fill="none" stroke="gray" d="M495.2,-205.25C449.51,-200.12 387.96,-193.21 344.61,-188.34"/>
<polygon fill="gray" stroke="gray" points="344.82,-187.3 341.72,-188.01 344.58,-189.39 344.82,-187.3"/>
</g>
<!-- I3&#45;&gt;I1 -->
<g id="edge82" class="edge">
<title>I3&#45;&gt;I1</title>
<path fill="none" stroke="gray" d="M573.83,-200.85C576.46,-198.57 578.97,-196.03 581,-193.31 605.08,-160.93 631.66,-137.17 606,-106.03 601.36,-100.4 589.11,-96.43 574.81,-93.64"/>
<polygon fill="gray" stroke="gray" points="575.36,-92.67 572.21,-93.15 574.97,-94.73 575.36,-92.67"/>
</g>
<!-- I3&#45;&gt;H1 -->
<g id="edge81" class="edge">
<title>I3&#45;&gt;H1</title>
<path fill="none" stroke="gray" d="M551.31,-201.12C542.69,-184.38 526.33,-152.59 516.67,-133.82"/>
<polygon fill="gray" stroke="gray" points="517.84,-133.79 515.53,-131.6 515.97,-134.75 517.84,-133.79"/>
</g>
<!-- I3&#45;&gt;H0 -->
<g id="edge84" class="edge">
<title>I3&#45;&gt;H0</title>
<path fill="none" stroke="gray" d="M616.12,-200.87C661.7,-190.39 717,-173.06 717,-150.67 717,-150.67 717,-150.67 717,-116.91 717,-52.72 642.16,-85.75 579,-74.27 491.37,-58.34 387.96,-55.04 324.43,-54.75"/>
<polygon fill="gray" stroke="gray" points="324.45,-53.7 321.44,-54.74 324.44,-55.8 324.45,-53.7"/>
</g>
<!-- I3&#45;&gt;K0 -->
<g id="edge83" class="edge">
<title>I3&#45;&gt;K0</title>
<path fill="none" stroke="gray" d="M618.87,-208.73C638.67,-206.03 660.3,-201.36 679,-193.31 718.72,-176.22 745.52,-142.32 722,-106.03 690.51,-57.44 496.89,-33.39 443.58,-27.64"/>
<polygon fill="gray" stroke="gray" points="443.74,-26.6 440.65,-27.33 443.52,-28.69 443.74,-26.6"/>
</g>
<!-- H5&#45;&gt;I5 -->
<g id="edge100" class="edge">
<title>H5&#45;&gt;I5</title>
<path fill="none" stroke="gray" d="M610.84,-359.74C615.17,-357.92 619.68,-356.03 624.1,-354.18"/>
<polygon fill="gray" stroke="gray" points="624.36,-355.21 626.72,-353.08 623.55,-353.27 624.36,-355.21"/>
</g>
<!-- H5&#45;&gt;H5 -->
<g id="edge99" class="edge">
<title>H5&#45;&gt;H5</title>
<path fill="none" stroke="gray" d="M612.07,-377.94C621.79,-378.01 629.63,-376.02 629.63,-371.99 629.63,-368.59 624.05,-366.64 616.47,-366.16"/>
<polygon fill="gray" stroke="gray" points="616.61,-365.11 613.58,-366.08 616.55,-367.21 616.61,-365.11"/>
</g>
<!-- H0&#45;&gt;H0 -->
<g id="edge109" class="edge">
<title>H0&#45;&gt;H0</title>
<path fill="none" stroke="gray" d="M320.11,-59.57C330.39,-58.93 337.63,-57.21 337.63,-54.39 337.63,-51.97 332.28,-50.35 324.25,-49.54"/>
<polygon fill="gray" stroke="gray" points="324.69,-48.52 321.62,-49.33 324.52,-50.62 324.69,-48.52"/>
</g>
<!-- H0&#45;&gt;K0 -->
<g id="edge110" class="edge">
<title>H0&#45;&gt;K0</title>
<path fill="none" stroke="gray" d="M319.94,-44.35C354.11,-38.74 395.4,-31.95 416.36,-28.5"/>
<polygon fill="gray" stroke="gray" points="416.47,-29.54 419.26,-28.02 416.13,-27.47 416.47,-29.54"/>
</g>
<!-- H3&#45;&gt;I3 -->
<g id="edge104" class="edge">
<title>H3&#45;&gt;I3</title>
<path fill="none" stroke="gray" d="M549.47,-232.87C549.97,-231.61 550.5,-230.32 551.02,-229.02"/>
<polygon fill="gray" stroke="gray" points="551.85,-229.76 552,-226.59 549.91,-228.98 551.85,-229.76"/>
</g>
<!-- H3&#45;&gt;H3 -->
<g id="edge103" class="edge">
<title>H3&#45;&gt;H3</title>
<path fill="none" stroke="gray" d="M586.45,-250.81C596.58,-250.38 604.13,-248.42 604.13,-244.95 604.13,-241.96 598.56,-240.1 590.56,-239.36"/>
<polygon fill="gray" stroke="gray" points="591.02,-238.34 587.96,-239.19 590.88,-240.44 591.02,-238.34"/>
</g>
<!-- H9 -->
<g id="node20" class="node">
<title>H9</title>
<path fill="none" stroke="gray" d="M561.96,-806.07C561.96,-806.07 556.04,-806.07 556.04,-806.07 553.08,-806.07 550.12,-803.11 550.12,-800.15 550.12,-800.15 550.12,-788.23 550.12,-788.23 550.12,-785.27 553.08,-782.31 556.04,-782.31 556.04,-782.31 561.96,-782.31 561.96,-782.31 564.92,-782.31 567.88,-785.27 567.88,-788.23 567.88,-788.23 567.88,-800.15 567.88,-800.15 567.88,-803.11 564.92,-806.07 561.96,-806.07"/>
<text text-anchor="start" x="553" y="-794.69" font-family="Menlo" font-size="10.00">H9</text>
<text text-anchor="start" x="556.75" y="-786.59" font-family="Menlo" font-size="8.00" fill="gray"> </text>
</g>
<!-- H9&#45;&gt;I9 -->
<g id="edge91" class="edge">
<title>H9&#45;&gt;I9</title>
<path fill="none" stroke="gray" d="M559,-782.05C559,-769.12 559,-747.69 559,-733.15"/>
<polygon fill="gray" stroke="gray" points="560.05,-733.39 559,-730.39 557.95,-733.39 560.05,-733.39"/>
</g>
<!-- H9&#45;&gt;H9 -->
<g id="edge92" class="edge">
<title>H9&#45;&gt;H9</title>
<path fill="none" stroke="gray" d="M568.37,-806.14C576.82,-811.95 585.88,-807.97 585.88,-794.19 585.88,-782.57 579.43,-777.92 572.34,-780.24"/>
<polygon fill="gray" stroke="gray" points="571.92,-779.28 569.72,-781.57 572.87,-781.15 571.92,-779.28"/>
</g>
<!-- SR0C0 -->
<g id="node21" class="node">
<title>SR0C0</title>
<polygon fill="none" stroke="gray" points="1079.88,-828.95 1026.12,-828.95 1026.12,-759.44 1079.88,-759.44 1079.88,-828.95"/>
<text text-anchor="start" x="1050" y="-816.57" font-family="Menlo" font-size="10.00">J</text>
<text text-anchor="start" x="1044" y="-803.82" font-family="Menlo" font-size="10.00">N S</text>
<text text-anchor="start" x="1029" y="-791.07" font-family="Menlo" font-size="10.00">fi [&quot;x&quot;]</text>
<text text-anchor="start" x="1032" y="-778.32" font-family="Menlo" font-size="10.00">fo [&quot;&quot;]</text>
<text text-anchor="start" x="1029" y="-765.57" font-family="Menlo" font-size="10.00">am [&quot;x&quot;]</text>
</g>
<!-- SR0C1 -->
<g id="node22" class="node">
<title>SR0C1</title>
<polygon fill="none" stroke="gray" points="1202.88,-828.95 1149.12,-828.95 1149.12,-759.44 1202.88,-759.44 1202.88,-828.95"/>
<text text-anchor="start" x="1173" y="-816.57" font-family="Menlo" font-size="10.00">C</text>
<text text-anchor="start" x="1164" y="-803.82" font-family="Menlo" font-size="10.00">ALT </text>
<text text-anchor="start" x="1152" y="-791.07" font-family="Menlo" font-size="10.00">fi [&quot;x&quot;]</text>
<text text-anchor="start" x="1155" y="-778.32" font-family="Menlo" font-size="10.00">fo [&quot;&quot;]</text>
<text text-anchor="start" x="1161" y="-765.57" font-family="Menlo" font-size="10.00">am []</text>
</g>
<!-- SR0C0&#45;&gt;SR0C1 -->
<g id="edge117" class="edge">
<title>SR0C0&#45;&gt;SR0C1</title>
<path fill="none" stroke="gray" d="M1079.91,-794.19C1101.49,-794.19 1123.07,-794.19 1144.66,-794.19"/>
<polygon fill="gray" stroke="gray" points="1144.46,-795.25 1147.46,-794.2 1144.46,-793.15 1144.46,-795.25"/>
</g>
<!-- SR1C0 -->
<!-- SR0C0&#45;&gt;SR1C0 -->
<!-- SR1C1 -->
<g id="node23" class="node">
<title>SR1C1</title>
<polygon fill="none" stroke="gray" points="1202.88,-751.44 1149.12,-751.44 1149.12,-681.93 1202.88,-681.93 1202.88,-751.44"/>
<text text-anchor="start" x="1173" y="-739.06" font-family="Menlo" font-size="10.00">D</text>
<text text-anchor="start" x="1161" y="-726.31" font-family="Menlo" font-size="10.00">T &quot;x&quot;</text>
<text text-anchor="start" x="1152" y="-713.56" font-family="Menlo" font-size="10.00">fi [&quot;x&quot;]</text>
<text text-anchor="start" x="1155" y="-700.81" font-family="Menlo" font-size="10.00">fo [&quot;&quot;]</text>
<text text-anchor="start" x="1161" y="-688.06" font-family="Menlo" font-size="10.00">am []</text>
</g>
<!-- SR0C1&#45;&gt;SR1C1 -->
<g id="edge112" class="edge">
<title>SR0C1&#45;&gt;SR1C1</title>
<path fill="none" stroke="gray" d="M1176,-758.97C1176,-758.1 1176,-757.22 1176,-756.34"/>
<polygon fill="gray" stroke="gray" points="1177.05,-756.45 1176,-753.45 1174.95,-756.45 1177.05,-756.45"/>
</g>
<!-- SR0C2 -->
<g id="node25" class="node">
<title>SR0C2</title>
<polygon fill="none" stroke="gray" points="1274.88,-828.95 1221.12,-828.95 1221.12,-759.44 1274.88,-759.44 1274.88,-828.95"/>
<text text-anchor="start" x="1245" y="-816.57" font-family="Menlo" font-size="10.00">F</text>
<text text-anchor="start" x="1236" y="-803.82" font-family="Menlo" font-size="10.00">ALT </text>
<text text-anchor="start" x="1224" y="-791.07" font-family="Menlo" font-size="10.00">fi [&quot;x&quot;]</text>
<text text-anchor="start" x="1227" y="-778.32" font-family="Menlo" font-size="10.00">fo [&quot;&quot;]</text>
<text text-anchor="start" x="1233" y="-765.57" font-family="Menlo" font-size="10.00">am []</text>
</g>
<!-- SR0C1&#45;&gt;SR0C2 -->
<g id="edge116" class="edge">
<title>SR0C1&#45;&gt;SR0C2</title>
<path fill="none" stroke="gray" d="M1203.28,-794.19C1207.65,-794.19 1212.02,-794.19 1216.38,-794.19"/>
<polygon fill="gray" stroke="gray" points="1216.24,-795.25 1219.24,-794.2 1216.24,-793.15 1216.24,-795.25"/>
</g>
<!-- SR2C1 -->
<g id="node24" class="node">
<title>SR2C1</title>
<polygon fill="none" stroke="gray" points="1199.88,-673.93 1152.12,-673.93 1152.12,-604.42 1199.88,-604.42 1199.88,-673.93"/>
<text text-anchor="start" x="1173" y="-661.55" font-family="Menlo" font-size="10.00">E</text>
<text text-anchor="start" x="1164" y="-648.8" font-family="Menlo" font-size="10.00">END </text>
<text text-anchor="start" x="1155" y="-636.05" font-family="Menlo" font-size="10.00">fi [&quot;&quot;]</text>
<text text-anchor="start" x="1155" y="-623.3" font-family="Menlo" font-size="10.00">fo [&quot;&quot;]</text>
<text text-anchor="start" x="1161" y="-610.55" font-family="Menlo" font-size="10.00">am []</text>
</g>
<!-- SR1C1&#45;&gt;SR2C1 -->
<g id="edge111" class="edge">
<title>SR1C1&#45;&gt;SR2C1</title>
<path fill="none" stroke="gray" d="M1176,-681.46C1176,-680.59 1176,-679.71 1176,-678.83"/>
<polygon fill="gray" stroke="gray" points="1177.05,-678.94 1176,-675.94 1174.95,-678.94 1177.05,-678.94"/>
</g>
<!-- SR2C1&#45;&gt;SR0C0 -->
<g id="edge126" class="edge">
<title>SR2C1:w&#45;&gt;SR0C0:s</title>
<path fill="none" stroke="red" d="M1151,-639.17C1135.55,-639.17 1141.25,-662.83 1152,-673.93 1172.45,-695.04 1263.86,-660.53 1284,-681.93 1305.17,-704.43 1305.46,-729.22 1284,-751.44 1275.74,-759.99 1084.79,-748.56 1056.49,-757.01"/>
<polygon fill="red" stroke="red" points="1056.1,-756 1054.24,-758.57 1057.3,-757.72 1056.1,-756"/>
</g>
<!-- SR2C1&#45;&gt;SR0C1 -->
<g id="edge128" class="edge">
<title>SR2C1:e&#45;&gt;SR0C1</title>
<path fill="none" stroke="green" stroke-dasharray="1,5" d="M1201,-639.17C1216.45,-639.17 1210.5,-662.59 1200,-673.93 1188.62,-686.23 1136.21,-669.47 1125,-681.93 1104.35,-704.9 1111.78,-723.52 1125,-751.44 1129.46,-760.85 1137.19,-768.85 1145.31,-775.25"/>
<polygon fill="green" stroke="green" points="1144.57,-776 1147.59,-776.98 1145.83,-774.33 1144.57,-776"/>
</g>
<!-- SR3C1 -->
<!-- SR2C1&#45;&gt;SR3C1 -->
<!-- SR1C2 -->
<g id="node26" class="node">
<title>SR1C2</title>
<polygon fill="none" stroke="gray" points="1274.88,-751.44 1221.12,-751.44 1221.12,-681.93 1274.88,-681.93 1274.88,-751.44"/>
<text text-anchor="start" x="1245" y="-739.06" font-family="Menlo" font-size="10.00">G</text>
<text text-anchor="start" x="1239" y="-726.31" font-family="Menlo" font-size="10.00">N S</text>
<text text-anchor="start" x="1224" y="-713.56" font-family="Menlo" font-size="10.00">fi [&quot;x&quot;]</text>
<text text-anchor="start" x="1224" y="-700.81" font-family="Menlo" font-size="10.00">fo [&quot;x&quot;]</text>
<text text-anchor="start" x="1233" y="-688.06" font-family="Menlo" font-size="10.00">am []</text>
</g>
<!-- SR0C2&#45;&gt;SR1C2 -->
<g id="edge115" class="edge">
<title>SR0C2&#45;&gt;SR1C2</title>
<path fill="none" stroke="gray" d="M1248,-758.97C1248,-758.1 1248,-757.22 1248,-756.34"/>
<polygon fill="gray" stroke="gray" points="1249.05,-756.45 1248,-753.45 1246.95,-756.45 1249.05,-756.45"/>
</g>
<!-- SR1C2&#45;&gt;SR0C1 -->
<g id="edge131" class="edge">
<title>SR1C2:e&#45;&gt;SR0C1</title>
<path fill="none" stroke="blue" stroke-dasharray="1,5" d="M1276,-716.68C1291.45,-716.68 1285.38,-739.99 1275,-751.44 1265.52,-761.89 1224.77,-753.43 1212,-759.44 1210.16,-760.31 1208.35,-761.3 1206.58,-762.4"/>
<polygon fill="blue" stroke="blue" points="1206.19,-761.4 1204.27,-763.93 1207.35,-763.14 1206.19,-761.4"/>
</g>
<!-- SR2C2 -->
<g id="node27" class="node">
<title>SR2C2</title>
<polygon fill="none" stroke="gray" points="1274.88,-673.93 1221.12,-673.93 1221.12,-604.42 1274.88,-604.42 1274.88,-673.93"/>
<text text-anchor="start" x="1245" y="-661.55" font-family="Menlo" font-size="10.00">H</text>
<text text-anchor="start" x="1239" y="-648.8" font-family="Menlo" font-size="10.00">N S</text>
<text text-anchor="start" x="1224" y="-636.05" font-family="Menlo" font-size="10.00">fi [&quot;x&quot;]</text>
<text text-anchor="start" x="1227" y="-623.3" font-family="Menlo" font-size="10.00">fo [&quot;&quot;]</text>
<text text-anchor="start" x="1233" y="-610.55" font-family="Menlo" font-size="10.00">am []</text>
</g>
<!-- SR1C2&#45;&gt;SR2C2 -->
<g id="edge114" class="edge">
<title>SR1C2&#45;&gt;SR2C2</title>
<path fill="none" stroke="gray" d="M1248,-681.46C1248,-680.59 1248,-679.71 1248,-678.83"/>
<polygon fill="gray" stroke="gray" points="1249.05,-678.94 1248,-675.94 1246.95,-678.94 1249.05,-678.94"/>
</g>
<!-- SR2C2&#45;&gt;SR0C1 -->
<g id="edge130" class="edge">
<title>SR2C2:e&#45;&gt;SR0C1</title>
<path fill="none" stroke="blue" stroke-dasharray="1,5" d="M1276,-639.17C1291.45,-639.17 1285.76,-662.84 1275,-673.93 1254.08,-695.5 1160.61,-660.06 1140,-681.93 1118.81,-704.41 1129.24,-722.48 1140,-751.44 1141.61,-755.79 1143.91,-759.98 1146.56,-763.93"/>
<polygon fill="blue" stroke="blue" points="1145.4,-764.11 1148,-765.95 1147.12,-762.9 1145.4,-764.11"/>
</g>
<!-- SR3C2 -->
<g id="node28" class="node">
<title>SR3C2</title>
<polygon fill="none" stroke="gray" points="1271.88,-596.42 1224.12,-596.42 1224.12,-526.91 1271.88,-526.91 1271.88,-596.42"/>
<text text-anchor="start" x="1245" y="-584.04" font-family="Menlo" font-size="10.00">I</text>
<text text-anchor="start" x="1236" y="-571.29" font-family="Menlo" font-size="10.00">END </text>
<text text-anchor="start" x="1227" y="-558.54" font-family="Menlo" font-size="10.00">fi [&quot;&quot;]</text>
<text text-anchor="start" x="1227" y="-545.79" font-family="Menlo" font-size="10.00">fo [&quot;&quot;]</text>
<text text-anchor="start" x="1233" y="-533.04" font-family="Menlo" font-size="10.00">am []</text>
</g>
<!-- SR2C2&#45;&gt;SR3C2 -->
<g id="edge113" class="edge">
<title>SR2C2&#45;&gt;SR3C2</title>
<path fill="none" stroke="gray" d="M1248,-603.95C1248,-603.08 1248,-602.2 1248,-601.32"/>
<polygon fill="gray" stroke="gray" points="1249.05,-601.43 1248,-598.43 1246.95,-601.43 1249.05,-601.43"/>
</g>
<!-- SR3C2&#45;&gt;SR0C0 -->
<g id="edge127" class="edge">
<title>SR3C2:w&#45;&gt;SR0C0:s</title>
<path fill="none" stroke="red" d="M1223,-561.66C1207.55,-561.66 1213.65,-584.94 1224,-596.42 1242.01,-616.4 1264.78,-585.6 1284,-604.42 1330.84,-650.29 1341.59,-704.33 1296,-751.44 1287.3,-760.43 1086.44,-748.05 1056.67,-756.89"/>
<polygon fill="red" stroke="red" points="1056.11,-756 1054.24,-758.58 1057.3,-757.72 1056.11,-756"/>
</g>
<!-- SR3C2&#45;&gt;SR0C2 -->
<g id="edge129" class="edge">
<title>SR3C2:e&#45;&gt;SR0C2</title>
<path fill="none" stroke="green" stroke-dasharray="1,5" d="M1273,-561.66C1288.45,-561.66 1282.74,-585.31 1272,-596.42 1252.03,-617.06 1163.07,-583.88 1143,-604.42 1142.12,-605.32 1134.56,-745.36 1140,-751.44 1150.74,-763.44 1197.38,-752.7 1212,-759.44 1213.85,-760.29 1215.66,-761.28 1217.43,-762.36"/>
<polygon fill="green" stroke="green" points="1216.66,-763.11 1219.75,-763.89 1217.82,-761.36 1216.66,-763.11"/>
</g>
<!-- SR1C0&#45;&gt;SR1C1 -->
<!-- SR2C0 -->
<!-- SR1C0&#45;&gt;SR2C0 -->
<!-- SR2C0&#45;&gt;SR2C1 -->
<!-- SR3C0 -->
<!-- SR2C0&#45;&gt;SR3C0 -->
<!-- SR3C0&#45;&gt;SR3C1 -->
<!-- SR3C1&#45;&gt;SR3C2 -->
</g>
</svg>
