<?xml version="1.0" encoding="UTF-8" standalone="no"?>
<!DOCTYPE svg PUBLIC "-//W3C//DTD SVG 1.1//EN"
 "http://www.w3.org/Graphics/SVG/1.1/DTD/svg11.dtd">
<!-- Generated by graphviz version 9.0.0 (20230911.1827)
 -->
<!-- Title: Derivations Pages: 1 -->
<svg width="2034pt" height="311pt"
 viewBox="0.00 0.00 2034.00 310.88" xmlns="http://www.w3.org/2000/svg" xmlns:xlink="http://www.w3.org/1999/xlink">
<g id="graph0" class="graph" transform="scale(1 1) rotate(0) translate(4 306.88)">
<title>Derivations</title>
<polygon fill="white" stroke="none" points="-4,4 -4,-306.88 2030,-306.88 2030,4 -4,4"/>
<text text-anchor="start" x="890" y="-289.38" font-family="Menlo" font-size="10.00">article = title &quot;&gt;&gt;|&quot; &lt; section &gt; &quot;|&lt;&lt;&quot; .</text>
<!-- n0 -->
<g id="node1" class="node">
<title>n0</title>
<ellipse fill="none" stroke="black" cx="769" cy="-267.46" rx="41.01" ry="14.67"/>
<text text-anchor="start" x="748" y="-264.33" font-family="Menlo" font-size="10.00">article</text>
</g>
<!-- n1 -->
<g id="node2" class="node">
<title>n1</title>
<ellipse fill="none" stroke="black" cx="106" cy="-136.77" rx="32.53" ry="14.67"/>
<text text-anchor="start" x="91" y="-133.64" font-family="Menlo" font-size="10.00">title</text>
</g>
<!-- n0&#45;&gt;n1 -->
<g id="edge2" class="edge">
<title>n0&#45;&gt;n1</title>
<path fill="none" stroke="black" d="M728.46,-264.44C624.16,-258.95 348.61,-242.4 261,-216.78 210.78,-202.1 157.56,-171.11 128.39,-152.61"/>
<polygon fill="black" stroke="black" points="129.66,-151.34 124.5,-150.12 127.77,-154.29 129.66,-151.34"/>
</g>
<!-- n3 -->
<g id="node4" class="node">
<title>n3</title>
<polygon fill="none" stroke="#7f7f7f" points="128,-20.75 94,-20.75 94,0 128,0 128,-20.75"/>
<text text-anchor="start" x="102" y="-7.25" font-family="Menlo" font-size="10.00" fill="#7f7f7f">&gt;&gt;|</text>
</g>
<!-- n0&#45;&gt;n3 -->
<g id="edge3" class="edge">
<title>n0&#45;&gt;n3</title>
<path fill="none" stroke="black" d="M741.98,-255.98C634.08,-214.15 235.1,-59.48 134.27,-20.39"/>
<polygon fill="black" stroke="black" points="135.04,-18.82 129.74,-18.64 133.77,-22.08 135.04,-18.82"/>
</g>
<!-- n4 -->
<g id="node5" class="node">
<title>n4</title>
<ellipse fill="none" stroke="black" cx="769" cy="-202.11" rx="41.01" ry="14.67"/>
<text text-anchor="start" x="748" y="-198.99" font-family="Menlo" font-size="10.00">section</text>
</g>
<!-- n0&#45;&gt;n4 -->
<g id="edge29" class="edge">
<title>n0&#45;&gt;n4</title>
<path fill="none" stroke="black" d="M769,-252.4C769,-243.87 769,-232.84 769,-223.38"/>
<polygon fill="black" stroke="black" points="770.75,-223.64 769,-218.64 767.25,-223.64 770.75,-223.64"/>
</g>
<!-- n30 -->
<g id="node31" class="node">
<title>n30</title>
<ellipse fill="none" stroke="black" cx="1657" cy="-202.11" rx="41.01" ry="14.67"/>
<text text-anchor="start" x="1636" y="-198.99" font-family="Menlo" font-size="10.00">section</text>
</g>
<!-- n0&#45;&gt;n30 -->
<g id="edge47" class="edge">
<title>n0&#45;&gt;n30</title>
<path fill="none" stroke="black" d="M808.88,-263.61C954.26,-253.24 1455.38,-217.49 1610.72,-206.41"/>
<polygon fill="black" stroke="black" points="1610.6,-208.18 1615.47,-206.08 1610.35,-204.69 1610.6,-208.18"/>
</g>
<!-- n48 -->
<g id="node49" class="node">
<title>n48</title>
<polygon fill="none" stroke="#7f7f7f" points="2026,-20.75 1992,-20.75 1992,0 2026,0 2026,-20.75"/>
<text text-anchor="start" x="2000" y="-7.25" font-family="Menlo" font-size="10.00" fill="#7f7f7f">|&lt;&lt;</text>
</g>
<!-- n0&#45;&gt;n48 -->
<g id="edge48" class="edge">
<title>n0&#45;&gt;n48</title>
<path fill="none" stroke="black" d="M810.12,-266.14C967.64,-264.62 1532.48,-256.48 1707,-216.78 1780.7,-200.02 1800.83,-192.94 1864,-151.44 1920.45,-114.35 1974.2,-53.58 1997.23,-25.91"/>
<polygon fill="black" stroke="black" points="1998.37,-27.28 2000.2,-22.31 1995.67,-25.05 1998.37,-27.28"/>
</g>
<!-- n2 -->
<g id="node3" class="node">
<title>n2</title>
<polygon fill="none" stroke="black" points="76,-20.75 0,-20.75 0,0 76,0 76,-20.75"/>
<text text-anchor="start" x="8" y="-7.25" font-family="Menlo" font-size="10.00">Cinderella</text>
</g>
<!-- n1&#45;&gt;n2 -->
<g id="edge1" class="edge">
<title>n1&#45;&gt;n2</title>
<path fill="none" stroke="black" d="M98.72,-122.46C85.97,-99.13 59.67,-51.02 46.26,-26.49"/>
<polygon fill="black" stroke="black" points="47.96,-25.94 44.02,-22.39 44.89,-27.62 47.96,-25.94"/>
</g>
<!-- n2&#45;&gt;n3 -->
<!-- n6 -->
<g id="node7" class="node">
<title>n6</title>
<polygon fill="none" stroke="black" points="186,-20.75 146,-20.75 146,0 186,0 186,-20.75"/>
<text text-anchor="start" x="154" y="-7.25" font-family="Menlo" font-size="10.00">Once</text>
</g>
<!-- n3&#45;&gt;n6 -->
<!-- n5 -->
<g id="node6" class="node">
<title>n5</title>
<ellipse fill="none" stroke="black" cx="363" cy="-71.42" rx="32.53" ry="14.67"/>
<text text-anchor="start" x="348" y="-68.3" font-family="Menlo" font-size="10.00">title</text>
</g>
<!-- n4&#45;&gt;n5 -->
<g id="edge11" class="edge">
<title>n4&#45;&gt;n5</title>
<path fill="none" stroke="black" d="M734.5,-193.67C694.91,-184.85 628.2,-169.09 572,-151.44 506.56,-130.89 431.82,-101.04 391.84,-84.53"/>
<polygon fill="black" stroke="black" points="392.89,-83.07 387.6,-82.77 391.55,-86.3 392.89,-83.07"/>
</g>
<!-- n13 -->
<g id="node14" class="node">
<title>n13</title>
<polygon fill="none" stroke="#7f7f7f" points="550,-20.75 516,-20.75 516,0 550,0 550,-20.75"/>
<text text-anchor="start" x="524" y="-7.25" font-family="Menlo" font-size="10.00" fill="#7f7f7f">&gt;&gt;|</text>
</g>
<!-- n4&#45;&gt;n13 -->
<g id="edge12" class="edge">
<title>n4&#45;&gt;n13</title>
<path fill="none" stroke="black" d="M753.15,-188.37C710.64,-154.2 594.37,-60.72 550.27,-25.26"/>
<polygon fill="black" stroke="black" points="551.43,-23.95 546.44,-22.18 549.24,-26.68 551.43,-23.95"/>
</g>
<!-- n14 -->
<g id="node15" class="node">
<title>n14</title>
<ellipse fill="none" stroke="black" cx="873" cy="-136.77" rx="49.5" ry="14.67"/>
<text text-anchor="start" x="846" y="-133.64" font-family="Menlo" font-size="10.00">paragraph</text>
</g>
<!-- n4&#45;&gt;n14 -->
<g id="edge27" class="edge">
<title>n4&#45;&gt;n14</title>
<path fill="none" stroke="black" d="M789.05,-188.9C805.53,-178.86 828.99,-164.57 846.92,-153.65"/>
<polygon fill="black" stroke="black" points="847.64,-155.26 851,-151.16 845.82,-152.27 847.64,-155.26"/>
</g>
<!-- n29 -->
<g id="node30" class="node">
<title>n29</title>
<polygon fill="none" stroke="#7f7f7f" points="1222,-20.75 1188,-20.75 1188,0 1222,0 1222,-20.75"/>
<text text-anchor="start" x="1196" y="-7.25" font-family="Menlo" font-size="10.00" fill="#7f7f7f">|&lt;&lt;</text>
</g>
<!-- n4&#45;&gt;n29 -->
<g id="edge28" class="edge">
<title>n4&#45;&gt;n29</title>
<path fill="none" stroke="black" d="M804.52,-194.33C869.75,-180.83 1011.58,-146.58 1117,-86.09 1146.56,-69.14 1175.67,-41.75 1191.89,-25.26"/>
<polygon fill="black" stroke="black" points="1192.83,-26.81 1195.06,-22 1190.32,-24.37 1192.83,-26.81"/>
</g>
<!-- n5&#45;&gt;n6 -->
<g id="edge4" class="edge">
<title>n5&#45;&gt;n6</title>
<path fill="none" stroke="black" d="M336.17,-62.72C302.95,-53.12 244.69,-36.12 195,-20.75 194.12,-20.48 193.22,-20.2 192.31,-19.91"/>
<polygon fill="black" stroke="black" points="193,-18.29 187.7,-18.45 191.94,-21.63 193,-18.29"/>
</g>
<!-- n7 -->
<g id="node8" class="node">
<title>n7</title>
<polygon fill="none" stroke="#7f7f7f" points="238,-20.75 204,-20.75 204,0 238,0 238,-20.75"/>
<text text-anchor="start" x="212" y="-7.25" font-family="Menlo" font-size="10.00" fill="#7f7f7f">&gt;.&lt;</text>
</g>
<!-- n5&#45;&gt;n7 -->
<g id="edge5" class="edge">
<title>n5&#45;&gt;n7</title>
<path fill="none" stroke="black" d="M339.87,-60.8C313.42,-49.81 270.38,-31.91 243.99,-20.94"/>
<polygon fill="black" stroke="black" points="244.99,-19.46 239.7,-19.15 243.65,-22.69 244.99,-19.46"/>
</g>
<!-- n8 -->
<g id="node9" class="node">
<title>n8</title>
<polygon fill="none" stroke="black" points="296,-20.75 256,-20.75 256,0 296,0 296,-20.75"/>
<text text-anchor="start" x="264" y="-7.25" font-family="Menlo" font-size="10.00">upon</text>
</g>
<!-- n5&#45;&gt;n8 -->
<g id="edge6" class="edge">
<title>n5&#45;&gt;n8</title>
<path fill="none" stroke="black" d="M345.81,-58.76C331.35,-48.94 310.66,-34.9 295.56,-24.65"/>
<polygon fill="black" stroke="black" points="296.65,-23.27 291.53,-21.91 294.68,-26.17 296.65,-23.27"/>
</g>
<!-- n9 -->
<g id="node10" class="node">
<title>n9</title>
<polygon fill="none" stroke="#7f7f7f" points="348,-20.75 314,-20.75 314,0 348,0 348,-20.75"/>
<text text-anchor="start" x="322" y="-7.25" font-family="Menlo" font-size="10.00" fill="#7f7f7f">&gt;.&lt;</text>
</g>
<!-- n5&#45;&gt;n9 -->
<g id="edge7" class="edge">
<title>n5&#45;&gt;n9</title>
<path fill="none" stroke="black" d="M355.58,-56.73C350.73,-47.78 344.39,-36.09 339.37,-26.82"/>
<polygon fill="black" stroke="black" points="340.93,-26.02 337.01,-22.46 337.85,-27.69 340.93,-26.02"/>
</g>
<!-- n10 -->
<g id="node11" class="node">
<title>n10</title>
<polygon fill="none" stroke="black" points="388,-20.75 366,-20.75 366,0 388,0 388,-20.75"/>
<text text-anchor="start" x="374" y="-7.25" font-family="Menlo" font-size="10.00">a</text>
</g>
<!-- n5&#45;&gt;n10 -->
<g id="edge8" class="edge">
<title>n5&#45;&gt;n10</title>
<path fill="none" stroke="black" d="M366.32,-56.43C368.4,-47.65 371.09,-36.3 373.25,-27.19"/>
<polygon fill="black" stroke="black" points="374.91,-27.77 374.36,-22.5 371.51,-26.96 374.91,-27.77"/>
</g>
<!-- n11 -->
<g id="node12" class="node">
<title>n11</title>
<polygon fill="none" stroke="#7f7f7f" points="440,-20.75 406,-20.75 406,0 440,0 440,-20.75"/>
<text text-anchor="start" x="414" y="-7.25" font-family="Menlo" font-size="10.00" fill="#7f7f7f">&gt;.&lt;</text>
</g>
<!-- n5&#45;&gt;n11 -->
<g id="edge9" class="edge">
<title>n5&#45;&gt;n11</title>
<path fill="none" stroke="black" d="M376.02,-57.61C385.62,-48.17 398.67,-35.32 408.58,-25.57"/>
<polygon fill="black" stroke="black" points="409.75,-26.87 412.09,-22.11 407.3,-24.37 409.75,-26.87"/>
</g>
<!-- n12 -->
<g id="node13" class="node">
<title>n12</title>
<polygon fill="none" stroke="black" points="498,-20.75 458,-20.75 458,0 498,0 498,-20.75"/>
<text text-anchor="start" x="466" y="-7.25" font-family="Menlo" font-size="10.00">time</text>
</g>
<!-- n5&#45;&gt;n12 -->
<g id="edge10" class="edge">
<title>n5&#45;&gt;n12</title>
<path fill="none" stroke="black" d="M383.83,-59.73C403.35,-49.7 432.56,-34.71 453.26,-24.08"/>
<polygon fill="black" stroke="black" points="453.86,-25.74 457.51,-21.9 452.26,-22.62 453.86,-25.74"/>
</g>
<!-- n6&#45;&gt;n7 -->
<!-- n7&#45;&gt;n8 -->
<!-- n8&#45;&gt;n9 -->
<!-- n9&#45;&gt;n10 -->
<!-- n10&#45;&gt;n11 -->
<!-- n11&#45;&gt;n12 -->
<!-- n12&#45;&gt;n13 -->
<!-- n16 -->
<g id="node17" class="node">
<title>n16</title>
<polygon fill="none" stroke="black" points="638,-20.75 568,-20.75 568,0 638,0 638,-20.75"/>
<text text-anchor="start" x="576" y="-7.25" font-family="Menlo" font-size="10.00">Something</text>
</g>
<!-- n13&#45;&gt;n16 -->
<!-- n15 -->
<g id="node16" class="node">
<title>n15</title>
<ellipse fill="none" stroke="black" cx="690" cy="-71.42" rx="45.25" ry="14.67"/>
<text text-anchor="start" x="666" y="-68.3" font-family="Menlo" font-size="10.00">sentence</text>
</g>
<!-- n14&#45;&gt;n15 -->
<g id="edge16" class="edge">
<title>n14&#45;&gt;n15</title>
<path fill="none" stroke="black" d="M841.96,-125.02C809.89,-113.92 759.9,-96.62 726.09,-84.92"/>
<polygon fill="black" stroke="black" points="726.71,-83.28 721.41,-83.29 725.56,-86.58 726.71,-83.28"/>
</g>
<!-- n19 -->
<g id="node20" class="node">
<title>n19</title>
<ellipse fill="none" stroke="black" cx="873" cy="-71.42" rx="45.25" ry="14.67"/>
<text text-anchor="start" x="849" y="-68.3" font-family="Menlo" font-size="10.00">sentence</text>
</g>
<!-- n14&#45;&gt;n19 -->
<g id="edge21" class="edge">
<title>n14&#45;&gt;n19</title>
<path fill="none" stroke="black" d="M873,-121.71C873,-113.18 873,-102.15 873,-92.69"/>
<polygon fill="black" stroke="black" points="874.75,-92.95 873,-87.96 871.25,-92.96 874.75,-92.95"/>
</g>
<!-- n24 -->
<g id="node25" class="node">
<title>n24</title>
<ellipse fill="none" stroke="black" cx="1032" cy="-71.42" rx="45.25" ry="14.67"/>
<text text-anchor="start" x="1008" y="-68.3" font-family="Menlo" font-size="10.00">sentence</text>
</g>
<!-- n14&#45;&gt;n24 -->
<g id="edge25" class="edge">
<title>n14&#45;&gt;n24</title>
<path fill="none" stroke="black" d="M901.43,-124.44C928.61,-113.61 969.62,-97.28 998.4,-85.81"/>
<polygon fill="black" stroke="black" points="998.95,-87.47 1002.95,-84 997.65,-84.22 998.95,-87.47"/>
</g>
<!-- n28 -->
<g id="node29" class="node">
<title>n28</title>
<polygon fill="none" stroke="#7f7f7f" points="1170,-20.75 1136,-20.75 1136,0 1170,0 1170,-20.75"/>
<text text-anchor="start" x="1144" y="-7.25" font-family="Menlo" font-size="10.00" fill="#7f7f7f">&lt;.&gt;</text>
</g>
<!-- n14&#45;&gt;n28 -->
<g id="edge26" class="edge">
<title>n14&#45;&gt;n28</title>
<path fill="none" stroke="black" d="M920.91,-132.85C966.21,-128.26 1034.7,-116.46 1086,-86.09 1111.19,-71.18 1132.17,-43.66 1143.62,-26.5"/>
<polygon fill="black" stroke="black" points="1145.04,-27.53 1146.31,-22.38 1142.11,-25.62 1145.04,-27.53"/>
</g>
<!-- n15&#45;&gt;n16 -->
<g id="edge13" class="edge">
<title>n15&#45;&gt;n16</title>
<path fill="none" stroke="black" d="M671.12,-57.61C656.79,-47.88 637.14,-34.55 622.63,-24.7"/>
<polygon fill="black" stroke="black" points="623.91,-23.45 618.79,-22.09 621.94,-26.34 623.91,-23.45"/>
</g>
<!-- n17 -->
<g id="node18" class="node">
<title>n17</title>
<polygon fill="none" stroke="black" points="678,-20.75 656,-20.75 656,0 678,0 678,-20.75"/>
<text text-anchor="start" x="664" y="-7.25" font-family="Menlo" font-size="10.00">.</text>
</g>
<!-- n15&#45;&gt;n17 -->
<g id="edge14" class="edge">
<title>n15&#45;&gt;n17</title>
<path fill="none" stroke="black" d="M684.55,-56.43C681.1,-47.56 676.62,-36.08 673.06,-26.93"/>
<polygon fill="black" stroke="black" points="674.75,-26.46 671.31,-22.44 671.49,-27.73 674.75,-26.46"/>
</g>
<!-- n18 -->
<g id="node19" class="node">
<title>n18</title>
<polygon fill="none" stroke="#7f7f7f" points="730,-20.75 696,-20.75 696,0 730,0 730,-20.75"/>
<text text-anchor="start" x="704" y="-7.25" font-family="Menlo" font-size="10.00" fill="#7f7f7f">&lt;:&gt;</text>
</g>
<!-- n15&#45;&gt;n18 -->
<g id="edge15" class="edge">
<title>n15&#45;&gt;n18</title>
<path fill="none" stroke="black" d="M695.45,-56.43C698.9,-47.56 703.38,-36.08 706.94,-26.93"/>
<polygon fill="black" stroke="black" points="708.51,-27.73 708.69,-22.44 705.25,-26.46 708.51,-27.73"/>
</g>
<!-- n16&#45;&gt;n17 -->
<!-- n17&#45;&gt;n18 -->
<!-- n20 -->
<g id="node21" class="node">
<title>n20</title>
<polygon fill="none" stroke="black" points="806,-20.75 748,-20.75 748,0 806,0 806,-20.75"/>
<text text-anchor="start" x="756" y="-7.25" font-family="Menlo" font-size="10.00">Another</text>
</g>
<!-- n18&#45;&gt;n20 -->
<!-- n19&#45;&gt;n20 -->
<g id="edge17" class="edge">
<title>n19&#45;&gt;n20</title>
<path fill="none" stroke="black" d="M852.64,-57.9C836.62,-48.05 814.37,-34.36 798.14,-24.38"/>
<polygon fill="black" stroke="black" points="799.36,-23.07 794.18,-21.94 797.52,-26.05 799.36,-23.07"/>
</g>
<!-- n21 -->
<g id="node22" class="node">
<title>n21</title>
<polygon fill="none" stroke="black" points="870,-20.75 824,-20.75 824,0 870,0 870,-20.75"/>
<text text-anchor="start" x="832" y="-7.25" font-family="Menlo" font-size="10.00">thing</text>
</g>
<!-- n19&#45;&gt;n21 -->
<g id="edge18" class="edge">
<title>n19&#45;&gt;n21</title>
<path fill="none" stroke="black" d="M866.84,-56.43C862.93,-47.56 857.88,-36.08 853.85,-26.93"/>
<polygon fill="black" stroke="black" points="855.48,-26.28 851.86,-22.41 852.27,-27.69 855.48,-26.28"/>
</g>
<!-- n22 -->
<g id="node23" class="node">
<title>n22</title>
<polygon fill="none" stroke="black" points="910,-20.75 888,-20.75 888,0 910,0 910,-20.75"/>
<text text-anchor="start" x="896" y="-7.25" font-family="Menlo" font-size="10.00">.</text>
</g>
<!-- n19&#45;&gt;n22 -->
<g id="edge19" class="edge">
<title>n19&#45;&gt;n22</title>
<path fill="none" stroke="black" d="M879.16,-56.43C883.07,-47.56 888.12,-36.08 892.15,-26.93"/>
<polygon fill="black" stroke="black" points="893.73,-27.69 894.14,-22.41 890.52,-26.28 893.73,-27.69"/>
</g>
<!-- n23 -->
<g id="node24" class="node">
<title>n23</title>
<polygon fill="none" stroke="#7f7f7f" points="962,-20.75 928,-20.75 928,0 962,0 962,-20.75"/>
<text text-anchor="start" x="936" y="-7.25" font-family="Menlo" font-size="10.00" fill="#7f7f7f">&lt;:&gt;</text>
</g>
<!-- n19&#45;&gt;n23 -->
<g id="edge20" class="edge">
<title>n19&#45;&gt;n23</title>
<path fill="none" stroke="black" d="M888.98,-57.32C900.72,-47.69 916.64,-34.63 928.5,-24.9"/>
<polygon fill="black" stroke="black" points="929.39,-26.44 932.15,-21.92 927.17,-23.73 929.39,-26.44"/>
</g>
<!-- n20&#45;&gt;n21 -->
<!-- n21&#45;&gt;n22 -->
<!-- n22&#45;&gt;n23 -->
<!-- n25 -->
<g id="node26" class="node">
<title>n25</title>
<polygon fill="none" stroke="black" points="1026,-20.75 980,-20.75 980,0 1026,0 1026,-20.75"/>
<text text-anchor="start" x="988" y="-7.25" font-family="Menlo" font-size="10.00">Sleep</text>
</g>
<!-- n23&#45;&gt;n25 -->
<!-- n24&#45;&gt;n25 -->
<g id="edge22" class="edge">
<title>n24&#45;&gt;n25</title>
<path fill="none" stroke="black" d="M1025.13,-56.43C1020.73,-47.48 1015.03,-35.86 1010.51,-26.67"/>
<polygon fill="black" stroke="black" points="1012.18,-26.1 1008.41,-22.38 1009.04,-27.64 1012.18,-26.1"/>
</g>
<!-- n26 -->
<g id="node27" class="node">
<title>n26</title>
<polygon fill="none" stroke="black" points="1066,-20.75 1044,-20.75 1044,0 1066,0 1066,-20.75"/>
<text text-anchor="start" x="1052" y="-7.25" font-family="Menlo" font-size="10.00">.</text>
</g>
<!-- n24&#45;&gt;n26 -->
<g id="edge23" class="edge">
<title>n24&#45;&gt;n26</title>
<path fill="none" stroke="black" d="M1037.45,-56.43C1040.9,-47.56 1045.38,-36.08 1048.94,-26.93"/>
<polygon fill="black" stroke="black" points="1050.51,-27.73 1050.69,-22.44 1047.25,-26.46 1050.51,-27.73"/>
</g>
<!-- n27 -->
<g id="node28" class="node">
<title>n27</title>
<polygon fill="none" stroke="#7f7f7f" points="1118,-20.75 1084,-20.75 1084,0 1118,0 1118,-20.75"/>
<text text-anchor="start" x="1092" y="-7.25" font-family="Menlo" font-size="10.00" fill="#7f7f7f">&lt;:&gt;</text>
</g>
<!-- n24&#45;&gt;n27 -->
<g id="edge24" class="edge">
<title>n24&#45;&gt;n27</title>
<path fill="none" stroke="black" d="M1047.31,-57.32C1058.47,-47.77 1073.55,-34.87 1084.89,-25.17"/>
<polygon fill="black" stroke="black" points="1085.99,-26.52 1088.65,-21.94 1083.72,-23.86 1085.99,-26.52"/>
</g>
<!-- n25&#45;&gt;n26 -->
<!-- n26&#45;&gt;n27 -->
<!-- n27&#45;&gt;n28 -->
<!-- n28&#45;&gt;n29 -->
<!-- n32 -->
<g id="node33" class="node">
<title>n32</title>
<polygon fill="none" stroke="black" points="1274,-20.75 1240,-20.75 1240,0 1274,0 1274,-20.75"/>
<text text-anchor="start" x="1248" y="-7.25" font-family="Menlo" font-size="10.00">The</text>
</g>
<!-- n29&#45;&gt;n32 -->
<!-- n31 -->
<g id="node32" class="node">
<title>n31</title>
<ellipse fill="none" stroke="black" cx="1462" cy="-71.42" rx="32.53" ry="14.67"/>
<text text-anchor="start" x="1447" y="-68.3" font-family="Menlo" font-size="10.00">title</text>
</g>
<!-- n30&#45;&gt;n31 -->
<g id="edge37" class="edge">
<title>n30&#45;&gt;n31</title>
<path fill="none" stroke="black" d="M1638.3,-188.77C1602.36,-165.05 1523.73,-113.16 1484.79,-87.46"/>
<polygon fill="black" stroke="black" points="1486.19,-86.29 1481.06,-85 1484.26,-89.21 1486.19,-86.29"/>
</g>
<!-- n39 -->
<g id="node40" class="node">
<title>n39</title>
<polygon fill="none" stroke="#7f7f7f" points="1674,-20.75 1640,-20.75 1640,0 1674,0 1674,-20.75"/>
<text text-anchor="start" x="1648" y="-7.25" font-family="Menlo" font-size="10.00" fill="#7f7f7f">&gt;&gt;|</text>
</g>
<!-- n30&#45;&gt;n39 -->
<g id="edge38" class="edge">
<title>n30&#45;&gt;n39</title>
<path fill="none" stroke="black" d="M1657,-187.16C1657,-152.68 1657,-63.6 1657,-27.22"/>
<polygon fill="black" stroke="black" points="1658.75,-27.57 1657,-22.57 1655.25,-27.57 1658.75,-27.57"/>
</g>
<!-- n40 -->
<g id="node41" class="node">
<title>n40</title>
<ellipse fill="none" stroke="black" cx="1773" cy="-136.77" rx="49.5" ry="14.67"/>
<text text-anchor="start" x="1746" y="-133.64" font-family="Menlo" font-size="10.00">paragraph</text>
</g>
<!-- n30&#45;&gt;n40 -->
<g id="edge45" class="edge">
<title>n30&#45;&gt;n40</title>
<path fill="none" stroke="black" d="M1678.55,-189.35C1697.23,-179.14 1724.41,-164.3 1744.82,-153.16"/>
<polygon fill="black" stroke="black" points="1745.5,-154.78 1749.05,-150.84 1743.82,-151.71 1745.5,-154.78"/>
</g>
<!-- n47 -->
<g id="node48" class="node">
<title>n47</title>
<polygon fill="none" stroke="#7f7f7f" points="1974,-20.75 1940,-20.75 1940,0 1974,0 1974,-20.75"/>
<text text-anchor="start" x="1948" y="-7.25" font-family="Menlo" font-size="10.00" fill="#7f7f7f">|&lt;&lt;</text>
</g>
<!-- n30&#45;&gt;n47 -->
<g id="edge46" class="edge">
<title>n30&#45;&gt;n47</title>
<path fill="none" stroke="black" d="M1695.11,-196.46C1732.13,-190.57 1788.76,-177.81 1831,-151.44 1884.58,-117.99 1929.03,-55.29 1947.63,-26.52"/>
<polygon fill="black" stroke="black" points="1948.97,-27.67 1950.18,-22.51 1946.02,-25.78 1948.97,-27.67"/>
</g>
<!-- n31&#45;&gt;n32 -->
<g id="edge30" class="edge">
<title>n31&#45;&gt;n32</title>
<path fill="none" stroke="black" d="M1434.21,-63.41C1398.85,-54.32 1336.01,-37.64 1283,-20.75 1282.11,-20.47 1281.21,-20.17 1280.31,-19.87"/>
<polygon fill="black" stroke="black" points="1281.01,-18.27 1275.71,-18.3 1279.88,-21.58 1281.01,-18.27"/>
</g>
<!-- n33 -->
<g id="node34" class="node">
<title>n33</title>
<polygon fill="none" stroke="#7f7f7f" points="1326,-20.75 1292,-20.75 1292,0 1326,0 1326,-20.75"/>
<text text-anchor="start" x="1300" y="-7.25" font-family="Menlo" font-size="10.00" fill="#7f7f7f">&gt;.&lt;</text>
</g>
<!-- n31&#45;&gt;n33 -->
<g id="edge31" class="edge">
<title>n31&#45;&gt;n33</title>
<path fill="none" stroke="black" d="M1438.09,-61.2C1409.06,-49.99 1360.44,-31.23 1331.88,-20.21"/>
<polygon fill="black" stroke="black" points="1332.81,-18.69 1327.52,-18.52 1331.55,-21.95 1332.81,-18.69"/>
</g>
<!-- n34 -->
<g id="node35" class="node">
<title>n34</title>
<polygon fill="none" stroke="black" points="1396,-20.75 1344,-20.75 1344,0 1396,0 1396,-20.75"/>
<text text-anchor="start" x="1352" y="-7.25" font-family="Menlo" font-size="10.00">Prince</text>
</g>
<!-- n31&#45;&gt;n34 -->
<g id="edge32" class="edge">
<title>n31&#45;&gt;n34</title>
<path fill="none" stroke="black" d="M1443.82,-58.76C1428.39,-48.85 1406.27,-34.65 1390.27,-24.38"/>
<polygon fill="black" stroke="black" points="1391.52,-23.11 1386.37,-21.88 1389.63,-26.05 1391.52,-23.11"/>
</g>
<!-- n35 -->
<g id="node36" class="node">
<title>n35</title>
<polygon fill="none" stroke="#7f7f7f" points="1448,-20.75 1414,-20.75 1414,0 1448,0 1448,-20.75"/>
<text text-anchor="start" x="1422" y="-7.25" font-family="Menlo" font-size="10.00" fill="#7f7f7f">&gt;.&lt;</text>
</g>
<!-- n31&#45;&gt;n35 -->
<g id="edge33" class="edge">
<title>n31&#45;&gt;n35</title>
<path fill="none" stroke="black" d="M1454.81,-56.73C1450.11,-47.78 1443.98,-36.09 1439.11,-26.82"/>
<polygon fill="black" stroke="black" points="1440.7,-26.08 1436.82,-22.47 1437.6,-27.71 1440.7,-26.08"/>
</g>
<!-- n36 -->
<g id="node37" class="node">
<title>n36</title>
<polygon fill="none" stroke="black" points="1518,-20.75 1466,-20.75 1466,0 1518,0 1518,-20.75"/>
<text text-anchor="start" x="1474" y="-7.25" font-family="Menlo" font-size="10.00">kisses</text>
</g>
<!-- n31&#45;&gt;n36 -->
<g id="edge34" class="edge">
<title>n31&#45;&gt;n36</title>
<path fill="none" stroke="black" d="M1468.96,-56.73C1473.5,-47.78 1479.44,-36.09 1484.15,-26.82"/>
<polygon fill="black" stroke="black" points="1485.66,-27.73 1486.36,-22.47 1482.54,-26.14 1485.66,-27.73"/>
</g>
<!-- n37 -->
<g id="node38" class="node">
<title>n37</title>
<polygon fill="none" stroke="#7f7f7f" points="1570,-20.75 1536,-20.75 1536,0 1570,0 1570,-20.75"/>
<text text-anchor="start" x="1544" y="-7.25" font-family="Menlo" font-size="10.00" fill="#7f7f7f">&gt;.&lt;</text>
</g>
<!-- n31&#45;&gt;n37 -->
<g id="edge35" class="edge">
<title>n31&#45;&gt;n37</title>
<path fill="none" stroke="black" d="M1479.98,-58.76C1495.24,-48.85 1517.13,-34.65 1532.95,-24.38"/>
<polygon fill="black" stroke="black" points="1533.56,-26.08 1536.8,-21.89 1531.65,-23.14 1533.56,-26.08"/>
</g>
<!-- n38 -->
<g id="node39" class="node">
<title>n38</title>
<polygon fill="none" stroke="black" points="1622,-20.75 1588,-20.75 1588,0 1622,0 1622,-20.75"/>
<text text-anchor="start" x="1596" y="-7.25" font-family="Menlo" font-size="10.00">her</text>
</g>
<!-- n31&#45;&gt;n38 -->
<g id="edge36" class="edge">
<title>n31&#45;&gt;n38</title>
<path fill="none" stroke="black" d="M1485.29,-60.8C1511.93,-49.81 1555.27,-31.91 1581.85,-20.94"/>
<polygon fill="black" stroke="black" points="1582.22,-22.67 1586.17,-19.15 1580.89,-19.44 1582.22,-22.67"/>
</g>
<!-- n32&#45;&gt;n33 -->
<!-- n33&#45;&gt;n34 -->
<!-- n34&#45;&gt;n35 -->
<!-- n35&#45;&gt;n36 -->
<!-- n36&#45;&gt;n37 -->
<!-- n37&#45;&gt;n38 -->
<!-- n38&#45;&gt;n39 -->
<!-- n42 -->
<g id="node43" class="node">
<title>n42</title>
<polygon fill="none" stroke="black" points="1732,-20.75 1692,-20.75 1692,0 1732,0 1732,-20.75"/>
<text text-anchor="start" x="1700" y="-7.25" font-family="Menlo" font-size="10.00">Wake</text>
</g>
<!-- n39&#45;&gt;n42 -->
<!-- n41 -->
<g id="node42" class="node">
<title>n41</title>
<ellipse fill="none" stroke="black" cx="1773" cy="-71.42" rx="45.25" ry="14.67"/>
<text text-anchor="start" x="1749" y="-68.3" font-family="Menlo" font-size="10.00">sentence</text>
</g>
<!-- n40&#45;&gt;n41 -->
<g id="edge43" class="edge">
<title>n40&#45;&gt;n41</title>
<path fill="none" stroke="black" d="M1773,-121.71C1773,-113.18 1773,-102.15 1773,-92.69"/>
<polygon fill="black" stroke="black" points="1774.75,-92.95 1773,-87.96 1771.25,-92.96 1774.75,-92.95"/>
</g>
<!-- n46 -->
<g id="node47" class="node">
<title>n46</title>
<polygon fill="none" stroke="#7f7f7f" points="1922,-20.75 1888,-20.75 1888,0 1922,0 1922,-20.75"/>
<text text-anchor="start" x="1896" y="-7.25" font-family="Menlo" font-size="10.00" fill="#7f7f7f">&lt;.&gt;</text>
</g>
<!-- n40&#45;&gt;n46 -->
<g id="edge44" class="edge">
<title>n40&#45;&gt;n46</title>
<path fill="none" stroke="black" d="M1787.74,-122.35C1798.64,-112.4 1813.81,-98.47 1827,-86.09 1849.3,-65.16 1874.85,-40.57 1890.46,-25.48"/>
<polygon fill="black" stroke="black" points="1891.5,-26.9 1893.88,-22.17 1889.07,-24.39 1891.5,-26.9"/>
</g>
<!-- n41&#45;&gt;n42 -->
<g id="edge39" class="edge">
<title>n41&#45;&gt;n42</title>
<path fill="none" stroke="black" d="M1759.16,-57.02C1749.49,-47.67 1736.6,-35.19 1726.75,-25.65"/>
<polygon fill="black" stroke="black" points="1728.07,-24.5 1723.26,-22.28 1725.64,-27.01 1728.07,-24.5"/>
</g>
<!-- n43 -->
<g id="node44" class="node">
<title>n43</title>
<polygon fill="none" stroke="black" points="1778,-20.75 1750,-20.75 1750,0 1778,0 1778,-20.75"/>
<text text-anchor="start" x="1758" y="-7.25" font-family="Menlo" font-size="10.00">up</text>
</g>
<!-- n41&#45;&gt;n43 -->
<g id="edge40" class="edge">
<title>n41&#45;&gt;n43</title>
<path fill="none" stroke="black" d="M1770.87,-56.43C1769.54,-47.73 1767.83,-36.52 1766.45,-27.46"/>
<polygon fill="black" stroke="black" points="1768.18,-27.2 1765.7,-22.52 1764.72,-27.73 1768.18,-27.2"/>
</g>
<!-- n44 -->
<g id="node45" class="node">
<title>n44</title>
<polygon fill="none" stroke="black" points="1818,-20.75 1796,-20.75 1796,0 1818,0 1818,-20.75"/>
<text text-anchor="start" x="1804" y="-7.25" font-family="Menlo" font-size="10.00">.</text>
</g>
<!-- n41&#45;&gt;n44 -->
<g id="edge41" class="edge">
<title>n41&#45;&gt;n44</title>
<path fill="none" stroke="black" d="M1780.89,-56.73C1786.08,-47.7 1792.9,-35.87 1798.26,-26.55"/>
<polygon fill="black" stroke="black" points="1799.65,-27.64 1800.63,-22.44 1796.62,-25.9 1799.65,-27.64"/>
</g>
<!-- n45 -->
<g id="node46" class="node">
<title>n45</title>
<polygon fill="none" stroke="#7f7f7f" points="1870,-20.75 1836,-20.75 1836,0 1870,0 1870,-20.75"/>
<text text-anchor="start" x="1844" y="-7.25" font-family="Menlo" font-size="10.00" fill="#7f7f7f">&lt;:&gt;</text>
</g>
<!-- n41&#45;&gt;n45 -->
<g id="edge42" class="edge">
<title>n41&#45;&gt;n45</title>
<path fill="none" stroke="black" d="M1790.36,-57.61C1803.5,-47.91 1821.51,-34.62 1834.85,-24.77"/>
<polygon fill="black" stroke="black" points="1835.69,-26.33 1838.67,-21.95 1833.61,-23.51 1835.69,-26.33"/>
</g>
<!-- n42&#45;&gt;n43 -->
<!-- n43&#45;&gt;n44 -->
<!-- n44&#45;&gt;n45 -->
<!-- n45&#45;&gt;n46 -->
<!-- n46&#45;&gt;n47 -->
<!-- n47&#45;&gt;n48 -->
</g>
</svg>
