<?xml version="1.0" encoding="UTF-8" standalone="no"?>
<!DOCTYPE svg PUBLIC "-//W3C//DTD SVG 1.1//EN"
 "http://www.w3.org/Graphics/SVG/1.1/DTD/svg11.dtd">
<!-- Generated by graphviz version 9.0.0 (20230911.1827)
 -->
<!-- Title: Derivations Pages: 1 -->
<svg width="476pt" height="1226pt"
 viewBox="0.00 0.00 476.09 1225.71" xmlns="http://www.w3.org/2000/svg" xmlns:xlink="http://www.w3.org/1999/xlink">
<g id="graph0" class="graph" transform="scale(1 1) rotate(0) translate(4 1221.71)">
<title>Derivations</title>
<polygon fill="white" stroke="none" points="-4,4 -4,-1221.71 472.09,-1221.71 472.09,4 -4,4"/>
<text text-anchor="start" x="120.05" y="-1204.21" font-family="Menlo" font-size="10.00">topLevelDeclaration = [ statements ] .</text>
<!-- n0 -->
<g id="node1" class="node">
<title>n0</title>
<ellipse fill="none" stroke="black" cx="91.92" cy="-1182.29" rx="91.92" ry="14.67"/>
<text text-anchor="start" x="34.92" y="-1179.16" font-family="Menlo" font-size="10.00">topLevelDeclaration</text>
</g>
<!-- n1 -->
<g id="node2" class="node">
<title>n1</title>
<ellipse fill="none" stroke="black" cx="91.92" cy="-1116.94" rx="53.74" ry="14.67"/>
<text text-anchor="start" x="61.92" y="-1113.82" font-family="Menlo" font-size="10.00">statements</text>
</g>
<!-- n0&#45;&gt;n1 -->
<g id="edge24" class="edge">
<title>n0&#45;&gt;n1</title>
<path fill="none" stroke="black" d="M91.92,-1167.23C91.92,-1158.7 91.92,-1147.67 91.92,-1138.21"/>
<polygon fill="black" stroke="black" points="93.67,-1138.47 91.92,-1133.47 90.17,-1138.47 93.67,-1138.47"/>
</g>
<!-- n2 -->
<g id="node3" class="node">
<title>n2</title>
<ellipse fill="none" stroke="black" cx="91.92" cy="-1051.6" rx="49.5" ry="14.67"/>
<text text-anchor="start" x="64.92" y="-1048.47" font-family="Menlo" font-size="10.00">statement</text>
</g>
<!-- n1&#45;&gt;n2 -->
<g id="edge23" class="edge">
<title>n1&#45;&gt;n2</title>
<path fill="none" stroke="black" d="M91.92,-1101.88C91.92,-1093.35 91.92,-1082.33 91.92,-1072.87"/>
<polygon fill="black" stroke="black" points="93.67,-1073.13 91.92,-1068.13 90.17,-1073.13 93.67,-1073.13"/>
</g>
<!-- n3 -->
<g id="node4" class="node">
<title>n3</title>
<ellipse fill="none" stroke="black" cx="91.92" cy="-986.25" rx="57.98" ry="14.67"/>
<text text-anchor="start" x="58.92" y="-983.13" font-family="Menlo" font-size="10.00">declaration</text>
</g>
<!-- n2&#45;&gt;n3 -->
<g id="edge22" class="edge">
<title>n2&#45;&gt;n3</title>
<path fill="none" stroke="black" d="M91.92,-1036.54C91.92,-1028.01 91.92,-1016.98 91.92,-1007.52"/>
<polygon fill="black" stroke="black" points="93.67,-1007.78 91.92,-1002.78 90.17,-1007.78 93.67,-1007.78"/>
</g>
<!-- n4 -->
<g id="node5" class="node">
<title>n4</title>
<ellipse fill="none" stroke="black" cx="91.92" cy="-920.91" rx="91.92" ry="14.67"/>
<text text-anchor="start" x="34.92" y="-917.78" font-family="Menlo" font-size="10.00">constantDeclaration</text>
</g>
<!-- n3&#45;&gt;n4 -->
<g id="edge21" class="edge">
<title>n3&#45;&gt;n4</title>
<path fill="none" stroke="black" d="M91.92,-971.19C91.92,-962.66 91.92,-951.64 91.92,-942.18"/>
<polygon fill="black" stroke="black" points="93.67,-942.44 91.92,-937.44 90.17,-942.44 93.67,-942.44"/>
</g>
<!-- n5 -->
<g id="node6" class="node">
<title>n5</title>
<polygon fill="none" stroke="black" points="75.92,-20.75 41.92,-20.75 41.92,0 75.92,0 75.92,-20.75"/>
<text text-anchor="start" x="49.92" y="-7.25" font-family="Menlo" font-size="10.00">let</text>
</g>
<!-- n4&#45;&gt;n5 -->
<g id="edge1" class="edge">
<title>n4&#45;&gt;n5</title>
<path fill="none" stroke="black" d="M75.24,-906.34C65.03,-897.17 52.51,-884.22 44.92,-870.23 27.71,-838.48 25.92,-827.34 25.92,-791.22 25.92,-791.22 25.92,-791.22 25.92,-135.77 25.92,-95.53 42.25,-50.36 51.94,-27.09"/>
<polygon fill="black" stroke="black" points="53.53,-27.82 53.88,-22.53 50.31,-26.44 53.53,-27.82"/>
</g>
<!-- n6 -->
<g id="node7" class="node">
<title>n6</title>
<ellipse fill="none" stroke="black" cx="158.92" cy="-855.56" rx="104.65" ry="14.67"/>
<text text-anchor="start" x="92.92" y="-852.44" font-family="Menlo" font-size="10.00">patternInitializerList</text>
</g>
<!-- n4&#45;&gt;n6 -->
<g id="edge20" class="edge">
<title>n4&#45;&gt;n6</title>
<path fill="none" stroke="black" d="M106.46,-906.16C116.21,-896.95 129.15,-884.72 139.73,-874.7"/>
<polygon fill="black" stroke="black" points="140.88,-876.03 143.31,-871.32 138.48,-873.48 140.88,-876.03"/>
</g>
<!-- n11 -->
<g id="node12" class="node">
<title>n11</title>
<polygon fill="none" stroke="black" points="147.92,-20.75 125.92,-20.75 125.92,0 147.92,0 147.92,-20.75"/>
<text text-anchor="start" x="133.92" y="-7.25" font-family="Menlo" font-size="10.00">x</text>
</g>
<!-- n5&#45;&gt;n11 -->
<!-- n7 -->
<g id="node8" class="node">
<title>n7</title>
<ellipse fill="none" stroke="black" cx="158.92" cy="-790.22" rx="87.68" ry="14.67"/>
<text text-anchor="start" x="104.92" y="-787.09" font-family="Menlo" font-size="10.00">patternInitializer</text>
</g>
<!-- n6&#45;&gt;n7 -->
<g id="edge19" class="edge">
<title>n6&#45;&gt;n7</title>
<path fill="none" stroke="black" d="M158.92,-840.5C158.92,-831.97 158.92,-820.95 158.92,-811.49"/>
<polygon fill="black" stroke="black" points="160.67,-811.75 158.92,-806.75 157.17,-811.75 160.67,-811.75"/>
</g>
<!-- n8 -->
<g id="node9" class="node">
<title>n8</title>
<ellipse fill="none" stroke="black" cx="136.92" cy="-724.87" rx="70.71" ry="14.67"/>
<text text-anchor="start" x="94.92" y="-721.75" font-family="Menlo" font-size="10.00">bindingPattern</text>
</g>
<!-- n7&#45;&gt;n8 -->
<g id="edge5" class="edge">
<title>n7&#45;&gt;n8</title>
<path fill="none" stroke="black" d="M154.04,-775.16C151.05,-766.55 147.18,-755.39 143.87,-745.87"/>
<polygon fill="black" stroke="black" points="145.58,-745.47 142.29,-741.32 142.28,-746.62 145.58,-745.47"/>
</g>
<!-- n12 -->
<g id="node13" class="node">
<title>n12</title>
<ellipse fill="none" stroke="black" cx="283.92" cy="-724.87" rx="57.98" ry="14.67"/>
<text text-anchor="start" x="250.92" y="-721.75" font-family="Menlo" font-size="10.00">initializer</text>
</g>
<!-- n7&#45;&gt;n12 -->
<g id="edge18" class="edge">
<title>n7&#45;&gt;n12</title>
<path fill="none" stroke="black" d="M185.43,-775.78C205.35,-765.69 232.66,-751.85 253.47,-741.31"/>
<polygon fill="black" stroke="black" points="254.13,-742.93 257.8,-739.11 252.55,-739.81 254.13,-742.93"/>
</g>
<!-- n9 -->
<g id="node10" class="node">
<title>n9</title>
<ellipse fill="none" stroke="black" cx="136.92" cy="-659.53" rx="83.44" ry="14.67"/>
<text text-anchor="start" x="85.92" y="-656.4" font-family="Menlo" font-size="10.00">identifierPattern</text>
</g>
<!-- n8&#45;&gt;n9 -->
<g id="edge4" class="edge">
<title>n8&#45;&gt;n9</title>
<path fill="none" stroke="black" d="M136.92,-709.81C136.92,-701.28 136.92,-690.26 136.92,-680.8"/>
<polygon fill="black" stroke="black" points="138.67,-681.06 136.92,-676.06 135.17,-681.06 138.67,-681.06"/>
</g>
<!-- n10 -->
<g id="node11" class="node">
<title>n10</title>
<ellipse fill="none" stroke="black" cx="136.92" cy="-528.84" rx="53.74" ry="14.67"/>
<text text-anchor="start" x="106.92" y="-525.71" font-family="Menlo" font-size="10.00">identifier</text>
</g>
<!-- n9&#45;&gt;n10 -->
<g id="edge3" class="edge">
<title>n9&#45;&gt;n10</title>
<path fill="none" stroke="black" d="M136.92,-644.75C136.92,-622.04 136.92,-576.61 136.92,-550.18"/>
<polygon fill="black" stroke="black" points="138.67,-550.41 136.92,-545.41 135.17,-550.41 138.67,-550.41"/>
</g>
<!-- n10&#45;&gt;n11 -->
<g id="edge2" class="edge">
<title>n10&#45;&gt;n11</title>
<path fill="none" stroke="black" d="M136.92,-513.94C136.92,-490.34 136.92,-440.93 136.92,-399.15 136.92,-399.15 136.92,-399.15 136.92,-135.77 136.92,-96.85 136.92,-51.08 136.92,-27.39"/>
<polygon fill="black" stroke="black" points="138.67,-27.57 136.92,-22.57 135.17,-27.57 138.67,-27.57"/>
</g>
<!-- n13 -->
<g id="node14" class="node">
<title>n13</title>
<polygon fill="none" stroke="black" points="258.92,-20.75 236.92,-20.75 236.92,0 258.92,0 258.92,-20.75"/>
<text text-anchor="start" x="244.92" y="-7.25" font-family="Menlo" font-size="10.00">=</text>
</g>
<!-- n11&#45;&gt;n13 -->
<!-- n12&#45;&gt;n13 -->
<g id="edge6" class="edge">
<title>n12&#45;&gt;n13</title>
<path fill="none" stroke="black" d="M277.32,-709.95C266.93,-686.71 247.92,-638.33 247.92,-595.18 247.92,-595.18 247.92,-595.18 247.92,-135.77 247.92,-96.85 247.92,-51.08 247.92,-27.39"/>
<polygon fill="black" stroke="black" points="249.67,-27.57 247.92,-22.57 246.17,-27.57 249.67,-27.57"/>
</g>
<!-- n14 -->
<g id="node15" class="node">
<title>n14</title>
<ellipse fill="none" stroke="black" cx="343.92" cy="-659.53" rx="53.74" ry="14.67"/>
<text text-anchor="start" x="313.92" y="-656.4" font-family="Menlo" font-size="10.00">expression</text>
</g>
<!-- n12&#45;&gt;n14 -->
<g id="edge17" class="edge">
<title>n12&#45;&gt;n14</title>
<path fill="none" stroke="black" d="M296.94,-710.13C305.59,-701 317.05,-688.9 326.48,-678.94"/>
<polygon fill="black" stroke="black" points="327.72,-680.18 329.89,-675.34 325.18,-677.77 327.72,-680.18"/>
</g>
<!-- n24 -->
<g id="node25" class="node">
<title>n24</title>
<polygon fill="none" stroke="black" points="333.92,-20.75 311.92,-20.75 311.92,0 333.92,0 333.92,-20.75"/>
<text text-anchor="start" x="319.92" y="-7.25" font-family="Menlo" font-size="10.00">1</text>
</g>
<!-- n13&#45;&gt;n24 -->
<!-- n15 -->
<g id="node16" class="node">
<title>n15</title>
<ellipse fill="none" stroke="black" cx="356.92" cy="-594.18" rx="79.2" ry="14.67"/>
<text text-anchor="start" x="308.92" y="-591.06" font-family="Menlo" font-size="10.00">prefixExpression</text>
</g>
<!-- n14&#45;&gt;n15 -->
<g id="edge16" class="edge">
<title>n14&#45;&gt;n15</title>
<path fill="none" stroke="black" d="M346.81,-644.47C348.56,-635.94 350.82,-624.91 352.76,-615.45"/>
<polygon fill="black" stroke="black" points="354.45,-615.93 353.74,-610.68 351.02,-615.23 354.45,-615.93"/>
</g>
<!-- n16 -->
<g id="node17" class="node">
<title>n16</title>
<ellipse fill="none" stroke="black" cx="364.92" cy="-528.84" rx="83.44" ry="14.67"/>
<text text-anchor="start" x="313.92" y="-525.71" font-family="Menlo" font-size="10.00">postfixExpression</text>
</g>
<!-- n15&#45;&gt;n16 -->
<g id="edge15" class="edge">
<title>n15&#45;&gt;n16</title>
<path fill="none" stroke="black" d="M358.7,-579.12C359.78,-570.59 361.17,-559.57 362.36,-550.11"/>
<polygon fill="black" stroke="black" points="364.07,-550.54 362.96,-545.36 360.6,-550.1 364.07,-550.54"/>
</g>
<!-- n17 -->
<g id="node18" class="node">
<title>n17</title>
<ellipse fill="none" stroke="black" cx="364.92" cy="-463.49" rx="83.44" ry="14.67"/>
<text text-anchor="start" x="313.92" y="-460.37" font-family="Menlo" font-size="10.00">primaryExpression</text>
</g>
<!-- n16&#45;&gt;n17 -->
<g id="edge14" class="edge">
<title>n16&#45;&gt;n17</title>
<path fill="none" stroke="black" d="M364.92,-513.78C364.92,-505.25 364.92,-494.22 364.92,-484.76"/>
<polygon fill="black" stroke="black" points="366.67,-485.02 364.92,-480.02 363.17,-485.02 366.67,-485.02"/>
</g>
<!-- n18 -->
<g id="node19" class="node">
<title>n18</title>
<ellipse fill="none" stroke="black" cx="367.92" cy="-398.15" rx="83.44" ry="14.67"/>
<text text-anchor="start" x="316.92" y="-395.02" font-family="Menlo" font-size="10.00">literalExpression</text>
</g>
<!-- n17&#45;&gt;n18 -->
<g id="edge13" class="edge">
<title>n17&#45;&gt;n18</title>
<path fill="none" stroke="black" d="M365.59,-448.43C365.99,-439.9 366.52,-428.88 366.96,-419.42"/>
<polygon fill="black" stroke="black" points="368.7,-419.76 367.19,-414.68 365.2,-419.59 368.7,-419.76"/>
</g>
<!-- n19 -->
<g id="node20" class="node">
<title>n19</title>
<ellipse fill="none" stroke="black" cx="368.92" cy="-332.8" rx="41.01" ry="14.67"/>
<text text-anchor="start" x="347.92" y="-329.68" font-family="Menlo" font-size="10.00">literal</text>
</g>
<!-- n18&#45;&gt;n19 -->
<g id="edge12" class="edge">
<title>n18&#45;&gt;n19</title>
<path fill="none" stroke="black" d="M368.15,-383.09C368.28,-374.56 368.45,-363.53 368.6,-354.07"/>
<polygon fill="black" stroke="black" points="370.35,-354.36 368.68,-349.33 366.85,-354.31 370.35,-354.36"/>
</g>
<!-- n20 -->
<g id="node21" class="node">
<title>n20</title>
<ellipse fill="none" stroke="black" cx="370.92" cy="-267.46" rx="70.71" ry="14.67"/>
<text text-anchor="start" x="328.92" y="-264.33" font-family="Menlo" font-size="10.00">numericLiteral</text>
</g>
<!-- n19&#45;&gt;n20 -->
<g id="edge11" class="edge">
<title>n19&#45;&gt;n20</title>
<path fill="none" stroke="black" d="M369.37,-317.74C369.64,-309.21 369.99,-298.19 370.28,-288.73"/>
<polygon fill="black" stroke="black" points="372.02,-289.04 370.43,-283.99 368.53,-288.93 372.02,-289.04"/>
</g>
<!-- n21 -->
<g id="node22" class="node">
<title>n21</title>
<ellipse fill="none" stroke="black" cx="371.92" cy="-202.11" rx="96.17" ry="14.67"/>
<text text-anchor="start" x="311.92" y="-198.99" font-family="Menlo" font-size="10.00">signedIntegerLiteral</text>
</g>
<!-- n20&#45;&gt;n21 -->
<g id="edge10" class="edge">
<title>n20&#45;&gt;n21</title>
<path fill="none" stroke="black" d="M371.15,-252.4C371.28,-243.87 371.45,-232.84 371.6,-223.38"/>
<polygon fill="black" stroke="black" points="373.35,-223.67 371.68,-218.64 369.85,-223.62 373.35,-223.67"/>
</g>
<!-- n22 -->
<g id="node23" class="node">
<title>n22</title>
<ellipse fill="none" stroke="black" cx="364.92" cy="-136.77" rx="70.71" ry="14.67"/>
<text text-anchor="start" x="322.92" y="-133.64" font-family="Menlo" font-size="10.00">integerLiteral</text>
</g>
<!-- n21&#45;&gt;n22 -->
<g id="edge9" class="edge">
<title>n21&#45;&gt;n22</title>
<path fill="none" stroke="black" d="M370.37,-187.05C369.43,-178.52 368.21,-167.5 367.16,-158.04"/>
<polygon fill="black" stroke="black" points="368.93,-158.07 366.64,-153.29 365.45,-158.45 368.93,-158.07"/>
</g>
<!-- n23 -->
<g id="node24" class="node">
<title>n23</title>
<ellipse fill="none" stroke="black" cx="358.92" cy="-71.42" rx="70.71" ry="14.67"/>
<text text-anchor="start" x="316.92" y="-68.3" font-family="Menlo" font-size="10.00">decimalLiteral</text>
</g>
<!-- n22&#45;&gt;n23 -->
<g id="edge8" class="edge">
<title>n22&#45;&gt;n23</title>
<path fill="none" stroke="black" d="M363.59,-121.71C362.78,-113.18 361.74,-102.15 360.84,-92.69"/>
<polygon fill="black" stroke="black" points="362.61,-92.76 360.39,-87.95 359.12,-93.09 362.61,-92.76"/>
</g>
<!-- n23&#45;&gt;n24 -->
<g id="edge7" class="edge">
<title>n23&#45;&gt;n24</title>
<path fill="none" stroke="black" d="M350.39,-56.43C344.88,-47.39 337.72,-35.64 332.09,-26.4"/>
<polygon fill="black" stroke="black" points="333.69,-25.68 329.6,-22.32 330.7,-27.5 333.69,-25.68"/>
</g>
</g>
</svg>
