<?xml version="1.0" encoding="UTF-8" standalone="no"?>
<!DOCTYPE svg PUBLIC "-//W3C//DTD SVG 1.1//EN"
 "http://www.w3.org/Graphics/SVG/1.1/DTD/svg11.dtd">
<!-- Generated by graphviz version 9.0.0 (20230911.1827)
 -->
<!-- Title: Derivations Pages: 1 -->
<svg width="280pt" height="189pt"
 viewBox="0.00 0.00 280.00 188.78" xmlns="http://www.w3.org/2000/svg" xmlns:xlink="http://www.w3.org/1999/xlink">
<g id="graph0" class="graph" transform="scale(1 1) rotate(0) translate(4 184.78)">
<title>Derivations</title>
<polygon fill="white" stroke="none" points="-4,4 -4,-184.78 276,-184.78 276,4 -4,4"/>
<text text-anchor="start" x="67" y="-167.28" font-family="Menlo" font-size="10.00">S = &quot;&lt;&quot; &quot;s&quot; S &quot;&gt;&quot; | ε .</text>
<!-- n0 -->
<g id="node1" class="node">
<title>n0</title>
<ellipse fill="none" stroke="black" cx="113" cy="-145.36" rx="15.56" ry="14.67"/>
<text text-anchor="start" x="110" y="-142.24" font-family="Menlo" font-size="10.00">S</text>
</g>
<!-- n1 -->
<g id="node2" class="node">
<title>n1</title>
<polygon fill="none" stroke="black" points="22,-25.05 0,-25.05 0,-4.3 22,-4.3 22,-25.05"/>
<text text-anchor="start" x="8" y="-11.55" font-family="Menlo" font-size="10.00">&lt;</text>
</g>
<!-- n0&#45;&gt;n1 -->
<g id="edge1" class="edge">
<title>n0&#45;&gt;n1</title>
<path fill="none" stroke="black" d="M104.06,-133.35C95.93,-123.3 83.61,-108.04 73,-94.69 55.26,-72.37 34.89,-46.33 22.48,-30.42"/>
<polygon fill="black" stroke="black" points="23.98,-29.5 19.53,-26.63 21.22,-31.65 23.98,-29.5"/>
</g>
<!-- n2 -->
<g id="node3" class="node">
<title>n2</title>
<polygon fill="none" stroke="black" points="62,-25.05 40,-25.05 40,-4.3 62,-4.3 62,-25.05"/>
<text text-anchor="start" x="48" y="-11.55" font-family="Menlo" font-size="10.00">s</text>
</g>
<!-- n0&#45;&gt;n2 -->
<g id="edge2" class="edge">
<title>n0&#45;&gt;n2</title>
<path fill="none" stroke="black" d="M106.83,-131.55C95.37,-107.77 70.86,-56.9 58.48,-31.2"/>
<polygon fill="black" stroke="black" points="60.16,-30.65 56.41,-26.9 57,-32.16 60.16,-30.65"/>
</g>
<!-- n3 -->
<g id="node4" class="node">
<title>n3</title>
<ellipse fill="none" stroke="black" cx="136" cy="-80.02" rx="15.56" ry="14.67"/>
<text text-anchor="start" x="133" y="-76.89" font-family="Menlo" font-size="10.00">S</text>
</g>
<!-- n0&#45;&gt;n3 -->
<g id="edge7" class="edge">
<title>n0&#45;&gt;n3</title>
<path fill="none" stroke="black" d="M117.88,-130.93C121.11,-122.03 125.4,-110.21 129,-100.31"/>
<polygon fill="black" stroke="black" points="130.55,-101.15 130.61,-95.85 127.26,-99.96 130.55,-101.15"/>
</g>
<!-- n8 -->
<g id="node9" class="node">
<title>n8</title>
<polygon fill="none" stroke="black" points="272,-25.05 250,-25.05 250,-4.3 272,-4.3 272,-25.05"/>
<text text-anchor="start" x="258" y="-11.55" font-family="Menlo" font-size="10.00">&gt;</text>
</g>
<!-- n0&#45;&gt;n8 -->
<g id="edge8" class="edge">
<title>n0&#45;&gt;n8</title>
<path fill="none" stroke="black" d="M124.12,-134.69C150.05,-112.14 214.59,-56.03 244.85,-29.71"/>
<polygon fill="black" stroke="black" points="245.98,-31.05 248.6,-26.45 243.68,-28.41 245.98,-31.05"/>
</g>
<!-- n1&#45;&gt;n2 -->
<!-- n4 -->
<g id="node5" class="node">
<title>n4</title>
<polygon fill="none" stroke="black" points="102,-25.05 80,-25.05 80,-4.3 102,-4.3 102,-25.05"/>
<text text-anchor="start" x="88" y="-11.55" font-family="Menlo" font-size="10.00">&lt;</text>
</g>
<!-- n2&#45;&gt;n4 -->
<!-- n3&#45;&gt;n4 -->
<g id="edge3" class="edge">
<title>n3&#45;&gt;n4</title>
<path fill="none" stroke="black" d="M127.75,-67.4C120.33,-56.96 109.41,-41.59 101.4,-30.32"/>
<polygon fill="black" stroke="black" points="102.93,-29.45 98.61,-26.39 100.08,-31.48 102.93,-29.45"/>
</g>
<!-- n5 -->
<g id="node6" class="node">
<title>n5</title>
<polygon fill="none" stroke="black" points="192,-25.05 170,-25.05 170,-4.3 192,-4.3 192,-25.05"/>
<text text-anchor="start" x="178" y="-11.55" font-family="Menlo" font-size="10.00">s</text>
</g>
<!-- n3&#45;&gt;n5 -->
<g id="edge4" class="edge">
<title>n3&#45;&gt;n5</title>
<path fill="none" stroke="black" d="M144.25,-67.4C151.67,-56.96 162.59,-41.59 170.6,-30.32"/>
<polygon fill="black" stroke="black" points="171.92,-31.48 173.39,-26.39 169.07,-29.45 171.92,-31.48"/>
</g>
<!-- n6 -->
<g id="node7" class="node">
<title>n6</title>
<ellipse fill="none" stroke="black" cx="136" cy="-14.67" rx="15.56" ry="14.67"/>
<text text-anchor="start" x="133" y="-11.55" font-family="Menlo" font-size="10.00">S</text>
</g>
<!-- n3&#45;&gt;n6 -->
<g id="edge5" class="edge">
<title>n3&#45;&gt;n6</title>
<path fill="none" stroke="black" d="M136,-64.96C136,-56.43 136,-45.4 136,-35.94"/>
<polygon fill="black" stroke="black" points="137.75,-36.2 136,-31.21 134.25,-36.21 137.75,-36.2"/>
</g>
<!-- n7 -->
<g id="node8" class="node">
<title>n7</title>
<polygon fill="none" stroke="black" points="232,-25.05 210,-25.05 210,-4.3 232,-4.3 232,-25.05"/>
<text text-anchor="start" x="218" y="-11.55" font-family="Menlo" font-size="10.00">&gt;</text>
</g>
<!-- n3&#45;&gt;n7 -->
<g id="edge6" class="edge">
<title>n3&#45;&gt;n7</title>
<path fill="none" stroke="black" d="M147.82,-70.21C162.62,-59.18 188.05,-40.23 204.69,-27.83"/>
<polygon fill="black" stroke="black" points="205.38,-29.5 208.34,-25.11 203.28,-26.69 205.38,-29.5"/>
</g>
<!-- n4&#45;&gt;n5 -->
<!-- n5&#45;&gt;n7 -->
<!-- n7&#45;&gt;n8 -->
</g>
</svg>
