<?xml version="1.0" encoding="UTF-8" standalone="no"?>
<!DOCTYPE svg PUBLIC "-//W3C//DTD SVG 1.1//EN"
 "http://www.w3.org/Graphics/SVG/1.1/DTD/svg11.dtd">
<!-- Generated by graphviz version 9.0.0 (20230911.1827)
 -->
<!-- Title: Derivations Pages: 1 -->
<svg width="594pt" height="1291pt"
 viewBox="0.00 0.00 593.74 1291.05" xmlns="http://www.w3.org/2000/svg" xmlns:xlink="http://www.w3.org/1999/xlink">
<g id="graph0" class="graph" transform="scale(1 1) rotate(0) translate(4 1287.05)">
<title>Derivations</title>
<polygon fill="white" stroke="none" points="-4,4 -4,-1287.05 589.74,-1287.05 589.74,4 -4,4"/>
<text text-anchor="start" x="178.87" y="-1269.55" font-family="Menlo" font-size="10.00">topLevelDeclaration = [ statements ] .</text>
<!-- n0 -->
<g id="node1" class="node">
<title>n0</title>
<ellipse fill="none" stroke="black" cx="154.74" cy="-1247.63" rx="91.92" ry="14.67"/>
<text text-anchor="start" x="97.74" y="-1244.51" font-family="Menlo" font-size="10.00">topLevelDeclaration</text>
</g>
<!-- n1 -->
<g id="node2" class="node">
<title>n1</title>
<ellipse fill="none" stroke="black" cx="154.74" cy="-1182.29" rx="53.74" ry="14.67"/>
<text text-anchor="start" x="124.74" y="-1179.16" font-family="Menlo" font-size="10.00">statements</text>
</g>
<!-- n0&#45;&gt;n1 -->
<g id="edge28" class="edge">
<title>n0&#45;&gt;n1</title>
<path fill="none" stroke="black" d="M154.74,-1232.57C154.74,-1224.04 154.74,-1213.02 154.74,-1203.55"/>
<polygon fill="black" stroke="black" points="156.49,-1203.82 154.74,-1198.82 152.99,-1203.82 156.49,-1203.82"/>
</g>
<!-- n2 -->
<g id="node3" class="node">
<title>n2</title>
<ellipse fill="none" stroke="black" cx="154.74" cy="-1116.94" rx="49.5" ry="14.67"/>
<text text-anchor="start" x="127.74" y="-1113.82" font-family="Menlo" font-size="10.00">statement</text>
</g>
<!-- n1&#45;&gt;n2 -->
<g id="edge27" class="edge">
<title>n1&#45;&gt;n2</title>
<path fill="none" stroke="black" d="M154.74,-1167.23C154.74,-1158.7 154.74,-1147.67 154.74,-1138.21"/>
<polygon fill="black" stroke="black" points="156.49,-1138.47 154.74,-1133.47 152.99,-1138.47 156.49,-1138.47"/>
</g>
<!-- n3 -->
<g id="node4" class="node">
<title>n3</title>
<ellipse fill="none" stroke="black" cx="154.74" cy="-1051.6" rx="53.74" ry="14.67"/>
<text text-anchor="start" x="124.74" y="-1048.47" font-family="Menlo" font-size="10.00">expression</text>
</g>
<!-- n2&#45;&gt;n3 -->
<g id="edge26" class="edge">
<title>n2&#45;&gt;n3</title>
<path fill="none" stroke="black" d="M154.74,-1101.88C154.74,-1093.35 154.74,-1082.33 154.74,-1072.87"/>
<polygon fill="black" stroke="black" points="156.49,-1073.13 154.74,-1068.13 152.99,-1073.13 156.49,-1073.13"/>
</g>
<!-- n4 -->
<g id="node5" class="node">
<title>n4</title>
<ellipse fill="none" stroke="black" cx="154.74" cy="-986.25" rx="79.2" ry="14.67"/>
<text text-anchor="start" x="106.74" y="-983.13" font-family="Menlo" font-size="10.00">prefixExpression</text>
</g>
<!-- n3&#45;&gt;n4 -->
<g id="edge25" class="edge">
<title>n3&#45;&gt;n4</title>
<path fill="none" stroke="black" d="M154.74,-1036.54C154.74,-1028.01 154.74,-1016.98 154.74,-1007.52"/>
<polygon fill="black" stroke="black" points="156.49,-1007.78 154.74,-1002.78 152.99,-1007.78 156.49,-1007.78"/>
</g>
<!-- n5 -->
<g id="node6" class="node">
<title>n5</title>
<ellipse fill="none" stroke="black" cx="154.74" cy="-920.91" rx="83.44" ry="14.67"/>
<text text-anchor="start" x="103.74" y="-917.78" font-family="Menlo" font-size="10.00">postfixExpression</text>
</g>
<!-- n4&#45;&gt;n5 -->
<g id="edge24" class="edge">
<title>n4&#45;&gt;n5</title>
<path fill="none" stroke="black" d="M154.74,-971.19C154.74,-962.66 154.74,-951.64 154.74,-942.18"/>
<polygon fill="black" stroke="black" points="156.49,-942.44 154.74,-937.44 152.99,-942.44 156.49,-942.44"/>
</g>
<!-- n6 -->
<g id="node7" class="node">
<title>n6</title>
<ellipse fill="none" stroke="black" cx="154.74" cy="-855.56" rx="83.44" ry="14.67"/>
<text text-anchor="start" x="103.74" y="-852.44" font-family="Menlo" font-size="10.00">primaryExpression</text>
</g>
<!-- n5&#45;&gt;n6 -->
<g id="edge23" class="edge">
<title>n5&#45;&gt;n6</title>
<path fill="none" stroke="black" d="M154.74,-905.85C154.74,-897.32 154.74,-886.29 154.74,-876.83"/>
<polygon fill="black" stroke="black" points="156.49,-877.09 154.74,-872.09 152.99,-877.09 156.49,-877.09"/>
</g>
<!-- n7 -->
<g id="node8" class="node">
<title>n7</title>
<ellipse fill="none" stroke="black" cx="53.74" cy="-724.87" rx="53.74" ry="14.67"/>
<text text-anchor="start" x="23.74" y="-721.75" font-family="Menlo" font-size="10.00">identifier</text>
</g>
<!-- n6&#45;&gt;n7 -->
<g id="edge2" class="edge">
<title>n6&#45;&gt;n7</title>
<path fill="none" stroke="black" d="M143.93,-840.79C125.71,-817.57 88.85,-770.61 68.34,-744.48"/>
<polygon fill="black" stroke="black" points="69.87,-743.59 65.41,-740.74 67.12,-745.75 69.87,-743.59"/>
</g>
<!-- n9 -->
<g id="node10" class="node">
<title>n9</title>
<ellipse fill="none" stroke="black" cx="236.74" cy="-790.22" rx="100.41" ry="14.67"/>
<text text-anchor="start" x="173.74" y="-787.09" font-family="Menlo" font-size="10.00">genericArgumentClause</text>
</g>
<!-- n6&#45;&gt;n9 -->
<g id="edge22" class="edge">
<title>n6&#45;&gt;n9</title>
<path fill="none" stroke="black" d="M172.53,-840.82C184.68,-831.44 200.87,-818.93 213.95,-808.82"/>
<polygon fill="black" stroke="black" points="214.9,-810.3 217.78,-805.86 212.76,-807.53 214.9,-810.3"/>
</g>
<!-- n8 -->
<g id="node9" class="node">
<title>n8</title>
<polygon fill="none" stroke="black" points="99.74,-20.75 53.74,-20.75 53.74,0 99.74,0 99.74,-20.75"/>
<text text-anchor="start" x="61.74" y="-7.25" font-family="Menlo" font-size="10.00">Array</text>
</g>
<!-- n7&#45;&gt;n8 -->
<g id="edge1" class="edge">
<title>n7&#45;&gt;n8</title>
<path fill="none" stroke="black" d="M55.17,-709.99C57.47,-686.41 61.74,-637.04 61.74,-595.18 61.74,-595.18 61.74,-595.18 61.74,-135.77 61.74,-96.57 69.17,-50.92 73.57,-27.32"/>
<polygon fill="black" stroke="black" points="75.28,-27.73 74.5,-22.49 71.84,-27.08 75.28,-27.73"/>
</g>
<!-- n10 -->
<g id="node11" class="node">
<title>n10</title>
<polygon fill="none" stroke="black" points="146.74,-20.75 124.74,-20.75 124.74,0 146.74,0 146.74,-20.75"/>
<text text-anchor="start" x="132.74" y="-7.25" font-family="Menlo" font-size="10.00">&lt;</text>
</g>
<!-- n8&#45;&gt;n10 -->
<!-- n9&#45;&gt;n10 -->
<g id="edge3" class="edge">
<title>n9&#45;&gt;n10</title>
<path fill="none" stroke="black" d="M202.71,-776.11C185.91,-767.99 166.72,-755.94 154.74,-739.54 133.43,-710.38 135.74,-696.65 135.74,-660.53 135.74,-660.53 135.74,-660.53 135.74,-135.77 135.74,-96.85 135.74,-51.08 135.74,-27.39"/>
<polygon fill="black" stroke="black" points="137.49,-27.57 135.74,-22.57 133.99,-27.57 137.49,-27.57"/>
</g>
<!-- n11 -->
<g id="node12" class="node">
<title>n11</title>
<ellipse fill="none" stroke="black" cx="255.74" cy="-724.87" rx="91.92" ry="14.67"/>
<text text-anchor="start" x="198.74" y="-721.75" font-family="Menlo" font-size="10.00">genericArgumentList</text>
</g>
<!-- n9&#45;&gt;n11 -->
<g id="edge20" class="edge">
<title>n9&#45;&gt;n11</title>
<path fill="none" stroke="black" d="M240.96,-775.16C243.54,-766.55 246.89,-755.39 249.74,-745.87"/>
<polygon fill="black" stroke="black" points="251.34,-746.63 251.1,-741.34 247.99,-745.63 251.34,-746.63"/>
</g>
<!-- n28 -->
<g id="node29" class="node">
<title>n28</title>
<polygon fill="none" stroke="black" points="585.74,-20.75 563.74,-20.75 563.74,0 585.74,0 585.74,-20.75"/>
<text text-anchor="start" x="571.74" y="-7.25" font-family="Menlo" font-size="10.00">&gt;</text>
</g>
<!-- n9&#45;&gt;n28 -->
<g id="edge21" class="edge">
<title>n9&#45;&gt;n28</title>
<path fill="none" stroke="black" d="M300.88,-778.52C399.66,-760.2 577.74,-719.06 577.74,-660.53 577.74,-660.53 577.74,-660.53 577.74,-135.77 577.74,-96.84 576.25,-51.08 575.37,-27.39"/>
<polygon fill="black" stroke="black" points="577.13,-27.49 575.19,-22.56 573.63,-27.63 577.13,-27.49"/>
</g>
<!-- n17 -->
<g id="node18" class="node">
<title>n17</title>
<polygon fill="none" stroke="black" points="255.74,-20.75 209.74,-20.75 209.74,0 255.74,0 255.74,-20.75"/>
<text text-anchor="start" x="217.74" y="-7.25" font-family="Menlo" font-size="10.00">Array</text>
</g>
<!-- n10&#45;&gt;n17 -->
<!-- n12 -->
<g id="node13" class="node">
<title>n12</title>
<ellipse fill="none" stroke="black" cx="255.74" cy="-659.53" rx="74.95" ry="14.67"/>
<text text-anchor="start" x="210.74" y="-656.4" font-family="Menlo" font-size="10.00">genericArgument</text>
</g>
<!-- n11&#45;&gt;n12 -->
<g id="edge19" class="edge">
<title>n11&#45;&gt;n12</title>
<path fill="none" stroke="black" d="M255.74,-709.81C255.74,-701.28 255.74,-690.26 255.74,-680.8"/>
<polygon fill="black" stroke="black" points="257.49,-681.06 255.74,-676.06 253.99,-681.06 257.49,-681.06"/>
</g>
<!-- n13 -->
<g id="node14" class="node">
<title>n13</title>
<ellipse fill="none" stroke="black" cx="255.74" cy="-594.18" rx="28.28" ry="14.67"/>
<text text-anchor="start" x="243.74" y="-591.06" font-family="Menlo" font-size="10.00">type</text>
</g>
<!-- n12&#45;&gt;n13 -->
<g id="edge18" class="edge">
<title>n12&#45;&gt;n13</title>
<path fill="none" stroke="black" d="M255.74,-644.47C255.74,-635.94 255.74,-624.91 255.74,-615.45"/>
<polygon fill="black" stroke="black" points="257.49,-615.71 255.74,-610.71 253.99,-615.71 257.49,-615.71"/>
</g>
<!-- n14 -->
<g id="node15" class="node">
<title>n14</title>
<ellipse fill="none" stroke="black" cx="255.74" cy="-528.84" rx="70.71" ry="14.67"/>
<text text-anchor="start" x="213.74" y="-525.71" font-family="Menlo" font-size="10.00">typeIdentifier</text>
</g>
<!-- n13&#45;&gt;n14 -->
<g id="edge17" class="edge">
<title>n13&#45;&gt;n14</title>
<path fill="none" stroke="black" d="M255.74,-579.12C255.74,-570.59 255.74,-559.57 255.74,-550.11"/>
<polygon fill="black" stroke="black" points="257.49,-550.37 255.74,-545.37 253.99,-550.37 257.49,-550.37"/>
</g>
<!-- n15 -->
<g id="node16" class="node">
<title>n15</title>
<ellipse fill="none" stroke="black" cx="241.74" cy="-463.49" rx="45.25" ry="14.67"/>
<text text-anchor="start" x="217.74" y="-460.37" font-family="Menlo" font-size="10.00">typeName</text>
</g>
<!-- n14&#45;&gt;n15 -->
<g id="edge6" class="edge">
<title>n14&#45;&gt;n15</title>
<path fill="none" stroke="black" d="M252.63,-513.78C250.75,-505.25 248.31,-494.22 246.22,-484.76"/>
<polygon fill="black" stroke="black" points="247.95,-484.49 245.17,-479.99 244.54,-485.25 247.95,-484.49"/>
</g>
<!-- n18 -->
<g id="node19" class="node">
<title>n18</title>
<ellipse fill="none" stroke="black" cx="410.74" cy="-463.49" rx="100.41" ry="14.67"/>
<text text-anchor="start" x="347.74" y="-460.37" font-family="Menlo" font-size="10.00">genericArgumentClause</text>
</g>
<!-- n14&#45;&gt;n18 -->
<g id="edge16" class="edge">
<title>n14&#45;&gt;n18</title>
<path fill="none" stroke="black" d="M286.36,-515.32C311.05,-505.23 345.91,-490.99 372.44,-480.14"/>
<polygon fill="black" stroke="black" points="372.94,-481.83 376.91,-478.32 371.62,-478.59 372.94,-481.83"/>
</g>
<!-- n16 -->
<g id="node17" class="node">
<title>n16</title>
<ellipse fill="none" stroke="black" cx="217.74" cy="-332.8" rx="53.74" ry="14.67"/>
<text text-anchor="start" x="187.74" y="-329.68" font-family="Menlo" font-size="10.00">identifier</text>
</g>
<!-- n15&#45;&gt;n16 -->
<g id="edge5" class="edge">
<title>n15&#45;&gt;n16</title>
<path fill="none" stroke="black" d="M239.17,-448.72C234.94,-426.01 226.46,-380.58 221.53,-354.15"/>
<polygon fill="black" stroke="black" points="223.28,-353.95 220.64,-349.35 219.84,-354.59 223.28,-353.95"/>
</g>
<!-- n16&#45;&gt;n17 -->
<g id="edge4" class="edge">
<title>n16&#45;&gt;n17</title>
<path fill="none" stroke="black" d="M219.17,-317.92C221.47,-294.34 225.74,-244.97 225.74,-203.11 225.74,-203.11 225.74,-203.11 225.74,-135.77 225.74,-96.79 229.21,-51.05 231.26,-27.38"/>
<polygon fill="black" stroke="black" points="232.99,-27.68 231.69,-22.55 229.51,-27.38 232.99,-27.68"/>
</g>
<!-- n19 -->
<g id="node20" class="node">
<title>n19</title>
<polygon fill="none" stroke="black" points="295.74,-20.75 273.74,-20.75 273.74,0 295.74,0 295.74,-20.75"/>
<text text-anchor="start" x="281.74" y="-7.25" font-family="Menlo" font-size="10.00">&lt;</text>
</g>
<!-- n17&#45;&gt;n19 -->
<!-- n18&#45;&gt;n19 -->
<g id="edge7" class="edge">
<title>n18&#45;&gt;n19</title>
<path fill="none" stroke="black" d="M371.21,-449.75C352.72,-441.88 331.91,-429.94 318.74,-412.82 296.71,-384.19 299.74,-369.92 299.74,-333.8 299.74,-333.8 299.74,-333.8 299.74,-135.77 299.74,-96.57 292.31,-50.92 287.91,-27.32"/>
<polygon fill="black" stroke="black" points="289.64,-27.08 286.98,-22.49 286.2,-27.73 289.64,-27.08"/>
</g>
<!-- n20 -->
<g id="node21" class="node">
<title>n20</title>
<ellipse fill="none" stroke="black" cx="419.74" cy="-398.15" rx="91.92" ry="14.67"/>
<text text-anchor="start" x="362.74" y="-395.02" font-family="Menlo" font-size="10.00">genericArgumentList</text>
</g>
<!-- n18&#45;&gt;n20 -->
<g id="edge14" class="edge">
<title>n18&#45;&gt;n20</title>
<path fill="none" stroke="black" d="M412.74,-448.43C413.95,-439.9 415.52,-428.88 416.86,-419.42"/>
<polygon fill="black" stroke="black" points="418.56,-419.86 417.54,-414.66 415.1,-419.37 418.56,-419.86"/>
</g>
<!-- n27 -->
<g id="node28" class="node">
<title>n27</title>
<polygon fill="none" stroke="black" points="538.74,-20.75 516.74,-20.75 516.74,0 538.74,0 538.74,-20.75"/>
<text text-anchor="start" x="524.74" y="-7.25" font-family="Menlo" font-size="10.00">&gt;</text>
</g>
<!-- n18&#45;&gt;n27 -->
<g id="edge15" class="edge">
<title>n18&#45;&gt;n27</title>
<path fill="none" stroke="black" d="M461.23,-450.39C482.44,-442.88 505.64,-431.06 520.74,-412.82 543.77,-384.99 539.74,-369.92 539.74,-333.8 539.74,-333.8 539.74,-333.8 539.74,-135.77 539.74,-96.67 533.79,-50.97 530.27,-27.35"/>
<polygon fill="black" stroke="black" points="532.02,-27.2 529.54,-22.52 528.56,-27.72 532.02,-27.2"/>
</g>
<!-- n26 -->
<g id="node27" class="node">
<title>n26</title>
<polygon fill="none" stroke="black" points="498.74,-20.75 464.74,-20.75 464.74,0 498.74,0 498.74,-20.75"/>
<text text-anchor="start" x="472.74" y="-7.25" font-family="Menlo" font-size="10.00">Int</text>
</g>
<!-- n19&#45;&gt;n26 -->
<!-- n21 -->
<g id="node22" class="node">
<title>n21</title>
<ellipse fill="none" stroke="black" cx="428.74" cy="-332.8" rx="74.95" ry="14.67"/>
<text text-anchor="start" x="383.74" y="-329.68" font-family="Menlo" font-size="10.00">genericArgument</text>
</g>
<!-- n20&#45;&gt;n21 -->
<g id="edge13" class="edge">
<title>n20&#45;&gt;n21</title>
<path fill="none" stroke="black" d="M421.74,-383.09C422.95,-374.56 424.52,-363.53 425.86,-354.07"/>
<polygon fill="black" stroke="black" points="427.56,-354.52 426.54,-349.32 424.1,-354.02 427.56,-354.52"/>
</g>
<!-- n22 -->
<g id="node23" class="node">
<title>n22</title>
<ellipse fill="none" stroke="black" cx="431.74" cy="-267.46" rx="28.28" ry="14.67"/>
<text text-anchor="start" x="419.74" y="-264.33" font-family="Menlo" font-size="10.00">type</text>
</g>
<!-- n21&#45;&gt;n22 -->
<g id="edge12" class="edge">
<title>n21&#45;&gt;n22</title>
<path fill="none" stroke="black" d="M429.41,-317.74C429.81,-309.21 430.33,-298.19 430.78,-288.73"/>
<polygon fill="black" stroke="black" points="432.52,-289.07 431,-283.99 429.02,-288.9 432.52,-289.07"/>
</g>
<!-- n23 -->
<g id="node24" class="node">
<title>n23</title>
<ellipse fill="none" stroke="black" cx="437.74" cy="-202.11" rx="70.71" ry="14.67"/>
<text text-anchor="start" x="395.74" y="-198.99" font-family="Menlo" font-size="10.00">typeIdentifier</text>
</g>
<!-- n22&#45;&gt;n23 -->
<g id="edge11" class="edge">
<title>n22&#45;&gt;n23</title>
<path fill="none" stroke="black" d="M433.07,-252.4C433.88,-243.87 434.92,-232.84 435.82,-223.38"/>
<polygon fill="black" stroke="black" points="437.54,-223.78 436.27,-218.64 434.06,-223.45 437.54,-223.78"/>
</g>
<!-- n24 -->
<g id="node25" class="node">
<title>n24</title>
<ellipse fill="none" stroke="black" cx="439.74" cy="-136.77" rx="45.25" ry="14.67"/>
<text text-anchor="start" x="415.74" y="-133.64" font-family="Menlo" font-size="10.00">typeName</text>
</g>
<!-- n23&#45;&gt;n24 -->
<g id="edge10" class="edge">
<title>n23&#45;&gt;n24</title>
<path fill="none" stroke="black" d="M438.18,-187.05C438.45,-178.52 438.8,-167.5 439.1,-158.04"/>
<polygon fill="black" stroke="black" points="440.84,-158.35 439.25,-153.3 437.34,-158.24 440.84,-158.35"/>
</g>
<!-- n25 -->
<g id="node26" class="node">
<title>n25</title>
<ellipse fill="none" stroke="black" cx="450.74" cy="-71.42" rx="53.74" ry="14.67"/>
<text text-anchor="start" x="420.74" y="-68.3" font-family="Menlo" font-size="10.00">identifier</text>
</g>
<!-- n24&#45;&gt;n25 -->
<g id="edge9" class="edge">
<title>n24&#45;&gt;n25</title>
<path fill="none" stroke="black" d="M442.18,-121.71C443.66,-113.18 445.58,-102.15 447.22,-92.69"/>
<polygon fill="black" stroke="black" points="448.92,-93.16 448.05,-87.93 445.47,-92.56 448.92,-93.16"/>
</g>
<!-- n25&#45;&gt;n26 -->
<g id="edge8" class="edge">
<title>n25&#45;&gt;n26</title>
<path fill="none" stroke="black" d="M458.09,-56.43C462.79,-47.48 468.88,-35.86 473.71,-26.67"/>
<polygon fill="black" stroke="black" points="475.19,-27.61 475.97,-22.37 472.1,-25.98 475.19,-27.61"/>
</g>
<!-- n26&#45;&gt;n27 -->
<!-- n27&#45;&gt;n28 -->
</g>
</svg>
