<?xml version="1.0" encoding="UTF-8" standalone="no"?>
<!DOCTYPE svg PUBLIC "-//W3C//DTD SVG 1.1//EN"
 "http://www.w3.org/Graphics/SVG/1.1/DTD/svg11.dtd">
<!-- Generated by graphviz version 9.0.0 (20230911.1827)
 -->
<!-- Title: Derivations Pages: 1 -->
<svg width="673pt" height="572pt"
 viewBox="0.00 0.00 673.00 572.26" xmlns="http://www.w3.org/2000/svg" xmlns:xlink="http://www.w3.org/1999/xlink">
<g id="graph0" class="graph" transform="scale(1 1) rotate(0) translate(4 568.26)">
<title>Derivations</title>
<polygon fill="white" stroke="none" points="-4,4 -4,-568.26 669,-568.26 669,4 -4,4"/>
<text text-anchor="start" x="182.5" y="-550.76" font-family="Menlo" font-size="10.00">production = &quot;identifier&quot; &quot;&quot;:&#45;&quot;&quot; selection &quot;&quot;.&quot;&quot; .</text>
<!-- n0 -->
<g id="node1" class="node">
<title>n0</title>
<ellipse fill="none" stroke="black" cx="187" cy="-528.84" rx="53.74" ry="14.67"/>
<text text-anchor="start" x="157" y="-525.71" font-family="Menlo" font-size="10.00">production</text>
</g>
<!-- n1 -->
<g id="node2" class="node">
<title>n1</title>
<polygon fill="none" stroke="black" points="58,-20.75 0,-20.75 0,0 58,0 58,-20.75"/>
<text text-anchor="start" x="8" y="-7.25" font-family="Menlo" font-size="10.00">comment</text>
</g>
<!-- n0&#45;&gt;n1 -->
<g id="edge1" class="edge">
<title>n0&#45;&gt;n1</title>
<path fill="none" stroke="black" d="M155.25,-516.6C111.76,-498.94 39,-460.27 39,-399.15 39,-399.15 39,-399.15 39,-135.77 39,-96.72 34.04,-51.01 31.11,-27.36"/>
<polygon fill="black" stroke="black" points="32.86,-27.27 30.5,-22.53 29.39,-27.71 32.86,-27.27"/>
</g>
<!-- n2 -->
<g id="node3" class="node">
<title>n2</title>
<polygon fill="none" stroke="black" points="104,-20.75 76,-20.75 76,0 104,0 104,-20.75"/>
<text text-anchor="start" x="84" y="-7.25" font-family="Menlo" font-size="10.00">:&#45;</text>
</g>
<!-- n0&#45;&gt;n2 -->
<g id="edge2" class="edge">
<title>n0&#45;&gt;n2</title>
<path fill="none" stroke="black" d="M167.24,-515.04C138.1,-494.44 87,-450.93 87,-399.15 87,-399.15 87,-399.15 87,-135.77 87,-96.84 88.49,-51.08 89.37,-27.39"/>
<polygon fill="black" stroke="black" points="91.11,-27.63 89.55,-22.56 87.61,-27.49 91.11,-27.63"/>
</g>
<!-- n3 -->
<g id="node4" class="node">
<title>n3</title>
<ellipse fill="none" stroke="black" cx="199" cy="-463.49" rx="49.5" ry="14.67"/>
<text text-anchor="start" x="172" y="-460.37" font-family="Menlo" font-size="10.00">selection</text>
</g>
<!-- n0&#45;&gt;n3 -->
<g id="edge23" class="edge">
<title>n0&#45;&gt;n3</title>
<path fill="none" stroke="black" d="M189.66,-513.78C191.28,-505.25 193.37,-494.22 195.16,-484.76"/>
<polygon fill="black" stroke="black" points="196.85,-485.24 196.06,-480 193.41,-484.59 196.85,-485.24"/>
</g>
<!-- n24 -->
<g id="node25" class="node">
<title>n24</title>
<polygon fill="none" stroke="black" points="664,-20.75 642,-20.75 642,0 664,0 664,-20.75"/>
<text text-anchor="start" x="650" y="-7.25" font-family="Menlo" font-size="10.00">.</text>
</g>
<!-- n0&#45;&gt;n24 -->
<g id="edge24" class="edge">
<title>n0&#45;&gt;n24</title>
<path fill="none" stroke="black" d="M239.06,-524.85C362.95,-516.33 665,-486.59 665,-399.15 665,-399.15 665,-399.15 665,-135.77 665,-96.67 659.05,-50.97 655.53,-27.35"/>
<polygon fill="black" stroke="black" points="657.28,-27.2 654.8,-22.52 653.82,-27.72 657.28,-27.2"/>
</g>
<!-- n1&#45;&gt;n2 -->
<!-- n7 -->
<g id="node8" class="node">
<title>n7</title>
<polygon fill="none" stroke="black" points="162,-20.75 122,-20.75 122,0 162,0 162,-20.75"/>
<text text-anchor="start" x="130" y="-7.25" font-family="Menlo" font-size="10.00">&quot;/*&quot;</text>
</g>
<!-- n2&#45;&gt;n7 -->
<!-- n4 -->
<g id="node5" class="node">
<title>n4</title>
<ellipse fill="none" stroke="black" cx="249" cy="-398.15" rx="45.25" ry="14.67"/>
<text text-anchor="start" x="225" y="-395.02" font-family="Menlo" font-size="10.00">sequence</text>
</g>
<!-- n3&#45;&gt;n4 -->
<g id="edge22" class="edge">
<title>n3&#45;&gt;n4</title>
<path fill="none" stroke="black" d="M209.85,-448.75C216.99,-439.7 226.43,-427.74 234.25,-417.83"/>
<polygon fill="black" stroke="black" points="235.51,-419.06 237.23,-414.05 232.76,-416.89 235.51,-419.06"/>
</g>
<!-- n5 -->
<g id="node6" class="node">
<title>n5</title>
<ellipse fill="none" stroke="black" cx="203" cy="-332.8" rx="36.77" ry="14.67"/>
<text text-anchor="start" x="185" y="-329.68" font-family="Menlo" font-size="10.00">factor</text>
</g>
<!-- n4&#45;&gt;n5 -->
<g id="edge5" class="edge">
<title>n4&#45;&gt;n5</title>
<path fill="none" stroke="black" d="M239.02,-383.4C232.36,-374.23 223.53,-362.07 216.27,-352.08"/>
<polygon fill="black" stroke="black" points="217.89,-351.33 213.54,-348.31 215.06,-353.38 217.89,-351.33"/>
</g>
<!-- n8 -->
<g id="node9" class="node">
<title>n8</title>
<ellipse fill="none" stroke="black" cx="343" cy="-332.8" rx="36.77" ry="14.67"/>
<text text-anchor="start" x="325" y="-329.68" font-family="Menlo" font-size="10.00">factor</text>
</g>
<!-- n4&#45;&gt;n8 -->
<g id="edge18" class="edge">
<title>n4&#45;&gt;n8</title>
<path fill="none" stroke="black" d="M267.57,-384.63C282.57,-374.53 303.75,-360.25 319.86,-349.4"/>
<polygon fill="black" stroke="black" points="320.68,-350.95 323.85,-346.71 318.73,-348.05 320.68,-350.95"/>
</g>
<!-- n21 -->
<g id="node22" class="node">
<title>n21</title>
<ellipse fill="none" stroke="black" cx="535" cy="-332.8" rx="36.77" ry="14.67"/>
<text text-anchor="start" x="517" y="-329.68" font-family="Menlo" font-size="10.00">factor</text>
</g>
<!-- n4&#45;&gt;n21 -->
<g id="edge21" class="edge">
<title>n4&#45;&gt;n21</title>
<path fill="none" stroke="black" d="M285.51,-389.06C340.03,-376.98 442.2,-354.36 497.36,-342.14"/>
<polygon fill="black" stroke="black" points="497.55,-343.89 502.05,-341.1 496.79,-340.47 497.55,-343.89"/>
</g>
<!-- n6 -->
<g id="node7" class="node">
<title>n6</title>
<ellipse fill="none" stroke="black" cx="160" cy="-202.11" rx="45.25" ry="14.67"/>
<text text-anchor="start" x="136" y="-198.99" font-family="Menlo" font-size="10.00">terminal</text>
</g>
<!-- n5&#45;&gt;n6 -->
<g id="edge4" class="edge">
<title>n5&#45;&gt;n6</title>
<path fill="none" stroke="black" d="M198.4,-318.03C190.78,-295.22 175.5,-249.5 166.69,-223.12"/>
<polygon fill="black" stroke="black" points="168.42,-222.8 165.18,-218.61 165.1,-223.91 168.42,-222.8"/>
</g>
<!-- n6&#45;&gt;n7 -->
<g id="edge3" class="edge">
<title>n6&#45;&gt;n7</title>
<path fill="none" stroke="black" d="M158.68,-187.16C155.41,-152.68 146.95,-63.6 143.5,-27.22"/>
<polygon fill="black" stroke="black" points="145.28,-27.38 143.06,-22.57 141.79,-27.71 145.28,-27.38"/>
</g>
<!-- n9 -->
<g id="node10" class="node">
<title>n9</title>
<polygon fill="none" stroke="black" points="202,-20.75 180,-20.75 180,0 202,0 202,-20.75"/>
<text text-anchor="start" x="188" y="-7.25" font-family="Menlo" font-size="10.00">{</text>
</g>
<!-- n7&#45;&gt;n9 -->
<!-- n8&#45;&gt;n9 -->
<g id="edge6" class="edge">
<title>n8&#45;&gt;n9</title>
<path fill="none" stroke="black" d="M322.57,-320.3C290.76,-300.71 233,-257.63 233,-203.11 233,-203.11 233,-203.11 233,-135.77 233,-94.55 212.04,-49.49 199.74,-26.59"/>
<polygon fill="black" stroke="black" points="201.33,-25.86 197.39,-22.32 198.27,-27.55 201.33,-25.86"/>
</g>
<!-- n10 -->
<g id="node11" class="node">
<title>n10</title>
<ellipse fill="none" stroke="black" cx="355" cy="-267.46" rx="49.5" ry="14.67"/>
<text text-anchor="start" x="328" y="-264.33" font-family="Menlo" font-size="10.00">selection</text>
</g>
<!-- n8&#45;&gt;n10 -->
<g id="edge16" class="edge">
<title>n8&#45;&gt;n10</title>
<path fill="none" stroke="black" d="M345.66,-317.74C347.28,-309.21 349.37,-298.19 351.16,-288.73"/>
<polygon fill="black" stroke="black" points="352.85,-289.2 352.06,-283.96 349.41,-288.55 352.85,-289.2"/>
</g>
<!-- n20 -->
<g id="node21" class="node">
<title>n20</title>
<polygon fill="none" stroke="black" points="548,-20.75 526,-20.75 526,0 548,0 548,-20.75"/>
<text text-anchor="start" x="534" y="-7.25" font-family="Menlo" font-size="10.00">}</text>
</g>
<!-- n8&#45;&gt;n20 -->
<g id="edge17" class="edge">
<title>n8&#45;&gt;n20</title>
<path fill="none" stroke="black" d="M368.29,-321.71C405.22,-305.54 473.07,-270.13 506,-216.78 544.17,-154.96 541.46,-63.23 538.58,-26.95"/>
<polygon fill="black" stroke="black" points="540.35,-27.18 538.18,-22.35 536.86,-27.49 540.35,-27.18"/>
</g>
<!-- n14 -->
<g id="node15" class="node">
<title>n14</title>
<polygon fill="none" stroke="black" points="392,-20.75 220,-20.75 220,0 392,0 392,-20.75"/>
<text text-anchor="start" x="228" y="-7.25" font-family="Menlo" font-size="10.00">/(?:(?!\/\*|\*\/)[\s\S])+/</text>
</g>
<!-- n9&#45;&gt;n14 -->
<!-- n11 -->
<g id="node12" class="node">
<title>n11</title>
<ellipse fill="none" stroke="black" cx="306" cy="-202.11" rx="45.25" ry="14.67"/>
<text text-anchor="start" x="282" y="-198.99" font-family="Menlo" font-size="10.00">sequence</text>
</g>
<!-- n10&#45;&gt;n11 -->
<g id="edge10" class="edge">
<title>n10&#45;&gt;n11</title>
<path fill="none" stroke="black" d="M344.37,-252.71C337.37,-243.66 328.12,-231.71 320.45,-221.8"/>
<polygon fill="black" stroke="black" points="321.98,-220.91 317.54,-218.03 319.21,-223.05 321.98,-220.91"/>
</g>
<!-- n15 -->
<g id="node16" class="node">
<title>n15</title>
<polygon fill="none" stroke="black" points="432,-20.75 410,-20.75 410,0 432,0 432,-20.75"/>
<text text-anchor="start" x="418" y="-7.25" font-family="Menlo" font-size="10.00">|</text>
</g>
<!-- n10&#45;&gt;n15 -->
<g id="edge11" class="edge">
<title>n10&#45;&gt;n15</title>
<path fill="none" stroke="black" d="M356.57,-252.37C360.67,-218.11 373.15,-127.98 398,-56.75 401.64,-46.32 407.22,-35.24 411.97,-26.65"/>
<polygon fill="black" stroke="black" points="413.4,-27.66 414.34,-22.45 410.36,-25.94 413.4,-27.66"/>
</g>
<!-- n16 -->
<g id="node17" class="node">
<title>n16</title>
<ellipse fill="none" stroke="black" cx="452" cy="-202.11" rx="45.25" ry="14.67"/>
<text text-anchor="start" x="428" y="-198.99" font-family="Menlo" font-size="10.00">sequence</text>
</g>
<!-- n10&#45;&gt;n16 -->
<g id="edge15" class="edge">
<title>n10&#45;&gt;n16</title>
<path fill="none" stroke="black" d="M374.63,-253.64C389.85,-243.7 411.03,-229.87 427.39,-219.19"/>
<polygon fill="black" stroke="black" points="428.23,-220.72 431.46,-216.52 426.32,-217.79 428.23,-220.72"/>
</g>
<!-- n12 -->
<g id="node13" class="node">
<title>n12</title>
<ellipse fill="none" stroke="black" cx="306" cy="-136.77" rx="36.77" ry="14.67"/>
<text text-anchor="start" x="288" y="-133.64" font-family="Menlo" font-size="10.00">factor</text>
</g>
<!-- n11&#45;&gt;n12 -->
<g id="edge9" class="edge">
<title>n11&#45;&gt;n12</title>
<path fill="none" stroke="black" d="M306,-187.05C306,-178.52 306,-167.5 306,-158.04"/>
<polygon fill="black" stroke="black" points="307.75,-158.3 306,-153.3 304.25,-158.3 307.75,-158.3"/>
</g>
<!-- n13 -->
<g id="node14" class="node">
<title>n13</title>
<ellipse fill="none" stroke="black" cx="306" cy="-71.42" rx="45.25" ry="14.67"/>
<text text-anchor="start" x="282" y="-68.3" font-family="Menlo" font-size="10.00">terminal</text>
</g>
<!-- n12&#45;&gt;n13 -->
<g id="edge8" class="edge">
<title>n12&#45;&gt;n13</title>
<path fill="none" stroke="black" d="M306,-121.71C306,-113.18 306,-102.15 306,-92.69"/>
<polygon fill="black" stroke="black" points="307.75,-92.95 306,-87.96 304.25,-92.96 307.75,-92.95"/>
</g>
<!-- n13&#45;&gt;n14 -->
<g id="edge7" class="edge">
<title>n13&#45;&gt;n14</title>
<path fill="none" stroke="black" d="M306,-56.43C306,-47.73 306,-36.52 306,-27.46"/>
<polygon fill="black" stroke="black" points="307.75,-27.54 306,-22.54 304.25,-27.54 307.75,-27.54"/>
</g>
<!-- n14&#45;&gt;n15 -->
<!-- n19 -->
<g id="node20" class="node">
<title>n19</title>
<polygon fill="none" stroke="black" points="508,-20.75 450,-20.75 450,0 508,0 508,-20.75"/>
<text text-anchor="start" x="458" y="-7.25" font-family="Menlo" font-size="10.00">comment</text>
</g>
<!-- n15&#45;&gt;n19 -->
<!-- n17 -->
<g id="node18" class="node">
<title>n17</title>
<ellipse fill="none" stroke="black" cx="452" cy="-136.77" rx="36.77" ry="14.67"/>
<text text-anchor="start" x="434" y="-133.64" font-family="Menlo" font-size="10.00">factor</text>
</g>
<!-- n16&#45;&gt;n17 -->
<g id="edge14" class="edge">
<title>n16&#45;&gt;n17</title>
<path fill="none" stroke="black" d="M452,-187.05C452,-178.52 452,-167.5 452,-158.04"/>
<polygon fill="black" stroke="black" points="453.75,-158.3 452,-153.3 450.25,-158.3 453.75,-158.3"/>
</g>
<!-- n18 -->
<g id="node19" class="node">
<title>n18</title>
<ellipse fill="none" stroke="black" cx="452" cy="-71.42" rx="45.25" ry="14.67"/>
<text text-anchor="start" x="428" y="-68.3" font-family="Menlo" font-size="10.00">terminal</text>
</g>
<!-- n17&#45;&gt;n18 -->
<g id="edge13" class="edge">
<title>n17&#45;&gt;n18</title>
<path fill="none" stroke="black" d="M452,-121.71C452,-113.18 452,-102.15 452,-92.69"/>
<polygon fill="black" stroke="black" points="453.75,-92.95 452,-87.96 450.25,-92.96 453.75,-92.95"/>
</g>
<!-- n18&#45;&gt;n19 -->
<g id="edge12" class="edge">
<title>n18&#45;&gt;n19</title>
<path fill="none" stroke="black" d="M458.4,-56.43C462.45,-47.56 467.7,-36.08 471.89,-26.93"/>
<polygon fill="black" stroke="black" points="473.47,-27.68 473.96,-22.4 470.29,-26.22 473.47,-27.68"/>
</g>
<!-- n19&#45;&gt;n20 -->
<!-- n23 -->
<g id="node24" class="node">
<title>n23</title>
<polygon fill="none" stroke="black" points="612,-20.75 572,-20.75 572,0 612,0 612,-20.75"/>
<text text-anchor="start" x="580" y="-7.25" font-family="Menlo" font-size="10.00">&quot;*/&quot;</text>
</g>
<!-- n20&#45;&gt;n23 -->
<!-- n22 -->
<g id="node23" class="node">
<title>n22</title>
<ellipse fill="none" stroke="black" cx="592" cy="-267.46" rx="45.25" ry="14.67"/>
<text text-anchor="start" x="568" y="-264.33" font-family="Menlo" font-size="10.00">terminal</text>
</g>
<!-- n21&#45;&gt;n22 -->
<g id="edge20" class="edge">
<title>n21&#45;&gt;n22</title>
<path fill="none" stroke="black" d="M546.81,-318.68C555.11,-309.46 566.31,-297 575.49,-286.8"/>
<polygon fill="black" stroke="black" points="576.76,-288.02 578.8,-283.13 574.15,-285.67 576.76,-288.02"/>
</g>
<!-- n22&#45;&gt;n23 -->
<g id="edge19" class="edge">
<title>n22&#45;&gt;n23</title>
<path fill="none" stroke="black" d="M592,-252.38C592,-208.47 592,-74.17 592,-27.53"/>
<polygon fill="black" stroke="black" points="593.75,-27.58 592,-22.58 590.25,-27.58 593.75,-27.58"/>
</g>
<!-- n23&#45;&gt;n24 -->
</g>
</svg>
