<?xml version="1.0" encoding="UTF-8" standalone="no"?>
<!DOCTYPE svg PUBLIC "-//W3C//DTD SVG 1.1//EN"
 "http://www.w3.org/Graphics/SVG/1.1/DTD/svg11.dtd">
<!-- Generated by graphviz version 9.0.0 (20230911.1827)
 -->
<!-- Title: Derivations Pages: 1 -->
<svg width="203pt" height="376pt"
 viewBox="0.00 0.00 203.00 376.22" xmlns="http://www.w3.org/2000/svg" xmlns:xlink="http://www.w3.org/1999/xlink">
<g id="graph0" class="graph" transform="scale(1 1) rotate(0) translate(4 372.22)">
<title>Derivations</title>
<polygon fill="white" stroke="none" points="-4,4 -4,-372.22 199,-372.22 199,4 -4,4"/>
<text text-anchor="start" x="46.5" y="-354.72" font-family="Menlo" font-size="10.00">S = &quot;x&quot; | &quot;&lt;&quot; Y .</text>
<!-- n0 -->
<g id="node1" class="node">
<title>n0</title>
<ellipse fill="none" stroke="black" cx="33" cy="-332.8" rx="15.56" ry="14.67"/>
<text text-anchor="start" x="30" y="-329.68" font-family="Menlo" font-size="10.00">S</text>
</g>
<!-- n1 -->
<g id="node2" class="node">
<title>n1</title>
<polygon fill="none" stroke="black" points="22,-20.75 0,-20.75 0,0 22,0 22,-20.75"/>
<text text-anchor="start" x="8" y="-7.25" font-family="Menlo" font-size="10.00">&lt;</text>
</g>
<!-- n0&#45;&gt;n1 -->
<g id="edge1" class="edge">
<title>n0&#45;&gt;n1</title>
<path fill="none" stroke="black" d="M29.17,-318.41C22.86,-295.15 11,-245.72 11,-203.11 11,-203.11 11,-203.11 11,-135.77 11,-96.85 11,-51.08 11,-27.39"/>
<polygon fill="black" stroke="black" points="12.75,-27.57 11,-22.57 9.25,-27.57 12.75,-27.57"/>
</g>
<!-- n2 -->
<g id="node3" class="node">
<title>n2</title>
<ellipse fill="none" stroke="black" cx="74" cy="-267.46" rx="15.56" ry="14.67"/>
<text text-anchor="start" x="71" y="-264.33" font-family="Menlo" font-size="10.00">Y</text>
</g>
<!-- n0&#45;&gt;n2 -->
<g id="edge9" class="edge">
<title>n0&#45;&gt;n2</title>
<path fill="none" stroke="black" d="M40.71,-319.89C46.95,-310.24 55.83,-296.53 62.85,-285.69"/>
<polygon fill="black" stroke="black" points="64.25,-286.74 65.5,-281.59 61.31,-284.84 64.25,-286.74"/>
</g>
<!-- n4 -->
<g id="node5" class="node">
<title>n4</title>
<polygon fill="none" stroke="black" points="62,-20.75 40,-20.75 40,0 62,0 62,-20.75"/>
<text text-anchor="start" x="48" y="-7.25" font-family="Menlo" font-size="10.00">&lt;</text>
</g>
<!-- n1&#45;&gt;n4 -->
<!-- n3 -->
<g id="node4" class="node">
<title>n3</title>
<ellipse fill="none" stroke="black" cx="74" cy="-202.11" rx="15.56" ry="14.67"/>
<text text-anchor="start" x="71" y="-198.99" font-family="Menlo" font-size="10.00">S</text>
</g>
<!-- n2&#45;&gt;n3 -->
<g id="edge7" class="edge">
<title>n2&#45;&gt;n3</title>
<path fill="none" stroke="black" d="M74,-252.4C74,-243.87 74,-232.84 74,-223.38"/>
<polygon fill="black" stroke="black" points="75.75,-223.64 74,-218.64 72.25,-223.64 75.75,-223.64"/>
</g>
<!-- n9 -->
<g id="node10" class="node">
<title>n9</title>
<polygon fill="none" stroke="black" points="195,-20.75 167,-20.75 167,0 195,0 195,-20.75"/>
<text text-anchor="start" x="175" y="-7.25" font-family="Menlo" font-size="10.00">&gt;&gt;</text>
</g>
<!-- n2&#45;&gt;n9 -->
<g id="edge8" class="edge">
<title>n2&#45;&gt;n9</title>
<path fill="none" stroke="black" d="M80.68,-253.94C85.9,-243.99 93.21,-229.64 99,-216.78 130.46,-146.91 162.71,-61.14 175.39,-26.73"/>
<polygon fill="black" stroke="black" points="176.92,-27.63 177.01,-22.34 173.64,-26.42 176.92,-27.63"/>
</g>
<!-- n3&#45;&gt;n4 -->
<g id="edge2" class="edge">
<title>n3&#45;&gt;n4</title>
<path fill="none" stroke="black" d="M72.31,-187.16C68.13,-152.68 57.33,-63.6 52.92,-27.22"/>
<polygon fill="black" stroke="black" points="54.7,-27.31 52.36,-22.56 51.22,-27.74 54.7,-27.31"/>
</g>
<!-- n5 -->
<g id="node6" class="node">
<title>n5</title>
<ellipse fill="none" stroke="black" cx="93" cy="-136.77" rx="15.56" ry="14.67"/>
<text text-anchor="start" x="90" y="-133.64" font-family="Menlo" font-size="10.00">Y</text>
</g>
<!-- n3&#45;&gt;n5 -->
<g id="edge6" class="edge">
<title>n3&#45;&gt;n5</title>
<path fill="none" stroke="black" d="M78.03,-187.68C80.67,-178.86 84.18,-167.18 87.13,-157.34"/>
<polygon fill="black" stroke="black" points="88.78,-157.92 88.54,-152.63 85.43,-156.92 88.78,-157.92"/>
</g>
<!-- n7 -->
<g id="node8" class="node">
<title>n7</title>
<polygon fill="none" stroke="black" points="103,-20.75 81,-20.75 81,0 103,0 103,-20.75"/>
<text text-anchor="start" x="89" y="-7.25" font-family="Menlo" font-size="10.00">x</text>
</g>
<!-- n4&#45;&gt;n7 -->
<!-- n6 -->
<g id="node7" class="node">
<title>n6</title>
<ellipse fill="none" stroke="black" cx="93" cy="-71.42" rx="15.56" ry="14.67"/>
<text text-anchor="start" x="90" y="-68.3" font-family="Menlo" font-size="10.00">S</text>
</g>
<!-- n5&#45;&gt;n6 -->
<g id="edge4" class="edge">
<title>n5&#45;&gt;n6</title>
<path fill="none" stroke="black" d="M93,-121.71C93,-113.18 93,-102.15 93,-92.69"/>
<polygon fill="black" stroke="black" points="94.75,-92.95 93,-87.96 91.25,-92.96 94.75,-92.95"/>
</g>
<!-- n8 -->
<g id="node9" class="node">
<title>n8</title>
<polygon fill="none" stroke="black" points="149,-20.75 121,-20.75 121,0 149,0 149,-20.75"/>
<text text-anchor="start" x="129" y="-7.25" font-family="Menlo" font-size="10.00">&gt;&gt;</text>
</g>
<!-- n5&#45;&gt;n8 -->
<g id="edge5" class="edge">
<title>n5&#45;&gt;n8</title>
<path fill="none" stroke="black" d="M100.24,-123.48C105.77,-113.65 113.23,-99.36 118,-86.09 125.1,-66.34 129.91,-42.54 132.55,-27.19"/>
<polygon fill="black" stroke="black" points="134.27,-27.5 133.37,-22.28 130.82,-26.92 134.27,-27.5"/>
</g>
<!-- n6&#45;&gt;n7 -->
<g id="edge3" class="edge">
<title>n6&#45;&gt;n7</title>
<path fill="none" stroke="black" d="M92.76,-56.43C92.62,-47.73 92.43,-36.52 92.27,-27.46"/>
<polygon fill="black" stroke="black" points="94.02,-27.51 92.19,-22.54 90.52,-27.57 94.02,-27.51"/>
</g>
<!-- n7&#45;&gt;n8 -->
<!-- n8&#45;&gt;n9 -->
</g>
</svg>
