<?xml version="1.0" encoding="UTF-8" standalone="no"?>
<!DOCTYPE svg PUBLIC "-//W3C//DTD SVG 1.1//EN"
 "http://www.w3.org/Graphics/SVG/1.1/DTD/svg11.dtd">
<!-- Generated by graphviz version 9.0.0 (20230911.1827)
 -->
<!-- Title: Derivations Pages: 1 -->
<svg width="1004pt" height="1291pt"
 viewBox="0.00 0.00 1004.06 1291.05" xmlns="http://www.w3.org/2000/svg" xmlns:xlink="http://www.w3.org/1999/xlink">
<g id="graph0" class="graph" transform="scale(1 1) rotate(0) translate(4 1287.05)">
<title>Derivations</title>
<polygon fill="white" stroke="none" points="-4,4 -4,-1287.05 1000.06,-1287.05 1000.06,4 -4,4"/>
<text text-anchor="start" x="384.03" y="-1269.55" font-family="Menlo" font-size="10.00">topLevelDeclaration = [ statements ] .</text>
<!-- n0 -->
<g id="node1" class="node">
<title>n0</title>
<ellipse fill="none" stroke="black" cx="91.92" cy="-1247.63" rx="91.92" ry="14.67"/>
<text text-anchor="start" x="34.92" y="-1244.51" font-family="Menlo" font-size="10.00">topLevelDeclaration</text>
</g>
<!-- n1 -->
<g id="node2" class="node">
<title>n1</title>
<ellipse fill="none" stroke="black" cx="91.92" cy="-1182.29" rx="53.74" ry="14.67"/>
<text text-anchor="start" x="61.92" y="-1179.16" font-family="Menlo" font-size="10.00">statements</text>
</g>
<!-- n0&#45;&gt;n1 -->
<g id="edge41" class="edge">
<title>n0&#45;&gt;n1</title>
<path fill="none" stroke="black" d="M91.92,-1232.57C91.92,-1224.04 91.92,-1213.02 91.92,-1203.55"/>
<polygon fill="black" stroke="black" points="93.67,-1203.82 91.92,-1198.82 90.17,-1203.82 93.67,-1203.82"/>
</g>
<!-- n2 -->
<g id="node3" class="node">
<title>n2</title>
<ellipse fill="none" stroke="black" cx="91.92" cy="-1116.94" rx="49.5" ry="14.67"/>
<text text-anchor="start" x="64.92" y="-1113.82" font-family="Menlo" font-size="10.00">statement</text>
</g>
<!-- n1&#45;&gt;n2 -->
<g id="edge40" class="edge">
<title>n1&#45;&gt;n2</title>
<path fill="none" stroke="black" d="M91.92,-1167.23C91.92,-1158.7 91.92,-1147.67 91.92,-1138.21"/>
<polygon fill="black" stroke="black" points="93.67,-1138.47 91.92,-1133.47 90.17,-1138.47 93.67,-1138.47"/>
</g>
<!-- n3 -->
<g id="node4" class="node">
<title>n3</title>
<ellipse fill="none" stroke="black" cx="91.92" cy="-1051.6" rx="57.98" ry="14.67"/>
<text text-anchor="start" x="58.92" y="-1048.47" font-family="Menlo" font-size="10.00">declaration</text>
</g>
<!-- n2&#45;&gt;n3 -->
<g id="edge39" class="edge">
<title>n2&#45;&gt;n3</title>
<path fill="none" stroke="black" d="M91.92,-1101.88C91.92,-1093.35 91.92,-1082.33 91.92,-1072.87"/>
<polygon fill="black" stroke="black" points="93.67,-1073.13 91.92,-1068.13 90.17,-1073.13 93.67,-1073.13"/>
</g>
<!-- n4 -->
<g id="node5" class="node">
<title>n4</title>
<ellipse fill="none" stroke="black" cx="91.92" cy="-986.25" rx="91.92" ry="14.67"/>
<text text-anchor="start" x="34.92" y="-983.13" font-family="Menlo" font-size="10.00">constantDeclaration</text>
</g>
<!-- n3&#45;&gt;n4 -->
<g id="edge38" class="edge">
<title>n3&#45;&gt;n4</title>
<path fill="none" stroke="black" d="M91.92,-1036.54C91.92,-1028.01 91.92,-1016.98 91.92,-1007.52"/>
<polygon fill="black" stroke="black" points="93.67,-1007.78 91.92,-1002.78 90.17,-1007.78 93.67,-1007.78"/>
</g>
<!-- n5 -->
<g id="node6" class="node">
<title>n5</title>
<polygon fill="none" stroke="black" points="75.92,-20.75 41.92,-20.75 41.92,0 75.92,0 75.92,-20.75"/>
<text text-anchor="start" x="49.92" y="-7.25" font-family="Menlo" font-size="10.00">let</text>
</g>
<!-- n4&#45;&gt;n5 -->
<g id="edge1" class="edge">
<title>n4&#45;&gt;n5</title>
<path fill="none" stroke="black" d="M75.24,-971.69C65.03,-962.52 52.51,-949.56 44.92,-935.58 27.71,-903.83 25.92,-892.68 25.92,-856.56 25.92,-856.56 25.92,-856.56 25.92,-135.77 25.92,-95.53 42.25,-50.36 51.94,-27.09"/>
<polygon fill="black" stroke="black" points="53.53,-27.82 53.88,-22.53 50.31,-26.44 53.53,-27.82"/>
</g>
<!-- n6 -->
<g id="node7" class="node">
<title>n6</title>
<ellipse fill="none" stroke="black" cx="158.92" cy="-920.91" rx="104.65" ry="14.67"/>
<text text-anchor="start" x="92.92" y="-917.78" font-family="Menlo" font-size="10.00">patternInitializerList</text>
</g>
<!-- n4&#45;&gt;n6 -->
<g id="edge37" class="edge">
<title>n4&#45;&gt;n6</title>
<path fill="none" stroke="black" d="M106.46,-971.51C116.21,-962.29 129.15,-950.06 139.73,-940.05"/>
<polygon fill="black" stroke="black" points="140.88,-941.37 143.31,-936.66 138.48,-938.83 140.88,-941.37"/>
</g>
<!-- n11 -->
<g id="node12" class="node">
<title>n11</title>
<polygon fill="none" stroke="black" points="147.92,-20.75 125.92,-20.75 125.92,0 147.92,0 147.92,-20.75"/>
<text text-anchor="start" x="133.92" y="-7.25" font-family="Menlo" font-size="10.00">r</text>
</g>
<!-- n5&#45;&gt;n11 -->
<!-- n7 -->
<g id="node8" class="node">
<title>n7</title>
<ellipse fill="none" stroke="black" cx="158.92" cy="-855.56" rx="87.68" ry="14.67"/>
<text text-anchor="start" x="104.92" y="-852.44" font-family="Menlo" font-size="10.00">patternInitializer</text>
</g>
<!-- n6&#45;&gt;n7 -->
<g id="edge36" class="edge">
<title>n6&#45;&gt;n7</title>
<path fill="none" stroke="black" d="M158.92,-905.85C158.92,-897.32 158.92,-886.29 158.92,-876.83"/>
<polygon fill="black" stroke="black" points="160.67,-877.09 158.92,-872.09 157.17,-877.09 160.67,-877.09"/>
</g>
<!-- n8 -->
<g id="node9" class="node">
<title>n8</title>
<ellipse fill="none" stroke="black" cx="136.92" cy="-790.22" rx="70.71" ry="14.67"/>
<text text-anchor="start" x="94.92" y="-787.09" font-family="Menlo" font-size="10.00">bindingPattern</text>
</g>
<!-- n7&#45;&gt;n8 -->
<g id="edge5" class="edge">
<title>n7&#45;&gt;n8</title>
<path fill="none" stroke="black" d="M154.04,-840.5C151.05,-831.89 147.18,-820.73 143.87,-811.21"/>
<polygon fill="black" stroke="black" points="145.58,-810.81 142.29,-806.67 142.28,-811.96 145.58,-810.81"/>
</g>
<!-- n12 -->
<g id="node13" class="node">
<title>n12</title>
<ellipse fill="none" stroke="black" cx="283.92" cy="-790.22" rx="57.98" ry="14.67"/>
<text text-anchor="start" x="250.92" y="-787.09" font-family="Menlo" font-size="10.00">initializer</text>
</g>
<!-- n7&#45;&gt;n12 -->
<g id="edge35" class="edge">
<title>n7&#45;&gt;n12</title>
<path fill="none" stroke="black" d="M185.43,-841.13C205.35,-831.04 232.66,-817.2 253.47,-806.65"/>
<polygon fill="black" stroke="black" points="254.13,-808.27 257.8,-804.45 252.55,-805.15 254.13,-808.27"/>
</g>
<!-- n9 -->
<g id="node10" class="node">
<title>n9</title>
<ellipse fill="none" stroke="black" cx="136.92" cy="-724.87" rx="83.44" ry="14.67"/>
<text text-anchor="start" x="85.92" y="-721.75" font-family="Menlo" font-size="10.00">identifierPattern</text>
</g>
<!-- n8&#45;&gt;n9 -->
<g id="edge4" class="edge">
<title>n8&#45;&gt;n9</title>
<path fill="none" stroke="black" d="M136.92,-775.16C136.92,-766.63 136.92,-755.6 136.92,-746.14"/>
<polygon fill="black" stroke="black" points="138.67,-746.4 136.92,-741.4 135.17,-746.4 138.67,-746.4"/>
</g>
<!-- n10 -->
<g id="node11" class="node">
<title>n10</title>
<ellipse fill="none" stroke="black" cx="136.92" cy="-136.77" rx="53.74" ry="14.67"/>
<text text-anchor="start" x="106.92" y="-133.64" font-family="Menlo" font-size="10.00">identifier</text>
</g>
<!-- n9&#45;&gt;n10 -->
<g id="edge3" class="edge">
<title>n9&#45;&gt;n10</title>
<path fill="none" stroke="black" d="M136.92,-709.97C136.92,-686.37 136.92,-636.96 136.92,-595.18 136.92,-595.18 136.92,-595.18 136.92,-266.46 136.92,-228.1 136.92,-183.32 136.92,-157.98"/>
<polygon fill="black" stroke="black" points="138.67,-158.18 136.92,-153.18 135.17,-158.18 138.67,-158.18"/>
</g>
<!-- n10&#45;&gt;n11 -->
<g id="edge2" class="edge">
<title>n10&#45;&gt;n11</title>
<path fill="none" stroke="black" d="M136.92,-121.98C136.92,-98.74 136.92,-51.89 136.92,-27.29"/>
<polygon fill="black" stroke="black" points="138.67,-27.49 136.92,-22.49 135.17,-27.49 138.67,-27.49"/>
</g>
<!-- n13 -->
<g id="node14" class="node">
<title>n13</title>
<polygon fill="none" stroke="black" points="258.92,-20.75 236.92,-20.75 236.92,0 258.92,0 258.92,-20.75"/>
<text text-anchor="start" x="244.92" y="-7.25" font-family="Menlo" font-size="10.00">=</text>
</g>
<!-- n11&#45;&gt;n13 -->
<!-- n12&#45;&gt;n13 -->
<g id="edge6" class="edge">
<title>n12&#45;&gt;n13</title>
<path fill="none" stroke="black" d="M277.32,-775.29C266.93,-752.06 247.92,-703.68 247.92,-660.53 247.92,-660.53 247.92,-660.53 247.92,-135.77 247.92,-96.85 247.92,-51.08 247.92,-27.39"/>
<polygon fill="black" stroke="black" points="249.67,-27.57 247.92,-22.57 246.17,-27.57 249.67,-27.57"/>
</g>
<!-- n14 -->
<g id="node15" class="node">
<title>n14</title>
<ellipse fill="none" stroke="black" cx="358.92" cy="-724.87" rx="53.74" ry="14.67"/>
<text text-anchor="start" x="328.92" y="-721.75" font-family="Menlo" font-size="10.00">expression</text>
</g>
<!-- n12&#45;&gt;n14 -->
<g id="edge34" class="edge">
<title>n12&#45;&gt;n14</title>
<path fill="none" stroke="black" d="M299.83,-775.78C311.07,-766.29 326.23,-753.49 338.38,-743.23"/>
<polygon fill="black" stroke="black" points="339.19,-744.83 341.88,-740.26 336.94,-742.15 339.19,-744.83"/>
</g>
<!-- n21 -->
<g id="node22" class="node">
<title>n21</title>
<polygon fill="none" stroke="black" points="380.92,-20.75 340.92,-20.75 340.92,0 380.92,0 380.92,-20.75"/>
<text text-anchor="start" x="348.92" y="-7.25" font-family="Menlo" font-size="10.00">true</text>
</g>
<!-- n13&#45;&gt;n21 -->
<!-- n15 -->
<g id="node16" class="node">
<title>n15</title>
<ellipse fill="none" stroke="black" cx="358.92" cy="-659.53" rx="79.2" ry="14.67"/>
<text text-anchor="start" x="310.92" y="-656.4" font-family="Menlo" font-size="10.00">prefixExpression</text>
</g>
<!-- n14&#45;&gt;n15 -->
<g id="edge13" class="edge">
<title>n14&#45;&gt;n15</title>
<path fill="none" stroke="black" d="M358.92,-709.81C358.92,-701.28 358.92,-690.26 358.92,-680.8"/>
<polygon fill="black" stroke="black" points="360.67,-681.06 358.92,-676.06 357.17,-681.06 360.67,-681.06"/>
</g>
<!-- n22 -->
<g id="node23" class="node">
<title>n22</title>
<ellipse fill="none" stroke="black" cx="566.92" cy="-659.53" rx="79.2" ry="14.67"/>
<text text-anchor="start" x="518.92" y="-656.4" font-family="Menlo" font-size="10.00">infixExpressions</text>
</g>
<!-- n14&#45;&gt;n22 -->
<g id="edge33" class="edge">
<title>n14&#45;&gt;n22</title>
<path fill="none" stroke="black" d="M393.74,-713.27C428.76,-702.6 482.93,-686.11 521.35,-674.41"/>
<polygon fill="black" stroke="black" points="521.66,-676.14 525.93,-673.01 520.64,-672.79 521.66,-676.14"/>
</g>
<!-- n16 -->
<g id="node17" class="node">
<title>n16</title>
<ellipse fill="none" stroke="black" cx="358.92" cy="-594.18" rx="83.44" ry="14.67"/>
<text text-anchor="start" x="307.92" y="-591.06" font-family="Menlo" font-size="10.00">postfixExpression</text>
</g>
<!-- n15&#45;&gt;n16 -->
<g id="edge12" class="edge">
<title>n15&#45;&gt;n16</title>
<path fill="none" stroke="black" d="M358.92,-644.47C358.92,-635.94 358.92,-624.91 358.92,-615.45"/>
<polygon fill="black" stroke="black" points="360.67,-615.71 358.92,-610.71 357.17,-615.71 360.67,-615.71"/>
</g>
<!-- n17 -->
<g id="node18" class="node">
<title>n17</title>
<ellipse fill="none" stroke="black" cx="358.92" cy="-528.84" rx="83.44" ry="14.67"/>
<text text-anchor="start" x="307.92" y="-525.71" font-family="Menlo" font-size="10.00">primaryExpression</text>
</g>
<!-- n16&#45;&gt;n17 -->
<g id="edge11" class="edge">
<title>n16&#45;&gt;n17</title>
<path fill="none" stroke="black" d="M358.92,-579.12C358.92,-570.59 358.92,-559.57 358.92,-550.11"/>
<polygon fill="black" stroke="black" points="360.67,-550.37 358.92,-545.37 357.17,-550.37 360.67,-550.37"/>
</g>
<!-- n18 -->
<g id="node19" class="node">
<title>n18</title>
<ellipse fill="none" stroke="black" cx="358.92" cy="-463.49" rx="83.44" ry="14.67"/>
<text text-anchor="start" x="307.92" y="-460.37" font-family="Menlo" font-size="10.00">literalExpression</text>
</g>
<!-- n17&#45;&gt;n18 -->
<g id="edge10" class="edge">
<title>n17&#45;&gt;n18</title>
<path fill="none" stroke="black" d="M358.92,-513.78C358.92,-505.25 358.92,-494.22 358.92,-484.76"/>
<polygon fill="black" stroke="black" points="360.67,-485.02 358.92,-480.02 357.17,-485.02 360.67,-485.02"/>
</g>
<!-- n19 -->
<g id="node20" class="node">
<title>n19</title>
<ellipse fill="none" stroke="black" cx="359.92" cy="-398.15" rx="41.01" ry="14.67"/>
<text text-anchor="start" x="338.92" y="-395.02" font-family="Menlo" font-size="10.00">literal</text>
</g>
<!-- n18&#45;&gt;n19 -->
<g id="edge9" class="edge">
<title>n18&#45;&gt;n19</title>
<path fill="none" stroke="black" d="M359.15,-448.43C359.28,-439.9 359.45,-428.88 359.6,-419.42"/>
<polygon fill="black" stroke="black" points="361.35,-419.71 359.68,-414.68 357.85,-419.65 361.35,-419.71"/>
</g>
<!-- n20 -->
<g id="node21" class="node">
<title>n20</title>
<ellipse fill="none" stroke="black" cx="360.92" cy="-71.42" rx="70.71" ry="14.67"/>
<text text-anchor="start" x="318.92" y="-68.3" font-family="Menlo" font-size="10.00">booleanLiteral</text>
</g>
<!-- n19&#45;&gt;n20 -->
<g id="edge8" class="edge">
<title>n19&#45;&gt;n20</title>
<path fill="none" stroke="black" d="M359.92,-383.25C359.92,-359.65 359.92,-310.24 359.92,-268.46 359.92,-268.46 359.92,-268.46 359.92,-201.11 359.92,-162.76 360.37,-117.98 360.67,-92.63"/>
<polygon fill="black" stroke="black" points="362.42,-92.86 360.73,-87.84 358.92,-92.82 362.42,-92.86"/>
</g>
<!-- n20&#45;&gt;n21 -->
<g id="edge7" class="edge">
<title>n20&#45;&gt;n21</title>
<path fill="none" stroke="black" d="M360.92,-56.43C360.92,-47.73 360.92,-36.52 360.92,-27.46"/>
<polygon fill="black" stroke="black" points="362.67,-27.54 360.92,-22.54 359.17,-27.54 362.67,-27.54"/>
</g>
<!-- n25 -->
<g id="node26" class="node">
<title>n25</title>
<polygon fill="none" stroke="black" points="470.92,-20.75 448.92,-20.75 448.92,0 470.92,0 470.92,-20.75"/>
<text text-anchor="start" x="456.92" y="-7.25" font-family="Menlo" font-size="10.00">?</text>
</g>
<!-- n21&#45;&gt;n25 -->
<!-- n23 -->
<g id="node24" class="node">
<title>n23</title>
<ellipse fill="none" stroke="black" cx="600.92" cy="-594.18" rx="74.95" ry="14.67"/>
<text text-anchor="start" x="555.92" y="-591.06" font-family="Menlo" font-size="10.00">infixExpression</text>
</g>
<!-- n22&#45;&gt;n23 -->
<g id="edge32" class="edge">
<title>n22&#45;&gt;n23</title>
<path fill="none" stroke="black" d="M574.47,-644.47C579.14,-635.78 585.19,-624.49 590.34,-614.91"/>
<polygon fill="black" stroke="black" points="591.86,-615.77 592.68,-610.53 588.78,-614.11 591.86,-615.77"/>
</g>
<!-- n24 -->
<g id="node25" class="node">
<title>n24</title>
<ellipse fill="none" stroke="black" cx="600.92" cy="-528.84" rx="91.92" ry="14.67"/>
<text text-anchor="start" x="543.92" y="-525.71" font-family="Menlo" font-size="10.00">conditionalOperator</text>
</g>
<!-- n23&#45;&gt;n24 -->
<g id="edge24" class="edge">
<title>n23&#45;&gt;n24</title>
<path fill="none" stroke="black" d="M600.92,-579.12C600.92,-570.59 600.92,-559.57 600.92,-550.11"/>
<polygon fill="black" stroke="black" points="602.67,-550.37 600.92,-545.37 599.17,-550.37 602.67,-550.37"/>
</g>
<!-- n35 -->
<g id="node36" class="node">
<title>n35</title>
<ellipse fill="none" stroke="black" cx="820.92" cy="-528.84" rx="79.2" ry="14.67"/>
<text text-anchor="start" x="772.92" y="-525.71" font-family="Menlo" font-size="10.00">prefixExpression</text>
</g>
<!-- n23&#45;&gt;n35 -->
<g id="edge31" class="edge">
<title>n23&#45;&gt;n35</title>
<path fill="none" stroke="black" d="M641.53,-581.49C678.77,-570.77 733.95,-554.88 773.26,-543.56"/>
<polygon fill="black" stroke="black" points="773.66,-545.27 777.98,-542.2 772.69,-541.9 773.66,-545.27"/>
</g>
<!-- n24&#45;&gt;n25 -->
<g id="edge14" class="edge">
<title>n24&#45;&gt;n25</title>
<path fill="none" stroke="black" d="M577.96,-514.18C564.73,-505.33 548.65,-492.75 537.92,-478.16 519.5,-453.12 520.57,-442.96 512.92,-412.82 475.72,-266.11 463.61,-82.24 460.7,-27.47"/>
<polygon fill="black" stroke="black" points="462.45,-27.58 460.45,-22.68 458.96,-27.76 462.45,-27.58"/>
</g>
<!-- n26 -->
<g id="node27" class="node">
<title>n26</title>
<ellipse fill="none" stroke="black" cx="600.92" cy="-463.49" rx="53.74" ry="14.67"/>
<text text-anchor="start" x="570.92" y="-460.37" font-family="Menlo" font-size="10.00">expression</text>
</g>
<!-- n24&#45;&gt;n26 -->
<g id="edge22" class="edge">
<title>n24&#45;&gt;n26</title>
<path fill="none" stroke="black" d="M600.92,-513.78C600.92,-505.25 600.92,-494.22 600.92,-484.76"/>
<polygon fill="black" stroke="black" points="602.67,-485.02 600.92,-480.02 599.17,-485.02 602.67,-485.02"/>
</g>
<!-- n34 -->
<g id="node35" class="node">
<title>n34</title>
<polygon fill="none" stroke="black" points="752.92,-20.75 730.92,-20.75 730.92,0 752.92,0 752.92,-20.75"/>
<text text-anchor="start" x="738.92" y="-7.25" font-family="Menlo" font-size="10.00">:</text>
</g>
<!-- n24&#45;&gt;n34 -->
<g id="edge23" class="edge">
<title>n24&#45;&gt;n34</title>
<path fill="none" stroke="black" d="M634.34,-514.76C676.03,-495.99 741.92,-457.15 741.92,-399.15 741.92,-399.15 741.92,-399.15 741.92,-135.77 741.92,-96.85 741.92,-51.08 741.92,-27.39"/>
<polygon fill="black" stroke="black" points="743.67,-27.57 741.92,-22.57 740.17,-27.57 743.67,-27.57"/>
</g>
<!-- n33 -->
<g id="node34" class="node">
<title>n33</title>
<polygon fill="none" stroke="black" points="617.92,-20.75 583.92,-20.75 583.92,0 617.92,0 617.92,-20.75"/>
<text text-anchor="start" x="591.92" y="-7.25" font-family="Menlo" font-size="10.00">/1/</text>
</g>
<!-- n25&#45;&gt;n33 -->
<!-- n27 -->
<g id="node28" class="node">
<title>n27</title>
<ellipse fill="none" stroke="black" cx="600.92" cy="-398.15" rx="79.2" ry="14.67"/>
<text text-anchor="start" x="552.92" y="-395.02" font-family="Menlo" font-size="10.00">prefixExpression</text>
</g>
<!-- n26&#45;&gt;n27 -->
<g id="edge21" class="edge">
<title>n26&#45;&gt;n27</title>
<path fill="none" stroke="black" d="M600.92,-448.43C600.92,-439.9 600.92,-428.88 600.92,-419.42"/>
<polygon fill="black" stroke="black" points="602.67,-419.68 600.92,-414.68 599.17,-419.68 602.67,-419.68"/>
</g>
<!-- n28 -->
<g id="node29" class="node">
<title>n28</title>
<ellipse fill="none" stroke="black" cx="600.92" cy="-332.8" rx="83.44" ry="14.67"/>
<text text-anchor="start" x="549.92" y="-329.68" font-family="Menlo" font-size="10.00">postfixExpression</text>
</g>
<!-- n27&#45;&gt;n28 -->
<g id="edge20" class="edge">
<title>n27&#45;&gt;n28</title>
<path fill="none" stroke="black" d="M600.92,-383.09C600.92,-374.56 600.92,-363.53 600.92,-354.07"/>
<polygon fill="black" stroke="black" points="602.67,-354.33 600.92,-349.33 599.17,-354.33 602.67,-354.33"/>
</g>
<!-- n29 -->
<g id="node30" class="node">
<title>n29</title>
<ellipse fill="none" stroke="black" cx="600.92" cy="-267.46" rx="83.44" ry="14.67"/>
<text text-anchor="start" x="549.92" y="-264.33" font-family="Menlo" font-size="10.00">primaryExpression</text>
</g>
<!-- n28&#45;&gt;n29 -->
<g id="edge19" class="edge">
<title>n28&#45;&gt;n29</title>
<path fill="none" stroke="black" d="M600.92,-317.74C600.92,-309.21 600.92,-298.19 600.92,-288.73"/>
<polygon fill="black" stroke="black" points="602.67,-288.99 600.92,-283.99 599.17,-288.99 602.67,-288.99"/>
</g>
<!-- n30 -->
<g id="node31" class="node">
<title>n30</title>
<ellipse fill="none" stroke="black" cx="600.92" cy="-202.11" rx="83.44" ry="14.67"/>
<text text-anchor="start" x="549.92" y="-198.99" font-family="Menlo" font-size="10.00">literalExpression</text>
</g>
<!-- n29&#45;&gt;n30 -->
<g id="edge18" class="edge">
<title>n29&#45;&gt;n30</title>
<path fill="none" stroke="black" d="M600.92,-252.4C600.92,-243.87 600.92,-232.84 600.92,-223.38"/>
<polygon fill="black" stroke="black" points="602.67,-223.64 600.92,-218.64 599.17,-223.64 602.67,-223.64"/>
</g>
<!-- n31 -->
<g id="node32" class="node">
<title>n31</title>
<ellipse fill="none" stroke="black" cx="600.92" cy="-136.77" rx="41.01" ry="14.67"/>
<text text-anchor="start" x="579.92" y="-133.64" font-family="Menlo" font-size="10.00">literal</text>
</g>
<!-- n30&#45;&gt;n31 -->
<g id="edge17" class="edge">
<title>n30&#45;&gt;n31</title>
<path fill="none" stroke="black" d="M600.92,-187.05C600.92,-178.52 600.92,-167.5 600.92,-158.04"/>
<polygon fill="black" stroke="black" points="602.67,-158.3 600.92,-153.3 599.17,-158.3 602.67,-158.3"/>
</g>
<!-- n32 -->
<g id="node33" class="node">
<title>n32</title>
<ellipse fill="none" stroke="black" cx="600.92" cy="-71.42" rx="113.14" ry="14.67"/>
<text text-anchor="start" x="528.92" y="-68.3" font-family="Menlo" font-size="10.00">regularExpressionLiteral</text>
</g>
<!-- n31&#45;&gt;n32 -->
<g id="edge16" class="edge">
<title>n31&#45;&gt;n32</title>
<path fill="none" stroke="black" d="M600.92,-121.71C600.92,-113.18 600.92,-102.15 600.92,-92.69"/>
<polygon fill="black" stroke="black" points="602.67,-92.95 600.92,-87.96 599.17,-92.96 602.67,-92.95"/>
</g>
<!-- n32&#45;&gt;n33 -->
<g id="edge15" class="edge">
<title>n32&#45;&gt;n33</title>
<path fill="none" stroke="black" d="M600.92,-56.43C600.92,-47.73 600.92,-36.52 600.92,-27.46"/>
<polygon fill="black" stroke="black" points="602.67,-27.54 600.92,-22.54 599.17,-27.54 602.67,-27.54"/>
</g>
<!-- n33&#45;&gt;n34 -->
<!-- n41 -->
<g id="node42" class="node">
<title>n41</title>
<polygon fill="none" stroke="black" points="828.92,-20.75 794.92,-20.75 794.92,0 828.92,0 828.92,-20.75"/>
<text text-anchor="start" x="802.92" y="-7.25" font-family="Menlo" font-size="10.00">/2/</text>
</g>
<!-- n34&#45;&gt;n41 -->
<!-- n36 -->
<g id="node37" class="node">
<title>n36</title>
<ellipse fill="none" stroke="black" cx="856.92" cy="-463.49" rx="83.44" ry="14.67"/>
<text text-anchor="start" x="805.92" y="-460.37" font-family="Menlo" font-size="10.00">postfixExpression</text>
</g>
<!-- n35&#45;&gt;n36 -->
<g id="edge30" class="edge">
<title>n35&#45;&gt;n36</title>
<path fill="none" stroke="black" d="M828.91,-513.78C833.9,-505 840.39,-493.58 845.87,-483.95"/>
<polygon fill="black" stroke="black" points="847.26,-485.04 848.21,-479.83 844.22,-483.31 847.26,-485.04"/>
</g>
<!-- n37 -->
<g id="node38" class="node">
<title>n37</title>
<ellipse fill="none" stroke="black" cx="860.92" cy="-398.15" rx="83.44" ry="14.67"/>
<text text-anchor="start" x="809.92" y="-395.02" font-family="Menlo" font-size="10.00">primaryExpression</text>
</g>
<!-- n36&#45;&gt;n37 -->
<g id="edge29" class="edge">
<title>n36&#45;&gt;n37</title>
<path fill="none" stroke="black" d="M857.81,-448.43C858.35,-439.9 859.05,-428.88 859.64,-419.42"/>
<polygon fill="black" stroke="black" points="861.37,-419.78 859.94,-414.68 857.88,-419.56 861.37,-419.78"/>
</g>
<!-- n38 -->
<g id="node39" class="node">
<title>n38</title>
<ellipse fill="none" stroke="black" cx="867.92" cy="-332.8" rx="83.44" ry="14.67"/>
<text text-anchor="start" x="816.92" y="-329.68" font-family="Menlo" font-size="10.00">literalExpression</text>
</g>
<!-- n37&#45;&gt;n38 -->
<g id="edge28" class="edge">
<title>n37&#45;&gt;n38</title>
<path fill="none" stroke="black" d="M862.48,-383.09C863.42,-374.56 864.64,-363.53 865.68,-354.07"/>
<polygon fill="black" stroke="black" points="867.4,-354.49 866.21,-349.33 863.92,-354.1 867.4,-354.49"/>
</g>
<!-- n39 -->
<g id="node40" class="node">
<title>n39</title>
<ellipse fill="none" stroke="black" cx="874.92" cy="-267.46" rx="41.01" ry="14.67"/>
<text text-anchor="start" x="853.92" y="-264.33" font-family="Menlo" font-size="10.00">literal</text>
</g>
<!-- n38&#45;&gt;n39 -->
<g id="edge27" class="edge">
<title>n38&#45;&gt;n39</title>
<path fill="none" stroke="black" d="M869.48,-317.74C870.42,-309.21 871.64,-298.19 872.68,-288.73"/>
<polygon fill="black" stroke="black" points="874.4,-289.14 873.21,-283.98 870.92,-288.76 874.4,-289.14"/>
</g>
<!-- n40 -->
<g id="node41" class="node">
<title>n40</title>
<ellipse fill="none" stroke="black" cx="882.92" cy="-202.11" rx="113.14" ry="14.67"/>
<text text-anchor="start" x="810.92" y="-198.99" font-family="Menlo" font-size="10.00">regularExpressionLiteral</text>
</g>
<!-- n39&#45;&gt;n40 -->
<g id="edge26" class="edge">
<title>n39&#45;&gt;n40</title>
<path fill="none" stroke="black" d="M876.7,-252.4C877.78,-243.87 879.17,-232.84 880.36,-223.38"/>
<polygon fill="black" stroke="black" points="882.07,-223.81 880.96,-218.63 878.6,-223.37 882.07,-223.81"/>
</g>
<!-- n40&#45;&gt;n41 -->
<g id="edge25" class="edge">
<title>n40&#45;&gt;n41</title>
<path fill="none" stroke="black" d="M877.7,-187.16C864.75,-152.53 831.19,-62.86 817.68,-26.77"/>
<polygon fill="black" stroke="black" points="819.47,-26.55 816.08,-22.48 816.19,-27.77 819.47,-26.55"/>
</g>
</g>
</svg>
