<?xml version="1.0" encoding="UTF-8" standalone="no"?>
<!DOCTYPE svg PUBLIC "-//W3C//DTD SVG 1.1//EN"
 "http://www.w3.org/Graphics/SVG/1.1/DTD/svg11.dtd">
<!-- Generated by graphviz version 9.0.0 (20230911.1827)
 -->
<!-- Title: Derivations Pages: 1 -->
<svg width="428pt" height="311pt"
 viewBox="0.00 0.00 428.38 310.88" xmlns="http://www.w3.org/2000/svg" xmlns:xlink="http://www.w3.org/1999/xlink">
<g id="graph0" class="graph" transform="scale(1 1) rotate(0) translate(4 306.88)">
<title>Derivations</title>
<polygon fill="white" stroke="none" points="-4,4 -4,-306.88 424.38,-306.88 424.38,4 -4,4"/>
<text text-anchor="start" x="123.19" y="-289.38" font-family="Menlo" font-size="10.00">grammar = { stringLiteral } .</text>
<!-- n0 -->
<g id="node1" class="node">
<title>n0</title>
<ellipse fill="none" stroke="black" cx="303" cy="-267.46" rx="41.01" ry="14.67"/>
<text text-anchor="start" x="282" y="-264.33" font-family="Menlo" font-size="10.00">grammar</text>
</g>
<!-- n1 -->
<g id="node2" class="node">
<title>n1</title>
<ellipse fill="none" stroke="black" cx="303" cy="-202.11" rx="66.47" ry="14.67"/>
<text text-anchor="start" x="264" y="-198.99" font-family="Menlo" font-size="10.00">stringLiteral</text>
</g>
<!-- n0&#45;&gt;n1 -->
<g id="edge6" class="edge">
<title>n0&#45;&gt;n1</title>
<path fill="none" stroke="black" d="M303,-252.4C303,-243.87 303,-232.84 303,-223.38"/>
<polygon fill="black" stroke="black" points="304.75,-223.64 303,-218.64 301.25,-223.64 304.75,-223.64"/>
</g>
<!-- n2 -->
<g id="node3" class="node">
<title>n2</title>
<ellipse fill="none" stroke="black" cx="303" cy="-136.77" rx="117.38" ry="14.67"/>
<text text-anchor="start" x="228" y="-133.64" font-family="Menlo" font-size="10.00">interpolatedStringLiteral</text>
</g>
<!-- n1&#45;&gt;n2 -->
<g id="edge5" class="edge">
<title>n1&#45;&gt;n2</title>
<path fill="none" stroke="black" d="M303,-187.05C303,-178.52 303,-167.5 303,-158.04"/>
<polygon fill="black" stroke="black" points="304.75,-158.3 303,-153.3 301.25,-158.3 304.75,-158.3"/>
</g>
<!-- n3 -->
<g id="node4" class="node">
<title>n3</title>
<polygon fill="none" stroke="black" points="292,-20.75 0,-20.75 0,0 292,0 292,-20.75"/>
<text text-anchor="start" x="8" y="-7.25" font-family="Menlo" font-size="10.00">&quot;Failed to create scanner for input string &#39;\(</text>
</g>
<!-- n2&#45;&gt;n3 -->
<g id="edge1" class="edge">
<title>n2&#45;&gt;n3</title>
<path fill="none" stroke="black" d="M285.33,-121.87C272.7,-111.92 255.29,-98.2 240,-86.09 213.11,-64.8 181.95,-40.02 163.13,-25.02"/>
<polygon fill="black" stroke="black" points="164.34,-23.75 159.34,-22.01 162.16,-26.49 164.34,-23.75"/>
</g>
<!-- n4 -->
<g id="node5" class="node">
<title>n4</title>
<ellipse fill="none" stroke="black" cx="303" cy="-71.42" rx="53.74" ry="14.67"/>
<text text-anchor="start" x="273" y="-68.3" font-family="Menlo" font-size="10.00">expression</text>
</g>
<!-- n2&#45;&gt;n4 -->
<g id="edge3" class="edge">
<title>n2&#45;&gt;n4</title>
<path fill="none" stroke="black" d="M303,-121.71C303,-113.18 303,-102.15 303,-92.69"/>
<polygon fill="black" stroke="black" points="304.75,-92.95 303,-87.96 301.25,-92.96 304.75,-92.95"/>
</g>
<!-- n6 -->
<g id="node7" class="node">
<title>n6</title>
<polygon fill="none" stroke="black" points="402,-20.75 368,-20.75 368,0 402,0 402,-20.75"/>
<text text-anchor="start" x="376" y="-7.25" font-family="Menlo" font-size="10.00">)&#39;&quot;</text>
</g>
<!-- n2&#45;&gt;n6 -->
<g id="edge4" class="edge">
<title>n2&#45;&gt;n6</title>
<path fill="none" stroke="black" d="M327.53,-121.94C340.78,-113.27 356.36,-100.93 366,-86.09 377.68,-68.12 382.18,-43.4 383.91,-27.4"/>
<polygon fill="black" stroke="black" points="385.64,-27.77 384.36,-22.63 382.15,-27.45 385.64,-27.77"/>
</g>
<!-- n5 -->
<g id="node6" class="node">
<title>n5</title>
<polygon fill="none" stroke="black" points="350,-20.75 310,-20.75 310,0 350,0 350,-20.75"/>
<text text-anchor="start" x="318" y="-7.25" font-family="Menlo" font-size="10.00">expr</text>
</g>
<!-- n3&#45;&gt;n5 -->
<!-- n4&#45;&gt;n5 -->
<g id="edge2" class="edge">
<title>n4&#45;&gt;n5</title>
<path fill="none" stroke="black" d="M309.4,-56.43C313.45,-47.56 318.7,-36.08 322.89,-26.93"/>
<polygon fill="black" stroke="black" points="324.47,-27.68 324.96,-22.4 321.29,-26.22 324.47,-27.68"/>
</g>
<!-- n5&#45;&gt;n6 -->
</g>
</svg>
