<?xml version="1.0" encoding="UTF-8" standalone="no"?>
<!DOCTYPE svg PUBLIC "-//W3C//DTD SVG 1.1//EN"
 "http://www.w3.org/Graphics/SVG/1.1/DTD/svg11.dtd">
<!-- Generated by graphviz version 9.0.0 (20230911.1827)
 -->
<!-- Title: Derivations Pages: 1 -->
<svg width="881pt" height="1291pt"
 viewBox="0.00 0.00 880.90 1291.05" xmlns="http://www.w3.org/2000/svg" xmlns:xlink="http://www.w3.org/1999/xlink">
<g id="graph0" class="graph" transform="scale(1 1) rotate(0) translate(4 1287.05)">
<title>Derivations</title>
<polygon fill="white" stroke="none" points="-4,4 -4,-1287.05 876.9,-1287.05 876.9,4 -4,4"/>
<text text-anchor="start" x="322.45" y="-1269.55" font-family="Menlo" font-size="10.00">topLevelDeclaration = [ statements ] .</text>
<!-- n0 -->
<g id="node1" class="node">
<title>n0</title>
<ellipse fill="none" stroke="black" cx="91.92" cy="-1247.63" rx="91.92" ry="14.67"/>
<text text-anchor="start" x="34.92" y="-1244.51" font-family="Menlo" font-size="10.00">topLevelDeclaration</text>
</g>
<!-- n1 -->
<g id="node2" class="node">
<title>n1</title>
<ellipse fill="none" stroke="black" cx="91.92" cy="-1182.29" rx="53.74" ry="14.67"/>
<text text-anchor="start" x="61.92" y="-1179.16" font-family="Menlo" font-size="10.00">statements</text>
</g>
<!-- n0&#45;&gt;n1 -->
<g id="edge42" class="edge">
<title>n0&#45;&gt;n1</title>
<path fill="none" stroke="black" d="M91.92,-1232.57C91.92,-1224.04 91.92,-1213.02 91.92,-1203.55"/>
<polygon fill="black" stroke="black" points="93.67,-1203.82 91.92,-1198.82 90.17,-1203.82 93.67,-1203.82"/>
</g>
<!-- n2 -->
<g id="node3" class="node">
<title>n2</title>
<ellipse fill="none" stroke="black" cx="91.92" cy="-1116.94" rx="49.5" ry="14.67"/>
<text text-anchor="start" x="64.92" y="-1113.82" font-family="Menlo" font-size="10.00">statement</text>
</g>
<!-- n1&#45;&gt;n2 -->
<g id="edge41" class="edge">
<title>n1&#45;&gt;n2</title>
<path fill="none" stroke="black" d="M91.92,-1167.23C91.92,-1158.7 91.92,-1147.67 91.92,-1138.21"/>
<polygon fill="black" stroke="black" points="93.67,-1138.47 91.92,-1133.47 90.17,-1138.47 93.67,-1138.47"/>
</g>
<!-- n3 -->
<g id="node4" class="node">
<title>n3</title>
<ellipse fill="none" stroke="black" cx="91.92" cy="-1051.6" rx="57.98" ry="14.67"/>
<text text-anchor="start" x="58.92" y="-1048.47" font-family="Menlo" font-size="10.00">declaration</text>
</g>
<!-- n2&#45;&gt;n3 -->
<g id="edge40" class="edge">
<title>n2&#45;&gt;n3</title>
<path fill="none" stroke="black" d="M91.92,-1101.88C91.92,-1093.35 91.92,-1082.33 91.92,-1072.87"/>
<polygon fill="black" stroke="black" points="93.67,-1073.13 91.92,-1068.13 90.17,-1073.13 93.67,-1073.13"/>
</g>
<!-- n4 -->
<g id="node5" class="node">
<title>n4</title>
<ellipse fill="none" stroke="black" cx="91.92" cy="-986.25" rx="74.95" ry="14.67"/>
<text text-anchor="start" x="46.92" y="-983.13" font-family="Menlo" font-size="10.00">enumDeclaration</text>
</g>
<!-- n3&#45;&gt;n4 -->
<g id="edge39" class="edge">
<title>n3&#45;&gt;n4</title>
<path fill="none" stroke="black" d="M91.92,-1036.54C91.92,-1028.01 91.92,-1016.98 91.92,-1007.52"/>
<polygon fill="black" stroke="black" points="93.67,-1007.78 91.92,-1002.78 90.17,-1007.78 93.67,-1007.78"/>
</g>
<!-- n5 -->
<g id="node6" class="node">
<title>n5</title>
<ellipse fill="none" stroke="black" cx="91.92" cy="-920.91" rx="70.71" ry="14.67"/>
<text text-anchor="start" x="49.92" y="-917.78" font-family="Menlo" font-size="10.00">unionStyleEnum</text>
</g>
<!-- n4&#45;&gt;n5 -->
<g id="edge38" class="edge">
<title>n4&#45;&gt;n5</title>
<path fill="none" stroke="black" d="M91.92,-971.19C91.92,-962.66 91.92,-951.64 91.92,-942.18"/>
<polygon fill="black" stroke="black" points="93.67,-942.44 91.92,-937.44 90.17,-942.44 93.67,-942.44"/>
</g>
<!-- n6 -->
<g id="node7" class="node">
<title>n6</title>
<polygon fill="none" stroke="black" points="75.92,-20.75 35.92,-20.75 35.92,0 75.92,0 75.92,-20.75"/>
<text text-anchor="start" x="43.92" y="-7.25" font-family="Menlo" font-size="10.00">enum</text>
</g>
<!-- n5&#45;&gt;n6 -->
<g id="edge1" class="edge">
<title>n5&#45;&gt;n6</title>
<path fill="none" stroke="black" d="M91.09,-905.85C88.87,-866.9 82.92,-754.25 82.92,-660.53 82.92,-660.53 82.92,-660.53 82.92,-593.18 82.92,-419.54 60.92,-376.75 60.92,-203.11 60.92,-203.11 60.92,-203.11 60.92,-135.77 60.92,-96.82 58.45,-51.06 56.98,-27.39"/>
<polygon fill="black" stroke="black" points="58.74,-27.44 56.67,-22.56 55.24,-27.66 58.74,-27.44"/>
</g>
<!-- n7 -->
<g id="node8" class="node">
<title>n7</title>
<ellipse fill="none" stroke="black" cx="164.92" cy="-855.56" rx="45.25" ry="14.67"/>
<text text-anchor="start" x="140.92" y="-852.44" font-family="Menlo" font-size="10.00">enumName</text>
</g>
<!-- n5&#45;&gt;n7 -->
<g id="edge4" class="edge">
<title>n5&#45;&gt;n7</title>
<path fill="none" stroke="black" d="M107.76,-906.16C118.62,-896.74 133.12,-884.16 144.8,-874.02"/>
<polygon fill="black" stroke="black" points="145.84,-875.44 148.47,-870.84 143.55,-872.79 145.84,-875.44"/>
</g>
<!-- n10 -->
<g id="node11" class="node">
<title>n10</title>
<ellipse fill="none" stroke="black" cx="246.92" cy="-332.8" rx="100.41" ry="14.67"/>
<text text-anchor="start" x="183.92" y="-329.68" font-family="Menlo" font-size="10.00">typeInheritanceClause</text>
</g>
<!-- n5&#45;&gt;n10 -->
<g id="edge11" class="edge">
<title>n5&#45;&gt;n10</title>
<path fill="none" stroke="black" d="M143.06,-910.47C168.8,-903.34 198.75,-891.07 218.92,-870.23 244.84,-843.47 246.92,-828.48 246.92,-791.22 246.92,-791.22 246.92,-791.22 246.92,-462.49 246.92,-424.14 246.92,-379.36 246.92,-354.01"/>
<polygon fill="black" stroke="black" points="248.67,-354.22 246.92,-349.22 245.17,-354.22 248.67,-354.22"/>
</g>
<!-- n17 -->
<g id="node18" class="node">
<title>n17</title>
<polygon fill="none" stroke="black" points="363.92,-20.75 341.92,-20.75 341.92,0 363.92,0 363.92,-20.75"/>
<text text-anchor="start" x="349.92" y="-7.25" font-family="Menlo" font-size="10.00">{</text>
</g>
<!-- n5&#45;&gt;n17 -->
<g id="edge12" class="edge">
<title>n5&#45;&gt;n17</title>
<path fill="none" stroke="black" d="M149.08,-912C180.02,-905.26 217.26,-892.88 243.92,-870.23 274.08,-844.62 284.92,-830.78 284.92,-791.22 284.92,-791.22 284.92,-791.22 284.92,-527.84 284.92,-441.69 333.8,-430.73 355.92,-347.47 372.58,-284.81 376.92,-267.95 376.92,-203.11 376.92,-203.11 376.92,-203.11 376.92,-135.77 376.92,-96.16 365.05,-50.73 358.01,-27.26"/>
<polygon fill="black" stroke="black" points="359.74,-26.96 356.6,-22.69 356.4,-27.99 359.74,-26.96"/>
</g>
<!-- n18 -->
<g id="node19" class="node">
<title>n18</title>
<ellipse fill="none" stroke="black" cx="412.92" cy="-855.56" rx="100.41" ry="14.67"/>
<text text-anchor="start" x="349.92" y="-852.44" font-family="Menlo" font-size="10.00">unionStyleEnumMembers</text>
</g>
<!-- n5&#45;&gt;n18 -->
<g id="edge36" class="edge">
<title>n5&#45;&gt;n18</title>
<path fill="none" stroke="black" d="M141.73,-910.08C197.49,-899.08 287.99,-881.21 348.95,-869.19"/>
<polygon fill="black" stroke="black" points="349.07,-870.95 353.64,-868.26 348.39,-867.51 349.07,-870.95"/>
</g>
<!-- n42 -->
<g id="node43" class="node">
<title>n42</title>
<polygon fill="none" stroke="black" points="790.92,-20.75 768.92,-20.75 768.92,0 790.92,0 790.92,-20.75"/>
<text text-anchor="start" x="776.92" y="-7.25" font-family="Menlo" font-size="10.00">}</text>
</g>
<!-- n5&#45;&gt;n42 -->
<g id="edge37" class="edge">
<title>n5&#45;&gt;n42</title>
<path fill="none" stroke="black" d="M162.24,-919.02C268.45,-916.5 463.61,-906.85 521.92,-870.23 754.82,-724 754.61,-604.29 852.92,-347.47 888.77,-253.83 870.23,-218.57 842.92,-122.09 834.65,-92.87 838.22,-82.99 822.92,-56.75 815.91,-44.72 805.14,-33.36 796.12,-25.01"/>
<polygon fill="black" stroke="black" points="797.35,-23.76 792.46,-21.71 795,-26.36 797.35,-23.76"/>
</g>
<!-- n9 -->
<g id="node10" class="node">
<title>n9</title>
<polygon fill="none" stroke="black" points="115.92,-20.75 93.92,-20.75 93.92,0 115.92,0 115.92,-20.75"/>
<text text-anchor="start" x="101.92" y="-7.25" font-family="Menlo" font-size="10.00">A</text>
</g>
<!-- n6&#45;&gt;n9 -->
<!-- n8 -->
<g id="node9" class="node">
<title>n8</title>
<ellipse fill="none" stroke="black" cx="164.92" cy="-724.87" rx="53.74" ry="14.67"/>
<text text-anchor="start" x="134.92" y="-721.75" font-family="Menlo" font-size="10.00">identifier</text>
</g>
<!-- n7&#45;&gt;n8 -->
<g id="edge3" class="edge">
<title>n7&#45;&gt;n8</title>
<path fill="none" stroke="black" d="M164.92,-840.79C164.92,-818.08 164.92,-772.65 164.92,-746.22"/>
<polygon fill="black" stroke="black" points="166.67,-746.45 164.92,-741.45 163.17,-746.45 166.67,-746.45"/>
</g>
<!-- n8&#45;&gt;n9 -->
<g id="edge2" class="edge">
<title>n8&#45;&gt;n9</title>
<path fill="none" stroke="black" d="M161.83,-709.87C148.78,-649.57 98.92,-405.88 98.92,-203.11 98.92,-203.11 98.92,-203.11 98.92,-135.77 98.92,-96.8 101.9,-51.06 103.66,-27.38"/>
<polygon fill="black" stroke="black" points="105.39,-27.67 104.02,-22.55 101.9,-27.41 105.39,-27.67"/>
</g>
<!-- n11 -->
<g id="node12" class="node">
<title>n11</title>
<polygon fill="none" stroke="black" points="155.92,-20.75 133.92,-20.75 133.92,0 155.92,0 155.92,-20.75"/>
<text text-anchor="start" x="141.92" y="-7.25" font-family="Menlo" font-size="10.00">:</text>
</g>
<!-- n9&#45;&gt;n11 -->
<!-- n10&#45;&gt;n11 -->
<g id="edge5" class="edge">
<title>n10&#45;&gt;n11</title>
<path fill="none" stroke="black" d="M207.82,-318.96C189.53,-311.06 168.95,-299.13 155.92,-282.13 133.96,-253.45 136.92,-239.23 136.92,-203.11 136.92,-203.11 136.92,-203.11 136.92,-135.77 136.92,-96.77 140.89,-51.03 143.24,-27.37"/>
<polygon fill="black" stroke="black" points="144.96,-27.7 143.73,-22.54 141.48,-27.34 144.96,-27.7"/>
</g>
<!-- n12 -->
<g id="node13" class="node">
<title>n12</title>
<ellipse fill="none" stroke="black" cx="256.92" cy="-267.46" rx="91.92" ry="14.67"/>
<text text-anchor="start" x="199.92" y="-264.33" font-family="Menlo" font-size="10.00">typeInheritanceList</text>
</g>
<!-- n10&#45;&gt;n12 -->
<g id="edge10" class="edge">
<title>n10&#45;&gt;n12</title>
<path fill="none" stroke="black" d="M249.14,-317.74C250.49,-309.21 252.23,-298.19 253.72,-288.73"/>
<polygon fill="black" stroke="black" points="255.42,-289.18 254.47,-283.97 251.97,-288.64 255.42,-289.18"/>
</g>
<!-- n16 -->
<g id="node17" class="node">
<title>n16</title>
<polygon fill="none" stroke="black" points="229.92,-20.75 207.92,-20.75 207.92,0 229.92,0 229.92,-20.75"/>
<text text-anchor="start" x="215.92" y="-7.25" font-family="Menlo" font-size="10.00">E</text>
</g>
<!-- n11&#45;&gt;n16 -->
<!-- n13 -->
<g id="node14" class="node">
<title>n13</title>
<ellipse fill="none" stroke="black" cx="246.92" cy="-202.11" rx="70.71" ry="14.67"/>
<text text-anchor="start" x="204.92" y="-198.99" font-family="Menlo" font-size="10.00">typeIdentifier</text>
</g>
<!-- n12&#45;&gt;n13 -->
<g id="edge9" class="edge">
<title>n12&#45;&gt;n13</title>
<path fill="none" stroke="black" d="M254.7,-252.4C253.36,-243.87 251.62,-232.84 250.12,-223.38"/>
<polygon fill="black" stroke="black" points="251.88,-223.29 249.37,-218.63 248.42,-223.84 251.88,-223.29"/>
</g>
<!-- n14 -->
<g id="node15" class="node">
<title>n14</title>
<ellipse fill="none" stroke="black" cx="232.92" cy="-136.77" rx="45.25" ry="14.67"/>
<text text-anchor="start" x="208.92" y="-133.64" font-family="Menlo" font-size="10.00">typeName</text>
</g>
<!-- n13&#45;&gt;n14 -->
<g id="edge8" class="edge">
<title>n13&#45;&gt;n14</title>
<path fill="none" stroke="black" d="M243.82,-187.05C241.93,-178.52 239.49,-167.5 237.4,-158.04"/>
<polygon fill="black" stroke="black" points="239.14,-157.77 236.35,-153.26 235.72,-158.52 239.14,-157.77"/>
</g>
<!-- n15 -->
<g id="node16" class="node">
<title>n15</title>
<ellipse fill="none" stroke="black" cx="218.92" cy="-71.42" rx="53.74" ry="14.67"/>
<text text-anchor="start" x="188.92" y="-68.3" font-family="Menlo" font-size="10.00">identifier</text>
</g>
<!-- n14&#45;&gt;n15 -->
<g id="edge7" class="edge">
<title>n14&#45;&gt;n15</title>
<path fill="none" stroke="black" d="M229.82,-121.71C227.93,-113.18 225.49,-102.15 223.4,-92.69"/>
<polygon fill="black" stroke="black" points="225.14,-92.42 222.35,-87.92 221.72,-93.18 225.14,-92.42"/>
</g>
<!-- n15&#45;&gt;n16 -->
<g id="edge6" class="edge">
<title>n15&#45;&gt;n16</title>
<path fill="none" stroke="black" d="M218.92,-56.43C218.92,-47.73 218.92,-36.52 218.92,-27.46"/>
<polygon fill="black" stroke="black" points="220.67,-27.54 218.92,-22.54 217.17,-27.54 220.67,-27.54"/>
</g>
<!-- n16&#45;&gt;n17 -->
<!-- n21 -->
<g id="node22" class="node">
<title>n21</title>
<polygon fill="none" stroke="black" points="421.92,-20.75 381.92,-20.75 381.92,0 421.92,0 421.92,-20.75"/>
<text text-anchor="start" x="389.92" y="-7.25" font-family="Menlo" font-size="10.00">case</text>
</g>
<!-- n17&#45;&gt;n21 -->
<!-- n19 -->
<g id="node20" class="node">
<title>n19</title>
<ellipse fill="none" stroke="black" cx="412.92" cy="-790.22" rx="96.17" ry="14.67"/>
<text text-anchor="start" x="352.92" y="-787.09" font-family="Menlo" font-size="10.00">unionStyleEnumMember</text>
</g>
<!-- n18&#45;&gt;n19 -->
<g id="edge35" class="edge">
<title>n18&#45;&gt;n19</title>
<path fill="none" stroke="black" d="M412.92,-840.5C412.92,-831.97 412.92,-820.95 412.92,-811.49"/>
<polygon fill="black" stroke="black" points="414.67,-811.75 412.92,-806.75 411.17,-811.75 414.67,-811.75"/>
</g>
<!-- n20 -->
<g id="node21" class="node">
<title>n20</title>
<ellipse fill="none" stroke="black" cx="447.92" cy="-724.87" rx="113.14" ry="14.67"/>
<text text-anchor="start" x="375.92" y="-721.75" font-family="Menlo" font-size="10.00">unionStyleEnumCaseClause</text>
</g>
<!-- n19&#45;&gt;n20 -->
<g id="edge34" class="edge">
<title>n19&#45;&gt;n20</title>
<path fill="none" stroke="black" d="M420.69,-775.16C425.54,-766.38 431.85,-754.96 437.17,-745.33"/>
<polygon fill="black" stroke="black" points="438.56,-746.44 439.45,-741.22 435.5,-744.75 438.56,-746.44"/>
</g>
<!-- n20&#45;&gt;n21 -->
<g id="edge13" class="edge">
<title>n20&#45;&gt;n21</title>
<path fill="none" stroke="black" d="M393.85,-711.63C374.02,-704.24 353.59,-692.55 341.92,-674.2 334.93,-663.19 341.08,-657.87 341.92,-644.85 345.26,-593.41 356.92,-581.39 356.92,-529.84 356.92,-529.84 356.92,-529.84 356.92,-462.49 356.92,-426.37 365.13,-417.94 375.92,-383.47 392.05,-331.96 414.92,-322.43 414.92,-268.46 414.92,-268.46 414.92,-268.46 414.92,-135.77 414.92,-96.64 408.48,-50.96 404.67,-27.34"/>
<polygon fill="black" stroke="black" points="406.41,-27.16 403.87,-22.51 402.96,-27.73 406.41,-27.16"/>
</g>
<!-- n22 -->
<g id="node23" class="node">
<title>n22</title>
<ellipse fill="none" stroke="black" cx="455.92" cy="-659.53" rx="104.65" ry="14.67"/>
<text text-anchor="start" x="389.92" y="-656.4" font-family="Menlo" font-size="10.00">unionStyleEnumCaseList</text>
</g>
<!-- n20&#45;&gt;n22 -->
<g id="edge33" class="edge">
<title>n20&#45;&gt;n22</title>
<path fill="none" stroke="black" d="M449.7,-709.81C450.78,-701.28 452.17,-690.26 453.36,-680.8"/>
<polygon fill="black" stroke="black" points="455.07,-681.23 453.96,-676.05 451.6,-680.79 455.07,-681.23"/>
</g>
<!-- n26 -->
<g id="node27" class="node">
<title>n26</title>
<polygon fill="none" stroke="black" points="461.92,-20.75 439.92,-20.75 439.92,0 461.92,0 461.92,-20.75"/>
<text text-anchor="start" x="447.92" y="-7.25" font-family="Menlo" font-size="10.00">c</text>
</g>
<!-- n21&#45;&gt;n26 -->
<!-- n23 -->
<g id="node24" class="node">
<title>n23</title>
<ellipse fill="none" stroke="black" cx="472.92" cy="-594.18" rx="87.68" ry="14.67"/>
<text text-anchor="start" x="418.92" y="-591.06" font-family="Menlo" font-size="10.00">unionStyleEnumCase</text>
</g>
<!-- n22&#45;&gt;n23 -->
<g id="edge32" class="edge">
<title>n22&#45;&gt;n23</title>
<path fill="none" stroke="black" d="M459.7,-644.47C461.99,-635.94 464.95,-624.91 467.48,-615.45"/>
<polygon fill="black" stroke="black" points="469.16,-615.95 468.77,-610.66 465.78,-615.04 469.16,-615.95"/>
</g>
<!-- n24 -->
<g id="node25" class="node">
<title>n24</title>
<ellipse fill="none" stroke="black" cx="448.92" cy="-528.84" rx="62.23" ry="14.67"/>
<text text-anchor="start" x="412.92" y="-525.71" font-family="Menlo" font-size="10.00">enumCaseName</text>
</g>
<!-- n23&#45;&gt;n24 -->
<g id="edge16" class="edge">
<title>n23&#45;&gt;n24</title>
<path fill="none" stroke="black" d="M467.6,-579.12C464.33,-570.51 460.11,-559.35 456.5,-549.83"/>
<polygon fill="black" stroke="black" points="458.18,-549.33 454.77,-545.27 454.91,-550.57 458.18,-549.33"/>
</g>
<!-- n27 -->
<g id="node28" class="node">
<title>n27</title>
<ellipse fill="none" stroke="black" cx="608.92" cy="-528.84" rx="79.2" ry="14.67"/>
<text text-anchor="start" x="560.92" y="-525.71" font-family="Menlo" font-size="10.00">associatedValues</text>
</g>
<!-- n23&#45;&gt;n27 -->
<g id="edge31" class="edge">
<title>n23&#45;&gt;n27</title>
<path fill="none" stroke="black" d="M501.43,-579.9C522.88,-569.91 552.36,-556.18 575.02,-545.63"/>
<polygon fill="black" stroke="black" points="575.75,-547.22 579.55,-543.52 574.27,-544.05 575.75,-547.22"/>
</g>
<!-- n25 -->
<g id="node26" class="node">
<title>n25</title>
<ellipse fill="none" stroke="black" cx="438.92" cy="-398.15" rx="53.74" ry="14.67"/>
<text text-anchor="start" x="408.92" y="-395.02" font-family="Menlo" font-size="10.00">identifier</text>
</g>
<!-- n24&#45;&gt;n25 -->
<g id="edge15" class="edge">
<title>n24&#45;&gt;n25</title>
<path fill="none" stroke="black" d="M447.85,-514.06C446.09,-491.35 442.56,-445.92 440.5,-419.49"/>
<polygon fill="black" stroke="black" points="442.27,-419.57 440.13,-414.72 438.78,-419.84 442.27,-419.57"/>
</g>
<!-- n25&#45;&gt;n26 -->
<g id="edge14" class="edge">
<title>n25&#45;&gt;n26</title>
<path fill="none" stroke="black" d="M441.43,-383.3C445.45,-359.78 452.92,-310.48 452.92,-268.46 452.92,-268.46 452.92,-268.46 452.92,-135.77 452.92,-96.84 451.93,-51.08 451.35,-27.39"/>
<polygon fill="black" stroke="black" points="453.1,-27.52 451.22,-22.56 449.6,-27.61 453.1,-27.52"/>
</g>
<!-- n28 -->
<g id="node29" class="node">
<title>n28</title>
<polygon fill="none" stroke="black" points="501.92,-20.75 479.92,-20.75 479.92,0 501.92,0 501.92,-20.75"/>
<text text-anchor="start" x="487.92" y="-7.25" font-family="Menlo" font-size="10.00">(</text>
</g>
<!-- n26&#45;&gt;n28 -->
<!-- n27&#45;&gt;n28 -->
<g id="edge17" class="edge">
<title>n27&#45;&gt;n28</title>
<path fill="none" stroke="black" d="M561.2,-516.74C540.62,-509.37 518.43,-497.38 505.92,-478.16 504.35,-475.75 493.72,-108.66 491.38,-27.24"/>
<polygon fill="black" stroke="black" points="493.14,-27.53 491.24,-22.58 489.64,-27.63 493.14,-27.53"/>
</g>
<!-- n29 -->
<g id="node30" class="node">
<title>n29</title>
<ellipse fill="none" stroke="black" cx="610.92" cy="-463.49" rx="96.17" ry="14.67"/>
<text text-anchor="start" x="550.92" y="-460.37" font-family="Menlo" font-size="10.00">tupleTypeElementList</text>
</g>
<!-- n27&#45;&gt;n29 -->
<g id="edge29" class="edge">
<title>n27&#45;&gt;n29</title>
<path fill="none" stroke="black" d="M609.37,-513.78C609.64,-505.25 609.99,-494.22 610.28,-484.76"/>
<polygon fill="black" stroke="black" points="612.02,-485.08 610.43,-480.02 608.53,-484.97 612.02,-485.08"/>
</g>
<!-- n41 -->
<g id="node42" class="node">
<title>n41</title>
<polygon fill="none" stroke="black" points="673.92,-20.75 651.92,-20.75 651.92,0 673.92,0 673.92,-20.75"/>
<text text-anchor="start" x="659.92" y="-7.25" font-family="Menlo" font-size="10.00">)</text>
</g>
<!-- n27&#45;&gt;n41 -->
<g id="edge30" class="edge">
<title>n27&#45;&gt;n41</title>
<path fill="none" stroke="black" d="M651.19,-516.03C672.79,-508.22 698.19,-496.05 715.92,-478.16 748.47,-445.35 726.59,-416.5 758.92,-383.47 784.79,-357.05 814.23,-378.77 833.92,-347.47 868.57,-292.42 844.39,-104.22 799.92,-56.75 768.05,-22.72 710.13,-14.19 680.87,-12.07"/>
<polygon fill="black" stroke="black" points="681.02,-10.32 675.92,-11.76 680.8,-13.82 681.02,-10.32"/>
</g>
<!-- n33 -->
<g id="node34" class="node">
<title>n33</title>
<polygon fill="none" stroke="black" points="541.92,-20.75 519.92,-20.75 519.92,0 541.92,0 541.92,-20.75"/>
<text text-anchor="start" x="527.92" y="-7.25" font-family="Menlo" font-size="10.00">s</text>
</g>
<!-- n28&#45;&gt;n33 -->
<!-- n30 -->
<g id="node31" class="node">
<title>n30</title>
<ellipse fill="none" stroke="black" cx="627.92" cy="-398.15" rx="79.2" ry="14.67"/>
<text text-anchor="start" x="579.92" y="-395.02" font-family="Menlo" font-size="10.00">tupleTypeElement</text>
</g>
<!-- n29&#45;&gt;n30 -->
<g id="edge28" class="edge">
<title>n29&#45;&gt;n30</title>
<path fill="none" stroke="black" d="M614.7,-448.43C616.99,-439.9 619.95,-428.88 622.48,-419.42"/>
<polygon fill="black" stroke="black" points="624.16,-419.91 623.77,-414.63 620.78,-419 624.16,-419.91"/>
</g>
<!-- n31 -->
<g id="node32" class="node">
<title>n31</title>
<ellipse fill="none" stroke="black" cx="606.92" cy="-332.8" rx="57.98" ry="14.67"/>
<text text-anchor="start" x="573.92" y="-329.68" font-family="Menlo" font-size="10.00">elementName</text>
</g>
<!-- n30&#45;&gt;n31 -->
<g id="edge20" class="edge">
<title>n30&#45;&gt;n31</title>
<path fill="none" stroke="black" d="M623.26,-383.09C620.41,-374.48 616.71,-363.32 613.55,-353.8"/>
<polygon fill="black" stroke="black" points="615.28,-353.45 612.05,-349.26 611.96,-354.55 615.28,-353.45"/>
</g>
<!-- n34 -->
<g id="node35" class="node">
<title>n34</title>
<ellipse fill="none" stroke="black" cx="753.92" cy="-332.8" rx="70.71" ry="14.67"/>
<text text-anchor="start" x="711.92" y="-329.68" font-family="Menlo" font-size="10.00">typeAnnotation</text>
</g>
<!-- n30&#45;&gt;n34 -->
<g id="edge27" class="edge">
<title>n30&#45;&gt;n34</title>
<path fill="none" stroke="black" d="M654.34,-383.87C674.13,-373.92 701.28,-360.27 722.24,-349.73"/>
<polygon fill="black" stroke="black" points="722.94,-351.34 726.62,-347.53 721.37,-348.21 722.94,-351.34"/>
</g>
<!-- n32 -->
<g id="node33" class="node">
<title>n32</title>
<ellipse fill="none" stroke="black" cx="572.92" cy="-202.11" rx="53.74" ry="14.67"/>
<text text-anchor="start" x="542.92" y="-198.99" font-family="Menlo" font-size="10.00">identifier</text>
</g>
<!-- n31&#45;&gt;n32 -->
<g id="edge19" class="edge">
<title>n31&#45;&gt;n32</title>
<path fill="none" stroke="black" d="M603.29,-318.03C597.28,-295.32 585.28,-249.89 578.3,-223.46"/>
<polygon fill="black" stroke="black" points="580,-223.03 577.03,-218.64 576.61,-223.92 580,-223.03"/>
</g>
<!-- n32&#45;&gt;n33 -->
<g id="edge18" class="edge">
<title>n32&#45;&gt;n33</title>
<path fill="none" stroke="black" d="M569.84,-187.16C562.2,-152.68 542.49,-63.6 534.43,-27.22"/>
<polygon fill="black" stroke="black" points="536.18,-27.04 533.39,-22.54 532.77,-27.8 536.18,-27.04"/>
</g>
<!-- n35 -->
<g id="node36" class="node">
<title>n35</title>
<polygon fill="none" stroke="black" points="581.92,-20.75 559.92,-20.75 559.92,0 581.92,0 581.92,-20.75"/>
<text text-anchor="start" x="567.92" y="-7.25" font-family="Menlo" font-size="10.00">:</text>
</g>
<!-- n33&#45;&gt;n35 -->
<!-- n34&#45;&gt;n35 -->
<g id="edge21" class="edge">
<title>n34&#45;&gt;n35</title>
<path fill="none" stroke="black" d="M733.41,-318.27C704.41,-297.34 654.92,-254.13 654.92,-203.11 654.92,-203.11 654.92,-203.11 654.92,-135.77 654.92,-87.84 611.57,-44.57 587.15,-24.01"/>
<polygon fill="black" stroke="black" points="588.39,-22.76 583.42,-20.93 586.17,-25.46 588.39,-22.76"/>
</g>
<!-- n36 -->
<g id="node37" class="node">
<title>n36</title>
<ellipse fill="none" stroke="black" cx="753.92" cy="-267.46" rx="28.28" ry="14.67"/>
<text text-anchor="start" x="741.92" y="-264.33" font-family="Menlo" font-size="10.00">type</text>
</g>
<!-- n34&#45;&gt;n36 -->
<g id="edge26" class="edge">
<title>n34&#45;&gt;n36</title>
<path fill="none" stroke="black" d="M753.92,-317.74C753.92,-309.21 753.92,-298.19 753.92,-288.73"/>
<polygon fill="black" stroke="black" points="755.67,-288.99 753.92,-283.99 752.17,-288.99 755.67,-288.99"/>
</g>
<!-- n40 -->
<g id="node41" class="node">
<title>n40</title>
<polygon fill="none" stroke="black" points="633.92,-20.75 599.92,-20.75 599.92,0 633.92,0 633.92,-20.75"/>
<text text-anchor="start" x="607.92" y="-7.25" font-family="Menlo" font-size="10.00">Int</text>
</g>
<!-- n35&#45;&gt;n40 -->
<!-- n37 -->
<g id="node38" class="node">
<title>n37</title>
<ellipse fill="none" stroke="black" cx="753.92" cy="-202.11" rx="70.71" ry="14.67"/>
<text text-anchor="start" x="711.92" y="-198.99" font-family="Menlo" font-size="10.00">typeIdentifier</text>
</g>
<!-- n36&#45;&gt;n37 -->
<g id="edge25" class="edge">
<title>n36&#45;&gt;n37</title>
<path fill="none" stroke="black" d="M753.92,-252.4C753.92,-243.87 753.92,-232.84 753.92,-223.38"/>
<polygon fill="black" stroke="black" points="755.67,-223.64 753.92,-218.64 752.17,-223.64 755.67,-223.64"/>
</g>
<!-- n38 -->
<g id="node39" class="node">
<title>n38</title>
<ellipse fill="none" stroke="black" cx="741.92" cy="-136.77" rx="45.25" ry="14.67"/>
<text text-anchor="start" x="717.92" y="-133.64" font-family="Menlo" font-size="10.00">typeName</text>
</g>
<!-- n37&#45;&gt;n38 -->
<g id="edge24" class="edge">
<title>n37&#45;&gt;n38</title>
<path fill="none" stroke="black" d="M751.26,-187.05C749.64,-178.52 747.56,-167.5 745.76,-158.04"/>
<polygon fill="black" stroke="black" points="747.51,-157.86 744.86,-153.27 744.07,-158.51 747.51,-157.86"/>
</g>
<!-- n39 -->
<g id="node40" class="node">
<title>n39</title>
<ellipse fill="none" stroke="black" cx="736.92" cy="-71.42" rx="53.74" ry="14.67"/>
<text text-anchor="start" x="706.92" y="-68.3" font-family="Menlo" font-size="10.00">identifier</text>
</g>
<!-- n38&#45;&gt;n39 -->
<g id="edge23" class="edge">
<title>n38&#45;&gt;n39</title>
<path fill="none" stroke="black" d="M740.81,-121.71C740.14,-113.18 739.27,-102.15 738.52,-92.69"/>
<polygon fill="black" stroke="black" points="740.29,-92.8 738.15,-87.95 736.8,-93.07 740.29,-92.8"/>
</g>
<!-- n39&#45;&gt;n40 -->
<g id="edge22" class="edge">
<title>n39&#45;&gt;n40</title>
<path fill="none" stroke="black" d="M711.77,-58.04C690.63,-47.64 660.65,-32.89 640.09,-22.77"/>
<polygon fill="black" stroke="black" points="640.91,-21.23 635.65,-20.59 639.36,-24.37 640.91,-21.23"/>
</g>
<!-- n40&#45;&gt;n41 -->
<!-- n41&#45;&gt;n42 -->
</g>
</svg>
