<?xml version="1.0" encoding="UTF-8" standalone="no"?>
<!DOCTYPE svg PUBLIC "-//W3C//DTD SVG 1.1//EN"
 "http://www.w3.org/Graphics/SVG/1.1/DTD/svg11.dtd">
<!-- Generated by graphviz version 9.0.0 (20230911.1827)
 -->
<!-- Title: G Pages: 1 -->
<svg width="358pt" height="289pt"
 viewBox="0.00 0.00 358.00 289.04" xmlns="http://www.w3.org/2000/svg" xmlns:xlink="http://www.w3.org/1999/xlink">
<g id="graph0" class="graph" transform="scale(1 1) rotate(0) translate(4 285.04)">
<title>G</title>
<polygon fill="white" stroke="none" points="-4,4 -4,-285.04 354,-285.04 354,4 -4,4"/>
<g id="clust1" class="cluster">
<title>GSS</title>
<polygon fill="none" stroke="black" points="8,-8 8,-267.65 78,-267.65 78,-8 8,-8"/>
<text text-anchor="start" x="16" y="-254.15" font-family="Menlo" font-size="10.00" fill="red">↵a↵</text>
</g>
<g id="clust2" class="cluster">
<title>S</title>
<polygon fill="none" stroke="black" points="86,-126.75 86,-273.04 342,-273.04 342,-126.75 86,-126.75"/>
<text text-anchor="start" x="94" y="-259.54" font-family="Menlo" font-size="10.00">S = &quot;&quot; &quot;&quot; &quot;a&quot;</text>
</g>
<!-- D1 -->
<g id="node1" class="node">
<title>D1</title>
<path fill="none" stroke="gray" d="M61.33,-98.75C61.33,-98.75 24.67,-98.75 24.67,-98.75 20.33,-98.75 16,-94.42 16,-90.08 16,-90.08 16,-81.42 16,-81.42 16,-77.08 20.33,-72.75 24.67,-72.75 24.67,-72.75 61.33,-72.75 61.33,-72.75 65.67,-72.75 70,-77.08 70,-81.42 70,-81.42 70,-90.08 70,-90.08 70,-94.42 65.67,-98.75 61.33,-98.75"/>
<text text-anchor="start" x="37" y="-86.25" font-family="Menlo" font-size="10.00">D1</text>
<text text-anchor="start" x="40.75" y="-78.15" font-family="Menlo" font-size="8.00" fill="gray"> </text>
</g>
<!-- A1 -->
<g id="node2" class="node">
<title>A1</title>
<path fill="none" stroke="gray" d="M63.08,-36.75C63.08,-36.75 22.92,-36.75 22.92,-36.75 19.46,-36.75 16,-33.29 16,-29.83 16,-29.83 16,-22.92 16,-22.92 16,-19.46 19.46,-16 22.92,-16 22.92,-16 63.08,-16 63.08,-16 66.54,-16 70,-19.46 70,-22.92 70,-22.92 70,-29.83 70,-29.83 70,-33.29 66.54,-36.75 63.08,-36.75"/>
<text text-anchor="middle" x="43" y="-23.25" font-family="Menlo" font-size="10.00">A1</text>
</g>
<!-- D1&#45;&gt;A1 -->
<g id="edge1" class="edge">
<title>D1&#45;&gt;A1</title>
<path fill="none" stroke="gray" d="M43,-72.3C43,-63.9 43,-52.72 43,-43.62"/>
<polygon fill="gray" stroke="gray" points="44.75,-43.65 43,-38.65 41.25,-43.65 44.75,-43.65"/>
</g>
<!-- C1 -->
<g id="node3" class="node">
<title>C1</title>
<path fill="none" stroke="gray" d="M61.33,-166.13C61.33,-166.13 24.67,-166.13 24.67,-166.13 20.33,-166.13 16,-161.8 16,-157.47 16,-157.47 16,-148.8 16,-148.8 16,-144.47 20.33,-140.13 24.67,-140.13 24.67,-140.13 61.33,-140.13 61.33,-140.13 65.67,-140.13 70,-144.47 70,-148.8 70,-148.8 70,-157.47 70,-157.47 70,-161.8 65.67,-166.13 61.33,-166.13"/>
<text text-anchor="start" x="37" y="-153.63" font-family="Menlo" font-size="10.00">C1</text>
<text text-anchor="start" x="40.75" y="-145.53" font-family="Menlo" font-size="8.00" fill="gray"> </text>
</g>
<!-- C1&#45;&gt;D1 -->
<g id="edge2" class="edge">
<title>C1&#45;&gt;D1</title>
<path fill="none" stroke="gray" d="M43,-139.84C43,-130.16 43,-116.5 43,-105.47"/>
<polygon fill="gray" stroke="gray" points="44.75,-105.51 43,-100.51 41.25,-105.51 44.75,-105.51"/>
</g>
<!-- B1 -->
<g id="node4" class="node">
<title>B1</title>
<path fill="none" stroke="gray" d="M61.33,-238.9C61.33,-238.9 24.67,-238.9 24.67,-238.9 20.33,-238.9 16,-234.57 16,-230.24 16,-230.24 16,-221.57 16,-221.57 16,-217.24 20.33,-212.9 24.67,-212.9 24.67,-212.9 61.33,-212.9 61.33,-212.9 65.67,-212.9 70,-217.24 70,-221.57 70,-221.57 70,-230.24 70,-230.24 70,-234.57 65.67,-238.9 61.33,-238.9"/>
<text text-anchor="start" x="37" y="-226.4" font-family="Menlo" font-size="10.00">B1</text>
<text text-anchor="start" x="38.5" y="-218.3" font-family="Menlo" font-size="8.00" fill="gray"> 3</text>
</g>
<!-- B1&#45;&gt;C1 -->
<g id="edge3" class="edge">
<title>B1&#45;&gt;C1</title>
<path fill="none" stroke="gray" d="M43,-212.58C43,-201.52 43,-185.13 43,-172.52"/>
<polygon fill="gray" stroke="gray" points="44.75,-172.83 43,-167.83 41.25,-172.83 44.75,-172.83"/>
</g>
<!-- A -->
<g id="node5" class="node">
<title>A</title>
<ellipse fill="none" stroke="gray" cx="210" cy="-225.9" rx="36.77" ry="18.38"/>
<text text-anchor="start" x="192" y="-226.4" font-family="Menlo" font-size="10.00">A: SEQ</text>
<text text-anchor="start" x="207.75" y="-218.3" font-family="Menlo" font-size="8.00" fill="gray"> </text>
</g>
<!-- B -->
<g id="node6" class="node">
<title>B</title>
<ellipse fill="none" stroke="gray" cx="127" cy="-153.13" rx="32.53" ry="18.38"/>
<text text-anchor="start" x="112" y="-153.63" font-family="Menlo" font-size="10.00">B: &quot;&quot;</text>
<text text-anchor="start" x="113.5" y="-145.53" font-family="Menlo" font-size="8.00" fill="gray"> 1:1:2</text>
</g>
<!-- A&#45;&gt;B -->
<g id="edge4" class="edge">
<title>A&#45;&gt;B</title>
<path fill="none" stroke="gray" d="M191.99,-209.55C179.42,-198.83 162.57,-184.46 149.17,-173.04"/>
<polygon fill="gray" stroke="gray" points="150.5,-171.87 145.56,-169.96 148.23,-174.53 150.5,-171.87"/>
</g>
<!-- C -->
<g id="node7" class="node">
<title>C</title>
<ellipse fill="none" stroke="gray" cx="210" cy="-153.13" rx="32.53" ry="18.38"/>
<text text-anchor="start" x="195" y="-153.63" font-family="Menlo" font-size="10.00">C: &quot;&quot;</text>
<text text-anchor="start" x="207.75" y="-145.53" font-family="Menlo" font-size="8.00" fill="gray"> </text>
</g>
<!-- A&#45;&gt;C -->
<g id="edge5" class="edge">
<title>A&#45;&gt;C</title>
<path fill="none" stroke="gray" d="M210,-207.05C210,-198.26 210,-187.55 210,-178.07"/>
<polygon fill="gray" stroke="gray" points="211.75,-178.26 210,-173.26 208.25,-178.26 211.75,-178.26"/>
</g>
<!-- D -->
<g id="node8" class="node">
<title>D</title>
<ellipse fill="none" stroke="gray" cx="297" cy="-153.13" rx="36.77" ry="18.38"/>
<text text-anchor="start" x="279" y="-153.63" font-family="Menlo" font-size="10.00">D: &quot;a&quot;</text>
<text text-anchor="start" x="294.75" y="-145.53" font-family="Menlo" font-size="8.00" fill="gray"> </text>
</g>
<!-- A&#45;&gt;D -->
<g id="edge6" class="edge">
<title>A&#45;&gt;D</title>
<path fill="none" stroke="gray" d="M228.45,-209.9C241.51,-199.27 259.14,-184.93 273.25,-173.45"/>
<polygon fill="gray" stroke="gray" points="274.33,-174.83 277.1,-170.32 272.12,-172.12 274.33,-174.83"/>
</g>
</g>
</svg>
