<?xml version="1.0" encoding="UTF-8" standalone="no"?>
<!DOCTYPE svg PUBLIC "-//W3C//DTD SVG 1.1//EN"
 "http://www.w3.org/Graphics/SVG/1.1/DTD/svg11.dtd">
<!-- Generated by graphviz version 9.0.0 (20230911.1827)
 -->
<!-- Title: G Pages: 1 -->
<svg width="530pt" height="252pt"
 viewBox="0.00 0.00 530.00 251.54" xmlns="http://www.w3.org/2000/svg" xmlns:xlink="http://www.w3.org/1999/xlink">
<g id="graph0" class="graph" transform="scale(1 1) rotate(0) translate(4 247.54)">
<title>G</title>
<polygon fill="white" stroke="none" points="-4,4 -4,-247.54 526,-247.54 526,4 -4,4"/>
<g id="clust3" class="cluster">
<title>whitespace</title>
<polygon fill="none" stroke="black" points="348,-159.2 348,-235.54 514,-235.54 514,-159.2 348,-159.2"/>
<text text-anchor="start" x="356" y="-222.04" font-family="Menlo" font-size="10.00">whitespace = &quot;\s+&quot;</text>
</g>
<g id="clust1" class="cluster">
<title>GSS</title>
<polygon fill="none" stroke="black" points="8,-17.42 8,-226.12 150,-226.12 150,-17.42 8,-17.42"/>
<text text-anchor="start" x="16" y="-212.62" font-family="Menlo" font-size="10.00" fill="red">LL1 xxx↵</text>
</g>
<g id="clust2" class="cluster">
<title>S</title>
<polygon fill="none" stroke="black" points="158,-8 158,-230.42 340,-230.42 340,-8 158,-8"/>
<text text-anchor="start" x="166" y="-216.92" font-family="Menlo" font-size="10.00">S = &quot;x&quot; [ &quot;x&quot; ]</text>
</g>
<!-- D1 -->
<g id="node1" class="node">
<title>D1</title>
<path fill="none" stroke="black" d="M135.08,-121.77C135.08,-121.77 94.92,-121.77 94.92,-121.77 91.46,-121.77 88,-118.31 88,-114.86 88,-114.86 88,-107.94 88,-107.94 88,-104.48 91.46,-101.02 94.92,-101.02 94.92,-101.02 135.08,-101.02 135.08,-101.02 138.54,-101.02 142,-104.48 142,-107.94 142,-107.94 142,-114.86 142,-114.86 142,-118.31 138.54,-121.77 135.08,-121.77"/>
<text text-anchor="middle" x="115" y="-108.27" font-family="Menlo" font-size="10.00">D1</text>
</g>
<!-- A0 -->
<g id="node2" class="node">
<title>A0</title>
<path fill="none" stroke="black" d="M99.08,-46.17C99.08,-46.17 58.92,-46.17 58.92,-46.17 55.46,-46.17 52,-42.72 52,-39.26 52,-39.26 52,-32.34 52,-32.34 52,-28.88 55.46,-25.42 58.92,-25.42 58.92,-25.42 99.08,-25.42 99.08,-25.42 102.54,-25.42 106,-28.88 106,-32.34 106,-32.34 106,-39.26 106,-39.26 106,-42.72 102.54,-46.17 99.08,-46.17"/>
<text text-anchor="middle" x="79" y="-32.67" font-family="Menlo" font-size="10.00">A0</text>
</g>
<!-- D1&#45;&gt;A0 -->
<g id="edge1" class="edge">
<title>D1&#45;&gt;A0</title>
<path fill="none" stroke="black" d="M110.29,-100.78C104.88,-89.71 95.84,-71.23 88.87,-56.97"/>
<polygon fill="black" stroke="black" points="92.03,-55.46 84.49,-48.02 85.74,-58.54 92.03,-55.46"/>
</g>
<!-- C0 -->
<g id="node3" class="node">
<title>C0</title>
<path fill="none" stroke="black" d="M63.08,-121.77C63.08,-121.77 22.92,-121.77 22.92,-121.77 19.46,-121.77 16,-118.31 16,-114.86 16,-114.86 16,-107.94 16,-107.94 16,-104.48 19.46,-101.02 22.92,-101.02 22.92,-101.02 63.08,-101.02 63.08,-101.02 66.54,-101.02 70,-104.48 70,-107.94 70,-107.94 70,-114.86 70,-114.86 70,-118.31 66.54,-121.77 63.08,-121.77"/>
<text text-anchor="middle" x="43" y="-108.27" font-family="Menlo" font-size="10.00">C0</text>
</g>
<!-- C0&#45;&gt;A0 -->
<g id="edge2" class="edge">
<title>C0&#45;&gt;A0</title>
<path fill="none" stroke="black" d="M47.71,-100.78C53.12,-89.71 62.16,-71.23 69.13,-56.97"/>
<polygon fill="black" stroke="black" points="72.26,-58.54 73.51,-48.02 65.97,-55.46 72.26,-58.54"/>
</g>
<!-- B0 -->
<g id="node4" class="node">
<title>B0</title>
<path fill="none" stroke="black" d="M63.08,-197.37C63.08,-197.37 22.92,-197.37 22.92,-197.37 19.46,-197.37 16,-193.91 16,-190.45 16,-190.45 16,-183.54 16,-183.54 16,-180.08 19.46,-176.62 22.92,-176.62 22.92,-176.62 63.08,-176.62 63.08,-176.62 66.54,-176.62 70,-180.08 70,-183.54 70,-183.54 70,-190.45 70,-190.45 70,-193.91 66.54,-197.37 63.08,-197.37"/>
<text text-anchor="middle" x="43" y="-183.87" font-family="Menlo" font-size="10.00">B0</text>
</g>
<!-- B0&#45;&gt;C0 -->
<g id="edge3" class="edge">
<title>B0&#45;&gt;C0</title>
<path fill="none" stroke="black" d="M43,-176.37C43,-165.52 43,-147.55 43,-133.42"/>
<polygon fill="black" stroke="black" points="46.5,-133.77 43,-123.77 39.5,-133.77 46.5,-133.77"/>
</g>
<!-- A -->
<g id="node5" class="node">
<title>A</title>
<ellipse fill="none" stroke="black" cx="249" cy="-186.99" rx="36.77" ry="14.67"/>
<text text-anchor="start" x="231" y="-183.87" font-family="Menlo" font-size="10.00">A: SEQ</text>
</g>
<!-- B -->
<g id="node6" class="node">
<title>B</title>
<ellipse fill="none" stroke="black" cx="203" cy="-111.4" rx="36.77" ry="19.8"/>
<text text-anchor="start" x="185" y="-112.9" font-family="Menlo" font-size="10.00">B: &quot;x&quot;</text>
<text text-anchor="start" x="188.75" y="-102.9" font-family="Menlo" font-size="8.00" fill="gray"> 0:1 </text>
<text text-anchor="start" x="211.25" y="-102.9" font-family="Menlo" font-size="10.00"> </text>
</g>
<!-- A&#45;&gt;B -->
<g id="edge4" class="edge">
<title>A&#45;&gt;B</title>
<path fill="none" stroke="black" d="M240.56,-172.5C234.92,-163.47 227.3,-151.27 220.39,-140.23"/>
<polygon fill="black" stroke="black" points="223.4,-138.43 215.13,-131.81 217.46,-142.14 223.4,-138.43"/>
</g>
<!-- C -->
<g id="node7" class="node">
<title>C</title>
<ellipse fill="none" stroke="black" cx="295" cy="-111.4" rx="36.77" ry="14.67"/>
<text text-anchor="start" x="277" y="-108.27" font-family="Menlo" font-size="10.00">C: OPT</text>
</g>
<!-- A&#45;&gt;C -->
<g id="edge5" class="edge">
<title>A&#45;&gt;C</title>
<path fill="none" stroke="black" d="M257.44,-172.5C263.88,-162.19 272.92,-147.73 280.51,-135.58"/>
<polygon fill="black" stroke="black" points="283.33,-137.68 285.66,-127.34 277.39,-133.97 283.33,-137.68"/>
</g>
<!-- D -->
<g id="node8" class="node">
<title>D</title>
<ellipse fill="none" stroke="black" cx="295" cy="-35.8" rx="36.77" ry="19.8"/>
<text text-anchor="start" x="277" y="-37.3" font-family="Menlo" font-size="10.00">D: &quot;x&quot;</text>
<text text-anchor="start" x="280.75" y="-27.3" font-family="Menlo" font-size="8.00" fill="gray"> 1:2 </text>
<text text-anchor="start" x="303.25" y="-27.3" font-family="Menlo" font-size="10.00"> </text>
</g>
<!-- C&#45;&gt;D -->
<g id="edge6" class="edge">
<title>C&#45;&gt;D</title>
<path fill="none" stroke="black" d="M295,-96.55C295,-88.29 295,-77.46 295,-67.3"/>
<polygon fill="black" stroke="black" points="298.5,-67.37 295,-57.37 291.5,-67.37 298.5,-67.37"/>
</g>
<!-- E -->
<g id="node9" class="node">
<title>E</title>
<ellipse fill="none" stroke="black" cx="431" cy="-186.99" rx="74.95" ry="19.8"/>
<text text-anchor="start" x="386" y="-188.49" font-family="Menlo" font-size="10.00">E: &quot;whitespace&quot;</text>
<text text-anchor="start" x="423.5" y="-178.49" font-family="Menlo" font-size="8.00" fill="gray"> &#160;</text>
<text text-anchor="start" x="432.5" y="-178.49" font-family="Menlo" font-size="10.00"> </text>
</g>
</g>
</svg>
