<?xml version="1.0" encoding="UTF-8" standalone="no"?>
<!DOCTYPE svg PUBLIC "-//W3C//DTD SVG 1.1//EN"
 "http://www.w3.org/Graphics/SVG/1.1/DTD/svg11.dtd">
<!-- Generated by graphviz version 9.0.0 (20230911.1827)
 -->
<!-- Title: G Pages: 1 -->
<svg width="1322pt" height="365pt"
 viewBox="0.00 0.00 1322.00 365.04" xmlns="http://www.w3.org/2000/svg" xmlns:xlink="http://www.w3.org/1999/xlink">
<g id="graph0" class="graph" transform="scale(1 1) rotate(0) translate(4 361.04)">
<title>G</title>
<polygon fill="white" stroke="none" points="-4,4 -4,-361.04 1318,-361.04 1318,4 -4,4"/>
<g id="clust3" class="cluster">
<title>whitespace</title>
<polygon fill="none" stroke="black" points="1140,-272.7 1140,-349.04 1306,-349.04 1306,-272.7 1140,-272.7"/>
<text text-anchor="start" x="1148" y="-335.54" font-family="Menlo" font-size="10.00">whitespace = &quot;\s+&quot;</text>
</g>
<g id="clust1" class="cluster">
<title>GSS</title>
<polygon fill="none" stroke="black" points="8,-8 8,-339.62 582,-339.62 582,-8 8,-8"/>
<text text-anchor="start" x="16" y="-326.12" font-family="Menlo" font-size="10.00" fill="green">LL1 aad↵</text>
</g>
<g id="clust2" class="cluster">
<title>S</title>
<polygon fill="none" stroke="black" points="590,-121.5 590,-343.92 1132,-343.92 1132,-121.5 590,-121.5"/>
<text text-anchor="start" x="598" y="-330.42" font-family="Menlo" font-size="10.00">S = &quot;a&quot; S &quot;b&quot; | &quot;a&quot; S &quot;d&quot; | &quot;a&quot;</text>
</g>
<!-- J1 -->
<g id="node1" class="node">
<title>J1</title>
<path fill="none" stroke="black" d="M135.08,-159.67C135.08,-159.67 94.92,-159.67 94.92,-159.67 91.46,-159.67 88,-156.22 88,-152.76 88,-152.76 88,-145.84 88,-145.84 88,-142.38 91.46,-138.92 94.92,-138.92 94.92,-138.92 135.08,-138.92 135.08,-138.92 138.54,-138.92 142,-142.38 142,-145.84 142,-145.84 142,-152.76 142,-152.76 142,-156.22 138.54,-159.67 135.08,-159.67"/>
<text text-anchor="middle" x="115" y="-146.17" font-family="Menlo" font-size="10.00">J1</text>
</g>
<!-- I0 -->
<g id="node2" class="node">
<title>I0</title>
<path fill="none" stroke="black" d="M279.08,-93.5C279.08,-93.5 238.92,-93.5 238.92,-93.5 235.46,-93.5 232,-90.04 232,-86.58 232,-86.58 232,-79.67 232,-79.67 232,-76.21 235.46,-72.75 238.92,-72.75 238.92,-72.75 279.08,-72.75 279.08,-72.75 282.54,-72.75 286,-76.21 286,-79.67 286,-79.67 286,-86.58 286,-86.58 286,-90.04 282.54,-93.5 279.08,-93.5"/>
<text text-anchor="middle" x="259" y="-80" font-family="Menlo" font-size="10.00">I0</text>
</g>
<!-- J1&#45;&gt;I0 -->
<g id="edge1" class="edge">
<title>J1&#45;&gt;I0</title>
<path fill="none" stroke="black" d="M126.07,-138.66C132.9,-133.07 142.05,-126.24 151,-121.5 173.15,-109.78 199.73,-100.53 220.98,-94.16"/>
<polygon fill="black" stroke="black" points="221.78,-97.57 230.41,-91.43 219.83,-90.85 221.78,-97.57"/>
</g>
<!-- E0 -->
<g id="node3" class="node">
<title>E0</title>
<path fill="none" stroke="black" d="M351.08,-93.5C351.08,-93.5 310.92,-93.5 310.92,-93.5 307.46,-93.5 304,-90.04 304,-86.58 304,-86.58 304,-79.67 304,-79.67 304,-76.21 307.46,-72.75 310.92,-72.75 310.92,-72.75 351.08,-72.75 351.08,-72.75 354.54,-72.75 358,-76.21 358,-79.67 358,-79.67 358,-86.58 358,-86.58 358,-90.04 354.54,-93.5 351.08,-93.5"/>
<text text-anchor="middle" x="331" y="-80" font-family="Menlo" font-size="10.00">E0</text>
</g>
<!-- J1&#45;&gt;E0 -->
<g id="edge2" class="edge">
<title>J1&#45;&gt;E0</title>
<path fill="none" stroke="black" d="M125.53,-138.45C132.31,-132.65 141.59,-125.66 151,-121.5 207.49,-96.54 229.12,-106.7 292.53,-93.84"/>
<polygon fill="black" stroke="black" points="293.01,-97.32 302.05,-91.79 291.53,-90.48 293.01,-97.32"/>
</g>
<!-- ● -->
<g id="node5" class="node">
<title>●</title>
<path fill="none" stroke="black" d="M387.08,-36.75C387.08,-36.75 346.92,-36.75 346.92,-36.75 343.46,-36.75 340,-33.29 340,-29.83 340,-29.83 340,-22.92 340,-22.92 340,-19.46 343.46,-16 346.92,-16 346.92,-16 387.08,-16 387.08,-16 390.54,-16 394,-19.46 394,-22.92 394,-22.92 394,-29.83 394,-29.83 394,-33.29 390.54,-36.75 387.08,-36.75"/>
<text text-anchor="middle" x="367" y="-23.25" font-family="Menlo" font-size="10.00">●</text>
</g>
<!-- I0&#45;&gt;● -->
<g id="edge6" class="edge">
<title>I0&#45;&gt;●</title>
<path fill="none" stroke="black" d="M278.31,-72.34C294.82,-63.97 318.83,-51.79 337.71,-42.22"/>
<polygon fill="black" stroke="black" points="339.17,-45.41 346.51,-37.76 336.01,-39.16 339.17,-45.41"/>
</g>
<!-- E0&#45;&gt;● -->
<g id="edge18" class="edge">
<title>E0&#45;&gt;●</title>
<path fill="none" stroke="black" d="M337.44,-72.34C342.15,-65.17 348.69,-55.23 354.42,-46.51"/>
<polygon fill="black" stroke="black" points="357.22,-48.62 359.79,-38.34 351.37,-44.78 357.22,-48.62"/>
</g>
<!-- J0 -->
<g id="node4" class="node">
<title>J0</title>
<path fill="none" stroke="black" d="M567.08,-93.5C567.08,-93.5 526.92,-93.5 526.92,-93.5 523.46,-93.5 520,-90.04 520,-86.58 520,-86.58 520,-79.67 520,-79.67 520,-76.21 523.46,-72.75 526.92,-72.75 526.92,-72.75 567.08,-72.75 567.08,-72.75 570.54,-72.75 574,-76.21 574,-79.67 574,-79.67 574,-86.58 574,-86.58 574,-90.04 570.54,-93.5 567.08,-93.5"/>
<text text-anchor="middle" x="547" y="-80" font-family="Menlo" font-size="10.00">J0</text>
</g>
<!-- J0&#45;&gt;● -->
<g id="edge3" class="edge">
<title>J0&#45;&gt;●</title>
<path fill="none" stroke="black" d="M519.66,-73.81C489.18,-64.54 439.65,-49.47 405.31,-39.03"/>
<polygon fill="black" stroke="black" points="406.33,-35.68 395.75,-36.12 404.3,-42.38 406.33,-35.68"/>
</g>
<!-- I1 -->
<g id="node6" class="node">
<title>I1</title>
<path fill="none" stroke="black" d="M495.08,-159.67C495.08,-159.67 454.92,-159.67 454.92,-159.67 451.46,-159.67 448,-156.22 448,-152.76 448,-152.76 448,-145.84 448,-145.84 448,-142.38 451.46,-138.92 454.92,-138.92 454.92,-138.92 495.08,-138.92 495.08,-138.92 498.54,-138.92 502,-142.38 502,-145.84 502,-145.84 502,-152.76 502,-152.76 502,-156.22 498.54,-159.67 495.08,-159.67"/>
<text text-anchor="middle" x="475" y="-146.17" font-family="Menlo" font-size="10.00">I1</text>
</g>
<!-- I1&#45;&gt;I0 -->
<g id="edge4" class="edge">
<title>I1&#45;&gt;I0</title>
<path fill="none" stroke="black" d="M464.47,-138.45C457.69,-132.65 448.41,-125.66 439,-121.5 382.51,-96.54 360.88,-106.7 297.47,-93.84"/>
<polygon fill="black" stroke="black" points="298.47,-90.48 287.95,-91.79 296.99,-97.32 298.47,-90.48"/>
</g>
<!-- I1&#45;&gt;E0 -->
<g id="edge5" class="edge">
<title>I1&#45;&gt;E0</title>
<path fill="none" stroke="black" d="M463.93,-138.66C457.1,-133.07 447.95,-126.24 439,-121.5 416.85,-109.78 390.27,-100.53 369.02,-94.16"/>
<polygon fill="black" stroke="black" points="370.17,-90.85 359.59,-91.43 368.22,-97.57 370.17,-90.85"/>
</g>
<!-- H1 -->
<g id="node7" class="node">
<title>H1</title>
<path fill="none" stroke="black" d="M495.08,-235.27C495.08,-235.27 454.92,-235.27 454.92,-235.27 451.46,-235.27 448,-231.81 448,-228.36 448,-228.36 448,-221.44 448,-221.44 448,-217.98 451.46,-214.52 454.92,-214.52 454.92,-214.52 495.08,-214.52 495.08,-214.52 498.54,-214.52 502,-217.98 502,-221.44 502,-221.44 502,-228.36 502,-228.36 502,-231.81 498.54,-235.27 495.08,-235.27"/>
<text text-anchor="middle" x="475" y="-221.77" font-family="Menlo" font-size="10.00">H1</text>
</g>
<!-- H1&#45;&gt;I1 -->
<g id="edge7" class="edge">
<title>H1&#45;&gt;I1</title>
<path fill="none" stroke="black" d="M470.27,-214.28C468.2,-203.43 467.72,-185.46 468.83,-171.32"/>
<polygon fill="black" stroke="black" points="472.28,-172.02 470.04,-161.66 465.33,-171.15 472.28,-172.02"/>
</g>
<!-- H1&#45;&gt;I1 -->
<g id="edge8" class="edge">
<title>H1&#45;&gt;I1</title>
<path fill="none" stroke="black" d="M479.73,-214.28C481.8,-203.43 482.28,-185.46 481.17,-171.32"/>
<polygon fill="black" stroke="black" points="484.67,-171.15 479.96,-161.66 477.72,-172.02 484.67,-171.15"/>
</g>
<!-- H0 -->
<g id="node8" class="node">
<title>H0</title>
<path fill="none" stroke="black" d="M63.08,-159.67C63.08,-159.67 22.92,-159.67 22.92,-159.67 19.46,-159.67 16,-156.22 16,-152.76 16,-152.76 16,-145.84 16,-145.84 16,-142.38 19.46,-138.92 22.92,-138.92 22.92,-138.92 63.08,-138.92 63.08,-138.92 66.54,-138.92 70,-142.38 70,-145.84 70,-145.84 70,-152.76 70,-152.76 70,-156.22 66.54,-159.67 63.08,-159.67"/>
<text text-anchor="middle" x="43" y="-146.17" font-family="Menlo" font-size="10.00">H0</text>
</g>
<!-- H0&#45;&gt;I0 -->
<g id="edge9" class="edge">
<title>H0&#45;&gt;I0</title>
<path fill="none" stroke="black" d="M53.53,-138.45C60.31,-132.65 69.59,-125.66 79,-121.5 135.49,-96.54 157.12,-106.7 220.53,-93.84"/>
<polygon fill="black" stroke="black" points="221.01,-97.32 230.05,-91.79 219.53,-90.48 221.01,-97.32"/>
</g>
<!-- G1 -->
<g id="node9" class="node">
<title>G1</title>
<path fill="none" stroke="black" d="M495.08,-310.87C495.08,-310.87 454.92,-310.87 454.92,-310.87 451.46,-310.87 448,-307.41 448,-303.95 448,-303.95 448,-297.04 448,-297.04 448,-293.58 451.46,-290.12 454.92,-290.12 454.92,-290.12 495.08,-290.12 495.08,-290.12 498.54,-290.12 502,-293.58 502,-297.04 502,-297.04 502,-303.95 502,-303.95 502,-307.41 498.54,-310.87 495.08,-310.87"/>
<text text-anchor="middle" x="475" y="-297.37" font-family="Menlo" font-size="10.00">G1</text>
</g>
<!-- G1&#45;&gt;H1 -->
<g id="edge10" class="edge">
<title>G1&#45;&gt;H1</title>
<path fill="none" stroke="black" d="M470.27,-289.87C468.2,-279.02 467.72,-261.05 468.83,-246.92"/>
<polygon fill="black" stroke="black" points="472.28,-247.61 470.04,-237.26 465.33,-246.75 472.28,-247.61"/>
</g>
<!-- G1&#45;&gt;H1 -->
<g id="edge11" class="edge">
<title>G1&#45;&gt;H1</title>
<path fill="none" stroke="black" d="M479.73,-289.87C481.8,-279.02 482.28,-261.05 481.17,-246.92"/>
<polygon fill="black" stroke="black" points="484.67,-246.75 479.96,-237.26 477.72,-247.61 484.67,-246.75"/>
</g>
<!-- G0 -->
<g id="node10" class="node">
<title>G0</title>
<path fill="none" stroke="black" d="M63.08,-235.27C63.08,-235.27 22.92,-235.27 22.92,-235.27 19.46,-235.27 16,-231.81 16,-228.36 16,-228.36 16,-221.44 16,-221.44 16,-217.98 19.46,-214.52 22.92,-214.52 22.92,-214.52 63.08,-214.52 63.08,-214.52 66.54,-214.52 70,-217.98 70,-221.44 70,-221.44 70,-228.36 70,-228.36 70,-231.81 66.54,-235.27 63.08,-235.27"/>
<text text-anchor="middle" x="43" y="-221.77" font-family="Menlo" font-size="10.00">G0</text>
</g>
<!-- G0&#45;&gt;H0 -->
<g id="edge12" class="edge">
<title>G0&#45;&gt;H0</title>
<path fill="none" stroke="black" d="M43,-214.28C43,-203.43 43,-185.46 43,-171.32"/>
<polygon fill="black" stroke="black" points="46.5,-171.67 43,-161.67 39.5,-171.67 46.5,-171.67"/>
</g>
<!-- F1 -->
<g id="node11" class="node">
<title>F1</title>
<path fill="none" stroke="black" d="M423.08,-159.67C423.08,-159.67 382.92,-159.67 382.92,-159.67 379.46,-159.67 376,-156.22 376,-152.76 376,-152.76 376,-145.84 376,-145.84 376,-142.38 379.46,-138.92 382.92,-138.92 382.92,-138.92 423.08,-138.92 423.08,-138.92 426.54,-138.92 430,-142.38 430,-145.84 430,-145.84 430,-152.76 430,-152.76 430,-156.22 426.54,-159.67 423.08,-159.67"/>
<text text-anchor="middle" x="403" y="-146.17" font-family="Menlo" font-size="10.00">F1</text>
</g>
<!-- F1&#45;&gt;I0 -->
<g id="edge13" class="edge">
<title>F1&#45;&gt;I0</title>
<path fill="none" stroke="black" d="M391.93,-138.66C385.1,-133.07 375.95,-126.24 367,-121.5 344.85,-109.78 318.27,-100.53 297.02,-94.16"/>
<polygon fill="black" stroke="black" points="298.17,-90.85 287.59,-91.43 296.22,-97.57 298.17,-90.85"/>
</g>
<!-- F1&#45;&gt;E0 -->
<g id="edge14" class="edge">
<title>F1&#45;&gt;E0</title>
<path fill="none" stroke="black" d="M392.06,-138.55C381.07,-128.75 363.88,-113.43 350.54,-101.54"/>
<polygon fill="black" stroke="black" points="352.96,-99.01 343.17,-94.97 348.3,-104.24 352.96,-99.01"/>
</g>
<!-- F0 -->
<g id="node12" class="node">
<title>F0</title>
<path fill="none" stroke="black" d="M495.08,-93.5C495.08,-93.5 454.92,-93.5 454.92,-93.5 451.46,-93.5 448,-90.04 448,-86.58 448,-86.58 448,-79.67 448,-79.67 448,-76.21 451.46,-72.75 454.92,-72.75 454.92,-72.75 495.08,-72.75 495.08,-72.75 498.54,-72.75 502,-76.21 502,-79.67 502,-79.67 502,-86.58 502,-86.58 502,-90.04 498.54,-93.5 495.08,-93.5"/>
<text text-anchor="middle" x="475" y="-80" font-family="Menlo" font-size="10.00">F0</text>
</g>
<!-- F0&#45;&gt;● -->
<g id="edge15" class="edge">
<title>F0&#45;&gt;●</title>
<path fill="none" stroke="black" d="M455.69,-72.34C439.18,-63.97 415.17,-51.79 396.29,-42.22"/>
<polygon fill="black" stroke="black" points="397.99,-39.16 387.49,-37.76 394.83,-45.41 397.99,-39.16"/>
</g>
<!-- E1 -->
<g id="node13" class="node">
<title>E1</title>
<path fill="none" stroke="black" d="M351.08,-159.67C351.08,-159.67 310.92,-159.67 310.92,-159.67 307.46,-159.67 304,-156.22 304,-152.76 304,-152.76 304,-145.84 304,-145.84 304,-142.38 307.46,-138.92 310.92,-138.92 310.92,-138.92 351.08,-138.92 351.08,-138.92 354.54,-138.92 358,-142.38 358,-145.84 358,-145.84 358,-152.76 358,-152.76 358,-156.22 354.54,-159.67 351.08,-159.67"/>
<text text-anchor="middle" x="331" y="-146.17" font-family="Menlo" font-size="10.00">E1</text>
</g>
<!-- E1&#45;&gt;I0 -->
<g id="edge16" class="edge">
<title>E1&#45;&gt;I0</title>
<path fill="none" stroke="black" d="M320.06,-138.55C309.07,-128.75 291.88,-113.43 278.54,-101.54"/>
<polygon fill="black" stroke="black" points="280.96,-99.01 271.17,-94.97 276.3,-104.24 280.96,-99.01"/>
</g>
<!-- E1&#45;&gt;E0 -->
<g id="edge17" class="edge">
<title>E1&#45;&gt;E0</title>
<path fill="none" stroke="black" d="M331,-138.55C331,-129.79 331,-116.61 331,-105.42"/>
<polygon fill="black" stroke="black" points="334.5,-105.48 331,-95.48 327.5,-105.48 334.5,-105.48"/>
</g>
<!-- D1 -->
<g id="node14" class="node">
<title>D1</title>
<path fill="none" stroke="black" d="M351.08,-235.27C351.08,-235.27 310.92,-235.27 310.92,-235.27 307.46,-235.27 304,-231.81 304,-228.36 304,-228.36 304,-221.44 304,-221.44 304,-217.98 307.46,-214.52 310.92,-214.52 310.92,-214.52 351.08,-214.52 351.08,-214.52 354.54,-214.52 358,-217.98 358,-221.44 358,-221.44 358,-228.36 358,-228.36 358,-231.81 354.54,-235.27 351.08,-235.27"/>
<text text-anchor="middle" x="331" y="-221.77" font-family="Menlo" font-size="10.00">D1</text>
</g>
<!-- D1&#45;&gt;E1 -->
<g id="edge19" class="edge">
<title>D1&#45;&gt;E1</title>
<path fill="none" stroke="black" d="M326.27,-214.28C324.2,-203.43 323.72,-185.46 324.83,-171.32"/>
<polygon fill="black" stroke="black" points="328.28,-172.02 326.04,-161.66 321.33,-171.15 328.28,-172.02"/>
</g>
<!-- D1&#45;&gt;E1 -->
<g id="edge20" class="edge">
<title>D1&#45;&gt;E1</title>
<path fill="none" stroke="black" d="M335.73,-214.28C337.8,-203.43 338.28,-185.46 337.17,-171.32"/>
<polygon fill="black" stroke="black" points="340.67,-171.15 335.96,-161.66 333.72,-172.02 340.67,-171.15"/>
</g>
<!-- D0 -->
<g id="node15" class="node">
<title>D0</title>
<path fill="none" stroke="black" d="M567.08,-159.67C567.08,-159.67 526.92,-159.67 526.92,-159.67 523.46,-159.67 520,-156.22 520,-152.76 520,-152.76 520,-145.84 520,-145.84 520,-142.38 523.46,-138.92 526.92,-138.92 526.92,-138.92 567.08,-138.92 567.08,-138.92 570.54,-138.92 574,-142.38 574,-145.84 574,-145.84 574,-152.76 574,-152.76 574,-156.22 570.54,-159.67 567.08,-159.67"/>
<text text-anchor="middle" x="547" y="-146.17" font-family="Menlo" font-size="10.00">D0</text>
</g>
<!-- D0&#45;&gt;E0 -->
<g id="edge21" class="edge">
<title>D0&#45;&gt;E0</title>
<path fill="none" stroke="black" d="M536.47,-138.45C529.69,-132.65 520.41,-125.66 511,-121.5 454.51,-96.54 432.88,-106.7 369.47,-93.84"/>
<polygon fill="black" stroke="black" points="370.47,-90.48 359.95,-91.79 368.99,-97.32 370.47,-90.48"/>
</g>
<!-- C1 -->
<g id="node16" class="node">
<title>C1</title>
<path fill="none" stroke="black" d="M351.08,-310.87C351.08,-310.87 310.92,-310.87 310.92,-310.87 307.46,-310.87 304,-307.41 304,-303.95 304,-303.95 304,-297.04 304,-297.04 304,-293.58 307.46,-290.12 310.92,-290.12 310.92,-290.12 351.08,-290.12 351.08,-290.12 354.54,-290.12 358,-293.58 358,-297.04 358,-297.04 358,-303.95 358,-303.95 358,-307.41 354.54,-310.87 351.08,-310.87"/>
<text text-anchor="middle" x="331" y="-297.37" font-family="Menlo" font-size="10.00">C1</text>
</g>
<!-- C1&#45;&gt;D1 -->
<g id="edge22" class="edge">
<title>C1&#45;&gt;D1</title>
<path fill="none" stroke="black" d="M326.27,-289.87C324.2,-279.02 323.72,-261.05 324.83,-246.92"/>
<polygon fill="black" stroke="black" points="328.28,-247.61 326.04,-237.26 321.33,-246.75 328.28,-247.61"/>
</g>
<!-- C1&#45;&gt;D1 -->
<g id="edge23" class="edge">
<title>C1&#45;&gt;D1</title>
<path fill="none" stroke="black" d="M335.73,-289.87C337.8,-279.02 338.28,-261.05 337.17,-246.92"/>
<polygon fill="black" stroke="black" points="340.67,-246.75 335.96,-237.26 333.72,-247.61 340.67,-246.75"/>
</g>
<!-- C0 -->
<g id="node17" class="node">
<title>C0</title>
<path fill="none" stroke="black" d="M567.08,-235.27C567.08,-235.27 526.92,-235.27 526.92,-235.27 523.46,-235.27 520,-231.81 520,-228.36 520,-228.36 520,-221.44 520,-221.44 520,-217.98 523.46,-214.52 526.92,-214.52 526.92,-214.52 567.08,-214.52 567.08,-214.52 570.54,-214.52 574,-217.98 574,-221.44 574,-221.44 574,-228.36 574,-228.36 574,-231.81 570.54,-235.27 567.08,-235.27"/>
<text text-anchor="middle" x="547" y="-221.77" font-family="Menlo" font-size="10.00">C0</text>
</g>
<!-- C0&#45;&gt;D0 -->
<g id="edge24" class="edge">
<title>C0&#45;&gt;D0</title>
<path fill="none" stroke="black" d="M547,-214.28C547,-203.43 547,-185.46 547,-171.32"/>
<polygon fill="black" stroke="black" points="550.5,-171.67 547,-161.67 543.5,-171.67 550.5,-171.67"/>
</g>
<!-- B1 -->
<g id="node18" class="node">
<title>B1</title>
<path fill="none" stroke="black" d="M207.08,-159.67C207.08,-159.67 166.92,-159.67 166.92,-159.67 163.46,-159.67 160,-156.22 160,-152.76 160,-152.76 160,-145.84 160,-145.84 160,-142.38 163.46,-138.92 166.92,-138.92 166.92,-138.92 207.08,-138.92 207.08,-138.92 210.54,-138.92 214,-142.38 214,-145.84 214,-145.84 214,-152.76 214,-152.76 214,-156.22 210.54,-159.67 207.08,-159.67"/>
<text text-anchor="middle" x="187" y="-146.17" font-family="Menlo" font-size="10.00">B1</text>
</g>
<!-- B1&#45;&gt;I0 -->
<g id="edge25" class="edge">
<title>B1&#45;&gt;I0</title>
<path fill="none" stroke="black" d="M197.94,-138.55C208.93,-128.75 226.12,-113.43 239.46,-101.54"/>
<polygon fill="black" stroke="black" points="241.7,-104.24 246.83,-94.97 237.04,-99.01 241.7,-104.24"/>
</g>
<!-- B1&#45;&gt;E0 -->
<g id="edge26" class="edge">
<title>B1&#45;&gt;E0</title>
<path fill="none" stroke="black" d="M198.07,-138.66C204.9,-133.07 214.05,-126.24 223,-121.5 245.15,-109.78 271.73,-100.53 292.98,-94.16"/>
<polygon fill="black" stroke="black" points="293.78,-97.57 302.41,-91.43 291.83,-90.85 293.78,-97.57"/>
</g>
<!-- B0 -->
<g id="node19" class="node">
<title>B0</title>
<path fill="none" stroke="black" d="M423.08,-93.5C423.08,-93.5 382.92,-93.5 382.92,-93.5 379.46,-93.5 376,-90.04 376,-86.58 376,-86.58 376,-79.67 376,-79.67 376,-76.21 379.46,-72.75 382.92,-72.75 382.92,-72.75 423.08,-72.75 423.08,-72.75 426.54,-72.75 430,-76.21 430,-79.67 430,-79.67 430,-86.58 430,-86.58 430,-90.04 426.54,-93.5 423.08,-93.5"/>
<text text-anchor="middle" x="403" y="-80" font-family="Menlo" font-size="10.00">B0</text>
</g>
<!-- B0&#45;&gt;● -->
<g id="edge27" class="edge">
<title>B0&#45;&gt;●</title>
<path fill="none" stroke="black" d="M396.56,-72.34C391.85,-65.17 385.31,-55.23 379.58,-46.51"/>
<polygon fill="black" stroke="black" points="382.63,-44.78 374.21,-38.34 376.78,-48.62 382.63,-44.78"/>
</g>
<!-- A1 -->
<g id="node20" class="node">
<title>A1</title>
<path fill="none" stroke="black" d="M279.08,-159.67C279.08,-159.67 238.92,-159.67 238.92,-159.67 235.46,-159.67 232,-156.22 232,-152.76 232,-152.76 232,-145.84 232,-145.84 232,-142.38 235.46,-138.92 238.92,-138.92 238.92,-138.92 279.08,-138.92 279.08,-138.92 282.54,-138.92 286,-142.38 286,-145.84 286,-145.84 286,-152.76 286,-152.76 286,-156.22 282.54,-159.67 279.08,-159.67"/>
<text text-anchor="middle" x="259" y="-146.17" font-family="Menlo" font-size="10.00">A1</text>
</g>
<!-- A1&#45;&gt;I0 -->
<g id="edge28" class="edge">
<title>A1&#45;&gt;I0</title>
<path fill="none" stroke="black" d="M259,-138.55C259,-129.79 259,-116.61 259,-105.42"/>
<polygon fill="black" stroke="black" points="262.5,-105.48 259,-95.48 255.5,-105.48 262.5,-105.48"/>
</g>
<!-- A1&#45;&gt;E0 -->
<g id="edge29" class="edge">
<title>A1&#45;&gt;E0</title>
<path fill="none" stroke="black" d="M269.94,-138.55C280.93,-128.75 298.12,-113.43 311.46,-101.54"/>
<polygon fill="black" stroke="black" points="313.7,-104.24 318.83,-94.97 309.04,-99.01 313.7,-104.24"/>
</g>
<!-- A0 -->
<g id="node21" class="node">
<title>A0</title>
<path fill="none" stroke="black" d="M207.08,-93.5C207.08,-93.5 166.92,-93.5 166.92,-93.5 163.46,-93.5 160,-90.04 160,-86.58 160,-86.58 160,-79.67 160,-79.67 160,-76.21 163.46,-72.75 166.92,-72.75 166.92,-72.75 207.08,-72.75 207.08,-72.75 210.54,-72.75 214,-76.21 214,-79.67 214,-79.67 214,-86.58 214,-86.58 214,-90.04 210.54,-93.5 207.08,-93.5"/>
<text text-anchor="middle" x="187" y="-80" font-family="Menlo" font-size="10.00">A0</text>
</g>
<!-- A0&#45;&gt;● -->
<g id="edge30" class="edge">
<title>A0&#45;&gt;●</title>
<path fill="none" stroke="black" d="M214.34,-73.81C244.82,-64.54 294.35,-49.47 328.69,-39.03"/>
<polygon fill="black" stroke="black" points="329.7,-42.38 338.25,-36.12 327.67,-35.68 329.7,-42.38"/>
</g>
<!-- A -->
<g id="node22" class="node">
<title>A</title>
<ellipse fill="none" stroke="black" cx="917" cy="-300.49" rx="36.77" ry="14.67"/>
<text text-anchor="start" x="899" y="-297.37" font-family="Menlo" font-size="10.00">A: ALT</text>
</g>
<!-- B -->
<g id="node23" class="node">
<title>B</title>
<ellipse fill="none" stroke="black" cx="774" cy="-224.9" rx="36.77" ry="14.67"/>
<text text-anchor="start" x="756" y="-221.77" font-family="Menlo" font-size="10.00">B: SEQ</text>
</g>
<!-- A&#45;&gt;B -->
<g id="edge31" class="edge">
<title>A&#45;&gt;B</title>
<path fill="none" stroke="black" d="M895.28,-288.32C871.42,-276.03 832.86,-256.19 805.64,-242.18"/>
<polygon fill="black" stroke="black" points="807.29,-239.1 796.8,-237.63 804.09,-245.32 807.29,-239.1"/>
</g>
<!-- F -->
<g id="node27" class="node">
<title>F</title>
<ellipse fill="none" stroke="black" cx="917" cy="-224.9" rx="36.77" ry="14.67"/>
<text text-anchor="start" x="899" y="-221.77" font-family="Menlo" font-size="10.00">F: SEQ</text>
</g>
<!-- A&#45;&gt;F -->
<g id="edge35" class="edge">
<title>A&#45;&gt;F</title>
<path fill="none" stroke="black" d="M917,-285.65C917,-275.95 917,-262.7 917,-251.14"/>
<polygon fill="black" stroke="black" points="920.5,-251.44 917,-241.44 913.5,-251.44 920.5,-251.44"/>
</g>
<!-- J -->
<g id="node31" class="node">
<title>J</title>
<ellipse fill="none" stroke="black" cx="1016" cy="-224.9" rx="44.19" ry="19.8"/>
<text text-anchor="start" x="998" y="-226.4" font-family="Menlo" font-size="10.00">J: &quot;a&quot;</text>
<text text-anchor="start" x="992.75" y="-216.4" font-family="Menlo" font-size="8.00" fill="gray"> 0:1 1:2 </text>
<text text-anchor="start" x="1033.25" y="-216.4" font-family="Menlo" font-size="10.00"> </text>
</g>
<!-- A&#45;&gt;J -->
<g id="edge39" class="edge">
<title>A&#45;&gt;J</title>
<path fill="none" stroke="black" d="M933.79,-287.01C947.76,-276.63 968.01,-261.58 984.91,-249.01"/>
<polygon fill="black" stroke="black" points="986.75,-252 992.69,-243.23 982.57,-246.39 986.75,-252"/>
</g>
<!-- C -->
<g id="node24" class="node">
<title>C</title>
<ellipse fill="none" stroke="black" cx="642" cy="-149.3" rx="44.19" ry="19.8"/>
<text text-anchor="start" x="624" y="-150.8" font-family="Menlo" font-size="10.00">C: &quot;a&quot;</text>
<text text-anchor="start" x="618.75" y="-140.8" font-family="Menlo" font-size="8.00" fill="gray"> 1:2 0:1 </text>
<text text-anchor="start" x="659.25" y="-140.8" font-family="Menlo" font-size="10.00"> </text>
</g>
<!-- B&#45;&gt;C -->
<g id="edge32" class="edge">
<title>B&#45;&gt;C</title>
<path fill="none" stroke="black" d="M753.38,-212.4C733.45,-201.29 702.84,-184.22 678.75,-170.79"/>
<polygon fill="black" stroke="black" points="680.63,-167.83 670.19,-166.02 677.22,-173.95 680.63,-167.83"/>
</g>
<!-- D -->
<g id="node25" class="node">
<title>D</title>
<ellipse fill="none" stroke="black" cx="732" cy="-149.3" rx="28.28" ry="14.67"/>
<text text-anchor="start" x="720" y="-146.17" font-family="Menlo" font-size="10.00">D: S</text>
</g>
<!-- B&#45;&gt;D -->
<g id="edge33" class="edge">
<title>B&#45;&gt;D</title>
<path fill="none" stroke="black" d="M766.3,-210.4C760.44,-200.13 752.23,-185.74 745.31,-173.62"/>
<polygon fill="black" stroke="black" points="748.4,-171.98 740.4,-165.03 742.32,-175.45 748.4,-171.98"/>
</g>
<!-- E -->
<g id="node26" class="node">
<title>E</title>
<ellipse fill="none" stroke="black" cx="815" cy="-149.3" rx="36.77" ry="19.8"/>
<text text-anchor="start" x="797" y="-150.8" font-family="Menlo" font-size="10.00">E: &quot;b&quot;</text>
<text text-anchor="start" x="807.5" y="-140.8" font-family="Menlo" font-size="8.00" fill="gray"> &#160;</text>
<text text-anchor="start" x="816.5" y="-140.8" font-family="Menlo" font-size="10.00"> </text>
</g>
<!-- B&#45;&gt;E -->
<g id="edge34" class="edge">
<title>B&#45;&gt;E</title>
<path fill="none" stroke="black" d="M781.71,-210.05C786.63,-201.22 793.19,-189.44 799.19,-178.68"/>
<polygon fill="black" stroke="black" points="802.14,-180.57 803.95,-170.13 796.03,-177.16 802.14,-180.57"/>
</g>
<!-- D&#45;&gt;A -->
<g id="edge40" class="edge">
<title>D&#45;&gt;A</title>
<path fill="none" stroke="black" stroke-dasharray="1,5" d="M749.91,-160.99C755.81,-164.07 762.52,-167.13 769,-169.1 833.25,-188.6 1024.44,-154.87 1069,-205.1 1080.68,-218.26 1079.12,-230.3 1069,-244.7 1045.57,-278.04 999.79,-291.19 964.56,-296.32"/>
<polygon fill="black" stroke="black" points="964.52,-292.8 955.04,-297.53 965.4,-299.74 964.52,-292.8"/>
</g>
<!-- G -->
<g id="node28" class="node">
<title>G</title>
<ellipse fill="none" stroke="black" cx="914" cy="-149.3" rx="44.19" ry="19.8"/>
<text text-anchor="start" x="896" y="-150.8" font-family="Menlo" font-size="10.00">G: &quot;a&quot;</text>
<text text-anchor="start" x="890.75" y="-140.8" font-family="Menlo" font-size="8.00" fill="gray"> 0:1 1:2 </text>
<text text-anchor="start" x="931.25" y="-140.8" font-family="Menlo" font-size="10.00"> </text>
</g>
<!-- F&#45;&gt;G -->
<g id="edge36" class="edge">
<title>F&#45;&gt;G</title>
<path fill="none" stroke="black" d="M916.44,-210.05C916.1,-201.79 915.66,-190.96 915.24,-180.8"/>
<polygon fill="black" stroke="black" points="918.74,-180.72 914.84,-170.87 911.75,-181 918.74,-180.72"/>
</g>
<!-- H -->
<g id="node29" class="node">
<title>H</title>
<ellipse fill="none" stroke="black" cx="1004" cy="-149.3" rx="28.28" ry="14.67"/>
<text text-anchor="start" x="992" y="-146.17" font-family="Menlo" font-size="10.00">H: S</text>
</g>
<!-- F&#45;&gt;H -->
<g id="edge37" class="edge">
<title>F&#45;&gt;H</title>
<path fill="none" stroke="black" d="M932.15,-211.08C945.75,-199.58 965.88,-182.55 981.38,-169.44"/>
<polygon fill="black" stroke="black" points="983.35,-172.35 988.73,-163.22 978.83,-167.01 983.35,-172.35"/>
</g>
<!-- I -->
<g id="node30" class="node">
<title>I</title>
<ellipse fill="none" stroke="black" cx="1087" cy="-149.3" rx="36.77" ry="19.8"/>
<text text-anchor="start" x="1069" y="-150.8" font-family="Menlo" font-size="10.00">I: &quot;d&quot;</text>
<text text-anchor="start" x="1072.75" y="-140.8" font-family="Menlo" font-size="8.00" fill="gray"> 2:3 </text>
<text text-anchor="start" x="1095.25" y="-140.8" font-family="Menlo" font-size="10.00"> </text>
</g>
<!-- F&#45;&gt;I -->
<g id="edge38" class="edge">
<title>F&#45;&gt;I</title>
<path fill="none" stroke="black" d="M941,-213.51C968.99,-201.39 1015.65,-181.19 1048.68,-166.89"/>
<polygon fill="black" stroke="black" points="1049.71,-170.26 1057.5,-163.07 1046.93,-163.83 1049.71,-170.26"/>
</g>
<!-- H&#45;&gt;A -->
<g id="edge41" class="edge">
<title>H&#45;&gt;A</title>
<path fill="none" stroke="black" stroke-dasharray="1,5" d="M1023.49,-160.44C1049.52,-174.19 1092.86,-197.86 1097,-205.1 1105.73,-220.38 1107.48,-230.55 1097,-244.7 1067.05,-285.12 1007.98,-296.74 965.68,-299.58"/>
<polygon fill="black" stroke="black" points="965.55,-296.08 955.74,-300.09 965.9,-303.07 965.55,-296.08"/>
</g>
<!-- K -->
<g id="node32" class="node">
<title>K</title>
<ellipse fill="none" stroke="black" cx="1223" cy="-300.49" rx="74.95" ry="19.8"/>
<text text-anchor="start" x="1178" y="-301.99" font-family="Menlo" font-size="10.00">K: &quot;whitespace&quot;</text>
<text text-anchor="start" x="1215.5" y="-291.99" font-family="Menlo" font-size="8.00" fill="gray"> &#160;</text>
<text text-anchor="start" x="1224.5" y="-291.99" font-family="Menlo" font-size="10.00"> </text>
</g>
</g>
</svg>
