<?xml version="1.0" encoding="UTF-8" standalone="no"?>
<!DOCTYPE svg PUBLIC "-//W3C//DTD SVG 1.1//EN"
 "http://www.w3.org/Graphics/SVG/1.1/DTD/svg11.dtd">
<!-- Generated by graphviz version 9.0.0 (20230911.1827)
 -->
<!-- Title: G Pages: 1 -->
<svg width="743pt" height="626pt"
 viewBox="0.00 0.00 743.00 625.82" xmlns="http://www.w3.org/2000/svg" xmlns:xlink="http://www.w3.org/1999/xlink">
<g id="graph0" class="graph" transform="scale(1 1) rotate(0) translate(4 621.82)">
<title>G</title>
<polygon fill="white" stroke="none" points="-4,4 -4,-621.82 739,-621.82 739,4 -4,4"/>
<g id="clust2" class="cluster">
<title>S</title>
<polygon fill="none" stroke="black" points="86,-250.75 86,-609.82 727,-609.82 727,-250.75 86,-250.75"/>
<text text-anchor="start" x="94" y="-596.32" font-family="Menlo" font-size="10.00">S = { &quot;a&quot; } &quot;x&quot; &quot;y&quot; &quot;z&quot; { &quot;b&quot; }</text>
</g>
<g id="clust1" class="cluster">
<title>GSS</title>
<polygon fill="none" stroke="black" points="8,-8 8,-581.1 78,-581.1 78,-8 8,-8"/>
<text text-anchor="start" x="16" y="-567.6" font-family="Menlo" font-size="10.00" fill="red">↵ab↵</text>
</g>
<!-- G1 -->
<g id="node1" class="node">
<title>G1</title>
<path fill="none" stroke="gray" d="M61.33,-98.75C61.33,-98.75 24.67,-98.75 24.67,-98.75 20.33,-98.75 16,-94.42 16,-90.08 16,-90.08 16,-81.42 16,-81.42 16,-77.08 20.33,-72.75 24.67,-72.75 24.67,-72.75 61.33,-72.75 61.33,-72.75 65.67,-72.75 70,-77.08 70,-81.42 70,-81.42 70,-90.08 70,-90.08 70,-94.42 65.67,-98.75 61.33,-98.75"/>
<text text-anchor="start" x="37" y="-86.25" font-family="Menlo" font-size="10.00">G1</text>
<text text-anchor="start" x="40.75" y="-78.15" font-family="Menlo" font-size="8.00" fill="gray"> </text>
</g>
<!-- A1 -->
<g id="node2" class="node">
<title>A1</title>
<path fill="none" stroke="gray" d="M63.08,-36.75C63.08,-36.75 22.92,-36.75 22.92,-36.75 19.46,-36.75 16,-33.29 16,-29.83 16,-29.83 16,-22.92 16,-22.92 16,-19.46 19.46,-16 22.92,-16 22.92,-16 63.08,-16 63.08,-16 66.54,-16 70,-19.46 70,-22.92 70,-22.92 70,-29.83 70,-29.83 70,-33.29 66.54,-36.75 63.08,-36.75"/>
<text text-anchor="middle" x="43" y="-23.25" font-family="Menlo" font-size="10.00">A1</text>
</g>
<!-- G1&#45;&gt;A1 -->
<g id="edge1" class="edge">
<title>G1&#45;&gt;A1</title>
<path fill="none" stroke="gray" d="M43,-72.3C43,-63.9 43,-52.72 43,-43.62"/>
<polygon fill="gray" stroke="gray" points="44.75,-43.65 43,-38.65 41.25,-43.65 44.75,-43.65"/>
</g>
<!-- F1 -->
<g id="node3" class="node">
<title>F1</title>
<path fill="none" stroke="gray" d="M61.33,-160.75C61.33,-160.75 24.67,-160.75 24.67,-160.75 20.33,-160.75 16,-156.42 16,-152.08 16,-152.08 16,-143.42 16,-143.42 16,-139.08 20.33,-134.75 24.67,-134.75 24.67,-134.75 61.33,-134.75 61.33,-134.75 65.67,-134.75 70,-139.08 70,-143.42 70,-143.42 70,-152.08 70,-152.08 70,-156.42 65.67,-160.75 61.33,-160.75"/>
<text text-anchor="start" x="37" y="-148.25" font-family="Menlo" font-size="10.00">F1</text>
<text text-anchor="start" x="40.75" y="-140.15" font-family="Menlo" font-size="8.00" fill="gray"> </text>
</g>
<!-- F1&#45;&gt;G1 -->
<g id="edge2" class="edge">
<title>F1&#45;&gt;G1</title>
<path fill="none" stroke="gray" d="M43,-134.32C43,-126.03 43,-114.98 43,-105.62"/>
<polygon fill="gray" stroke="gray" points="44.75,-105.68 43,-100.68 41.25,-105.68 44.75,-105.68"/>
</g>
<!-- E1 -->
<g id="node4" class="node">
<title>E1</title>
<path fill="none" stroke="gray" d="M61.33,-222.75C61.33,-222.75 24.67,-222.75 24.67,-222.75 20.33,-222.75 16,-218.42 16,-214.08 16,-214.08 16,-205.42 16,-205.42 16,-201.08 20.33,-196.75 24.67,-196.75 24.67,-196.75 61.33,-196.75 61.33,-196.75 65.67,-196.75 70,-201.08 70,-205.42 70,-205.42 70,-214.08 70,-214.08 70,-218.42 65.67,-222.75 61.33,-222.75"/>
<text text-anchor="start" x="37" y="-210.25" font-family="Menlo" font-size="10.00">E1</text>
<text text-anchor="start" x="40.75" y="-202.15" font-family="Menlo" font-size="8.00" fill="gray"> </text>
</g>
<!-- E1&#45;&gt;F1 -->
<g id="edge3" class="edge">
<title>E1&#45;&gt;F1</title>
<path fill="none" stroke="gray" d="M43,-196.32C43,-188.03 43,-176.98 43,-167.62"/>
<polygon fill="gray" stroke="gray" points="44.75,-167.68 43,-162.68 41.25,-167.68 44.75,-167.68"/>
</g>
<!-- D1 -->
<g id="node5" class="node">
<title>D1</title>
<path fill="none" stroke="gray" d="M61.33,-313.47C61.33,-313.47 24.67,-313.47 24.67,-313.47 20.33,-313.47 16,-309.14 16,-304.8 16,-304.8 16,-296.14 16,-296.14 16,-291.8 20.33,-287.47 24.67,-287.47 24.67,-287.47 61.33,-287.47 61.33,-287.47 65.67,-287.47 70,-291.8 70,-296.14 70,-296.14 70,-304.8 70,-304.8 70,-309.14 65.67,-313.47 61.33,-313.47"/>
<text text-anchor="start" x="37" y="-300.97" font-family="Menlo" font-size="10.00">D1</text>
<text text-anchor="start" x="40.75" y="-292.87" font-family="Menlo" font-size="8.00" fill="gray"> </text>
</g>
<!-- D1&#45;&gt;E1 -->
<g id="edge4" class="edge">
<title>D1&#45;&gt;E1</title>
<path fill="none" stroke="gray" d="M43,-287.13C43,-272.17 43,-246.8 43,-229.43"/>
<polygon fill="gray" stroke="gray" points="44.75,-229.49 43,-224.49 41.25,-229.49 44.75,-229.49"/>
</g>
<!-- C1 -->
<g id="node6" class="node">
<title>C1</title>
<path fill="none" stroke="gray" d="M61.33,-552.35C61.33,-552.35 24.67,-552.35 24.67,-552.35 20.33,-552.35 16,-548.01 16,-543.68 16,-543.68 16,-535.01 16,-535.01 16,-530.68 20.33,-526.35 24.67,-526.35 24.67,-526.35 61.33,-526.35 61.33,-526.35 65.67,-526.35 70,-530.68 70,-535.01 70,-535.01 70,-543.68 70,-543.68 70,-548.01 65.67,-552.35 61.33,-552.35"/>
<text text-anchor="start" x="37" y="-539.85" font-family="Menlo" font-size="10.00">C1</text>
<text text-anchor="start" x="38.5" y="-531.75" font-family="Menlo" font-size="8.00" fill="gray"> 2</text>
</g>
<!-- B1 -->
<g id="node7" class="node">
<title>B1</title>
<path fill="none" stroke="gray" d="M61.33,-432.91C61.33,-432.91 24.67,-432.91 24.67,-432.91 20.33,-432.91 16,-428.57 16,-424.24 16,-424.24 16,-415.57 16,-415.57 16,-411.24 20.33,-406.91 24.67,-406.91 24.67,-406.91 61.33,-406.91 61.33,-406.91 65.67,-406.91 70,-411.24 70,-415.57 70,-415.57 70,-424.24 70,-424.24 70,-428.57 65.67,-432.91 61.33,-432.91"/>
<text text-anchor="start" x="37" y="-420.41" font-family="Menlo" font-size="10.00">B1</text>
<text text-anchor="start" x="40.75" y="-412.31" font-family="Menlo" font-size="8.00" fill="gray"> </text>
</g>
<!-- C1&#45;&gt;B1 -->
<g id="edge5" class="edge">
<title>C1&#45;&gt;B1</title>
<path fill="none" stroke="gray" d="M43,-526.22C43,-505.65 43,-463.79 43,-439.5"/>
<polygon fill="gray" stroke="gray" points="44.75,-439.66 43,-434.66 41.25,-439.66 44.75,-439.66"/>
</g>
<!-- B1&#45;&gt;D1 -->
<g id="edge6" class="edge">
<title>B1&#45;&gt;D1</title>
<path fill="none" stroke="gray" d="M43,-406.78C43,-386.21 43,-344.35 43,-320.06"/>
<polygon fill="gray" stroke="gray" points="44.75,-320.22 43,-315.22 41.25,-320.22 44.75,-320.22"/>
</g>
<!-- A -->
<g id="node8" class="node">
<title>A</title>
<ellipse fill="none" stroke="gray" cx="390" cy="-539.35" rx="66.47" ry="41.72"/>
<text text-anchor="start" x="372" y="-555.35" font-family="Menlo" font-size="10.00">A: SEQ</text>
<text text-anchor="start" x="351" y="-542.6" font-family="Menlo" font-size="10.00">fi [&quot;a&quot;, &quot;x&quot;]</text>
<text text-anchor="start" x="369" y="-529.85" font-family="Menlo" font-size="10.00">fo [&quot;&quot;]</text>
<text text-anchor="start" x="375" y="-517.1" font-family="Menlo" font-size="10.00">am []</text>
</g>
<!-- B -->
<g id="node9" class="node">
<title>B</title>
<ellipse fill="none" stroke="gray" cx="156" cy="-419.91" rx="62.23" ry="41.72"/>
<text text-anchor="start" x="138" y="-435.91" font-family="Menlo" font-size="10.00">B: REP</text>
<text text-anchor="start" x="120" y="-423.16" font-family="Menlo" font-size="10.00">fi [&quot;&quot;, &quot;a&quot;]</text>
<text text-anchor="start" x="132" y="-410.41" font-family="Menlo" font-size="10.00">fo [&quot;x&quot;]</text>
<text text-anchor="start" x="141" y="-397.66" font-family="Menlo" font-size="10.00">am []</text>
</g>
<!-- A&#45;&gt;B -->
<g id="edge7" class="edge">
<title>A&#45;&gt;B</title>
<path fill="none" stroke="gray" d="M336.24,-514.37C304.21,-499.75 262.92,-480.34 227,-461.63 220.7,-458.34 214.15,-454.79 207.69,-451.2"/>
<polygon fill="gray" stroke="gray" points="208.83,-449.83 203.62,-448.91 207.12,-452.88 208.83,-449.83"/>
</g>
<!-- D -->
<g id="node11" class="node">
<title>D</title>
<ellipse fill="none" stroke="gray" cx="281" cy="-419.91" rx="45.25" ry="41.72"/>
<text text-anchor="start" x="263" y="-435.91" font-family="Menlo" font-size="10.00">D: &quot;x&quot;</text>
<text text-anchor="start" x="257" y="-423.16" font-family="Menlo" font-size="10.00">fi [&quot;x&quot;]</text>
<text text-anchor="start" x="257" y="-410.41" font-family="Menlo" font-size="10.00">fo [&quot;y&quot;]</text>
<text text-anchor="start" x="266" y="-397.66" font-family="Menlo" font-size="10.00">am []</text>
</g>
<!-- A&#45;&gt;D -->
<g id="edge9" class="edge">
<title>A&#45;&gt;D</title>
<path fill="none" stroke="gray" d="M357,-502.79C343.49,-488.23 327.87,-471.41 314.32,-456.81"/>
<polygon fill="gray" stroke="gray" points="315.9,-455.94 311.22,-453.47 313.34,-458.32 315.9,-455.94"/>
</g>
<!-- E -->
<g id="node12" class="node">
<title>E</title>
<ellipse fill="none" stroke="gray" cx="390" cy="-419.91" rx="45.25" ry="41.72"/>
<text text-anchor="start" x="372" y="-435.91" font-family="Menlo" font-size="10.00">E: &quot;y&quot;</text>
<text text-anchor="start" x="366" y="-423.16" font-family="Menlo" font-size="10.00">fi [&quot;y&quot;]</text>
<text text-anchor="start" x="366" y="-410.41" font-family="Menlo" font-size="10.00">fo [&quot;z&quot;]</text>
<text text-anchor="start" x="375" y="-397.66" font-family="Menlo" font-size="10.00">am []</text>
</g>
<!-- A&#45;&gt;E -->
<g id="edge10" class="edge">
<title>A&#45;&gt;E</title>
<path fill="none" stroke="gray" d="M390,-497.27C390,-487.83 390,-477.72 390,-468.04"/>
<polygon fill="gray" stroke="gray" points="391.75,-468.27 390,-463.27 388.25,-468.27 391.75,-468.27"/>
</g>
<!-- F -->
<g id="node13" class="node">
<title>F</title>
<ellipse fill="none" stroke="gray" cx="515" cy="-419.91" rx="62.23" ry="41.72"/>
<text text-anchor="start" x="497" y="-435.91" font-family="Menlo" font-size="10.00">F: &quot;z&quot;</text>
<text text-anchor="start" x="491" y="-423.16" font-family="Menlo" font-size="10.00">fi [&quot;z&quot;]</text>
<text text-anchor="start" x="479" y="-410.41" font-family="Menlo" font-size="10.00">fo [&quot;&quot;, &quot;b&quot;]</text>
<text text-anchor="start" x="500" y="-397.66" font-family="Menlo" font-size="10.00">am []</text>
</g>
<!-- A&#45;&gt;F -->
<g id="edge11" class="edge">
<title>A&#45;&gt;F</title>
<path fill="none" stroke="gray" d="M426.49,-504.06C441.64,-489.83 459.27,-473.26 474.8,-458.68"/>
<polygon fill="gray" stroke="gray" points="475.99,-459.96 478.44,-455.26 473.6,-457.41 475.99,-459.96"/>
</g>
<!-- G -->
<g id="node14" class="node">
<title>G</title>
<ellipse fill="none" stroke="gray" cx="657" cy="-419.91" rx="62.23" ry="41.72"/>
<text text-anchor="start" x="639" y="-435.91" font-family="Menlo" font-size="10.00">G: REP</text>
<text text-anchor="start" x="621" y="-423.16" font-family="Menlo" font-size="10.00">fi [&quot;&quot;, &quot;b&quot;]</text>
<text text-anchor="start" x="636" y="-410.41" font-family="Menlo" font-size="10.00">fo [&quot;&quot;]</text>
<text text-anchor="start" x="642" y="-397.66" font-family="Menlo" font-size="10.00">am []</text>
</g>
<!-- A&#45;&gt;G -->
<g id="edge12" class="edge">
<title>A&#45;&gt;G</title>
<path fill="none" stroke="gray" d="M447.55,-518.36C487.12,-504.01 540.52,-483.42 586,-461.63 592.51,-458.51 599.23,-455.03 605.82,-451.44"/>
<polygon fill="gray" stroke="gray" points="606.45,-453.09 609.99,-449.15 604.77,-450.03 606.45,-453.09"/>
</g>
<!-- C -->
<g id="node10" class="node">
<title>C</title>
<ellipse fill="none" stroke="gray" cx="160" cy="-300.47" rx="66.47" ry="41.72"/>
<text text-anchor="start" x="142" y="-316.47" font-family="Menlo" font-size="10.00">C: &quot;a&quot;</text>
<text text-anchor="start" x="136" y="-303.72" font-family="Menlo" font-size="10.00">fi [&quot;a&quot;]</text>
<text text-anchor="start" x="121" y="-290.97" font-family="Menlo" font-size="10.00">fo [&quot;a&quot;, &quot;x&quot;]</text>
<text text-anchor="start" x="145" y="-278.22" font-family="Menlo" font-size="10.00">am []</text>
</g>
<!-- B&#45;&gt;C -->
<g id="edge8" class="edge">
<title>B&#45;&gt;C</title>
<path fill="none" stroke="gray" d="M157.4,-377.83C157.72,-368.39 158.06,-358.28 158.39,-348.61"/>
<polygon fill="gray" stroke="gray" points="160.14,-348.89 158.56,-343.83 156.64,-348.77 160.14,-348.89"/>
</g>
<!-- H -->
<g id="node15" class="node">
<title>H</title>
<ellipse fill="none" stroke="gray" cx="657" cy="-300.47" rx="62.23" ry="41.72"/>
<text text-anchor="start" x="639" y="-316.47" font-family="Menlo" font-size="10.00">H: &quot;b&quot;</text>
<text text-anchor="start" x="633" y="-303.72" font-family="Menlo" font-size="10.00">fi [&quot;b&quot;]</text>
<text text-anchor="start" x="621" y="-290.97" font-family="Menlo" font-size="10.00">fo [&quot;&quot;, &quot;b&quot;]</text>
<text text-anchor="start" x="642" y="-278.22" font-family="Menlo" font-size="10.00">am []</text>
</g>
<!-- G&#45;&gt;H -->
<g id="edge13" class="edge">
<title>G&#45;&gt;H</title>
<path fill="none" stroke="gray" d="M657,-377.83C657,-368.39 657,-358.28 657,-348.61"/>
<polygon fill="gray" stroke="gray" points="658.75,-348.84 657,-343.84 655.25,-348.84 658.75,-348.84"/>
</g>
</g>
</svg>
