<?xml version="1.0" encoding="UTF-8" standalone="no"?>
<!DOCTYPE svg PUBLIC "-//W3C//DTD SVG 1.1//EN"
 "http://www.w3.org/Graphics/SVG/1.1/DTD/svg11.dtd">
<!-- Generated by graphviz version 9.0.0 (20230911.1827)
 -->
<!-- Title: G Pages: 1 -->
<svg width="1462pt" height="365pt"
 viewBox="0.00 0.00 1462.00 365.15" xmlns="http://www.w3.org/2000/svg" xmlns:xlink="http://www.w3.org/1999/xlink">
<g id="graph0" class="graph" transform="scale(1 1) rotate(0) translate(4 361.15)">
<title>G</title>
<polygon fill="white" stroke="none" points="-4,4 -4,-361.15 1458,-361.15 1458,4 -4,4"/>
<g id="clust3" class="cluster">
<title>multiLine</title>
<polygon fill="none" stroke="black" points="932,-275.63 932,-349.15 1098,-349.15 1098,-275.63 932,-275.63"/>
<text text-anchor="start" x="940" y="-335.65" font-family="Menlo" font-size="10.00">multiLine = /\*(?s).*?\*/</text>
</g>
<g id="clust4" class="cluster">
<title>singleLine</title>
<polygon fill="none" stroke="black" points="1106,-275.63 1106,-349.15 1272,-349.15 1272,-275.63 1106,-275.63"/>
<text text-anchor="start" x="1114" y="-335.65" font-family="Menlo" font-size="10.00">singleLine = //.*</text>
</g>
<g id="clust5" class="cluster">
<title>whitespace</title>
<polygon fill="none" stroke="black" points="1280,-275.63 1280,-349.15 1446,-349.15 1446,-275.63 1280,-275.63"/>
<text text-anchor="start" x="1288" y="-335.65" font-family="Menlo" font-size="10.00">whitespace = \s+</text>
</g>
<g id="clust1" class="cluster">
<title>GSS</title>
<polygon fill="none" stroke="black" points="8,-8 8,-341.14 366,-341.14 366,-8 8,-8"/>
<text text-anchor="start" x="16" y="-327.64" font-family="Menlo" font-size="10.00" fill="green">↵abcd↵</text>
</g>
<g id="clust2" class="cluster">
<title>S</title>
<polygon fill="none" stroke="black" points="374,-64.75 374,-345.44 924,-345.44 924,-64.75 374,-64.75"/>
<text text-anchor="start" x="382" y="-331.94" font-family="Menlo" font-size="10.00">S = ( &quot;a&quot; &quot;b&quot; &quot;c&quot; | &quot;a&quot; &quot;b&quot; &quot;c&quot; ) &quot;d&quot;</text>
</g>
<!-- K1 -->
<g id="node1" class="node">
<title>K1</title>
<path fill="none" stroke="black" d="M207.08,-101.51C207.08,-101.51 166.92,-101.51 166.92,-101.51 163.46,-101.51 160,-98.05 160,-94.59 160,-94.59 160,-87.68 160,-87.68 160,-84.22 163.46,-80.76 166.92,-80.76 166.92,-80.76 207.08,-80.76 207.08,-80.76 210.54,-80.76 214,-84.22 214,-87.68 214,-87.68 214,-94.59 214,-94.59 214,-98.05 210.54,-101.51 207.08,-101.51"/>
<text text-anchor="middle" x="187" y="-88.01" font-family="Menlo" font-size="10.00">K1</text>
</g>
<!-- A0 -->
<g id="node2" class="node">
<title>A0</title>
<path fill="none" stroke="black" d="M207.08,-36.75C207.08,-36.75 166.92,-36.75 166.92,-36.75 163.46,-36.75 160,-33.29 160,-29.83 160,-29.83 160,-22.92 160,-22.92 160,-19.46 163.46,-16 166.92,-16 166.92,-16 207.08,-16 207.08,-16 210.54,-16 214,-19.46 214,-22.92 214,-22.92 214,-29.83 214,-29.83 214,-33.29 210.54,-36.75 207.08,-36.75"/>
<text text-anchor="middle" x="187" y="-23.25" font-family="Menlo" font-size="10.00">A0</text>
</g>
<!-- K1&#45;&gt;A0 -->
<g id="edge1" class="edge">
<title>K1&#45;&gt;A0</title>
<path fill="none" stroke="black" d="M187,-80.33C187,-71.8 187,-59.16 187,-48.37"/>
<polygon fill="black" stroke="black" points="190.5,-48.42 187,-38.42 183.5,-48.42 190.5,-48.42"/>
</g>
<!-- J1 -->
<g id="node3" class="node">
<title>J1</title>
<path fill="none" stroke="black" d="M351.08,-170.57C351.08,-170.57 310.92,-170.57 310.92,-170.57 307.46,-170.57 304,-167.11 304,-163.65 304,-163.65 304,-156.73 304,-156.73 304,-153.28 307.46,-149.82 310.92,-149.82 310.92,-149.82 351.08,-149.82 351.08,-149.82 354.54,-149.82 358,-153.28 358,-156.73 358,-156.73 358,-163.65 358,-163.65 358,-167.11 354.54,-170.57 351.08,-170.57"/>
<text text-anchor="middle" x="331" y="-157.07" font-family="Menlo" font-size="10.00">J1</text>
</g>
<!-- J1&#45;&gt;K1 -->
<g id="edge2" class="edge">
<title>J1&#45;&gt;K1</title>
<path fill="none" stroke="black" d="M310.06,-149.44C285.96,-138.22 246.13,-119.67 218.33,-106.73"/>
<polygon fill="black" stroke="black" points="219.88,-103.58 209.34,-102.54 216.92,-109.93 219.88,-103.58"/>
</g>
<!-- I1 -->
<g id="node4" class="node">
<title>I1</title>
<path fill="none" stroke="black" d="M351.08,-239.62C351.08,-239.62 310.92,-239.62 310.92,-239.62 307.46,-239.62 304,-236.17 304,-232.71 304,-232.71 304,-225.79 304,-225.79 304,-222.33 307.46,-218.87 310.92,-218.87 310.92,-218.87 351.08,-218.87 351.08,-218.87 354.54,-218.87 358,-222.33 358,-225.79 358,-225.79 358,-232.71 358,-232.71 358,-236.17 354.54,-239.62 351.08,-239.62"/>
<text text-anchor="middle" x="331" y="-226.12" font-family="Menlo" font-size="10.00">I1</text>
</g>
<!-- I1&#45;&gt;J1 -->
<g id="edge3" class="edge">
<title>I1&#45;&gt;J1</title>
<path fill="none" stroke="black" d="M331,-218.64C331,-209.18 331,-194.42 331,-182.23"/>
<polygon fill="black" stroke="black" points="334.5,-182.3 331,-172.3 327.5,-182.3 334.5,-182.3"/>
</g>
<!-- H1 -->
<g id="node5" class="node">
<title>H1</title>
<path fill="none" stroke="black" d="M351.08,-312.39C351.08,-312.39 310.92,-312.39 310.92,-312.39 307.46,-312.39 304,-308.94 304,-305.48 304,-305.48 304,-298.56 304,-298.56 304,-295.1 307.46,-291.64 310.92,-291.64 310.92,-291.64 351.08,-291.64 351.08,-291.64 354.54,-291.64 358,-295.1 358,-298.56 358,-298.56 358,-305.48 358,-305.48 358,-308.94 354.54,-312.39 351.08,-312.39"/>
<text text-anchor="middle" x="331" y="-298.89" font-family="Menlo" font-size="10.00">H1</text>
</g>
<!-- H1&#45;&gt;I1 -->
<g id="edge4" class="edge">
<title>H1&#45;&gt;I1</title>
<path fill="none" stroke="black" d="M331,-291.18C331,-280.93 331,-264.57 331,-251.38"/>
<polygon fill="black" stroke="black" points="334.5,-251.52 331,-241.52 327.5,-251.52 334.5,-251.52"/>
</g>
<!-- G1 -->
<g id="node6" class="node">
<title>G1</title>
<path fill="none" stroke="black" d="M279.08,-170.57C279.08,-170.57 238.92,-170.57 238.92,-170.57 235.46,-170.57 232,-167.11 232,-163.65 232,-163.65 232,-156.73 232,-156.73 232,-153.28 235.46,-149.82 238.92,-149.82 238.92,-149.82 279.08,-149.82 279.08,-149.82 282.54,-149.82 286,-153.28 286,-156.73 286,-156.73 286,-163.65 286,-163.65 286,-167.11 282.54,-170.57 279.08,-170.57"/>
<text text-anchor="middle" x="259" y="-157.07" font-family="Menlo" font-size="10.00">G1</text>
</g>
<!-- G1&#45;&gt;K1 -->
<g id="edge5" class="edge">
<title>G1&#45;&gt;K1</title>
<path fill="none" stroke="black" d="M248.68,-149.58C237.46,-139.13 219.27,-122.19 205.55,-109.41"/>
<polygon fill="black" stroke="black" points="208.11,-107.01 198.4,-102.76 203.34,-112.13 208.11,-107.01"/>
</g>
<!-- F1 -->
<g id="node7" class="node">
<title>F1</title>
<path fill="none" stroke="black" d="M207.08,-170.57C207.08,-170.57 166.92,-170.57 166.92,-170.57 163.46,-170.57 160,-167.11 160,-163.65 160,-163.65 160,-156.73 160,-156.73 160,-153.28 163.46,-149.82 166.92,-149.82 166.92,-149.82 207.08,-149.82 207.08,-149.82 210.54,-149.82 214,-153.28 214,-156.73 214,-156.73 214,-163.65 214,-163.65 214,-167.11 210.54,-170.57 207.08,-170.57"/>
<text text-anchor="middle" x="187" y="-157.07" font-family="Menlo" font-size="10.00">F1</text>
</g>
<!-- F1&#45;&gt;K1 -->
<g id="edge6" class="edge">
<title>F1&#45;&gt;K1</title>
<path fill="none" stroke="black" d="M187,-149.58C187,-140.12 187,-125.36 187,-113.17"/>
<polygon fill="black" stroke="black" points="190.5,-113.24 187,-103.24 183.5,-113.24 190.5,-113.24"/>
</g>
<!-- E1 -->
<g id="node8" class="node">
<title>E1</title>
<path fill="none" stroke="black" d="M207.08,-239.62C207.08,-239.62 166.92,-239.62 166.92,-239.62 163.46,-239.62 160,-236.17 160,-232.71 160,-232.71 160,-225.79 160,-225.79 160,-222.33 163.46,-218.87 166.92,-218.87 166.92,-218.87 207.08,-218.87 207.08,-218.87 210.54,-218.87 214,-222.33 214,-225.79 214,-225.79 214,-232.71 214,-232.71 214,-236.17 210.54,-239.62 207.08,-239.62"/>
<text text-anchor="middle" x="187" y="-226.12" font-family="Menlo" font-size="10.00">E1</text>
</g>
<!-- E1&#45;&gt;F1 -->
<g id="edge7" class="edge">
<title>E1&#45;&gt;F1</title>
<path fill="none" stroke="black" d="M187,-218.64C187,-209.18 187,-194.42 187,-182.23"/>
<polygon fill="black" stroke="black" points="190.5,-182.3 187,-172.3 183.5,-182.3 190.5,-182.3"/>
</g>
<!-- D1 -->
<g id="node9" class="node">
<title>D1</title>
<path fill="none" stroke="black" d="M207.08,-312.39C207.08,-312.39 166.92,-312.39 166.92,-312.39 163.46,-312.39 160,-308.94 160,-305.48 160,-305.48 160,-298.56 160,-298.56 160,-295.1 163.46,-291.64 166.92,-291.64 166.92,-291.64 207.08,-291.64 207.08,-291.64 210.54,-291.64 214,-295.1 214,-298.56 214,-298.56 214,-305.48 214,-305.48 214,-308.94 210.54,-312.39 207.08,-312.39"/>
<text text-anchor="middle" x="187" y="-298.89" font-family="Menlo" font-size="10.00">D1</text>
</g>
<!-- D1&#45;&gt;E1 -->
<g id="edge8" class="edge">
<title>D1&#45;&gt;E1</title>
<path fill="none" stroke="black" d="M187,-291.18C187,-280.93 187,-264.57 187,-251.38"/>
<polygon fill="black" stroke="black" points="190.5,-251.52 187,-241.52 183.5,-251.52 190.5,-251.52"/>
</g>
<!-- C1 -->
<g id="node10" class="node">
<title>C1</title>
<path fill="none" stroke="black" d="M135.08,-170.57C135.08,-170.57 94.92,-170.57 94.92,-170.57 91.46,-170.57 88,-167.11 88,-163.65 88,-163.65 88,-156.73 88,-156.73 88,-153.28 91.46,-149.82 94.92,-149.82 94.92,-149.82 135.08,-149.82 135.08,-149.82 138.54,-149.82 142,-153.28 142,-156.73 142,-156.73 142,-163.65 142,-163.65 142,-167.11 138.54,-170.57 135.08,-170.57"/>
<text text-anchor="middle" x="115" y="-157.07" font-family="Menlo" font-size="10.00">C1</text>
</g>
<!-- C1&#45;&gt;K1 -->
<g id="edge9" class="edge">
<title>C1&#45;&gt;K1</title>
<path fill="none" stroke="black" d="M125.32,-149.58C136.54,-139.13 154.73,-122.19 168.45,-109.41"/>
<polygon fill="black" stroke="black" points="170.66,-112.13 175.6,-102.76 165.89,-107.01 170.66,-112.13"/>
</g>
<!-- B1 -->
<g id="node11" class="node">
<title>B1</title>
<path fill="none" stroke="black" d="M63.08,-170.57C63.08,-170.57 22.92,-170.57 22.92,-170.57 19.46,-170.57 16,-167.11 16,-163.65 16,-163.65 16,-156.73 16,-156.73 16,-153.28 19.46,-149.82 22.92,-149.82 22.92,-149.82 63.08,-149.82 63.08,-149.82 66.54,-149.82 70,-153.28 70,-156.73 70,-156.73 70,-163.65 70,-163.65 70,-167.11 66.54,-170.57 63.08,-170.57"/>
<text text-anchor="middle" x="43" y="-157.07" font-family="Menlo" font-size="10.00">B1</text>
</g>
<!-- B1&#45;&gt;K1 -->
<g id="edge10" class="edge">
<title>B1&#45;&gt;K1</title>
<path fill="none" stroke="black" d="M63.94,-149.44C88.04,-138.22 127.87,-119.67 155.67,-106.73"/>
<polygon fill="black" stroke="black" points="157.08,-109.93 164.66,-102.54 154.12,-103.58 157.08,-109.93"/>
</g>
<!-- A -->
<g id="node12" class="node">
<title>A</title>
<ellipse fill="none" stroke="black" cx="695" cy="-302.02" rx="36.77" ry="14.67"/>
<text text-anchor="start" x="677" y="-298.89" font-family="Menlo" font-size="10.00">A: SEQ</text>
</g>
<!-- B -->
<g id="node13" class="node">
<title>B</title>
<ellipse fill="none" stroke="black" cx="649" cy="-229.25" rx="36.77" ry="14.67"/>
<text text-anchor="start" x="631" y="-226.12" font-family="Menlo" font-size="10.00">B: ALT</text>
</g>
<!-- A&#45;&gt;B -->
<g id="edge11" class="edge">
<title>A&#45;&gt;B</title>
<path fill="none" stroke="black" d="M686.13,-287.37C679.89,-277.78 671.39,-264.7 664.1,-253.48"/>
<polygon fill="black" stroke="black" points="667.05,-251.6 658.67,-245.12 661.18,-255.41 667.05,-251.6"/>
</g>
<!-- K -->
<g id="node22" class="node">
<title>K</title>
<ellipse fill="none" stroke="black" cx="741" cy="-229.25" rx="36.77" ry="18.38"/>
<text text-anchor="start" x="723" y="-229.75" font-family="Menlo" font-size="10.00">K: &quot;d&quot;</text>
<text text-anchor="start" x="732" y="-221.65" font-family="Menlo" font-size="8.00" fill="gray"> 4:5</text>
</g>
<!-- A&#45;&gt;K -->
<g id="edge20" class="edge">
<title>A&#45;&gt;K</title>
<path fill="none" stroke="black" d="M703.87,-287.37C709.53,-278.67 717.05,-267.1 723.84,-256.65"/>
<polygon fill="black" stroke="black" points="726.71,-258.66 729.22,-248.37 720.84,-254.85 726.71,-258.66"/>
</g>
<!-- C -->
<g id="node14" class="node">
<title>C</title>
<ellipse fill="none" stroke="black" cx="557" cy="-160.19" rx="36.77" ry="14.67"/>
<text text-anchor="start" x="539" y="-157.07" font-family="Menlo" font-size="10.00">C: SEQ</text>
</g>
<!-- B&#45;&gt;C -->
<g id="edge12" class="edge">
<title>B&#45;&gt;C</title>
<path fill="none" stroke="black" d="M632.13,-215.95C618.47,-205.99 598.98,-191.79 583.28,-180.35"/>
<polygon fill="black" stroke="black" points="585.44,-177.59 575.3,-174.53 581.32,-183.25 585.44,-177.59"/>
</g>
<!-- G -->
<g id="node18" class="node">
<title>G</title>
<ellipse fill="none" stroke="black" cx="741" cy="-160.19" rx="36.77" ry="14.67"/>
<text text-anchor="start" x="723" y="-157.07" font-family="Menlo" font-size="10.00">G: SEQ</text>
</g>
<!-- B&#45;&gt;G -->
<g id="edge16" class="edge">
<title>B&#45;&gt;G</title>
<path fill="none" stroke="black" d="M665.87,-215.95C679.53,-205.99 699.02,-191.79 714.72,-180.35"/>
<polygon fill="black" stroke="black" points="716.68,-183.25 722.7,-174.53 712.56,-177.59 716.68,-183.25"/>
</g>
<!-- D -->
<g id="node15" class="node">
<title>D</title>
<ellipse fill="none" stroke="black" cx="419" cy="-91.13" rx="36.77" ry="18.38"/>
<text text-anchor="start" x="401" y="-91.63" font-family="Menlo" font-size="10.00">D: &quot;a&quot;</text>
<text text-anchor="start" x="410" y="-83.53" font-family="Menlo" font-size="8.00" fill="gray"> 1:2</text>
</g>
<!-- C&#45;&gt;D -->
<g id="edge13" class="edge">
<title>C&#45;&gt;D</title>
<path fill="none" stroke="black" d="M534.52,-148.27C513,-137.81 480.18,-121.87 455.02,-109.64"/>
<polygon fill="black" stroke="black" points="456.64,-106.54 446.12,-105.31 453.58,-112.83 456.64,-106.54"/>
</g>
<!-- E -->
<g id="node16" class="node">
<title>E</title>
<ellipse fill="none" stroke="black" cx="511" cy="-91.13" rx="36.77" ry="18.38"/>
<text text-anchor="start" x="493" y="-91.63" font-family="Menlo" font-size="10.00">E: &quot;b&quot;</text>
<text text-anchor="start" x="502" y="-83.53" font-family="Menlo" font-size="8.00" fill="gray"> 2:3</text>
</g>
<!-- C&#45;&gt;E -->
<g id="edge14" class="edge">
<title>C&#45;&gt;E</title>
<path fill="none" stroke="black" d="M547.69,-145.62C542.31,-137.78 535.37,-127.65 528.97,-118.32"/>
<polygon fill="black" stroke="black" points="531.98,-116.53 523.44,-110.27 526.21,-120.49 531.98,-116.53"/>
</g>
<!-- F -->
<g id="node17" class="node">
<title>F</title>
<ellipse fill="none" stroke="black" cx="603" cy="-91.13" rx="36.77" ry="18.38"/>
<text text-anchor="start" x="585" y="-91.63" font-family="Menlo" font-size="10.00">F: &quot;c&quot;</text>
<text text-anchor="start" x="594" y="-83.53" font-family="Menlo" font-size="8.00" fill="gray"> 3:4</text>
</g>
<!-- C&#45;&gt;F -->
<g id="edge15" class="edge">
<title>C&#45;&gt;F</title>
<path fill="none" stroke="black" d="M566.31,-145.62C571.69,-137.78 578.63,-127.65 585.03,-118.32"/>
<polygon fill="black" stroke="black" points="587.79,-120.49 590.56,-110.27 582.02,-116.53 587.79,-120.49"/>
</g>
<!-- H -->
<g id="node19" class="node">
<title>H</title>
<ellipse fill="none" stroke="black" cx="695" cy="-91.13" rx="36.77" ry="18.38"/>
<text text-anchor="start" x="677" y="-91.63" font-family="Menlo" font-size="10.00">H: &quot;a&quot;</text>
<text text-anchor="start" x="686" y="-83.53" font-family="Menlo" font-size="8.00" fill="gray"> 1:2</text>
</g>
<!-- G&#45;&gt;H -->
<g id="edge17" class="edge">
<title>G&#45;&gt;H</title>
<path fill="none" stroke="black" d="M731.69,-145.62C726.31,-137.78 719.37,-127.65 712.97,-118.32"/>
<polygon fill="black" stroke="black" points="715.98,-116.53 707.44,-110.27 710.21,-120.49 715.98,-116.53"/>
</g>
<!-- I -->
<g id="node20" class="node">
<title>I</title>
<ellipse fill="none" stroke="black" cx="787" cy="-91.13" rx="36.77" ry="18.38"/>
<text text-anchor="start" x="769" y="-91.63" font-family="Menlo" font-size="10.00">I: &quot;b&quot;</text>
<text text-anchor="start" x="778" y="-83.53" font-family="Menlo" font-size="8.00" fill="gray"> 2:3</text>
</g>
<!-- G&#45;&gt;I -->
<g id="edge18" class="edge">
<title>G&#45;&gt;I</title>
<path fill="none" stroke="black" d="M750.31,-145.62C755.69,-137.78 762.63,-127.65 769.03,-118.32"/>
<polygon fill="black" stroke="black" points="771.79,-120.49 774.56,-110.27 766.02,-116.53 771.79,-120.49"/>
</g>
<!-- J -->
<g id="node21" class="node">
<title>J</title>
<ellipse fill="none" stroke="black" cx="879" cy="-91.13" rx="36.77" ry="18.38"/>
<text text-anchor="start" x="861" y="-91.63" font-family="Menlo" font-size="10.00">J: &quot;c&quot;</text>
<text text-anchor="start" x="870" y="-83.53" font-family="Menlo" font-size="8.00" fill="gray"> 3:4</text>
</g>
<!-- G&#45;&gt;J -->
<g id="edge19" class="edge">
<title>G&#45;&gt;J</title>
<path fill="none" stroke="black" d="M763.48,-148.27C785,-137.81 817.82,-121.87 842.98,-109.64"/>
<polygon fill="black" stroke="black" points="844.42,-112.83 851.88,-105.31 841.36,-106.54 844.42,-112.83"/>
</g>
<!-- L -->
<g id="node23" class="node">
<title>L</title>
<ellipse fill="none" stroke="black" cx="1015" cy="-302.02" rx="70.71" ry="18.38"/>
<text text-anchor="start" x="973" y="-302.52" font-family="Menlo" font-size="10.00">L: &quot;multiLine&quot;</text>
<text text-anchor="start" x="1012.75" y="-294.42" font-family="Menlo" font-size="8.00" fill="gray"> </text>
</g>
<!-- M -->
<g id="node24" class="node">
<title>M</title>
<ellipse fill="none" stroke="black" cx="1189" cy="-302.02" rx="74.95" ry="18.38"/>
<text text-anchor="start" x="1144" y="-302.52" font-family="Menlo" font-size="10.00">M: &quot;singleLine&quot;</text>
<text text-anchor="start" x="1186.75" y="-294.42" font-family="Menlo" font-size="8.00" fill="gray"> </text>
</g>
<!-- N -->
<g id="node25" class="node">
<title>N</title>
<ellipse fill="none" stroke="black" cx="1363" cy="-302.02" rx="74.95" ry="18.38"/>
<text text-anchor="start" x="1318" y="-302.52" font-family="Menlo" font-size="10.00">N: &quot;whitespace&quot;</text>
<text text-anchor="start" x="1360.75" y="-294.42" font-family="Menlo" font-size="8.00" fill="gray"> </text>
</g>
</g>
</svg>
