<?xml version="1.0" encoding="UTF-8" standalone="no"?>
<!DOCTYPE svg PUBLIC "-//W3C//DTD SVG 1.1//EN"
 "http://www.w3.org/Graphics/SVG/1.1/DTD/svg11.dtd">
<!-- Generated by graphviz version 9.0.0 (20230911.1827)
 -->
<!-- Title: G Pages: 1 -->
<svg width="1253pt" height="300pt"
 viewBox="0.00 0.00 1253.00 299.81" xmlns="http://www.w3.org/2000/svg" xmlns:xlink="http://www.w3.org/1999/xlink">
<g id="graph0" class="graph" transform="scale(1 1) rotate(0) translate(4 295.81)">
<title>G</title>
<polygon fill="white" stroke="none" points="-4,4 -4,-295.81 1249,-295.81 1249,4 -4,4"/>
<g id="clust5" class="cluster">
<title>whitespace</title>
<polygon fill="none" stroke="black" points="1071,-210.29 1071,-283.81 1237,-283.81 1237,-210.29 1071,-210.29"/>
<text text-anchor="start" x="1079" y="-270.31" font-family="Menlo" font-size="10.00">whitespace = /\s+/</text>
</g>
<g id="clust1" class="cluster">
<title>GSS</title>
<polygon fill="none" stroke="black" points="8,-8 8,-278.42 294,-278.42 294,-8 8,-8"/>
<text text-anchor="start" x="16" y="-264.92" font-family="Menlo" font-size="10.00" fill="green">abc↵</text>
</g>
<g id="clust2" class="cluster">
<title>B</title>
<polygon fill="none" stroke="black" points="303,-210.29 303,-283.81 393,-283.81 393,-210.29 303,-210.29"/>
<text text-anchor="start" x="311" y="-270.31" font-family="Menlo" font-size="10.00">B = &quot;b&quot;</text>
</g>
<g id="clust3" class="cluster">
<title>S</title>
<polygon fill="none" stroke="black" points="401,-64.75 401,-283.81 915,-283.81 915,-64.75 401,-64.75"/>
<text text-anchor="start" x="409" y="-270.31" font-family="Menlo" font-size="10.00">S = &quot;a&quot; B &quot;c&quot; | &quot;a&quot; B &quot;c&quot;</text>
</g>
<g id="clust4" class="cluster">
<title>comment</title>
<polygon fill="none" stroke="black" points="923,-210.29 923,-283.81 1063,-283.81 1063,-210.29 923,-210.29"/>
<text text-anchor="start" x="931" y="-270.31" font-family="Menlo" font-size="10.00">comment = /\/\/.*/</text>
</g>
<!-- J0 -->
<g id="node1" class="node">
<title>J0</title>
<path fill="none" stroke="black" d="M133.33,-104.13C133.33,-104.13 96.67,-104.13 96.67,-104.13 92.33,-104.13 88,-99.8 88,-95.47 88,-95.47 88,-86.8 88,-86.8 88,-82.47 92.33,-78.13 96.67,-78.13 96.67,-78.13 133.33,-78.13 133.33,-78.13 137.67,-78.13 142,-82.47 142,-86.8 142,-86.8 142,-95.47 142,-95.47 142,-99.8 137.67,-104.13 133.33,-104.13"/>
<text text-anchor="start" x="109" y="-91.63" font-family="Menlo" font-size="10.00">J0</text>
<text text-anchor="start" x="103.75" y="-83.53" font-family="Menlo" font-size="8.00" fill="gray"> 0, 4</text>
</g>
<!-- B0 -->
<g id="node2" class="node">
<title>B0</title>
<path fill="none" stroke="black" d="M171.08,-36.75C171.08,-36.75 130.92,-36.75 130.92,-36.75 127.46,-36.75 124,-33.29 124,-29.83 124,-29.83 124,-22.92 124,-22.92 124,-19.46 127.46,-16 130.92,-16 130.92,-16 171.08,-16 171.08,-16 174.54,-16 178,-19.46 178,-22.92 178,-22.92 178,-29.83 178,-29.83 178,-33.29 174.54,-36.75 171.08,-36.75"/>
<text text-anchor="middle" x="151" y="-23.25" font-family="Menlo" font-size="10.00">B0</text>
</g>
<!-- J0&#45;&gt;B0 -->
<g id="edge1" class="edge">
<title>J0&#45;&gt;B0</title>
<path fill="none" stroke="black" d="M122.11,-77.74C127.17,-68.92 134.06,-56.91 139.84,-46.82"/>
<polygon fill="black" stroke="black" points="142.85,-48.61 144.79,-38.19 136.78,-45.13 142.85,-48.61"/>
</g>
<!-- I0 -->
<g id="node3" class="node">
<title>I0</title>
<path fill="none" stroke="black" d="M205.33,-176.9C205.33,-176.9 168.67,-176.9 168.67,-176.9 164.33,-176.9 160,-172.57 160,-168.24 160,-168.24 160,-159.57 160,-159.57 160,-155.24 164.33,-150.9 168.67,-150.9 168.67,-150.9 205.33,-150.9 205.33,-150.9 209.67,-150.9 214,-155.24 214,-159.57 214,-159.57 214,-168.24 214,-168.24 214,-172.57 209.67,-176.9 205.33,-176.9"/>
<text text-anchor="start" x="181" y="-164.4" font-family="Menlo" font-size="10.00">I0</text>
<text text-anchor="start" x="182.5" y="-156.3" font-family="Menlo" font-size="8.00" fill="gray"> 2</text>
</g>
<!-- I0&#45;&gt;J0 -->
<g id="edge2" class="edge">
<title>I0&#45;&gt;J0</title>
<path fill="none" stroke="black" d="M174.46,-150.58C163.72,-140.02 148.05,-124.62 135.5,-112.28"/>
<polygon fill="black" stroke="black" points="138.06,-109.9 128.48,-105.38 133.16,-114.89 138.06,-109.9"/>
</g>
<!-- H0 -->
<g id="node4" class="node">
<title>H0</title>
<path fill="none" stroke="black" d="M205.33,-249.67C205.33,-249.67 168.67,-249.67 168.67,-249.67 164.33,-249.67 160,-245.34 160,-241.01 160,-241.01 160,-232.34 160,-232.34 160,-228.01 164.33,-223.67 168.67,-223.67 168.67,-223.67 205.33,-223.67 205.33,-223.67 209.67,-223.67 214,-228.01 214,-232.34 214,-232.34 214,-241.01 214,-241.01 214,-245.34 209.67,-249.67 205.33,-249.67"/>
<text text-anchor="start" x="181" y="-237.17" font-family="Menlo" font-size="10.00">H0</text>
<text text-anchor="start" x="182.5" y="-229.07" font-family="Menlo" font-size="8.00" fill="gray"> 1</text>
</g>
<!-- H0&#45;&gt;I0 -->
<g id="edge3" class="edge">
<title>H0&#45;&gt;I0</title>
<path fill="none" stroke="black" d="M187,-223.35C187,-213.71 187,-200.02 187,-188.32"/>
<polygon fill="black" stroke="black" points="190.5,-188.6 187,-178.6 183.5,-188.6 190.5,-188.6"/>
</g>
<!-- G0 -->
<g id="node5" class="node">
<title>G0</title>
<path fill="none" stroke="black" d="M277.33,-104.13C277.33,-104.13 240.67,-104.13 240.67,-104.13 236.33,-104.13 232,-99.8 232,-95.47 232,-95.47 232,-86.8 232,-86.8 232,-82.47 236.33,-78.13 240.67,-78.13 240.67,-78.13 277.33,-78.13 277.33,-78.13 281.67,-78.13 286,-82.47 286,-86.8 286,-86.8 286,-95.47 286,-95.47 286,-99.8 281.67,-104.13 277.33,-104.13"/>
<text text-anchor="start" x="253" y="-91.63" font-family="Menlo" font-size="10.00">G0</text>
<text text-anchor="start" x="247.75" y="-83.53" font-family="Menlo" font-size="8.00" fill="gray"> 0, 4</text>
</g>
<!-- G0&#45;&gt;B0 -->
<g id="edge4" class="edge">
<title>G0&#45;&gt;B0</title>
<path fill="none" stroke="black" d="M242.47,-77.77C236.46,-73.47 229.53,-68.72 223,-64.75 209.84,-56.74 194.78,-48.76 181.85,-42.23"/>
<polygon fill="black" stroke="black" points="183.44,-39.12 172.93,-37.8 180.33,-45.39 183.44,-39.12"/>
</g>
<!-- F0 -->
<g id="node6" class="node">
<title>F0</title>
<path fill="none" stroke="black" d="M61.33,-104.13C61.33,-104.13 24.67,-104.13 24.67,-104.13 20.33,-104.13 16,-99.8 16,-95.47 16,-95.47 16,-86.8 16,-86.8 16,-82.47 20.33,-78.13 24.67,-78.13 24.67,-78.13 61.33,-78.13 61.33,-78.13 65.67,-78.13 70,-82.47 70,-86.8 70,-86.8 70,-95.47 70,-95.47 70,-99.8 65.67,-104.13 61.33,-104.13"/>
<text text-anchor="start" x="37" y="-91.63" font-family="Menlo" font-size="10.00">F0</text>
<text text-anchor="start" x="31.75" y="-83.53" font-family="Menlo" font-size="8.00" fill="gray"> 0, 4</text>
</g>
<!-- F0&#45;&gt;B0 -->
<g id="edge5" class="edge">
<title>F0&#45;&gt;B0</title>
<path fill="none" stroke="black" d="M59.53,-77.77C65.54,-73.47 72.47,-68.72 79,-64.75 92.16,-56.74 107.22,-48.76 120.15,-42.23"/>
<polygon fill="black" stroke="black" points="121.67,-45.39 129.07,-37.8 118.56,-39.12 121.67,-45.39"/>
</g>
<!-- E0 -->
<g id="node7" class="node">
<title>E0</title>
<path fill="none" stroke="black" d="M61.33,-176.9C61.33,-176.9 24.67,-176.9 24.67,-176.9 20.33,-176.9 16,-172.57 16,-168.24 16,-168.24 16,-159.57 16,-159.57 16,-155.24 20.33,-150.9 24.67,-150.9 24.67,-150.9 61.33,-150.9 61.33,-150.9 65.67,-150.9 70,-155.24 70,-159.57 70,-159.57 70,-168.24 70,-168.24 70,-172.57 65.67,-176.9 61.33,-176.9"/>
<text text-anchor="start" x="37" y="-164.4" font-family="Menlo" font-size="10.00">E0</text>
<text text-anchor="start" x="38.5" y="-156.3" font-family="Menlo" font-size="8.00" fill="gray"> 2</text>
</g>
<!-- E0&#45;&gt;F0 -->
<g id="edge6" class="edge">
<title>E0&#45;&gt;F0</title>
<path fill="none" stroke="black" d="M43,-150.58C43,-140.94 43,-127.25 43,-115.55"/>
<polygon fill="black" stroke="black" points="46.5,-115.83 43,-105.83 39.5,-115.83 46.5,-115.83"/>
</g>
<!-- D0 -->
<g id="node8" class="node">
<title>D0</title>
<path fill="none" stroke="black" d="M61.33,-249.67C61.33,-249.67 24.67,-249.67 24.67,-249.67 20.33,-249.67 16,-245.34 16,-241.01 16,-241.01 16,-232.34 16,-232.34 16,-228.01 20.33,-223.67 24.67,-223.67 24.67,-223.67 61.33,-223.67 61.33,-223.67 65.67,-223.67 70,-228.01 70,-232.34 70,-232.34 70,-241.01 70,-241.01 70,-245.34 65.67,-249.67 61.33,-249.67"/>
<text text-anchor="start" x="37" y="-237.17" font-family="Menlo" font-size="10.00">D0</text>
<text text-anchor="start" x="38.5" y="-229.07" font-family="Menlo" font-size="8.00" fill="gray"> 1</text>
</g>
<!-- D0&#45;&gt;E0 -->
<g id="edge7" class="edge">
<title>D0&#45;&gt;E0</title>
<path fill="none" stroke="black" d="M43,-223.35C43,-213.71 43,-200.02 43,-188.32"/>
<polygon fill="black" stroke="black" points="46.5,-188.6 43,-178.6 39.5,-188.6 46.5,-188.6"/>
</g>
<!-- C0 -->
<g id="node9" class="node">
<title>C0</title>
<path fill="none" stroke="black" d="M205.33,-104.13C205.33,-104.13 168.67,-104.13 168.67,-104.13 164.33,-104.13 160,-99.8 160,-95.47 160,-95.47 160,-86.8 160,-86.8 160,-82.47 164.33,-78.13 168.67,-78.13 168.67,-78.13 205.33,-78.13 205.33,-78.13 209.67,-78.13 214,-82.47 214,-86.8 214,-86.8 214,-95.47 214,-95.47 214,-99.8 209.67,-104.13 205.33,-104.13"/>
<text text-anchor="start" x="181" y="-91.63" font-family="Menlo" font-size="10.00">C0</text>
<text text-anchor="start" x="175.75" y="-83.53" font-family="Menlo" font-size="8.00" fill="gray"> 0, 4</text>
</g>
<!-- C0&#45;&gt;B0 -->
<g id="edge8" class="edge">
<title>C0&#45;&gt;B0</title>
<path fill="none" stroke="black" d="M179.89,-77.74C174.83,-68.92 167.94,-56.91 162.16,-46.82"/>
<polygon fill="black" stroke="black" points="165.22,-45.13 157.21,-38.19 159.15,-48.61 165.22,-45.13"/>
</g>
<!-- A1 -->
<g id="node10" class="node">
<title>A1</title>
<path fill="none" stroke="black" d="M133.33,-176.9C133.33,-176.9 96.67,-176.9 96.67,-176.9 92.33,-176.9 88,-172.57 88,-168.24 88,-168.24 88,-159.57 88,-159.57 88,-155.24 92.33,-150.9 96.67,-150.9 96.67,-150.9 133.33,-150.9 133.33,-150.9 137.67,-150.9 142,-155.24 142,-159.57 142,-159.57 142,-168.24 142,-168.24 142,-172.57 137.67,-176.9 133.33,-176.9"/>
<text text-anchor="start" x="109" y="-164.4" font-family="Menlo" font-size="10.00">A1</text>
<text text-anchor="start" x="110.5" y="-156.3" font-family="Menlo" font-size="8.00" fill="gray"> 2</text>
</g>
<!-- A1&#45;&gt;J0 -->
<g id="edge10" class="edge">
<title>A1&#45;&gt;J0</title>
<path fill="none" stroke="black" d="M115,-150.58C115,-140.94 115,-127.25 115,-115.55"/>
<polygon fill="black" stroke="black" points="118.5,-115.83 115,-105.83 111.5,-115.83 118.5,-115.83"/>
</g>
<!-- A1&#45;&gt;F0 -->
<g id="edge9" class="edge">
<title>A1&#45;&gt;F0</title>
<path fill="none" stroke="black" d="M102.46,-150.58C91.72,-140.02 76.05,-124.62 63.5,-112.28"/>
<polygon fill="black" stroke="black" points="66.06,-109.9 56.48,-105.38 61.16,-114.89 66.06,-109.9"/>
</g>
<!-- A -->
<g id="node11" class="node">
<title>A</title>
<ellipse fill="none" stroke="black" cx="348" cy="-236.67" rx="36.77" ry="18.38"/>
<text text-anchor="start" x="330" y="-237.17" font-family="Menlo" font-size="10.00">A: &quot;b&quot;</text>
<text text-anchor="start" x="334.5" y="-229.07" font-family="Menlo" font-size="8.00" fill="gray"> 1:1:2</text>
</g>
<!-- B -->
<g id="node12" class="node">
<title>B</title>
<ellipse fill="none" stroke="black" cx="657" cy="-236.67" rx="36.77" ry="18.38"/>
<text text-anchor="start" x="639" y="-237.17" font-family="Menlo" font-size="10.00">B: ALT</text>
<text text-anchor="start" x="654.75" y="-229.07" font-family="Menlo" font-size="8.00" fill="gray"> </text>
</g>
<!-- C -->
<g id="node13" class="node">
<title>C</title>
<ellipse fill="none" stroke="black" cx="570" cy="-163.9" rx="36.77" ry="18.38"/>
<text text-anchor="start" x="552" y="-164.4" font-family="Menlo" font-size="10.00">C: SEQ</text>
<text text-anchor="start" x="567.75" y="-156.3" font-family="Menlo" font-size="8.00" fill="gray"> </text>
</g>
<!-- B&#45;&gt;C -->
<g id="edge11" class="edge">
<title>B&#45;&gt;C</title>
<path fill="none" stroke="black" d="M638.55,-220.67C626.63,-210.97 610.92,-198.19 597.54,-187.3"/>
<polygon fill="black" stroke="black" points="599.86,-184.69 589.9,-181.09 595.45,-190.12 599.86,-184.69"/>
</g>
<!-- G -->
<g id="node17" class="node">
<title>G</title>
<ellipse fill="none" stroke="black" cx="745" cy="-163.9" rx="36.77" ry="18.38"/>
<text text-anchor="start" x="727" y="-164.4" font-family="Menlo" font-size="10.00">G: SEQ</text>
<text text-anchor="start" x="742.75" y="-156.3" font-family="Menlo" font-size="8.00" fill="gray"> </text>
</g>
<!-- B&#45;&gt;G -->
<g id="edge15" class="edge">
<title>B&#45;&gt;G</title>
<path fill="none" stroke="black" d="M675.66,-220.67C687.71,-210.97 703.61,-198.19 717.15,-187.3"/>
<polygon fill="black" stroke="black" points="719.28,-190.08 724.88,-181.08 714.9,-184.62 719.28,-190.08"/>
</g>
<!-- D -->
<g id="node14" class="node">
<title>D</title>
<ellipse fill="none" stroke="black" cx="446" cy="-91.13" rx="36.77" ry="18.38"/>
<text text-anchor="start" x="428" y="-91.63" font-family="Menlo" font-size="10.00">D: &quot;a&quot;</text>
<text text-anchor="start" x="432.5" y="-83.53" font-family="Menlo" font-size="8.00" fill="gray"> 0:0:1</text>
</g>
<!-- C&#45;&gt;D -->
<g id="edge12" class="edge">
<title>C&#45;&gt;D</title>
<path fill="none" stroke="black" d="M546.38,-149.43C527.42,-138.6 500.56,-123.28 479.4,-111.2"/>
<polygon fill="black" stroke="black" points="481.26,-108.23 470.84,-106.31 477.79,-114.31 481.26,-108.23"/>
</g>
<!-- E -->
<g id="node15" class="node">
<title>E</title>
<ellipse fill="none" stroke="black" cx="529" cy="-91.13" rx="28.28" ry="18.38"/>
<text text-anchor="start" x="517" y="-91.63" font-family="Menlo" font-size="10.00">E: B</text>
<text text-anchor="start" x="526.75" y="-83.53" font-family="Menlo" font-size="8.00" fill="gray"> </text>
</g>
<!-- C&#45;&gt;E -->
<g id="edge13" class="edge">
<title>C&#45;&gt;E</title>
<path fill="none" stroke="black" d="M560.08,-145.77C555.32,-137.57 549.53,-127.56 544.23,-118.43"/>
<polygon fill="black" stroke="black" points="547.35,-116.83 539.31,-109.93 541.29,-120.34 547.35,-116.83"/>
</g>
<!-- F -->
<g id="node16" class="node">
<title>F</title>
<ellipse fill="none" stroke="black" cx="612" cy="-91.13" rx="36.77" ry="18.38"/>
<text text-anchor="start" x="594" y="-91.63" font-family="Menlo" font-size="10.00">F: &quot;c&quot;</text>
<text text-anchor="start" x="598.5" y="-83.53" font-family="Menlo" font-size="8.00" fill="gray"> 2:2:3</text>
</g>
<!-- C&#45;&gt;F -->
<g id="edge14" class="edge">
<title>C&#45;&gt;F</title>
<path fill="none" stroke="black" d="M580.17,-145.77C584.96,-137.69 590.8,-127.85 596.16,-118.82"/>
<polygon fill="black" stroke="black" points="599.06,-120.8 601.15,-110.41 593.04,-117.22 599.06,-120.8"/>
</g>
<!-- E&#45;&gt;A -->
<g id="edge19" class="edge">
<title>E&#45;&gt;A</title>
<path fill="none" stroke="black" stroke-dasharray="1,5" d="M506.79,-102.83C501.94,-105.09 496.82,-107.43 492,-109.52 452.49,-126.69 434.79,-117.57 402,-145.52 382.41,-162.22 368.01,-187.89 359.03,-207.58"/>
<polygon fill="black" stroke="black" points="355.84,-206.13 355.09,-216.7 362.27,-208.91 355.84,-206.13"/>
</g>
<!-- H -->
<g id="node18" class="node">
<title>H</title>
<ellipse fill="none" stroke="black" cx="704" cy="-91.13" rx="36.77" ry="18.38"/>
<text text-anchor="start" x="686" y="-91.63" font-family="Menlo" font-size="10.00">H: &quot;a&quot;</text>
<text text-anchor="start" x="690.5" y="-83.53" font-family="Menlo" font-size="8.00" fill="gray"> 0:0:1</text>
</g>
<!-- G&#45;&gt;H -->
<g id="edge16" class="edge">
<title>G&#45;&gt;H</title>
<path fill="none" stroke="black" d="M735.08,-145.77C730.39,-137.69 724.69,-127.85 719.46,-118.82"/>
<polygon fill="black" stroke="black" points="722.63,-117.32 714.59,-110.42 716.58,-120.83 722.63,-117.32"/>
</g>
<!-- I -->
<g id="node19" class="node">
<title>I</title>
<ellipse fill="none" stroke="black" cx="787" cy="-91.13" rx="28.28" ry="18.38"/>
<text text-anchor="start" x="775" y="-91.63" font-family="Menlo" font-size="10.00">I: B</text>
<text text-anchor="start" x="784.75" y="-83.53" font-family="Menlo" font-size="8.00" fill="gray"> </text>
</g>
<!-- G&#45;&gt;I -->
<g id="edge17" class="edge">
<title>G&#45;&gt;I</title>
<path fill="none" stroke="black" d="M755.17,-145.77C760.04,-137.57 765.97,-127.56 771.4,-118.43"/>
<polygon fill="black" stroke="black" points="774.35,-120.31 776.44,-109.92 768.33,-116.74 774.35,-120.31"/>
</g>
<!-- J -->
<g id="node20" class="node">
<title>J</title>
<ellipse fill="none" stroke="black" cx="870" cy="-91.13" rx="36.77" ry="18.38"/>
<text text-anchor="start" x="852" y="-91.63" font-family="Menlo" font-size="10.00">J: &quot;c&quot;</text>
<text text-anchor="start" x="856.5" y="-83.53" font-family="Menlo" font-size="8.00" fill="gray"> 2:2:3</text>
</g>
<!-- G&#45;&gt;J -->
<g id="edge18" class="edge">
<title>G&#45;&gt;J</title>
<path fill="none" stroke="black" d="M768.81,-149.43C787.92,-138.6 815,-123.28 836.33,-111.2"/>
<polygon fill="black" stroke="black" points="837.99,-114.28 844.97,-106.31 834.54,-108.19 837.99,-114.28"/>
</g>
<!-- I&#45;&gt;A -->
<g id="edge20" class="edge">
<title>I&#45;&gt;A</title>
<path fill="none" stroke="black" stroke-dasharray="1,5" d="M765.49,-103.48C760.51,-105.76 755.16,-107.93 750,-109.52 652.79,-139.44 620.71,-114.03 524,-145.52 463.75,-165.14 453.35,-181.32 397,-210.29 392.47,-212.62 387.7,-215.08 383,-217.51"/>
<polygon fill="black" stroke="black" points="381.53,-214.33 374.26,-222.03 384.75,-220.54 381.53,-214.33"/>
</g>
<!-- K -->
<g id="node21" class="node">
<title>K</title>
<ellipse fill="none" stroke="black" cx="993" cy="-236.67" rx="62.23" ry="18.38"/>
<text text-anchor="start" x="957" y="-237.17" font-family="Menlo" font-size="10.00">K: &quot;comment&quot;</text>
<text text-anchor="start" x="990.75" y="-229.07" font-family="Menlo" font-size="8.00" fill="gray"> </text>
</g>
<!-- L -->
<g id="node22" class="node">
<title>L</title>
<ellipse fill="none" stroke="black" cx="1154" cy="-236.67" rx="74.95" ry="18.38"/>
<text text-anchor="start" x="1109" y="-237.17" font-family="Menlo" font-size="10.00">L: &quot;whitespace&quot;</text>
<text text-anchor="start" x="1151.75" y="-229.07" font-family="Menlo" font-size="8.00" fill="gray"> </text>
</g>
</g>
</svg>
