<?xml version="1.0" encoding="UTF-8" standalone="no"?>
<!DOCTYPE svg PUBLIC "-//W3C//DTD SVG 1.1//EN"
 "http://www.w3.org/Graphics/SVG/1.1/DTD/svg11.dtd">
<!-- Generated by graphviz version 9.0.0 (20230911.1827)
 -->
<!-- Title: G Pages: 1 -->
<svg width="712pt" height="252pt"
 viewBox="0.00 0.00 712.00 251.54" xmlns="http://www.w3.org/2000/svg" xmlns:xlink="http://www.w3.org/1999/xlink">
<g id="graph0" class="graph" transform="scale(1 1) rotate(0) translate(4 247.54)">
<title>G</title>
<polygon fill="white" stroke="none" points="-4,4 -4,-247.54 708,-247.54 708,4 -4,4"/>
<g id="clust3" class="cluster">
<title>whitespace</title>
<polygon fill="none" stroke="black" points="530,-159.2 530,-235.54 696,-235.54 696,-159.2 530,-159.2"/>
<text text-anchor="start" x="538" y="-222.04" font-family="Menlo" font-size="10.00">whitespace = &quot;\s+&quot;</text>
</g>
<g id="clust2" class="cluster">
<title>S</title>
<polygon fill="none" stroke="black" points="8,-8 8,-230.42 522,-230.42 522,-8 8,-8"/>
<text text-anchor="start" x="16" y="-216.92" font-family="Menlo" font-size="10.00">S = &quot;a&quot; S &quot;b&quot; | &quot;a&quot; S &quot;d&quot; | &quot;a&quot;</text>
</g>
<!-- A -->
<g id="node1" class="node">
<title>A</title>
<ellipse fill="none" stroke="black" cx="315" cy="-186.99" rx="36.77" ry="14.67"/>
<text text-anchor="start" x="297" y="-183.87" font-family="Menlo" font-size="10.00">A: ALT</text>
</g>
<!-- B -->
<g id="node2" class="node">
<title>B</title>
<ellipse fill="none" stroke="black" cx="182" cy="-111.4" rx="36.77" ry="14.67"/>
<text text-anchor="start" x="164" y="-108.27" font-family="Menlo" font-size="10.00">B: SEQ</text>
</g>
<!-- A&#45;&gt;B -->
<g id="edge1" class="edge">
<title>A&#45;&gt;B</title>
<path fill="none" stroke="black" d="M294.22,-174.5C272.36,-162.4 237.71,-143.23 212.7,-129.39"/>
<polygon fill="black" stroke="black" points="214.4,-126.33 203.96,-124.55 211.01,-132.45 214.4,-126.33"/>
</g>
<!-- F -->
<g id="node6" class="node">
<title>F</title>
<ellipse fill="none" stroke="black" cx="315" cy="-111.4" rx="36.77" ry="14.67"/>
<text text-anchor="start" x="297" y="-108.27" font-family="Menlo" font-size="10.00">F: SEQ</text>
</g>
<!-- A&#45;&gt;F -->
<g id="edge5" class="edge">
<title>A&#45;&gt;F</title>
<path fill="none" stroke="black" d="M315,-172.15C315,-162.45 315,-149.2 315,-137.64"/>
<polygon fill="black" stroke="black" points="318.5,-137.94 315,-127.94 311.5,-137.94 318.5,-137.94"/>
</g>
<!-- J -->
<g id="node10" class="node">
<title>J</title>
<ellipse fill="none" stroke="black" cx="407" cy="-111.4" rx="36.77" ry="19.8"/>
<text text-anchor="start" x="389" y="-112.9" font-family="Menlo" font-size="10.00">J: &quot;a&quot;</text>
<text text-anchor="start" x="399.5" y="-102.9" font-family="Menlo" font-size="8.00" fill="gray"> &#160;</text>
<text text-anchor="start" x="408.5" y="-102.9" font-family="Menlo" font-size="10.00"> </text>
</g>
<!-- A&#45;&gt;J -->
<g id="edge9" class="edge">
<title>A&#45;&gt;J</title>
<path fill="none" stroke="black" d="M330.61,-173.51C343.63,-163.09 362.55,-147.96 378.3,-135.36"/>
<polygon fill="black" stroke="black" points="380.33,-138.21 385.95,-129.23 375.96,-132.75 380.33,-138.21"/>
</g>
<!-- C -->
<g id="node3" class="node">
<title>C</title>
<ellipse fill="none" stroke="black" cx="53" cy="-35.8" rx="36.77" ry="19.8"/>
<text text-anchor="start" x="35" y="-37.3" font-family="Menlo" font-size="10.00">C: &quot;a&quot;</text>
<text text-anchor="start" x="45.5" y="-27.3" font-family="Menlo" font-size="8.00" fill="gray"> &#160;</text>
<text text-anchor="start" x="54.5" y="-27.3" font-family="Menlo" font-size="10.00"> </text>
</g>
<!-- B&#45;&gt;C -->
<g id="edge2" class="edge">
<title>B&#45;&gt;C</title>
<path fill="none" stroke="black" d="M161.56,-98.74C141.76,-87.44 111.34,-70.08 87.73,-56.62"/>
<polygon fill="black" stroke="black" points="89.49,-53.59 79.07,-51.67 86.02,-59.67 89.49,-53.59"/>
</g>
<!-- D -->
<g id="node4" class="node">
<title>D</title>
<ellipse fill="none" stroke="black" cx="136" cy="-35.8" rx="28.28" ry="14.67"/>
<text text-anchor="start" x="124" y="-32.67" font-family="Menlo" font-size="10.00">D: S</text>
</g>
<!-- B&#45;&gt;D -->
<g id="edge3" class="edge">
<title>B&#45;&gt;D</title>
<path fill="none" stroke="black" d="M173.56,-96.9C167.08,-86.52 157.97,-71.95 150.35,-59.75"/>
<polygon fill="black" stroke="black" points="153.45,-58.12 145.19,-51.5 147.52,-61.83 153.45,-58.12"/>
</g>
<!-- E -->
<g id="node5" class="node">
<title>E</title>
<ellipse fill="none" stroke="black" cx="219" cy="-35.8" rx="36.77" ry="19.8"/>
<text text-anchor="start" x="201" y="-37.3" font-family="Menlo" font-size="10.00">E: &quot;b&quot;</text>
<text text-anchor="start" x="211.5" y="-27.3" font-family="Menlo" font-size="8.00" fill="gray"> &#160;</text>
<text text-anchor="start" x="220.5" y="-27.3" font-family="Menlo" font-size="10.00"> </text>
</g>
<!-- B&#45;&gt;E -->
<g id="edge4" class="edge">
<title>B&#45;&gt;E</title>
<path fill="none" stroke="black" d="M188.96,-96.55C193.36,-87.81 199.2,-76.19 204.56,-65.52"/>
<polygon fill="black" stroke="black" points="207.65,-67.16 209.02,-56.66 201.4,-64.02 207.65,-67.16"/>
</g>
<!-- D&#45;&gt;A -->
<g id="edge10" class="edge">
<title>D&#45;&gt;A</title>
<path fill="none" stroke="black" stroke-dasharray="1,5" d="M153.92,-47.46C159.82,-50.54 166.53,-53.6 173,-55.6 232.95,-74.08 411.56,-44.49 453,-91.6 464.62,-104.81 462.88,-116.64 453,-131.2 432.75,-161.02 393.45,-174.61 361.96,-180.81"/>
<polygon fill="black" stroke="black" points="361.49,-177.33 352.24,-182.51 362.7,-184.23 361.49,-177.33"/>
</g>
<!-- G -->
<g id="node7" class="node">
<title>G</title>
<ellipse fill="none" stroke="black" cx="311" cy="-35.8" rx="36.77" ry="19.8"/>
<text text-anchor="start" x="293" y="-37.3" font-family="Menlo" font-size="10.00">G: &quot;a&quot;</text>
<text text-anchor="start" x="303.5" y="-27.3" font-family="Menlo" font-size="8.00" fill="gray"> &#160;</text>
<text text-anchor="start" x="312.5" y="-27.3" font-family="Menlo" font-size="10.00"> </text>
</g>
<!-- F&#45;&gt;G -->
<g id="edge6" class="edge">
<title>F&#45;&gt;G</title>
<path fill="none" stroke="black" d="M314.25,-96.55C313.8,-88.29 313.21,-77.46 312.66,-67.3"/>
<polygon fill="black" stroke="black" points="316.16,-67.16 312.12,-57.37 309.17,-67.54 316.16,-67.16"/>
</g>
<!-- H -->
<g id="node8" class="node">
<title>H</title>
<ellipse fill="none" stroke="black" cx="394" cy="-35.8" rx="28.28" ry="14.67"/>
<text text-anchor="start" x="382" y="-32.67" font-family="Menlo" font-size="10.00">H: S</text>
</g>
<!-- F&#45;&gt;H -->
<g id="edge7" class="edge">
<title>F&#45;&gt;H</title>
<path fill="none" stroke="black" d="M328.76,-97.58C340.84,-86.32 358.61,-69.77 372.56,-56.78"/>
<polygon fill="black" stroke="black" points="374.62,-59.64 379.55,-50.26 369.85,-54.51 374.62,-59.64"/>
</g>
<!-- I -->
<g id="node9" class="node">
<title>I</title>
<ellipse fill="none" stroke="black" cx="477" cy="-35.8" rx="36.77" ry="19.8"/>
<text text-anchor="start" x="459" y="-37.3" font-family="Menlo" font-size="10.00">I: &quot;d&quot;</text>
<text text-anchor="start" x="469.5" y="-27.3" font-family="Menlo" font-size="8.00" fill="gray"> &#160;</text>
<text text-anchor="start" x="478.5" y="-27.3" font-family="Menlo" font-size="10.00"> </text>
</g>
<!-- F&#45;&gt;I -->
<g id="edge8" class="edge">
<title>F&#45;&gt;I</title>
<path fill="none" stroke="black" d="M338.56,-99.7C364.85,-87.75 407.79,-68.24 438.89,-54.11"/>
<polygon fill="black" stroke="black" points="440.31,-57.31 447.97,-49.99 437.41,-50.94 440.31,-57.31"/>
</g>
<!-- H&#45;&gt;A -->
<g id="edge11" class="edge">
<title>H&#45;&gt;A</title>
<path fill="none" stroke="black" stroke-dasharray="1,5" d="M413.07,-46.97C438.54,-60.75 480.96,-84.45 485,-91.6 493.66,-106.92 495.36,-116.97 485,-131.2 457.42,-169.07 403.18,-181.32 363.36,-185.01"/>
<polygon fill="black" stroke="black" points="363.24,-181.51 353.53,-185.75 363.77,-188.49 363.24,-181.51"/>
</g>
<!-- K -->
<g id="node11" class="node">
<title>K</title>
<ellipse fill="none" stroke="black" cx="613" cy="-186.99" rx="74.95" ry="19.8"/>
<text text-anchor="start" x="568" y="-188.49" font-family="Menlo" font-size="10.00">K: &quot;whitespace&quot;</text>
<text text-anchor="start" x="605.5" y="-178.49" font-family="Menlo" font-size="8.00" fill="gray"> &#160;</text>
<text text-anchor="start" x="614.5" y="-178.49" font-family="Menlo" font-size="10.00"> </text>
</g>
</g>
</svg>
