<?xml version="1.0" encoding="UTF-8" standalone="no"?>
<!DOCTYPE svg PUBLIC "-//W3C//DTD SVG 1.1//EN"
 "http://www.w3.org/Graphics/SVG/1.1/DTD/svg11.dtd">
<!-- Generated by graphviz version 9.0.0 (20230911.1827)
 -->
<!-- Title: G Pages: 1 -->
<svg width="714pt" height="344pt"
 viewBox="0.00 0.00 714.00 343.72" xmlns="http://www.w3.org/2000/svg" xmlns:xlink="http://www.w3.org/1999/xlink">
<g id="graph0" class="graph" transform="scale(1 1) rotate(0) translate(4 339.72)">
<title>G</title>
<polygon fill="white" stroke="none" points="-4,4 -4,-339.72 710,-339.72 710,4 -4,4"/>
<g id="clust1" class="cluster">
<title>GSS</title>
<polygon fill="none" stroke="black" points="8,-8 8,-323.42 150,-323.42 150,-8 8,-8"/>
<text text-anchor="middle" x="46" y="-309.92" font-family="Menlo" font-size="10.00" fill="green">GLL abcd\n</text>
</g>
<g id="clust2" class="cluster">
<title>S</title>
<polygon fill="none" stroke="black" points="158,-178.25 158,-327.72 524,-327.72 524,-178.25 158,-178.25"/>
<text text-anchor="middle" x="223" y="-314.22" font-family="Menlo" font-size="10.00">S = &quot;a&quot; &quot;b&quot; &quot;c&quot; &quot;d&quot;</text>
</g>
<g id="clust3" class="cluster">
<title>whitespace</title>
<polygon fill="none" stroke="black" points="532,-261.63 532,-327.72 698,-327.72 698,-261.63 532,-261.63"/>
<text text-anchor="middle" x="591" y="-314.22" font-family="Menlo" font-size="10.00">whitespace = &quot;s+&quot;</text>
</g>
<!-- E0 -->
<g id="node1" class="node">
<title>E0</title>
<path fill="none" stroke="black" d="M135.08,-93.5C135.08,-93.5 94.92,-93.5 94.92,-93.5 91.46,-93.5 88,-90.04 88,-86.58 88,-86.58 88,-79.67 88,-79.67 88,-76.21 91.46,-72.75 94.92,-72.75 94.92,-72.75 135.08,-72.75 135.08,-72.75 138.54,-72.75 142,-76.21 142,-79.67 142,-79.67 142,-86.58 142,-86.58 142,-90.04 138.54,-93.5 135.08,-93.5"/>
<text text-anchor="middle" x="115" y="-80" font-family="Menlo" font-size="10.00">E0</text>
</g>
<!-- ● -->
<g id="node2" class="node">
<title>●</title>
<path fill="none" stroke="black" d="M99.08,-36.75C99.08,-36.75 58.92,-36.75 58.92,-36.75 55.46,-36.75 52,-33.29 52,-29.83 52,-29.83 52,-22.92 52,-22.92 52,-19.46 55.46,-16 58.92,-16 58.92,-16 99.08,-16 99.08,-16 102.54,-16 106,-19.46 106,-22.92 106,-22.92 106,-29.83 106,-29.83 106,-33.29 102.54,-36.75 99.08,-36.75"/>
<text text-anchor="middle" x="79" y="-23.25" font-family="Menlo" font-size="10.00">●</text>
</g>
<!-- E0&#45;&gt;● -->
<g id="edge1" class="edge">
<title>E0&#45;&gt;●</title>
<path fill="none" stroke="black" d="M108.56,-72.34C103.85,-65.17 97.31,-55.23 91.58,-46.51"/>
<polygon fill="black" stroke="black" points="94.63,-44.78 86.21,-38.34 88.78,-48.62 94.63,-44.78"/>
</g>
<!-- D0 -->
<g id="node3" class="node">
<title>D0</title>
<path fill="none" stroke="black" d="M135.08,-150.25C135.08,-150.25 94.92,-150.25 94.92,-150.25 91.46,-150.25 88,-146.79 88,-143.33 88,-143.33 88,-136.42 88,-136.42 88,-132.96 91.46,-129.5 94.92,-129.5 94.92,-129.5 135.08,-129.5 135.08,-129.5 138.54,-129.5 142,-132.96 142,-136.42 142,-136.42 142,-143.33 142,-143.33 142,-146.79 138.54,-150.25 135.08,-150.25"/>
<text text-anchor="middle" x="115" y="-136.75" font-family="Menlo" font-size="10.00">D0</text>
</g>
<!-- D0&#45;&gt;E0 -->
<g id="edge2" class="edge">
<title>D0&#45;&gt;E0</title>
<path fill="none" stroke="black" d="M115,-129.09C115,-122.47 115,-113.47 115,-105.27"/>
<polygon fill="black" stroke="black" points="118.5,-105.34 115,-95.34 111.5,-105.34 118.5,-105.34"/>
</g>
<!-- C0 -->
<g id="node4" class="node">
<title>C0</title>
<path fill="none" stroke="black" d="M135.08,-220.31C135.08,-220.31 94.92,-220.31 94.92,-220.31 91.46,-220.31 88,-216.85 88,-213.4 88,-213.4 88,-206.48 88,-206.48 88,-203.02 91.46,-199.56 94.92,-199.56 94.92,-199.56 135.08,-199.56 135.08,-199.56 138.54,-199.56 142,-203.02 142,-206.48 142,-206.48 142,-213.4 142,-213.4 142,-216.85 138.54,-220.31 135.08,-220.31"/>
<text text-anchor="middle" x="115" y="-206.81" font-family="Menlo" font-size="10.00">C0</text>
</g>
<!-- C0&#45;&gt;D0 -->
<g id="edge3" class="edge">
<title>C0&#45;&gt;D0</title>
<path fill="none" stroke="black" d="M115,-199.19C115,-189.48 115,-174.28 115,-161.83"/>
<polygon fill="black" stroke="black" points="118.5,-162.12 115,-152.12 111.5,-162.12 118.5,-162.12"/>
</g>
<!-- B0 -->
<g id="node5" class="node">
<title>B0</title>
<path fill="none" stroke="black" d="M135.08,-294.67C135.08,-294.67 94.92,-294.67 94.92,-294.67 91.46,-294.67 88,-291.22 88,-287.76 88,-287.76 88,-280.84 88,-280.84 88,-277.38 91.46,-273.92 94.92,-273.92 94.92,-273.92 135.08,-273.92 135.08,-273.92 138.54,-273.92 142,-277.38 142,-280.84 142,-280.84 142,-287.76 142,-287.76 142,-291.22 138.54,-294.67 135.08,-294.67"/>
<text text-anchor="middle" x="115" y="-281.17" font-family="Menlo" font-size="10.00">B0</text>
</g>
<!-- B0&#45;&gt;C0 -->
<g id="edge4" class="edge">
<title>B0&#45;&gt;C0</title>
<path fill="none" stroke="black" d="M115,-273.54C115,-262.91 115,-245.58 115,-231.85"/>
<polygon fill="black" stroke="black" points="118.5,-232.06 115,-222.06 111.5,-232.06 118.5,-232.06"/>
</g>
<!-- A0 -->
<g id="node6" class="node">
<title>A0</title>
<path fill="none" stroke="black" d="M63.08,-93.5C63.08,-93.5 22.92,-93.5 22.92,-93.5 19.46,-93.5 16,-90.04 16,-86.58 16,-86.58 16,-79.67 16,-79.67 16,-76.21 19.46,-72.75 22.92,-72.75 22.92,-72.75 63.08,-72.75 63.08,-72.75 66.54,-72.75 70,-76.21 70,-79.67 70,-79.67 70,-86.58 70,-86.58 70,-90.04 66.54,-93.5 63.08,-93.5"/>
<text text-anchor="middle" x="43" y="-80" font-family="Menlo" font-size="10.00">A0</text>
</g>
<!-- A0&#45;&gt;● -->
<g id="edge5" class="edge">
<title>A0&#45;&gt;●</title>
<path fill="none" stroke="black" d="M49.44,-72.34C54.15,-65.17 60.69,-55.23 66.42,-46.51"/>
<polygon fill="black" stroke="black" points="69.22,-48.62 71.79,-38.34 63.37,-44.78 69.22,-48.62"/>
</g>
<!-- A -->
<g id="node7" class="node">
<title>A</title>
<ellipse fill="none" stroke="black" cx="341" cy="-284.3" rx="36.77" ry="14.67"/>
<text text-anchor="middle" x="341" y="-281.17" font-family="Menlo" font-size="10.00">A: SEQ</text>
</g>
<!-- B -->
<g id="node8" class="node">
<title>B</title>
<ellipse fill="none" stroke="black" cx="203" cy="-209.94" rx="36.77" ry="23.69"/>
<text text-anchor="middle" x="203" y="-213.19" font-family="Menlo" font-size="10.00">B: &quot;a&quot;</text>
<text text-anchor="middle" x="203" y="-200.44" font-family="Menlo" font-size="10.00">0:1</text>
</g>
<!-- A&#45;&gt;B -->
<g id="edge6" class="edge">
<title>A&#45;&gt;B</title>
<path fill="none" stroke="black" d="M319.44,-271.99C298.52,-261.02 266.32,-244.14 241.08,-230.91"/>
<polygon fill="black" stroke="black" points="242.91,-227.92 232.43,-226.37 239.66,-234.12 242.91,-227.92"/>
</g>
<!-- C -->
<g id="node9" class="node">
<title>C</title>
<ellipse fill="none" stroke="black" cx="295" cy="-209.94" rx="36.77" ry="23.69"/>
<text text-anchor="middle" x="295" y="-213.19" font-family="Menlo" font-size="10.00">C: &quot;b&quot;</text>
<text text-anchor="middle" x="295" y="-200.44" font-family="Menlo" font-size="10.00">1:2</text>
</g>
<!-- A&#45;&gt;C -->
<g id="edge7" class="edge">
<title>A&#45;&gt;C</title>
<path fill="none" stroke="black" d="M332.35,-269.69C327.31,-261.77 320.75,-251.44 314.53,-241.66"/>
<polygon fill="black" stroke="black" points="317.63,-240.01 309.31,-233.45 311.72,-243.76 317.63,-240.01"/>
</g>
<!-- D -->
<g id="node10" class="node">
<title>D</title>
<ellipse fill="none" stroke="black" cx="387" cy="-209.94" rx="36.77" ry="23.69"/>
<text text-anchor="middle" x="387" y="-213.19" font-family="Menlo" font-size="10.00">D: &quot;c&quot;</text>
<text text-anchor="middle" x="387" y="-200.44" font-family="Menlo" font-size="10.00">2:3</text>
</g>
<!-- A&#45;&gt;D -->
<g id="edge8" class="edge">
<title>A&#45;&gt;D</title>
<path fill="none" stroke="black" d="M349.65,-269.69C354.69,-261.77 361.25,-251.44 367.47,-241.66"/>
<polygon fill="black" stroke="black" points="370.28,-243.76 372.69,-233.45 364.37,-240.01 370.28,-243.76"/>
</g>
<!-- E -->
<g id="node11" class="node">
<title>E</title>
<ellipse fill="none" stroke="black" cx="479" cy="-209.94" rx="36.77" ry="23.69"/>
<text text-anchor="middle" x="479" y="-213.19" font-family="Menlo" font-size="10.00">E: &quot;d&quot;</text>
<text text-anchor="middle" x="479" y="-200.44" font-family="Menlo" font-size="10.00">3:4</text>
</g>
<!-- A&#45;&gt;E -->
<g id="edge9" class="edge">
<title>A&#45;&gt;E</title>
<path fill="none" stroke="black" d="M362.56,-271.99C383.48,-261.02 415.68,-244.14 440.92,-230.91"/>
<polygon fill="black" stroke="black" points="442.34,-234.12 449.57,-226.37 439.09,-227.92 442.34,-234.12"/>
</g>
<!-- F -->
<g id="node12" class="node">
<title>F</title>
<ellipse fill="none" stroke="black" cx="615" cy="-284.3" rx="74.95" ry="14.67"/>
<text text-anchor="middle" x="615" y="-281.17" font-family="Menlo" font-size="10.00">F: &quot;whitespace&quot;</text>
</g>
</g>
</svg>
