<?xml version="1.0" encoding="UTF-8" standalone="no"?>
<!DOCTYPE svg PUBLIC "-//W3C//DTD SVG 1.1//EN"
 "http://www.w3.org/Graphics/SVG/1.1/DTD/svg11.dtd">
<!-- Generated by graphviz version 9.0.0 (20230911.1827)
 -->
<!-- Title: G Pages: 1 -->
<svg width="642pt" height="346pt"
 viewBox="0.00 0.00 642.00 346.20" xmlns="http://www.w3.org/2000/svg" xmlns:xlink="http://www.w3.org/1999/xlink">
<g id="graph0" class="graph" transform="scale(1 1) rotate(0) translate(4 342.2)">
<title>G</title>
<polygon fill="white" stroke="none" points="-4,4 -4,-342.2 638,-342.2 638,4 -4,4"/>
<g id="clust1" class="cluster">
<title>GSS</title>
<polygon fill="none" stroke="black" points="8,-8 8,-320.77 78,-320.77 78,-8 8,-8"/>
<text text-anchor="start" x="16" y="-307.27" font-family="Menlo" font-size="10.00" fill="green">LL1 abcd↵</text>
</g>
<g id="clust2" class="cluster">
<title>S</title>
<polygon fill="none" stroke="black" points="86,-178.25 86,-325.07 452,-325.07 452,-178.25 86,-178.25"/>
<text text-anchor="start" x="94" y="-311.57" font-family="Menlo" font-size="10.00">S = &quot;a&quot; &quot;b&quot; &quot;c&quot; &quot;d&quot;</text>
</g>
<g id="clust3" class="cluster">
<title>whitespace</title>
<polygon fill="none" stroke="black" points="460,-253.85 460,-330.2 626,-330.2 626,-253.85 460,-253.85"/>
<text text-anchor="start" x="468" y="-316.7" font-family="Menlo" font-size="10.00">whitespace = &quot;\s+&quot;</text>
</g>
<!-- E0 -->
<g id="node1" class="node">
<title>E0</title>
<path fill="none" stroke="black" d="M63.08,-93.5C63.08,-93.5 22.92,-93.5 22.92,-93.5 19.46,-93.5 16,-90.04 16,-86.58 16,-86.58 16,-79.67 16,-79.67 16,-76.21 19.46,-72.75 22.92,-72.75 22.92,-72.75 63.08,-72.75 63.08,-72.75 66.54,-72.75 70,-76.21 70,-79.67 70,-79.67 70,-86.58 70,-86.58 70,-90.04 66.54,-93.5 63.08,-93.5"/>
<text text-anchor="middle" x="43" y="-80" font-family="Menlo" font-size="10.00">E0</text>
</g>
<!-- A0 -->
<g id="node2" class="node">
<title>A0</title>
<path fill="none" stroke="black" d="M63.08,-36.75C63.08,-36.75 22.92,-36.75 22.92,-36.75 19.46,-36.75 16,-33.29 16,-29.83 16,-29.83 16,-22.92 16,-22.92 16,-19.46 19.46,-16 22.92,-16 22.92,-16 63.08,-16 63.08,-16 66.54,-16 70,-19.46 70,-22.92 70,-22.92 70,-29.83 70,-29.83 70,-33.29 66.54,-36.75 63.08,-36.75"/>
<text text-anchor="middle" x="43" y="-23.25" font-family="Menlo" font-size="10.00">A0</text>
</g>
<!-- E0&#45;&gt;A0 -->
<g id="edge1" class="edge">
<title>E0&#45;&gt;A0</title>
<path fill="none" stroke="black" d="M43,-72.34C43,-65.72 43,-56.72 43,-48.52"/>
<polygon fill="black" stroke="black" points="46.5,-48.59 43,-38.59 39.5,-48.59 46.5,-48.59"/>
</g>
<!-- D0 -->
<g id="node3" class="node">
<title>D0</title>
<path fill="none" stroke="black" d="M63.08,-150.25C63.08,-150.25 22.92,-150.25 22.92,-150.25 19.46,-150.25 16,-146.79 16,-143.33 16,-143.33 16,-136.42 16,-136.42 16,-132.96 19.46,-129.5 22.92,-129.5 22.92,-129.5 63.08,-129.5 63.08,-129.5 66.54,-129.5 70,-132.96 70,-136.42 70,-136.42 70,-143.33 70,-143.33 70,-146.79 66.54,-150.25 63.08,-150.25"/>
<text text-anchor="middle" x="43" y="-136.75" font-family="Menlo" font-size="10.00">D0</text>
</g>
<!-- D0&#45;&gt;E0 -->
<g id="edge2" class="edge">
<title>D0&#45;&gt;E0</title>
<path fill="none" stroke="black" d="M43,-129.09C43,-122.47 43,-113.47 43,-105.27"/>
<polygon fill="black" stroke="black" points="46.5,-105.34 43,-95.34 39.5,-105.34 46.5,-105.34"/>
</g>
<!-- C0 -->
<g id="node4" class="node">
<title>C0</title>
<path fill="none" stroke="black" d="M63.08,-216.42C63.08,-216.42 22.92,-216.42 22.92,-216.42 19.46,-216.42 16,-212.97 16,-209.51 16,-209.51 16,-202.59 16,-202.59 16,-199.13 19.46,-195.67 22.92,-195.67 22.92,-195.67 63.08,-195.67 63.08,-195.67 66.54,-195.67 70,-199.13 70,-202.59 70,-202.59 70,-209.51 70,-209.51 70,-212.97 66.54,-216.42 63.08,-216.42"/>
<text text-anchor="middle" x="43" y="-202.92" font-family="Menlo" font-size="10.00">C0</text>
</g>
<!-- C0&#45;&gt;D0 -->
<g id="edge3" class="edge">
<title>C0&#45;&gt;D0</title>
<path fill="none" stroke="black" d="M43,-195.3C43,-186.54 43,-173.36 43,-162.17"/>
<polygon fill="black" stroke="black" points="46.5,-162.23 43,-152.23 39.5,-162.23 46.5,-162.23"/>
</g>
<!-- B0 -->
<g id="node5" class="node">
<title>B0</title>
<path fill="none" stroke="black" d="M63.08,-292.02C63.08,-292.02 22.92,-292.02 22.92,-292.02 19.46,-292.02 16,-288.56 16,-285.11 16,-285.11 16,-278.19 16,-278.19 16,-274.73 19.46,-271.27 22.92,-271.27 22.92,-271.27 63.08,-271.27 63.08,-271.27 66.54,-271.27 70,-274.73 70,-278.19 70,-278.19 70,-285.11 70,-285.11 70,-288.56 66.54,-292.02 63.08,-292.02"/>
<text text-anchor="middle" x="43" y="-278.52" font-family="Menlo" font-size="10.00">B0</text>
</g>
<!-- B0&#45;&gt;C0 -->
<g id="edge4" class="edge">
<title>B0&#45;&gt;C0</title>
<path fill="none" stroke="black" d="M43,-271.03C43,-260.18 43,-242.21 43,-228.07"/>
<polygon fill="black" stroke="black" points="46.5,-228.42 43,-218.42 39.5,-228.42 46.5,-228.42"/>
</g>
<!-- A -->
<g id="node6" class="node">
<title>A</title>
<ellipse fill="none" stroke="black" cx="269" cy="-281.65" rx="36.77" ry="14.67"/>
<text text-anchor="start" x="251" y="-278.52" font-family="Menlo" font-size="10.00">A: SEQ</text>
</g>
<!-- B -->
<g id="node7" class="node">
<title>B</title>
<ellipse fill="none" stroke="black" cx="131" cy="-206.05" rx="36.77" ry="19.8"/>
<text text-anchor="start" x="113" y="-207.55" font-family="Menlo" font-size="10.00">B: &quot;a&quot;</text>
<text text-anchor="start" x="116.75" y="-197.55" font-family="Menlo" font-size="8.00" fill="gray"> 0:1 </text>
<text text-anchor="start" x="139.25" y="-197.55" font-family="Menlo" font-size="10.00"> </text>
</g>
<!-- A&#45;&gt;B -->
<g id="edge5" class="edge">
<title>A&#45;&gt;B</title>
<path fill="none" stroke="black" d="M247.74,-269.31C226.08,-257.76 192.1,-239.64 166.38,-225.92"/>
<polygon fill="black" stroke="black" points="168.07,-222.85 157.6,-221.24 164.78,-229.03 168.07,-222.85"/>
</g>
<!-- C -->
<g id="node8" class="node">
<title>C</title>
<ellipse fill="none" stroke="black" cx="223" cy="-206.05" rx="36.77" ry="19.8"/>
<text text-anchor="start" x="205" y="-207.55" font-family="Menlo" font-size="10.00">C: &quot;b&quot;</text>
<text text-anchor="start" x="208.75" y="-197.55" font-family="Menlo" font-size="8.00" fill="gray"> 1:2 </text>
<text text-anchor="start" x="231.25" y="-197.55" font-family="Menlo" font-size="10.00"> </text>
</g>
<!-- A&#45;&gt;C -->
<g id="edge6" class="edge">
<title>A&#45;&gt;C</title>
<path fill="none" stroke="black" d="M260.56,-267.15C254.92,-258.12 247.3,-245.93 240.39,-234.88"/>
<polygon fill="black" stroke="black" points="243.4,-233.09 235.13,-226.46 237.46,-236.8 243.4,-233.09"/>
</g>
<!-- D -->
<g id="node9" class="node">
<title>D</title>
<ellipse fill="none" stroke="black" cx="315" cy="-206.05" rx="36.77" ry="19.8"/>
<text text-anchor="start" x="297" y="-207.55" font-family="Menlo" font-size="10.00">D: &quot;c&quot;</text>
<text text-anchor="start" x="300.75" y="-197.55" font-family="Menlo" font-size="8.00" fill="gray"> 2:3 </text>
<text text-anchor="start" x="323.25" y="-197.55" font-family="Menlo" font-size="10.00"> </text>
</g>
<!-- A&#45;&gt;D -->
<g id="edge7" class="edge">
<title>A&#45;&gt;D</title>
<path fill="none" stroke="black" d="M277.44,-267.15C283.08,-258.12 290.7,-245.93 297.61,-234.88"/>
<polygon fill="black" stroke="black" points="300.54,-236.8 302.87,-226.46 294.6,-233.09 300.54,-236.8"/>
</g>
<!-- E -->
<g id="node10" class="node">
<title>E</title>
<ellipse fill="none" stroke="black" cx="407" cy="-206.05" rx="36.77" ry="19.8"/>
<text text-anchor="start" x="389" y="-207.55" font-family="Menlo" font-size="10.00">E: &quot;d&quot;</text>
<text text-anchor="start" x="392.75" y="-197.55" font-family="Menlo" font-size="8.00" fill="gray"> 3:4 </text>
<text text-anchor="start" x="415.25" y="-197.55" font-family="Menlo" font-size="10.00"> </text>
</g>
<!-- A&#45;&gt;E -->
<g id="edge8" class="edge">
<title>A&#45;&gt;E</title>
<path fill="none" stroke="black" d="M290.26,-269.31C311.92,-257.76 345.9,-239.64 371.62,-225.92"/>
<polygon fill="black" stroke="black" points="373.22,-229.03 380.4,-221.24 369.93,-222.85 373.22,-229.03"/>
</g>
<!-- F -->
<g id="node11" class="node">
<title>F</title>
<ellipse fill="none" stroke="black" cx="543" cy="-281.65" rx="74.95" ry="19.8"/>
<text text-anchor="start" x="498" y="-283.15" font-family="Menlo" font-size="10.00">F: &quot;whitespace&quot;</text>
<text text-anchor="start" x="535.5" y="-273.15" font-family="Menlo" font-size="8.00" fill="gray"> &#160;</text>
<text text-anchor="start" x="544.5" y="-273.15" font-family="Menlo" font-size="10.00"> </text>
</g>
</g>
</svg>
