<?xml version="1.0" encoding="UTF-8" standalone="no"?>
<!DOCTYPE svg PUBLIC "-//W3C//DTD SVG 1.1//EN"
 "http://www.w3.org/Graphics/SVG/1.1/DTD/svg11.dtd">
<!-- Generated by graphviz version 9.0.0 (20230911.1827)
 -->
<!-- Title: G Pages: 1 -->
<svg width="114pt" height="170pt"
 viewBox="0.00 0.00 114.00 170.29" xmlns="http://www.w3.org/2000/svg" xmlns:xlink="http://www.w3.org/1999/xlink">
<g id="graph0" class="graph" transform="scale(1 1) rotate(0) translate(4 166.29)">
<title>G</title>
<polygon fill="white" stroke="none" points="-4,4 -4,-166.29 110,-166.29 110,4 -4,4"/>
<g id="clust2" class="cluster">
<title>S</title>
<polygon fill="none" stroke="black" points="8,-8 8,-154.29 98,-154.29 98,-8 8,-8"/>
<text text-anchor="start" x="16" y="-140.79" font-family="Menlo" font-size="10.00">S = [ &quot;x&quot; ]</text>
</g>
<!-- A -->
<g id="node1" class="node">
<title>A</title>
<ellipse fill="none" stroke="gray" cx="53" cy="-107.15" rx="36.77" ry="18.38"/>
<text text-anchor="start" x="35" y="-107.65" font-family="Menlo" font-size="10.00">A: OPT</text>
<text text-anchor="start" x="50.75" y="-99.55" font-family="Menlo" font-size="8.00" fill="gray"> </text>
</g>
<!-- B -->
<g id="node2" class="node">
<title>B</title>
<ellipse fill="none" stroke="gray" cx="53" cy="-34.38" rx="36.77" ry="18.38"/>
<text text-anchor="start" x="35" y="-34.88" font-family="Menlo" font-size="10.00">B: &quot;x&quot;</text>
<text text-anchor="start" x="39.5" y="-26.78" font-family="Menlo" font-size="8.00" fill="gray"> 1:1:2</text>
</g>
<!-- A&#45;&gt;B -->
<g id="edge1" class="edge">
<title>A&#45;&gt;B</title>
<path fill="none" stroke="gray" d="M53,-88.3C53,-79.51 53,-68.8 53,-59.32"/>
<polygon fill="gray" stroke="gray" points="54.75,-59.51 53,-54.51 51.25,-59.51 54.75,-59.51"/>
</g>
</g>
</svg>
