<?xml version="1.0" encoding="UTF-8" standalone="no"?>
<!DOCTYPE svg PUBLIC "-//W3C//DTD SVG 1.1//EN"
 "http://www.w3.org/Graphics/SVG/1.1/DTD/svg11.dtd">
<!-- Generated by graphviz version 9.0.0 (20230911.1827)
 -->
<!-- Title: G Pages: 1 -->
<svg width="724pt" height="389pt"
 viewBox="0.00 0.00 724.00 388.60" xmlns="http://www.w3.org/2000/svg" xmlns:xlink="http://www.w3.org/1999/xlink">
<g id="graph0" class="graph" transform="scale(1 1) rotate(0) translate(4 384.6)">
<title>G</title>
<polygon fill="white" stroke="none" points="-4,4 -4,-384.6 720,-384.6 720,4 -4,4"/>
<g id="clust1" class="cluster">
<title>GSS</title>
<polygon fill="none" stroke="black" points="8,-88.78 8,-367.21 150,-367.21 150,-88.78 8,-88.78"/>
<text text-anchor="start" x="16" y="-353.71" font-family="Menlo" font-size="10.00" fill="red">↵ad↵</text>
</g>
<g id="clust2" class="cluster">
<title>S</title>
<polygon fill="none" stroke="black" points="158,-8 158,-372.6 708,-372.6 708,-8 158,-8"/>
<text text-anchor="start" x="166" y="-359.1" font-family="Menlo" font-size="10.00">S = &quot;a&quot; [ &quot;b&quot; | &quot;c&quot; ] &quot;d&quot; | &quot;k&quot; [ &quot;l&quot; | &quot;m&quot; ] &quot;n&quot;</text>
</g>
<!-- H1 -->
<g id="node1" class="node">
<title>H1</title>
<path fill="none" stroke="gray" d="M133.33,-192.92C133.33,-192.92 96.67,-192.92 96.67,-192.92 92.33,-192.92 88,-188.59 88,-184.26 88,-184.26 88,-175.59 88,-175.59 88,-171.26 92.33,-166.92 96.67,-166.92 96.67,-166.92 133.33,-166.92 133.33,-166.92 137.67,-166.92 142,-171.26 142,-175.59 142,-175.59 142,-184.26 142,-184.26 142,-188.59 137.67,-192.92 133.33,-192.92"/>
<text text-anchor="start" x="109" y="-180.42" font-family="Menlo" font-size="10.00">H1</text>
<text text-anchor="start" x="110.5" y="-172.32" font-family="Menlo" font-size="8.00" fill="gray"> 4</text>
</g>
<!-- A1 -->
<g id="node2" class="node">
<title>A1</title>
<path fill="none" stroke="gray" d="M99.08,-117.53C99.08,-117.53 58.92,-117.53 58.92,-117.53 55.46,-117.53 52,-114.07 52,-110.61 52,-110.61 52,-103.7 52,-103.7 52,-100.24 55.46,-96.78 58.92,-96.78 58.92,-96.78 99.08,-96.78 99.08,-96.78 102.54,-96.78 106,-100.24 106,-103.7 106,-103.7 106,-110.61 106,-110.61 106,-114.07 102.54,-117.53 99.08,-117.53"/>
<text text-anchor="middle" x="79" y="-104.03" font-family="Menlo" font-size="10.00">A1</text>
</g>
<!-- H1&#45;&gt;A1 -->
<g id="edge1" class="edge">
<title>H1&#45;&gt;A1</title>
<path fill="none" stroke="gray" d="M108.73,-166.6C102.58,-154.51 93.2,-136.06 86.62,-123.13"/>
<polygon fill="gray" stroke="gray" points="88.33,-122.64 84.5,-118.97 85.21,-124.22 88.33,-122.64"/>
</g>
<!-- D1 -->
<g id="node3" class="node">
<title>D1</title>
<path fill="none" stroke="gray" d="M133.33,-265.69C133.33,-265.69 96.67,-265.69 96.67,-265.69 92.33,-265.69 88,-261.36 88,-257.03 88,-257.03 88,-248.36 88,-248.36 88,-244.03 92.33,-239.69 96.67,-239.69 96.67,-239.69 133.33,-239.69 133.33,-239.69 137.67,-239.69 142,-244.03 142,-248.36 142,-248.36 142,-257.03 142,-257.03 142,-261.36 137.67,-265.69 133.33,-265.69"/>
<text text-anchor="start" x="109" y="-253.19" font-family="Menlo" font-size="10.00">D1</text>
<text text-anchor="start" x="110.5" y="-245.09" font-family="Menlo" font-size="8.00" fill="gray"> 2</text>
</g>
<!-- D1&#45;&gt;H1 -->
<g id="edge2" class="edge">
<title>D1&#45;&gt;H1</title>
<path fill="none" stroke="gray" d="M115,-239.37C115,-228.31 115,-211.92 115,-199.31"/>
<polygon fill="gray" stroke="gray" points="116.75,-199.62 115,-194.62 113.25,-199.62 116.75,-199.62"/>
</g>
<!-- C1 -->
<g id="node4" class="node">
<title>C1</title>
<path fill="none" stroke="gray" d="M133.33,-338.46C133.33,-338.46 96.67,-338.46 96.67,-338.46 92.33,-338.46 88,-334.13 88,-329.8 88,-329.8 88,-321.13 88,-321.13 88,-316.8 92.33,-312.46 96.67,-312.46 96.67,-312.46 133.33,-312.46 133.33,-312.46 137.67,-312.46 142,-316.8 142,-321.13 142,-321.13 142,-329.8 142,-329.8 142,-334.13 137.67,-338.46 133.33,-338.46"/>
<text text-anchor="start" x="109" y="-325.96" font-family="Menlo" font-size="10.00">C1</text>
<text text-anchor="start" x="110.5" y="-317.86" font-family="Menlo" font-size="8.00" fill="gray"> 2</text>
</g>
<!-- C1&#45;&gt;D1 -->
<g id="edge3" class="edge">
<title>C1&#45;&gt;D1</title>
<path fill="none" stroke="gray" d="M115,-312.14C115,-301.07 115,-284.69 115,-272.08"/>
<polygon fill="gray" stroke="gray" points="116.75,-272.39 115,-267.39 113.25,-272.39 116.75,-272.39"/>
</g>
<!-- B1 -->
<g id="node5" class="node">
<title>B1</title>
<path fill="none" stroke="gray" d="M61.33,-192.92C61.33,-192.92 24.67,-192.92 24.67,-192.92 20.33,-192.92 16,-188.59 16,-184.26 16,-184.26 16,-175.59 16,-175.59 16,-171.26 20.33,-166.92 24.67,-166.92 24.67,-166.92 61.33,-166.92 61.33,-166.92 65.67,-166.92 70,-171.26 70,-175.59 70,-175.59 70,-184.26 70,-184.26 70,-188.59 65.67,-192.92 61.33,-192.92"/>
<text text-anchor="start" x="37" y="-180.42" font-family="Menlo" font-size="10.00">B1</text>
<text text-anchor="start" x="38.5" y="-172.32" font-family="Menlo" font-size="8.00" fill="gray"> 4</text>
</g>
<!-- B1&#45;&gt;A1 -->
<g id="edge4" class="edge">
<title>B1&#45;&gt;A1</title>
<path fill="none" stroke="gray" d="M49.27,-166.6C55.42,-154.51 64.8,-136.06 71.38,-123.13"/>
<polygon fill="gray" stroke="gray" points="72.79,-124.22 73.5,-118.97 69.67,-122.64 72.79,-124.22"/>
</g>
<!-- A -->
<g id="node6" class="node">
<title>A</title>
<ellipse fill="none" stroke="gray" cx="433" cy="-325.46" rx="36.77" ry="18.38"/>
<text text-anchor="start" x="415" y="-325.96" font-family="Menlo" font-size="10.00">A: ALT</text>
<text text-anchor="start" x="430.75" y="-317.86" font-family="Menlo" font-size="8.00" fill="gray"> </text>
</g>
<!-- B -->
<g id="node7" class="node">
<title>B</title>
<ellipse fill="none" stroke="gray" cx="341" cy="-252.69" rx="36.77" ry="18.38"/>
<text text-anchor="start" x="323" y="-253.19" font-family="Menlo" font-size="10.00">B: SEQ</text>
<text text-anchor="start" x="338.75" y="-245.09" font-family="Menlo" font-size="8.00" fill="gray"> </text>
</g>
<!-- A&#45;&gt;B -->
<g id="edge5" class="edge">
<title>A&#45;&gt;B</title>
<path fill="none" stroke="gray" d="M413.49,-309.45C399.46,-298.66 380.45,-284.04 365.42,-272.47"/>
<polygon fill="gray" stroke="gray" points="366.71,-271.26 361.68,-269.6 364.58,-274.04 366.71,-271.26"/>
</g>
<!-- I -->
<g id="node14" class="node">
<title>I</title>
<ellipse fill="none" stroke="gray" cx="525" cy="-252.69" rx="36.77" ry="18.38"/>
<text text-anchor="start" x="507" y="-253.19" font-family="Menlo" font-size="10.00">I: SEQ</text>
<text text-anchor="start" x="522.75" y="-245.09" font-family="Menlo" font-size="8.00" fill="gray"> </text>
</g>
<!-- A&#45;&gt;I -->
<g id="edge12" class="edge">
<title>A&#45;&gt;I</title>
<path fill="none" stroke="gray" d="M452.51,-309.45C466.54,-298.66 485.55,-284.04 500.58,-272.47"/>
<polygon fill="gray" stroke="gray" points="501.42,-274.04 504.32,-269.6 499.29,-271.26 501.42,-274.04"/>
</g>
<!-- C -->
<g id="node8" class="node">
<title>C</title>
<ellipse fill="none" stroke="gray" cx="203" cy="-179.92" rx="36.77" ry="18.38"/>
<text text-anchor="start" x="185" y="-180.42" font-family="Menlo" font-size="10.00">C: &quot;a&quot;</text>
<text text-anchor="start" x="189.5" y="-172.32" font-family="Menlo" font-size="8.00" fill="gray"> 1:1:2</text>
</g>
<!-- B&#45;&gt;C -->
<g id="edge6" class="edge">
<title>B&#45;&gt;C</title>
<path fill="none" stroke="gray" d="M316.01,-238.88C292.86,-227 258.35,-209.31 233.57,-196.6"/>
<polygon fill="gray" stroke="gray" points="234.4,-195.06 229.15,-194.34 232.8,-198.17 234.4,-195.06"/>
</g>
<!-- D -->
<g id="node9" class="node">
<title>D</title>
<ellipse fill="none" stroke="gray" cx="295" cy="-179.92" rx="36.77" ry="18.38"/>
<text text-anchor="start" x="277" y="-180.42" font-family="Menlo" font-size="10.00">D: OPT</text>
<text text-anchor="start" x="292.75" y="-172.32" font-family="Menlo" font-size="8.00" fill="gray"> </text>
</g>
<!-- B&#45;&gt;D -->
<g id="edge7" class="edge">
<title>B&#45;&gt;D</title>
<path fill="none" stroke="gray" d="M330.1,-234.92C323.85,-225.32 315.95,-213.15 309.22,-202.8"/>
<polygon fill="gray" stroke="gray" points="310.84,-202.08 306.65,-198.84 307.91,-203.99 310.84,-202.08"/>
</g>
<!-- H -->
<g id="node13" class="node">
<title>H</title>
<ellipse fill="none" stroke="gray" cx="387" cy="-179.92" rx="36.77" ry="18.38"/>
<text text-anchor="start" x="369" y="-180.42" font-family="Menlo" font-size="10.00">H: &quot;d&quot;</text>
<text text-anchor="start" x="373.5" y="-172.32" font-family="Menlo" font-size="8.00" fill="gray"> 2:2:3</text>
</g>
<!-- B&#45;&gt;H -->
<g id="edge11" class="edge">
<title>B&#45;&gt;H</title>
<path fill="none" stroke="gray" d="M351.9,-234.92C358.15,-225.32 366.05,-213.15 372.78,-202.8"/>
<polygon fill="gray" stroke="gray" points="374.09,-203.99 375.35,-198.84 371.16,-202.08 374.09,-203.99"/>
</g>
<!-- E -->
<g id="node10" class="node">
<title>E</title>
<ellipse fill="none" stroke="gray" cx="295" cy="-107.15" rx="36.77" ry="18.38"/>
<text text-anchor="start" x="277" y="-107.65" font-family="Menlo" font-size="10.00">E: ALT</text>
<text text-anchor="start" x="292.75" y="-99.55" font-family="Menlo" font-size="8.00" fill="gray"> </text>
</g>
<!-- D&#45;&gt;E -->
<g id="edge8" class="edge">
<title>D&#45;&gt;E</title>
<path fill="none" stroke="gray" d="M295,-161.07C295,-152.28 295,-141.57 295,-132.09"/>
<polygon fill="gray" stroke="gray" points="296.75,-132.28 295,-127.28 293.25,-132.28 296.75,-132.28"/>
</g>
<!-- F -->
<g id="node11" class="node">
<title>F</title>
<ellipse fill="none" stroke="gray" cx="249" cy="-34.38" rx="36.77" ry="18.38"/>
<text text-anchor="start" x="231" y="-34.88" font-family="Menlo" font-size="10.00">F: &quot;b&quot;</text>
<text text-anchor="start" x="246.75" y="-26.78" font-family="Menlo" font-size="8.00" fill="gray"> </text>
</g>
<!-- E&#45;&gt;F -->
<g id="edge9" class="edge">
<title>E&#45;&gt;F</title>
<path fill="none" stroke="gray" d="M284.1,-89.38C277.85,-79.78 269.95,-67.61 263.22,-57.26"/>
<polygon fill="gray" stroke="gray" points="264.84,-56.54 260.65,-53.3 261.91,-58.45 264.84,-56.54"/>
</g>
<!-- G -->
<g id="node12" class="node">
<title>G</title>
<ellipse fill="none" stroke="gray" cx="341" cy="-34.38" rx="36.77" ry="18.38"/>
<text text-anchor="start" x="323" y="-34.88" font-family="Menlo" font-size="10.00">G: &quot;c&quot;</text>
<text text-anchor="start" x="338.75" y="-26.78" font-family="Menlo" font-size="8.00" fill="gray"> </text>
</g>
<!-- E&#45;&gt;G -->
<g id="edge10" class="edge">
<title>E&#45;&gt;G</title>
<path fill="none" stroke="gray" d="M305.9,-89.38C312.15,-79.78 320.05,-67.61 326.78,-57.26"/>
<polygon fill="gray" stroke="gray" points="328.09,-58.45 329.35,-53.3 325.16,-56.54 328.09,-58.45"/>
</g>
<!-- J -->
<g id="node15" class="node">
<title>J</title>
<ellipse fill="none" stroke="gray" cx="479" cy="-179.92" rx="36.77" ry="18.38"/>
<text text-anchor="start" x="461" y="-180.42" font-family="Menlo" font-size="10.00">J: &quot;k&quot;</text>
<text text-anchor="start" x="476.75" y="-172.32" font-family="Menlo" font-size="8.00" fill="gray"> </text>
</g>
<!-- I&#45;&gt;J -->
<g id="edge13" class="edge">
<title>I&#45;&gt;J</title>
<path fill="none" stroke="gray" d="M514.1,-234.92C507.85,-225.32 499.95,-213.15 493.22,-202.8"/>
<polygon fill="gray" stroke="gray" points="494.84,-202.08 490.65,-198.84 491.91,-203.99 494.84,-202.08"/>
</g>
<!-- K -->
<g id="node16" class="node">
<title>K</title>
<ellipse fill="none" stroke="gray" cx="571" cy="-179.92" rx="36.77" ry="18.38"/>
<text text-anchor="start" x="553" y="-180.42" font-family="Menlo" font-size="10.00">K: OPT</text>
<text text-anchor="start" x="568.75" y="-172.32" font-family="Menlo" font-size="8.00" fill="gray"> </text>
</g>
<!-- I&#45;&gt;K -->
<g id="edge14" class="edge">
<title>I&#45;&gt;K</title>
<path fill="none" stroke="gray" d="M535.9,-234.92C542.15,-225.32 550.05,-213.15 556.78,-202.8"/>
<polygon fill="gray" stroke="gray" points="558.09,-203.99 559.35,-198.84 555.16,-202.08 558.09,-203.99"/>
</g>
<!-- O -->
<g id="node20" class="node">
<title>O</title>
<ellipse fill="none" stroke="gray" cx="663" cy="-179.92" rx="36.77" ry="18.38"/>
<text text-anchor="start" x="645" y="-180.42" font-family="Menlo" font-size="10.00">O: &quot;n&quot;</text>
<text text-anchor="start" x="660.75" y="-172.32" font-family="Menlo" font-size="8.00" fill="gray"> </text>
</g>
<!-- I&#45;&gt;O -->
<g id="edge18" class="edge">
<title>I&#45;&gt;O</title>
<path fill="none" stroke="gray" d="M549.99,-238.88C573.14,-227 607.65,-209.31 632.43,-196.6"/>
<polygon fill="gray" stroke="gray" points="633.2,-198.17 636.85,-194.34 631.6,-195.06 633.2,-198.17"/>
</g>
<!-- L -->
<g id="node17" class="node">
<title>L</title>
<ellipse fill="none" stroke="gray" cx="571" cy="-107.15" rx="36.77" ry="18.38"/>
<text text-anchor="start" x="553" y="-107.65" font-family="Menlo" font-size="10.00">L: ALT</text>
<text text-anchor="start" x="568.75" y="-99.55" font-family="Menlo" font-size="8.00" fill="gray"> </text>
</g>
<!-- K&#45;&gt;L -->
<g id="edge15" class="edge">
<title>K&#45;&gt;L</title>
<path fill="none" stroke="gray" d="M571,-161.07C571,-152.28 571,-141.57 571,-132.09"/>
<polygon fill="gray" stroke="gray" points="572.75,-132.28 571,-127.28 569.25,-132.28 572.75,-132.28"/>
</g>
<!-- M -->
<g id="node18" class="node">
<title>M</title>
<ellipse fill="none" stroke="gray" cx="525" cy="-34.38" rx="36.77" ry="18.38"/>
<text text-anchor="start" x="507" y="-34.88" font-family="Menlo" font-size="10.00">M: &quot;l&quot;</text>
<text text-anchor="start" x="522.75" y="-26.78" font-family="Menlo" font-size="8.00" fill="gray"> </text>
</g>
<!-- L&#45;&gt;M -->
<g id="edge16" class="edge">
<title>L&#45;&gt;M</title>
<path fill="none" stroke="gray" d="M560.1,-89.38C553.85,-79.78 545.95,-67.61 539.22,-57.26"/>
<polygon fill="gray" stroke="gray" points="540.84,-56.54 536.65,-53.3 537.91,-58.45 540.84,-56.54"/>
</g>
<!-- N -->
<g id="node19" class="node">
<title>N</title>
<ellipse fill="none" stroke="gray" cx="617" cy="-34.38" rx="36.77" ry="18.38"/>
<text text-anchor="start" x="599" y="-34.88" font-family="Menlo" font-size="10.00">N: &quot;m&quot;</text>
<text text-anchor="start" x="614.75" y="-26.78" font-family="Menlo" font-size="8.00" fill="gray"> </text>
</g>
<!-- L&#45;&gt;N -->
<g id="edge17" class="edge">
<title>L&#45;&gt;N</title>
<path fill="none" stroke="gray" d="M581.9,-89.38C588.15,-79.78 596.05,-67.61 602.78,-57.26"/>
<polygon fill="gray" stroke="gray" points="604.09,-58.45 605.35,-53.3 601.16,-56.54 604.09,-58.45"/>
</g>
</g>
</svg>
