<?xml version="1.0" encoding="UTF-8" standalone="no"?>
<!DOCTYPE svg PUBLIC "-//W3C//DTD SVG 1.1//EN"
 "http://www.w3.org/Graphics/SVG/1.1/DTD/svg11.dtd">
<!-- Generated by graphviz version 9.0.0 (20230911.1827)
 -->
<!-- Title: G Pages: 1 -->
<svg width="356pt" height="243pt"
 viewBox="0.00 0.00 356.00 243.06" xmlns="http://www.w3.org/2000/svg" xmlns:xlink="http://www.w3.org/1999/xlink">
<g id="graph0" class="graph" transform="scale(1 1) rotate(0) translate(4 239.06)">
<title>G</title>
<polygon fill="white" stroke="none" points="-4,4 -4,-239.06 352,-239.06 352,4 -4,4"/>
<g id="clust1" class="cluster">
<title>GSS</title>
<polygon fill="none" stroke="black" points="8,-88.78 8,-221.67 150,-221.67 150,-88.78 8,-88.78"/>
<text text-anchor="start" x="16" y="-208.17" font-family="Menlo" font-size="10.00" fill="red">↵a↵</text>
</g>
<g id="clust2" class="cluster">
<title>S</title>
<polygon fill="none" stroke="black" points="158,-8 158,-227.06 340,-227.06 340,-8 158,-8"/>
<text text-anchor="start" x="166" y="-213.56" font-family="Menlo" font-size="10.00">S = &quot;a&quot; | &quot;b&quot; | &quot;c&quot;</text>
</g>
<!-- C1 -->
<g id="node1" class="node">
<title>C1</title>
<path fill="none" stroke="gray" d="M133.33,-192.92C133.33,-192.92 96.67,-192.92 96.67,-192.92 92.33,-192.92 88,-188.59 88,-184.26 88,-184.26 88,-175.59 88,-175.59 88,-171.26 92.33,-166.92 96.67,-166.92 96.67,-166.92 133.33,-166.92 133.33,-166.92 137.67,-166.92 142,-171.26 142,-175.59 142,-175.59 142,-184.26 142,-184.26 142,-188.59 137.67,-192.92 133.33,-192.92"/>
<text text-anchor="start" x="109" y="-180.42" font-family="Menlo" font-size="10.00">C1</text>
<text text-anchor="start" x="110.5" y="-172.32" font-family="Menlo" font-size="8.00" fill="gray"> 3</text>
</g>
<!-- A1 -->
<g id="node2" class="node">
<title>A1</title>
<path fill="none" stroke="gray" d="M99.08,-117.53C99.08,-117.53 58.92,-117.53 58.92,-117.53 55.46,-117.53 52,-114.07 52,-110.61 52,-110.61 52,-103.7 52,-103.7 52,-100.24 55.46,-96.78 58.92,-96.78 58.92,-96.78 99.08,-96.78 99.08,-96.78 102.54,-96.78 106,-100.24 106,-103.7 106,-103.7 106,-110.61 106,-110.61 106,-114.07 102.54,-117.53 99.08,-117.53"/>
<text text-anchor="middle" x="79" y="-104.03" font-family="Menlo" font-size="10.00">A1</text>
</g>
<!-- C1&#45;&gt;A1 -->
<g id="edge1" class="edge">
<title>C1&#45;&gt;A1</title>
<path fill="none" stroke="gray" d="M108.73,-166.6C102.58,-154.51 93.2,-136.06 86.62,-123.13"/>
<polygon fill="gray" stroke="gray" points="88.33,-122.64 84.5,-118.97 85.21,-124.22 88.33,-122.64"/>
</g>
<!-- B1 -->
<g id="node3" class="node">
<title>B1</title>
<path fill="none" stroke="gray" d="M61.33,-192.92C61.33,-192.92 24.67,-192.92 24.67,-192.92 20.33,-192.92 16,-188.59 16,-184.26 16,-184.26 16,-175.59 16,-175.59 16,-171.26 20.33,-166.92 24.67,-166.92 24.67,-166.92 61.33,-166.92 61.33,-166.92 65.67,-166.92 70,-171.26 70,-175.59 70,-175.59 70,-184.26 70,-184.26 70,-188.59 65.67,-192.92 61.33,-192.92"/>
<text text-anchor="start" x="37" y="-180.42" font-family="Menlo" font-size="10.00">B1</text>
<text text-anchor="start" x="38.5" y="-172.32" font-family="Menlo" font-size="8.00" fill="gray"> 3</text>
</g>
<!-- B1&#45;&gt;A1 -->
<g id="edge2" class="edge">
<title>B1&#45;&gt;A1</title>
<path fill="none" stroke="gray" d="M49.27,-166.6C55.42,-154.51 64.8,-136.06 71.38,-123.13"/>
<polygon fill="gray" stroke="gray" points="72.79,-124.22 73.5,-118.97 69.67,-122.64 72.79,-124.22"/>
</g>
<!-- A -->
<g id="node4" class="node">
<title>A</title>
<ellipse fill="none" stroke="gray" cx="249" cy="-179.92" rx="36.77" ry="18.38"/>
<text text-anchor="start" x="231" y="-180.42" font-family="Menlo" font-size="10.00">A: ALT</text>
<text text-anchor="start" x="246.75" y="-172.32" font-family="Menlo" font-size="8.00" fill="gray"> </text>
</g>
<!-- B -->
<g id="node5" class="node">
<title>B</title>
<ellipse fill="none" stroke="gray" cx="203" cy="-107.15" rx="36.77" ry="18.38"/>
<text text-anchor="start" x="185" y="-107.65" font-family="Menlo" font-size="10.00">B: ALT</text>
<text text-anchor="start" x="200.75" y="-99.55" font-family="Menlo" font-size="8.00" fill="gray"> </text>
</g>
<!-- A&#45;&gt;B -->
<g id="edge3" class="edge">
<title>A&#45;&gt;B</title>
<path fill="none" stroke="gray" d="M238.1,-162.15C231.85,-152.55 223.95,-140.38 217.22,-130.03"/>
<polygon fill="gray" stroke="gray" points="218.84,-129.31 214.65,-126.07 215.91,-131.22 218.84,-129.31"/>
</g>
<!-- E -->
<g id="node8" class="node">
<title>E</title>
<ellipse fill="none" stroke="gray" cx="295" cy="-107.15" rx="36.77" ry="18.38"/>
<text text-anchor="start" x="277" y="-107.65" font-family="Menlo" font-size="10.00">E: &quot;c&quot;</text>
<text text-anchor="start" x="292.75" y="-99.55" font-family="Menlo" font-size="8.00" fill="gray"> </text>
</g>
<!-- A&#45;&gt;E -->
<g id="edge6" class="edge">
<title>A&#45;&gt;E</title>
<path fill="none" stroke="gray" d="M259.9,-162.15C266.15,-152.55 274.05,-140.38 280.78,-130.03"/>
<polygon fill="gray" stroke="gray" points="282.09,-131.22 283.35,-126.07 279.16,-129.31 282.09,-131.22"/>
</g>
<!-- C -->
<g id="node6" class="node">
<title>C</title>
<ellipse fill="none" stroke="gray" cx="203" cy="-34.38" rx="36.77" ry="18.38"/>
<text text-anchor="start" x="185" y="-34.88" font-family="Menlo" font-size="10.00">C: &quot;a&quot;</text>
<text text-anchor="start" x="189.5" y="-26.78" font-family="Menlo" font-size="8.00" fill="gray"> 1:1:2</text>
</g>
<!-- B&#45;&gt;C -->
<g id="edge4" class="edge">
<title>B&#45;&gt;C</title>
<path fill="none" stroke="gray" d="M203,-88.3C203,-79.51 203,-68.8 203,-59.32"/>
<polygon fill="gray" stroke="gray" points="204.75,-59.51 203,-54.51 201.25,-59.51 204.75,-59.51"/>
</g>
<!-- D -->
<g id="node7" class="node">
<title>D</title>
<ellipse fill="none" stroke="gray" cx="295" cy="-34.38" rx="36.77" ry="18.38"/>
<text text-anchor="start" x="277" y="-34.88" font-family="Menlo" font-size="10.00">D: &quot;b&quot;</text>
<text text-anchor="start" x="292.75" y="-26.78" font-family="Menlo" font-size="8.00" fill="gray"> </text>
</g>
<!-- B&#45;&gt;D -->
<g id="edge5" class="edge">
<title>B&#45;&gt;D</title>
<path fill="none" stroke="gray" d="M222.51,-91.15C236.54,-80.36 255.55,-65.73 270.58,-54.17"/>
<polygon fill="gray" stroke="gray" points="271.42,-55.73 274.32,-51.29 269.29,-52.96 271.42,-55.73"/>
</g>
</g>
</svg>
