<?xml version="1.0" encoding="UTF-8" standalone="no"?>
<!DOCTYPE svg PUBLIC "-//W3C//DTD SVG 1.1//EN"
 "http://www.w3.org/Graphics/SVG/1.1/DTD/svg11.dtd">
<!-- Generated by graphviz version 9.0.0 (20230911.1827)
 -->
<!-- Title: G Pages: 1 -->
<svg width="1666pt" height="357pt"
 viewBox="0.00 0.00 1666.00 356.56" xmlns="http://www.w3.org/2000/svg" xmlns:xlink="http://www.w3.org/1999/xlink">
<g id="graph0" class="graph" transform="scale(1 1) rotate(0) translate(4 352.56)">
<title>G</title>
<polygon fill="white" stroke="none" points="-4,4 -4,-352.56 1662,-352.56 1662,4 -4,4"/>
<g id="clust1" class="cluster">
<title>GSS</title>
<polygon fill="none" stroke="black" points="8,-8 8,-332.55 582,-332.55 582,-8 8,-8"/>
<text text-anchor="start" x="16" y="-319.05" font-family="Menlo" font-size="10.00" fill="green">↵aab↵</text>
</g>
<g id="clust2" class="cluster">
<title>S</title>
<polygon fill="none" stroke="black" points="590,-121.5 590,-336.85 1104,-336.85 1104,-121.5 590,-121.5"/>
<text text-anchor="start" x="598" y="-323.35" font-family="Menlo" font-size="10.00">S = &quot;a&quot; S &quot;b&quot; | &quot;a&quot; S &quot;d&quot; | &quot;a&quot;</text>
</g>
<g id="clust3" class="cluster">
<title>multiLine</title>
<polygon fill="none" stroke="black" points="1112,-267.04 1112,-340.56 1302,-340.56 1302,-267.04 1112,-267.04"/>
<text text-anchor="start" x="1120" y="-327.06" font-family="Menlo" font-size="10.00">multiLine = /\/\*(?s).*?\*\//</text>
</g>
<g id="clust4" class="cluster">
<title>singleLine</title>
<polygon fill="none" stroke="black" points="1310,-267.04 1310,-340.56 1476,-340.56 1476,-267.04 1310,-267.04"/>
<text text-anchor="start" x="1318" y="-327.06" font-family="Menlo" font-size="10.00">singleLine = /\/\/.*/</text>
</g>
<g id="clust5" class="cluster">
<title>whitespace</title>
<polygon fill="none" stroke="black" points="1484,-267.04 1484,-340.56 1650,-340.56 1650,-267.04 1484,-267.04"/>
<text text-anchor="start" x="1492" y="-327.06" font-family="Menlo" font-size="10.00">whitespace = /\s+/</text>
</g>
<!-- J2 -->
<g id="node1" class="node">
<title>J2</title>
<path fill="none" stroke="black" d="M135.08,-158.26C135.08,-158.26 94.92,-158.26 94.92,-158.26 91.46,-158.26 88,-154.8 88,-151.34 88,-151.34 88,-144.43 88,-144.43 88,-140.97 91.46,-137.51 94.92,-137.51 94.92,-137.51 135.08,-137.51 135.08,-137.51 138.54,-137.51 142,-140.97 142,-144.43 142,-144.43 142,-151.34 142,-151.34 142,-154.8 138.54,-158.26 135.08,-158.26"/>
<text text-anchor="middle" x="115" y="-144.76" font-family="Menlo" font-size="10.00">J2</text>
</g>
<!-- E1 -->
<g id="node2" class="node">
<title>E1</title>
<path fill="none" stroke="black" d="M279.08,-93.5C279.08,-93.5 238.92,-93.5 238.92,-93.5 235.46,-93.5 232,-90.04 232,-86.58 232,-86.58 232,-79.67 232,-79.67 232,-76.21 235.46,-72.75 238.92,-72.75 238.92,-72.75 279.08,-72.75 279.08,-72.75 282.54,-72.75 286,-76.21 286,-79.67 286,-79.67 286,-86.58 286,-86.58 286,-90.04 282.54,-93.5 279.08,-93.5"/>
<text text-anchor="middle" x="259" y="-80" font-family="Menlo" font-size="10.00">E1</text>
</g>
<!-- J2&#45;&gt;E1 -->
<g id="edge1" class="edge">
<title>J2&#45;&gt;E1</title>
<path fill="none" stroke="black" d="M127.11,-137.05C133.85,-131.92 142.56,-125.83 151,-121.5 173.15,-110.15 199.53,-100.94 220.67,-94.51"/>
<polygon fill="black" stroke="black" points="221.45,-97.93 230.05,-91.74 219.47,-91.22 221.45,-97.93"/>
</g>
<!-- I1 -->
<g id="node3" class="node">
<title>I1</title>
<path fill="none" stroke="black" d="M351.08,-93.5C351.08,-93.5 310.92,-93.5 310.92,-93.5 307.46,-93.5 304,-90.04 304,-86.58 304,-86.58 304,-79.67 304,-79.67 304,-76.21 307.46,-72.75 310.92,-72.75 310.92,-72.75 351.08,-72.75 351.08,-72.75 354.54,-72.75 358,-76.21 358,-79.67 358,-79.67 358,-86.58 358,-86.58 358,-90.04 354.54,-93.5 351.08,-93.5"/>
<text text-anchor="middle" x="331" y="-80" font-family="Menlo" font-size="10.00">I1</text>
</g>
<!-- J2&#45;&gt;I1 -->
<g id="edge2" class="edge">
<title>J2&#45;&gt;I1</title>
<path fill="none" stroke="black" d="M126.25,-137.07C133,-131.69 142,-125.34 151,-121.5 207.81,-97.27 229.15,-106.78 292.54,-93.85"/>
<polygon fill="black" stroke="black" points="293.01,-97.33 302.05,-91.79 291.53,-90.48 293.01,-97.33"/>
</g>
<!-- A1 -->
<g id="node5" class="node">
<title>A1</title>
<path fill="none" stroke="black" d="M423.08,-36.75C423.08,-36.75 382.92,-36.75 382.92,-36.75 379.46,-36.75 376,-33.29 376,-29.83 376,-29.83 376,-22.92 376,-22.92 376,-19.46 379.46,-16 382.92,-16 382.92,-16 423.08,-16 423.08,-16 426.54,-16 430,-19.46 430,-22.92 430,-22.92 430,-29.83 430,-29.83 430,-33.29 426.54,-36.75 423.08,-36.75"/>
<text text-anchor="middle" x="403" y="-23.25" font-family="Menlo" font-size="10.00">A1</text>
</g>
<!-- E1&#45;&gt;A1 -->
<g id="edge16" class="edge">
<title>E1&#45;&gt;A1</title>
<path fill="none" stroke="black" d="M284.74,-72.34C307.58,-63.66 341.17,-50.88 366.72,-41.17"/>
<polygon fill="black" stroke="black" points="367.96,-44.44 376.06,-37.62 365.47,-37.9 367.96,-44.44"/>
</g>
<!-- I1&#45;&gt;A1 -->
<g id="edge6" class="edge">
<title>I1&#45;&gt;A1</title>
<path fill="none" stroke="black" d="M343.87,-72.34C354.21,-64.47 368.97,-53.25 381.15,-43.99"/>
<polygon fill="black" stroke="black" points="383.19,-46.83 389.03,-37.99 378.96,-41.26 383.19,-46.83"/>
</g>
<!-- J1 -->
<g id="node4" class="node">
<title>J1</title>
<path fill="none" stroke="black" d="M567.08,-93.5C567.08,-93.5 526.92,-93.5 526.92,-93.5 523.46,-93.5 520,-90.04 520,-86.58 520,-86.58 520,-79.67 520,-79.67 520,-76.21 523.46,-72.75 526.92,-72.75 526.92,-72.75 567.08,-72.75 567.08,-72.75 570.54,-72.75 574,-76.21 574,-79.67 574,-79.67 574,-86.58 574,-86.58 574,-90.04 570.54,-93.5 567.08,-93.5"/>
<text text-anchor="middle" x="547" y="-80" font-family="Menlo" font-size="10.00">J1</text>
</g>
<!-- J1&#45;&gt;A1 -->
<g id="edge3" class="edge">
<title>J1&#45;&gt;A1</title>
<path fill="none" stroke="black" d="M521.26,-72.34C498.42,-63.66 464.83,-50.88 439.28,-41.17"/>
<polygon fill="black" stroke="black" points="440.53,-37.9 429.94,-37.62 438.04,-44.44 440.53,-37.9"/>
</g>
<!-- I2 -->
<g id="node6" class="node">
<title>I2</title>
<path fill="none" stroke="black" d="M495.08,-158.26C495.08,-158.26 454.92,-158.26 454.92,-158.26 451.46,-158.26 448,-154.8 448,-151.34 448,-151.34 448,-144.43 448,-144.43 448,-140.97 451.46,-137.51 454.92,-137.51 454.92,-137.51 495.08,-137.51 495.08,-137.51 498.54,-137.51 502,-140.97 502,-144.43 502,-144.43 502,-151.34 502,-151.34 502,-154.8 498.54,-158.26 495.08,-158.26"/>
<text text-anchor="middle" x="475" y="-144.76" font-family="Menlo" font-size="10.00">I2</text>
</g>
<!-- I2&#45;&gt;E1 -->
<g id="edge5" class="edge">
<title>I2&#45;&gt;E1</title>
<path fill="none" stroke="black" d="M463.75,-137.07C457,-131.69 448,-125.34 439,-121.5 382.19,-97.27 360.85,-106.78 297.46,-93.85"/>
<polygon fill="black" stroke="black" points="298.47,-90.48 287.95,-91.79 296.99,-97.33 298.47,-90.48"/>
</g>
<!-- I2&#45;&gt;I1 -->
<g id="edge4" class="edge">
<title>I2&#45;&gt;I1</title>
<path fill="none" stroke="black" d="M462.89,-137.05C456.15,-131.92 447.44,-125.83 439,-121.5 416.85,-110.15 390.47,-100.94 369.33,-94.51"/>
<polygon fill="black" stroke="black" points="370.53,-91.22 359.95,-91.74 368.55,-97.93 370.53,-91.22"/>
</g>
<!-- H2 -->
<g id="node7" class="node">
<title>H2</title>
<path fill="none" stroke="black" d="M495.08,-231.03C495.08,-231.03 454.92,-231.03 454.92,-231.03 451.46,-231.03 448,-227.57 448,-224.11 448,-224.11 448,-217.2 448,-217.2 448,-213.74 451.46,-210.28 454.92,-210.28 454.92,-210.28 495.08,-210.28 495.08,-210.28 498.54,-210.28 502,-213.74 502,-217.2 502,-217.2 502,-224.11 502,-224.11 502,-227.57 498.54,-231.03 495.08,-231.03"/>
<text text-anchor="middle" x="475" y="-217.53" font-family="Menlo" font-size="10.00">H2</text>
</g>
<!-- H2&#45;&gt;I2 -->
<g id="edge7" class="edge">
<title>H2&#45;&gt;I2</title>
<path fill="none" stroke="black" d="M475,-209.81C475,-199.57 475,-183.2 475,-170.01"/>
<polygon fill="black" stroke="black" points="478.5,-170.15 475,-160.15 471.5,-170.15 478.5,-170.15"/>
</g>
<!-- H1 -->
<g id="node8" class="node">
<title>H1</title>
<path fill="none" stroke="black" d="M567.08,-158.26C567.08,-158.26 526.92,-158.26 526.92,-158.26 523.46,-158.26 520,-154.8 520,-151.34 520,-151.34 520,-144.43 520,-144.43 520,-140.97 523.46,-137.51 526.92,-137.51 526.92,-137.51 567.08,-137.51 567.08,-137.51 570.54,-137.51 574,-140.97 574,-144.43 574,-144.43 574,-151.34 574,-151.34 574,-154.8 570.54,-158.26 567.08,-158.26"/>
<text text-anchor="middle" x="547" y="-144.76" font-family="Menlo" font-size="10.00">H1</text>
</g>
<!-- H1&#45;&gt;I1 -->
<g id="edge8" class="edge">
<title>H1&#45;&gt;I1</title>
<path fill="none" stroke="black" d="M535.75,-137.07C529,-131.69 520,-125.34 511,-121.5 454.19,-97.27 432.85,-106.78 369.46,-93.85"/>
<polygon fill="black" stroke="black" points="370.47,-90.48 359.95,-91.79 368.99,-97.33 370.47,-90.48"/>
</g>
<!-- G2 -->
<g id="node9" class="node">
<title>G2</title>
<path fill="none" stroke="black" d="M495.08,-303.8C495.08,-303.8 454.92,-303.8 454.92,-303.8 451.46,-303.8 448,-300.34 448,-296.88 448,-296.88 448,-289.97 448,-289.97 448,-286.51 451.46,-283.05 454.92,-283.05 454.92,-283.05 495.08,-283.05 495.08,-283.05 498.54,-283.05 502,-286.51 502,-289.97 502,-289.97 502,-296.88 502,-296.88 502,-300.34 498.54,-303.8 495.08,-303.8"/>
<text text-anchor="middle" x="475" y="-290.3" font-family="Menlo" font-size="10.00">G2</text>
</g>
<!-- G2&#45;&gt;H2 -->
<g id="edge9" class="edge">
<title>G2&#45;&gt;H2</title>
<path fill="none" stroke="black" d="M475,-282.58C475,-272.34 475,-255.97 475,-242.78"/>
<polygon fill="black" stroke="black" points="478.5,-242.92 475,-232.92 471.5,-242.92 478.5,-242.92"/>
</g>
<!-- G1 -->
<g id="node10" class="node">
<title>G1</title>
<path fill="none" stroke="black" d="M567.08,-231.03C567.08,-231.03 526.92,-231.03 526.92,-231.03 523.46,-231.03 520,-227.57 520,-224.11 520,-224.11 520,-217.2 520,-217.2 520,-213.74 523.46,-210.28 526.92,-210.28 526.92,-210.28 567.08,-210.28 567.08,-210.28 570.54,-210.28 574,-213.74 574,-217.2 574,-217.2 574,-224.11 574,-224.11 574,-227.57 570.54,-231.03 567.08,-231.03"/>
<text text-anchor="middle" x="547" y="-217.53" font-family="Menlo" font-size="10.00">G1</text>
</g>
<!-- G1&#45;&gt;H1 -->
<g id="edge10" class="edge">
<title>G1&#45;&gt;H1</title>
<path fill="none" stroke="black" d="M547,-209.81C547,-199.57 547,-183.2 547,-170.01"/>
<polygon fill="black" stroke="black" points="550.5,-170.15 547,-160.15 543.5,-170.15 550.5,-170.15"/>
</g>
<!-- F2 -->
<g id="node11" class="node">
<title>F2</title>
<path fill="none" stroke="black" d="M351.08,-158.26C351.08,-158.26 310.92,-158.26 310.92,-158.26 307.46,-158.26 304,-154.8 304,-151.34 304,-151.34 304,-144.43 304,-144.43 304,-140.97 307.46,-137.51 310.92,-137.51 310.92,-137.51 351.08,-137.51 351.08,-137.51 354.54,-137.51 358,-140.97 358,-144.43 358,-144.43 358,-151.34 358,-151.34 358,-154.8 354.54,-158.26 351.08,-158.26"/>
<text text-anchor="middle" x="331" y="-144.76" font-family="Menlo" font-size="10.00">F2</text>
</g>
<!-- F2&#45;&gt;E1 -->
<g id="edge11" class="edge">
<title>F2&#45;&gt;E1</title>
<path fill="none" stroke="black" d="M319.75,-137.08C308.7,-127.44 291.61,-112.55 278.37,-101.01"/>
<polygon fill="black" stroke="black" points="280.91,-98.58 271.08,-94.65 276.31,-103.86 280.91,-98.58"/>
</g>
<!-- F2&#45;&gt;I1 -->
<g id="edge12" class="edge">
<title>F2&#45;&gt;I1</title>
<path fill="none" stroke="black" d="M331,-137.08C331,-128.55 331,-115.91 331,-105.12"/>
<polygon fill="black" stroke="black" points="334.5,-105.17 331,-95.17 327.5,-105.17 334.5,-105.17"/>
</g>
<!-- F1 -->
<g id="node12" class="node">
<title>F1</title>
<path fill="none" stroke="black" d="M495.08,-93.5C495.08,-93.5 454.92,-93.5 454.92,-93.5 451.46,-93.5 448,-90.04 448,-86.58 448,-86.58 448,-79.67 448,-79.67 448,-76.21 451.46,-72.75 454.92,-72.75 454.92,-72.75 495.08,-72.75 495.08,-72.75 498.54,-72.75 502,-76.21 502,-79.67 502,-79.67 502,-86.58 502,-86.58 502,-90.04 498.54,-93.5 495.08,-93.5"/>
<text text-anchor="middle" x="475" y="-80" font-family="Menlo" font-size="10.00">F1</text>
</g>
<!-- F1&#45;&gt;A1 -->
<g id="edge13" class="edge">
<title>F1&#45;&gt;A1</title>
<path fill="none" stroke="black" d="M462.13,-72.34C451.79,-64.47 437.03,-53.25 424.85,-43.99"/>
<polygon fill="black" stroke="black" points="427.04,-41.26 416.97,-37.99 422.81,-46.83 427.04,-41.26"/>
</g>
<!-- E2 -->
<g id="node13" class="node">
<title>E2</title>
<path fill="none" stroke="black" d="M279.08,-158.26C279.08,-158.26 238.92,-158.26 238.92,-158.26 235.46,-158.26 232,-154.8 232,-151.34 232,-151.34 232,-144.43 232,-144.43 232,-140.97 235.46,-137.51 238.92,-137.51 238.92,-137.51 279.08,-137.51 279.08,-137.51 282.54,-137.51 286,-140.97 286,-144.43 286,-144.43 286,-151.34 286,-151.34 286,-154.8 282.54,-158.26 279.08,-158.26"/>
<text text-anchor="middle" x="259" y="-144.76" font-family="Menlo" font-size="10.00">E2</text>
</g>
<!-- E2&#45;&gt;E1 -->
<g id="edge14" class="edge">
<title>E2&#45;&gt;E1</title>
<path fill="none" stroke="black" d="M259,-137.08C259,-128.55 259,-115.91 259,-105.12"/>
<polygon fill="black" stroke="black" points="262.5,-105.17 259,-95.17 255.5,-105.17 262.5,-105.17"/>
</g>
<!-- E2&#45;&gt;I1 -->
<g id="edge15" class="edge">
<title>E2&#45;&gt;I1</title>
<path fill="none" stroke="black" d="M270.25,-137.08C281.3,-127.44 298.39,-112.55 311.63,-101.01"/>
<polygon fill="black" stroke="black" points="313.69,-103.86 318.92,-94.65 309.09,-98.58 313.69,-103.86"/>
</g>
<!-- D2 -->
<g id="node14" class="node">
<title>D2</title>
<path fill="none" stroke="black" d="M279.08,-231.03C279.08,-231.03 238.92,-231.03 238.92,-231.03 235.46,-231.03 232,-227.57 232,-224.11 232,-224.11 232,-217.2 232,-217.2 232,-213.74 235.46,-210.28 238.92,-210.28 238.92,-210.28 279.08,-210.28 279.08,-210.28 282.54,-210.28 286,-213.74 286,-217.2 286,-217.2 286,-224.11 286,-224.11 286,-227.57 282.54,-231.03 279.08,-231.03"/>
<text text-anchor="middle" x="259" y="-217.53" font-family="Menlo" font-size="10.00">D2</text>
</g>
<!-- D2&#45;&gt;E2 -->
<g id="edge17" class="edge">
<title>D2&#45;&gt;E2</title>
<path fill="none" stroke="black" d="M259,-209.81C259,-199.57 259,-183.2 259,-170.01"/>
<polygon fill="black" stroke="black" points="262.5,-170.15 259,-160.15 255.5,-170.15 262.5,-170.15"/>
</g>
<!-- D1 -->
<g id="node15" class="node">
<title>D1</title>
<path fill="none" stroke="black" d="M63.08,-158.26C63.08,-158.26 22.92,-158.26 22.92,-158.26 19.46,-158.26 16,-154.8 16,-151.34 16,-151.34 16,-144.43 16,-144.43 16,-140.97 19.46,-137.51 22.92,-137.51 22.92,-137.51 63.08,-137.51 63.08,-137.51 66.54,-137.51 70,-140.97 70,-144.43 70,-144.43 70,-151.34 70,-151.34 70,-154.8 66.54,-158.26 63.08,-158.26"/>
<text text-anchor="middle" x="43" y="-144.76" font-family="Menlo" font-size="10.00">D1</text>
</g>
<!-- D1&#45;&gt;E1 -->
<g id="edge18" class="edge">
<title>D1&#45;&gt;E1</title>
<path fill="none" stroke="black" d="M54.27,-137.12C61.02,-131.74 70.02,-125.4 79,-121.5 125.23,-101.44 182.92,-91.9 220.33,-87.54"/>
<polygon fill="black" stroke="black" points="220.66,-91.03 230.23,-86.47 219.91,-84.07 220.66,-91.03"/>
</g>
<!-- C2 -->
<g id="node16" class="node">
<title>C2</title>
<path fill="none" stroke="black" d="M279.08,-303.8C279.08,-303.8 238.92,-303.8 238.92,-303.8 235.46,-303.8 232,-300.34 232,-296.88 232,-296.88 232,-289.97 232,-289.97 232,-286.51 235.46,-283.05 238.92,-283.05 238.92,-283.05 279.08,-283.05 279.08,-283.05 282.54,-283.05 286,-286.51 286,-289.97 286,-289.97 286,-296.88 286,-296.88 286,-300.34 282.54,-303.8 279.08,-303.8"/>
<text text-anchor="middle" x="259" y="-290.3" font-family="Menlo" font-size="10.00">C2</text>
</g>
<!-- C2&#45;&gt;D2 -->
<g id="edge19" class="edge">
<title>C2&#45;&gt;D2</title>
<path fill="none" stroke="black" d="M259,-282.58C259,-272.34 259,-255.97 259,-242.78"/>
<polygon fill="black" stroke="black" points="262.5,-242.92 259,-232.92 255.5,-242.92 262.5,-242.92"/>
</g>
<!-- C1 -->
<g id="node17" class="node">
<title>C1</title>
<path fill="none" stroke="black" d="M63.08,-231.03C63.08,-231.03 22.92,-231.03 22.92,-231.03 19.46,-231.03 16,-227.57 16,-224.11 16,-224.11 16,-217.2 16,-217.2 16,-213.74 19.46,-210.28 22.92,-210.28 22.92,-210.28 63.08,-210.28 63.08,-210.28 66.54,-210.28 70,-213.74 70,-217.2 70,-217.2 70,-224.11 70,-224.11 70,-227.57 66.54,-231.03 63.08,-231.03"/>
<text text-anchor="middle" x="43" y="-217.53" font-family="Menlo" font-size="10.00">C1</text>
</g>
<!-- C1&#45;&gt;D1 -->
<g id="edge20" class="edge">
<title>C1&#45;&gt;D1</title>
<path fill="none" stroke="black" d="M43,-209.81C43,-199.57 43,-183.2 43,-170.01"/>
<polygon fill="black" stroke="black" points="46.5,-170.15 43,-160.15 39.5,-170.15 46.5,-170.15"/>
</g>
<!-- B2 -->
<g id="node18" class="node">
<title>B2</title>
<path fill="none" stroke="black" d="M207.08,-158.26C207.08,-158.26 166.92,-158.26 166.92,-158.26 163.46,-158.26 160,-154.8 160,-151.34 160,-151.34 160,-144.43 160,-144.43 160,-140.97 163.46,-137.51 166.92,-137.51 166.92,-137.51 207.08,-137.51 207.08,-137.51 210.54,-137.51 214,-140.97 214,-144.43 214,-144.43 214,-151.34 214,-151.34 214,-154.8 210.54,-158.26 207.08,-158.26"/>
<text text-anchor="middle" x="187" y="-144.76" font-family="Menlo" font-size="10.00">B2</text>
</g>
<!-- B2&#45;&gt;E1 -->
<g id="edge21" class="edge">
<title>B2&#45;&gt;E1</title>
<path fill="none" stroke="black" d="M198.25,-137.08C209.3,-127.44 226.39,-112.55 239.63,-101.01"/>
<polygon fill="black" stroke="black" points="241.69,-103.86 246.92,-94.65 237.09,-98.58 241.69,-103.86"/>
</g>
<!-- B2&#45;&gt;I1 -->
<g id="edge22" class="edge">
<title>B2&#45;&gt;I1</title>
<path fill="none" stroke="black" d="M199.11,-137.05C205.85,-131.92 214.56,-125.83 223,-121.5 245.15,-110.15 271.53,-100.94 292.67,-94.51"/>
<polygon fill="black" stroke="black" points="293.45,-97.93 302.05,-91.74 291.47,-91.22 293.45,-97.93"/>
</g>
<!-- B1 -->
<g id="node19" class="node">
<title>B1</title>
<path fill="none" stroke="black" d="M423.08,-93.5C423.08,-93.5 382.92,-93.5 382.92,-93.5 379.46,-93.5 376,-90.04 376,-86.58 376,-86.58 376,-79.67 376,-79.67 376,-76.21 379.46,-72.75 382.92,-72.75 382.92,-72.75 423.08,-72.75 423.08,-72.75 426.54,-72.75 430,-76.21 430,-79.67 430,-79.67 430,-86.58 430,-86.58 430,-90.04 426.54,-93.5 423.08,-93.5"/>
<text text-anchor="middle" x="403" y="-80" font-family="Menlo" font-size="10.00">B1</text>
</g>
<!-- B1&#45;&gt;A1 -->
<g id="edge23" class="edge">
<title>B1&#45;&gt;A1</title>
<path fill="none" stroke="black" d="M403,-72.34C403,-65.72 403,-56.72 403,-48.52"/>
<polygon fill="black" stroke="black" points="406.5,-48.59 403,-38.59 399.5,-48.59 406.5,-48.59"/>
</g>
<!-- A2 -->
<g id="node20" class="node">
<title>A2</title>
<path fill="none" stroke="black" d="M423.08,-158.26C423.08,-158.26 382.92,-158.26 382.92,-158.26 379.46,-158.26 376,-154.8 376,-151.34 376,-151.34 376,-144.43 376,-144.43 376,-140.97 379.46,-137.51 382.92,-137.51 382.92,-137.51 423.08,-137.51 423.08,-137.51 426.54,-137.51 430,-140.97 430,-144.43 430,-144.43 430,-151.34 430,-151.34 430,-154.8 426.54,-158.26 423.08,-158.26"/>
<text text-anchor="middle" x="403" y="-144.76" font-family="Menlo" font-size="10.00">A2</text>
</g>
<!-- A2&#45;&gt;E1 -->
<g id="edge25" class="edge">
<title>A2&#45;&gt;E1</title>
<path fill="none" stroke="black" d="M390.89,-137.05C384.15,-131.92 375.44,-125.83 367,-121.5 344.85,-110.15 318.47,-100.94 297.33,-94.51"/>
<polygon fill="black" stroke="black" points="298.53,-91.22 287.95,-91.74 296.55,-97.93 298.53,-91.22"/>
</g>
<!-- A2&#45;&gt;I1 -->
<g id="edge24" class="edge">
<title>A2&#45;&gt;I1</title>
<path fill="none" stroke="black" d="M391.75,-137.08C380.7,-127.44 363.61,-112.55 350.37,-101.01"/>
<polygon fill="black" stroke="black" points="352.91,-98.58 343.08,-94.65 348.31,-103.86 352.91,-98.58"/>
</g>
<!-- A -->
<g id="node21" class="node">
<title>A</title>
<ellipse fill="none" stroke="black" cx="897" cy="-293.42" rx="36.77" ry="14.67"/>
<text text-anchor="start" x="879" y="-290.3" font-family="Menlo" font-size="10.00">A: ALT</text>
</g>
<!-- B -->
<g id="node22" class="node">
<title>B</title>
<ellipse fill="none" stroke="black" cx="764" cy="-220.65" rx="36.77" ry="14.67"/>
<text text-anchor="start" x="746" y="-217.53" font-family="Menlo" font-size="10.00">B: SEQ</text>
</g>
<!-- A&#45;&gt;B -->
<g id="edge26" class="edge">
<title>A&#45;&gt;B</title>
<path fill="none" stroke="black" d="M875.63,-281.05C853.91,-269.5 820.04,-251.47 795.3,-238.31"/>
<polygon fill="black" stroke="black" points="797.12,-235.32 786.65,-233.71 793.84,-241.49 797.12,-235.32"/>
</g>
<!-- F -->
<g id="node26" class="node">
<title>F</title>
<ellipse fill="none" stroke="black" cx="897" cy="-220.65" rx="36.77" ry="14.67"/>
<text text-anchor="start" x="879" y="-217.53" font-family="Menlo" font-size="10.00">F: SEQ</text>
</g>
<!-- A&#45;&gt;F -->
<g id="edge30" class="edge">
<title>A&#45;&gt;F</title>
<path fill="none" stroke="black" d="M897,-278.44C897,-269.43 897,-257.44 897,-246.81"/>
<polygon fill="black" stroke="black" points="900.5,-247.12 897,-237.12 893.5,-247.12 900.5,-247.12"/>
</g>
<!-- J -->
<g id="node30" class="node">
<title>J</title>
<ellipse fill="none" stroke="black" cx="989" cy="-220.65" rx="36.77" ry="18.38"/>
<text text-anchor="start" x="971" y="-221.15" font-family="Menlo" font-size="10.00">J: &quot;a&quot;</text>
<text text-anchor="start" x="971" y="-213.05" font-family="Menlo" font-size="8.00" fill="gray"> 2:3 1:2</text>
</g>
<!-- A&#45;&gt;J -->
<g id="edge34" class="edge">
<title>A&#45;&gt;J</title>
<path fill="none" stroke="black" d="M913.03,-280.1C926.19,-269.97 945.17,-255.37 960.86,-243.3"/>
<polygon fill="black" stroke="black" points="962.66,-246.33 968.45,-237.46 958.39,-240.78 962.66,-246.33"/>
</g>
<!-- C -->
<g id="node23" class="node">
<title>C</title>
<ellipse fill="none" stroke="black" cx="635" cy="-147.88" rx="36.77" ry="18.38"/>
<text text-anchor="start" x="617" y="-148.38" font-family="Menlo" font-size="10.00">C: &quot;a&quot;</text>
<text text-anchor="start" x="617" y="-140.28" font-family="Menlo" font-size="8.00" fill="gray"> 1:2 2:3</text>
</g>
<!-- B&#45;&gt;C -->
<g id="edge27" class="edge">
<title>B&#45;&gt;C</title>
<path fill="none" stroke="black" d="M742.99,-208.13C722.96,-197.14 692.47,-180.41 668.99,-167.53"/>
<polygon fill="black" stroke="black" points="670.86,-164.56 660.41,-162.82 667.49,-170.7 670.86,-164.56"/>
</g>
<!-- D -->
<g id="node24" class="node">
<title>D</title>
<ellipse fill="none" stroke="black" cx="718" cy="-147.88" rx="28.28" ry="14.67"/>
<text text-anchor="start" x="706" y="-144.76" font-family="Menlo" font-size="10.00">D: S</text>
</g>
<!-- B&#45;&gt;D -->
<g id="edge28" class="edge">
<title>B&#45;&gt;D</title>
<path fill="none" stroke="black" d="M755.13,-206.01C748.75,-196.19 740,-182.73 732.6,-171.34"/>
<polygon fill="black" stroke="black" points="735.74,-169.76 727.36,-163.28 729.87,-173.57 735.74,-169.76"/>
</g>
<!-- E -->
<g id="node25" class="node">
<title>E</title>
<ellipse fill="none" stroke="black" cx="801" cy="-147.88" rx="36.77" ry="18.38"/>
<text text-anchor="start" x="783" y="-148.38" font-family="Menlo" font-size="10.00">E: &quot;b&quot;</text>
<text text-anchor="start" x="792" y="-140.28" font-family="Menlo" font-size="8.00" fill="gray"> 3:4</text>
</g>
<!-- B&#45;&gt;E -->
<g id="edge29" class="edge">
<title>B&#45;&gt;E</title>
<path fill="none" stroke="black" d="M771.13,-206.01C775.56,-197.54 781.4,-186.37 786.75,-176.15"/>
<polygon fill="black" stroke="black" points="789.82,-177.82 791.35,-167.33 783.62,-174.58 789.82,-177.82"/>
</g>
<!-- D&#45;&gt;A -->
<g id="edge35" class="edge">
<title>D&#45;&gt;A</title>
<path fill="none" stroke="black" stroke-dasharray="1,5" d="M736.76,-159.08C742.47,-161.8 748.87,-164.48 755,-166.27 815.23,-183.82 993.56,-155.17 1035,-202.27 1045.79,-214.54 1044.24,-225.56 1035,-239.04 1014.69,-268.67 975.4,-281.86 943.92,-287.73"/>
<polygon fill="black" stroke="black" points="943.51,-284.24 934.22,-289.33 944.65,-291.15 943.51,-284.24"/>
</g>
<!-- G -->
<g id="node27" class="node">
<title>G</title>
<ellipse fill="none" stroke="black" cx="893" cy="-147.88" rx="36.77" ry="18.38"/>
<text text-anchor="start" x="875" y="-148.38" font-family="Menlo" font-size="10.00">G: &quot;a&quot;</text>
<text text-anchor="start" x="875" y="-140.28" font-family="Menlo" font-size="8.00" fill="gray"> 2:3 1:2</text>
</g>
<!-- F&#45;&gt;G -->
<g id="edge31" class="edge">
<title>F&#45;&gt;G</title>
<path fill="none" stroke="black" d="M896.21,-205.67C895.76,-197.71 895.18,-187.43 894.64,-177.82"/>
<polygon fill="black" stroke="black" points="898.15,-177.91 894.09,-168.12 891.16,-178.3 898.15,-177.91"/>
</g>
<!-- H -->
<g id="node28" class="node">
<title>H</title>
<ellipse fill="none" stroke="black" cx="976" cy="-147.88" rx="28.28" ry="14.67"/>
<text text-anchor="start" x="964" y="-144.76" font-family="Menlo" font-size="10.00">H: S</text>
</g>
<!-- F&#45;&gt;H -->
<g id="edge32" class="edge">
<title>F&#45;&gt;H</title>
<path fill="none" stroke="black" d="M911.12,-207C922.99,-196.37 940.16,-180.99 953.86,-168.72"/>
<polygon fill="black" stroke="black" points="956.02,-171.48 961.14,-162.2 951.35,-166.27 956.02,-171.48"/>
</g>
<!-- I -->
<g id="node29" class="node">
<title>I</title>
<ellipse fill="none" stroke="black" cx="1059" cy="-147.88" rx="36.77" ry="18.38"/>
<text text-anchor="start" x="1041" y="-148.38" font-family="Menlo" font-size="10.00">I: &quot;d&quot;</text>
<text text-anchor="start" x="1056.75" y="-140.28" font-family="Menlo" font-size="8.00" fill="gray"> </text>
</g>
<!-- F&#45;&gt;I -->
<g id="edge33" class="edge">
<title>F&#45;&gt;I</title>
<path fill="none" stroke="black" d="M920.9,-209.21C947.44,-197.62 990.6,-178.77 1021.61,-165.22"/>
<polygon fill="black" stroke="black" points="1022.87,-168.49 1030.64,-161.27 1020.07,-162.07 1022.87,-168.49"/>
</g>
<!-- H&#45;&gt;A -->
<g id="edge36" class="edge">
<title>H&#45;&gt;A</title>
<path fill="none" stroke="black" stroke-dasharray="1,5" d="M995.5,-158.99C1021.01,-172.41 1062.97,-195.24 1067,-202.27 1075.12,-216.45 1076.67,-225.87 1067,-239.04 1039.34,-276.71 985.12,-288.51 945.32,-291.86"/>
<polygon fill="black" stroke="black" points="945.25,-288.35 935.5,-292.52 945.71,-295.34 945.25,-288.35"/>
</g>
<!-- K -->
<g id="node31" class="node">
<title>K</title>
<ellipse fill="none" stroke="black" cx="1207" cy="-293.42" rx="70.71" ry="18.38"/>
<text text-anchor="start" x="1165" y="-293.92" font-family="Menlo" font-size="10.00">K: &quot;multiLine&quot;</text>
<text text-anchor="start" x="1204.75" y="-285.82" font-family="Menlo" font-size="8.00" fill="gray"> </text>
</g>
<!-- L -->
<g id="node32" class="node">
<title>L</title>
<ellipse fill="none" stroke="black" cx="1393" cy="-293.42" rx="74.95" ry="18.38"/>
<text text-anchor="start" x="1348" y="-293.92" font-family="Menlo" font-size="10.00">L: &quot;singleLine&quot;</text>
<text text-anchor="start" x="1390.75" y="-285.82" font-family="Menlo" font-size="8.00" fill="gray"> </text>
</g>
<!-- M -->
<g id="node33" class="node">
<title>M</title>
<ellipse fill="none" stroke="black" cx="1567" cy="-293.42" rx="74.95" ry="18.38"/>
<text text-anchor="start" x="1522" y="-293.92" font-family="Menlo" font-size="10.00">M: &quot;whitespace&quot;</text>
<text text-anchor="start" x="1564.75" y="-285.82" font-family="Menlo" font-size="8.00" fill="gray"> </text>
</g>
</g>
</svg>
