<?xml version="1.0" encoding="UTF-8" standalone="no"?>
<!DOCTYPE svg PUBLIC "-//W3C//DTD SVG 1.1//EN"
 "http://www.w3.org/Graphics/SVG/1.1/DTD/svg11.dtd">
<!-- Generated by graphviz version 9.0.0 (20230911.1827)
 -->
<!-- Title: G Pages: 1 -->
<svg width="1322pt" height="365pt"
 viewBox="0.00 0.00 1322.00 365.04" xmlns="http://www.w3.org/2000/svg" xmlns:xlink="http://www.w3.org/1999/xlink">
<g id="graph0" class="graph" transform="scale(1 1) rotate(0) translate(4 361.04)">
<title>G</title>
<polygon fill="white" stroke="none" points="-4,4 -4,-361.04 1318,-361.04 1318,4 -4,4"/>
<g id="clust3" class="cluster">
<title>whitespace</title>
<polygon fill="none" stroke="black" points="1140,-272.7 1140,-349.04 1306,-349.04 1306,-272.7 1140,-272.7"/>
<text text-anchor="start" x="1148" y="-335.54" font-family="Menlo" font-size="10.00">whitespace = &quot;\s+&quot;</text>
</g>
<g id="clust1" class="cluster">
<title>GSS</title>
<polygon fill="none" stroke="black" points="8,-8 8,-339.62 582,-339.62 582,-8 8,-8"/>
<text text-anchor="start" x="16" y="-326.12" font-family="Menlo" font-size="10.00" fill="red">LL1 aad↵</text>
</g>
<g id="clust2" class="cluster">
<title>S</title>
<polygon fill="none" stroke="black" points="590,-121.5 590,-343.92 1132,-343.92 1132,-121.5 590,-121.5"/>
<text text-anchor="start" x="598" y="-330.42" font-family="Menlo" font-size="10.00">S = &quot;a&quot; S &quot;b&quot; | &quot;a&quot; S &quot;d&quot; | &quot;a&quot;</text>
</g>
<!-- J1 -->
<g id="node1" class="node">
<title>J1</title>
<path fill="none" stroke="black" d="M351.08,-159.67C351.08,-159.67 310.92,-159.67 310.92,-159.67 307.46,-159.67 304,-156.22 304,-152.76 304,-152.76 304,-145.84 304,-145.84 304,-142.38 307.46,-138.92 310.92,-138.92 310.92,-138.92 351.08,-138.92 351.08,-138.92 354.54,-138.92 358,-142.38 358,-145.84 358,-145.84 358,-152.76 358,-152.76 358,-156.22 354.54,-159.67 351.08,-159.67"/>
<text text-anchor="middle" x="331" y="-146.17" font-family="Menlo" font-size="10.00">J1</text>
</g>
<!-- I0 -->
<g id="node2" class="node">
<title>I0</title>
<path fill="none" stroke="black" d="M279.08,-93.5C279.08,-93.5 238.92,-93.5 238.92,-93.5 235.46,-93.5 232,-90.04 232,-86.58 232,-86.58 232,-79.67 232,-79.67 232,-76.21 235.46,-72.75 238.92,-72.75 238.92,-72.75 279.08,-72.75 279.08,-72.75 282.54,-72.75 286,-76.21 286,-79.67 286,-79.67 286,-86.58 286,-86.58 286,-90.04 282.54,-93.5 279.08,-93.5"/>
<text text-anchor="middle" x="259" y="-80" font-family="Menlo" font-size="10.00">I0</text>
</g>
<!-- J1&#45;&gt;I0 -->
<g id="edge1" class="edge">
<title>J1&#45;&gt;I0</title>
<path fill="none" stroke="black" d="M315.06,-138.55C302.3,-128.85 284.97,-113.73 272.81,-101.88"/>
<polygon fill="black" stroke="black" points="275.58,-99.71 266.07,-95.04 270.6,-104.62 275.58,-99.71"/>
</g>
<!-- J1&#45;&gt;I0 -->
<g id="edge3" class="edge">
<title>J1&#45;&gt;I0</title>
<path fill="none" stroke="black" d="M325.07,-138.55C315.78,-128.56 298.48,-112.84 283.78,-100.86"/>
<polygon fill="black" stroke="black" points="286.27,-98.36 276.25,-94.9 281.93,-103.85 286.27,-98.36"/>
</g>
<!-- E0 -->
<g id="node3" class="node">
<title>E0</title>
<path fill="none" stroke="black" d="M351.08,-93.5C351.08,-93.5 310.92,-93.5 310.92,-93.5 307.46,-93.5 304,-90.04 304,-86.58 304,-86.58 304,-79.67 304,-79.67 304,-76.21 307.46,-72.75 310.92,-72.75 310.92,-72.75 351.08,-72.75 351.08,-72.75 354.54,-72.75 358,-76.21 358,-79.67 358,-79.67 358,-86.58 358,-86.58 358,-90.04 354.54,-93.5 351.08,-93.5"/>
<text text-anchor="middle" x="331" y="-80" font-family="Menlo" font-size="10.00">E0</text>
</g>
<!-- J1&#45;&gt;E0 -->
<g id="edge2" class="edge">
<title>J1&#45;&gt;E0</title>
<path fill="none" stroke="black" d="M331,-138.55C331,-129.79 331,-116.61 331,-105.42"/>
<polygon fill="black" stroke="black" points="334.5,-105.48 331,-95.48 327.5,-105.48 334.5,-105.48"/>
</g>
<!-- A0 -->
<g id="node5" class="node">
<title>A0</title>
<path fill="none" stroke="black" d="M423.08,-36.75C423.08,-36.75 382.92,-36.75 382.92,-36.75 379.46,-36.75 376,-33.29 376,-29.83 376,-29.83 376,-22.92 376,-22.92 376,-19.46 379.46,-16 382.92,-16 382.92,-16 423.08,-16 423.08,-16 426.54,-16 430,-19.46 430,-22.92 430,-22.92 430,-29.83 430,-29.83 430,-33.29 426.54,-36.75 423.08,-36.75"/>
<text text-anchor="middle" x="403" y="-23.25" font-family="Menlo" font-size="10.00">A0</text>
</g>
<!-- I0&#45;&gt;A0 -->
<g id="edge8" class="edge">
<title>I0&#45;&gt;A0</title>
<path fill="none" stroke="black" d="M284.74,-72.34C307.58,-63.66 341.17,-50.88 366.72,-41.17"/>
<polygon fill="black" stroke="black" points="367.96,-44.44 376.06,-37.62 365.47,-37.9 367.96,-44.44"/>
</g>
<!-- E0&#45;&gt;A0 -->
<g id="edge24" class="edge">
<title>E0&#45;&gt;A0</title>
<path fill="none" stroke="black" d="M343.87,-72.34C354.21,-64.47 368.97,-53.25 381.15,-43.99"/>
<polygon fill="black" stroke="black" points="383.19,-46.83 389.03,-37.99 378.96,-41.26 383.19,-46.83"/>
</g>
<!-- J0 -->
<g id="node4" class="node">
<title>J0</title>
<path fill="none" stroke="black" d="M567.08,-93.5C567.08,-93.5 526.92,-93.5 526.92,-93.5 523.46,-93.5 520,-90.04 520,-86.58 520,-86.58 520,-79.67 520,-79.67 520,-76.21 523.46,-72.75 526.92,-72.75 526.92,-72.75 567.08,-72.75 567.08,-72.75 570.54,-72.75 574,-76.21 574,-79.67 574,-79.67 574,-86.58 574,-86.58 574,-90.04 570.54,-93.5 567.08,-93.5"/>
<text text-anchor="middle" x="547" y="-80" font-family="Menlo" font-size="10.00">J0</text>
</g>
<!-- J0&#45;&gt;A0 -->
<g id="edge4" class="edge">
<title>J0&#45;&gt;A0</title>
<path fill="none" stroke="black" d="M521.26,-72.34C498.42,-63.66 464.83,-50.88 439.28,-41.17"/>
<polygon fill="black" stroke="black" points="440.53,-37.9 429.94,-37.62 438.04,-44.44 440.53,-37.9"/>
</g>
<!-- I1 -->
<g id="node6" class="node">
<title>I1</title>
<path fill="none" stroke="black" d="M279.08,-159.67C279.08,-159.67 238.92,-159.67 238.92,-159.67 235.46,-159.67 232,-156.22 232,-152.76 232,-152.76 232,-145.84 232,-145.84 232,-142.38 235.46,-138.92 238.92,-138.92 238.92,-138.92 279.08,-138.92 279.08,-138.92 282.54,-138.92 286,-142.38 286,-145.84 286,-145.84 286,-152.76 286,-152.76 286,-156.22 282.54,-159.67 279.08,-159.67"/>
<text text-anchor="middle" x="259" y="-146.17" font-family="Menlo" font-size="10.00">I1</text>
</g>
<!-- I1&#45;&gt;I0 -->
<g id="edge5" class="edge">
<title>I1&#45;&gt;I0</title>
<path fill="none" stroke="black" d="M253.99,-138.55C252.29,-129.69 251.84,-116.33 252.63,-105.06"/>
<polygon fill="black" stroke="black" points="256.06,-105.81 253.79,-95.47 249.11,-104.97 256.06,-105.81"/>
</g>
<!-- I1&#45;&gt;I0 -->
<g id="edge7" class="edge">
<title>I1&#45;&gt;I0</title>
<path fill="none" stroke="black" d="M264.01,-138.55C265.71,-129.69 266.16,-116.33 265.37,-105.06"/>
<polygon fill="black" stroke="black" points="268.89,-104.97 264.21,-95.47 261.94,-105.81 268.89,-104.97"/>
</g>
<!-- I1&#45;&gt;E0 -->
<g id="edge6" class="edge">
<title>I1&#45;&gt;E0</title>
<path fill="none" stroke="black" d="M269.94,-138.55C280.93,-128.75 298.12,-113.43 311.46,-101.54"/>
<polygon fill="black" stroke="black" points="313.7,-104.24 318.83,-94.97 309.04,-99.01 313.7,-104.24"/>
</g>
<!-- H1 -->
<g id="node7" class="node">
<title>H1</title>
<path fill="none" stroke="black" d="M279.08,-235.27C279.08,-235.27 238.92,-235.27 238.92,-235.27 235.46,-235.27 232,-231.81 232,-228.36 232,-228.36 232,-221.44 232,-221.44 232,-217.98 235.46,-214.52 238.92,-214.52 238.92,-214.52 279.08,-214.52 279.08,-214.52 282.54,-214.52 286,-217.98 286,-221.44 286,-221.44 286,-228.36 286,-228.36 286,-231.81 282.54,-235.27 279.08,-235.27"/>
<text text-anchor="middle" x="259" y="-221.77" font-family="Menlo" font-size="10.00">H1</text>
</g>
<!-- H1&#45;&gt;I1 -->
<g id="edge9" class="edge">
<title>H1&#45;&gt;I1</title>
<path fill="none" stroke="black" d="M249.54,-214.28C245.4,-203.43 244.44,-185.46 246.67,-171.32"/>
<polygon fill="black" stroke="black" points="250.06,-172.18 249.08,-161.63 243.27,-170.49 250.06,-172.18"/>
</g>
<!-- H1&#45;&gt;I1 -->
<g id="edge10" class="edge">
<title>H1&#45;&gt;I1</title>
<path fill="none" stroke="black" d="M259,-214.28C259,-203.43 259,-185.46 259,-171.32"/>
<polygon fill="black" stroke="black" points="262.5,-171.67 259,-161.67 255.5,-171.67 262.5,-171.67"/>
</g>
<!-- H1&#45;&gt;I1 -->
<g id="edge11" class="edge">
<title>H1&#45;&gt;I1</title>
<path fill="none" stroke="black" d="M268.46,-214.28C272.6,-203.43 273.56,-185.46 271.33,-171.32"/>
<polygon fill="black" stroke="black" points="274.73,-170.49 268.92,-161.63 267.94,-172.18 274.73,-170.49"/>
</g>
<!-- H0 -->
<g id="node8" class="node">
<title>H0</title>
<path fill="none" stroke="black" d="M63.08,-159.67C63.08,-159.67 22.92,-159.67 22.92,-159.67 19.46,-159.67 16,-156.22 16,-152.76 16,-152.76 16,-145.84 16,-145.84 16,-142.38 19.46,-138.92 22.92,-138.92 22.92,-138.92 63.08,-138.92 63.08,-138.92 66.54,-138.92 70,-142.38 70,-145.84 70,-145.84 70,-152.76 70,-152.76 70,-156.22 66.54,-159.67 63.08,-159.67"/>
<text text-anchor="middle" x="43" y="-146.17" font-family="Menlo" font-size="10.00">H0</text>
</g>
<!-- H0&#45;&gt;I0 -->
<g id="edge12" class="edge">
<title>H0&#45;&gt;I0</title>
<path fill="none" stroke="black" d="M53.55,-138.49C60.34,-132.71 69.62,-125.72 79,-121.5 124.97,-100.84 182.72,-91.45 220.22,-87.28"/>
<polygon fill="black" stroke="black" points="220.55,-90.77 230.14,-86.26 219.83,-83.8 220.55,-90.77"/>
</g>
<!-- G1 -->
<g id="node9" class="node">
<title>G1</title>
<path fill="none" stroke="black" d="M279.08,-310.87C279.08,-310.87 238.92,-310.87 238.92,-310.87 235.46,-310.87 232,-307.41 232,-303.95 232,-303.95 232,-297.04 232,-297.04 232,-293.58 235.46,-290.12 238.92,-290.12 238.92,-290.12 279.08,-290.12 279.08,-290.12 282.54,-290.12 286,-293.58 286,-297.04 286,-297.04 286,-303.95 286,-303.95 286,-307.41 282.54,-310.87 279.08,-310.87"/>
<text text-anchor="middle" x="259" y="-297.37" font-family="Menlo" font-size="10.00">G1</text>
</g>
<!-- G1&#45;&gt;H1 -->
<g id="edge13" class="edge">
<title>G1&#45;&gt;H1</title>
<path fill="none" stroke="black" d="M249.54,-289.87C245.4,-279.02 244.44,-261.05 246.67,-246.92"/>
<polygon fill="black" stroke="black" points="250.06,-247.77 249.08,-237.22 243.27,-246.08 250.06,-247.77"/>
</g>
<!-- G1&#45;&gt;H1 -->
<g id="edge14" class="edge">
<title>G1&#45;&gt;H1</title>
<path fill="none" stroke="black" d="M259,-289.87C259,-279.02 259,-261.05 259,-246.92"/>
<polygon fill="black" stroke="black" points="262.5,-247.27 259,-237.27 255.5,-247.27 262.5,-247.27"/>
</g>
<!-- G1&#45;&gt;H1 -->
<g id="edge15" class="edge">
<title>G1&#45;&gt;H1</title>
<path fill="none" stroke="black" d="M268.46,-289.87C272.6,-279.02 273.56,-261.05 271.33,-246.92"/>
<polygon fill="black" stroke="black" points="274.73,-246.08 268.92,-237.22 267.94,-247.77 274.73,-246.08"/>
</g>
<!-- G0 -->
<g id="node10" class="node">
<title>G0</title>
<path fill="none" stroke="black" d="M63.08,-235.27C63.08,-235.27 22.92,-235.27 22.92,-235.27 19.46,-235.27 16,-231.81 16,-228.36 16,-228.36 16,-221.44 16,-221.44 16,-217.98 19.46,-214.52 22.92,-214.52 22.92,-214.52 63.08,-214.52 63.08,-214.52 66.54,-214.52 70,-217.98 70,-221.44 70,-221.44 70,-228.36 70,-228.36 70,-231.81 66.54,-235.27 63.08,-235.27"/>
<text text-anchor="middle" x="43" y="-221.77" font-family="Menlo" font-size="10.00">G0</text>
</g>
<!-- G0&#45;&gt;H0 -->
<g id="edge16" class="edge">
<title>G0&#45;&gt;H0</title>
<path fill="none" stroke="black" d="M43,-214.28C43,-203.43 43,-185.46 43,-171.32"/>
<polygon fill="black" stroke="black" points="46.5,-171.67 43,-161.67 39.5,-171.67 46.5,-171.67"/>
</g>
<!-- F1 -->
<g id="node11" class="node">
<title>F1</title>
<path fill="none" stroke="black" d="M207.08,-159.67C207.08,-159.67 166.92,-159.67 166.92,-159.67 163.46,-159.67 160,-156.22 160,-152.76 160,-152.76 160,-145.84 160,-145.84 160,-142.38 163.46,-138.92 166.92,-138.92 166.92,-138.92 207.08,-138.92 207.08,-138.92 210.54,-138.92 214,-142.38 214,-145.84 214,-145.84 214,-152.76 214,-152.76 214,-156.22 210.54,-159.67 207.08,-159.67"/>
<text text-anchor="middle" x="187" y="-146.17" font-family="Menlo" font-size="10.00">F1</text>
</g>
<!-- F1&#45;&gt;I0 -->
<g id="edge17" class="edge">
<title>F1&#45;&gt;I0</title>
<path fill="none" stroke="black" d="M192.93,-138.55C202.22,-128.56 219.52,-112.84 234.22,-100.86"/>
<polygon fill="black" stroke="black" points="236.07,-103.85 241.75,-94.9 231.73,-98.36 236.07,-103.85"/>
</g>
<!-- F1&#45;&gt;I0 -->
<g id="edge19" class="edge">
<title>F1&#45;&gt;I0</title>
<path fill="none" stroke="black" d="M202.94,-138.55C215.7,-128.85 233.03,-113.73 245.19,-101.88"/>
<polygon fill="black" stroke="black" points="247.4,-104.62 251.93,-95.04 242.42,-99.71 247.4,-104.62"/>
</g>
<!-- F1&#45;&gt;E0 -->
<g id="edge18" class="edge">
<title>F1&#45;&gt;E0</title>
<path fill="none" stroke="black" d="M198.07,-138.66C204.9,-133.07 214.05,-126.24 223,-121.5 245.15,-109.78 271.73,-100.53 292.98,-94.16"/>
<polygon fill="black" stroke="black" points="293.78,-97.57 302.41,-91.43 291.83,-90.85 293.78,-97.57"/>
</g>
<!-- F0 -->
<g id="node12" class="node">
<title>F0</title>
<path fill="none" stroke="black" d="M495.08,-93.5C495.08,-93.5 454.92,-93.5 454.92,-93.5 451.46,-93.5 448,-90.04 448,-86.58 448,-86.58 448,-79.67 448,-79.67 448,-76.21 451.46,-72.75 454.92,-72.75 454.92,-72.75 495.08,-72.75 495.08,-72.75 498.54,-72.75 502,-76.21 502,-79.67 502,-79.67 502,-86.58 502,-86.58 502,-90.04 498.54,-93.5 495.08,-93.5"/>
<text text-anchor="middle" x="475" y="-80" font-family="Menlo" font-size="10.00">F0</text>
</g>
<!-- F0&#45;&gt;A0 -->
<g id="edge20" class="edge">
<title>F0&#45;&gt;A0</title>
<path fill="none" stroke="black" d="M462.13,-72.34C451.79,-64.47 437.03,-53.25 424.85,-43.99"/>
<polygon fill="black" stroke="black" points="427.04,-41.26 416.97,-37.99 422.81,-46.83 427.04,-41.26"/>
</g>
<!-- E1 -->
<g id="node13" class="node">
<title>E1</title>
<path fill="none" stroke="black" d="M135.08,-159.67C135.08,-159.67 94.92,-159.67 94.92,-159.67 91.46,-159.67 88,-156.22 88,-152.76 88,-152.76 88,-145.84 88,-145.84 88,-142.38 91.46,-138.92 94.92,-138.92 94.92,-138.92 135.08,-138.92 135.08,-138.92 138.54,-138.92 142,-142.38 142,-145.84 142,-145.84 142,-152.76 142,-152.76 142,-156.22 138.54,-159.67 135.08,-159.67"/>
<text text-anchor="middle" x="115" y="-146.17" font-family="Menlo" font-size="10.00">E1</text>
</g>
<!-- E1&#45;&gt;I0 -->
<g id="edge21" class="edge">
<title>E1&#45;&gt;I0</title>
<path fill="none" stroke="black" d="M118.25,-138.66C123.9,-133.07 133.05,-126.24 142,-121.5 166.72,-108.43 196.95,-98.42 220.64,-92.06"/>
<polygon fill="black" stroke="black" points="221.4,-95.48 230.22,-89.62 219.67,-88.7 221.4,-95.48"/>
</g>
<!-- E1&#45;&gt;I0 -->
<g id="edge23" class="edge">
<title>E1&#45;&gt;I0</title>
<path fill="none" stroke="black" d="M133.89,-138.66C141.9,-133.07 151.05,-126.24 160,-121.5 179.26,-111.31 201.87,-102.99 220.71,-96.8"/>
<polygon fill="black" stroke="black" points="221.69,-100.16 230.15,-93.78 219.56,-93.49 221.69,-100.16"/>
</g>
<!-- E1&#45;&gt;E0 -->
<g id="edge22" class="edge">
<title>E1&#45;&gt;E0</title>
<path fill="none" stroke="black" d="M125.53,-138.45C132.31,-132.65 141.59,-125.66 151,-121.5 207.49,-96.54 229.12,-106.7 292.53,-93.84"/>
<polygon fill="black" stroke="black" points="293.01,-97.32 302.05,-91.79 291.53,-90.48 293.01,-97.32"/>
</g>
<!-- D1 -->
<g id="node14" class="node">
<title>D1</title>
<path fill="none" stroke="black" d="M135.08,-235.27C135.08,-235.27 94.92,-235.27 94.92,-235.27 91.46,-235.27 88,-231.81 88,-228.36 88,-228.36 88,-221.44 88,-221.44 88,-217.98 91.46,-214.52 94.92,-214.52 94.92,-214.52 135.08,-214.52 135.08,-214.52 138.54,-214.52 142,-217.98 142,-221.44 142,-221.44 142,-228.36 142,-228.36 142,-231.81 138.54,-235.27 135.08,-235.27"/>
<text text-anchor="middle" x="115" y="-221.77" font-family="Menlo" font-size="10.00">D1</text>
</g>
<!-- D1&#45;&gt;E1 -->
<g id="edge25" class="edge">
<title>D1&#45;&gt;E1</title>
<path fill="none" stroke="black" d="M105.54,-214.28C101.4,-203.43 100.44,-185.46 102.67,-171.32"/>
<polygon fill="black" stroke="black" points="106.06,-172.18 105.08,-161.63 99.27,-170.49 106.06,-172.18"/>
</g>
<!-- D1&#45;&gt;E1 -->
<g id="edge26" class="edge">
<title>D1&#45;&gt;E1</title>
<path fill="none" stroke="black" d="M115,-214.28C115,-203.43 115,-185.46 115,-171.32"/>
<polygon fill="black" stroke="black" points="118.5,-171.67 115,-161.67 111.5,-171.67 118.5,-171.67"/>
</g>
<!-- D1&#45;&gt;E1 -->
<g id="edge27" class="edge">
<title>D1&#45;&gt;E1</title>
<path fill="none" stroke="black" d="M124.46,-214.28C128.6,-203.43 129.56,-185.46 127.33,-171.32"/>
<polygon fill="black" stroke="black" points="130.73,-170.49 124.92,-161.63 123.94,-172.18 130.73,-170.49"/>
</g>
<!-- D0 -->
<g id="node15" class="node">
<title>D0</title>
<path fill="none" stroke="black" d="M567.08,-159.67C567.08,-159.67 526.92,-159.67 526.92,-159.67 523.46,-159.67 520,-156.22 520,-152.76 520,-152.76 520,-145.84 520,-145.84 520,-142.38 523.46,-138.92 526.92,-138.92 526.92,-138.92 567.08,-138.92 567.08,-138.92 570.54,-138.92 574,-142.38 574,-145.84 574,-145.84 574,-152.76 574,-152.76 574,-156.22 570.54,-159.67 567.08,-159.67"/>
<text text-anchor="middle" x="547" y="-146.17" font-family="Menlo" font-size="10.00">D0</text>
</g>
<!-- D0&#45;&gt;E0 -->
<g id="edge28" class="edge">
<title>D0&#45;&gt;E0</title>
<path fill="none" stroke="black" d="M536.47,-138.45C529.69,-132.65 520.41,-125.66 511,-121.5 454.51,-96.54 432.88,-106.7 369.47,-93.84"/>
<polygon fill="black" stroke="black" points="370.47,-90.48 359.95,-91.79 368.99,-97.32 370.47,-90.48"/>
</g>
<!-- C1 -->
<g id="node16" class="node">
<title>C1</title>
<path fill="none" stroke="black" d="M135.08,-310.87C135.08,-310.87 94.92,-310.87 94.92,-310.87 91.46,-310.87 88,-307.41 88,-303.95 88,-303.95 88,-297.04 88,-297.04 88,-293.58 91.46,-290.12 94.92,-290.12 94.92,-290.12 135.08,-290.12 135.08,-290.12 138.54,-290.12 142,-293.58 142,-297.04 142,-297.04 142,-303.95 142,-303.95 142,-307.41 138.54,-310.87 135.08,-310.87"/>
<text text-anchor="middle" x="115" y="-297.37" font-family="Menlo" font-size="10.00">C1</text>
</g>
<!-- C1&#45;&gt;D1 -->
<g id="edge29" class="edge">
<title>C1&#45;&gt;D1</title>
<path fill="none" stroke="black" d="M105.54,-289.87C101.4,-279.02 100.44,-261.05 102.67,-246.92"/>
<polygon fill="black" stroke="black" points="106.06,-247.77 105.08,-237.22 99.27,-246.08 106.06,-247.77"/>
</g>
<!-- C1&#45;&gt;D1 -->
<g id="edge30" class="edge">
<title>C1&#45;&gt;D1</title>
<path fill="none" stroke="black" d="M115,-289.87C115,-279.02 115,-261.05 115,-246.92"/>
<polygon fill="black" stroke="black" points="118.5,-247.27 115,-237.27 111.5,-247.27 118.5,-247.27"/>
</g>
<!-- C1&#45;&gt;D1 -->
<g id="edge31" class="edge">
<title>C1&#45;&gt;D1</title>
<path fill="none" stroke="black" d="M124.46,-289.87C128.6,-279.02 129.56,-261.05 127.33,-246.92"/>
<polygon fill="black" stroke="black" points="130.73,-246.08 124.92,-237.22 123.94,-247.77 130.73,-246.08"/>
</g>
<!-- C0 -->
<g id="node17" class="node">
<title>C0</title>
<path fill="none" stroke="black" d="M567.08,-235.27C567.08,-235.27 526.92,-235.27 526.92,-235.27 523.46,-235.27 520,-231.81 520,-228.36 520,-228.36 520,-221.44 520,-221.44 520,-217.98 523.46,-214.52 526.92,-214.52 526.92,-214.52 567.08,-214.52 567.08,-214.52 570.54,-214.52 574,-217.98 574,-221.44 574,-221.44 574,-228.36 574,-228.36 574,-231.81 570.54,-235.27 567.08,-235.27"/>
<text text-anchor="middle" x="547" y="-221.77" font-family="Menlo" font-size="10.00">C0</text>
</g>
<!-- C0&#45;&gt;D0 -->
<g id="edge32" class="edge">
<title>C0&#45;&gt;D0</title>
<path fill="none" stroke="black" d="M547,-214.28C547,-203.43 547,-185.46 547,-171.32"/>
<polygon fill="black" stroke="black" points="550.5,-171.67 547,-161.67 543.5,-171.67 550.5,-171.67"/>
</g>
<!-- B1 -->
<g id="node18" class="node">
<title>B1</title>
<path fill="none" stroke="black" d="M423.08,-159.67C423.08,-159.67 382.92,-159.67 382.92,-159.67 379.46,-159.67 376,-156.22 376,-152.76 376,-152.76 376,-145.84 376,-145.84 376,-142.38 379.46,-138.92 382.92,-138.92 382.92,-138.92 423.08,-138.92 423.08,-138.92 426.54,-138.92 430,-142.38 430,-145.84 430,-145.84 430,-152.76 430,-152.76 430,-156.22 426.54,-159.67 423.08,-159.67"/>
<text text-anchor="middle" x="403" y="-146.17" font-family="Menlo" font-size="10.00">B1</text>
</g>
<!-- B1&#45;&gt;I0 -->
<g id="edge33" class="edge">
<title>B1&#45;&gt;I0</title>
<path fill="none" stroke="black" d="M384.11,-138.66C376.1,-133.07 366.95,-126.24 358,-121.5 338.74,-111.31 316.13,-102.99 297.29,-96.8"/>
<polygon fill="black" stroke="black" points="298.44,-93.49 287.85,-93.78 296.31,-100.16 298.44,-93.49"/>
</g>
<!-- B1&#45;&gt;I0 -->
<g id="edge35" class="edge">
<title>B1&#45;&gt;I0</title>
<path fill="none" stroke="black" d="M399.75,-138.66C394.1,-133.07 384.95,-126.24 376,-121.5 351.28,-108.43 321.05,-98.42 297.36,-92.06"/>
<polygon fill="black" stroke="black" points="298.33,-88.7 287.78,-89.62 296.6,-95.48 298.33,-88.7"/>
</g>
<!-- B1&#45;&gt;E0 -->
<g id="edge34" class="edge">
<title>B1&#45;&gt;E0</title>
<path fill="none" stroke="black" d="M392.06,-138.55C381.07,-128.75 363.88,-113.43 350.54,-101.54"/>
<polygon fill="black" stroke="black" points="352.96,-99.01 343.17,-94.97 348.3,-104.24 352.96,-99.01"/>
</g>
<!-- B0 -->
<g id="node19" class="node">
<title>B0</title>
<path fill="none" stroke="black" d="M423.08,-93.5C423.08,-93.5 382.92,-93.5 382.92,-93.5 379.46,-93.5 376,-90.04 376,-86.58 376,-86.58 376,-79.67 376,-79.67 376,-76.21 379.46,-72.75 382.92,-72.75 382.92,-72.75 423.08,-72.75 423.08,-72.75 426.54,-72.75 430,-76.21 430,-79.67 430,-79.67 430,-86.58 430,-86.58 430,-90.04 426.54,-93.5 423.08,-93.5"/>
<text text-anchor="middle" x="403" y="-80" font-family="Menlo" font-size="10.00">B0</text>
</g>
<!-- B0&#45;&gt;A0 -->
<g id="edge36" class="edge">
<title>B0&#45;&gt;A0</title>
<path fill="none" stroke="black" d="M403,-72.34C403,-65.72 403,-56.72 403,-48.52"/>
<polygon fill="black" stroke="black" points="406.5,-48.59 403,-38.59 399.5,-48.59 406.5,-48.59"/>
</g>
<!-- A1 -->
<g id="node20" class="node">
<title>A1</title>
<path fill="none" stroke="black" d="M495.08,-159.67C495.08,-159.67 454.92,-159.67 454.92,-159.67 451.46,-159.67 448,-156.22 448,-152.76 448,-152.76 448,-145.84 448,-145.84 448,-142.38 451.46,-138.92 454.92,-138.92 454.92,-138.92 495.08,-138.92 495.08,-138.92 498.54,-138.92 502,-142.38 502,-145.84 502,-145.84 502,-152.76 502,-152.76 502,-156.22 498.54,-159.67 495.08,-159.67"/>
<text text-anchor="middle" x="475" y="-146.17" font-family="Menlo" font-size="10.00">A1</text>
</g>
<!-- A1&#45;&gt;I0 -->
<g id="edge37" class="edge">
<title>A1&#45;&gt;I0</title>
<path fill="none" stroke="black" d="M464.47,-138.45C457.69,-132.65 448.41,-125.66 439,-121.5 382.51,-96.54 360.88,-106.7 297.47,-93.84"/>
<polygon fill="black" stroke="black" points="298.47,-90.48 287.95,-91.79 296.99,-97.32 298.47,-90.48"/>
</g>
<!-- A1&#45;&gt;E0 -->
<g id="edge38" class="edge">
<title>A1&#45;&gt;E0</title>
<path fill="none" stroke="black" d="M463.93,-138.66C457.1,-133.07 447.95,-126.24 439,-121.5 416.85,-109.78 390.27,-100.53 369.02,-94.16"/>
<polygon fill="black" stroke="black" points="370.17,-90.85 359.59,-91.43 368.22,-97.57 370.17,-90.85"/>
</g>
<!-- A -->
<g id="node21" class="node">
<title>A</title>
<ellipse fill="none" stroke="black" cx="917" cy="-300.49" rx="36.77" ry="14.67"/>
<text text-anchor="start" x="899" y="-297.37" font-family="Menlo" font-size="10.00">A: ALT</text>
</g>
<!-- B -->
<g id="node22" class="node">
<title>B</title>
<ellipse fill="none" stroke="black" cx="774" cy="-224.9" rx="36.77" ry="14.67"/>
<text text-anchor="start" x="756" y="-221.77" font-family="Menlo" font-size="10.00">B: SEQ</text>
</g>
<!-- A&#45;&gt;B -->
<g id="edge39" class="edge">
<title>A&#45;&gt;B</title>
<path fill="none" stroke="black" d="M895.28,-288.32C871.42,-276.03 832.86,-256.19 805.64,-242.18"/>
<polygon fill="black" stroke="black" points="807.29,-239.1 796.8,-237.63 804.09,-245.32 807.29,-239.1"/>
</g>
<!-- F -->
<g id="node26" class="node">
<title>F</title>
<ellipse fill="none" stroke="black" cx="917" cy="-224.9" rx="36.77" ry="14.67"/>
<text text-anchor="start" x="899" y="-221.77" font-family="Menlo" font-size="10.00">F: SEQ</text>
</g>
<!-- A&#45;&gt;F -->
<g id="edge43" class="edge">
<title>A&#45;&gt;F</title>
<path fill="none" stroke="black" d="M917,-285.65C917,-275.95 917,-262.7 917,-251.14"/>
<polygon fill="black" stroke="black" points="920.5,-251.44 917,-241.44 913.5,-251.44 920.5,-251.44"/>
</g>
<!-- J -->
<g id="node30" class="node">
<title>J</title>
<ellipse fill="none" stroke="black" cx="1016" cy="-224.9" rx="44.19" ry="19.8"/>
<text text-anchor="start" x="998" y="-226.4" font-family="Menlo" font-size="10.00">J: &quot;a&quot;</text>
<text text-anchor="start" x="992.75" y="-216.4" font-family="Menlo" font-size="8.00" fill="gray"> 0:1 1:2 </text>
<text text-anchor="start" x="1033.25" y="-216.4" font-family="Menlo" font-size="10.00"> </text>
</g>
<!-- A&#45;&gt;J -->
<g id="edge47" class="edge">
<title>A&#45;&gt;J</title>
<path fill="none" stroke="black" d="M933.79,-287.01C947.76,-276.63 968.01,-261.58 984.91,-249.01"/>
<polygon fill="black" stroke="black" points="986.75,-252 992.69,-243.23 982.57,-246.39 986.75,-252"/>
</g>
<!-- C -->
<g id="node23" class="node">
<title>C</title>
<ellipse fill="none" stroke="black" cx="642" cy="-149.3" rx="44.19" ry="19.8"/>
<text text-anchor="start" x="624" y="-150.8" font-family="Menlo" font-size="10.00">C: &quot;a&quot;</text>
<text text-anchor="start" x="618.75" y="-140.8" font-family="Menlo" font-size="8.00" fill="gray"> 0:1 1:2 </text>
<text text-anchor="start" x="659.25" y="-140.8" font-family="Menlo" font-size="10.00"> </text>
</g>
<!-- B&#45;&gt;C -->
<g id="edge40" class="edge">
<title>B&#45;&gt;C</title>
<path fill="none" stroke="black" d="M753.38,-212.4C733.45,-201.29 702.84,-184.22 678.75,-170.79"/>
<polygon fill="black" stroke="black" points="680.63,-167.83 670.19,-166.02 677.22,-173.95 680.63,-167.83"/>
</g>
<!-- D -->
<g id="node24" class="node">
<title>D</title>
<ellipse fill="none" stroke="black" cx="732" cy="-149.3" rx="28.28" ry="14.67"/>
<text text-anchor="start" x="720" y="-146.17" font-family="Menlo" font-size="10.00">D: S</text>
</g>
<!-- B&#45;&gt;D -->
<g id="edge41" class="edge">
<title>B&#45;&gt;D</title>
<path fill="none" stroke="black" d="M766.3,-210.4C760.44,-200.13 752.23,-185.74 745.31,-173.62"/>
<polygon fill="black" stroke="black" points="748.4,-171.98 740.4,-165.03 742.32,-175.45 748.4,-171.98"/>
</g>
<!-- E -->
<g id="node25" class="node">
<title>E</title>
<ellipse fill="none" stroke="black" cx="815" cy="-149.3" rx="36.77" ry="19.8"/>
<text text-anchor="start" x="797" y="-150.8" font-family="Menlo" font-size="10.00">E: &quot;b&quot;</text>
<text text-anchor="start" x="807.5" y="-140.8" font-family="Menlo" font-size="8.00" fill="gray"> &#160;</text>
<text text-anchor="start" x="816.5" y="-140.8" font-family="Menlo" font-size="10.00"> </text>
</g>
<!-- B&#45;&gt;E -->
<g id="edge42" class="edge">
<title>B&#45;&gt;E</title>
<path fill="none" stroke="black" d="M781.71,-210.05C786.63,-201.22 793.19,-189.44 799.19,-178.68"/>
<polygon fill="black" stroke="black" points="802.14,-180.57 803.95,-170.13 796.03,-177.16 802.14,-180.57"/>
</g>
<!-- D&#45;&gt;A -->
<g id="edge48" class="edge">
<title>D&#45;&gt;A</title>
<path fill="none" stroke="black" stroke-dasharray="1,5" d="M749.91,-160.99C755.81,-164.07 762.52,-167.13 769,-169.1 833.25,-188.6 1024.44,-154.87 1069,-205.1 1080.68,-218.26 1079.12,-230.3 1069,-244.7 1045.57,-278.04 999.79,-291.19 964.56,-296.32"/>
<polygon fill="black" stroke="black" points="964.52,-292.8 955.04,-297.53 965.4,-299.74 964.52,-292.8"/>
</g>
<!-- G -->
<g id="node27" class="node">
<title>G</title>
<ellipse fill="none" stroke="black" cx="914" cy="-149.3" rx="44.19" ry="19.8"/>
<text text-anchor="start" x="896" y="-150.8" font-family="Menlo" font-size="10.00">G: &quot;a&quot;</text>
<text text-anchor="start" x="890.75" y="-140.8" font-family="Menlo" font-size="8.00" fill="gray"> 1:2 0:1 </text>
<text text-anchor="start" x="931.25" y="-140.8" font-family="Menlo" font-size="10.00"> </text>
</g>
<!-- F&#45;&gt;G -->
<g id="edge44" class="edge">
<title>F&#45;&gt;G</title>
<path fill="none" stroke="black" d="M916.44,-210.05C916.1,-201.79 915.66,-190.96 915.24,-180.8"/>
<polygon fill="black" stroke="black" points="918.74,-180.72 914.84,-170.87 911.75,-181 918.74,-180.72"/>
</g>
<!-- H -->
<g id="node28" class="node">
<title>H</title>
<ellipse fill="none" stroke="black" cx="1004" cy="-149.3" rx="28.28" ry="14.67"/>
<text text-anchor="start" x="992" y="-146.17" font-family="Menlo" font-size="10.00">H: S</text>
</g>
<!-- F&#45;&gt;H -->
<g id="edge45" class="edge">
<title>F&#45;&gt;H</title>
<path fill="none" stroke="black" d="M932.15,-211.08C945.75,-199.58 965.88,-182.55 981.38,-169.44"/>
<polygon fill="black" stroke="black" points="983.35,-172.35 988.73,-163.22 978.83,-167.01 983.35,-172.35"/>
</g>
<!-- I -->
<g id="node29" class="node">
<title>I</title>
<ellipse fill="none" stroke="black" cx="1087" cy="-149.3" rx="36.77" ry="19.8"/>
<text text-anchor="start" x="1069" y="-150.8" font-family="Menlo" font-size="10.00">I: &quot;d&quot;</text>
<text text-anchor="start" x="1072.75" y="-140.8" font-family="Menlo" font-size="8.00" fill="gray"> 2:3 </text>
<text text-anchor="start" x="1095.25" y="-140.8" font-family="Menlo" font-size="10.00"> </text>
</g>
<!-- F&#45;&gt;I -->
<g id="edge46" class="edge">
<title>F&#45;&gt;I</title>
<path fill="none" stroke="black" d="M941,-213.51C968.99,-201.39 1015.65,-181.19 1048.68,-166.89"/>
<polygon fill="black" stroke="black" points="1049.71,-170.26 1057.5,-163.07 1046.93,-163.83 1049.71,-170.26"/>
</g>
<!-- H&#45;&gt;A -->
<g id="edge49" class="edge">
<title>H&#45;&gt;A</title>
<path fill="none" stroke="black" stroke-dasharray="1,5" d="M1023.49,-160.44C1049.52,-174.19 1092.86,-197.86 1097,-205.1 1105.73,-220.38 1107.48,-230.55 1097,-244.7 1067.05,-285.12 1007.98,-296.74 965.68,-299.58"/>
<polygon fill="black" stroke="black" points="965.55,-296.08 955.74,-300.09 965.9,-303.07 965.55,-296.08"/>
</g>
<!-- K -->
<g id="node31" class="node">
<title>K</title>
<ellipse fill="none" stroke="black" cx="1223" cy="-300.49" rx="74.95" ry="19.8"/>
<text text-anchor="start" x="1178" y="-301.99" font-family="Menlo" font-size="10.00">K: &quot;whitespace&quot;</text>
<text text-anchor="start" x="1215.5" y="-291.99" font-family="Menlo" font-size="8.00" fill="gray"> &#160;</text>
<text text-anchor="start" x="1224.5" y="-291.99" font-family="Menlo" font-size="10.00"> </text>
</g>
</g>
</svg>
