<?xml version="1.0" encoding="UTF-8" standalone="no"?>
<!DOCTYPE svg PUBLIC "-//W3C//DTD SVG 1.1//EN"
 "http://www.w3.org/Graphics/SVG/1.1/DTD/svg11.dtd">
<!-- Generated by graphviz version 9.0.0 (20230911.1827)
 -->
<!-- Title: G Pages: 1 -->
<svg width="898pt" height="317pt"
 viewBox="0.00 0.00 898.00 316.89" xmlns="http://www.w3.org/2000/svg" xmlns:xlink="http://www.w3.org/1999/xlink">
<g id="graph0" class="graph" transform="scale(1 1) rotate(0) translate(4 312.89)">
<title>G</title>
<polygon fill="white" stroke="none" points="-4,4 -4,-312.89 894,-312.89 894,4 -4,4"/>
<g id="clust3" class="cluster">
<title>whitespace</title>
<polygon fill="none" stroke="black" points="716,-224.54 716,-300.89 882,-300.89 882,-224.54 716,-224.54"/>
<text text-anchor="start" x="724" y="-287.39" font-family="Menlo" font-size="10.00">whitespace = &quot;\s+&quot;</text>
</g>
<g id="clust1" class="cluster">
<title>GSS</title>
<polygon fill="none" stroke="black" points="8,-158.37 8,-291.46 150,-291.46 150,-158.37 8,-158.37"/>
<text text-anchor="start" x="16" y="-277.96" font-family="Menlo" font-size="10.00" fill="red">LL1 abcd↵</text>
</g>
<g id="clust2" class="cluster">
<title>S</title>
<polygon fill="none" stroke="black" points="158,-8 158,-295.76 708,-295.76 708,-8 158,-8"/>
<text text-anchor="start" x="166" y="-282.26" font-family="Menlo" font-size="10.00">S = ( &quot;a&quot; &quot;b&quot; &quot;c&quot; | &quot;a&quot; &quot;b&quot; &quot;c&quot; ) &quot;d&quot;</text>
</g>
<!-- G0 -->
<g id="node1" class="node">
<title>G0</title>
<path fill="none" stroke="black" d="M135.08,-262.71C135.08,-262.71 94.92,-262.71 94.92,-262.71 91.46,-262.71 88,-259.26 88,-255.8 88,-255.8 88,-248.88 88,-248.88 88,-245.42 91.46,-241.96 94.92,-241.96 94.92,-241.96 135.08,-241.96 135.08,-241.96 138.54,-241.96 142,-245.42 142,-248.88 142,-248.88 142,-255.8 142,-255.8 142,-259.26 138.54,-262.71 135.08,-262.71"/>
<text text-anchor="middle" x="115" y="-249.21" font-family="Menlo" font-size="10.00">G0</text>
</g>
<!-- A0 -->
<g id="node2" class="node">
<title>A0</title>
<path fill="none" stroke="black" d="M99.08,-187.12C99.08,-187.12 58.92,-187.12 58.92,-187.12 55.46,-187.12 52,-183.66 52,-180.2 52,-180.2 52,-173.28 52,-173.28 52,-169.83 55.46,-166.37 58.92,-166.37 58.92,-166.37 99.08,-166.37 99.08,-166.37 102.54,-166.37 106,-169.83 106,-173.28 106,-173.28 106,-180.2 106,-180.2 106,-183.66 102.54,-187.12 99.08,-187.12"/>
<text text-anchor="middle" x="79" y="-173.62" font-family="Menlo" font-size="10.00">A0</text>
</g>
<!-- G0&#45;&gt;A0 -->
<g id="edge1" class="edge">
<title>G0&#45;&gt;A0</title>
<path fill="none" stroke="black" d="M110.29,-241.72C104.88,-230.65 95.84,-212.17 88.87,-197.91"/>
<polygon fill="black" stroke="black" points="92.03,-196.41 84.49,-188.96 85.74,-199.48 92.03,-196.41"/>
</g>
<!-- C0 -->
<g id="node3" class="node">
<title>C0</title>
<path fill="none" stroke="black" d="M63.08,-262.71C63.08,-262.71 22.92,-262.71 22.92,-262.71 19.46,-262.71 16,-259.26 16,-255.8 16,-255.8 16,-248.88 16,-248.88 16,-245.42 19.46,-241.96 22.92,-241.96 22.92,-241.96 63.08,-241.96 63.08,-241.96 66.54,-241.96 70,-245.42 70,-248.88 70,-248.88 70,-255.8 70,-255.8 70,-259.26 66.54,-262.71 63.08,-262.71"/>
<text text-anchor="middle" x="43" y="-249.21" font-family="Menlo" font-size="10.00">C0</text>
</g>
<!-- C0&#45;&gt;A0 -->
<g id="edge2" class="edge">
<title>C0&#45;&gt;A0</title>
<path fill="none" stroke="black" d="M47.71,-241.72C53.12,-230.65 62.16,-212.17 69.13,-197.91"/>
<polygon fill="black" stroke="black" points="72.26,-199.48 73.51,-188.96 65.97,-196.41 72.26,-199.48"/>
</g>
<!-- A -->
<g id="node4" class="node">
<title>A</title>
<ellipse fill="none" stroke="black" cx="479" cy="-252.34" rx="36.77" ry="14.67"/>
<text text-anchor="start" x="461" y="-249.21" font-family="Menlo" font-size="10.00">A: SEQ</text>
</g>
<!-- B -->
<g id="node5" class="node">
<title>B</title>
<ellipse fill="none" stroke="black" cx="433" cy="-176.74" rx="36.77" ry="14.67"/>
<text text-anchor="start" x="415" y="-173.62" font-family="Menlo" font-size="10.00">B: ALT</text>
</g>
<!-- A&#45;&gt;B -->
<g id="edge3" class="edge">
<title>A&#45;&gt;B</title>
<path fill="none" stroke="black" d="M470.56,-237.84C464.12,-227.53 455.08,-213.08 447.49,-200.93"/>
<polygon fill="black" stroke="black" points="450.61,-199.31 442.34,-192.69 444.67,-203.02 450.61,-199.31"/>
</g>
<!-- K -->
<g id="node14" class="node">
<title>K</title>
<ellipse fill="none" stroke="black" cx="525" cy="-176.74" rx="36.77" ry="19.8"/>
<text text-anchor="start" x="507" y="-178.24" font-family="Menlo" font-size="10.00">K: &quot;d&quot;</text>
<text text-anchor="start" x="517.5" y="-168.24" font-family="Menlo" font-size="8.00" fill="gray"> &#160;</text>
<text text-anchor="start" x="526.5" y="-168.24" font-family="Menlo" font-size="10.00"> </text>
</g>
<!-- A&#45;&gt;K -->
<g id="edge12" class="edge">
<title>A&#45;&gt;K</title>
<path fill="none" stroke="black" d="M487.44,-237.84C493.08,-228.82 500.7,-216.62 507.61,-205.57"/>
<polygon fill="black" stroke="black" points="510.54,-207.49 512.87,-197.15 504.6,-203.78 510.54,-207.49"/>
</g>
<!-- C -->
<g id="node6" class="node">
<title>C</title>
<ellipse fill="none" stroke="black" cx="341" cy="-106.27" rx="36.77" ry="14.67"/>
<text text-anchor="start" x="323" y="-103.15" font-family="Menlo" font-size="10.00">C: SEQ</text>
</g>
<!-- B&#45;&gt;C -->
<g id="edge4" class="edge">
<title>B&#45;&gt;C</title>
<path fill="none" stroke="black" d="M416.55,-163.5C402.64,-153.15 382.47,-138.14 366.48,-126.23"/>
<polygon fill="black" stroke="black" points="368.94,-123.7 358.83,-120.54 364.76,-129.32 368.94,-123.7"/>
</g>
<!-- G -->
<g id="node10" class="node">
<title>G</title>
<ellipse fill="none" stroke="black" cx="525" cy="-106.27" rx="36.77" ry="14.67"/>
<text text-anchor="start" x="507" y="-103.15" font-family="Menlo" font-size="10.00">G: SEQ</text>
</g>
<!-- B&#45;&gt;G -->
<g id="edge8" class="edge">
<title>B&#45;&gt;G</title>
<path fill="none" stroke="black" d="M449.45,-163.5C463.36,-153.15 483.53,-138.14 499.52,-126.23"/>
<polygon fill="black" stroke="black" points="501.24,-129.32 507.17,-120.54 497.06,-123.7 501.24,-129.32"/>
</g>
<!-- D -->
<g id="node7" class="node">
<title>D</title>
<ellipse fill="none" stroke="black" cx="203" cy="-35.8" rx="36.77" ry="19.8"/>
<text text-anchor="start" x="185" y="-37.3" font-family="Menlo" font-size="10.00">D: &quot;a&quot;</text>
<text text-anchor="start" x="188.75" y="-27.3" font-family="Menlo" font-size="8.00" fill="gray"> 0:1 </text>
<text text-anchor="start" x="211.25" y="-27.3" font-family="Menlo" font-size="10.00"> </text>
</g>
<!-- C&#45;&gt;D -->
<g id="edge5" class="edge">
<title>C&#45;&gt;D</title>
<path fill="none" stroke="black" d="M318.83,-94.27C297.49,-83.68 264.85,-67.49 239.65,-54.99"/>
<polygon fill="black" stroke="black" points="241.23,-51.86 230.72,-50.55 238.12,-58.13 241.23,-51.86"/>
</g>
<!-- E -->
<g id="node8" class="node">
<title>E</title>
<ellipse fill="none" stroke="black" cx="295" cy="-35.8" rx="36.77" ry="19.8"/>
<text text-anchor="start" x="277" y="-37.3" font-family="Menlo" font-size="10.00">E: &quot;b&quot;</text>
<text text-anchor="start" x="280.75" y="-27.3" font-family="Menlo" font-size="8.00" fill="gray"> 1:2 </text>
<text text-anchor="start" x="303.25" y="-27.3" font-family="Menlo" font-size="10.00"> </text>
</g>
<!-- C&#45;&gt;E -->
<g id="edge6" class="edge">
<title>C&#45;&gt;E</title>
<path fill="none" stroke="black" d="M331.91,-91.74C326.67,-83.93 319.87,-73.82 313.54,-64.4"/>
<polygon fill="black" stroke="black" points="316.53,-62.57 308.05,-56.22 310.72,-66.48 316.53,-62.57"/>
</g>
<!-- F -->
<g id="node9" class="node">
<title>F</title>
<ellipse fill="none" stroke="black" cx="387" cy="-35.8" rx="36.77" ry="19.8"/>
<text text-anchor="start" x="369" y="-37.3" font-family="Menlo" font-size="10.00">F: &quot;c&quot;</text>
<text text-anchor="start" x="372.75" y="-27.3" font-family="Menlo" font-size="8.00" fill="gray"> 2:3 </text>
<text text-anchor="start" x="395.25" y="-27.3" font-family="Menlo" font-size="10.00"> </text>
</g>
<!-- C&#45;&gt;F -->
<g id="edge7" class="edge">
<title>C&#45;&gt;F</title>
<path fill="none" stroke="black" d="M350.09,-91.74C355.33,-83.93 362.13,-73.82 368.46,-64.4"/>
<polygon fill="black" stroke="black" points="371.28,-66.48 373.95,-56.22 365.47,-62.57 371.28,-66.48"/>
</g>
<!-- H -->
<g id="node11" class="node">
<title>H</title>
<ellipse fill="none" stroke="black" cx="479" cy="-35.8" rx="36.77" ry="19.8"/>
<text text-anchor="start" x="461" y="-37.3" font-family="Menlo" font-size="10.00">H: &quot;a&quot;</text>
<text text-anchor="start" x="464.75" y="-27.3" font-family="Menlo" font-size="8.00" fill="gray"> 0:1 </text>
<text text-anchor="start" x="487.25" y="-27.3" font-family="Menlo" font-size="10.00"> </text>
</g>
<!-- G&#45;&gt;H -->
<g id="edge9" class="edge">
<title>G&#45;&gt;H</title>
<path fill="none" stroke="black" d="M515.91,-91.74C510.67,-83.93 503.87,-73.82 497.54,-64.4"/>
<polygon fill="black" stroke="black" points="500.53,-62.57 492.05,-56.22 494.72,-66.48 500.53,-62.57"/>
</g>
<!-- I -->
<g id="node12" class="node">
<title>I</title>
<ellipse fill="none" stroke="black" cx="571" cy="-35.8" rx="36.77" ry="19.8"/>
<text text-anchor="start" x="553" y="-37.3" font-family="Menlo" font-size="10.00">I: &quot;b&quot;</text>
<text text-anchor="start" x="556.75" y="-27.3" font-family="Menlo" font-size="8.00" fill="gray"> 1:2 </text>
<text text-anchor="start" x="579.25" y="-27.3" font-family="Menlo" font-size="10.00"> </text>
</g>
<!-- G&#45;&gt;I -->
<g id="edge10" class="edge">
<title>G&#45;&gt;I</title>
<path fill="none" stroke="black" d="M534.09,-91.74C539.33,-83.93 546.13,-73.82 552.46,-64.4"/>
<polygon fill="black" stroke="black" points="555.28,-66.48 557.95,-56.22 549.47,-62.57 555.28,-66.48"/>
</g>
<!-- J -->
<g id="node13" class="node">
<title>J</title>
<ellipse fill="none" stroke="black" cx="663" cy="-35.8" rx="36.77" ry="19.8"/>
<text text-anchor="start" x="645" y="-37.3" font-family="Menlo" font-size="10.00">J: &quot;c&quot;</text>
<text text-anchor="start" x="648.75" y="-27.3" font-family="Menlo" font-size="8.00" fill="gray"> 2:3 </text>
<text text-anchor="start" x="671.25" y="-27.3" font-family="Menlo" font-size="10.00"> </text>
</g>
<!-- G&#45;&gt;J -->
<g id="edge11" class="edge">
<title>G&#45;&gt;J</title>
<path fill="none" stroke="black" d="M547.17,-94.27C568.51,-83.68 601.15,-67.49 626.35,-54.99"/>
<polygon fill="black" stroke="black" points="627.88,-58.13 635.28,-50.55 624.77,-51.86 627.88,-58.13"/>
</g>
<!-- L -->
<g id="node15" class="node">
<title>L</title>
<ellipse fill="none" stroke="black" cx="799" cy="-252.34" rx="74.95" ry="19.8"/>
<text text-anchor="start" x="754" y="-253.84" font-family="Menlo" font-size="10.00">L: &quot;whitespace&quot;</text>
<text text-anchor="start" x="791.5" y="-243.84" font-family="Menlo" font-size="8.00" fill="gray"> &#160;</text>
<text text-anchor="start" x="800.5" y="-243.84" font-family="Menlo" font-size="10.00"> </text>
</g>
</g>
</svg>
