<?xml version="1.0" encoding="UTF-8" standalone="no"?>
<!DOCTYPE svg PUBLIC "-//W3C//DTD SVG 1.1//EN"
 "http://www.w3.org/Graphics/SVG/1.1/DTD/svg11.dtd">
<!-- Generated by graphviz version 9.0.0 (20230911.1827)
 -->
<!-- Title: G Pages: 1 -->
<svg width="284pt" height="300pt"
 viewBox="0.00 0.00 284.00 299.81" xmlns="http://www.w3.org/2000/svg" xmlns:xlink="http://www.w3.org/1999/xlink">
<g id="graph0" class="graph" transform="scale(1 1) rotate(0) translate(4 295.81)">
<title>G</title>
<polygon fill="white" stroke="none" points="-4,4 -4,-295.81 280,-295.81 280,4 -4,4"/>
<g id="clust1" class="cluster">
<title>GSS</title>
<polygon fill="none" stroke="black" points="8,-8 8,-278.42 78,-278.42 78,-8 8,-8"/>
<text text-anchor="start" x="16" y="-264.92" font-family="Menlo" font-size="10.00" fill="red">↵ab↵</text>
</g>
<g id="clust2" class="cluster">
<title>S</title>
<polygon fill="none" stroke="black" points="86,-64.75 86,-283.81 268,-283.81 268,-64.75 86,-64.75"/>
<text text-anchor="start" x="94" y="-270.31" font-family="Menlo" font-size="10.00">S = { &quot;a&quot; } &quot;b&quot;</text>
</g>
<!-- D1 -->
<g id="node1" class="node">
<title>D1</title>
<path fill="none" stroke="gray" d="M61.33,-104.13C61.33,-104.13 24.67,-104.13 24.67,-104.13 20.33,-104.13 16,-99.8 16,-95.47 16,-95.47 16,-86.8 16,-86.8 16,-82.47 20.33,-78.13 24.67,-78.13 24.67,-78.13 61.33,-78.13 61.33,-78.13 65.67,-78.13 70,-82.47 70,-86.8 70,-86.8 70,-95.47 70,-95.47 70,-99.8 65.67,-104.13 61.33,-104.13"/>
<text text-anchor="start" x="37" y="-91.63" font-family="Menlo" font-size="10.00">D1</text>
<text text-anchor="start" x="38.5" y="-83.53" font-family="Menlo" font-size="8.00" fill="gray"> 4</text>
</g>
<!-- A1 -->
<g id="node2" class="node">
<title>A1</title>
<path fill="none" stroke="gray" d="M63.08,-36.75C63.08,-36.75 22.92,-36.75 22.92,-36.75 19.46,-36.75 16,-33.29 16,-29.83 16,-29.83 16,-22.92 16,-22.92 16,-19.46 19.46,-16 22.92,-16 22.92,-16 63.08,-16 63.08,-16 66.54,-16 70,-19.46 70,-22.92 70,-22.92 70,-29.83 70,-29.83 70,-33.29 66.54,-36.75 63.08,-36.75"/>
<text text-anchor="middle" x="43" y="-23.25" font-family="Menlo" font-size="10.00">A1</text>
</g>
<!-- D1&#45;&gt;A1 -->
<g id="edge1" class="edge">
<title>D1&#45;&gt;A1</title>
<path fill="none" stroke="gray" d="M43,-77.74C43,-67.89 43,-54.05 43,-43.37"/>
<polygon fill="gray" stroke="gray" points="44.75,-43.39 43,-38.39 41.25,-43.39 44.75,-43.39"/>
</g>
<!-- C1 -->
<g id="node3" class="node">
<title>C1</title>
<path fill="none" stroke="gray" d="M61.33,-249.67C61.33,-249.67 24.67,-249.67 24.67,-249.67 20.33,-249.67 16,-245.34 16,-241.01 16,-241.01 16,-232.34 16,-232.34 16,-228.01 20.33,-223.67 24.67,-223.67 24.67,-223.67 61.33,-223.67 61.33,-223.67 65.67,-223.67 70,-228.01 70,-232.34 70,-232.34 70,-241.01 70,-241.01 70,-245.34 65.67,-249.67 61.33,-249.67"/>
<text text-anchor="start" x="37" y="-237.17" font-family="Menlo" font-size="10.00">C1</text>
<text text-anchor="start" x="38.5" y="-229.07" font-family="Menlo" font-size="8.00" fill="gray"> 2</text>
</g>
<!-- B1 -->
<g id="node4" class="node">
<title>B1</title>
<path fill="none" stroke="gray" d="M61.33,-176.9C61.33,-176.9 24.67,-176.9 24.67,-176.9 20.33,-176.9 16,-172.57 16,-168.24 16,-168.24 16,-159.57 16,-159.57 16,-155.24 20.33,-150.9 24.67,-150.9 24.67,-150.9 61.33,-150.9 61.33,-150.9 65.67,-150.9 70,-155.24 70,-159.57 70,-159.57 70,-168.24 70,-168.24 70,-172.57 65.67,-176.9 61.33,-176.9"/>
<text text-anchor="start" x="37" y="-164.4" font-family="Menlo" font-size="10.00">B1</text>
<text text-anchor="start" x="38.5" y="-156.3" font-family="Menlo" font-size="8.00" fill="gray"> 2</text>
</g>
<!-- C1&#45;&gt;B1 -->
<g id="edge2" class="edge">
<title>C1&#45;&gt;B1</title>
<path fill="none" stroke="gray" d="M43,-223.35C43,-212.29 43,-195.9 43,-183.29"/>
<polygon fill="gray" stroke="gray" points="44.75,-183.6 43,-178.6 41.25,-183.6 44.75,-183.6"/>
</g>
<!-- B1&#45;&gt;D1 -->
<g id="edge3" class="edge">
<title>B1&#45;&gt;D1</title>
<path fill="none" stroke="gray" d="M43,-150.58C43,-139.52 43,-123.13 43,-110.52"/>
<polygon fill="gray" stroke="gray" points="44.75,-110.83 43,-105.83 41.25,-110.83 44.75,-110.83"/>
</g>
<!-- A -->
<g id="node5" class="node">
<title>A</title>
<ellipse fill="none" stroke="gray" cx="177" cy="-236.67" rx="36.77" ry="18.38"/>
<text text-anchor="start" x="159" y="-237.17" font-family="Menlo" font-size="10.00">A: SEQ</text>
<text text-anchor="start" x="174.75" y="-229.07" font-family="Menlo" font-size="8.00" fill="gray"> </text>
</g>
<!-- B -->
<g id="node6" class="node">
<title>B</title>
<ellipse fill="none" stroke="gray" cx="131" cy="-163.9" rx="36.77" ry="18.38"/>
<text text-anchor="start" x="113" y="-164.4" font-family="Menlo" font-size="10.00">B: REP</text>
<text text-anchor="start" x="128.75" y="-156.3" font-family="Menlo" font-size="8.00" fill="gray"> </text>
</g>
<!-- A&#45;&gt;B -->
<g id="edge4" class="edge">
<title>A&#45;&gt;B</title>
<path fill="none" stroke="gray" d="M166.1,-218.9C159.85,-209.3 151.95,-197.13 145.22,-186.78"/>
<polygon fill="gray" stroke="gray" points="146.84,-186.06 142.65,-182.82 143.91,-187.97 146.84,-186.06"/>
</g>
<!-- D -->
<g id="node8" class="node">
<title>D</title>
<ellipse fill="none" stroke="gray" cx="223" cy="-163.9" rx="36.77" ry="18.38"/>
<text text-anchor="start" x="205" y="-164.4" font-family="Menlo" font-size="10.00">D: &quot;b&quot;</text>
<text text-anchor="start" x="209.5" y="-156.3" font-family="Menlo" font-size="8.00" fill="gray"> 2:2:3</text>
</g>
<!-- A&#45;&gt;D -->
<g id="edge6" class="edge">
<title>A&#45;&gt;D</title>
<path fill="none" stroke="gray" d="M187.9,-218.9C194.15,-209.3 202.05,-197.13 208.78,-186.78"/>
<polygon fill="gray" stroke="gray" points="210.09,-187.97 211.35,-182.82 207.16,-186.06 210.09,-187.97"/>
</g>
<!-- C -->
<g id="node7" class="node">
<title>C</title>
<ellipse fill="none" stroke="gray" cx="131" cy="-91.13" rx="36.77" ry="18.38"/>
<text text-anchor="start" x="113" y="-91.63" font-family="Menlo" font-size="10.00">C: &quot;a&quot;</text>
<text text-anchor="start" x="117.5" y="-83.53" font-family="Menlo" font-size="8.00" fill="gray"> 1:1:2</text>
</g>
<!-- B&#45;&gt;C -->
<g id="edge5" class="edge">
<title>B&#45;&gt;C</title>
<path fill="none" stroke="gray" d="M131,-145.05C131,-136.26 131,-125.55 131,-116.07"/>
<polygon fill="gray" stroke="gray" points="132.75,-116.26 131,-111.26 129.25,-116.26 132.75,-116.26"/>
</g>
</g>
</svg>
