<?xml version="1.0" encoding="UTF-8" standalone="no"?>
<!DOCTYPE svg PUBLIC "-//W3C//DTD SVG 1.1//EN"
 "http://www.w3.org/Graphics/SVG/1.1/DTD/svg11.dtd">
<!-- Generated by graphviz version 9.0.0 (20230911.1827)
 -->
<!-- Title: SPPF Pages: 1 -->
<svg width="1255pt" height="823pt"
 viewBox="0.00 0.00 1255.00 823.25" xmlns="http://www.w3.org/2000/svg" xmlns:xlink="http://www.w3.org/1999/xlink">
<g id="graph0" class="graph" transform="scale(1 1) rotate(0) translate(4 819.25)">
<title>SPPF</title>
<polygon fill="white" stroke="none" points="-4,4 -4,-819.25 1251,-819.25 1251,4 -4,4"/>
<!-- n0 -->
<g id="node1" class="node">
<title>n0</title>
<path fill="none" stroke="black" d="M913.08,-815.25C913.08,-815.25 856.92,-815.25 856.92,-815.25 853.46,-815.25 850,-811.79 850,-808.33 850,-808.33 850,-801.42 850,-801.42 850,-797.96 853.46,-794.5 856.92,-794.5 856.92,-794.5 913.08,-794.5 913.08,-794.5 916.54,-794.5 920,-797.96 920,-801.42 920,-801.42 920,-808.33 920,-808.33 920,-811.79 916.54,-815.25 913.08,-815.25"/>
<text text-anchor="start" x="858" y="-801.75" font-family="Menlo" font-size="10.00">file,0,14</text>
</g>
<!-- n1 -->
<g id="node2" class="node">
<title>n1</title>
<polygon fill="none" stroke="black" points="950,-758.5 820,-758.5 820,-737.75 950,-737.75 950,-758.5"/>
<text text-anchor="middle" x="885" y="-745" font-family="Menlo" font-size="10.00">file=&lt;statement&gt;·,0</text>
</g>
<!-- n0&#45;&gt;n1 -->
<g id="edge1" class="edge">
<title>n0&#45;&gt;n1</title>
<path fill="none" stroke="black" d="M885,-794.09C885,-785.76 885,-773.66 885,-764.11"/>
<polygon fill="black" stroke="black" points="886.4,-764.34 885,-760.34 883.6,-764.34 886.4,-764.34"/>
</g>
<!-- n2 -->
<g id="node3" class="node">
<title>n2</title>
<polygon fill="none" stroke="black" points="959,-701.75 811,-701.75 811,-681 959,-681 959,-701.75"/>
<text text-anchor="start" x="819" y="-688.25" font-family="Menlo" font-size="10.00">file=&lt;statement·&gt;,0,14</text>
</g>
<!-- n1&#45;&gt;n2 -->
<g id="edge2" class="edge">
<title>n1&#45;&gt;n2</title>
<path fill="none" stroke="black" d="M885,-737.34C885,-729.01 885,-716.91 885,-707.36"/>
<polygon fill="black" stroke="black" points="886.4,-707.59 885,-703.59 883.6,-707.59 886.4,-707.59"/>
</g>
<!-- n3 -->
<g id="node4" class="node">
<title>n3</title>
<polygon fill="none" stroke="black" points="950,-645 820,-645 820,-624.25 950,-624.25 950,-645"/>
<text text-anchor="middle" x="885" y="-631.5" font-family="Menlo" font-size="10.00">file=&lt;statement·&gt;,0</text>
</g>
<!-- n2&#45;&gt;n3 -->
<g id="edge3" class="edge">
<title>n2&#45;&gt;n3</title>
<path fill="none" stroke="black" d="M885,-680.59C885,-672.26 885,-660.16 885,-650.61"/>
<polygon fill="black" stroke="black" points="886.4,-650.84 885,-646.84 883.6,-650.84 886.4,-650.84"/>
</g>
<!-- n4 -->
<g id="node5" class="node">
<title>n4</title>
<path fill="none" stroke="black" d="M928.08,-588.25C928.08,-588.25 841.92,-588.25 841.92,-588.25 838.46,-588.25 835,-584.79 835,-581.33 835,-581.33 835,-574.42 835,-574.42 835,-570.96 838.46,-567.5 841.92,-567.5 841.92,-567.5 928.08,-567.5 928.08,-567.5 931.54,-567.5 935,-570.96 935,-574.42 935,-574.42 935,-581.33 935,-581.33 935,-584.79 931.54,-588.25 928.08,-588.25"/>
<text text-anchor="start" x="843" y="-574.75" font-family="Menlo" font-size="10.00">statement,0,14</text>
</g>
<!-- n3&#45;&gt;n4 -->
<g id="edge4" class="edge">
<title>n3&#45;&gt;n4</title>
<path fill="none" stroke="black" d="M885,-623.84C885,-615.51 885,-603.41 885,-593.86"/>
<polygon fill="black" stroke="black" points="886.4,-594.09 885,-590.09 883.6,-594.09 886.4,-594.09"/>
</g>
<!-- n5 -->
<g id="node6" class="node">
<title>n5</title>
<polygon fill="none" stroke="black" points="971,-531.5 799,-531.5 799,-510.75 971,-510.75 971,-531.5"/>
<text text-anchor="middle" x="885" y="-518" font-family="Menlo" font-size="10.00">statement=compound_stmt·,0</text>
</g>
<!-- n4&#45;&gt;n5 -->
<g id="edge5" class="edge">
<title>n4&#45;&gt;n5</title>
<path fill="none" stroke="black" d="M885,-567.09C885,-558.76 885,-546.66 885,-537.11"/>
<polygon fill="black" stroke="black" points="886.4,-537.34 885,-533.34 883.6,-537.34 886.4,-537.34"/>
</g>
<!-- n6 -->
<g id="node7" class="node">
<title>n6</title>
<path fill="none" stroke="black" d="M940.08,-474.75C940.08,-474.75 829.92,-474.75 829.92,-474.75 826.46,-474.75 823,-471.29 823,-467.83 823,-467.83 823,-460.92 823,-460.92 823,-457.46 826.46,-454 829.92,-454 829.92,-454 940.08,-454 940.08,-454 943.54,-454 947,-457.46 947,-460.92 947,-460.92 947,-467.83 947,-467.83 947,-471.29 943.54,-474.75 940.08,-474.75"/>
<text text-anchor="start" x="831" y="-461.25" font-family="Menlo" font-size="10.00">compound_stmt,0,14</text>
</g>
<!-- n5&#45;&gt;n6 -->
<g id="edge6" class="edge">
<title>n5&#45;&gt;n6</title>
<path fill="none" stroke="black" d="M885,-510.34C885,-502.01 885,-489.91 885,-480.36"/>
<polygon fill="black" stroke="black" points="886.4,-480.59 885,-476.59 883.6,-480.59 886.4,-480.59"/>
</g>
<!-- n7 -->
<g id="node8" class="node">
<title>n7</title>
<polygon fill="none" stroke="black" points="881,-418 691,-418 691,-397.25 881,-397.25 881,-418"/>
<text text-anchor="middle" x="786" y="-404.5" font-family="Menlo" font-size="10.00">compound_stmt=function_def·,0</text>
</g>
<!-- n6&#45;&gt;n7 -->
<g id="edge7" class="edge">
<title>n6&#45;&gt;n7</title>
<path fill="none" stroke="black" d="M867.3,-453.59C850.69,-444.4 825.79,-430.63 807.93,-420.75"/>
<polygon fill="black" stroke="black" points="809.05,-419.77 804.87,-419.06 807.69,-422.22 809.05,-419.77"/>
</g>
<!-- n8 -->
<g id="node9" class="node">
<title>n8</title>
<polygon fill="none" stroke="black" points="1088,-418 916,-418 916,-397.25 1088,-397.25 1088,-418"/>
<text text-anchor="middle" x="1002" y="-404.5" font-family="Menlo" font-size="10.00">compound_stmt=class_def·,0</text>
</g>
<!-- n6&#45;&gt;n8 -->
<g id="edge8" class="edge">
<title>n6&#45;&gt;n8</title>
<path fill="none" stroke="black" d="M905.92,-453.59C925.63,-444.36 955.22,-430.51 976.35,-420.63"/>
<polygon fill="black" stroke="black" points="976.86,-421.93 979.89,-418.97 975.68,-419.4 976.86,-421.93"/>
</g>
<!-- n9 -->
<g id="node10" class="node">
<title>n9</title>
<path fill="none" stroke="black" d="M804.08,-361.25C804.08,-361.25 699.92,-361.25 699.92,-361.25 696.46,-361.25 693,-357.79 693,-354.33 693,-354.33 693,-347.42 693,-347.42 693,-343.96 696.46,-340.5 699.92,-340.5 699.92,-340.5 804.08,-340.5 804.08,-340.5 807.54,-340.5 811,-343.96 811,-347.42 811,-347.42 811,-354.33 811,-354.33 811,-357.79 807.54,-361.25 804.08,-361.25"/>
<text text-anchor="start" x="701" y="-347.75" font-family="Menlo" font-size="10.00">function_def,0,14</text>
</g>
<!-- n7&#45;&gt;n9 -->
<g id="edge9" class="edge">
<title>n7&#45;&gt;n9</title>
<path fill="none" stroke="black" d="M779.92,-396.84C774.6,-388.27 766.81,-375.73 760.81,-366.06"/>
<polygon fill="black" stroke="black" points="762.12,-365.52 758.82,-362.86 759.75,-367 762.12,-365.52"/>
</g>
<!-- n10 -->
<g id="node11" class="node">
<title>n10</title>
<path fill="none" stroke="black" d="M1053.08,-361.25C1053.08,-361.25 966.92,-361.25 966.92,-361.25 963.46,-361.25 960,-357.79 960,-354.33 960,-354.33 960,-347.42 960,-347.42 960,-343.96 963.46,-340.5 966.92,-340.5 966.92,-340.5 1053.08,-340.5 1053.08,-340.5 1056.54,-340.5 1060,-343.96 1060,-347.42 1060,-347.42 1060,-354.33 1060,-354.33 1060,-357.79 1056.54,-361.25 1053.08,-361.25"/>
<text text-anchor="start" x="968" y="-347.75" font-family="Menlo" font-size="10.00">class_def,0,14</text>
</g>
<!-- n8&#45;&gt;n10 -->
<g id="edge10" class="edge">
<title>n8&#45;&gt;n10</title>
<path fill="none" stroke="black" d="M1003.43,-396.84C1004.65,-388.51 1006.42,-376.41 1007.81,-366.86"/>
<polygon fill="black" stroke="black" points="1009.17,-367.24 1008.36,-363.08 1006.4,-366.83 1009.17,-367.24"/>
</g>
<!-- n11 -->
<g id="node12" class="node">
<title>n11</title>
<polygon fill="none" stroke="black" points="864,-304.5 506,-304.5 506,-283.75 864,-283.75 864,-304.5"/>
<text text-anchor="middle" x="685" y="-291" font-family="Menlo" font-size="10.00">function_def=defNAME([parameters])[&#45;&gt;expression]:block·,6</text>
</g>
<!-- n9&#45;&gt;n11 -->
<g id="edge11" class="edge">
<title>n9&#45;&gt;n11</title>
<path fill="none" stroke="black" d="M740.02,-340.09C729.16,-331.21 713.06,-318.06 701.08,-308.27"/>
<polygon fill="black" stroke="black" points="702.03,-307.23 698.05,-305.79 700.26,-309.4 702.03,-307.23"/>
</g>
<!-- n12 -->
<g id="node13" class="node">
<title>n12</title>
<polygon fill="none" stroke="black" points="1156,-304.5 882,-304.5 882,-283.75 1156,-283.75 1156,-304.5"/>
<text text-anchor="middle" x="1019" y="-291" font-family="Menlo" font-size="10.00">class_def=classNAME[([arguments])]:block·,3</text>
</g>
<!-- n10&#45;&gt;n12 -->
<g id="edge12" class="edge">
<title>n10&#45;&gt;n12</title>
<path fill="none" stroke="black" d="M1011.61,-340.09C1012.98,-331.76 1014.97,-319.66 1016.54,-310.11"/>
<polygon fill="black" stroke="black" points="1017.89,-310.5 1017.16,-306.32 1015.13,-310.04 1017.89,-310.5"/>
</g>
<!-- n13 -->
<g id="node14" class="node">
<title>n13</title>
<path fill="none" stroke="black" d="M725.08,-247.75C725.08,-247.75 662.92,-247.75 662.92,-247.75 659.46,-247.75 656,-244.29 656,-240.83 656,-240.83 656,-233.92 656,-233.92 656,-230.46 659.46,-227 662.92,-227 662.92,-227 725.08,-227 725.08,-227 728.54,-227 732,-230.46 732,-233.92 732,-233.92 732,-240.83 732,-240.83 732,-244.29 728.54,-247.75 725.08,-247.75"/>
<text text-anchor="start" x="664" y="-234.25" font-family="Menlo" font-size="10.00">block,6,14</text>
</g>
<!-- n11&#45;&gt;n13 -->
<g id="edge14" class="edge">
<title>n11&#45;&gt;n13</title>
<path fill="none" stroke="black" d="M686.61,-283.34C687.98,-275.01 689.97,-262.91 691.54,-253.36"/>
<polygon fill="black" stroke="black" points="692.89,-253.75 692.16,-249.57 690.13,-253.29 692.89,-253.75"/>
</g>
<!-- n14 -->
<g id="node15" class="node">
<title>n14</title>
<polygon fill="none" stroke="black" points="614,-247.75 244,-247.75 244,-227 614,-227 614,-247.75"/>
<text text-anchor="start" x="252" y="-234.25" font-family="Menlo" font-size="10.00">function_def=defNAME([parameters])[&#45;&gt;expression]:·block,0,6</text>
</g>
<!-- n11&#45;&gt;n14 -->
<g id="edge13" class="edge">
<title>n11&#45;&gt;n14</title>
<path fill="none" stroke="black" d="M638.94,-283.27C594.3,-273.73 526.74,-259.28 480.39,-249.36"/>
<polygon fill="black" stroke="black" points="480.81,-248.02 476.6,-248.56 480.22,-250.76 480.81,-248.02"/>
</g>
<!-- n15 -->
<g id="node16" class="node">
<title>n15</title>
<path fill="none" stroke="black" d="M1240.08,-247.75C1240.08,-247.75 1177.92,-247.75 1177.92,-247.75 1174.46,-247.75 1171,-244.29 1171,-240.83 1171,-240.83 1171,-233.92 1171,-233.92 1171,-230.46 1174.46,-227 1177.92,-227 1177.92,-227 1240.08,-227 1240.08,-227 1243.54,-227 1247,-230.46 1247,-233.92 1247,-233.92 1247,-240.83 1247,-240.83 1247,-244.29 1243.54,-247.75 1240.08,-247.75"/>
<text text-anchor="start" x="1179" y="-234.25" font-family="Menlo" font-size="10.00">block,3,14</text>
</g>
<!-- n12&#45;&gt;n15 -->
<g id="edge16" class="edge">
<title>n12&#45;&gt;n15</title>
<path fill="none" stroke="black" d="M1052.97,-283.34C1085.83,-273.87 1135.59,-259.53 1170.04,-249.6"/>
<polygon fill="black" stroke="black" points="1170.1,-251.04 1173.55,-248.59 1169.32,-248.35 1170.1,-251.04"/>
</g>
<!-- n16 -->
<g id="node17" class="node">
<title>n16</title>
<polygon fill="none" stroke="black" points="1153,-247.75 867,-247.75 867,-227 1153,-227 1153,-247.75"/>
<text text-anchor="start" x="875" y="-234.25" font-family="Menlo" font-size="10.00">class_def=classNAME[([arguments])]:·block,0,3</text>
</g>
<!-- n12&#45;&gt;n16 -->
<g id="edge15" class="edge">
<title>n12&#45;&gt;n16</title>
<path fill="none" stroke="black" d="M1017.39,-283.34C1016.02,-275.01 1014.03,-262.91 1012.46,-253.36"/>
<polygon fill="black" stroke="black" points="1013.87,-253.29 1011.84,-249.57 1011.11,-253.75 1013.87,-253.29"/>
</g>
<!-- n17 -->
<g id="node18" class="node">
<title>n17</title>
<polygon fill="none" stroke="black" points="821,-191 601,-191 601,-170.25 821,-170.25 821,-191"/>
<text text-anchor="middle" x="711" y="-177.5" font-family="Menlo" font-size="10.00">block=NEWLINE&gt;&gt;|&lt;statement&gt;|&lt;&lt;·,13</text>
</g>
<!-- n13&#45;&gt;n17 -->
<g id="edge17" class="edge">
<title>n13&#45;&gt;n17</title>
<path fill="none" stroke="black" d="M697.04,-226.59C699.65,-218.18 703.45,-205.93 706.43,-196.34"/>
<polygon fill="black" stroke="black" points="707.69,-197.01 707.54,-192.77 705.01,-196.18 707.69,-197.01"/>
</g>
<!-- n18 -->
<g id="node19" class="node">
<title>n18</title>
<polygon fill="none" stroke="black" points="583,-191 225,-191 225,-170.25 583,-170.25 583,-191"/>
<text text-anchor="middle" x="404" y="-177.5" font-family="Menlo" font-size="10.00">function_def=defNAME([parameters])[&#45;&gt;expression]:·block,5</text>
</g>
<!-- n14&#45;&gt;n18 -->
<g id="edge18" class="edge">
<title>n14&#45;&gt;n18</title>
<path fill="none" stroke="black" d="M424.53,-226.59C420.69,-218.18 415.1,-205.93 410.72,-196.34"/>
<polygon fill="black" stroke="black" points="411.99,-195.76 409.06,-192.71 409.45,-196.93 411.99,-195.76"/>
</g>
<!-- n19 -->
<g id="node20" class="node">
<title>n19</title>
<polygon fill="none" stroke="black" points="1147,-191 873,-191 873,-170.25 1147,-170.25 1147,-191"/>
<text text-anchor="middle" x="1010" y="-177.5" font-family="Menlo" font-size="10.00">class_def=classNAME[([arguments])]:·block,2</text>
</g>
<!-- n16&#45;&gt;n19 -->
<g id="edge19" class="edge">
<title>n16&#45;&gt;n19</title>
<path fill="none" stroke="black" d="M1010,-226.59C1010,-218.26 1010,-206.16 1010,-196.61"/>
<polygon fill="black" stroke="black" points="1011.4,-196.84 1010,-192.84 1008.6,-196.84 1011.4,-196.84"/>
</g>
<!-- n20 -->
<g id="node21" class="node">
<title>n20</title>
<path fill="none" stroke="black" d="M814.08,-134.25C814.08,-134.25 745.92,-134.25 745.92,-134.25 742.46,-134.25 739,-130.79 739,-127.33 739,-127.33 739,-120.42 739,-120.42 739,-116.96 742.46,-113.5 745.92,-113.5 745.92,-113.5 814.08,-113.5 814.08,-113.5 817.54,-113.5 821,-116.96 821,-120.42 821,-120.42 821,-127.33 821,-127.33 821,-130.79 817.54,-134.25 814.08,-134.25"/>
<text text-anchor="start" x="747" y="-120.75" font-family="Menlo" font-size="10.00">&quot;|&lt;&lt;&quot;,13,14</text>
</g>
<!-- n17&#45;&gt;n20 -->
<g id="edge21" class="edge">
<title>n17&#45;&gt;n20</title>
<path fill="none" stroke="black" d="M723.34,-169.84C734.62,-160.88 751.39,-147.58 763.76,-137.76"/>
<polygon fill="black" stroke="black" points="764.32,-139.1 766.59,-135.52 762.58,-136.91 764.32,-139.1"/>
</g>
<!-- n21 -->
<g id="node22" class="node">
<title>n21</title>
<polygon fill="none" stroke="black" points="721,-134.25 489,-134.25 489,-113.5 721,-113.5 721,-134.25"/>
<text text-anchor="start" x="497" y="-120.75" font-family="Menlo" font-size="10.00">block=NEWLINE&gt;&gt;|&lt;statement&gt;·|&lt;&lt;,6,13</text>
</g>
<!-- n17&#45;&gt;n21 -->
<g id="edge20" class="edge">
<title>n17&#45;&gt;n21</title>
<path fill="none" stroke="black" d="M692.05,-169.84C674.26,-160.65 647.6,-146.88 628.48,-137"/>
<polygon fill="black" stroke="black" points="629.33,-135.86 625.13,-135.27 628.04,-138.35 629.33,-135.86"/>
</g>
<!-- n22 -->
<g id="node23" class="node">
<title>n22</title>
<path fill="none" stroke="black" d="M439.08,-134.25C439.08,-134.25 394.92,-134.25 394.92,-134.25 391.46,-134.25 388,-130.79 388,-127.33 388,-127.33 388,-120.42 388,-120.42 388,-116.96 391.46,-113.5 394.92,-113.5 394.92,-113.5 439.08,-113.5 439.08,-113.5 442.54,-113.5 446,-116.96 446,-120.42 446,-120.42 446,-127.33 446,-127.33 446,-130.79 442.54,-134.25 439.08,-134.25"/>
<text text-anchor="start" x="396" y="-120.75" font-family="Menlo" font-size="10.00">&quot;:&quot;,5,6</text>
</g>
<!-- n18&#45;&gt;n22 -->
<g id="edge23" class="edge">
<title>n18&#45;&gt;n22</title>
<path fill="none" stroke="black" d="M406.32,-169.84C408.3,-161.51 411.17,-149.41 413.44,-139.86"/>
<polygon fill="black" stroke="black" points="414.78,-140.27 414.35,-136.05 412.06,-139.62 414.78,-140.27"/>
</g>
<!-- n23 -->
<g id="node24" class="node">
<title>n23</title>
<polygon fill="none" stroke="black" points="370,-134.25 0,-134.25 0,-113.5 370,-113.5 370,-134.25"/>
<text text-anchor="start" x="8" y="-120.75" font-family="Menlo" font-size="10.00">function_def=defNAME([parameters])[&#45;&gt;expression]·:block,0,5</text>
</g>
<!-- n18&#45;&gt;n23 -->
<g id="edge22" class="edge">
<title>n18&#45;&gt;n23</title>
<path fill="none" stroke="black" d="M364.59,-169.77C326.64,-160.29 269.32,-145.95 229.69,-136.05"/>
<polygon fill="black" stroke="black" points="230.15,-134.72 225.93,-135.11 229.47,-137.44 230.15,-134.72"/>
</g>
<!-- n24 -->
<g id="node25" class="node">
<title>n24</title>
<path fill="none" stroke="black" d="M1206.08,-134.25C1206.08,-134.25 1161.92,-134.25 1161.92,-134.25 1158.46,-134.25 1155,-130.79 1155,-127.33 1155,-127.33 1155,-120.42 1155,-120.42 1155,-116.96 1158.46,-113.5 1161.92,-113.5 1161.92,-113.5 1206.08,-113.5 1206.08,-113.5 1209.54,-113.5 1213,-116.96 1213,-120.42 1213,-120.42 1213,-127.33 1213,-127.33 1213,-130.79 1209.54,-134.25 1206.08,-134.25"/>
<text text-anchor="start" x="1163" y="-120.75" font-family="Menlo" font-size="10.00">&quot;:&quot;,2,3</text>
</g>
<!-- n19&#45;&gt;n24 -->
<g id="edge25" class="edge">
<title>n19&#45;&gt;n24</title>
<path fill="none" stroke="black" d="M1041.11,-169.84C1071.63,-160.23 1118.08,-145.62 1149.67,-135.68"/>
<polygon fill="black" stroke="black" points="1149.77,-137.11 1153.17,-134.58 1148.93,-134.44 1149.77,-137.11"/>
</g>
<!-- n25 -->
<g id="node26" class="node">
<title>n25</title>
<polygon fill="none" stroke="black" points="1137,-134.25 851,-134.25 851,-113.5 1137,-113.5 1137,-134.25"/>
<text text-anchor="start" x="859" y="-120.75" font-family="Menlo" font-size="10.00">class_def=classNAME[([arguments])]·:block,0,2</text>
</g>
<!-- n19&#45;&gt;n25 -->
<g id="edge24" class="edge">
<title>n19&#45;&gt;n25</title>
<path fill="none" stroke="black" d="M1007.14,-169.84C1004.71,-161.51 1001.17,-149.41 998.38,-139.86"/>
<polygon fill="black" stroke="black" points="999.73,-139.48 997.26,-136.03 997.04,-140.26 999.73,-139.48"/>
</g>
<!-- n26 -->
<g id="node27" class="node">
<title>n26</title>
<polygon fill="none" stroke="black" points="712,-77.5 498,-77.5 498,-56.75 712,-56.75 712,-77.5"/>
<text text-anchor="middle" x="605" y="-64" font-family="Menlo" font-size="10.00">block=NEWLINE&gt;&gt;|&lt;statement&gt;·|&lt;&lt;,7</text>
</g>
<!-- n21&#45;&gt;n26 -->
<g id="edge26" class="edge">
<title>n21&#45;&gt;n26</title>
<path fill="none" stroke="black" d="M605,-113.09C605,-104.76 605,-92.66 605,-83.11"/>
<polygon fill="black" stroke="black" points="606.4,-83.34 605,-79.34 603.6,-83.34 606.4,-83.34"/>
</g>
<!-- n27 -->
<g id="node28" class="node">
<title>n27</title>
<polygon fill="none" stroke="black" points="845,-20.75 613,-20.75 613,0 845,0 845,-20.75"/>
<text text-anchor="start" x="621" y="-7.25" font-family="Menlo" font-size="10.00">block=NEWLINE&gt;&gt;|&lt;statement·&gt;|&lt;&lt;,7,13</text>
</g>
<!-- n26&#45;&gt;n27 -->
<g id="edge28" class="edge">
<title>n26&#45;&gt;n27</title>
<path fill="none" stroke="black" d="M627.17,-56.34C648.15,-47.07 679.69,-33.15 702.1,-23.25"/>
<polygon fill="black" stroke="black" points="702.54,-24.59 705.64,-21.69 701.41,-22.02 702.54,-24.59"/>
</g>
<!-- n28 -->
<g id="node29" class="node">
<title>n28</title>
<polygon fill="none" stroke="black" points="595,-20.75 369,-20.75 369,0 595,0 595,-20.75"/>
<text text-anchor="start" x="377" y="-7.25" font-family="Menlo" font-size="10.00">block=NEWLINE&gt;&gt;|·&lt;statement&gt;|&lt;&lt;,6,7</text>
</g>
<!-- n26&#45;&gt;n28 -->
<g id="edge27" class="edge">
<title>n26&#45;&gt;n28</title>
<path fill="none" stroke="black" d="M583.01,-56.34C562.2,-47.07 530.91,-33.15 508.68,-23.25"/>
<polygon fill="black" stroke="black" points="509.41,-22.04 505.18,-21.69 508.27,-24.6 509.41,-22.04"/>
</g>
</g>
</svg>
