<?xml version="1.0" encoding="UTF-8" standalone="no"?>
<!DOCTYPE svg PUBLIC "-//W3C//DTD SVG 1.1//EN"
 "http://www.w3.org/Graphics/SVG/1.1/DTD/svg11.dtd">
<!-- Generated by graphviz version 9.0.0 (20230911.1827)
 -->
<!-- Title: SPPF Pages: 1 -->
<svg width="192pt" height="596pt"
 viewBox="0.00 0.00 192.00 596.25" xmlns="http://www.w3.org/2000/svg" xmlns:xlink="http://www.w3.org/1999/xlink">
<g id="graph0" class="graph" transform="scale(1 1) rotate(0) translate(4 592.25)">
<title>SPPF</title>
<polygon fill="white" stroke="none" points="-4,4 -4,-592.25 188,-592.25 188,4 -4,4"/>
<!-- n0 -->
<g id="node1" class="node">
<title>n0</title>
<path fill="none" stroke="black" d="M89.08,-588.25C89.08,-588.25 56.92,-588.25 56.92,-588.25 53.46,-588.25 50,-584.79 50,-581.33 50,-581.33 50,-574.42 50,-574.42 50,-570.96 53.46,-567.5 56.92,-567.5 56.92,-567.5 89.08,-567.5 89.08,-567.5 92.54,-567.5 96,-570.96 96,-574.42 96,-574.42 96,-581.33 96,-581.33 96,-584.79 92.54,-588.25 89.08,-588.25"/>
<text text-anchor="start" x="58" y="-574.75" font-family="Menlo" font-size="10.00">S,0,4</text>
</g>
<!-- n1 -->
<g id="node2" class="node">
<title>n1</title>
<polygon fill="none" stroke="black" points="102,-531.5 44,-531.5 44,-510.75 102,-510.75 102,-531.5"/>
<text text-anchor="middle" x="73" y="-518" font-family="Menlo" font-size="10.00">S=&lt;Y·,1</text>
</g>
<!-- n0&#45;&gt;n1 -->
<g id="edge1" class="edge">
<title>n0&#45;&gt;n1</title>
<path fill="none" stroke="black" d="M73,-567.09C73,-558.76 73,-546.66 73,-537.11"/>
<polygon fill="black" stroke="black" points="74.4,-537.34 73,-533.34 71.6,-537.34 74.4,-537.34"/>
</g>
<!-- n2 -->
<g id="node3" class="node">
<title>n2</title>
<path fill="none" stroke="black" d="M124.08,-474.75C124.08,-474.75 91.92,-474.75 91.92,-474.75 88.46,-474.75 85,-471.29 85,-467.83 85,-467.83 85,-460.92 85,-460.92 85,-457.46 88.46,-454 91.92,-454 91.92,-454 124.08,-454 124.08,-454 127.54,-454 131,-457.46 131,-460.92 131,-460.92 131,-467.83 131,-467.83 131,-471.29 127.54,-474.75 124.08,-474.75"/>
<text text-anchor="start" x="93" y="-461.25" font-family="Menlo" font-size="10.00">Y,1,4</text>
</g>
<!-- n1&#45;&gt;n2 -->
<g id="edge3" class="edge">
<title>n1&#45;&gt;n2</title>
<path fill="none" stroke="black" d="M79.26,-510.34C84.73,-501.77 92.75,-489.23 98.93,-479.56"/>
<polygon fill="black" stroke="black" points="100.01,-480.48 100.98,-476.35 97.65,-478.97 100.01,-480.48"/>
</g>
<!-- n3 -->
<g id="node4" class="node">
<title>n3</title>
<path fill="none" stroke="black" d="M60.08,-474.75C60.08,-474.75 15.92,-474.75 15.92,-474.75 12.46,-474.75 9,-471.29 9,-467.83 9,-467.83 9,-460.92 9,-460.92 9,-457.46 12.46,-454 15.92,-454 15.92,-454 60.08,-454 60.08,-454 63.54,-454 67,-457.46 67,-460.92 67,-460.92 67,-467.83 67,-467.83 67,-471.29 63.54,-474.75 60.08,-474.75"/>
<text text-anchor="start" x="17" y="-461.25" font-family="Menlo" font-size="10.00">&quot;&lt;&quot;,0,1</text>
</g>
<!-- n1&#45;&gt;n3 -->
<g id="edge2" class="edge">
<title>n1&#45;&gt;n3</title>
<path fill="none" stroke="black" d="M66.74,-510.34C61.27,-501.77 53.25,-489.23 47.07,-479.56"/>
<polygon fill="black" stroke="black" points="48.35,-478.97 45.02,-476.35 45.99,-480.48 48.35,-478.97"/>
</g>
<!-- n4 -->
<g id="node5" class="node">
<title>n4</title>
<polygon fill="none" stroke="black" points="143,-418 73,-418 73,-397.25 143,-397.25 143,-418"/>
<text text-anchor="middle" x="108" y="-404.5" font-family="Menlo" font-size="10.00">Y=S&gt;·,3.1</text>
</g>
<!-- n2&#45;&gt;n4 -->
<g id="edge4" class="edge">
<title>n2&#45;&gt;n4</title>
<path fill="none" stroke="black" d="M108,-453.59C108,-445.26 108,-433.16 108,-423.61"/>
<polygon fill="black" stroke="black" points="109.4,-423.84 108,-419.84 106.6,-423.84 109.4,-423.84"/>
</g>
<!-- n5 -->
<g id="node6" class="node">
<title>n5</title>
<path fill="none" stroke="black" d="M177.08,-361.25C177.08,-361.25 120.92,-361.25 120.92,-361.25 117.46,-361.25 114,-357.79 114,-354.33 114,-354.33 114,-347.42 114,-347.42 114,-343.96 117.46,-340.5 120.92,-340.5 120.92,-340.5 177.08,-340.5 177.08,-340.5 180.54,-340.5 184,-343.96 184,-347.42 184,-347.42 184,-354.33 184,-354.33 184,-357.79 180.54,-361.25 177.08,-361.25"/>
<text text-anchor="start" x="122" y="-347.75" font-family="Menlo" font-size="10.00">&quot;&gt;&quot;,3.1,4</text>
</g>
<!-- n4&#45;&gt;n5 -->
<g id="edge6" class="edge">
<title>n4&#45;&gt;n5</title>
<path fill="none" stroke="black" d="M115.33,-396.84C121.8,-388.19 131.31,-375.5 138.57,-365.8"/>
<polygon fill="black" stroke="black" points="139.55,-366.83 140.83,-362.79 137.31,-365.15 139.55,-366.83"/>
</g>
<!-- n6 -->
<g id="node7" class="node">
<title>n6</title>
<path fill="none" stroke="black" d="M89.08,-361.25C89.08,-361.25 44.92,-361.25 44.92,-361.25 41.46,-361.25 38,-357.79 38,-354.33 38,-354.33 38,-347.42 38,-347.42 38,-343.96 41.46,-340.5 44.92,-340.5 44.92,-340.5 89.08,-340.5 89.08,-340.5 92.54,-340.5 96,-343.96 96,-347.42 96,-347.42 96,-354.33 96,-354.33 96,-357.79 92.54,-361.25 89.08,-361.25"/>
<text text-anchor="start" x="46" y="-347.75" font-family="Menlo" font-size="10.00">S,1,3.1</text>
</g>
<!-- n4&#45;&gt;n6 -->
<g id="edge5" class="edge">
<title>n4&#45;&gt;n6</title>
<path fill="none" stroke="black" d="M100.67,-396.84C94.2,-388.19 84.69,-375.5 77.43,-365.8"/>
<polygon fill="black" stroke="black" points="78.69,-365.15 75.17,-362.79 76.45,-366.83 78.69,-365.15"/>
</g>
<!-- n7 -->
<g id="node8" class="node">
<title>n7</title>
<polygon fill="none" stroke="black" points="96,-304.5 38,-304.5 38,-283.75 96,-283.75 96,-304.5"/>
<text text-anchor="middle" x="67" y="-291" font-family="Menlo" font-size="10.00">S=&lt;Y·,2</text>
</g>
<!-- n6&#45;&gt;n7 -->
<g id="edge7" class="edge">
<title>n6&#45;&gt;n7</title>
<path fill="none" stroke="black" d="M67,-340.09C67,-331.76 67,-319.66 67,-310.11"/>
<polygon fill="black" stroke="black" points="68.4,-310.34 67,-306.34 65.6,-310.34 68.4,-310.34"/>
</g>
<!-- n8 -->
<g id="node9" class="node">
<title>n8</title>
<path fill="none" stroke="black" d="M127.08,-247.75C127.08,-247.75 82.92,-247.75 82.92,-247.75 79.46,-247.75 76,-244.29 76,-240.83 76,-240.83 76,-233.92 76,-233.92 76,-230.46 79.46,-227 82.92,-227 82.92,-227 127.08,-227 127.08,-227 130.54,-227 134,-230.46 134,-233.92 134,-233.92 134,-240.83 134,-240.83 134,-244.29 130.54,-247.75 127.08,-247.75"/>
<text text-anchor="start" x="84" y="-234.25" font-family="Menlo" font-size="10.00">Y,2,3.1</text>
</g>
<!-- n7&#45;&gt;n8 -->
<g id="edge9" class="edge">
<title>n7&#45;&gt;n8</title>
<path fill="none" stroke="black" d="M73.79,-283.34C79.74,-274.77 88.45,-262.23 95.15,-252.56"/>
<polygon fill="black" stroke="black" points="96.27,-253.41 97.4,-249.32 93.97,-251.81 96.27,-253.41"/>
</g>
<!-- n9 -->
<g id="node10" class="node">
<title>n9</title>
<path fill="none" stroke="black" d="M51.08,-247.75C51.08,-247.75 6.92,-247.75 6.92,-247.75 3.46,-247.75 0,-244.29 0,-240.83 0,-240.83 0,-233.92 0,-233.92 0,-230.46 3.46,-227 6.92,-227 6.92,-227 51.08,-227 51.08,-227 54.54,-227 58,-230.46 58,-233.92 58,-233.92 58,-240.83 58,-240.83 58,-244.29 54.54,-247.75 51.08,-247.75"/>
<text text-anchor="start" x="8" y="-234.25" font-family="Menlo" font-size="10.00">&quot;&lt;&quot;,1,2</text>
</g>
<!-- n7&#45;&gt;n9 -->
<g id="edge8" class="edge">
<title>n7&#45;&gt;n9</title>
<path fill="none" stroke="black" d="M60.21,-283.34C54.26,-274.77 45.55,-262.23 38.85,-252.56"/>
<polygon fill="black" stroke="black" points="40.03,-251.81 36.6,-249.32 37.73,-253.41 40.03,-251.81"/>
</g>
<!-- n10 -->
<g id="node11" class="node">
<title>n10</title>
<polygon fill="none" stroke="black" points="134,-191 76,-191 76,-170.25 134,-170.25 134,-191"/>
<text text-anchor="middle" x="105" y="-177.5" font-family="Menlo" font-size="10.00">Y=S&gt;·,3</text>
</g>
<!-- n8&#45;&gt;n10 -->
<g id="edge10" class="edge">
<title>n8&#45;&gt;n10</title>
<path fill="none" stroke="black" d="M105,-226.59C105,-218.26 105,-206.16 105,-196.61"/>
<polygon fill="black" stroke="black" points="106.4,-196.84 105,-192.84 103.6,-196.84 106.4,-196.84"/>
</g>
<!-- n11 -->
<g id="node12" class="node">
<title>n11</title>
<path fill="none" stroke="black" d="M171.08,-134.25C171.08,-134.25 114.92,-134.25 114.92,-134.25 111.46,-134.25 108,-130.79 108,-127.33 108,-127.33 108,-120.42 108,-120.42 108,-116.96 111.46,-113.5 114.92,-113.5 114.92,-113.5 171.08,-113.5 171.08,-113.5 174.54,-113.5 178,-116.96 178,-120.42 178,-120.42 178,-127.33 178,-127.33 178,-130.79 174.54,-134.25 171.08,-134.25"/>
<text text-anchor="start" x="116" y="-120.75" font-family="Menlo" font-size="10.00">&quot;&gt;&quot;,3,3.1</text>
</g>
<!-- n10&#45;&gt;n11 -->
<g id="edge12" class="edge">
<title>n10&#45;&gt;n11</title>
<path fill="none" stroke="black" d="M111.79,-169.84C117.74,-161.27 126.45,-148.73 133.15,-139.06"/>
<polygon fill="black" stroke="black" points="134.27,-139.91 135.4,-135.82 131.97,-138.31 134.27,-139.91"/>
</g>
<!-- n12 -->
<g id="node13" class="node">
<title>n12</title>
<path fill="none" stroke="black" d="M83.08,-134.25C83.08,-134.25 50.92,-134.25 50.92,-134.25 47.46,-134.25 44,-130.79 44,-127.33 44,-127.33 44,-120.42 44,-120.42 44,-116.96 47.46,-113.5 50.92,-113.5 50.92,-113.5 83.08,-113.5 83.08,-113.5 86.54,-113.5 90,-116.96 90,-120.42 90,-120.42 90,-127.33 90,-127.33 90,-130.79 86.54,-134.25 83.08,-134.25"/>
<text text-anchor="start" x="52" y="-120.75" font-family="Menlo" font-size="10.00">S,2,3</text>
</g>
<!-- n10&#45;&gt;n12 -->
<g id="edge11" class="edge">
<title>n10&#45;&gt;n12</title>
<path fill="none" stroke="black" d="M98.21,-169.84C92.26,-161.27 83.55,-148.73 76.85,-139.06"/>
<polygon fill="black" stroke="black" points="78.03,-138.31 74.6,-135.82 75.73,-139.91 78.03,-138.31"/>
</g>
<!-- n13 -->
<g id="node14" class="node">
<title>n13</title>
<polygon fill="none" stroke="black" points="93,-77.5 41,-77.5 41,-56.75 93,-56.75 93,-77.5"/>
<text text-anchor="middle" x="67" y="-64" font-family="Menlo" font-size="10.00">S=x·,2</text>
</g>
<!-- n12&#45;&gt;n13 -->
<g id="edge13" class="edge">
<title>n12&#45;&gt;n13</title>
<path fill="none" stroke="black" d="M67,-113.09C67,-104.76 67,-92.66 67,-83.11"/>
<polygon fill="black" stroke="black" points="68.4,-83.34 67,-79.34 65.6,-83.34 68.4,-83.34"/>
</g>
<!-- n14 -->
<g id="node15" class="node">
<title>n14</title>
<path fill="none" stroke="black" d="M89.08,-20.75C89.08,-20.75 44.92,-20.75 44.92,-20.75 41.46,-20.75 38,-17.29 38,-13.83 38,-13.83 38,-6.92 38,-6.92 38,-3.46 41.46,0 44.92,0 44.92,0 89.08,0 89.08,0 92.54,0 96,-3.46 96,-6.92 96,-6.92 96,-13.83 96,-13.83 96,-17.29 92.54,-20.75 89.08,-20.75"/>
<text text-anchor="start" x="46" y="-7.25" font-family="Menlo" font-size="10.00">&quot;x&quot;,2,3</text>
</g>
<!-- n13&#45;&gt;n14 -->
<g id="edge14" class="edge">
<title>n13&#45;&gt;n14</title>
<path fill="none" stroke="black" d="M67,-56.34C67,-48.01 67,-35.91 67,-26.36"/>
<polygon fill="black" stroke="black" points="68.4,-26.59 67,-22.59 65.6,-26.59 68.4,-26.59"/>
</g>
</g>
</svg>
