<?xml version="1.0" encoding="UTF-8" standalone="no"?>
<!DOCTYPE svg PUBLIC "-//W3C//DTD SVG 1.1//EN"
 "http://www.w3.org/Graphics/SVG/1.1/DTD/svg11.dtd">
<!-- Generated by graphviz version 9.0.0 (20230911.1827)
 -->
<!-- Title: SPPF Pages: 1 -->
<svg width="318pt" height="596pt"
 viewBox="0.00 0.00 318.00 596.25" xmlns="http://www.w3.org/2000/svg" xmlns:xlink="http://www.w3.org/1999/xlink">
<g id="graph0" class="graph" transform="scale(1 1) rotate(0) translate(4 592.25)">
<title>SPPF</title>
<polygon fill="white" stroke="none" points="-4,4 -4,-592.25 314,-592.25 314,4 -4,4"/>
<!-- n0 -->
<g id="node1" class="node">
<title>n0</title>
<path fill="none" stroke="black" d="M209.08,-588.25C209.08,-588.25 176.92,-588.25 176.92,-588.25 173.46,-588.25 170,-584.79 170,-581.33 170,-581.33 170,-574.42 170,-574.42 170,-570.96 173.46,-567.5 176.92,-567.5 176.92,-567.5 209.08,-567.5 209.08,-567.5 212.54,-567.5 216,-570.96 216,-574.42 216,-574.42 216,-581.33 216,-581.33 216,-584.79 212.54,-588.25 209.08,-588.25"/>
<text text-anchor="start" x="178" y="-574.75" font-family="Menlo" font-size="10.00">S,0,6</text>
</g>
<!-- n1 -->
<g id="node2" class="node">
<title>n1</title>
<polygon fill="none" stroke="black" points="228,-531.5 158,-531.5 158,-510.75 228,-510.75 228,-531.5"/>
<text text-anchor="middle" x="193" y="-518" font-family="Menlo" font-size="10.00">S=&lt;sS&gt;·,5</text>
</g>
<!-- n0&#45;&gt;n1 -->
<g id="edge1" class="edge">
<title>n0&#45;&gt;n1</title>
<path fill="none" stroke="black" d="M193,-567.09C193,-558.76 193,-546.66 193,-537.11"/>
<polygon fill="black" stroke="black" points="194.4,-537.34 193,-533.34 191.6,-537.34 194.4,-537.34"/>
</g>
<!-- n2 -->
<g id="node3" class="node">
<title>n2</title>
<path fill="none" stroke="black" d="M259.08,-474.75C259.08,-474.75 214.92,-474.75 214.92,-474.75 211.46,-474.75 208,-471.29 208,-467.83 208,-467.83 208,-460.92 208,-460.92 208,-457.46 211.46,-454 214.92,-454 214.92,-454 259.08,-454 259.08,-454 262.54,-454 266,-457.46 266,-460.92 266,-460.92 266,-467.83 266,-467.83 266,-471.29 262.54,-474.75 259.08,-474.75"/>
<text text-anchor="start" x="216" y="-461.25" font-family="Menlo" font-size="10.00">&quot;&gt;&quot;,5,6</text>
</g>
<!-- n1&#45;&gt;n2 -->
<g id="edge3" class="edge">
<title>n1&#45;&gt;n2</title>
<path fill="none" stroke="black" d="M200.87,-510.34C207.81,-501.69 218.02,-489 225.81,-479.3"/>
<polygon fill="black" stroke="black" points="226.84,-480.25 228.25,-476.26 224.66,-478.5 226.84,-480.25"/>
</g>
<!-- n3 -->
<g id="node4" class="node">
<title>n3</title>
<polygon fill="none" stroke="black" points="190,-474.75 108,-474.75 108,-454 190,-454 190,-474.75"/>
<text text-anchor="start" x="116" y="-461.25" font-family="Menlo" font-size="10.00">S=&lt;sS·&gt;,0,5</text>
</g>
<!-- n1&#45;&gt;n3 -->
<g id="edge2" class="edge">
<title>n1&#45;&gt;n3</title>
<path fill="none" stroke="black" d="M185.13,-510.34C178.19,-501.69 167.98,-489 160.19,-479.3"/>
<polygon fill="black" stroke="black" points="161.34,-478.5 157.75,-476.26 159.16,-480.25 161.34,-478.5"/>
</g>
<!-- n4 -->
<g id="node5" class="node">
<title>n4</title>
<polygon fill="none" stroke="black" points="184,-418 114,-418 114,-397.25 184,-397.25 184,-418"/>
<text text-anchor="middle" x="149" y="-404.5" font-family="Menlo" font-size="10.00">S=&lt;sS·&gt;,2</text>
</g>
<!-- n3&#45;&gt;n4 -->
<g id="edge4" class="edge">
<title>n3&#45;&gt;n4</title>
<path fill="none" stroke="black" d="M149,-453.59C149,-445.26 149,-433.16 149,-423.61"/>
<polygon fill="black" stroke="black" points="150.4,-423.84 149,-419.84 147.6,-423.84 150.4,-423.84"/>
</g>
<!-- n5 -->
<g id="node6" class="node">
<title>n5</title>
<path fill="none" stroke="black" d="M207.08,-361.25C207.08,-361.25 174.92,-361.25 174.92,-361.25 171.46,-361.25 168,-357.79 168,-354.33 168,-354.33 168,-347.42 168,-347.42 168,-343.96 171.46,-340.5 174.92,-340.5 174.92,-340.5 207.08,-340.5 207.08,-340.5 210.54,-340.5 214,-343.96 214,-347.42 214,-347.42 214,-354.33 214,-354.33 214,-357.79 210.54,-361.25 207.08,-361.25"/>
<text text-anchor="start" x="176" y="-347.75" font-family="Menlo" font-size="10.00">S,2,5</text>
</g>
<!-- n4&#45;&gt;n5 -->
<g id="edge6" class="edge">
<title>n4&#45;&gt;n5</title>
<path fill="none" stroke="black" d="M156.51,-396.84C163.14,-388.19 172.88,-375.5 180.32,-365.8"/>
<polygon fill="black" stroke="black" points="181.31,-366.81 182.64,-362.78 179.09,-365.1 181.31,-366.81"/>
</g>
<!-- n6 -->
<g id="node7" class="node">
<title>n6</title>
<polygon fill="none" stroke="black" points="149,-361.25 67,-361.25 67,-340.5 149,-340.5 149,-361.25"/>
<text text-anchor="start" x="75" y="-347.75" font-family="Menlo" font-size="10.00">S=&lt;s·S&gt;,0,2</text>
</g>
<!-- n4&#45;&gt;n6 -->
<g id="edge5" class="edge">
<title>n4&#45;&gt;n6</title>
<path fill="none" stroke="black" d="M141.67,-396.84C135.2,-388.19 125.69,-375.5 118.43,-365.8"/>
<polygon fill="black" stroke="black" points="119.69,-365.15 116.17,-362.79 117.45,-366.83 119.69,-365.15"/>
</g>
<!-- n7 -->
<g id="node8" class="node">
<title>n7</title>
<polygon fill="none" stroke="black" points="228,-304.5 158,-304.5 158,-283.75 228,-283.75 228,-304.5"/>
<text text-anchor="middle" x="193" y="-291" font-family="Menlo" font-size="10.00">S=&lt;sS&gt;·,4</text>
</g>
<!-- n5&#45;&gt;n7 -->
<g id="edge7" class="edge">
<title>n5&#45;&gt;n7</title>
<path fill="none" stroke="black" d="M191.36,-340.09C191.66,-331.76 192.1,-319.66 192.45,-310.11"/>
<polygon fill="black" stroke="black" points="193.84,-310.39 192.59,-306.34 191.05,-310.29 193.84,-310.39"/>
</g>
<!-- n8 -->
<g id="node9" class="node">
<title>n8</title>
<polygon fill="none" stroke="black" points="140,-304.5 70,-304.5 70,-283.75 140,-283.75 140,-304.5"/>
<text text-anchor="middle" x="105" y="-291" font-family="Menlo" font-size="10.00">S=&lt;s·S&gt;,1</text>
</g>
<!-- n6&#45;&gt;n8 -->
<g id="edge8" class="edge">
<title>n6&#45;&gt;n8</title>
<path fill="none" stroke="black" d="M107.46,-340.09C107.01,-331.76 106.34,-319.66 105.82,-310.11"/>
<polygon fill="black" stroke="black" points="107.23,-310.26 105.61,-306.34 104.44,-310.41 107.23,-310.26"/>
</g>
<!-- n9 -->
<g id="node10" class="node">
<title>n9</title>
<path fill="none" stroke="black" d="M303.08,-247.75C303.08,-247.75 258.92,-247.75 258.92,-247.75 255.46,-247.75 252,-244.29 252,-240.83 252,-240.83 252,-233.92 252,-233.92 252,-230.46 255.46,-227 258.92,-227 258.92,-227 303.08,-227 303.08,-227 306.54,-227 310,-230.46 310,-233.92 310,-233.92 310,-240.83 310,-240.83 310,-244.29 306.54,-247.75 303.08,-247.75"/>
<text text-anchor="start" x="260" y="-234.25" font-family="Menlo" font-size="10.00">&quot;&gt;&quot;,4,5</text>
</g>
<!-- n7&#45;&gt;n9 -->
<g id="edge10" class="edge">
<title>n7&#45;&gt;n9</title>
<path fill="none" stroke="black" d="M208.73,-283.34C223.37,-274.23 245.26,-260.61 261.1,-250.75"/>
<polygon fill="black" stroke="black" points="261.46,-252.18 264.12,-248.88 259.98,-249.8 261.46,-252.18"/>
</g>
<!-- n10 -->
<g id="node11" class="node">
<title>n10</title>
<polygon fill="none" stroke="black" points="234,-247.75 152,-247.75 152,-227 234,-227 234,-247.75"/>
<text text-anchor="start" x="160" y="-234.25" font-family="Menlo" font-size="10.00">S=&lt;sS·&gt;,2,4</text>
</g>
<!-- n7&#45;&gt;n10 -->
<g id="edge9" class="edge">
<title>n7&#45;&gt;n10</title>
<path fill="none" stroke="black" d="M193,-283.34C193,-275.01 193,-262.91 193,-253.36"/>
<polygon fill="black" stroke="black" points="194.4,-253.59 193,-249.59 191.6,-253.59 194.4,-253.59"/>
</g>
<!-- n11 -->
<g id="node12" class="node">
<title>n11</title>
<path fill="none" stroke="black" d="M127.08,-247.75C127.08,-247.75 82.92,-247.75 82.92,-247.75 79.46,-247.75 76,-244.29 76,-240.83 76,-240.83 76,-233.92 76,-233.92 76,-230.46 79.46,-227 82.92,-227 82.92,-227 127.08,-227 127.08,-227 130.54,-227 134,-230.46 134,-233.92 134,-233.92 134,-240.83 134,-240.83 134,-244.29 130.54,-247.75 127.08,-247.75"/>
<text text-anchor="start" x="84" y="-234.25" font-family="Menlo" font-size="10.00">&quot;s&quot;,1,2</text>
</g>
<!-- n8&#45;&gt;n11 -->
<g id="edge12" class="edge">
<title>n8&#45;&gt;n11</title>
<path fill="none" stroke="black" d="M105,-283.34C105,-275.01 105,-262.91 105,-253.36"/>
<polygon fill="black" stroke="black" points="106.4,-253.59 105,-249.59 103.6,-253.59 106.4,-253.59"/>
</g>
<!-- n12 -->
<g id="node13" class="node">
<title>n12</title>
<path fill="none" stroke="black" d="M51.08,-247.75C51.08,-247.75 6.92,-247.75 6.92,-247.75 3.46,-247.75 0,-244.29 0,-240.83 0,-240.83 0,-233.92 0,-233.92 0,-230.46 3.46,-227 6.92,-227 6.92,-227 51.08,-227 51.08,-227 54.54,-227 58,-230.46 58,-233.92 58,-233.92 58,-240.83 58,-240.83 58,-244.29 54.54,-247.75 51.08,-247.75"/>
<text text-anchor="start" x="8" y="-234.25" font-family="Menlo" font-size="10.00">&quot;&lt;&quot;,0,1</text>
</g>
<!-- n8&#45;&gt;n12 -->
<g id="edge11" class="edge">
<title>n8&#45;&gt;n12</title>
<path fill="none" stroke="black" d="M91.41,-283.34C78.98,-274.38 60.51,-261.08 46.89,-251.26"/>
<polygon fill="black" stroke="black" points="47.76,-250.17 43.7,-248.96 46.12,-252.44 47.76,-250.17"/>
</g>
<!-- n13 -->
<g id="node14" class="node">
<title>n13</title>
<polygon fill="none" stroke="black" points="228,-191 158,-191 158,-170.25 228,-170.25 228,-191"/>
<text text-anchor="middle" x="193" y="-177.5" font-family="Menlo" font-size="10.00">S=&lt;sS·&gt;,4</text>
</g>
<!-- n10&#45;&gt;n13 -->
<g id="edge13" class="edge">
<title>n10&#45;&gt;n13</title>
<path fill="none" stroke="black" d="M193,-226.59C193,-218.26 193,-206.16 193,-196.61"/>
<polygon fill="black" stroke="black" points="194.4,-196.84 193,-192.84 191.6,-196.84 194.4,-196.84"/>
</g>
<!-- n14 -->
<g id="node15" class="node">
<title>n14</title>
<path fill="none" stroke="black" d="M250.08,-134.25C250.08,-134.25 217.92,-134.25 217.92,-134.25 214.46,-134.25 211,-130.79 211,-127.33 211,-127.33 211,-120.42 211,-120.42 211,-116.96 214.46,-113.5 217.92,-113.5 217.92,-113.5 250.08,-113.5 250.08,-113.5 253.54,-113.5 257,-116.96 257,-120.42 257,-120.42 257,-127.33 257,-127.33 257,-130.79 253.54,-134.25 250.08,-134.25"/>
<text text-anchor="start" x="219" y="-120.75" font-family="Menlo" font-size="10.00">S,4,4</text>
</g>
<!-- n13&#45;&gt;n14 -->
<g id="edge15" class="edge">
<title>n13&#45;&gt;n14</title>
<path fill="none" stroke="black" d="M200.33,-169.84C206.8,-161.19 216.31,-148.5 223.57,-138.8"/>
<polygon fill="black" stroke="black" points="224.55,-139.83 225.83,-135.79 222.31,-138.15 224.55,-139.83"/>
</g>
<!-- n15 -->
<g id="node16" class="node">
<title>n15</title>
<polygon fill="none" stroke="black" points="193,-134.25 111,-134.25 111,-113.5 193,-113.5 193,-134.25"/>
<text text-anchor="start" x="119" y="-120.75" font-family="Menlo" font-size="10.00">S=&lt;s·S&gt;,2,4</text>
</g>
<!-- n13&#45;&gt;n15 -->
<g id="edge14" class="edge">
<title>n13&#45;&gt;n15</title>
<path fill="none" stroke="black" d="M185.67,-169.84C179.2,-161.19 169.69,-148.5 162.43,-138.8"/>
<polygon fill="black" stroke="black" points="163.69,-138.15 160.17,-135.79 161.45,-139.83 163.69,-138.15"/>
</g>
<!-- n16 -->
<g id="node17" class="node">
<title>n16</title>
<polygon fill="none" stroke="black" points="260,-77.5 208,-77.5 208,-56.75 260,-56.75 260,-77.5"/>
<text text-anchor="middle" x="234" y="-64" font-family="Menlo" font-size="10.00">S=ε·,4</text>
</g>
<!-- n14&#45;&gt;n16 -->
<g id="edge16" class="edge">
<title>n14&#45;&gt;n16</title>
<path fill="none" stroke="black" d="M234,-113.09C234,-104.76 234,-92.66 234,-83.11"/>
<polygon fill="black" stroke="black" points="235.4,-83.34 234,-79.34 232.6,-83.34 235.4,-83.34"/>
</g>
<!-- n17 -->
<g id="node18" class="node">
<title>n17</title>
<polygon fill="none" stroke="black" points="187,-77.5 117,-77.5 117,-56.75 187,-56.75 187,-77.5"/>
<text text-anchor="middle" x="152" y="-64" font-family="Menlo" font-size="10.00">S=&lt;s·S&gt;,3</text>
</g>
<!-- n15&#45;&gt;n17 -->
<g id="edge17" class="edge">
<title>n15&#45;&gt;n17</title>
<path fill="none" stroke="black" d="M152,-113.09C152,-104.76 152,-92.66 152,-83.11"/>
<polygon fill="black" stroke="black" points="153.4,-83.34 152,-79.34 150.6,-83.34 153.4,-83.34"/>
</g>
<!-- n18 -->
<g id="node19" class="node">
<title>n18</title>
<path fill="none" stroke="black" stroke-dasharray="5,2" d="M250.08,-20.75C250.08,-20.75 217.92,-20.75 217.92,-20.75 214.46,-20.75 211,-17.29 211,-13.83 211,-13.83 211,-6.92 211,-6.92 211,-3.46 214.46,0 217.92,0 217.92,0 250.08,0 250.08,0 253.54,0 257,-3.46 257,-6.92 257,-6.92 257,-13.83 257,-13.83 257,-17.29 253.54,-20.75 250.08,-20.75"/>
<text text-anchor="start" x="219" y="-7.25" font-family="Menlo" font-size="10.00">ε,4,4</text>
</g>
<!-- n16&#45;&gt;n18 -->
<g id="edge18" class="edge">
<title>n16&#45;&gt;n18</title>
<path fill="none" stroke="black" d="M234,-56.34C234,-48.01 234,-35.91 234,-26.36"/>
<polygon fill="black" stroke="black" points="235.4,-26.59 234,-22.59 232.6,-26.59 235.4,-26.59"/>
</g>
<!-- n19 -->
<g id="node20" class="node">
<title>n19</title>
<path fill="none" stroke="black" d="M180.08,-20.75C180.08,-20.75 135.92,-20.75 135.92,-20.75 132.46,-20.75 129,-17.29 129,-13.83 129,-13.83 129,-6.92 129,-6.92 129,-3.46 132.46,0 135.92,0 135.92,0 180.08,0 180.08,0 183.54,0 187,-3.46 187,-6.92 187,-6.92 187,-13.83 187,-13.83 187,-17.29 183.54,-20.75 180.08,-20.75"/>
<text text-anchor="start" x="137" y="-7.25" font-family="Menlo" font-size="10.00">&quot;s&quot;,3,4</text>
</g>
<!-- n17&#45;&gt;n19 -->
<g id="edge20" class="edge">
<title>n17&#45;&gt;n19</title>
<path fill="none" stroke="black" d="M153.07,-56.34C153.99,-48.01 155.31,-35.91 156.36,-26.36"/>
<polygon fill="black" stroke="black" points="157.73,-26.71 156.77,-22.58 154.94,-26.41 157.73,-26.71"/>
</g>
<!-- n20 -->
<g id="node21" class="node">
<title>n20</title>
<path fill="none" stroke="black" d="M104.08,-20.75C104.08,-20.75 59.92,-20.75 59.92,-20.75 56.46,-20.75 53,-17.29 53,-13.83 53,-13.83 53,-6.92 53,-6.92 53,-3.46 56.46,0 59.92,0 59.92,0 104.08,0 104.08,0 107.54,0 111,-3.46 111,-6.92 111,-6.92 111,-13.83 111,-13.83 111,-17.29 107.54,-20.75 104.08,-20.75"/>
<text text-anchor="start" x="61" y="-7.25" font-family="Menlo" font-size="10.00">&quot;&lt;&quot;,2,3</text>
</g>
<!-- n17&#45;&gt;n20 -->
<g id="edge19" class="edge">
<title>n17&#45;&gt;n20</title>
<path fill="none" stroke="black" d="M139.49,-56.34C128.04,-47.38 111.03,-34.08 98.48,-24.26"/>
<polygon fill="black" stroke="black" points="99.61,-23.37 95.6,-22.01 97.89,-25.58 99.61,-23.37"/>
</g>
</g>
</svg>
