<?xml version="1.0" encoding="UTF-8" standalone="no"?>
<!DOCTYPE svg PUBLIC "-//W3C//DTD SVG 1.1//EN"
 "http://www.w3.org/Graphics/SVG/1.1/DTD/svg11.dtd">
<!-- Generated by graphviz version 9.0.0 (20230911.1827)
 -->
<!-- Title: SPPF Pages: 1 -->
<svg width="3813pt" height="937pt"
 viewBox="0.00 0.00 3813.00 936.75" xmlns="http://www.w3.org/2000/svg" xmlns:xlink="http://www.w3.org/1999/xlink">
<g id="graph0" class="graph" transform="scale(1 1) rotate(0) translate(4 932.75)">
<title>SPPF</title>
<polygon fill="white" stroke="none" points="-4,4 -4,-932.75 3809,-932.75 3809,4 -4,4"/>
<!-- n0 -->
<g id="node1" class="node">
<title>n0</title>
<path fill="none" stroke="black" d="M2431.08,-928.75C2431.08,-928.75 2284.92,-928.75 2284.92,-928.75 2281.46,-928.75 2278,-925.29 2278,-921.83 2278,-921.83 2278,-914.92 2278,-914.92 2278,-911.46 2281.46,-908 2284.92,-908 2284.92,-908 2431.08,-908 2431.08,-908 2434.54,-908 2438,-911.46 2438,-914.92 2438,-914.92 2438,-921.83 2438,-921.83 2438,-925.29 2434.54,-928.75 2431.08,-928.75"/>
<text text-anchor="start" x="2286" y="-915.25" font-family="Menlo" font-size="10.00">topLevelDeclaration,0,13</text>
</g>
<!-- n1 -->
<g id="node2" class="node">
<title>n1</title>
<polygon fill="none" stroke="black" points="2471,-872 2245,-872 2245,-851.25 2471,-851.25 2471,-872"/>
<text text-anchor="middle" x="2358" y="-858.5" font-family="Menlo" font-size="10.00">topLevelDeclaration=[statements]·,0</text>
</g>
<!-- n0&#45;&gt;n1 -->
<g id="edge1" class="edge">
<title>n0&#45;&gt;n1</title>
<path fill="none" stroke="black" d="M2358,-907.59C2358,-899.26 2358,-887.16 2358,-877.61"/>
<polygon fill="black" stroke="black" points="2359.4,-877.84 2358,-873.84 2356.6,-877.84 2359.4,-877.84"/>
</g>
<!-- n2 -->
<g id="node3" class="node">
<title>n2</title>
<polygon fill="none" stroke="black" points="2480,-815.25 2236,-815.25 2236,-794.5 2480,-794.5 2480,-815.25"/>
<text text-anchor="start" x="2244" y="-801.75" font-family="Menlo" font-size="10.00">topLevelDeclaration=[statements·],0,13</text>
</g>
<!-- n1&#45;&gt;n2 -->
<g id="edge2" class="edge">
<title>n1&#45;&gt;n2</title>
<path fill="none" stroke="black" d="M2358,-850.84C2358,-842.51 2358,-830.41 2358,-820.86"/>
<polygon fill="black" stroke="black" points="2359.4,-821.09 2358,-817.09 2356.6,-821.09 2359.4,-821.09"/>
</g>
<!-- n3 -->
<g id="node4" class="node">
<title>n3</title>
<polygon fill="none" stroke="black" points="2471,-758.5 2245,-758.5 2245,-737.75 2471,-737.75 2471,-758.5"/>
<text text-anchor="middle" x="2358" y="-745" font-family="Menlo" font-size="10.00">topLevelDeclaration=[statements·],0</text>
</g>
<!-- n2&#45;&gt;n3 -->
<g id="edge3" class="edge">
<title>n2&#45;&gt;n3</title>
<path fill="none" stroke="black" d="M2358,-794.09C2358,-785.76 2358,-773.66 2358,-764.11"/>
<polygon fill="black" stroke="black" points="2359.4,-764.34 2358,-760.34 2356.6,-764.34 2359.4,-764.34"/>
</g>
<!-- n4 -->
<g id="node5" class="node">
<title>n4</title>
<path fill="none" stroke="black" d="M2404.08,-701.75C2404.08,-701.75 2311.92,-701.75 2311.92,-701.75 2308.46,-701.75 2305,-698.29 2305,-694.83 2305,-694.83 2305,-687.92 2305,-687.92 2305,-684.46 2308.46,-681 2311.92,-681 2311.92,-681 2404.08,-681 2404.08,-681 2407.54,-681 2411,-684.46 2411,-687.92 2411,-687.92 2411,-694.83 2411,-694.83 2411,-698.29 2407.54,-701.75 2404.08,-701.75"/>
<text text-anchor="start" x="2313" y="-688.25" font-family="Menlo" font-size="10.00">statements,0,13</text>
</g>
<!-- n3&#45;&gt;n4 -->
<g id="edge4" class="edge">
<title>n3&#45;&gt;n4</title>
<path fill="none" stroke="black" d="M2358,-737.34C2358,-729.01 2358,-716.91 2358,-707.36"/>
<polygon fill="black" stroke="black" points="2359.4,-707.59 2358,-703.59 2356.6,-707.59 2359.4,-707.59"/>
</g>
<!-- n5 -->
<g id="node6" class="node">
<title>n5</title>
<polygon fill="none" stroke="black" points="2474,-645 2242,-645 2242,-624.25 2474,-624.25 2474,-645"/>
<text text-anchor="middle" x="2358" y="-631.5" font-family="Menlo" font-size="10.00">statements=statement[statements]·,13</text>
</g>
<!-- n4&#45;&gt;n5 -->
<g id="edge5" class="edge">
<title>n4&#45;&gt;n5</title>
<path fill="none" stroke="black" d="M2358,-680.59C2358,-672.26 2358,-660.16 2358,-650.61"/>
<polygon fill="black" stroke="black" points="2359.4,-650.84 2358,-646.84 2356.6,-650.84 2359.4,-650.84"/>
</g>
<!-- n6 -->
<g id="node7" class="node">
<title>n6</title>
<polygon fill="none" stroke="black" points="3189,-588.25 2939,-588.25 2939,-567.5 3189,-567.5 3189,-588.25"/>
<text text-anchor="start" x="2947" y="-574.75" font-family="Menlo" font-size="10.00">statements=statement[statements·],13,13</text>
</g>
<!-- n5&#45;&gt;n6 -->
<g id="edge7" class="edge">
<title>n5&#45;&gt;n6</title>
<path fill="none" stroke="black" d="M2474.19,-624.61C2600.43,-614.82 2801.67,-599.22 2933.33,-589.01"/>
<polygon fill="black" stroke="black" points="2933.38,-590.41 2937.26,-588.7 2933.16,-587.62 2933.38,-590.41"/>
</g>
<!-- n7 -->
<g id="node8" class="node">
<title>n7</title>
<path fill="none" stroke="black" d="M2305.08,-588.25C2305.08,-588.25 2218.92,-588.25 2218.92,-588.25 2215.46,-588.25 2212,-584.79 2212,-581.33 2212,-581.33 2212,-574.42 2212,-574.42 2212,-570.96 2215.46,-567.5 2218.92,-567.5 2218.92,-567.5 2305.08,-567.5 2305.08,-567.5 2308.54,-567.5 2312,-570.96 2312,-574.42 2312,-574.42 2312,-581.33 2312,-581.33 2312,-584.79 2308.54,-588.25 2305.08,-588.25"/>
<text text-anchor="start" x="2220" y="-574.75" font-family="Menlo" font-size="10.00">statement,0,13</text>
</g>
<!-- n5&#45;&gt;n7 -->
<g id="edge6" class="edge">
<title>n5&#45;&gt;n7</title>
<path fill="none" stroke="black" d="M2340.84,-623.84C2324.86,-614.73 2300.99,-601.11 2283.7,-591.25"/>
<polygon fill="black" stroke="black" points="2284.5,-590.09 2280.33,-589.33 2283.11,-592.53 2284.5,-590.09"/>
</g>
<!-- n8 -->
<g id="node9" class="node">
<title>n8</title>
<polygon fill="none" stroke="black" points="3805,-531.5 3573,-531.5 3573,-510.75 3805,-510.75 3805,-531.5"/>
<text text-anchor="middle" x="3689" y="-518" font-family="Menlo" font-size="10.00">statements=statement[statements·],13</text>
</g>
<!-- n6&#45;&gt;n8 -->
<g id="edge8" class="edge">
<title>n6&#45;&gt;n8</title>
<path fill="none" stroke="black" d="M3176.46,-567.02C3287.86,-557.27 3457.76,-542.38 3571.04,-532.46"/>
<polygon fill="black" stroke="black" points="3571.02,-533.87 3574.88,-532.12 3570.78,-531.08 3571.02,-533.87"/>
</g>
<!-- n9 -->
<g id="node10" class="node">
<title>n9</title>
<polygon fill="none" stroke="black" points="895,-531.5 717,-531.5 717,-510.75 895,-510.75 895,-531.5"/>
<text text-anchor="middle" x="806" y="-518" font-family="Menlo" font-size="10.00">statement=expression[;]·,13</text>
</g>
<!-- n7&#45;&gt;n9 -->
<g id="edge9" class="edge">
<title>n7&#45;&gt;n9</title>
<path fill="none" stroke="black" d="M2211.57,-574.99C2045.68,-568.81 1501.81,-548.5 1052,-531.5 1002.03,-529.61 946.36,-527.49 900.63,-525.74"/>
<polygon fill="black" stroke="black" points="900.95,-524.36 896.9,-525.6 900.85,-527.15 900.95,-524.36"/>
</g>
<!-- n10 -->
<g id="node11" class="node">
<title>n10</title>
<polygon fill="none" stroke="black" points="1245,-531.5 1061,-531.5 1061,-510.75 1245,-510.75 1245,-531.5"/>
<text text-anchor="middle" x="1153" y="-518" font-family="Menlo" font-size="10.00">statement=declaration[;]·,13</text>
</g>
<!-- n7&#45;&gt;n10 -->
<g id="edge10" class="edge">
<title>n7&#45;&gt;n10</title>
<path fill="none" stroke="black" d="M2211.83,-574.4C2040.86,-565.96 1478.99,-538.22 1250.71,-526.95"/>
<polygon fill="black" stroke="black" points="1250.96,-525.56 1246.9,-526.76 1250.82,-528.36 1250.96,-525.56"/>
</g>
<!-- n11 -->
<g id="node12" class="node">
<title>n11</title>
<polygon fill="none" stroke="black" points="1664,-531.5 1468,-531.5 1468,-510.75 1664,-510.75 1664,-531.5"/>
<text text-anchor="middle" x="1566" y="-518" font-family="Menlo" font-size="10.00">statement=loopStatement[;]·,13</text>
</g>
<!-- n7&#45;&gt;n11 -->
<g id="edge11" class="edge">
<title>n7&#45;&gt;n11</title>
<path fill="none" stroke="black" d="M2211.67,-572.92C2098.41,-564.01 1821.6,-542.23 1669.8,-530.29"/>
<polygon fill="black" stroke="black" points="1670.06,-528.91 1665.96,-529.99 1669.84,-531.7 1670.06,-528.91"/>
</g>
<!-- n12 -->
<g id="node13" class="node">
<title>n12</title>
<polygon fill="none" stroke="black" points="2062,-531.5 1854,-531.5 1854,-510.75 2062,-510.75 2062,-531.5"/>
<text text-anchor="middle" x="1958" y="-518" font-family="Menlo" font-size="10.00">statement=branchStatement[;]·,13</text>
</g>
<!-- n7&#45;&gt;n12 -->
<g id="edge12" class="edge">
<title>n7&#45;&gt;n12</title>
<path fill="none" stroke="black" d="M2211.8,-567.83C2158.62,-558.26 2074.68,-543.14 2018.04,-532.94"/>
<polygon fill="black" stroke="black" points="2018.32,-531.57 2014.13,-532.23 2017.82,-534.32 2018.32,-531.57"/>
</g>
<!-- n13 -->
<g id="node14" class="node">
<title>n13</title>
<polygon fill="none" stroke="black" points="2369,-531.5 2155,-531.5 2155,-510.75 2369,-510.75 2369,-531.5"/>
<text text-anchor="middle" x="2262" y="-518" font-family="Menlo" font-size="10.00">statement=labeledStatement[;]·,13</text>
</g>
<!-- n7&#45;&gt;n13 -->
<g id="edge13" class="edge">
<title>n7&#45;&gt;n13</title>
<path fill="none" stroke="black" d="M2262,-567.09C2262,-558.76 2262,-546.66 2262,-537.11"/>
<polygon fill="black" stroke="black" points="2263.4,-537.34 2262,-533.34 2260.6,-537.34 2263.4,-537.34"/>
</g>
<!-- n14 -->
<g id="node15" class="node">
<title>n14</title>
<polygon fill="none" stroke="black" points="2725,-531.5 2463,-531.5 2463,-510.75 2725,-510.75 2725,-531.5"/>
<text text-anchor="middle" x="2594" y="-518" font-family="Menlo" font-size="10.00">statement=controlTransferStatement[;]·,13</text>
</g>
<!-- n7&#45;&gt;n14 -->
<g id="edge14" class="edge">
<title>n7&#45;&gt;n14</title>
<path fill="none" stroke="black" d="M2312.42,-568.56C2370.38,-559 2465.66,-543.29 2529.11,-532.83"/>
<polygon fill="black" stroke="black" points="2529.17,-534.23 2532.89,-532.2 2528.72,-531.47 2529.17,-534.23"/>
</g>
<!-- n15 -->
<g id="node16" class="node">
<title>n15</title>
<polygon fill="none" stroke="black" points="3171,-531.5 2969,-531.5 2969,-510.75 3171,-510.75 3171,-531.5"/>
<text text-anchor="middle" x="3070" y="-518" font-family="Menlo" font-size="10.00">statement=deferStatement[;]·,13</text>
</g>
<!-- n7&#45;&gt;n15 -->
<g id="edge15" class="edge">
<title>n7&#45;&gt;n15</title>
<path fill="none" stroke="black" d="M2312.24,-573.47C2441.31,-564.72 2786.76,-541.32 2963.16,-529.36"/>
<polygon fill="black" stroke="black" points="2963.18,-530.77 2967.07,-529.1 2962.99,-527.97 2963.18,-530.77"/>
</g>
<!-- n16 -->
<g id="node17" class="node">
<title>n16</title>
<polygon fill="none" stroke="black" points="3539,-531.5 3355,-531.5 3355,-510.75 3539,-510.75 3539,-531.5"/>
<text text-anchor="middle" x="3447" y="-518" font-family="Menlo" font-size="10.00">statement=doStatement[;]·,13</text>
</g>
<!-- n7&#45;&gt;n16 -->
<g id="edge16" class="edge">
<title>n7&#45;&gt;n16</title>
<path fill="none" stroke="black" d="M2312.16,-574.56C2492.33,-566.23 3108.77,-537.75 3349.54,-526.63"/>
<polygon fill="black" stroke="black" points="3349.37,-528.04 3353.3,-526.45 3349.24,-525.24 3349.37,-528.04"/>
</g>
<!-- n17 -->
<g id="node18" class="node">
<title>n17</title>
<path fill="none" stroke="black" stroke-dasharray="5,2" d="M2182.08,-361.25C2182.08,-361.25 2137.92,-361.25 2137.92,-361.25 2134.46,-361.25 2131,-357.79 2131,-354.33 2131,-354.33 2131,-347.42 2131,-347.42 2131,-343.96 2134.46,-340.5 2137.92,-340.5 2137.92,-340.5 2182.08,-340.5 2182.08,-340.5 2185.54,-340.5 2189,-343.96 2189,-347.42 2189,-347.42 2189,-354.33 2189,-354.33 2189,-357.79 2185.54,-361.25 2182.08,-361.25"/>
<text text-anchor="start" x="2139" y="-347.75" font-family="Menlo" font-size="10.00">ε,13,13</text>
</g>
<!-- n8&#45;&gt;n17 -->
<g id="edge17" class="edge">
<title>n8&#45;&gt;n17</title>
<path fill="none" stroke="black" d="M3692.11,-510.63C3696.11,-496.39 3701,-469.52 3687,-454 3559.65,-312.83 3452.4,-413.79 3263,-397.25 2843.52,-360.63 2331.65,-353.44 2194.93,-352.14"/>
<polygon fill="black" stroke="black" points="2194.99,-350.74 2190.98,-352.11 2194.96,-353.54 2194.99,-350.74"/>
</g>
<!-- n18 -->
<g id="node19" class="node">
<title>n18</title>
<polygon fill="none" stroke="black" points="904,-474.75 708,-474.75 708,-454 904,-454 904,-474.75"/>
<text text-anchor="start" x="716" y="-461.25" font-family="Menlo" font-size="10.00">statement=expression[;·],13,13</text>
</g>
<!-- n9&#45;&gt;n18 -->
<g id="edge19" class="edge">
<title>n9&#45;&gt;n18</title>
<path fill="none" stroke="black" d="M806,-510.34C806,-502.01 806,-489.91 806,-480.36"/>
<polygon fill="black" stroke="black" points="807.4,-480.59 806,-476.59 804.6,-480.59 807.4,-480.59"/>
</g>
<!-- n19 -->
<g id="node20" class="node">
<title>n19</title>
<path fill="none" stroke="black" d="M683.08,-474.75C683.08,-474.75 590.92,-474.75 590.92,-474.75 587.46,-474.75 584,-471.29 584,-467.83 584,-467.83 584,-460.92 584,-460.92 584,-457.46 587.46,-454 590.92,-454 590.92,-454 683.08,-454 683.08,-454 686.54,-454 690,-457.46 690,-460.92 690,-460.92 690,-467.83 690,-467.83 690,-471.29 686.54,-474.75 683.08,-474.75"/>
<text text-anchor="start" x="592" y="-461.25" font-family="Menlo" font-size="10.00">expression,0,13</text>
</g>
<!-- n9&#45;&gt;n19 -->
<g id="edge18" class="edge">
<title>n9&#45;&gt;n19</title>
<path fill="none" stroke="black" d="M775.79,-510.34C746.8,-500.95 703.03,-486.76 672.41,-476.85"/>
<polygon fill="black" stroke="black" points="672.91,-475.54 668.68,-475.64 672.05,-478.2 672.91,-475.54"/>
</g>
<!-- n20 -->
<g id="node21" class="node">
<title>n20</title>
<polygon fill="none" stroke="black" points="1254,-474.75 1052,-474.75 1052,-454 1254,-454 1254,-474.75"/>
<text text-anchor="start" x="1060" y="-461.25" font-family="Menlo" font-size="10.00">statement=declaration[;·],13,13</text>
</g>
<!-- n10&#45;&gt;n20 -->
<g id="edge21" class="edge">
<title>n10&#45;&gt;n20</title>
<path fill="none" stroke="black" d="M1153,-510.34C1153,-502.01 1153,-489.91 1153,-480.36"/>
<polygon fill="black" stroke="black" points="1154.4,-480.59 1153,-476.59 1151.6,-480.59 1154.4,-480.59"/>
</g>
<!-- n21 -->
<g id="node22" class="node">
<title>n21</title>
<path fill="none" stroke="black" d="M1027.08,-474.75C1027.08,-474.75 928.92,-474.75 928.92,-474.75 925.46,-474.75 922,-471.29 922,-467.83 922,-467.83 922,-460.92 922,-460.92 922,-457.46 925.46,-454 928.92,-454 928.92,-454 1027.08,-454 1027.08,-454 1030.54,-454 1034,-457.46 1034,-460.92 1034,-460.92 1034,-467.83 1034,-467.83 1034,-471.29 1030.54,-474.75 1027.08,-474.75"/>
<text text-anchor="start" x="930" y="-461.25" font-family="Menlo" font-size="10.00">declaration,0,13</text>
</g>
<!-- n10&#45;&gt;n21 -->
<g id="edge20" class="edge">
<title>n10&#45;&gt;n21</title>
<path fill="none" stroke="black" d="M1121.71,-510.34C1091.57,-500.91 1045.99,-486.65 1014.28,-476.72"/>
<polygon fill="black" stroke="black" points="1014.99,-475.48 1010.75,-475.62 1014.15,-478.15 1014.99,-475.48"/>
</g>
<!-- n22 -->
<g id="node23" class="node">
<title>n22</title>
<polygon fill="none" stroke="black" points="1486,-474.75 1272,-474.75 1272,-454 1486,-454 1486,-474.75"/>
<text text-anchor="start" x="1280" y="-461.25" font-family="Menlo" font-size="10.00">statement=loopStatement[;·],13,13</text>
</g>
<!-- n11&#45;&gt;n22 -->
<g id="edge23" class="edge">
<title>n11&#45;&gt;n22</title>
<path fill="none" stroke="black" d="M1532.57,-510.34C1500.23,-500.87 1451.26,-486.53 1417.35,-476.6"/>
<polygon fill="black" stroke="black" points="1418.14,-475.38 1413.91,-475.6 1417.36,-478.06 1418.14,-475.38"/>
</g>
<!-- n23 -->
<g id="node24" class="node">
<title>n23</title>
<path fill="none" stroke="black" d="M1621.08,-474.75C1621.08,-474.75 1510.92,-474.75 1510.92,-474.75 1507.46,-474.75 1504,-471.29 1504,-467.83 1504,-467.83 1504,-460.92 1504,-460.92 1504,-457.46 1507.46,-454 1510.92,-454 1510.92,-454 1621.08,-454 1621.08,-454 1624.54,-454 1628,-457.46 1628,-460.92 1628,-460.92 1628,-467.83 1628,-467.83 1628,-471.29 1624.54,-474.75 1621.08,-474.75"/>
<text text-anchor="start" x="1512" y="-461.25" font-family="Menlo" font-size="10.00">loopStatement,0,13</text>
</g>
<!-- n11&#45;&gt;n23 -->
<g id="edge22" class="edge">
<title>n11&#45;&gt;n23</title>
<path fill="none" stroke="black" d="M1566,-510.34C1566,-502.01 1566,-489.91 1566,-480.36"/>
<polygon fill="black" stroke="black" points="1567.4,-480.59 1566,-476.59 1564.6,-480.59 1567.4,-480.59"/>
</g>
<!-- n24 -->
<g id="node25" class="node">
<title>n24</title>
<polygon fill="none" stroke="black" points="1872,-474.75 1646,-474.75 1646,-454 1872,-454 1872,-474.75"/>
<text text-anchor="start" x="1654" y="-461.25" font-family="Menlo" font-size="10.00">statement=branchStatement[;·],13,13</text>
</g>
<!-- n12&#45;&gt;n24 -->
<g id="edge25" class="edge">
<title>n12&#45;&gt;n24</title>
<path fill="none" stroke="black" d="M1922.42,-510.34C1888.01,-500.87 1835.89,-486.53 1799.81,-476.6"/>
<polygon fill="black" stroke="black" points="1800.29,-475.28 1796.06,-475.57 1799.55,-477.98 1800.29,-475.28"/>
</g>
<!-- n25 -->
<g id="node26" class="node">
<title>n25</title>
<path fill="none" stroke="black" d="M2019.08,-474.75C2019.08,-474.75 1896.92,-474.75 1896.92,-474.75 1893.46,-474.75 1890,-471.29 1890,-467.83 1890,-467.83 1890,-460.92 1890,-460.92 1890,-457.46 1893.46,-454 1896.92,-454 1896.92,-454 2019.08,-454 2019.08,-454 2022.54,-454 2026,-457.46 2026,-460.92 2026,-460.92 2026,-467.83 2026,-467.83 2026,-471.29 2022.54,-474.75 2019.08,-474.75"/>
<text text-anchor="start" x="1898" y="-461.25" font-family="Menlo" font-size="10.00">branchStatement,0,13</text>
</g>
<!-- n12&#45;&gt;n25 -->
<g id="edge24" class="edge">
<title>n12&#45;&gt;n25</title>
<path fill="none" stroke="black" d="M1958,-510.34C1958,-502.01 1958,-489.91 1958,-480.36"/>
<polygon fill="black" stroke="black" points="1959.4,-480.59 1958,-476.59 1956.6,-480.59 1959.4,-480.59"/>
</g>
<!-- n26 -->
<g id="node27" class="node">
<title>n26</title>
<polygon fill="none" stroke="black" points="2276,-474.75 2044,-474.75 2044,-454 2276,-454 2276,-474.75"/>
<text text-anchor="start" x="2052" y="-461.25" font-family="Menlo" font-size="10.00">statement=labeledStatement[;·],13,13</text>
</g>
<!-- n13&#45;&gt;n26 -->
<g id="edge27" class="edge">
<title>n13&#45;&gt;n26</title>
<path fill="none" stroke="black" d="M2243.76,-510.34C2226.65,-501.15 2201,-487.38 2182.59,-477.5"/>
<polygon fill="black" stroke="black" points="2183.6,-476.45 2179.41,-475.79 2182.27,-478.92 2183.6,-476.45"/>
</g>
<!-- n27 -->
<g id="node28" class="node">
<title>n27</title>
<path fill="none" stroke="black" d="M2429.08,-474.75C2429.08,-474.75 2300.92,-474.75 2300.92,-474.75 2297.46,-474.75 2294,-471.29 2294,-467.83 2294,-467.83 2294,-460.92 2294,-460.92 2294,-457.46 2297.46,-454 2300.92,-454 2300.92,-454 2429.08,-454 2429.08,-454 2432.54,-454 2436,-457.46 2436,-460.92 2436,-460.92 2436,-467.83 2436,-467.83 2436,-471.29 2432.54,-474.75 2429.08,-474.75"/>
<text text-anchor="start" x="2302" y="-461.25" font-family="Menlo" font-size="10.00">labeledStatement,0,13</text>
</g>
<!-- n13&#45;&gt;n27 -->
<g id="edge26" class="edge">
<title>n13&#45;&gt;n27</title>
<path fill="none" stroke="black" d="M2280.41,-510.34C2297.7,-501.15 2323.6,-487.38 2342.19,-477.5"/>
<polygon fill="black" stroke="black" points="2342.53,-478.9 2345.41,-475.79 2341.22,-476.43 2342.53,-478.9"/>
</g>
<!-- n28 -->
<g id="node29" class="node">
<title>n28</title>
<polygon fill="none" stroke="black" points="2734,-474.75 2454,-474.75 2454,-454 2734,-454 2734,-474.75"/>
<text text-anchor="start" x="2462" y="-461.25" font-family="Menlo" font-size="10.00">statement=controlTransferStatement[;·],13,13</text>
</g>
<!-- n14&#45;&gt;n28 -->
<g id="edge29" class="edge">
<title>n14&#45;&gt;n28</title>
<path fill="none" stroke="black" d="M2594,-510.34C2594,-502.01 2594,-489.91 2594,-480.36"/>
<polygon fill="black" stroke="black" points="2595.4,-480.59 2594,-476.59 2592.6,-480.59 2595.4,-480.59"/>
</g>
<!-- n29 -->
<g id="node30" class="node">
<title>n29</title>
<path fill="none" stroke="black" d="M2935.08,-474.75C2935.08,-474.75 2758.92,-474.75 2758.92,-474.75 2755.46,-474.75 2752,-471.29 2752,-467.83 2752,-467.83 2752,-460.92 2752,-460.92 2752,-457.46 2755.46,-454 2758.92,-454 2758.92,-454 2935.08,-454 2935.08,-454 2938.54,-454 2942,-457.46 2942,-460.92 2942,-460.92 2942,-467.83 2942,-467.83 2942,-471.29 2938.54,-474.75 2935.08,-474.75"/>
<text text-anchor="start" x="2760" y="-461.25" font-family="Menlo" font-size="10.00">controlTransferStatement,0,13</text>
</g>
<!-- n14&#45;&gt;n29 -->
<g id="edge28" class="edge">
<title>n14&#45;&gt;n29</title>
<path fill="none" stroke="black" d="M2639.52,-510.27C2683.63,-500.73 2750.4,-486.28 2796.22,-476.36"/>
<polygon fill="black" stroke="black" points="2796.32,-477.77 2799.94,-475.56 2795.73,-475.04 2796.32,-477.77"/>
</g>
<!-- n30 -->
<g id="node31" class="node">
<title>n30</title>
<polygon fill="none" stroke="black" points="3180,-474.75 2960,-474.75 2960,-454 3180,-454 3180,-474.75"/>
<text text-anchor="start" x="2968" y="-461.25" font-family="Menlo" font-size="10.00">statement=deferStatement[;·],13,13</text>
</g>
<!-- n15&#45;&gt;n30 -->
<g id="edge31" class="edge">
<title>n15&#45;&gt;n30</title>
<path fill="none" stroke="black" d="M3070,-510.34C3070,-502.01 3070,-489.91 3070,-480.36"/>
<polygon fill="black" stroke="black" points="3071.4,-480.59 3070,-476.59 3068.6,-480.59 3071.4,-480.59"/>
</g>
<!-- n31 -->
<g id="node32" class="node">
<title>n31</title>
<path fill="none" stroke="black" d="M3321.08,-474.75C3321.08,-474.75 3204.92,-474.75 3204.92,-474.75 3201.46,-474.75 3198,-471.29 3198,-467.83 3198,-467.83 3198,-460.92 3198,-460.92 3198,-457.46 3201.46,-454 3204.92,-454 3204.92,-454 3321.08,-454 3321.08,-454 3324.54,-454 3328,-457.46 3328,-460.92 3328,-460.92 3328,-467.83 3328,-467.83 3328,-471.29 3324.54,-474.75 3321.08,-474.75"/>
<text text-anchor="start" x="3206" y="-461.25" font-family="Menlo" font-size="10.00">deferStatement,0,13</text>
</g>
<!-- n15&#45;&gt;n31 -->
<g id="edge30" class="edge">
<title>n15&#45;&gt;n31</title>
<path fill="none" stroke="black" d="M3104.5,-510.34C3137.88,-500.87 3188.43,-486.53 3223.42,-476.6"/>
<polygon fill="black" stroke="black" points="3223.55,-478.02 3227.01,-475.58 3222.78,-475.33 3223.55,-478.02"/>
</g>
<!-- n32 -->
<g id="node33" class="node">
<title>n32</title>
<polygon fill="none" stroke="black" points="3548,-474.75 3346,-474.75 3346,-454 3548,-454 3548,-474.75"/>
<text text-anchor="start" x="3354" y="-461.25" font-family="Menlo" font-size="10.00">statement=doStatement[;·],13,13</text>
</g>
<!-- n16&#45;&gt;n32 -->
<g id="edge33" class="edge">
<title>n16&#45;&gt;n32</title>
<path fill="none" stroke="black" d="M3447,-510.34C3447,-502.01 3447,-489.91 3447,-480.36"/>
<polygon fill="black" stroke="black" points="3448.4,-480.59 3447,-476.59 3445.6,-480.59 3448.4,-480.59"/>
</g>
<!-- n33 -->
<g id="node34" class="node">
<title>n33</title>
<path fill="none" stroke="black" d="M3671.08,-474.75C3671.08,-474.75 3572.92,-474.75 3572.92,-474.75 3569.46,-474.75 3566,-471.29 3566,-467.83 3566,-467.83 3566,-460.92 3566,-460.92 3566,-457.46 3569.46,-454 3572.92,-454 3572.92,-454 3671.08,-454 3671.08,-454 3674.54,-454 3678,-457.46 3678,-460.92 3678,-460.92 3678,-467.83 3678,-467.83 3678,-471.29 3674.54,-474.75 3671.08,-474.75"/>
<text text-anchor="start" x="3574" y="-461.25" font-family="Menlo" font-size="10.00">doStatement,0,13</text>
</g>
<!-- n16&#45;&gt;n33 -->
<g id="edge32" class="edge">
<title>n16&#45;&gt;n33</title>
<path fill="none" stroke="black" d="M3478.29,-510.34C3508.43,-500.91 3554.01,-486.65 3585.72,-476.72"/>
<polygon fill="black" stroke="black" points="3585.85,-478.15 3589.25,-475.62 3585.01,-475.48 3585.85,-478.15"/>
</g>
<!-- n34 -->
<g id="node35" class="node">
<title>n34</title>
<polygon fill="none" stroke="black" points="895,-418 717,-418 717,-397.25 895,-397.25 895,-418"/>
<text text-anchor="middle" x="806" y="-404.5" font-family="Menlo" font-size="10.00">statement=expression[;·],13</text>
</g>
<!-- n18&#45;&gt;n34 -->
<g id="edge34" class="edge">
<title>n18&#45;&gt;n34</title>
<path fill="none" stroke="black" d="M806,-453.59C806,-445.26 806,-433.16 806,-423.61"/>
<polygon fill="black" stroke="black" points="807.4,-423.84 806,-419.84 804.6,-423.84 807.4,-423.84"/>
</g>
<!-- n35 -->
<g id="node36" class="node">
<title>n35</title>
<polygon fill="none" stroke="black" points="1361,-418 1177,-418 1177,-397.25 1361,-397.25 1361,-418"/>
<text text-anchor="middle" x="1269" y="-404.5" font-family="Menlo" font-size="10.00">statement=declaration[;·],13</text>
</g>
<!-- n20&#45;&gt;n35 -->
<g id="edge35" class="edge">
<title>n20&#45;&gt;n35</title>
<path fill="none" stroke="black" d="M1173.74,-453.59C1193.29,-444.36 1222.62,-430.51 1243.57,-420.63"/>
<polygon fill="black" stroke="black" points="1244.05,-421.95 1247.07,-418.97 1242.86,-419.42 1244.05,-421.95"/>
</g>
<!-- n36 -->
<g id="node37" class="node">
<title>n36</title>
<polygon fill="none" stroke="black" points="1109,-418 913,-418 913,-397.25 1109,-397.25 1109,-418"/>
<text text-anchor="middle" x="1011" y="-404.5" font-family="Menlo" font-size="10.00">declaration=enumDeclaration·,0</text>
</g>
<!-- n21&#45;&gt;n36 -->
<g id="edge36" class="edge">
<title>n21&#45;&gt;n36</title>
<path fill="none" stroke="black" d="M983.9,-453.59C989.06,-445.02 996.62,-432.48 1002.45,-422.81"/>
<polygon fill="black" stroke="black" points="1003.5,-423.77 1004.37,-419.62 1001.11,-422.33 1003.5,-423.77"/>
</g>
<!-- n37 -->
<g id="node38" class="node">
<title>n37</title>
<polygon fill="none" stroke="black" points="1624,-418 1428,-418 1428,-397.25 1624,-397.25 1624,-418"/>
<text text-anchor="middle" x="1526" y="-404.5" font-family="Menlo" font-size="10.00">statement=loopStatement[;·],13</text>
</g>
<!-- n22&#45;&gt;n37 -->
<g id="edge37" class="edge">
<title>n22&#45;&gt;n37</title>
<path fill="none" stroke="black" d="M1405.28,-453.59C1430.37,-444.24 1468.17,-430.16 1494.78,-420.25"/>
<polygon fill="black" stroke="black" points="1495.27,-421.56 1498.53,-418.86 1494.29,-418.94 1495.27,-421.56"/>
</g>
<!-- n38 -->
<g id="node39" class="node">
<title>n38</title>
<polygon fill="none" stroke="black" points="1949,-418 1741,-418 1741,-397.25 1949,-397.25 1949,-418"/>
<text text-anchor="middle" x="1845" y="-404.5" font-family="Menlo" font-size="10.00">statement=branchStatement[;·],13</text>
</g>
<!-- n24&#45;&gt;n38 -->
<g id="edge38" class="edge">
<title>n24&#45;&gt;n38</title>
<path fill="none" stroke="black" d="M1774.38,-453.59C1788.56,-444.56 1809.7,-431.1 1825.16,-421.26"/>
<polygon fill="black" stroke="black" points="1825.86,-422.47 1828.48,-419.14 1824.36,-420.11 1825.86,-422.47"/>
</g>
<!-- n39 -->
<g id="node40" class="node">
<title>n39</title>
<polygon fill="none" stroke="black" points="2267,-418 2053,-418 2053,-397.25 2267,-397.25 2267,-418"/>
<text text-anchor="middle" x="2160" y="-404.5" font-family="Menlo" font-size="10.00">statement=labeledStatement[;·],13</text>
</g>
<!-- n26&#45;&gt;n39 -->
<g id="edge39" class="edge">
<title>n26&#45;&gt;n39</title>
<path fill="none" stroke="black" d="M2160,-453.59C2160,-445.26 2160,-433.16 2160,-423.61"/>
<polygon fill="black" stroke="black" points="2161.4,-423.84 2160,-419.84 2158.6,-423.84 2161.4,-423.84"/>
</g>
<!-- n40 -->
<g id="node41" class="node">
<title>n40</title>
<polygon fill="none" stroke="black" points="2618,-418 2356,-418 2356,-397.25 2618,-397.25 2618,-418"/>
<text text-anchor="middle" x="2487" y="-404.5" font-family="Menlo" font-size="10.00">statement=controlTransferStatement[;·],13</text>
</g>
<!-- n28&#45;&gt;n40 -->
<g id="edge40" class="edge">
<title>n28&#45;&gt;n40</title>
<path fill="none" stroke="black" d="M2574.87,-453.59C2556.92,-444.4 2530.01,-430.63 2510.7,-420.75"/>
<polygon fill="black" stroke="black" points="2511.51,-419.59 2507.31,-419.02 2510.23,-422.09 2511.51,-419.59"/>
</g>
<!-- n41 -->
<g id="node42" class="node">
<title>n41</title>
<polygon fill="none" stroke="black" points="2980,-418 2778,-418 2778,-397.25 2980,-397.25 2980,-418"/>
<text text-anchor="middle" x="2879" y="-404.5" font-family="Menlo" font-size="10.00">statement=deferStatement[;·],13</text>
</g>
<!-- n30&#45;&gt;n41 -->
<g id="edge41" class="edge">
<title>n30&#45;&gt;n41</title>
<path fill="none" stroke="black" d="M3035.85,-453.59C3002.82,-444.12 2952.8,-429.78 2918.17,-419.85"/>
<polygon fill="black" stroke="black" points="2918.86,-418.59 2914.63,-418.84 2918.09,-421.29 2918.86,-418.59"/>
</g>
<!-- n42 -->
<g id="node43" class="node">
<title>n42</title>
<polygon fill="none" stroke="black" points="3254,-418 3070,-418 3070,-397.25 3254,-397.25 3254,-418"/>
<text text-anchor="middle" x="3162" y="-404.5" font-family="Menlo" font-size="10.00">statement=doStatement[;·],13</text>
</g>
<!-- n32&#45;&gt;n42 -->
<g id="edge42" class="edge">
<title>n32&#45;&gt;n42</title>
<path fill="none" stroke="black" d="M3395.72,-453.52C3345.83,-443.94 3270.2,-429.41 3218.58,-419.49"/>
<polygon fill="black" stroke="black" points="3219.03,-418.15 3214.84,-418.78 3218.5,-420.9 3219.03,-418.15"/>
</g>
<!-- n34&#45;&gt;n17 -->
<g id="edge43" class="edge">
<title>n34&#45;&gt;n17</title>
<path fill="none" stroke="black" d="M895.44,-397.85C898.33,-397.64 901.19,-397.44 904,-397.25 1387.67,-365.41 1977.68,-354.66 2125.29,-352.38"/>
<polygon fill="black" stroke="black" points="2125.27,-353.78 2129.24,-352.31 2125.22,-350.98 2125.27,-353.78"/>
</g>
<!-- n35&#45;&gt;n17 -->
<g id="edge44" class="edge">
<title>n35&#45;&gt;n17</title>
<path fill="none" stroke="black" d="M1361.42,-400.83C1380.46,-399.64 1400.38,-398.4 1419,-397.25 1691.03,-380.42 2019.26,-360.43 2125.23,-353.99"/>
<polygon fill="black" stroke="black" points="2125.28,-355.39 2129.19,-353.75 2125.11,-352.59 2125.28,-355.39"/>
</g>
<!-- n43 -->
<g id="node44" class="node">
<title>n43</title>
<path fill="none" stroke="black" d="M1072.08,-361.25C1072.08,-361.25 949.92,-361.25 949.92,-361.25 946.46,-361.25 943,-357.79 943,-354.33 943,-354.33 943,-347.42 943,-347.42 943,-343.96 946.46,-340.5 949.92,-340.5 949.92,-340.5 1072.08,-340.5 1072.08,-340.5 1075.54,-340.5 1079,-343.96 1079,-347.42 1079,-347.42 1079,-354.33 1079,-354.33 1079,-357.79 1075.54,-361.25 1072.08,-361.25"/>
<text text-anchor="start" x="951" y="-347.75" font-family="Menlo" font-size="10.00">enumDeclaration,0,13</text>
</g>
<!-- n36&#45;&gt;n43 -->
<g id="edge45" class="edge">
<title>n36&#45;&gt;n43</title>
<path fill="none" stroke="black" d="M1011,-396.84C1011,-388.51 1011,-376.41 1011,-366.86"/>
<polygon fill="black" stroke="black" points="1012.4,-367.09 1011,-363.09 1009.6,-367.09 1012.4,-367.09"/>
</g>
<!-- n37&#45;&gt;n17 -->
<g id="edge46" class="edge">
<title>n37&#45;&gt;n17</title>
<path fill="none" stroke="black" d="M1624.37,-398.13C1768.79,-385.66 2031.25,-362.99 2125.31,-354.87"/>
<polygon fill="black" stroke="black" points="2125.35,-356.27 2129.22,-354.53 2125.11,-353.48 2125.35,-356.27"/>
</g>
<!-- n38&#45;&gt;n17 -->
<g id="edge47" class="edge">
<title>n38&#45;&gt;n17</title>
<path fill="none" stroke="black" d="M1901.68,-396.77C1966.75,-385.46 2071.44,-367.27 2125.39,-357.89"/>
<polygon fill="black" stroke="black" points="2125.57,-359.28 2129.27,-357.22 2125.09,-356.52 2125.57,-359.28"/>
</g>
<!-- n39&#45;&gt;n17 -->
<g id="edge48" class="edge">
<title>n39&#45;&gt;n17</title>
<path fill="none" stroke="black" d="M2160,-396.84C2160,-388.51 2160,-376.41 2160,-366.86"/>
<polygon fill="black" stroke="black" points="2161.4,-367.09 2160,-363.09 2158.6,-367.09 2161.4,-367.09"/>
</g>
<!-- n40&#45;&gt;n17 -->
<g id="edge49" class="edge">
<title>n40&#45;&gt;n17</title>
<path fill="none" stroke="black" d="M2428.16,-396.77C2360.12,-385.38 2250.34,-367 2194.71,-357.69"/>
<polygon fill="black" stroke="black" points="2195.17,-356.34 2190.99,-357.06 2194.71,-359.11 2195.17,-356.34"/>
</g>
<!-- n41&#45;&gt;n17 -->
<g id="edge50" class="edge">
<title>n41&#45;&gt;n17</title>
<path fill="none" stroke="black" d="M2777.51,-398.9C2613.79,-386.43 2299.2,-362.47 2194.7,-354.52"/>
<polygon fill="black" stroke="black" points="2194.9,-353.13 2190.8,-354.22 2194.68,-355.92 2194.9,-353.13"/>
</g>
<!-- n42&#45;&gt;n17 -->
<g id="edge51" class="edge">
<title>n42&#45;&gt;n17</title>
<path fill="none" stroke="black" d="M3069.53,-401.57C2855.48,-389.88 2333.57,-361.36 2194.52,-353.76"/>
<polygon fill="black" stroke="black" points="2194.93,-352.38 2190.86,-353.56 2194.77,-355.18 2194.93,-352.38"/>
</g>
<!-- n44 -->
<g id="node45" class="node">
<title>n44</title>
<polygon fill="none" stroke="black" points="1217,-304.5 805,-304.5 805,-283.75 1217,-283.75 1217,-304.5"/>
<text text-anchor="middle" x="1011" y="-291" font-family="Menlo" font-size="10.00">enumDeclaration=[attributes][accessLevelModifier]unionStyleEnum·,0</text>
</g>
<!-- n43&#45;&gt;n44 -->
<g id="edge52" class="edge">
<title>n43&#45;&gt;n44</title>
<path fill="none" stroke="black" d="M1011,-340.09C1011,-331.76 1011,-319.66 1011,-310.11"/>
<polygon fill="black" stroke="black" points="1012.4,-310.34 1011,-306.34 1009.6,-310.34 1012.4,-310.34"/>
</g>
<!-- n45 -->
<g id="node46" class="node">
<title>n45</title>
<path fill="none" stroke="black" d="M922.08,-247.75C922.08,-247.75 805.92,-247.75 805.92,-247.75 802.46,-247.75 799,-244.29 799,-240.83 799,-240.83 799,-233.92 799,-233.92 799,-230.46 802.46,-227 805.92,-227 805.92,-227 922.08,-227 922.08,-227 925.54,-227 929,-230.46 929,-233.92 929,-233.92 929,-240.83 929,-240.83 929,-244.29 925.54,-247.75 922.08,-247.75"/>
<text text-anchor="start" x="807" y="-234.25" font-family="Menlo" font-size="10.00">unionStyleEnum,0,13</text>
</g>
<!-- n44&#45;&gt;n45 -->
<g id="edge53" class="edge">
<title>n44&#45;&gt;n45</title>
<path fill="none" stroke="black" d="M984.72,-283.34C959.63,-273.99 921.83,-259.91 895.22,-250"/>
<polygon fill="black" stroke="black" points="895.71,-248.69 891.47,-248.61 894.73,-251.31 895.71,-248.69"/>
</g>
<!-- n46 -->
<g id="node47" class="node">
<title>n46</title>
<polygon fill="none" stroke="black" points="1539,-247.75 1115,-247.75 1115,-227 1539,-227 1539,-247.75"/>
<text text-anchor="start" x="1123" y="-234.25" font-family="Menlo" font-size="10.00">enumDeclaration=[attributes][accessLevelModifier]·unionStyleEnum,0,0</text>
</g>
<!-- n44&#45;&gt;n46 -->
<g id="edge54" class="edge">
<title>n44&#45;&gt;n46</title>
<path fill="none" stroke="black" d="M1067.86,-283.27C1123.4,-273.65 1207.71,-259.04 1264.96,-249.12"/>
<polygon fill="black" stroke="black" points="1264.87,-250.56 1268.57,-248.5 1264.39,-247.8 1264.87,-250.56"/>
</g>
<!-- n47 -->
<g id="node48" class="node">
<title>n47</title>
<polygon fill="none" stroke="black" points="1103,-191 289,-191 289,-170.25 1103,-170.25 1103,-191"/>
<text text-anchor="middle" x="696" y="-177.5" font-family="Menlo" font-size="10.00">unionStyleEnum=[indirect]enumenumName[genericParameterClause][typeInheritanceClause][genericWhereClause]{[unionStyleEnumMembers]}·,12</text>
</g>
<!-- n45&#45;&gt;n47 -->
<g id="edge55" class="edge">
<title>n45&#45;&gt;n47</title>
<path fill="none" stroke="black" d="M833.96,-226.59C805.15,-217.2 761.63,-203.01 731.2,-193.1"/>
<polygon fill="black" stroke="black" points="731.73,-191.8 727.5,-191.89 730.87,-194.46 731.73,-191.8"/>
</g>
<!-- n48 -->
<g id="node49" class="node">
<title>n48</title>
<polygon fill="none" stroke="black" points="1533,-191 1121,-191 1121,-170.25 1533,-170.25 1533,-191"/>
<text text-anchor="middle" x="1327" y="-177.5" font-family="Menlo" font-size="10.00">enumDeclaration=[attributes][accessLevelModifier]·unionStyleEnum,0</text>
</g>
<!-- n46&#45;&gt;n48 -->
<g id="edge56" class="edge">
<title>n46&#45;&gt;n48</title>
<path fill="none" stroke="black" d="M1321.68,-226.59C1320.08,-218.26 1319.82,-206.16 1320.91,-196.61"/>
<polygon fill="black" stroke="black" points="1322.27,-196.99 1321.48,-192.83 1319.5,-196.57 1322.27,-196.99"/>
</g>
<!-- n49 -->
<g id="node50" class="node">
<title>n49</title>
<path fill="none" stroke="black" d="M907.08,-134.25C907.08,-134.25 850.92,-134.25 850.92,-134.25 847.46,-134.25 844,-130.79 844,-127.33 844,-127.33 844,-120.42 844,-120.42 844,-116.96 847.46,-113.5 850.92,-113.5 850.92,-113.5 907.08,-113.5 907.08,-113.5 910.54,-113.5 914,-116.96 914,-120.42 914,-120.42 914,-127.33 914,-127.33 914,-130.79 910.54,-134.25 907.08,-134.25"/>
<text text-anchor="start" x="852" y="-120.75" font-family="Menlo" font-size="10.00">&quot;}&quot;,12,13</text>
</g>
<!-- n47&#45;&gt;n49 -->
<g id="edge58" class="edge">
<title>n47&#45;&gt;n49</title>
<path fill="none" stroke="black" d="M728.72,-169.84C760.24,-160.41 807.9,-146.15 841.06,-136.22"/>
<polygon fill="black" stroke="black" points="841.38,-137.59 844.81,-135.1 840.58,-134.91 841.38,-137.59"/>
</g>
<!-- n50 -->
<g id="node51" class="node">
<title>n50</title>
<polygon fill="none" stroke="black" points="826,-134.25 0,-134.25 0,-113.5 826,-113.5 826,-134.25"/>
<text text-anchor="start" x="8" y="-120.75" font-family="Menlo" font-size="10.00">unionStyleEnum=[indirect]enumenumName[genericParameterClause][typeInheritanceClause][genericWhereClause]{[unionStyleEnumMembers]·},0,12</text>
</g>
<!-- n47&#45;&gt;n50 -->
<g id="edge57" class="edge">
<title>n47&#45;&gt;n50</title>
<path fill="none" stroke="black" d="M645.08,-169.77C595.54,-160.19 520.44,-145.66 469.18,-135.74"/>
<polygon fill="black" stroke="black" points="469.67,-134.41 465.48,-135.03 469.14,-137.16 469.67,-134.41"/>
</g>
<!-- n48&#45;&gt;n46 -->
<g id="edge59" class="edge">
<title>n48&#45;&gt;n46</title>
<path fill="none" stroke="black" d="M1332.3,-191.33C1333.91,-199.63 1334.18,-211.73 1333.1,-221.29"/>
<polygon fill="black" stroke="black" points="1331.74,-220.93 1332.54,-225.09 1334.51,-221.34 1331.74,-220.93"/>
</g>
<!-- n51 -->
<g id="node52" class="node">
<title>n51</title>
<polygon fill="none" stroke="black" points="1539,-134.25 1115,-134.25 1115,-113.5 1539,-113.5 1539,-134.25"/>
<text text-anchor="start" x="1123" y="-120.75" font-family="Menlo" font-size="10.00">enumDeclaration=[attributes·][accessLevelModifier]unionStyleEnum,0,0</text>
</g>
<!-- n48&#45;&gt;n51 -->
<g id="edge60" class="edge">
<title>n48&#45;&gt;n51</title>
<path fill="none" stroke="black" d="M1327,-169.84C1327,-161.51 1327,-149.41 1327,-139.86"/>
<polygon fill="black" stroke="black" points="1328.4,-140.09 1327,-136.09 1325.6,-140.09 1328.4,-140.09"/>
</g>
<!-- n52 -->
<g id="node53" class="node">
<title>n52</title>
<polygon fill="none" stroke="black" points="1533,-77.5 1121,-77.5 1121,-56.75 1533,-56.75 1533,-77.5"/>
<text text-anchor="middle" x="1327" y="-64" font-family="Menlo" font-size="10.00">enumDeclaration=[attributes·][accessLevelModifier]unionStyleEnum,0</text>
</g>
<!-- n51&#45;&gt;n52 -->
<g id="edge61" class="edge">
<title>n51&#45;&gt;n52</title>
<path fill="none" stroke="black" d="M1327,-113.09C1327,-104.76 1327,-92.66 1327,-83.11"/>
<polygon fill="black" stroke="black" points="1328.4,-83.34 1327,-79.34 1325.6,-83.34 1328.4,-83.34"/>
</g>
<!-- n53 -->
<g id="node54" class="node">
<title>n53</title>
<path fill="none" stroke="black" stroke-dasharray="5,2" d="M1343.08,-20.75C1343.08,-20.75 1310.92,-20.75 1310.92,-20.75 1307.46,-20.75 1304,-17.29 1304,-13.83 1304,-13.83 1304,-6.92 1304,-6.92 1304,-3.46 1307.46,0 1310.92,0 1310.92,0 1343.08,0 1343.08,0 1346.54,0 1350,-3.46 1350,-6.92 1350,-6.92 1350,-13.83 1350,-13.83 1350,-17.29 1346.54,-20.75 1343.08,-20.75"/>
<text text-anchor="start" x="1312" y="-7.25" font-family="Menlo" font-size="10.00">ε,0,0</text>
</g>
<!-- n52&#45;&gt;n53 -->
<g id="edge62" class="edge">
<title>n52&#45;&gt;n53</title>
<path fill="none" stroke="black" d="M1327,-56.34C1327,-48.01 1327,-35.91 1327,-26.36"/>
<polygon fill="black" stroke="black" points="1328.4,-26.59 1327,-22.59 1325.6,-26.59 1328.4,-26.59"/>
</g>
</g>
</svg>
