<?xml version="1.0" encoding="UTF-8" standalone="no"?>
<!DOCTYPE svg PUBLIC "-//W3C//DTD SVG 1.1//EN"
 "http://www.w3.org/Graphics/SVG/1.1/DTD/svg11.dtd">
<!-- Generated by graphviz version 9.0.0 (20230911.1827)
 -->
<!-- Title: SPPF Pages: 1 -->
<svg width="190pt" height="369pt"
 viewBox="0.00 0.00 190.00 369.25" xmlns="http://www.w3.org/2000/svg" xmlns:xlink="http://www.w3.org/1999/xlink">
<g id="graph0" class="graph" transform="scale(1 1) rotate(0) translate(4 365.25)">
<title>SPPF</title>
<polygon fill="white" stroke="none" points="-4,4 -4,-365.25 186,-365.25 186,4 -4,4"/>
<!-- n0 -->
<g id="node1" class="node">
<title>n0</title>
<path fill="none" stroke="black" d="M95.08,-361.25C95.08,-361.25 62.92,-361.25 62.92,-361.25 59.46,-361.25 56,-357.79 56,-354.33 56,-354.33 56,-347.42 56,-347.42 56,-343.96 59.46,-340.5 62.92,-340.5 62.92,-340.5 95.08,-340.5 95.08,-340.5 98.54,-340.5 102,-343.96 102,-347.42 102,-347.42 102,-354.33 102,-354.33 102,-357.79 98.54,-361.25 95.08,-361.25"/>
<text text-anchor="start" x="64" y="-347.75" font-family="Menlo" font-size="10.00">S,0,2</text>
</g>
<!-- n1 -->
<g id="node2" class="node">
<title>n1</title>
<polygon fill="none" stroke="black" points="117,-304.5 41,-304.5 41,-283.75 117,-283.75 117,-304.5"/>
<text text-anchor="middle" x="79" y="-291" font-family="Menlo" font-size="10.00">S=·&lt;x|ε&gt;,0</text>
</g>
<!-- n0&#45;&gt;n1 -->
<g id="edge1" class="edge">
<title>n0&#45;&gt;n1</title>
<path fill="none" stroke="black" d="M79,-340.09C79,-331.76 79,-319.66 79,-310.11"/>
<polygon fill="black" stroke="black" points="80.4,-310.34 79,-306.34 77.6,-310.34 80.4,-310.34"/>
</g>
<!-- n2 -->
<g id="node3" class="node">
<title>n2</title>
<path fill="none" stroke="black" d="M125.08,-247.75C125.08,-247.75 32.92,-247.75 32.92,-247.75 29.46,-247.75 26,-244.29 26,-240.83 26,-240.83 26,-233.92 26,-233.92 26,-230.46 29.46,-227 32.92,-227 32.92,-227 125.08,-227 125.08,-227 128.54,-227 132,-230.46 132,-233.92 132,-233.92 132,-240.83 132,-240.83 132,-244.29 128.54,-247.75 125.08,-247.75"/>
<text text-anchor="start" x="34" y="-234.25" font-family="Menlo" font-size="10.00">{} S=·&lt;x|ε&gt;,0,2</text>
</g>
<!-- n1&#45;&gt;n2 -->
<g id="edge2" class="edge">
<title>n1&#45;&gt;n2</title>
<path fill="none" stroke="black" d="M79,-283.34C79,-275.01 79,-262.91 79,-253.36"/>
<polygon fill="black" stroke="black" points="80.4,-253.59 79,-249.59 77.6,-253.59 80.4,-253.59"/>
</g>
<!-- n3 -->
<g id="node4" class="node">
<title>n3</title>
<polygon fill="none" stroke="black" points="117,-191 41,-191 41,-170.25 117,-170.25 117,-191"/>
<text text-anchor="middle" x="79" y="-177.5" font-family="Menlo" font-size="10.00">S=·&lt;x|ε&gt;,1</text>
</g>
<!-- n2&#45;&gt;n3 -->
<g id="edge3" class="edge">
<title>n2&#45;&gt;n3</title>
<path fill="none" stroke="black" d="M79,-226.59C79,-218.26 79,-206.16 79,-196.61"/>
<polygon fill="black" stroke="black" points="80.4,-196.84 79,-192.84 77.6,-196.84 80.4,-196.84"/>
</g>
<!-- n4 -->
<g id="node5" class="node">
<title>n4</title>
<path fill="none" stroke="black" d="M51.08,-134.25C51.08,-134.25 6.92,-134.25 6.92,-134.25 3.46,-134.25 0,-130.79 0,-127.33 0,-127.33 0,-120.42 0,-120.42 0,-116.96 3.46,-113.5 6.92,-113.5 6.92,-113.5 51.08,-113.5 51.08,-113.5 54.54,-113.5 58,-116.96 58,-120.42 58,-120.42 58,-127.33 58,-127.33 58,-130.79 54.54,-134.25 51.08,-134.25"/>
<text text-anchor="start" x="8" y="-120.75" font-family="Menlo" font-size="10.00">&quot;x&quot;,1,2</text>
</g>
<!-- n3&#45;&gt;n4 -->
<g id="edge4" class="edge">
<title>n3&#45;&gt;n4</title>
<path fill="none" stroke="black" d="M70.06,-169.84C62.1,-161.12 50.36,-148.27 41.48,-138.54"/>
<polygon fill="black" stroke="black" points="42.61,-137.71 38.88,-135.7 40.55,-139.59 42.61,-137.71"/>
</g>
<!-- n5 -->
<g id="node6" class="node">
<title>n5</title>
<path fill="none" stroke="black" d="M175.08,-134.25C175.08,-134.25 82.92,-134.25 82.92,-134.25 79.46,-134.25 76,-130.79 76,-127.33 76,-127.33 76,-120.42 76,-120.42 76,-116.96 79.46,-113.5 82.92,-113.5 82.92,-113.5 175.08,-113.5 175.08,-113.5 178.54,-113.5 182,-116.96 182,-120.42 182,-120.42 182,-127.33 182,-127.33 182,-130.79 178.54,-134.25 175.08,-134.25"/>
<text text-anchor="start" x="84" y="-120.75" font-family="Menlo" font-size="10.00">{} S=·&lt;x|ε&gt;,0,1</text>
</g>
<!-- n3&#45;&gt;n5 -->
<g id="edge5" class="edge">
<title>n3&#45;&gt;n5</title>
<path fill="none" stroke="black" d="M87.94,-169.84C95.9,-161.12 107.64,-148.27 116.52,-138.54"/>
<polygon fill="black" stroke="black" points="117.45,-139.59 119.12,-135.7 115.39,-137.71 117.45,-139.59"/>
</g>
<!-- n6 -->
<g id="node7" class="node">
<title>n6</title>
<polygon fill="none" stroke="black" points="167,-77.5 91,-77.5 91,-56.75 167,-56.75 167,-77.5"/>
<text text-anchor="middle" x="129" y="-64" font-family="Menlo" font-size="10.00">S=&lt;x·|ε&gt;,0</text>
</g>
<!-- n5&#45;&gt;n6 -->
<g id="edge6" class="edge">
<title>n5&#45;&gt;n6</title>
<path fill="none" stroke="black" d="M129,-113.09C129,-104.76 129,-92.66 129,-83.11"/>
<polygon fill="black" stroke="black" points="130.4,-83.34 129,-79.34 127.6,-83.34 130.4,-83.34"/>
</g>
<!-- n7 -->
<g id="node8" class="node">
<title>n7</title>
<path fill="none" stroke="black" d="M151.08,-20.75C151.08,-20.75 106.92,-20.75 106.92,-20.75 103.46,-20.75 100,-17.29 100,-13.83 100,-13.83 100,-6.92 100,-6.92 100,-3.46 103.46,0 106.92,0 106.92,0 151.08,0 151.08,0 154.54,0 158,-3.46 158,-6.92 158,-6.92 158,-13.83 158,-13.83 158,-17.29 154.54,-20.75 151.08,-20.75"/>
<text text-anchor="start" x="108" y="-7.25" font-family="Menlo" font-size="10.00">&quot;x&quot;,0,1</text>
</g>
<!-- n6&#45;&gt;n7 -->
<g id="edge7" class="edge">
<title>n6&#45;&gt;n7</title>
<path fill="none" stroke="black" d="M129,-56.34C129,-48.01 129,-35.91 129,-26.36"/>
<polygon fill="black" stroke="black" points="130.4,-26.59 129,-22.59 127.6,-26.59 130.4,-26.59"/>
</g>
</g>
</svg>
