<?xml version="1.0" encoding="UTF-8" standalone="no"?>
<!DOCTYPE svg PUBLIC "-//W3C//DTD SVG 1.1//EN"
 "http://www.w3.org/Graphics/SVG/1.1/DTD/svg11.dtd">
<!-- Generated by graphviz version 9.0.0 (20230911.1827)
 -->
<!-- Title: SPPF Pages: 1 -->
<svg width="2184pt" height="2412pt"
 viewBox="0.00 0.00 2184.00 2412.25" xmlns="http://www.w3.org/2000/svg" xmlns:xlink="http://www.w3.org/1999/xlink">
<g id="graph0" class="graph" transform="scale(1 1) rotate(0) translate(4 2408.25)">
<title>SPPF</title>
<polygon fill="white" stroke="none" points="-4,4 -4,-2408.25 2180,-2408.25 2180,4 -4,4"/>
<!-- n0 -->
<g id="node1" class="node">
<title>n0</title>
<path fill="none" stroke="black" d="M1927.08,-2404.25C1927.08,-2404.25 1786.92,-2404.25 1786.92,-2404.25 1783.46,-2404.25 1780,-2400.79 1780,-2397.33 1780,-2397.33 1780,-2390.42 1780,-2390.42 1780,-2386.96 1783.46,-2383.5 1786.92,-2383.5 1786.92,-2383.5 1927.08,-2383.5 1927.08,-2383.5 1930.54,-2383.5 1934,-2386.96 1934,-2390.42 1934,-2390.42 1934,-2397.33 1934,-2397.33 1934,-2400.79 1930.54,-2404.25 1927.08,-2404.25"/>
<text text-anchor="start" x="1788" y="-2390.75" font-family="Menlo" font-size="10.00">topLevelDeclaration,0,4</text>
</g>
<!-- n1 -->
<g id="node2" class="node">
<title>n1</title>
<polygon fill="none" stroke="black" points="1970,-2347.5 1744,-2347.5 1744,-2326.75 1970,-2326.75 1970,-2347.5"/>
<text text-anchor="middle" x="1857" y="-2334" font-family="Menlo" font-size="10.00">topLevelDeclaration=[statements]·,0</text>
</g>
<!-- n0&#45;&gt;n1 -->
<g id="edge1" class="edge">
<title>n0&#45;&gt;n1</title>
<path fill="none" stroke="black" d="M1857,-2383.09C1857,-2374.76 1857,-2362.66 1857,-2353.11"/>
<polygon fill="black" stroke="black" points="1858.4,-2353.34 1857,-2349.34 1855.6,-2353.34 1858.4,-2353.34"/>
</g>
<!-- n2 -->
<g id="node3" class="node">
<title>n2</title>
<polygon fill="none" stroke="black" points="1976,-2290.75 1738,-2290.75 1738,-2270 1976,-2270 1976,-2290.75"/>
<text text-anchor="start" x="1746" y="-2277.25" font-family="Menlo" font-size="10.00">topLevelDeclaration=[statements·],0,4</text>
</g>
<!-- n1&#45;&gt;n2 -->
<g id="edge2" class="edge">
<title>n1&#45;&gt;n2</title>
<path fill="none" stroke="black" d="M1857,-2326.34C1857,-2318.01 1857,-2305.91 1857,-2296.36"/>
<polygon fill="black" stroke="black" points="1858.4,-2296.59 1857,-2292.59 1855.6,-2296.59 1858.4,-2296.59"/>
</g>
<!-- n3 -->
<g id="node4" class="node">
<title>n3</title>
<polygon fill="none" stroke="black" points="1970,-2234 1744,-2234 1744,-2213.25 1970,-2213.25 1970,-2234"/>
<text text-anchor="middle" x="1857" y="-2220.5" font-family="Menlo" font-size="10.00">topLevelDeclaration=[statements·],0</text>
</g>
<!-- n2&#45;&gt;n3 -->
<g id="edge3" class="edge">
<title>n2&#45;&gt;n3</title>
<path fill="none" stroke="black" d="M1857,-2269.59C1857,-2261.26 1857,-2249.16 1857,-2239.61"/>
<polygon fill="black" stroke="black" points="1858.4,-2239.84 1857,-2235.84 1855.6,-2239.84 1858.4,-2239.84"/>
</g>
<!-- n4 -->
<g id="node5" class="node">
<title>n4</title>
<path fill="none" stroke="black" d="M1900.08,-2177.25C1900.08,-2177.25 1813.92,-2177.25 1813.92,-2177.25 1810.46,-2177.25 1807,-2173.79 1807,-2170.33 1807,-2170.33 1807,-2163.42 1807,-2163.42 1807,-2159.96 1810.46,-2156.5 1813.92,-2156.5 1813.92,-2156.5 1900.08,-2156.5 1900.08,-2156.5 1903.54,-2156.5 1907,-2159.96 1907,-2163.42 1907,-2163.42 1907,-2170.33 1907,-2170.33 1907,-2173.79 1903.54,-2177.25 1900.08,-2177.25"/>
<text text-anchor="start" x="1815" y="-2163.75" font-family="Menlo" font-size="10.00">statements,0,4</text>
</g>
<!-- n3&#45;&gt;n4 -->
<g id="edge4" class="edge">
<title>n3&#45;&gt;n4</title>
<path fill="none" stroke="black" d="M1857,-2212.84C1857,-2204.51 1857,-2192.41 1857,-2182.86"/>
<polygon fill="black" stroke="black" points="1858.4,-2183.09 1857,-2179.09 1855.6,-2183.09 1858.4,-2183.09"/>
</g>
<!-- n5 -->
<g id="node6" class="node">
<title>n5</title>
<polygon fill="none" stroke="black" points="1943,-2120.5 1771,-2120.5 1771,-2099.75 1943,-2099.75 1943,-2120.5"/>
<text text-anchor="middle" x="1857" y="-2107" font-family="Menlo" font-size="10.00">statements=statement[;]·,4</text>
</g>
<!-- n4&#45;&gt;n5 -->
<g id="edge5" class="edge">
<title>n4&#45;&gt;n5</title>
<path fill="none" stroke="black" d="M1857,-2156.09C1857,-2147.76 1857,-2135.66 1857,-2126.11"/>
<polygon fill="black" stroke="black" points="1858.4,-2126.34 1857,-2122.34 1855.6,-2126.34 1858.4,-2126.34"/>
</g>
<!-- n6 -->
<g id="node7" class="node">
<title>n6</title>
<polygon fill="none" stroke="black" points="2028,-2063.75 1844,-2063.75 1844,-2043 2028,-2043 2028,-2063.75"/>
<text text-anchor="start" x="1852" y="-2050.25" font-family="Menlo" font-size="10.00">statements=statement[;·],4,4</text>
</g>
<!-- n5&#45;&gt;n6 -->
<g id="edge7" class="edge">
<title>n5&#45;&gt;n6</title>
<path fill="none" stroke="black" d="M1871.12,-2099.34C1884.16,-2090.31 1903.58,-2076.85 1917.77,-2067.01"/>
<polygon fill="black" stroke="black" points="1918.26,-2068.37 1920.75,-2064.94 1916.67,-2066.07 1918.26,-2068.37"/>
</g>
<!-- n7 -->
<g id="node8" class="node">
<title>n7</title>
<path fill="none" stroke="black" d="M1819.08,-2063.75C1819.08,-2063.75 1738.92,-2063.75 1738.92,-2063.75 1735.46,-2063.75 1732,-2060.29 1732,-2056.83 1732,-2056.83 1732,-2049.92 1732,-2049.92 1732,-2046.46 1735.46,-2043 1738.92,-2043 1738.92,-2043 1819.08,-2043 1819.08,-2043 1822.54,-2043 1826,-2046.46 1826,-2049.92 1826,-2049.92 1826,-2056.83 1826,-2056.83 1826,-2060.29 1822.54,-2063.75 1819.08,-2063.75"/>
<text text-anchor="start" x="1740" y="-2050.25" font-family="Menlo" font-size="10.00">statement,0,4</text>
</g>
<!-- n5&#45;&gt;n7 -->
<g id="edge6" class="edge">
<title>n5&#45;&gt;n7</title>
<path fill="none" stroke="black" d="M1843.06,-2099.34C1830.19,-2090.31 1811.01,-2076.85 1797,-2067.01"/>
<polygon fill="black" stroke="black" points="1798.14,-2066.1 1794.06,-2064.95 1796.53,-2068.39 1798.14,-2066.1"/>
</g>
<!-- n8 -->
<g id="node9" class="node">
<title>n8</title>
<polygon fill="none" stroke="black" points="2142,-1950.25 1970,-1950.25 1970,-1929.5 2142,-1929.5 2142,-1950.25"/>
<text text-anchor="middle" x="2056" y="-1936.75" font-family="Menlo" font-size="10.00">statements=statement[;·],4</text>
</g>
<!-- n6&#45;&gt;n8 -->
<g id="edge8" class="edge">
<title>n6&#45;&gt;n8</title>
<path fill="none" stroke="black" d="M1946.23,-2042.87C1967.56,-2023.05 2016.81,-1977.29 2041.44,-1954.41"/>
<polygon fill="black" stroke="black" points="2042.37,-1955.45 2044.34,-1951.71 2040.46,-1953.4 2042.37,-1955.45"/>
</g>
<!-- n9 -->
<g id="node10" class="node">
<title>n9</title>
<polygon fill="none" stroke="black" points="1859,-2007 1699,-2007 1699,-1986.25 1859,-1986.25 1859,-2007"/>
<text text-anchor="middle" x="1779" y="-1993.5" font-family="Menlo" font-size="10.00">statement=declaration·,0</text>
</g>
<!-- n7&#45;&gt;n9 -->
<g id="edge9" class="edge">
<title>n7&#45;&gt;n9</title>
<path fill="none" stroke="black" d="M1779,-2042.59C1779,-2034.26 1779,-2022.16 1779,-2012.61"/>
<polygon fill="black" stroke="black" points="1780.4,-2012.84 1779,-2008.84 1777.6,-2012.84 1780.4,-2012.84"/>
</g>
<!-- n10 -->
<g id="node11" class="node">
<title>n10</title>
<path fill="none" stroke="black" stroke-dasharray="5,2" d="M1917.08,-588.25C1917.08,-588.25 1884.92,-588.25 1884.92,-588.25 1881.46,-588.25 1878,-584.79 1878,-581.33 1878,-581.33 1878,-574.42 1878,-574.42 1878,-570.96 1881.46,-567.5 1884.92,-567.5 1884.92,-567.5 1917.08,-567.5 1917.08,-567.5 1920.54,-567.5 1924,-570.96 1924,-574.42 1924,-574.42 1924,-581.33 1924,-581.33 1924,-584.79 1920.54,-588.25 1917.08,-588.25"/>
<text text-anchor="start" x="1886" y="-574.75" font-family="Menlo" font-size="10.00">ε,4,4</text>
</g>
<!-- n8&#45;&gt;n10 -->
<g id="edge10" class="edge">
<title>n8&#45;&gt;n10</title>
<path fill="none" stroke="black" d="M2080.86,-1929.03C2116.01,-1913.27 2176,-1878.85 2176,-1827.38 2176,-1827.38 2176,-1827.38 2176,-690.38 2176,-637.65 2000.23,-597.96 1929.74,-584.17"/>
<polygon fill="black" stroke="black" points="1930.13,-582.82 1925.93,-583.43 1929.59,-585.57 1930.13,-582.82"/>
</g>
<!-- n11 -->
<g id="node12" class="node">
<title>n11</title>
<path fill="none" stroke="black" d="M1825.08,-1950.25C1825.08,-1950.25 1732.92,-1950.25 1732.92,-1950.25 1729.46,-1950.25 1726,-1946.79 1726,-1943.33 1726,-1943.33 1726,-1936.42 1726,-1936.42 1726,-1932.96 1729.46,-1929.5 1732.92,-1929.5 1732.92,-1929.5 1825.08,-1929.5 1825.08,-1929.5 1828.54,-1929.5 1832,-1932.96 1832,-1936.42 1832,-1936.42 1832,-1943.33 1832,-1943.33 1832,-1946.79 1828.54,-1950.25 1825.08,-1950.25"/>
<text text-anchor="start" x="1734" y="-1936.75" font-family="Menlo" font-size="10.00">declaration,0,4</text>
</g>
<!-- n9&#45;&gt;n11 -->
<g id="edge11" class="edge">
<title>n9&#45;&gt;n11</title>
<path fill="none" stroke="black" d="M1779,-1985.84C1779,-1977.51 1779,-1965.41 1779,-1955.86"/>
<polygon fill="black" stroke="black" points="1780.4,-1956.09 1779,-1952.09 1777.6,-1956.09 1780.4,-1956.09"/>
</g>
<!-- n12 -->
<g id="node13" class="node">
<title>n12</title>
<polygon fill="none" stroke="black" points="1796,-1893.5 1576,-1893.5 1576,-1872.75 1796,-1872.75 1796,-1893.5"/>
<text text-anchor="middle" x="1686" y="-1880" font-family="Menlo" font-size="10.00">declaration=constantDeclaration·,0</text>
</g>
<!-- n11&#45;&gt;n12 -->
<g id="edge12" class="edge">
<title>n11&#45;&gt;n12</title>
<path fill="none" stroke="black" d="M1762.37,-1929.09C1746.9,-1919.98 1723.77,-1906.36 1707.03,-1896.5"/>
<polygon fill="black" stroke="black" points="1707.94,-1895.42 1703.79,-1894.6 1706.52,-1897.83 1707.94,-1895.42"/>
</g>
<!-- n13 -->
<g id="node14" class="node">
<title>n13</title>
<path fill="none" stroke="black" d="M1710.08,-1836.75C1710.08,-1836.75 1569.92,-1836.75 1569.92,-1836.75 1566.46,-1836.75 1563,-1833.29 1563,-1829.83 1563,-1829.83 1563,-1822.92 1563,-1822.92 1563,-1819.46 1566.46,-1816 1569.92,-1816 1569.92,-1816 1710.08,-1816 1710.08,-1816 1713.54,-1816 1717,-1819.46 1717,-1822.92 1717,-1822.92 1717,-1829.83 1717,-1829.83 1717,-1833.29 1713.54,-1836.75 1710.08,-1836.75"/>
<text text-anchor="start" x="1571" y="-1823.25" font-family="Menlo" font-size="10.00">constantDeclaration,0,4</text>
</g>
<!-- n12&#45;&gt;n13 -->
<g id="edge13" class="edge">
<title>n12&#45;&gt;n13</title>
<path fill="none" stroke="black" d="M1677.78,-1872.34C1670.52,-1863.69 1659.85,-1851 1651.7,-1841.3"/>
<polygon fill="black" stroke="black" points="1652.77,-1840.4 1649.13,-1838.24 1650.63,-1842.2 1652.77,-1840.4"/>
</g>
<!-- n14 -->
<g id="node15" class="node">
<title>n14</title>
<polygon fill="none" stroke="black" points="1871,-1780 1363,-1780 1363,-1759.25 1871,-1759.25 1871,-1780"/>
<text text-anchor="middle" x="1617" y="-1766.5" font-family="Menlo" font-size="10.00">constantDeclaration=[attributes][declarationModifiers]letpatternInitializerList·,1</text>
</g>
<!-- n13&#45;&gt;n14 -->
<g id="edge14" class="edge">
<title>n13&#45;&gt;n14</title>
<path fill="none" stroke="black" d="M1635.89,-1815.59C1632.36,-1807.18 1627.21,-1794.93 1623.18,-1785.34"/>
<polygon fill="black" stroke="black" points="1624.5,-1784.87 1621.66,-1781.72 1621.92,-1785.95 1624.5,-1784.87"/>
</g>
<!-- n15 -->
<g id="node16" class="node">
<title>n15</title>
<path fill="none" stroke="black" d="M1696.08,-1723.25C1696.08,-1723.25 1537.92,-1723.25 1537.92,-1723.25 1534.46,-1723.25 1531,-1719.79 1531,-1716.33 1531,-1716.33 1531,-1709.42 1531,-1709.42 1531,-1705.96 1534.46,-1702.5 1537.92,-1702.5 1537.92,-1702.5 1696.08,-1702.5 1696.08,-1702.5 1699.54,-1702.5 1703,-1705.96 1703,-1709.42 1703,-1709.42 1703,-1716.33 1703,-1716.33 1703,-1719.79 1699.54,-1723.25 1696.08,-1723.25"/>
<text text-anchor="start" x="1539" y="-1709.75" font-family="Menlo" font-size="10.00">patternInitializerList,1,4</text>
</g>
<!-- n14&#45;&gt;n15 -->
<g id="edge16" class="edge">
<title>n14&#45;&gt;n15</title>
<path fill="none" stroke="black" d="M1617,-1758.84C1617,-1750.51 1617,-1738.41 1617,-1728.86"/>
<polygon fill="black" stroke="black" points="1618.4,-1729.09 1617,-1725.09 1615.6,-1729.09 1618.4,-1729.09"/>
</g>
<!-- n16 -->
<g id="node17" class="node">
<title>n16</title>
<polygon fill="none" stroke="black" points="1181,-1723.25 661,-1723.25 661,-1702.5 1181,-1702.5 1181,-1723.25"/>
<text text-anchor="start" x="669" y="-1709.75" font-family="Menlo" font-size="10.00">constantDeclaration=[attributes][declarationModifiers]let·patternInitializerList,0,1</text>
</g>
<!-- n14&#45;&gt;n16 -->
<g id="edge15" class="edge">
<title>n14&#45;&gt;n16</title>
<path fill="none" stroke="black" d="M1491.77,-1758.77C1367.47,-1749 1177.75,-1734.07 1051.61,-1724.15"/>
<polygon fill="black" stroke="black" points="1052.01,-1722.78 1047.91,-1723.86 1051.79,-1725.57 1052.01,-1722.78"/>
</g>
<!-- n17 -->
<g id="node18" class="node">
<title>n17</title>
<polygon fill="none" stroke="black" points="1757,-1666.5 1477,-1666.5 1477,-1645.75 1757,-1645.75 1757,-1666.5"/>
<text text-anchor="middle" x="1617" y="-1653" font-family="Menlo" font-size="10.00">patternInitializerList=patternInitializer·,1</text>
</g>
<!-- n15&#45;&gt;n17 -->
<g id="edge17" class="edge">
<title>n15&#45;&gt;n17</title>
<path fill="none" stroke="black" d="M1617,-1702.09C1617,-1693.76 1617,-1681.66 1617,-1672.11"/>
<polygon fill="black" stroke="black" points="1618.4,-1672.34 1617,-1668.34 1615.6,-1672.34 1618.4,-1672.34"/>
</g>
<!-- n18 -->
<g id="node19" class="node">
<title>n18</title>
<polygon fill="none" stroke="black" points="1175,-1666.5 667,-1666.5 667,-1645.75 1175,-1645.75 1175,-1666.5"/>
<text text-anchor="middle" x="921" y="-1653" font-family="Menlo" font-size="10.00">constantDeclaration=[attributes][declarationModifiers]let·patternInitializerList,0</text>
</g>
<!-- n16&#45;&gt;n18 -->
<g id="edge18" class="edge">
<title>n16&#45;&gt;n18</title>
<path fill="none" stroke="black" d="M915.68,-1702.09C914.08,-1693.76 913.82,-1681.66 914.91,-1672.11"/>
<polygon fill="black" stroke="black" points="916.27,-1672.49 915.48,-1668.33 913.5,-1672.07 916.27,-1672.49"/>
</g>
<!-- n19 -->
<g id="node20" class="node">
<title>n19</title>
<path fill="none" stroke="black" d="M1684.08,-1609.75C1684.08,-1609.75 1549.92,-1609.75 1549.92,-1609.75 1546.46,-1609.75 1543,-1606.29 1543,-1602.83 1543,-1602.83 1543,-1595.92 1543,-1595.92 1543,-1592.46 1546.46,-1589 1549.92,-1589 1549.92,-1589 1684.08,-1589 1684.08,-1589 1687.54,-1589 1691,-1592.46 1691,-1595.92 1691,-1595.92 1691,-1602.83 1691,-1602.83 1691,-1606.29 1687.54,-1609.75 1684.08,-1609.75"/>
<text text-anchor="start" x="1551" y="-1596.25" font-family="Menlo" font-size="10.00">patternInitializer,1,4</text>
</g>
<!-- n17&#45;&gt;n19 -->
<g id="edge19" class="edge">
<title>n17&#45;&gt;n19</title>
<path fill="none" stroke="black" d="M1617,-1645.34C1617,-1637.01 1617,-1624.91 1617,-1615.36"/>
<polygon fill="black" stroke="black" points="1618.4,-1615.59 1617,-1611.59 1615.6,-1615.59 1618.4,-1615.59"/>
</g>
<!-- n18&#45;&gt;n16 -->
<g id="edge20" class="edge">
<title>n18&#45;&gt;n16</title>
<path fill="none" stroke="black" d="M926.3,-1666.83C927.91,-1675.13 928.18,-1687.23 927.1,-1696.79"/>
<polygon fill="black" stroke="black" points="925.74,-1696.43 926.54,-1700.59 928.51,-1696.84 925.74,-1696.43"/>
</g>
<!-- n20 -->
<g id="node21" class="node">
<title>n20</title>
<polygon fill="none" stroke="black" points="897,-1609.75 377,-1609.75 377,-1589 897,-1589 897,-1609.75"/>
<text text-anchor="start" x="385" y="-1596.25" font-family="Menlo" font-size="10.00">constantDeclaration=[attributes][declarationModifiers]·letpatternInitializerList,0,0</text>
</g>
<!-- n18&#45;&gt;n20 -->
<g id="edge21" class="edge">
<title>n18&#45;&gt;n20</title>
<path fill="none" stroke="black" d="M869.9,-1645.27C820.18,-1635.69 744.82,-1621.16 693.38,-1611.24"/>
<polygon fill="black" stroke="black" points="693.85,-1609.91 689.66,-1610.53 693.32,-1612.66 693.85,-1609.91"/>
</g>
<!-- n21 -->
<g id="node22" class="node">
<title>n21</title>
<polygon fill="none" stroke="black" points="1608,-1553 1298,-1553 1298,-1532.25 1608,-1532.25 1608,-1553"/>
<text text-anchor="middle" x="1453" y="-1539.5" font-family="Menlo" font-size="10.00">patternInitializer=bindingPattern[initializer]·,2</text>
</g>
<!-- n19&#45;&gt;n21 -->
<g id="edge22" class="edge">
<title>n19&#45;&gt;n21</title>
<path fill="none" stroke="black" d="M1587.68,-1588.59C1559.55,-1579.2 1517.07,-1565.01 1487.36,-1555.1"/>
<polygon fill="black" stroke="black" points="1488.02,-1553.84 1483.78,-1553.9 1487.13,-1556.49 1488.02,-1553.84"/>
</g>
<!-- n22 -->
<g id="node23" class="node">
<title>n22</title>
<polygon fill="none" stroke="black" points="1936,-1553 1626,-1553 1626,-1532.25 1936,-1532.25 1936,-1553"/>
<text text-anchor="middle" x="1781" y="-1539.5" font-family="Menlo" font-size="10.00">patternInitializer=bindingPattern[initializer]·,4</text>
</g>
<!-- n19&#45;&gt;n22 -->
<g id="edge23" class="edge">
<title>n19&#45;&gt;n22</title>
<path fill="none" stroke="black" d="M1646.32,-1588.59C1674.45,-1579.2 1716.93,-1565.01 1746.64,-1555.1"/>
<polygon fill="black" stroke="black" points="1746.87,-1556.49 1750.22,-1553.9 1745.98,-1553.84 1746.87,-1556.49"/>
</g>
<!-- n23 -->
<g id="node24" class="node">
<title>n23</title>
<polygon fill="none" stroke="black" points="891,-1553 383,-1553 383,-1532.25 891,-1532.25 891,-1553"/>
<text text-anchor="middle" x="637" y="-1539.5" font-family="Menlo" font-size="10.00">constantDeclaration=[attributes][declarationModifiers]·letpatternInitializerList,0</text>
</g>
<!-- n20&#45;&gt;n23 -->
<g id="edge24" class="edge">
<title>n20&#45;&gt;n23</title>
<path fill="none" stroke="black" d="M631.68,-1588.59C630.08,-1580.26 629.82,-1568.16 630.91,-1558.61"/>
<polygon fill="black" stroke="black" points="632.27,-1558.99 631.48,-1554.83 629.5,-1558.57 632.27,-1558.99"/>
</g>
<!-- n24 -->
<g id="node25" class="node">
<title>n24</title>
<polygon fill="none" stroke="black" points="1649,-1496.25 1327,-1496.25 1327,-1475.5 1649,-1475.5 1649,-1496.25"/>
<text text-anchor="start" x="1335" y="-1482.75" font-family="Menlo" font-size="10.00">patternInitializer=bindingPattern[initializer·],2,4</text>
</g>
<!-- n21&#45;&gt;n24 -->
<g id="edge26" class="edge">
<title>n21&#45;&gt;n24</title>
<path fill="none" stroke="black" d="M1459.26,-1531.84C1464.73,-1523.27 1472.75,-1510.73 1478.93,-1501.06"/>
<polygon fill="black" stroke="black" points="1480.01,-1501.98 1480.98,-1497.85 1477.65,-1500.47 1480.01,-1501.98"/>
</g>
<!-- n25 -->
<g id="node26" class="node">
<title>n25</title>
<path fill="none" stroke="black" d="M1267.08,-1496.25C1267.08,-1496.25 1156.92,-1496.25 1156.92,-1496.25 1153.46,-1496.25 1150,-1492.79 1150,-1489.33 1150,-1489.33 1150,-1482.42 1150,-1482.42 1150,-1478.96 1153.46,-1475.5 1156.92,-1475.5 1156.92,-1475.5 1267.08,-1475.5 1267.08,-1475.5 1270.54,-1475.5 1274,-1478.96 1274,-1482.42 1274,-1482.42 1274,-1489.33 1274,-1489.33 1274,-1492.79 1270.54,-1496.25 1267.08,-1496.25"/>
<text text-anchor="start" x="1158" y="-1482.75" font-family="Menlo" font-size="10.00">bindingPattern,1,2</text>
</g>
<!-- n21&#45;&gt;n25 -->
<g id="edge25" class="edge">
<title>n21&#45;&gt;n25</title>
<path fill="none" stroke="black" d="M1409.64,-1531.77C1367.7,-1522.25 1304.27,-1507.84 1260.64,-1497.93"/>
<polygon fill="black" stroke="black" points="1261.11,-1496.6 1256.9,-1497.07 1260.49,-1499.33 1261.11,-1496.6"/>
</g>
<!-- n26 -->
<g id="node27" class="node">
<title>n26</title>
<polygon fill="none" stroke="black" points="2148,-1496.25 1826,-1496.25 1826,-1475.5 2148,-1475.5 2148,-1496.25"/>
<text text-anchor="start" x="1834" y="-1482.75" font-family="Menlo" font-size="10.00">patternInitializer=bindingPattern[initializer·],4,4</text>
</g>
<!-- n22&#45;&gt;n26 -->
<g id="edge28" class="edge">
<title>n22&#45;&gt;n26</title>
<path fill="none" stroke="black" d="M1817.83,-1531.84C1853.6,-1522.33 1907.85,-1507.91 1945.22,-1497.98"/>
<polygon fill="black" stroke="black" points="1945.17,-1499.44 1948.68,-1497.06 1944.46,-1496.73 1945.17,-1499.44"/>
</g>
<!-- n27 -->
<g id="node28" class="node">
<title>n27</title>
<path fill="none" stroke="black" d="M1801.08,-1496.25C1801.08,-1496.25 1690.92,-1496.25 1690.92,-1496.25 1687.46,-1496.25 1684,-1492.79 1684,-1489.33 1684,-1489.33 1684,-1482.42 1684,-1482.42 1684,-1478.96 1687.46,-1475.5 1690.92,-1475.5 1690.92,-1475.5 1801.08,-1475.5 1801.08,-1475.5 1804.54,-1475.5 1808,-1478.96 1808,-1482.42 1808,-1482.42 1808,-1489.33 1808,-1489.33 1808,-1492.79 1804.54,-1496.25 1801.08,-1496.25"/>
<text text-anchor="start" x="1692" y="-1482.75" font-family="Menlo" font-size="10.00">bindingPattern,1,4</text>
</g>
<!-- n22&#45;&gt;n27 -->
<g id="edge27" class="edge">
<title>n22&#45;&gt;n27</title>
<path fill="none" stroke="black" d="M1774.74,-1531.84C1769.27,-1523.27 1761.25,-1510.73 1755.07,-1501.06"/>
<polygon fill="black" stroke="black" points="1756.35,-1500.47 1753.02,-1497.85 1753.99,-1501.98 1756.35,-1500.47"/>
</g>
<!-- n23&#45;&gt;n20 -->
<g id="edge29" class="edge">
<title>n23&#45;&gt;n20</title>
<path fill="none" stroke="black" d="M642.3,-1553.33C643.91,-1561.63 644.18,-1573.73 643.1,-1583.29"/>
<polygon fill="black" stroke="black" points="641.74,-1582.93 642.54,-1587.09 644.51,-1583.34 641.74,-1582.93"/>
</g>
<!-- n28 -->
<g id="node29" class="node">
<title>n28</title>
<polygon fill="none" stroke="black" points="820,-1496.25 300,-1496.25 300,-1475.5 820,-1475.5 820,-1496.25"/>
<text text-anchor="start" x="308" y="-1482.75" font-family="Menlo" font-size="10.00">constantDeclaration=[attributes·][declarationModifiers]letpatternInitializerList,0,0</text>
</g>
<!-- n23&#45;&gt;n28 -->
<g id="edge30" class="edge">
<title>n23&#45;&gt;n28</title>
<path fill="none" stroke="black" d="M623.23,-1531.84C610.64,-1522.88 591.93,-1509.58 578.12,-1499.76"/>
<polygon fill="black" stroke="black" points="578.95,-1498.63 574.88,-1497.46 577.33,-1500.91 578.95,-1498.63"/>
</g>
<!-- n29 -->
<g id="node30" class="node">
<title>n29</title>
<polygon fill="none" stroke="black" points="2004,-1439.5 1694,-1439.5 1694,-1418.75 2004,-1418.75 2004,-1439.5"/>
<text text-anchor="middle" x="1849" y="-1426" font-family="Menlo" font-size="10.00">patternInitializer=bindingPattern[initializer·],2</text>
</g>
<!-- n24&#45;&gt;n29 -->
<g id="edge31" class="edge">
<title>n24&#45;&gt;n29</title>
<path fill="none" stroke="black" d="M1552.96,-1475.02C1616.53,-1465.38 1713.11,-1450.74 1778.52,-1440.81"/>
<polygon fill="black" stroke="black" points="1778.72,-1442.2 1782.46,-1440.22 1778.3,-1439.43 1778.72,-1442.2"/>
</g>
<!-- n30 -->
<g id="node31" class="node">
<title>n30</title>
<polygon fill="none" stroke="black" points="836,-1439.5 526,-1439.5 526,-1418.75 836,-1418.75 836,-1439.5"/>
<text text-anchor="middle" x="681" y="-1426" font-family="Menlo" font-size="10.00">bindingPattern=wildcardPattern[typeAnnotation]·,2</text>
</g>
<!-- n25&#45;&gt;n30 -->
<g id="edge32" class="edge">
<title>n25&#45;&gt;n30</title>
<path fill="none" stroke="black" d="M1149.53,-1478.43C1058.94,-1469.09 890.14,-1451.69 781.81,-1440.52"/>
<polygon fill="black" stroke="black" points="782,-1439.13 777.88,-1440.11 781.71,-1441.92 782,-1439.13"/>
</g>
<!-- n31 -->
<g id="node32" class="node">
<title>n31</title>
<polygon fill="none" stroke="black" points="1309,-1439.5 987,-1439.5 987,-1418.75 1309,-1418.75 1309,-1439.5"/>
<text text-anchor="middle" x="1148" y="-1426" font-family="Menlo" font-size="10.00">bindingPattern=identifierPattern[typeAnnotation]·,2</text>
</g>
<!-- n25&#45;&gt;n31 -->
<g id="edge33" class="edge">
<title>n25&#45;&gt;n31</title>
<path fill="none" stroke="black" d="M1200.56,-1475.09C1190.18,-1466.21 1174.81,-1453.06 1163.36,-1443.27"/>
<polygon fill="black" stroke="black" points="1164.44,-1442.35 1160.49,-1440.81 1162.62,-1444.48 1164.44,-1442.35"/>
</g>
<!-- n32 -->
<g id="node33" class="node">
<title>n32</title>
<polygon fill="none" stroke="black" points="1673,-1439.5 1339,-1439.5 1339,-1418.75 1673,-1418.75 1673,-1439.5"/>
<text text-anchor="middle" x="1506" y="-1426" font-family="Menlo" font-size="10.00">bindingPattern=tupleBindingPattern[typeAnnotation]·,2</text>
</g>
<!-- n25&#45;&gt;n32 -->
<g id="edge34" class="edge">
<title>n25&#45;&gt;n32</title>
<path fill="none" stroke="black" d="M1264.9,-1475.02C1316.37,-1465.44 1394.38,-1450.91 1447.63,-1440.99"/>
<polygon fill="black" stroke="black" points="1447.86,-1442.38 1451.54,-1440.27 1447.35,-1439.62 1447.86,-1442.38"/>
</g>
<!-- n33 -->
<g id="node34" class="node">
<title>n33</title>
<polygon fill="none" stroke="black" points="2148,-815.25 1838,-815.25 1838,-794.5 2148,-794.5 2148,-815.25"/>
<text text-anchor="middle" x="1993" y="-801.75" font-family="Menlo" font-size="10.00">patternInitializer=bindingPattern[initializer·],4</text>
</g>
<!-- n26&#45;&gt;n33 -->
<g id="edge35" class="edge">
<title>n26&#45;&gt;n33</title>
<path fill="none" stroke="black" d="M1994.34,-1475.02C2007.56,-1456.26 2034,-1413.71 2034,-1373.38 2034,-1373.38 2034,-1373.38 2034,-917.38 2034,-880.52 2014.03,-840.8 2001.96,-820.16"/>
<polygon fill="black" stroke="black" points="2003.25,-819.59 2000,-816.88 2000.85,-821.03 2003.25,-819.59"/>
</g>
<!-- n34 -->
<g id="node35" class="node">
<title>n34</title>
<polygon fill="none" stroke="black" points="508,-1439.5 0,-1439.5 0,-1418.75 508,-1418.75 508,-1439.5"/>
<text text-anchor="middle" x="254" y="-1426" font-family="Menlo" font-size="10.00">constantDeclaration=[attributes·][declarationModifiers]letpatternInitializerList,0</text>
</g>
<!-- n28&#45;&gt;n34 -->
<g id="edge36" class="edge">
<title>n28&#45;&gt;n34</title>
<path fill="none" stroke="black" d="M504.94,-1475.02C451.27,-1465.42 369.85,-1450.85 314.41,-1440.93"/>
<polygon fill="black" stroke="black" points="314.81,-1439.58 310.62,-1440.26 314.31,-1442.34 314.81,-1439.58"/>
</g>
<!-- n35 -->
<g id="node36" class="node">
<title>n35</title>
<path fill="none" stroke="black" d="M1968.08,-1382.75C1968.08,-1382.75 1875.92,-1382.75 1875.92,-1382.75 1872.46,-1382.75 1869,-1379.29 1869,-1375.83 1869,-1375.83 1869,-1368.92 1869,-1368.92 1869,-1365.46 1872.46,-1362 1875.92,-1362 1875.92,-1362 1968.08,-1362 1968.08,-1362 1971.54,-1362 1975,-1365.46 1975,-1368.92 1975,-1368.92 1975,-1375.83 1975,-1375.83 1975,-1379.29 1971.54,-1382.75 1968.08,-1382.75"/>
<text text-anchor="start" x="1877" y="-1369.25" font-family="Menlo" font-size="10.00">initializer,2,4</text>
</g>
<!-- n29&#45;&gt;n35 -->
<g id="edge37" class="edge">
<title>n29&#45;&gt;n35</title>
<path fill="none" stroke="black" d="M1862.05,-1418.34C1873.99,-1409.38 1891.73,-1396.08 1904.82,-1386.26"/>
<polygon fill="black" stroke="black" points="1905.49,-1387.51 1907.85,-1383.99 1903.81,-1385.27 1905.49,-1387.51"/>
</g>
<!-- n36 -->
<g id="node37" class="node">
<title>n36</title>
<polygon fill="none" stroke="black" points="803,-1382.75 481,-1382.75 481,-1362 803,-1362 803,-1382.75"/>
<text text-anchor="start" x="489" y="-1369.25" font-family="Menlo" font-size="10.00">bindingPattern=wildcardPattern[typeAnnotation·],2,2</text>
</g>
<!-- n30&#45;&gt;n36 -->
<g id="edge39" class="edge">
<title>n30&#45;&gt;n36</title>
<path fill="none" stroke="black" d="M674.03,-1418.34C667.93,-1409.77 658.99,-1397.23 652.11,-1387.56"/>
<polygon fill="black" stroke="black" points="653.25,-1386.76 649.79,-1384.31 650.97,-1388.38 653.25,-1386.76"/>
</g>
<!-- n37 -->
<g id="node38" class="node">
<title>n37</title>
<path fill="none" stroke="black" d="M456.08,-1382.75C456.08,-1382.75 339.92,-1382.75 339.92,-1382.75 336.46,-1382.75 333,-1379.29 333,-1375.83 333,-1375.83 333,-1368.92 333,-1368.92 333,-1365.46 336.46,-1362 339.92,-1362 339.92,-1362 456.08,-1362 456.08,-1362 459.54,-1362 463,-1365.46 463,-1368.92 463,-1368.92 463,-1375.83 463,-1375.83 463,-1379.29 459.54,-1382.75 456.08,-1382.75"/>
<text text-anchor="start" x="341" y="-1369.25" font-family="Menlo" font-size="10.00">wildcardPattern,1,2</text>
</g>
<!-- n30&#45;&gt;n37 -->
<g id="edge38" class="edge">
<title>n30&#45;&gt;n37</title>
<path fill="none" stroke="black" d="M630.08,-1418.27C580.54,-1408.69 505.44,-1394.16 454.18,-1384.24"/>
<polygon fill="black" stroke="black" points="454.67,-1382.91 450.48,-1383.53 454.14,-1385.66 454.67,-1382.91"/>
</g>
<!-- n38 -->
<g id="node39" class="node">
<title>n38</title>
<polygon fill="none" stroke="black" points="1315,-1382.75 981,-1382.75 981,-1362 1315,-1362 1315,-1382.75"/>
<text text-anchor="start" x="989" y="-1369.25" font-family="Menlo" font-size="10.00">bindingPattern=identifierPattern[typeAnnotation·],2,2</text>
</g>
<!-- n31&#45;&gt;n38 -->
<g id="edge41" class="edge">
<title>n31&#45;&gt;n38</title>
<path fill="none" stroke="black" d="M1148,-1418.34C1148,-1410.01 1148,-1397.91 1148,-1388.36"/>
<polygon fill="black" stroke="black" points="1149.4,-1388.59 1148,-1384.59 1146.6,-1388.59 1149.4,-1388.59"/>
</g>
<!-- n39 -->
<g id="node40" class="node">
<title>n39</title>
<path fill="none" stroke="black" d="M956.08,-1382.75C956.08,-1382.75 827.92,-1382.75 827.92,-1382.75 824.46,-1382.75 821,-1379.29 821,-1375.83 821,-1375.83 821,-1368.92 821,-1368.92 821,-1365.46 824.46,-1362 827.92,-1362 827.92,-1362 956.08,-1362 956.08,-1362 959.54,-1362 963,-1365.46 963,-1368.92 963,-1368.92 963,-1375.83 963,-1375.83 963,-1379.29 959.54,-1382.75 956.08,-1382.75"/>
<text text-anchor="start" x="829" y="-1369.25" font-family="Menlo" font-size="10.00">identifierPattern,1,2</text>
</g>
<!-- n31&#45;&gt;n39 -->
<g id="edge40" class="edge">
<title>n31&#45;&gt;n39</title>
<path fill="none" stroke="black" d="M1101.94,-1418.27C1057.3,-1408.73 989.74,-1394.28 943.39,-1384.36"/>
<polygon fill="black" stroke="black" points="943.81,-1383.02 939.6,-1383.56 943.22,-1385.76 943.81,-1383.02"/>
</g>
<!-- n40 -->
<g id="node41" class="node">
<title>n40</title>
<polygon fill="none" stroke="black" points="1679,-1382.75 1333,-1382.75 1333,-1362 1679,-1362 1679,-1382.75"/>
<text text-anchor="start" x="1341" y="-1369.25" font-family="Menlo" font-size="10.00">bindingPattern=tupleBindingPattern[typeAnnotation·],2,2</text>
</g>
<!-- n32&#45;&gt;n40 -->
<g id="edge43" class="edge">
<title>n32&#45;&gt;n40</title>
<path fill="none" stroke="black" d="M1506,-1418.34C1506,-1410.01 1506,-1397.91 1506,-1388.36"/>
<polygon fill="black" stroke="black" points="1507.4,-1388.59 1506,-1384.59 1504.6,-1388.59 1507.4,-1388.59"/>
</g>
<!-- n41 -->
<g id="node42" class="node">
<title>n41</title>
<path fill="none" stroke="black" d="M1844.08,-1382.75C1844.08,-1382.75 1703.92,-1382.75 1703.92,-1382.75 1700.46,-1382.75 1697,-1379.29 1697,-1375.83 1697,-1375.83 1697,-1368.92 1697,-1368.92 1697,-1365.46 1700.46,-1362 1703.92,-1362 1703.92,-1362 1844.08,-1362 1844.08,-1362 1847.54,-1362 1851,-1365.46 1851,-1368.92 1851,-1368.92 1851,-1375.83 1851,-1375.83 1851,-1379.29 1847.54,-1382.75 1844.08,-1382.75"/>
<text text-anchor="start" x="1705" y="-1369.25" font-family="Menlo" font-size="10.00">tupleBindingPattern,1,2</text>
</g>
<!-- n32&#45;&gt;n41 -->
<g id="edge42" class="edge">
<title>n32&#45;&gt;n41</title>
<path fill="none" stroke="black" d="M1554.22,-1418.27C1601.04,-1408.71 1671.96,-1394.22 1720.5,-1384.3"/>
<polygon fill="black" stroke="black" points="1720.59,-1385.71 1724.23,-1383.54 1720.03,-1382.97 1720.59,-1385.71"/>
</g>
<!-- n33&#45;&gt;n10 -->
<g id="edge44" class="edge">
<title>n33&#45;&gt;n10</title>
<path fill="none" stroke="black" d="M1989.05,-794.21C1974.57,-758.8 1924.37,-636.03 1906.98,-593.51"/>
<polygon fill="black" stroke="black" points="1908.32,-593.08 1905.51,-589.91 1905.73,-594.14 1908.32,-593.08"/>
</g>
<!-- n42 -->
<g id="node43" class="node">
<title>n42</title>
<path fill="none" stroke="black" stroke-dasharray="5,2" d="M270.08,-1382.75C270.08,-1382.75 237.92,-1382.75 237.92,-1382.75 234.46,-1382.75 231,-1379.29 231,-1375.83 231,-1375.83 231,-1368.92 231,-1368.92 231,-1365.46 234.46,-1362 237.92,-1362 237.92,-1362 270.08,-1362 270.08,-1362 273.54,-1362 277,-1365.46 277,-1368.92 277,-1368.92 277,-1375.83 277,-1375.83 277,-1379.29 273.54,-1382.75 270.08,-1382.75"/>
<text text-anchor="start" x="239" y="-1369.25" font-family="Menlo" font-size="10.00">ε,0,0</text>
</g>
<!-- n34&#45;&gt;n42 -->
<g id="edge45" class="edge">
<title>n34&#45;&gt;n42</title>
<path fill="none" stroke="black" d="M254,-1418.34C254,-1410.01 254,-1397.91 254,-1388.36"/>
<polygon fill="black" stroke="black" points="255.4,-1388.59 254,-1384.59 252.6,-1388.59 255.4,-1388.59"/>
</g>
<!-- n43 -->
<g id="node44" class="node">
<title>n43</title>
<polygon fill="none" stroke="black" points="1932,-1326 1760,-1326 1760,-1305.25 1932,-1305.25 1932,-1326"/>
<text text-anchor="middle" x="1846" y="-1312.5" font-family="Menlo" font-size="10.00">initializer==expression·,3</text>
</g>
<!-- n35&#45;&gt;n43 -->
<g id="edge46" class="edge">
<title>n35&#45;&gt;n43</title>
<path fill="none" stroke="black" d="M1908.41,-1361.59C1895.98,-1352.63 1877.51,-1339.33 1863.89,-1329.51"/>
<polygon fill="black" stroke="black" points="1864.76,-1328.42 1860.7,-1327.21 1863.12,-1330.69 1864.76,-1328.42"/>
</g>
<!-- n44 -->
<g id="node45" class="node">
<title>n44</title>
<polygon fill="none" stroke="black" points="972,-1326 662,-1326 662,-1305.25 972,-1305.25 972,-1326"/>
<text text-anchor="middle" x="817" y="-1312.5" font-family="Menlo" font-size="10.00">bindingPattern=wildcardPattern[typeAnnotation·],2</text>
</g>
<!-- n36&#45;&gt;n44 -->
<g id="edge47" class="edge">
<title>n36&#45;&gt;n44</title>
<path fill="none" stroke="black" d="M673.29,-1361.59C703.43,-1352.16 749.01,-1337.9 780.72,-1327.97"/>
<polygon fill="black" stroke="black" points="780.85,-1329.4 784.25,-1326.87 780.01,-1326.73 780.85,-1329.4"/>
</g>
<!-- n45 -->
<g id="node46" class="node">
<title>n45</title>
<polygon fill="none" stroke="black" points="1312,-1326 990,-1326 990,-1305.25 1312,-1305.25 1312,-1326"/>
<text text-anchor="middle" x="1151" y="-1312.5" font-family="Menlo" font-size="10.00">bindingPattern=identifierPattern[typeAnnotation·],2</text>
</g>
<!-- n38&#45;&gt;n45 -->
<g id="edge48" class="edge">
<title>n38&#45;&gt;n45</title>
<path fill="none" stroke="black" d="M1148.54,-1361.59C1148.99,-1353.26 1149.66,-1341.16 1150.18,-1331.61"/>
<polygon fill="black" stroke="black" points="1151.56,-1331.91 1150.39,-1327.84 1148.77,-1331.76 1151.56,-1331.91"/>
</g>
<!-- n46 -->
<g id="node47" class="node">
<title>n46</title>
<polygon fill="none" stroke="black" points="644,-1326 442,-1326 442,-1305.25 644,-1305.25 644,-1326"/>
<text text-anchor="middle" x="543" y="-1312.5" font-family="Menlo" font-size="10.00">identifierPattern=identifier·,1</text>
</g>
<!-- n39&#45;&gt;n46 -->
<g id="edge49" class="edge">
<title>n39&#45;&gt;n46</title>
<path fill="none" stroke="black" d="M829.2,-1361.52C767.74,-1351.88 674.38,-1337.24 611.14,-1327.31"/>
<polygon fill="black" stroke="black" points="611.54,-1325.96 607.38,-1326.72 611.11,-1328.73 611.54,-1325.96"/>
</g>
<!-- n47 -->
<g id="node48" class="node">
<title>n47</title>
<polygon fill="none" stroke="black" points="1667,-1326 1333,-1326 1333,-1305.25 1667,-1305.25 1667,-1326"/>
<text text-anchor="middle" x="1500" y="-1312.5" font-family="Menlo" font-size="10.00">bindingPattern=tupleBindingPattern[typeAnnotation·],2</text>
</g>
<!-- n40&#45;&gt;n47 -->
<g id="edge50" class="edge">
<title>n40&#45;&gt;n47</title>
<path fill="none" stroke="black" d="M1504.93,-1361.59C1504.01,-1353.26 1502.69,-1341.16 1501.64,-1331.61"/>
<polygon fill="black" stroke="black" points="1503.06,-1331.66 1501.23,-1327.83 1500.27,-1331.96 1503.06,-1331.66"/>
</g>
<!-- n48 -->
<g id="node49" class="node">
<title>n48</title>
<path fill="none" stroke="black" d="M1889.08,-1269.25C1889.08,-1269.25 1802.92,-1269.25 1802.92,-1269.25 1799.46,-1269.25 1796,-1265.79 1796,-1262.33 1796,-1262.33 1796,-1255.42 1796,-1255.42 1796,-1251.96 1799.46,-1248.5 1802.92,-1248.5 1802.92,-1248.5 1889.08,-1248.5 1889.08,-1248.5 1892.54,-1248.5 1896,-1251.96 1896,-1255.42 1896,-1255.42 1896,-1262.33 1896,-1262.33 1896,-1265.79 1892.54,-1269.25 1889.08,-1269.25"/>
<text text-anchor="start" x="1804" y="-1255.75" font-family="Menlo" font-size="10.00">expression,3,4</text>
</g>
<!-- n43&#45;&gt;n48 -->
<g id="edge52" class="edge">
<title>n43&#45;&gt;n48</title>
<path fill="none" stroke="black" d="M1846,-1304.84C1846,-1296.51 1846,-1284.41 1846,-1274.86"/>
<polygon fill="black" stroke="black" points="1847.4,-1275.09 1846,-1271.09 1844.6,-1275.09 1847.4,-1275.09"/>
</g>
<!-- n49 -->
<g id="node50" class="node">
<title>n49</title>
<path fill="none" stroke="black" d="M1771.08,-1269.25C1771.08,-1269.25 1726.92,-1269.25 1726.92,-1269.25 1723.46,-1269.25 1720,-1265.79 1720,-1262.33 1720,-1262.33 1720,-1255.42 1720,-1255.42 1720,-1251.96 1723.46,-1248.5 1726.92,-1248.5 1726.92,-1248.5 1771.08,-1248.5 1771.08,-1248.5 1774.54,-1248.5 1778,-1251.96 1778,-1255.42 1778,-1255.42 1778,-1262.33 1778,-1262.33 1778,-1265.79 1774.54,-1269.25 1771.08,-1269.25"/>
<text text-anchor="start" x="1728" y="-1255.75" font-family="Menlo" font-size="10.00">&quot;=&quot;,2,3</text>
</g>
<!-- n43&#45;&gt;n49 -->
<g id="edge51" class="edge">
<title>n43&#45;&gt;n49</title>
<path fill="none" stroke="black" d="M1828.66,-1304.84C1812.52,-1295.73 1788.4,-1282.11 1770.93,-1272.25"/>
<polygon fill="black" stroke="black" points="1771.68,-1271.07 1767.51,-1270.32 1770.3,-1273.51 1771.68,-1271.07"/>
</g>
<!-- n50 -->
<g id="node51" class="node">
<title>n50</title>
<path fill="none" stroke="black" stroke-dasharray="5,2" d="M1167.08,-1269.25C1167.08,-1269.25 1134.92,-1269.25 1134.92,-1269.25 1131.46,-1269.25 1128,-1265.79 1128,-1262.33 1128,-1262.33 1128,-1255.42 1128,-1255.42 1128,-1251.96 1131.46,-1248.5 1134.92,-1248.5 1134.92,-1248.5 1167.08,-1248.5 1167.08,-1248.5 1170.54,-1248.5 1174,-1251.96 1174,-1255.42 1174,-1255.42 1174,-1262.33 1174,-1262.33 1174,-1265.79 1170.54,-1269.25 1167.08,-1269.25"/>
<text text-anchor="start" x="1136" y="-1255.75" font-family="Menlo" font-size="10.00">ε,2,2</text>
</g>
<!-- n44&#45;&gt;n50 -->
<g id="edge53" class="edge">
<title>n44&#45;&gt;n50</title>
<path fill="none" stroke="black" d="M877.1,-1304.77C949.55,-1292.9 1068.31,-1273.43 1122.47,-1264.55"/>
<polygon fill="black" stroke="black" points="1122.6,-1265.95 1126.32,-1263.92 1122.15,-1263.19 1122.6,-1265.95"/>
</g>
<!-- n45&#45;&gt;n50 -->
<g id="edge54" class="edge">
<title>n45&#45;&gt;n50</title>
<path fill="none" stroke="black" d="M1151,-1304.84C1151,-1296.51 1151,-1284.41 1151,-1274.86"/>
<polygon fill="black" stroke="black" points="1152.4,-1275.09 1151,-1271.09 1149.6,-1275.09 1152.4,-1275.09"/>
</g>
<!-- n51 -->
<g id="node52" class="node">
<title>n51</title>
<path fill="none" stroke="black" d="M586.08,-1269.25C586.08,-1269.25 499.92,-1269.25 499.92,-1269.25 496.46,-1269.25 493,-1265.79 493,-1262.33 493,-1262.33 493,-1255.42 493,-1255.42 493,-1251.96 496.46,-1248.5 499.92,-1248.5 499.92,-1248.5 586.08,-1248.5 586.08,-1248.5 589.54,-1248.5 593,-1251.96 593,-1255.42 593,-1255.42 593,-1262.33 593,-1262.33 593,-1265.79 589.54,-1269.25 586.08,-1269.25"/>
<text text-anchor="start" x="501" y="-1255.75" font-family="Menlo" font-size="10.00">identifier,1,2</text>
</g>
<!-- n46&#45;&gt;n51 -->
<g id="edge55" class="edge">
<title>n46&#45;&gt;n51</title>
<path fill="none" stroke="black" d="M543,-1304.84C543,-1296.51 543,-1284.41 543,-1274.86"/>
<polygon fill="black" stroke="black" points="544.4,-1275.09 543,-1271.09 541.6,-1275.09 544.4,-1275.09"/>
</g>
<!-- n47&#45;&gt;n50 -->
<g id="edge56" class="edge">
<title>n47&#45;&gt;n50</title>
<path fill="none" stroke="black" d="M1437.2,-1304.77C1360.97,-1292.81 1235.66,-1273.16 1179.63,-1264.37"/>
<polygon fill="black" stroke="black" points="1180.09,-1263.02 1175.92,-1263.78 1179.66,-1265.79 1180.09,-1263.02"/>
</g>
<!-- n52 -->
<g id="node53" class="node">
<title>n52</title>
<polygon fill="none" stroke="black" points="2000,-1212.5 1528,-1212.5 1528,-1191.75 2000,-1191.75 2000,-1212.5"/>
<text text-anchor="middle" x="1764" y="-1199" font-family="Menlo" font-size="10.00">expression=[tryOperator][awaitOperator]prefixExpression[infixExpressions]·,4</text>
</g>
<!-- n48&#45;&gt;n52 -->
<g id="edge57" class="edge">
<title>n48&#45;&gt;n52</title>
<path fill="none" stroke="black" d="M1831.34,-1248.09C1817.81,-1239.06 1797.65,-1225.6 1782.92,-1215.76"/>
<polygon fill="black" stroke="black" points="1783.9,-1214.73 1779.79,-1213.67 1782.34,-1217.05 1783.9,-1214.73"/>
</g>
<!-- n53 -->
<g id="node54" class="node">
<title>n53</title>
<polygon fill="none" stroke="black" points="632,-1212.5 454,-1212.5 454,-1191.75 632,-1191.75 632,-1212.5"/>
<text text-anchor="middle" x="543" y="-1199" font-family="Menlo" font-size="10.00">identifier=rawIdentifier·,1</text>
</g>
<!-- n51&#45;&gt;n53 -->
<g id="edge58" class="edge">
<title>n51&#45;&gt;n53</title>
<path fill="none" stroke="black" d="M543,-1248.09C543,-1239.76 543,-1227.66 543,-1218.11"/>
<polygon fill="black" stroke="black" points="544.4,-1218.34 543,-1214.34 541.6,-1218.34 544.4,-1218.34"/>
</g>
<!-- n54 -->
<g id="node55" class="node">
<title>n54</title>
<polygon fill="none" stroke="black" points="2006,-1155.75 1522,-1155.75 1522,-1135 2006,-1135 2006,-1155.75"/>
<text text-anchor="start" x="1530" y="-1142.25" font-family="Menlo" font-size="10.00">expression=[tryOperator][awaitOperator]prefixExpression[infixExpressions·],4,4</text>
</g>
<!-- n52&#45;&gt;n54 -->
<g id="edge60" class="edge">
<title>n52&#45;&gt;n54</title>
<path fill="none" stroke="black" d="M1764,-1191.34C1764,-1183.01 1764,-1170.91 1764,-1161.36"/>
<polygon fill="black" stroke="black" points="1765.4,-1161.59 1764,-1157.59 1762.6,-1161.59 1765.4,-1161.59"/>
</g>
<!-- n55 -->
<g id="node56" class="node">
<title>n55</title>
<polygon fill="none" stroke="black" points="1504,-1155.75 1020,-1155.75 1020,-1135 1504,-1135 1504,-1155.75"/>
<text text-anchor="start" x="1028" y="-1142.25" font-family="Menlo" font-size="10.00">expression=[tryOperator][awaitOperator]prefixExpression·[infixExpressions],3,4</text>
</g>
<!-- n52&#45;&gt;n55 -->
<g id="edge59" class="edge">
<title>n52&#45;&gt;n55</title>
<path fill="none" stroke="black" d="M1673.67,-1191.27C1584.55,-1181.55 1448.81,-1166.75 1357.83,-1156.83"/>
<polygon fill="black" stroke="black" points="1358.08,-1155.45 1353.95,-1156.4 1357.78,-1158.23 1358.08,-1155.45"/>
</g>
<!-- n56 -->
<g id="node57" class="node">
<title>n56</title>
<path fill="none" stroke="black" d="M601.08,-1155.75C601.08,-1155.75 484.92,-1155.75 484.92,-1155.75 481.46,-1155.75 478,-1152.29 478,-1148.83 478,-1148.83 478,-1141.92 478,-1141.92 478,-1138.46 481.46,-1135 484.92,-1135 484.92,-1135 601.08,-1135 601.08,-1135 604.54,-1135 608,-1138.46 608,-1141.92 608,-1141.92 608,-1148.83 608,-1148.83 608,-1152.29 604.54,-1155.75 601.08,-1155.75"/>
<text text-anchor="start" x="486" y="-1142.25" font-family="Menlo" font-size="10.00">&quot;rawIdentifier&quot;,1,2</text>
</g>
<!-- n53&#45;&gt;n56 -->
<g id="edge61" class="edge">
<title>n53&#45;&gt;n56</title>
<path fill="none" stroke="black" d="M543,-1191.34C543,-1183.01 543,-1170.91 543,-1161.36"/>
<polygon fill="black" stroke="black" points="544.4,-1161.59 543,-1157.59 541.6,-1161.59 544.4,-1161.59"/>
</g>
<!-- n57 -->
<g id="node58" class="node">
<title>n57</title>
<polygon fill="none" stroke="black" points="2003,-1099 1531,-1099 1531,-1078.25 2003,-1078.25 2003,-1099"/>
<text text-anchor="middle" x="1767" y="-1085.5" font-family="Menlo" font-size="10.00">expression=[tryOperator][awaitOperator]prefixExpression[infixExpressions·],4</text>
</g>
<!-- n54&#45;&gt;n57 -->
<g id="edge62" class="edge">
<title>n54&#45;&gt;n57</title>
<path fill="none" stroke="black" d="M1764.54,-1134.59C1764.99,-1126.26 1765.66,-1114.16 1766.18,-1104.61"/>
<polygon fill="black" stroke="black" points="1767.56,-1104.91 1766.39,-1100.84 1764.77,-1104.76 1767.56,-1104.91"/>
</g>
<!-- n58 -->
<g id="node59" class="node">
<title>n58</title>
<polygon fill="none" stroke="black" points="1498,-1099 1026,-1099 1026,-1078.25 1498,-1078.25 1498,-1099"/>
<text text-anchor="middle" x="1262" y="-1085.5" font-family="Menlo" font-size="10.00">expression=[tryOperator][awaitOperator]prefixExpression·[infixExpressions],3</text>
</g>
<!-- n55&#45;&gt;n58 -->
<g id="edge63" class="edge">
<title>n55&#45;&gt;n58</title>
<path fill="none" stroke="black" d="M1262,-1134.59C1262,-1126.26 1262,-1114.16 1262,-1104.61"/>
<polygon fill="black" stroke="black" points="1263.4,-1104.84 1262,-1100.84 1260.6,-1104.84 1263.4,-1104.84"/>
</g>
<!-- n57&#45;&gt;n10 -->
<g id="edge64" class="edge">
<title>n57&#45;&gt;n10</title>
<path fill="none" stroke="black" d="M1773.53,-1077.97C1785.56,-1059.21 1810,-1016.17 1810,-976.12 1810,-976.12 1810,-976.12 1810,-690.38 1810,-646.21 1853.39,-609.87 1880.25,-591.61"/>
<polygon fill="black" stroke="black" points="1880.92,-592.85 1883.47,-589.46 1879.37,-590.52 1880.92,-592.85"/>
</g>
<!-- n59 -->
<g id="node60" class="node">
<title>n59</title>
<path fill="none" stroke="black" d="M1221.08,-1042.25C1221.08,-1042.25 1098.92,-1042.25 1098.92,-1042.25 1095.46,-1042.25 1092,-1038.79 1092,-1035.33 1092,-1035.33 1092,-1028.42 1092,-1028.42 1092,-1024.96 1095.46,-1021.5 1098.92,-1021.5 1098.92,-1021.5 1221.08,-1021.5 1221.08,-1021.5 1224.54,-1021.5 1228,-1024.96 1228,-1028.42 1228,-1028.42 1228,-1035.33 1228,-1035.33 1228,-1038.79 1224.54,-1042.25 1221.08,-1042.25"/>
<text text-anchor="start" x="1100" y="-1028.75" font-family="Menlo" font-size="10.00">prefixExpression,3,4</text>
</g>
<!-- n58&#45;&gt;n59 -->
<g id="edge65" class="edge">
<title>n58&#45;&gt;n59</title>
<path fill="none" stroke="black" d="M1243.76,-1077.84C1226.65,-1068.65 1201,-1054.88 1182.59,-1045"/>
<polygon fill="black" stroke="black" points="1183.6,-1043.95 1179.41,-1043.29 1182.27,-1046.42 1183.6,-1043.95"/>
</g>
<!-- n60 -->
<g id="node61" class="node">
<title>n60</title>
<polygon fill="none" stroke="black" points="1776,-1042.25 1292,-1042.25 1292,-1021.5 1776,-1021.5 1776,-1042.25"/>
<text text-anchor="start" x="1300" y="-1028.75" font-family="Menlo" font-size="10.00">expression=[tryOperator][awaitOperator]·prefixExpression[infixExpressions],3,3</text>
</g>
<!-- n58&#45;&gt;n60 -->
<g id="edge66" class="edge">
<title>n58&#45;&gt;n60</title>
<path fill="none" stroke="black" d="M1310.94,-1077.77C1358.46,-1068.21 1430.44,-1053.72 1479.7,-1043.8"/>
<polygon fill="black" stroke="black" points="1479.86,-1045.2 1483.51,-1043.04 1479.31,-1042.46 1479.86,-1045.2"/>
</g>
<!-- n61 -->
<g id="node62" class="node">
<title>n61</title>
<polygon fill="none" stroke="black" points="1274,-985.5 940,-985.5 940,-964.75 1274,-964.75 1274,-985.5"/>
<text text-anchor="middle" x="1107" y="-972" font-family="Menlo" font-size="10.00">prefixExpression=[prefixOperator]postfixExpression·,3</text>
</g>
<!-- n59&#45;&gt;n61 -->
<g id="edge67" class="edge">
<title>n59&#45;&gt;n61</title>
<path fill="none" stroke="black" d="M1150.52,-1021.09C1142.08,-1012.37 1129.65,-999.52 1120.23,-989.79"/>
<polygon fill="black" stroke="black" points="1121.23,-988.82 1117.45,-986.92 1119.22,-990.76 1121.23,-988.82"/>
</g>
<!-- n62 -->
<g id="node63" class="node">
<title>n62</title>
<polygon fill="none" stroke="black" points="1770,-985.5 1298,-985.5 1298,-964.75 1770,-964.75 1770,-985.5"/>
<text text-anchor="middle" x="1534" y="-972" font-family="Menlo" font-size="10.00">expression=[tryOperator][awaitOperator]·prefixExpression[infixExpressions],3</text>
</g>
<!-- n60&#45;&gt;n62 -->
<g id="edge68" class="edge">
<title>n60&#45;&gt;n62</title>
<path fill="none" stroke="black" d="M1528.68,-1021.09C1527.08,-1012.76 1526.82,-1000.66 1527.91,-991.11"/>
<polygon fill="black" stroke="black" points="1529.27,-991.49 1528.48,-987.33 1526.5,-991.07 1529.27,-991.49"/>
</g>
<!-- n63 -->
<g id="node64" class="node">
<title>n63</title>
<path fill="none" stroke="black" d="M909.08,-928.75C909.08,-928.75 780.92,-928.75 780.92,-928.75 777.46,-928.75 774,-925.29 774,-921.83 774,-921.83 774,-914.92 774,-914.92 774,-911.46 777.46,-908 780.92,-908 780.92,-908 909.08,-908 909.08,-908 912.54,-908 916,-911.46 916,-914.92 916,-914.92 916,-921.83 916,-921.83 916,-925.29 912.54,-928.75 909.08,-928.75"/>
<text text-anchor="start" x="782" y="-915.25" font-family="Menlo" font-size="10.00">postfixExpression,3,4</text>
</g>
<!-- n61&#45;&gt;n63 -->
<g id="edge69" class="edge">
<title>n61&#45;&gt;n63</title>
<path fill="none" stroke="black" d="M1059.86,-964.27C1014.18,-954.73 945.03,-940.28 897.59,-930.36"/>
<polygon fill="black" stroke="black" points="897.89,-929 893.69,-929.55 897.32,-931.74 897.89,-929"/>
</g>
<!-- n64 -->
<g id="node65" class="node">
<title>n64</title>
<polygon fill="none" stroke="black" points="1280,-928.75 934,-928.75 934,-908 1280,-908 1280,-928.75"/>
<text text-anchor="start" x="942" y="-915.25" font-family="Menlo" font-size="10.00">prefixExpression=[prefixOperator·]postfixExpression,3,3</text>
</g>
<!-- n61&#45;&gt;n64 -->
<g id="edge70" class="edge">
<title>n61&#45;&gt;n64</title>
<path fill="none" stroke="black" d="M1107,-964.34C1107,-956.01 1107,-943.91 1107,-934.36"/>
<polygon fill="black" stroke="black" points="1108.4,-934.59 1107,-930.59 1105.6,-934.59 1108.4,-934.59"/>
</g>
<!-- n62&#45;&gt;n60 -->
<g id="edge71" class="edge">
<title>n62&#45;&gt;n60</title>
<path fill="none" stroke="black" d="M1539.3,-985.83C1540.91,-994.13 1541.18,-1006.23 1540.1,-1015.79"/>
<polygon fill="black" stroke="black" points="1538.74,-1015.43 1539.54,-1019.59 1541.51,-1015.84 1538.74,-1015.43"/>
</g>
<!-- n65 -->
<g id="node66" class="node">
<title>n65</title>
<polygon fill="none" stroke="black" points="1782,-928.75 1298,-928.75 1298,-908 1782,-908 1782,-928.75"/>
<text text-anchor="start" x="1306" y="-915.25" font-family="Menlo" font-size="10.00">expression=[tryOperator·][awaitOperator]prefixExpression[infixExpressions],3,3</text>
</g>
<!-- n62&#45;&gt;n65 -->
<g id="edge72" class="edge">
<title>n62&#45;&gt;n65</title>
<path fill="none" stroke="black" d="M1535.07,-964.34C1535.99,-956.01 1537.31,-943.91 1538.36,-934.36"/>
<polygon fill="black" stroke="black" points="1539.73,-934.71 1538.77,-930.58 1536.94,-934.41 1539.73,-934.71"/>
</g>
<!-- n66 -->
<g id="node67" class="node">
<title>n66</title>
<polygon fill="none" stroke="black" points="967,-872 723,-872 723,-851.25 967,-851.25 967,-872"/>
<text text-anchor="middle" x="845" y="-858.5" font-family="Menlo" font-size="10.00">postfixExpression=primaryExpression·,3</text>
</g>
<!-- n63&#45;&gt;n66 -->
<g id="edge73" class="edge">
<title>n63&#45;&gt;n66</title>
<path fill="none" stroke="black" d="M845,-907.59C845,-899.26 845,-887.16 845,-877.61"/>
<polygon fill="black" stroke="black" points="846.4,-877.84 845,-873.84 843.6,-877.84 846.4,-877.84"/>
</g>
<!-- n67 -->
<g id="node68" class="node">
<title>n67</title>
<polygon fill="none" stroke="black" points="1481,-531.5 1147,-531.5 1147,-510.75 1481,-510.75 1481,-531.5"/>
<text text-anchor="middle" x="1314" y="-518" font-family="Menlo" font-size="10.00">prefixExpression=[prefixOperator·]postfixExpression,3</text>
</g>
<!-- n64&#45;&gt;n67 -->
<g id="edge74" class="edge">
<title>n64&#45;&gt;n67</title>
<path fill="none" stroke="black" d="M1183.2,-907.54C1242.22,-895.14 1314,-867.41 1314,-805.88 1314,-805.88 1314,-805.88 1314,-633.62 1314,-599.15 1314,-558.68 1314,-537.24"/>
<polygon fill="black" stroke="black" points="1315.4,-537.48 1314,-533.48 1312.6,-537.48 1315.4,-537.48"/>
</g>
<!-- n68 -->
<g id="node69" class="node">
<title>n68</title>
<polygon fill="none" stroke="black" points="1776,-474.75 1304,-474.75 1304,-454 1776,-454 1776,-474.75"/>
<text text-anchor="middle" x="1540" y="-461.25" font-family="Menlo" font-size="10.00">expression=[tryOperator·][awaitOperator]prefixExpression[infixExpressions],3</text>
</g>
<!-- n65&#45;&gt;n68 -->
<g id="edge75" class="edge">
<title>n65&#45;&gt;n68</title>
<path fill="none" stroke="black" d="M1540,-907.53C1540,-888.1 1540,-843.43 1540,-805.88 1540,-805.88 1540,-805.88 1540,-576.88 1540,-542.4 1540,-501.93 1540,-480.49"/>
<polygon fill="black" stroke="black" points="1541.4,-480.73 1540,-476.73 1538.6,-480.73 1541.4,-480.73"/>
</g>
<!-- n69 -->
<g id="node70" class="node">
<title>n69</title>
<path fill="none" stroke="black" d="M909.08,-815.25C909.08,-815.25 780.92,-815.25 780.92,-815.25 777.46,-815.25 774,-811.79 774,-808.33 774,-808.33 774,-801.42 774,-801.42 774,-797.96 777.46,-794.5 780.92,-794.5 780.92,-794.5 909.08,-794.5 909.08,-794.5 912.54,-794.5 916,-797.96 916,-801.42 916,-801.42 916,-808.33 916,-808.33 916,-811.79 912.54,-815.25 909.08,-815.25"/>
<text text-anchor="start" x="782" y="-801.75" font-family="Menlo" font-size="10.00">primaryExpression,3,4</text>
</g>
<!-- n66&#45;&gt;n69 -->
<g id="edge76" class="edge">
<title>n66&#45;&gt;n69</title>
<path fill="none" stroke="black" d="M845,-850.84C845,-842.51 845,-830.41 845,-820.86"/>
<polygon fill="black" stroke="black" points="846.4,-821.09 845,-817.09 843.6,-821.09 846.4,-821.09"/>
</g>
<!-- n70 -->
<g id="node71" class="node">
<title>n70</title>
<path fill="none" stroke="black" stroke-dasharray="5,2" d="M1292.08,-134.25C1292.08,-134.25 1259.92,-134.25 1259.92,-134.25 1256.46,-134.25 1253,-130.79 1253,-127.33 1253,-127.33 1253,-120.42 1253,-120.42 1253,-116.96 1256.46,-113.5 1259.92,-113.5 1259.92,-113.5 1292.08,-113.5 1292.08,-113.5 1295.54,-113.5 1299,-116.96 1299,-120.42 1299,-120.42 1299,-127.33 1299,-127.33 1299,-130.79 1295.54,-134.25 1292.08,-134.25"/>
<text text-anchor="start" x="1261" y="-120.75" font-family="Menlo" font-size="10.00">ε,3,3</text>
</g>
<!-- n67&#45;&gt;n70 -->
<g id="edge77" class="edge">
<title>n67&#45;&gt;n70</title>
<path fill="none" stroke="black" d="M1308.23,-510.36C1297.6,-491.43 1276,-448.1 1276,-408.62 1276,-408.62 1276,-408.62 1276,-236.38 1276,-201.9 1276,-161.43 1276,-139.99"/>
<polygon fill="black" stroke="black" points="1277.4,-140.23 1276,-136.23 1274.6,-140.23 1277.4,-140.23"/>
</g>
<!-- n68&#45;&gt;n70 -->
<g id="edge78" class="edge">
<title>n68&#45;&gt;n70</title>
<path fill="none" stroke="black" d="M1517.4,-453.52C1484.43,-437.42 1427,-402.17 1427,-351.88 1427,-351.88 1427,-351.88 1427,-236.38 1427,-176.09 1348.16,-144.71 1304.42,-131.94"/>
<polygon fill="black" stroke="black" points="1304.95,-130.64 1300.72,-130.89 1304.18,-133.33 1304.95,-130.64"/>
</g>
<!-- n71 -->
<g id="node72" class="node">
<title>n71</title>
<polygon fill="none" stroke="black" points="1207,-758.5 867,-758.5 867,-737.75 1207,-737.75 1207,-758.5"/>
<text text-anchor="middle" x="1037" y="-745" font-family="Menlo" font-size="10.00">primaryExpression=identifier[genericArgumentClause]·,4</text>
</g>
<!-- n69&#45;&gt;n71 -->
<g id="edge80" class="edge">
<title>n69&#45;&gt;n71</title>
<path fill="none" stroke="black" d="M879.33,-794.09C912.53,-784.62 962.81,-770.28 997.63,-760.35"/>
<polygon fill="black" stroke="black" points="997.73,-761.78 1001.19,-759.34 996.96,-759.09 997.73,-761.78"/>
</g>
<!-- n72 -->
<g id="node73" class="node">
<title>n72</title>
<polygon fill="none" stroke="black" points="849,-758.5 605,-758.5 605,-737.75 849,-737.75 849,-758.5"/>
<text text-anchor="middle" x="727" y="-745" font-family="Menlo" font-size="10.00">primaryExpression=literalExpression·,3</text>
</g>
<!-- n69&#45;&gt;n72 -->
<g id="edge79" class="edge">
<title>n69&#45;&gt;n72</title>
<path fill="none" stroke="black" d="M823.9,-794.09C804.02,-784.86 774.17,-771.01 752.86,-761.13"/>
<polygon fill="black" stroke="black" points="753.5,-759.88 749.29,-759.47 752.33,-762.42 753.5,-759.88"/>
</g>
<!-- n73 -->
<g id="node74" class="node">
<title>n73</title>
<polygon fill="none" stroke="black" points="1286,-701.75 934,-701.75 934,-681 1286,-681 1286,-701.75"/>
<text text-anchor="start" x="942" y="-688.25" font-family="Menlo" font-size="10.00">primaryExpression=identifier[genericArgumentClause·],4,4</text>
</g>
<!-- n71&#45;&gt;n73 -->
<g id="edge82" class="edge">
<title>n71&#45;&gt;n73</title>
<path fill="none" stroke="black" d="M1050.05,-737.34C1061.99,-728.38 1079.73,-715.08 1092.82,-705.26"/>
<polygon fill="black" stroke="black" points="1093.49,-706.51 1095.85,-702.99 1091.81,-704.27 1093.49,-706.51"/>
</g>
<!-- n74 -->
<g id="node75" class="node">
<title>n74</title>
<path fill="none" stroke="black" d="M909.08,-701.75C909.08,-701.75 822.92,-701.75 822.92,-701.75 819.46,-701.75 816,-698.29 816,-694.83 816,-694.83 816,-687.92 816,-687.92 816,-684.46 819.46,-681 822.92,-681 822.92,-681 909.08,-681 909.08,-681 912.54,-681 916,-684.46 916,-687.92 916,-687.92 916,-694.83 916,-694.83 916,-698.29 912.54,-701.75 909.08,-701.75"/>
<text text-anchor="start" x="824" y="-688.25" font-family="Menlo" font-size="10.00">identifier,3,4</text>
</g>
<!-- n71&#45;&gt;n74 -->
<g id="edge81" class="edge">
<title>n71&#45;&gt;n74</title>
<path fill="none" stroke="black" d="M1006.43,-737.34C977.1,-727.95 932.81,-713.76 901.83,-703.85"/>
<polygon fill="black" stroke="black" points="902.27,-702.52 898.04,-702.63 901.42,-705.19 902.27,-702.52"/>
</g>
<!-- n75 -->
<g id="node76" class="node">
<title>n75</title>
<path fill="none" stroke="black" d="M791.08,-701.75C791.08,-701.75 662.92,-701.75 662.92,-701.75 659.46,-701.75 656,-698.29 656,-694.83 656,-694.83 656,-687.92 656,-687.92 656,-684.46 659.46,-681 662.92,-681 662.92,-681 791.08,-681 791.08,-681 794.54,-681 798,-684.46 798,-687.92 798,-687.92 798,-694.83 798,-694.83 798,-698.29 794.54,-701.75 791.08,-701.75"/>
<text text-anchor="start" x="664" y="-688.25" font-family="Menlo" font-size="10.00">literalExpression,3,4</text>
</g>
<!-- n72&#45;&gt;n75 -->
<g id="edge83" class="edge">
<title>n72&#45;&gt;n75</title>
<path fill="none" stroke="black" d="M727,-737.34C727,-729.01 727,-716.91 727,-707.36"/>
<polygon fill="black" stroke="black" points="728.4,-707.59 727,-703.59 725.6,-707.59 728.4,-707.59"/>
</g>
<!-- n76 -->
<g id="node77" class="node">
<title>n76</title>
<polygon fill="none" stroke="black" points="1283,-645 943,-645 943,-624.25 1283,-624.25 1283,-645"/>
<text text-anchor="middle" x="1113" y="-631.5" font-family="Menlo" font-size="10.00">primaryExpression=identifier[genericArgumentClause·],4</text>
</g>
<!-- n73&#45;&gt;n76 -->
<g id="edge84" class="edge">
<title>n73&#45;&gt;n76</title>
<path fill="none" stroke="black" d="M1110.54,-680.59C1110.99,-672.26 1111.66,-660.16 1112.18,-650.61"/>
<polygon fill="black" stroke="black" points="1113.56,-650.91 1112.39,-646.84 1110.77,-650.76 1113.56,-650.91"/>
</g>
<!-- n77 -->
<g id="node78" class="node">
<title>n77</title>
<polygon fill="none" stroke="black" points="891,-645 707,-645 707,-624.25 891,-624.25 891,-645"/>
<text text-anchor="middle" x="799" y="-631.5" font-family="Menlo" font-size="10.00">literalExpression=literal·,3</text>
</g>
<!-- n75&#45;&gt;n77 -->
<g id="edge85" class="edge">
<title>n75&#45;&gt;n77</title>
<path fill="none" stroke="black" d="M739.87,-680.59C751.65,-671.63 769.14,-658.33 782.05,-648.51"/>
<polygon fill="black" stroke="black" points="782.7,-649.78 785.03,-646.24 781,-647.55 782.7,-649.78"/>
</g>
<!-- n76&#45;&gt;n10 -->
<g id="edge86" class="edge">
<title>n76&#45;&gt;n10</title>
<path fill="none" stroke="black" d="M1254.79,-623.77C1445.92,-610.49 1773.66,-587.72 1872.17,-580.88"/>
<polygon fill="black" stroke="black" points="1872.11,-582.29 1876,-580.61 1871.92,-579.49 1872.11,-582.29"/>
</g>
<!-- n78 -->
<g id="node79" class="node">
<title>n78</title>
<path fill="none" stroke="black" d="M833.08,-588.25C833.08,-588.25 764.92,-588.25 764.92,-588.25 761.46,-588.25 758,-584.79 758,-581.33 758,-581.33 758,-574.42 758,-574.42 758,-570.96 761.46,-567.5 764.92,-567.5 764.92,-567.5 833.08,-567.5 833.08,-567.5 836.54,-567.5 840,-570.96 840,-574.42 840,-574.42 840,-581.33 840,-581.33 840,-584.79 836.54,-588.25 833.08,-588.25"/>
<text text-anchor="start" x="766" y="-574.75" font-family="Menlo" font-size="10.00">literal,3,4</text>
</g>
<!-- n77&#45;&gt;n78 -->
<g id="edge87" class="edge">
<title>n77&#45;&gt;n78</title>
<path fill="none" stroke="black" d="M799,-623.84C799,-615.51 799,-603.41 799,-593.86"/>
<polygon fill="black" stroke="black" points="800.4,-594.09 799,-590.09 797.6,-594.09 800.4,-594.09"/>
</g>
<!-- n79 -->
<g id="node80" class="node">
<title>n79</title>
<polygon fill="none" stroke="black" points="915,-531.5 749,-531.5 749,-510.75 915,-510.75 915,-531.5"/>
<text text-anchor="middle" x="832" y="-518" font-family="Menlo" font-size="10.00">literal=numericLiteral·,3</text>
</g>
<!-- n78&#45;&gt;n79 -->
<g id="edge88" class="edge">
<title>n78&#45;&gt;n79</title>
<path fill="none" stroke="black" d="M804.9,-567.09C810.06,-558.52 817.62,-545.98 823.45,-536.31"/>
<polygon fill="black" stroke="black" points="824.5,-537.27 825.37,-533.12 822.11,-535.83 824.5,-537.27"/>
</g>
<!-- n80 -->
<g id="node81" class="node">
<title>n80</title>
<path fill="none" stroke="black" d="M903.08,-474.75C903.08,-474.75 792.92,-474.75 792.92,-474.75 789.46,-474.75 786,-471.29 786,-467.83 786,-467.83 786,-460.92 786,-460.92 786,-457.46 789.46,-454 792.92,-454 792.92,-454 903.08,-454 903.08,-454 906.54,-454 910,-457.46 910,-460.92 910,-460.92 910,-467.83 910,-467.83 910,-471.29 906.54,-474.75 903.08,-474.75"/>
<text text-anchor="start" x="794" y="-461.25" font-family="Menlo" font-size="10.00">numericLiteral,3,4</text>
</g>
<!-- n79&#45;&gt;n80 -->
<g id="edge89" class="edge">
<title>n79&#45;&gt;n80</title>
<path fill="none" stroke="black" d="M834.86,-510.34C837.29,-502.01 840.83,-489.91 843.62,-480.36"/>
<polygon fill="black" stroke="black" points="844.96,-480.76 844.74,-476.53 842.27,-479.98 844.96,-480.76"/>
</g>
<!-- n81 -->
<g id="node82" class="node">
<title>n81</title>
<polygon fill="none" stroke="black" points="978,-418 734,-418 734,-397.25 978,-397.25 978,-418"/>
<text text-anchor="middle" x="856" y="-404.5" font-family="Menlo" font-size="10.00">numericLiteral=signedIntegerLiteral·,3</text>
</g>
<!-- n80&#45;&gt;n81 -->
<g id="edge90" class="edge">
<title>n80&#45;&gt;n81</title>
<path fill="none" stroke="black" d="M849.43,-453.59C850.65,-445.26 852.42,-433.16 853.81,-423.61"/>
<polygon fill="black" stroke="black" points="855.17,-423.99 854.36,-419.83 852.4,-423.58 855.17,-423.99"/>
</g>
<!-- n82 -->
<g id="node83" class="node">
<title>n82</title>
<path fill="none" stroke="black" d="M933.08,-361.25C933.08,-361.25 786.92,-361.25 786.92,-361.25 783.46,-361.25 780,-357.79 780,-354.33 780,-354.33 780,-347.42 780,-347.42 780,-343.96 783.46,-340.5 786.92,-340.5 786.92,-340.5 933.08,-340.5 933.08,-340.5 936.54,-340.5 940,-343.96 940,-347.42 940,-347.42 940,-354.33 940,-354.33 940,-357.79 936.54,-361.25 933.08,-361.25"/>
<text text-anchor="start" x="788" y="-347.75" font-family="Menlo" font-size="10.00">signedIntegerLiteral,3,4</text>
</g>
<!-- n81&#45;&gt;n82 -->
<g id="edge91" class="edge">
<title>n81&#45;&gt;n82</title>
<path fill="none" stroke="black" d="M856.72,-396.84C857.32,-388.51 858.21,-376.41 858.91,-366.86"/>
<polygon fill="black" stroke="black" points="860.29,-367.18 859.18,-363.09 857.49,-366.98 860.29,-367.18"/>
</g>
<!-- n83 -->
<g id="node84" class="node">
<title>n83</title>
<polygon fill="none" stroke="black" points="993,-304.5 731,-304.5 731,-283.75 993,-283.75 993,-304.5"/>
<text text-anchor="middle" x="862" y="-291" font-family="Menlo" font-size="10.00">signedIntegerLiteral=[&#45;]integerLiteral·,3</text>
</g>
<!-- n82&#45;&gt;n83 -->
<g id="edge92" class="edge">
<title>n82&#45;&gt;n83</title>
<path fill="none" stroke="black" d="M860.36,-340.09C860.66,-331.76 861.1,-319.66 861.45,-310.11"/>
<polygon fill="black" stroke="black" points="862.84,-310.39 861.59,-306.34 860.05,-310.29 862.84,-310.39"/>
</g>
<!-- n84 -->
<g id="node85" class="node">
<title>n84</title>
<path fill="none" stroke="black" d="M917.08,-247.75C917.08,-247.75 806.92,-247.75 806.92,-247.75 803.46,-247.75 800,-244.29 800,-240.83 800,-240.83 800,-233.92 800,-233.92 800,-230.46 803.46,-227 806.92,-227 806.92,-227 917.08,-227 917.08,-227 920.54,-227 924,-230.46 924,-233.92 924,-233.92 924,-240.83 924,-240.83 924,-244.29 920.54,-247.75 917.08,-247.75"/>
<text text-anchor="start" x="808" y="-234.25" font-family="Menlo" font-size="10.00">integerLiteral,3,4</text>
</g>
<!-- n83&#45;&gt;n84 -->
<g id="edge93" class="edge">
<title>n83&#45;&gt;n84</title>
<path fill="none" stroke="black" d="M862,-283.34C862,-275.01 862,-262.91 862,-253.36"/>
<polygon fill="black" stroke="black" points="863.4,-253.59 862,-249.59 860.6,-253.59 863.4,-253.59"/>
</g>
<!-- n85 -->
<g id="node86" class="node">
<title>n85</title>
<polygon fill="none" stroke="black" points="1232,-247.75 958,-247.75 958,-227 1232,-227 1232,-247.75"/>
<text text-anchor="start" x="966" y="-234.25" font-family="Menlo" font-size="10.00">signedIntegerLiteral=[&#45;·]integerLiteral,3,3</text>
</g>
<!-- n83&#45;&gt;n85 -->
<g id="edge94" class="edge">
<title>n83&#45;&gt;n85</title>
<path fill="none" stroke="black" d="M903.92,-283.27C944.38,-273.77 1005.54,-259.4 1047.72,-249.49"/>
<polygon fill="black" stroke="black" points="1047.97,-250.86 1051.55,-248.59 1047.33,-248.14 1047.97,-250.86"/>
</g>
<!-- n86 -->
<g id="node87" class="node">
<title>n86</title>
<polygon fill="none" stroke="black" points="966,-191 758,-191 758,-170.25 966,-170.25 966,-191"/>
<text text-anchor="middle" x="862" y="-177.5" font-family="Menlo" font-size="10.00">integerLiteral=decimalLiteral·,3</text>
</g>
<!-- n84&#45;&gt;n86 -->
<g id="edge95" class="edge">
<title>n84&#45;&gt;n86</title>
<path fill="none" stroke="black" d="M862,-226.59C862,-218.26 862,-206.16 862,-196.61"/>
<polygon fill="black" stroke="black" points="863.4,-196.84 862,-192.84 860.6,-196.84 863.4,-196.84"/>
</g>
<!-- n87 -->
<g id="node88" class="node">
<title>n87</title>
<polygon fill="none" stroke="black" points="1247,-191 985,-191 985,-170.25 1247,-170.25 1247,-191"/>
<text text-anchor="middle" x="1116" y="-177.5" font-family="Menlo" font-size="10.00">signedIntegerLiteral=[&#45;·]integerLiteral,3</text>
</g>
<!-- n85&#45;&gt;n87 -->
<g id="edge96" class="edge">
<title>n85&#45;&gt;n87</title>
<path fill="none" stroke="black" d="M1098.75,-226.59C1101.98,-218.18 1106.68,-205.93 1110.36,-196.34"/>
<polygon fill="black" stroke="black" points="1111.61,-196.98 1111.74,-192.74 1109,-195.97 1111.61,-196.98"/>
</g>
<!-- n88 -->
<g id="node89" class="node">
<title>n88</title>
<path fill="none" stroke="black" d="M917.08,-134.25C917.08,-134.25 806.92,-134.25 806.92,-134.25 803.46,-134.25 800,-130.79 800,-127.33 800,-127.33 800,-120.42 800,-120.42 800,-116.96 803.46,-113.5 806.92,-113.5 806.92,-113.5 917.08,-113.5 917.08,-113.5 920.54,-113.5 924,-116.96 924,-120.42 924,-120.42 924,-127.33 924,-127.33 924,-130.79 920.54,-134.25 917.08,-134.25"/>
<text text-anchor="start" x="808" y="-120.75" font-family="Menlo" font-size="10.00">decimalLiteral,3,4</text>
</g>
<!-- n86&#45;&gt;n88 -->
<g id="edge97" class="edge">
<title>n86&#45;&gt;n88</title>
<path fill="none" stroke="black" d="M862,-169.84C862,-161.51 862,-149.41 862,-139.86"/>
<polygon fill="black" stroke="black" points="863.4,-140.09 862,-136.09 860.6,-140.09 863.4,-140.09"/>
</g>
<!-- n87&#45;&gt;n70 -->
<g id="edge98" class="edge">
<title>n87&#45;&gt;n70</title>
<path fill="none" stroke="black" d="M1144.6,-169.84C1173.75,-159.86 1218.68,-144.49 1247.71,-134.56"/>
<polygon fill="black" stroke="black" points="1247.82,-136 1251.15,-133.38 1246.91,-133.35 1247.82,-136"/>
</g>
<!-- n89 -->
<g id="node90" class="node">
<title>n89</title>
<polygon fill="none" stroke="black" points="963,-77.5 761,-77.5 761,-56.75 963,-56.75 963,-77.5"/>
<text text-anchor="middle" x="862" y="-64" font-family="Menlo" font-size="10.00">decimalLiteral=decimalNumber·,3</text>
</g>
<!-- n88&#45;&gt;n89 -->
<g id="edge99" class="edge">
<title>n88&#45;&gt;n89</title>
<path fill="none" stroke="black" d="M862,-113.09C862,-104.76 862,-92.66 862,-83.11"/>
<polygon fill="black" stroke="black" points="863.4,-83.34 862,-79.34 860.6,-83.34 863.4,-83.34"/>
</g>
<!-- n90 -->
<g id="node91" class="node">
<title>n90</title>
<path fill="none" stroke="black" d="M920.08,-20.75C920.08,-20.75 803.92,-20.75 803.92,-20.75 800.46,-20.75 797,-17.29 797,-13.83 797,-13.83 797,-6.92 797,-6.92 797,-3.46 800.46,0 803.92,0 803.92,0 920.08,0 920.08,0 923.54,0 927,-3.46 927,-6.92 927,-6.92 927,-13.83 927,-13.83 927,-17.29 923.54,-20.75 920.08,-20.75"/>
<text text-anchor="start" x="805" y="-7.25" font-family="Menlo" font-size="10.00">&quot;decimalNumber&quot;,3,4</text>
</g>
<!-- n89&#45;&gt;n90 -->
<g id="edge100" class="edge">
<title>n89&#45;&gt;n90</title>
<path fill="none" stroke="black" d="M862,-56.34C862,-48.01 862,-35.91 862,-26.36"/>
<polygon fill="black" stroke="black" points="863.4,-26.59 862,-22.59 860.6,-26.59 863.4,-26.59"/>
</g>
</g>
</svg>
