<?xml version="1.0" encoding="UTF-8" standalone="no"?>
<!DOCTYPE svg PUBLIC "-//W3C//DTD SVG 1.1//EN"
 "http://www.w3.org/Graphics/SVG/1.1/DTD/svg11.dtd">
<!-- Generated by graphviz version 9.0.0 (20230911.1827)
 -->
<!-- Title: SPPF Pages: 1 -->
<svg width="280pt" height="369pt"
 viewBox="0.00 0.00 280.00 369.25" xmlns="http://www.w3.org/2000/svg" xmlns:xlink="http://www.w3.org/1999/xlink">
<g id="graph0" class="graph" transform="scale(1 1) rotate(0) translate(4 365.25)">
<title>SPPF</title>
<polygon fill="white" stroke="none" points="-4,4 -4,-365.25 276,-365.25 276,4 -4,4"/>
<!-- n0 -->
<g id="node1" class="node">
<title>n0</title>
<path fill="none" stroke="black" d="M151.08,-361.25C151.08,-361.25 118.92,-361.25 118.92,-361.25 115.46,-361.25 112,-357.79 112,-354.33 112,-354.33 112,-347.42 112,-347.42 112,-343.96 115.46,-340.5 118.92,-340.5 118.92,-340.5 151.08,-340.5 151.08,-340.5 154.54,-340.5 158,-343.96 158,-347.42 158,-347.42 158,-354.33 158,-354.33 158,-357.79 154.54,-361.25 151.08,-361.25"/>
<text text-anchor="start" x="120" y="-347.75" font-family="Menlo" font-size="10.00">S,0,3</text>
</g>
<!-- n1 -->
<g id="node2" class="node">
<title>n1</title>
<polygon fill="none" stroke="black" points="167,-304.5 103,-304.5 103,-283.75 167,-283.75 167,-304.5"/>
<text text-anchor="middle" x="135" y="-291" font-family="Menlo" font-size="10.00">S=aAB·,1</text>
</g>
<!-- n0&#45;&gt;n1 -->
<g id="edge1" class="edge">
<title>n0&#45;&gt;n1</title>
<path fill="none" stroke="black" d="M135,-340.09C135,-331.76 135,-319.66 135,-310.11"/>
<polygon fill="black" stroke="black" points="136.4,-310.34 135,-306.34 133.6,-310.34 136.4,-310.34"/>
</g>
<!-- n2 -->
<g id="node3" class="node">
<title>n2</title>
<path fill="none" stroke="black" d="M112.08,-247.75C112.08,-247.75 79.92,-247.75 79.92,-247.75 76.46,-247.75 73,-244.29 73,-240.83 73,-240.83 73,-233.92 73,-233.92 73,-230.46 76.46,-227 79.92,-227 79.92,-227 112.08,-227 112.08,-227 115.54,-227 119,-230.46 119,-233.92 119,-233.92 119,-240.83 119,-240.83 119,-244.29 115.54,-247.75 112.08,-247.75"/>
<text text-anchor="start" x="81" y="-234.25" font-family="Menlo" font-size="10.00">B,1,3</text>
</g>
<!-- n1&#45;&gt;n2 -->
<g id="edge2" class="edge">
<title>n1&#45;&gt;n2</title>
<path fill="none" stroke="black" d="M128.03,-283.34C121.93,-274.77 112.99,-262.23 106.11,-252.56"/>
<polygon fill="black" stroke="black" points="107.25,-251.76 103.79,-249.31 104.97,-253.38 107.25,-251.76"/>
</g>
<!-- n3 -->
<g id="node4" class="node">
<title>n3</title>
<polygon fill="none" stroke="black" points="213,-247.75 137,-247.75 137,-227 213,-227 213,-247.75"/>
<text text-anchor="start" x="145" y="-234.25" font-family="Menlo" font-size="10.00">S=aA·B,0,1</text>
</g>
<!-- n1&#45;&gt;n3 -->
<g id="edge3" class="edge">
<title>n1&#45;&gt;n3</title>
<path fill="none" stroke="black" d="M142.15,-283.34C148.46,-274.69 157.74,-262 164.83,-252.3"/>
<polygon fill="black" stroke="black" points="165.79,-253.36 167.02,-249.3 163.53,-251.7 165.79,-253.36"/>
</g>
<!-- n4 -->
<g id="node5" class="node">
<title>n4</title>
<polygon fill="none" stroke="black" points="125,-191 67,-191 67,-170.25 125,-170.25 125,-191"/>
<text text-anchor="middle" x="96" y="-177.5" font-family="Menlo" font-size="10.00">B=Bc·,2</text>
</g>
<!-- n2&#45;&gt;n4 -->
<g id="edge4" class="edge">
<title>n2&#45;&gt;n4</title>
<path fill="none" stroke="black" d="M96,-226.59C96,-218.26 96,-206.16 96,-196.61"/>
<polygon fill="black" stroke="black" points="97.4,-196.84 96,-192.84 94.6,-196.84 97.4,-196.84"/>
</g>
<!-- n5 -->
<g id="node6" class="node">
<title>n5</title>
<polygon fill="none" stroke="black" points="207,-191 143,-191 143,-170.25 207,-170.25 207,-191"/>
<text text-anchor="middle" x="175" y="-177.5" font-family="Menlo" font-size="10.00">S=aA·B,1</text>
</g>
<!-- n3&#45;&gt;n5 -->
<g id="edge5" class="edge">
<title>n3&#45;&gt;n5</title>
<path fill="none" stroke="black" d="M175,-226.59C175,-218.26 175,-206.16 175,-196.61"/>
<polygon fill="black" stroke="black" points="176.4,-196.84 175,-192.84 173.6,-196.84 176.4,-196.84"/>
</g>
<!-- n6 -->
<g id="node7" class="node">
<title>n6</title>
<path fill="none" stroke="black" d="M51.08,-134.25C51.08,-134.25 6.92,-134.25 6.92,-134.25 3.46,-134.25 0,-130.79 0,-127.33 0,-127.33 0,-120.42 0,-120.42 0,-116.96 3.46,-113.5 6.92,-113.5 6.92,-113.5 51.08,-113.5 51.08,-113.5 54.54,-113.5 58,-116.96 58,-120.42 58,-120.42 58,-127.33 58,-127.33 58,-130.79 54.54,-134.25 51.08,-134.25"/>
<text text-anchor="start" x="8" y="-120.75" font-family="Menlo" font-size="10.00">&quot;c&quot;,2,3</text>
</g>
<!-- n4&#45;&gt;n6 -->
<g id="edge6" class="edge">
<title>n4&#45;&gt;n6</title>
<path fill="none" stroke="black" d="M84.02,-169.84C73.16,-160.96 57.06,-147.81 45.08,-138.02"/>
<polygon fill="black" stroke="black" points="46.03,-136.98 42.05,-135.54 44.26,-139.15 46.03,-136.98"/>
</g>
<!-- n7 -->
<g id="node8" class="node">
<title>n7</title>
<path fill="none" stroke="black" d="M115.08,-134.25C115.08,-134.25 82.92,-134.25 82.92,-134.25 79.46,-134.25 76,-130.79 76,-127.33 76,-127.33 76,-120.42 76,-120.42 76,-116.96 79.46,-113.5 82.92,-113.5 82.92,-113.5 115.08,-113.5 115.08,-113.5 118.54,-113.5 122,-116.96 122,-120.42 122,-120.42 122,-127.33 122,-127.33 122,-130.79 118.54,-134.25 115.08,-134.25"/>
<text text-anchor="start" x="84" y="-120.75" font-family="Menlo" font-size="10.00">B,1,2</text>
</g>
<!-- n4&#45;&gt;n7 -->
<g id="edge7" class="edge">
<title>n4&#45;&gt;n7</title>
<path fill="none" stroke="black" d="M96.54,-169.84C96.99,-161.51 97.66,-149.41 98.18,-139.86"/>
<polygon fill="black" stroke="black" points="99.56,-140.16 98.39,-136.09 96.77,-140.01 99.56,-140.16"/>
</g>
<!-- n8 -->
<g id="node9" class="node">
<title>n8</title>
<path fill="none" stroke="black" d="M189.08,-134.25C189.08,-134.25 156.92,-134.25 156.92,-134.25 153.46,-134.25 150,-130.79 150,-127.33 150,-127.33 150,-120.42 150,-120.42 150,-116.96 153.46,-113.5 156.92,-113.5 156.92,-113.5 189.08,-113.5 189.08,-113.5 192.54,-113.5 196,-116.96 196,-120.42 196,-120.42 196,-127.33 196,-127.33 196,-130.79 192.54,-134.25 189.08,-134.25"/>
<text text-anchor="start" x="158" y="-120.75" font-family="Menlo" font-size="10.00">A,1,1</text>
</g>
<!-- n5&#45;&gt;n8 -->
<g id="edge8" class="edge">
<title>n5&#45;&gt;n8</title>
<path fill="none" stroke="black" d="M174.64,-169.84C174.34,-161.51 173.9,-149.41 173.55,-139.86"/>
<polygon fill="black" stroke="black" points="174.95,-140.04 173.41,-136.09 172.16,-140.14 174.95,-140.04"/>
</g>
<!-- n9 -->
<g id="node10" class="node">
<title>n9</title>
<path fill="none" stroke="black" d="M265.08,-134.25C265.08,-134.25 220.92,-134.25 220.92,-134.25 217.46,-134.25 214,-130.79 214,-127.33 214,-127.33 214,-120.42 214,-120.42 214,-116.96 217.46,-113.5 220.92,-113.5 220.92,-113.5 265.08,-113.5 265.08,-113.5 268.54,-113.5 272,-116.96 272,-120.42 272,-120.42 272,-127.33 272,-127.33 272,-130.79 268.54,-134.25 265.08,-134.25"/>
<text text-anchor="start" x="222" y="-120.75" font-family="Menlo" font-size="10.00">&quot;a&quot;,0,1</text>
</g>
<!-- n5&#45;&gt;n9 -->
<g id="edge9" class="edge">
<title>n5&#45;&gt;n9</title>
<path fill="none" stroke="black" d="M187.16,-169.84C198.18,-160.96 214.52,-147.81 226.68,-138.02"/>
<polygon fill="black" stroke="black" points="227.53,-139.13 229.77,-135.53 225.78,-136.95 227.53,-139.13"/>
</g>
<!-- n10 -->
<g id="node11" class="node">
<title>n10</title>
<polygon fill="none" stroke="black" points="125,-77.5 73,-77.5 73,-56.75 125,-56.75 125,-77.5"/>
<text text-anchor="middle" x="99" y="-64" font-family="Menlo" font-size="10.00">B=b·,1</text>
</g>
<!-- n7&#45;&gt;n10 -->
<g id="edge10" class="edge">
<title>n7&#45;&gt;n10</title>
<path fill="none" stroke="black" d="M99,-113.09C99,-104.76 99,-92.66 99,-83.11"/>
<polygon fill="black" stroke="black" points="100.4,-83.34 99,-79.34 97.6,-83.34 100.4,-83.34"/>
</g>
<!-- n11 -->
<g id="node12" class="node">
<title>n11</title>
<polygon fill="none" stroke="black" points="199,-77.5 147,-77.5 147,-56.75 199,-56.75 199,-77.5"/>
<text text-anchor="middle" x="173" y="-64" font-family="Menlo" font-size="10.00">A=ε·,1</text>
</g>
<!-- n8&#45;&gt;n11 -->
<g id="edge11" class="edge">
<title>n8&#45;&gt;n11</title>
<path fill="none" stroke="black" d="M173,-113.09C173,-104.76 173,-92.66 173,-83.11"/>
<polygon fill="black" stroke="black" points="174.4,-83.34 173,-79.34 171.6,-83.34 174.4,-83.34"/>
</g>
<!-- n12 -->
<g id="node13" class="node">
<title>n12</title>
<path fill="none" stroke="black" d="M121.08,-20.75C121.08,-20.75 76.92,-20.75 76.92,-20.75 73.46,-20.75 70,-17.29 70,-13.83 70,-13.83 70,-6.92 70,-6.92 70,-3.46 73.46,0 76.92,0 76.92,0 121.08,0 121.08,0 124.54,0 128,-3.46 128,-6.92 128,-6.92 128,-13.83 128,-13.83 128,-17.29 124.54,-20.75 121.08,-20.75"/>
<text text-anchor="start" x="78" y="-7.25" font-family="Menlo" font-size="10.00">&quot;b&quot;,1,2</text>
</g>
<!-- n10&#45;&gt;n12 -->
<g id="edge12" class="edge">
<title>n10&#45;&gt;n12</title>
<path fill="none" stroke="black" d="M99,-56.34C99,-48.01 99,-35.91 99,-26.36"/>
<polygon fill="black" stroke="black" points="100.4,-26.59 99,-22.59 97.6,-26.59 100.4,-26.59"/>
</g>
<!-- n13 -->
<g id="node14" class="node">
<title>n13</title>
<path fill="none" stroke="black" stroke-dasharray="5,2" d="M189.08,-20.75C189.08,-20.75 156.92,-20.75 156.92,-20.75 153.46,-20.75 150,-17.29 150,-13.83 150,-13.83 150,-6.92 150,-6.92 150,-3.46 153.46,0 156.92,0 156.92,0 189.08,0 189.08,0 192.54,0 196,-3.46 196,-6.92 196,-6.92 196,-13.83 196,-13.83 196,-17.29 192.54,-20.75 189.08,-20.75"/>
<text text-anchor="start" x="158" y="-7.25" font-family="Menlo" font-size="10.00">ε,1,1</text>
</g>
<!-- n11&#45;&gt;n13 -->
<g id="edge13" class="edge">
<title>n11&#45;&gt;n13</title>
<path fill="none" stroke="black" d="M173,-56.34C173,-48.01 173,-35.91 173,-26.36"/>
<polygon fill="black" stroke="black" points="174.4,-26.59 173,-22.59 171.6,-26.59 174.4,-26.59"/>
</g>
</g>
</svg>
