<?xml version="1.0" encoding="UTF-8" standalone="no"?>
<!DOCTYPE svg PUBLIC "-//W3C//DTD SVG 1.1//EN"
 "http://www.w3.org/Graphics/SVG/1.1/DTD/svg11.dtd">
<!-- Generated by graphviz version 9.0.0 (20230911.1827)
 -->
<!-- Title: SPPF Pages: 1 -->
<svg width="96pt" height="29pt"
 viewBox="0.00 0.00 96.00 28.75" xmlns="http://www.w3.org/2000/svg" xmlns:xlink="http://www.w3.org/1999/xlink">
<g id="graph0" class="graph" transform="scale(1 1) rotate(0) translate(4 24.75)">
<title>SPPF</title>
<polygon fill="white" stroke="none" points="-4,4 -4,-24.75 92,-24.75 92,4 -4,4"/>
<!-- n0 -->
<g id="node1" class="node">
<title>n0</title>
<path fill="none" stroke="black" d="M81.08,-20.75C81.08,-20.75 6.92,-20.75 6.92,-20.75 3.46,-20.75 0,-17.29 0,-13.83 0,-13.83 0,-6.92 0,-6.92 0,-3.46 3.46,0 6.92,0 6.92,0 81.08,0 81.08,0 84.54,0 88,-3.46 88,-6.92 88,-6.92 88,-13.83 88,-13.83 88,-17.29 84.54,-20.75 81.08,-20.75"/>
<text text-anchor="start" x="8" y="-7.25" font-family="Menlo" font-size="10.00">article,0,25</text>
</g>
</g>
</svg>
