<?xml version="1.0" encoding="UTF-8" standalone="no"?>
<!DOCTYPE svg PUBLIC "-//W3C//DTD SVG 1.1//EN"
 "http://www.w3.org/Graphics/SVG/1.1/DTD/svg11.dtd">
<!-- Generated by graphviz version 9.0.0 (20230911.1827)
 -->
<!-- Title: SPPF Pages: 1 -->
<svg width="162pt" height="142pt"
 viewBox="0.00 0.00 162.00 142.25" xmlns="http://www.w3.org/2000/svg" xmlns:xlink="http://www.w3.org/1999/xlink">
<g id="graph0" class="graph" transform="scale(1 1) rotate(0) translate(4 138.25)">
<title>SPPF</title>
<polygon fill="white" stroke="none" points="-4,4 -4,-138.25 158,-138.25 158,4 -4,4"/>
<!-- n0 -->
<g id="node1" class="node">
<title>n0</title>
<path fill="none" stroke="black" d="M114.08,-134.25C114.08,-134.25 39.92,-134.25 39.92,-134.25 36.46,-134.25 33,-130.79 33,-127.33 33,-127.33 33,-120.42 33,-120.42 33,-116.96 36.46,-113.5 39.92,-113.5 39.92,-113.5 114.08,-113.5 114.08,-113.5 117.54,-113.5 121,-116.96 121,-120.42 121,-120.42 121,-127.33 121,-127.33 121,-130.79 117.54,-134.25 114.08,-134.25"/>
<text text-anchor="start" x="41" y="-120.75" font-family="Menlo" font-size="10.00">operator,0,1</text>
</g>
<!-- n1 -->
<g id="node2" class="node">
<title>n1</title>
<polygon fill="none" stroke="black" points="154,-77.5 0,-77.5 0,-56.75 154,-56.75 154,-77.5"/>
<text text-anchor="middle" x="77" y="-64" font-family="Menlo" font-size="10.00">operator=rawOperator·,0</text>
</g>
<!-- n0&#45;&gt;n1 -->
<g id="edge1" class="edge">
<title>n0&#45;&gt;n1</title>
<path fill="none" stroke="black" d="M77,-113.09C77,-104.76 77,-92.66 77,-83.11"/>
<polygon fill="black" stroke="black" points="78.4,-83.34 77,-79.34 75.6,-83.34 78.4,-83.34"/>
</g>
<!-- n2 -->
<g id="node3" class="node">
<title>n2</title>
<path fill="none" stroke="black" d="M129.08,-20.75C129.08,-20.75 24.92,-20.75 24.92,-20.75 21.46,-20.75 18,-17.29 18,-13.83 18,-13.83 18,-6.92 18,-6.92 18,-3.46 21.46,0 24.92,0 24.92,0 129.08,0 129.08,0 132.54,0 136,-3.46 136,-6.92 136,-6.92 136,-13.83 136,-13.83 136,-17.29 132.54,-20.75 129.08,-20.75"/>
<text text-anchor="start" x="26" y="-7.25" font-family="Menlo" font-size="10.00">&quot;rawOperator&quot;,0,1</text>
</g>
<!-- n1&#45;&gt;n2 -->
<g id="edge2" class="edge">
<title>n1&#45;&gt;n2</title>
<path fill="none" stroke="black" d="M77,-56.34C77,-48.01 77,-35.91 77,-26.36"/>
<polygon fill="black" stroke="black" points="78.4,-26.59 77,-22.59 75.6,-26.59 78.4,-26.59"/>
</g>
</g>
</svg>
