<?xml version="1.0" encoding="UTF-8" standalone="no"?>
<!DOCTYPE svg PUBLIC "-//W3C//DTD SVG 1.1//EN"
 "http://www.w3.org/Graphics/SVG/1.1/DTD/svg11.dtd">
<!-- Generated by graphviz version 9.0.0 (20230911.1827)
 -->
<!-- Title: SPPF Pages: 1 -->
<svg width="1137pt" height="483pt"
 viewBox="0.00 0.00 1137.00 482.75" xmlns="http://www.w3.org/2000/svg" xmlns:xlink="http://www.w3.org/1999/xlink">
<g id="graph0" class="graph" transform="scale(1 1) rotate(0) translate(4 478.75)">
<title>SPPF</title>
<polygon fill="white" stroke="none" points="-4,4 -4,-478.75 1133,-478.75 1133,4 -4,4"/>
<!-- n0 -->
<g id="node1" class="node">
<title>n0</title>
<path fill="none" stroke="black" d="M741.08,-474.75C741.08,-474.75 672.92,-474.75 672.92,-474.75 669.46,-474.75 666,-471.29 666,-467.83 666,-467.83 666,-460.92 666,-460.92 666,-457.46 669.46,-454 672.92,-454 672.92,-454 741.08,-454 741.08,-454 744.54,-454 748,-457.46 748,-460.92 748,-460.92 748,-467.83 748,-467.83 748,-471.29 744.54,-474.75 741.08,-474.75"/>
<text text-anchor="start" x="674" y="-461.25" font-family="Menlo" font-size="10.00">grammar,0,3</text>
</g>
<!-- n1 -->
<g id="node2" class="node">
<title>n1</title>
<polygon fill="none" stroke="black" points="793,-418 621,-418 621,-397.25 793,-397.25 793,-418"/>
<text text-anchor="middle" x="707" y="-404.5" font-family="Menlo" font-size="10.00">grammar={stringLiteral}·,0</text>
</g>
<!-- n0&#45;&gt;n1 -->
<g id="edge1" class="edge">
<title>n0&#45;&gt;n1</title>
<path fill="none" stroke="black" d="M707,-453.59C707,-445.26 707,-433.16 707,-423.61"/>
<polygon fill="black" stroke="black" points="708.4,-423.84 707,-419.84 705.6,-423.84 708.4,-423.84"/>
</g>
<!-- n2 -->
<g id="node3" class="node">
<title>n2</title>
<polygon fill="none" stroke="black" points="799,-361.25 615,-361.25 615,-340.5 799,-340.5 799,-361.25"/>
<text text-anchor="start" x="623" y="-347.75" font-family="Menlo" font-size="10.00">grammar={stringLiteral·},0,3</text>
</g>
<!-- n1&#45;&gt;n2 -->
<g id="edge2" class="edge">
<title>n1&#45;&gt;n2</title>
<path fill="none" stroke="black" d="M707,-396.84C707,-388.51 707,-376.41 707,-366.86"/>
<polygon fill="black" stroke="black" points="708.4,-367.09 707,-363.09 705.6,-367.09 708.4,-367.09"/>
</g>
<!-- n3 -->
<g id="node4" class="node">
<title>n3</title>
<polygon fill="none" stroke="black" points="793,-304.5 621,-304.5 621,-283.75 793,-283.75 793,-304.5"/>
<text text-anchor="middle" x="707" y="-291" font-family="Menlo" font-size="10.00">grammar={stringLiteral·},0</text>
</g>
<!-- n2&#45;&gt;n3 -->
<g id="edge3" class="edge">
<title>n2&#45;&gt;n3</title>
<path fill="none" stroke="black" d="M707,-340.09C707,-331.76 707,-319.66 707,-310.11"/>
<polygon fill="black" stroke="black" points="708.4,-310.34 707,-306.34 705.6,-310.34 708.4,-310.34"/>
</g>
<!-- n4 -->
<g id="node5" class="node">
<title>n4</title>
<path fill="none" stroke="black" d="M759.08,-247.75C759.08,-247.75 654.92,-247.75 654.92,-247.75 651.46,-247.75 648,-244.29 648,-240.83 648,-240.83 648,-233.92 648,-233.92 648,-230.46 651.46,-227 654.92,-227 654.92,-227 759.08,-227 759.08,-227 762.54,-227 766,-230.46 766,-233.92 766,-233.92 766,-240.83 766,-240.83 766,-244.29 762.54,-247.75 759.08,-247.75"/>
<text text-anchor="start" x="656" y="-234.25" font-family="Menlo" font-size="10.00">stringLiteral,0,3</text>
</g>
<!-- n3&#45;&gt;n4 -->
<g id="edge4" class="edge">
<title>n3&#45;&gt;n4</title>
<path fill="none" stroke="black" d="M707,-283.34C707,-275.01 707,-262.91 707,-253.36"/>
<polygon fill="black" stroke="black" points="708.4,-253.59 707,-249.59 705.6,-253.59 708.4,-253.59"/>
</g>
<!-- n5 -->
<g id="node6" class="node">
<title>n5</title>
<polygon fill="none" stroke="black" points="841,-191 573,-191 573,-170.25 841,-170.25 841,-191"/>
<text text-anchor="middle" x="707" y="-177.5" font-family="Menlo" font-size="10.00">stringLiteral=interpolatedStringLiteral·,0</text>
</g>
<!-- n4&#45;&gt;n5 -->
<g id="edge5" class="edge">
<title>n4&#45;&gt;n5</title>
<path fill="none" stroke="black" d="M707,-226.59C707,-218.26 707,-206.16 707,-196.61"/>
<polygon fill="black" stroke="black" points="708.4,-196.84 707,-192.84 705.6,-196.84 708.4,-196.84"/>
</g>
<!-- n6 -->
<g id="node7" class="node">
<title>n6</title>
<path fill="none" stroke="black" d="M795.08,-134.25C795.08,-134.25 618.92,-134.25 618.92,-134.25 615.46,-134.25 612,-130.79 612,-127.33 612,-127.33 612,-120.42 612,-120.42 612,-116.96 615.46,-113.5 618.92,-113.5 618.92,-113.5 795.08,-113.5 795.08,-113.5 798.54,-113.5 802,-116.96 802,-120.42 802,-120.42 802,-127.33 802,-127.33 802,-130.79 798.54,-134.25 795.08,-134.25"/>
<text text-anchor="start" x="620" y="-120.75" font-family="Menlo" font-size="10.00">interpolatedStringLiteral,0,3</text>
</g>
<!-- n5&#45;&gt;n6 -->
<g id="edge6" class="edge">
<title>n5&#45;&gt;n6</title>
<path fill="none" stroke="black" d="M707,-169.84C707,-161.51 707,-149.41 707,-139.86"/>
<polygon fill="black" stroke="black" points="708.4,-140.09 707,-136.09 705.6,-140.09 708.4,-140.09"/>
</g>
<!-- n7 -->
<g id="node8" class="node">
<title>n7</title>
<polygon fill="none" stroke="black" points="1129,-77.5 285,-77.5 285,-56.75 1129,-56.75 1129,-77.5"/>
<text text-anchor="middle" x="707" y="-64" font-family="Menlo" font-size="10.00">interpolatedStringLiteral=interpolatedStringLiteralHeadexpression{interpolatedStringLiteralPartexpression}interpolatedStringLiteralTail·,2</text>
</g>
<!-- n6&#45;&gt;n7 -->
<g id="edge7" class="edge">
<title>n6&#45;&gt;n7</title>
<path fill="none" stroke="black" d="M707,-113.09C707,-104.76 707,-92.66 707,-83.11"/>
<polygon fill="black" stroke="black" points="708.4,-83.34 707,-79.34 705.6,-83.34 708.4,-83.34"/>
</g>
<!-- n8 -->
<g id="node9" class="node">
<title>n8</title>
<path fill="none" stroke="black" d="M1093.08,-20.75C1093.08,-20.75 880.92,-20.75 880.92,-20.75 877.46,-20.75 874,-17.29 874,-13.83 874,-13.83 874,-6.92 874,-6.92 874,-3.46 877.46,0 880.92,0 880.92,0 1093.08,0 1093.08,0 1096.54,0 1100,-3.46 1100,-6.92 1100,-6.92 1100,-13.83 1100,-13.83 1100,-17.29 1096.54,-20.75 1093.08,-20.75"/>
<text text-anchor="start" x="882" y="-7.25" font-family="Menlo" font-size="10.00">&quot;interpolatedStringLiteralTail&quot;,2,3</text>
</g>
<!-- n7&#45;&gt;n8 -->
<g id="edge9" class="edge">
<title>n7&#45;&gt;n8</title>
<path fill="none" stroke="black" d="M757.38,-56.27C806.4,-46.69 880.7,-32.16 931.41,-22.24"/>
<polygon fill="black" stroke="black" points="931.41,-23.67 935.07,-21.53 930.87,-20.92 931.41,-23.67"/>
</g>
<!-- n9 -->
<g id="node10" class="node">
<title>n9</title>
<polygon fill="none" stroke="black" points="856,-20.75 0,-20.75 0,0 856,0 856,-20.75"/>
<text text-anchor="start" x="8" y="-7.25" font-family="Menlo" font-size="10.00">interpolatedStringLiteral=interpolatedStringLiteralHeadexpression{interpolatedStringLiteralPartexpression}·interpolatedStringLiteralTail,0,2</text>
</g>
<!-- n7&#45;&gt;n9 -->
<g id="edge8" class="edge">
<title>n7&#45;&gt;n9</title>
<path fill="none" stroke="black" d="M656.8,-56.27C607.96,-46.69 533.92,-32.16 483.39,-22.24"/>
<polygon fill="black" stroke="black" points="483.95,-20.93 479.75,-21.53 483.41,-23.68 483.95,-20.93"/>
</g>
</g>
</svg>
