<?xml version="1.0" encoding="UTF-8" standalone="no"?>
<!DOCTYPE svg PUBLIC "-//W3C//DTD SVG 1.1//EN"
 "http://www.w3.org/Graphics/SVG/1.1/DTD/svg11.dtd">
<!-- Generated by graphviz version 9.0.0 (20230911.1827)
 -->
<!-- Title: SPPF Pages: 1 -->
<svg width="246pt" height="256pt"
 viewBox="0.00 0.00 246.00 255.75" xmlns="http://www.w3.org/2000/svg" xmlns:xlink="http://www.w3.org/1999/xlink">
<g id="graph0" class="graph" transform="scale(1 1) rotate(0) translate(4 251.75)">
<title>SPPF</title>
<polygon fill="white" stroke="none" points="-4,4 -4,-251.75 242,-251.75 242,4 -4,4"/>
<!-- n0 -->
<g id="node1" class="node">
<title>n0</title>
<path fill="none" stroke="black" d="M189.08,-247.75C189.08,-247.75 48.92,-247.75 48.92,-247.75 45.46,-247.75 42,-244.29 42,-240.83 42,-240.83 42,-233.92 42,-233.92 42,-230.46 45.46,-227 48.92,-227 48.92,-227 189.08,-227 189.08,-227 192.54,-227 196,-230.46 196,-233.92 196,-233.92 196,-240.83 196,-240.83 196,-244.29 192.54,-247.75 189.08,-247.75"/>
<text text-anchor="start" x="50" y="-234.25" font-family="Menlo" font-size="10.00">topLevelDeclaration,0,0</text>
</g>
<!-- n1 -->
<g id="node2" class="node">
<title>n1</title>
<polygon fill="none" stroke="black" points="232,-191 6,-191 6,-170.25 232,-170.25 232,-191"/>
<text text-anchor="middle" x="119" y="-177.5" font-family="Menlo" font-size="10.00">topLevelDeclaration=[statements]·,0</text>
</g>
<!-- n0&#45;&gt;n1 -->
<g id="edge1" class="edge">
<title>n0&#45;&gt;n1</title>
<path fill="none" stroke="black" d="M119,-226.59C119,-218.26 119,-206.16 119,-196.61"/>
<polygon fill="black" stroke="black" points="120.4,-196.84 119,-192.84 117.6,-196.84 120.4,-196.84"/>
</g>
<!-- n2 -->
<g id="node3" class="node">
<title>n2</title>
<polygon fill="none" stroke="black" points="238,-134.25 0,-134.25 0,-113.5 238,-113.5 238,-134.25"/>
<text text-anchor="start" x="8" y="-120.75" font-family="Menlo" font-size="10.00">topLevelDeclaration=[statements·],0,0</text>
</g>
<!-- n1&#45;&gt;n2 -->
<g id="edge2" class="edge">
<title>n1&#45;&gt;n2</title>
<path fill="none" stroke="black" d="M119,-169.84C119,-161.51 119,-149.41 119,-139.86"/>
<polygon fill="black" stroke="black" points="120.4,-140.09 119,-136.09 117.6,-140.09 120.4,-140.09"/>
</g>
<!-- n3 -->
<g id="node4" class="node">
<title>n3</title>
<polygon fill="none" stroke="black" points="232,-77.5 6,-77.5 6,-56.75 232,-56.75 232,-77.5"/>
<text text-anchor="middle" x="119" y="-64" font-family="Menlo" font-size="10.00">topLevelDeclaration=[statements·],0</text>
</g>
<!-- n2&#45;&gt;n3 -->
<g id="edge3" class="edge">
<title>n2&#45;&gt;n3</title>
<path fill="none" stroke="black" d="M119,-113.09C119,-104.76 119,-92.66 119,-83.11"/>
<polygon fill="black" stroke="black" points="120.4,-83.34 119,-79.34 117.6,-83.34 120.4,-83.34"/>
</g>
<!-- n4 -->
<g id="node5" class="node">
<title>n4</title>
<path fill="none" stroke="black" stroke-dasharray="5,2" d="M135.08,-20.75C135.08,-20.75 102.92,-20.75 102.92,-20.75 99.46,-20.75 96,-17.29 96,-13.83 96,-13.83 96,-6.92 96,-6.92 96,-3.46 99.46,0 102.92,0 102.92,0 135.08,0 135.08,0 138.54,0 142,-3.46 142,-6.92 142,-6.92 142,-13.83 142,-13.83 142,-17.29 138.54,-20.75 135.08,-20.75"/>
<text text-anchor="start" x="104" y="-7.25" font-family="Menlo" font-size="10.00">ε,0,0</text>
</g>
<!-- n3&#45;&gt;n4 -->
<g id="edge4" class="edge">
<title>n3&#45;&gt;n4</title>
<path fill="none" stroke="black" d="M119,-56.34C119,-48.01 119,-35.91 119,-26.36"/>
<polygon fill="black" stroke="black" points="120.4,-26.59 119,-22.59 117.6,-26.59 120.4,-26.59"/>
</g>
</g>
</svg>
