<?xml version="1.0" encoding="UTF-8" standalone="no"?>
<!DOCTYPE svg PUBLIC "-//W3C//DTD SVG 1.1//EN"
 "http://www.w3.org/Graphics/SVG/1.1/DTD/svg11.dtd">
<!-- Generated by graphviz version 9.0.0 (20230911.1827)
 -->
<!-- Title: SPPF Pages: 1 -->
<svg width="224pt" height="163pt"
 viewBox="0.00 0.00 223.83 162.80" xmlns="http://www.w3.org/2000/svg" xmlns:xlink="http://www.w3.org/1999/xlink">
<g id="graph0" class="graph" transform="scale(1 1) rotate(0) translate(4 158.8)">
<title>SPPF</title>
<polygon fill="white" stroke="none" points="-4,4 -4,-158.8 219.83,-158.8 219.83,4 -4,4"/>
<!-- n0 -->
<g id="node1" class="node">
<title>n0</title>
<ellipse fill="none" stroke="black" cx="100.83" cy="-136.8" rx="35.49" ry="18"/>
<text text-anchor="start" x="79.83" y="-133.68" font-family="Menlo" font-size="10.00">S, 0, 3</text>
</g>
<!-- n1 -->
<g id="node2" class="node">
<title>n1</title>
<g id="a_node2"><a xlink:title="S=a(b|c)d·, 2">
<ellipse fill="black" stroke="black" cx="100.83" cy="-77.4" rx="5.4" ry="5.4"/>
</a>
</g>
</g>
<!-- n0&#45;&gt;n1 -->
<g id="edge1" class="edge">
<title>n0&#45;&gt;n1</title>
<path fill="none" stroke="black" d="M100.83,-118.58C100.83,-108.7 100.83,-96.66 100.83,-88.35"/>
<polygon fill="black" stroke="black" points="102.23,-88.78 100.83,-84.78 99.43,-88.78 102.23,-88.78"/>
</g>
<!-- n2 -->
<g id="node3" class="node">
<title>n2</title>
<ellipse fill="none" stroke="black" cx="42.83" cy="-18" rx="42.83" ry="18"/>
<text text-anchor="start" x="15.83" y="-14.88" font-family="Menlo" font-size="10.00">&quot;d&quot;, 2, 3</text>
</g>
<!-- n1&#45;&gt;n2 -->
<g id="edge2" class="edge">
<title>n1&#45;&gt;n2</title>
<path fill="none" stroke="black" d="M97.38,-72.98C90.7,-66.38 75.58,-51.41 62.94,-38.9"/>
<polygon fill="black" stroke="black" points="64.02,-38 60.19,-36.18 62.05,-39.99 64.02,-38"/>
</g>
<!-- n3 -->
<g id="node4" class="node">
<title>n3</title>
<polygon fill="none" stroke="black" points="215.83,-36 103.83,-36 103.83,0 215.83,0 215.83,-36"/>
<text text-anchor="start" x="111.83" y="-14.88" font-family="Menlo" font-size="10.00">S=a·(b|c)d, 0, 2</text>
</g>
<!-- n1&#45;&gt;n3 -->
<g id="edge3" class="edge">
<title>n1&#45;&gt;n3</title>
<path fill="none" stroke="black" d="M104.34,-72.98C110.91,-66.59 125.51,-52.39 138.09,-40.15"/>
<polygon fill="black" stroke="black" points="138.94,-41.28 140.83,-37.49 136.99,-39.27 138.94,-41.28"/>
</g>
</g>
</svg>
