<?xml version="1.0" encoding="UTF-8" standalone="no"?>
<!DOCTYPE svg PUBLIC "-//W3C//DTD SVG 1.1//EN"
 "http://www.w3.org/Graphics/SVG/1.1/DTD/svg11.dtd">
<!-- Generated by graphviz version 9.0.0 (20230911.1827)
 -->
<!-- Title: SPPF Pages: 1 -->
<svg width="386pt" height="369pt"
 viewBox="0.00 0.00 386.00 369.25" xmlns="http://www.w3.org/2000/svg" xmlns:xlink="http://www.w3.org/1999/xlink">
<g id="graph0" class="graph" transform="scale(1 1) rotate(0) translate(4 365.25)">
<title>SPPF</title>
<polygon fill="white" stroke="none" points="-4,4 -4,-365.25 382,-365.25 382,4 -4,4"/>
<!-- n0 -->
<g id="node1" class="node">
<title>n0</title>
<path fill="none" stroke="black" d="M228.08,-361.25C228.08,-361.25 195.92,-361.25 195.92,-361.25 192.46,-361.25 189,-357.79 189,-354.33 189,-354.33 189,-347.42 189,-347.42 189,-343.96 192.46,-340.5 195.92,-340.5 195.92,-340.5 228.08,-340.5 228.08,-340.5 231.54,-340.5 235,-343.96 235,-347.42 235,-347.42 235,-354.33 235,-354.33 235,-357.79 231.54,-361.25 228.08,-361.25"/>
<text text-anchor="start" x="197" y="-347.75" font-family="Menlo" font-size="10.00">S,0,2</text>
</g>
<!-- n1 -->
<g id="node2" class="node">
<title>n1</title>
<polygon fill="none" stroke="black" points="202,-304.5 138,-304.5 138,-283.75 202,-283.75 202,-304.5"/>
<text text-anchor="middle" x="170" y="-291" font-family="Menlo" font-size="10.00">S=aAB·,1</text>
</g>
<!-- n0&#45;&gt;n1 -->
<g id="edge1" class="edge">
<title>n0&#45;&gt;n1</title>
<path fill="none" stroke="black" d="M204.49,-340.09C197.86,-331.44 188.12,-318.75 180.68,-309.05"/>
<polygon fill="black" stroke="black" points="181.91,-308.35 178.36,-306.03 179.69,-310.06 181.91,-308.35"/>
</g>
<!-- n2 -->
<g id="node3" class="node">
<title>n2</title>
<polygon fill="none" stroke="black" points="287,-304.5 223,-304.5 223,-283.75 287,-283.75 287,-304.5"/>
<text text-anchor="middle" x="255" y="-291" font-family="Menlo" font-size="10.00">S=aAb·,1</text>
</g>
<!-- n0&#45;&gt;n2 -->
<g id="edge2" class="edge">
<title>n0&#45;&gt;n2</title>
<path fill="none" stroke="black" d="M219.69,-340.09C226.47,-331.44 236.45,-318.75 244.06,-309.05"/>
<polygon fill="black" stroke="black" points="245.07,-310.03 246.44,-306.02 242.87,-308.3 245.07,-310.03"/>
</g>
<!-- n3 -->
<g id="node4" class="node">
<title>n3</title>
<path fill="none" stroke="black" d="M107.08,-247.75C107.08,-247.75 74.92,-247.75 74.92,-247.75 71.46,-247.75 68,-244.29 68,-240.83 68,-240.83 68,-233.92 68,-233.92 68,-230.46 71.46,-227 74.92,-227 74.92,-227 107.08,-227 107.08,-227 110.54,-227 114,-230.46 114,-233.92 114,-233.92 114,-240.83 114,-240.83 114,-244.29 110.54,-247.75 107.08,-247.75"/>
<text text-anchor="start" x="76" y="-234.25" font-family="Menlo" font-size="10.00">B,1,2</text>
</g>
<!-- n1&#45;&gt;n3 -->
<g id="edge3" class="edge">
<title>n1&#45;&gt;n3</title>
<path fill="none" stroke="black" d="M155.88,-283.34C142.84,-274.31 123.42,-260.85 109.23,-251.01"/>
<polygon fill="black" stroke="black" points="110.33,-250.07 106.25,-248.94 108.74,-252.37 110.33,-250.07"/>
</g>
<!-- n4 -->
<g id="node5" class="node">
<title>n4</title>
<polygon fill="none" stroke="black" points="208,-247.75 132,-247.75 132,-227 208,-227 208,-247.75"/>
<text text-anchor="start" x="140" y="-234.25" font-family="Menlo" font-size="10.00">S=aA·B,0,1</text>
</g>
<!-- n1&#45;&gt;n4 -->
<g id="edge4" class="edge">
<title>n1&#45;&gt;n4</title>
<path fill="none" stroke="black" d="M170,-283.34C170,-275.01 170,-262.91 170,-253.36"/>
<polygon fill="black" stroke="black" points="171.4,-253.59 170,-249.59 168.6,-253.59 171.4,-253.59"/>
</g>
<!-- n5 -->
<g id="node6" class="node">
<title>n5</title>
<path fill="none" stroke="black" d="M277.08,-247.75C277.08,-247.75 232.92,-247.75 232.92,-247.75 229.46,-247.75 226,-244.29 226,-240.83 226,-240.83 226,-233.92 226,-233.92 226,-230.46 229.46,-227 232.92,-227 232.92,-227 277.08,-227 277.08,-227 280.54,-227 284,-230.46 284,-233.92 284,-233.92 284,-240.83 284,-240.83 284,-244.29 280.54,-247.75 277.08,-247.75"/>
<text text-anchor="start" x="234" y="-234.25" font-family="Menlo" font-size="10.00">&quot;b&quot;,1,2</text>
</g>
<!-- n2&#45;&gt;n5 -->
<g id="edge5" class="edge">
<title>n2&#45;&gt;n5</title>
<path fill="none" stroke="black" d="M255,-283.34C255,-275.01 255,-262.91 255,-253.36"/>
<polygon fill="black" stroke="black" points="256.4,-253.59 255,-249.59 253.6,-253.59 256.4,-253.59"/>
</g>
<!-- n6 -->
<g id="node7" class="node">
<title>n6</title>
<polygon fill="none" stroke="black" points="378,-247.75 302,-247.75 302,-227 378,-227 378,-247.75"/>
<text text-anchor="start" x="310" y="-234.25" font-family="Menlo" font-size="10.00">S=aA·b,0,1</text>
</g>
<!-- n2&#45;&gt;n6 -->
<g id="edge6" class="edge">
<title>n2&#45;&gt;n6</title>
<path fill="none" stroke="black" d="M270.2,-283.34C284.22,-274.31 305.11,-260.85 320.39,-251.01"/>
<polygon fill="black" stroke="black" points="321.06,-252.24 323.66,-248.9 319.54,-249.89 321.06,-252.24"/>
</g>
<!-- n7 -->
<g id="node8" class="node">
<title>n7</title>
<polygon fill="none" stroke="black" points="120,-191 62,-191 62,-170.25 120,-170.25 120,-191"/>
<text text-anchor="middle" x="91" y="-177.5" font-family="Menlo" font-size="10.00">B=Bc·,1</text>
</g>
<!-- n3&#45;&gt;n7 -->
<g id="edge7" class="edge">
<title>n3&#45;&gt;n7</title>
<path fill="none" stroke="black" d="M91,-226.59C91,-218.26 91,-206.16 91,-196.61"/>
<polygon fill="black" stroke="black" points="92.4,-196.84 91,-192.84 89.6,-196.84 92.4,-196.84"/>
</g>
<!-- n8 -->
<g id="node9" class="node">
<title>n8</title>
<polygon fill="none" stroke="black" points="208,-191 144,-191 144,-170.25 208,-170.25 208,-191"/>
<text text-anchor="middle" x="176" y="-177.5" font-family="Menlo" font-size="10.00">S=aA·B,1</text>
</g>
<!-- n4&#45;&gt;n8 -->
<g id="edge8" class="edge">
<title>n4&#45;&gt;n8</title>
<path fill="none" stroke="black" d="M171.07,-226.59C171.99,-218.26 173.31,-206.16 174.36,-196.61"/>
<polygon fill="black" stroke="black" points="175.73,-196.96 174.77,-192.83 172.94,-196.66 175.73,-196.96"/>
</g>
<!-- n9 -->
<g id="node10" class="node">
<title>n9</title>
<polygon fill="none" stroke="black" points="366,-191 302,-191 302,-170.25 366,-170.25 366,-191"/>
<text text-anchor="middle" x="334" y="-177.5" font-family="Menlo" font-size="10.00">S=aA·b,1</text>
</g>
<!-- n6&#45;&gt;n9 -->
<g id="edge9" class="edge">
<title>n6&#45;&gt;n9</title>
<path fill="none" stroke="black" d="M338.93,-226.59C338.01,-218.26 336.69,-206.16 335.64,-196.61"/>
<polygon fill="black" stroke="black" points="337.06,-196.66 335.23,-192.83 334.27,-196.96 337.06,-196.66"/>
</g>
<!-- n10 -->
<g id="node11" class="node">
<title>n10</title>
<path fill="none" stroke="black" d="M51.08,-134.25C51.08,-134.25 6.92,-134.25 6.92,-134.25 3.46,-134.25 0,-130.79 0,-127.33 0,-127.33 0,-120.42 0,-120.42 0,-116.96 3.46,-113.5 6.92,-113.5 6.92,-113.5 51.08,-113.5 51.08,-113.5 54.54,-113.5 58,-116.96 58,-120.42 58,-120.42 58,-127.33 58,-127.33 58,-130.79 54.54,-134.25 51.08,-134.25"/>
<text text-anchor="start" x="8" y="-120.75" font-family="Menlo" font-size="10.00">&quot;c&quot;,1,2</text>
</g>
<!-- n7&#45;&gt;n10 -->
<g id="edge10" class="edge">
<title>n7&#45;&gt;n10</title>
<path fill="none" stroke="black" d="M79.92,-169.84C69.86,-160.96 54.97,-147.81 43.88,-138.02"/>
<polygon fill="black" stroke="black" points="45.05,-137.18 41.12,-135.58 43.19,-139.28 45.05,-137.18"/>
</g>
<!-- n11 -->
<g id="node12" class="node">
<title>n11</title>
<path fill="none" stroke="black" d="M115.08,-134.25C115.08,-134.25 82.92,-134.25 82.92,-134.25 79.46,-134.25 76,-130.79 76,-127.33 76,-127.33 76,-120.42 76,-120.42 76,-116.96 79.46,-113.5 82.92,-113.5 82.92,-113.5 115.08,-113.5 115.08,-113.5 118.54,-113.5 122,-116.96 122,-120.42 122,-120.42 122,-127.33 122,-127.33 122,-130.79 118.54,-134.25 115.08,-134.25"/>
<text text-anchor="start" x="84" y="-120.75" font-family="Menlo" font-size="10.00">B,1,1</text>
</g>
<!-- n7&#45;&gt;n11 -->
<g id="edge11" class="edge">
<title>n7&#45;&gt;n11</title>
<path fill="none" stroke="black" d="M92.43,-169.84C93.65,-161.51 95.42,-149.41 96.81,-139.86"/>
<polygon fill="black" stroke="black" points="98.17,-140.24 97.36,-136.08 95.4,-139.83 98.17,-140.24"/>
</g>
<!-- n12 -->
<g id="node13" class="node">
<title>n12</title>
<path fill="none" stroke="black" d="M192.08,-134.25C192.08,-134.25 159.92,-134.25 159.92,-134.25 156.46,-134.25 153,-130.79 153,-127.33 153,-127.33 153,-120.42 153,-120.42 153,-116.96 156.46,-113.5 159.92,-113.5 159.92,-113.5 192.08,-113.5 192.08,-113.5 195.54,-113.5 199,-116.96 199,-120.42 199,-120.42 199,-127.33 199,-127.33 199,-130.79 195.54,-134.25 192.08,-134.25"/>
<text text-anchor="start" x="161" y="-120.75" font-family="Menlo" font-size="10.00">A,1,1</text>
</g>
<!-- n8&#45;&gt;n12 -->
<g id="edge12" class="edge">
<title>n8&#45;&gt;n12</title>
<path fill="none" stroke="black" d="M176,-169.84C176,-161.51 176,-149.41 176,-139.86"/>
<polygon fill="black" stroke="black" points="177.4,-140.09 176,-136.09 174.6,-140.09 177.4,-140.09"/>
</g>
<!-- n13 -->
<g id="node14" class="node">
<title>n13</title>
<path fill="none" stroke="black" d="M268.08,-134.25C268.08,-134.25 223.92,-134.25 223.92,-134.25 220.46,-134.25 217,-130.79 217,-127.33 217,-127.33 217,-120.42 217,-120.42 217,-116.96 220.46,-113.5 223.92,-113.5 223.92,-113.5 268.08,-113.5 268.08,-113.5 271.54,-113.5 275,-116.96 275,-120.42 275,-120.42 275,-127.33 275,-127.33 275,-130.79 271.54,-134.25 268.08,-134.25"/>
<text text-anchor="start" x="225" y="-120.75" font-family="Menlo" font-size="10.00">&quot;a&quot;,0,1</text>
</g>
<!-- n8&#45;&gt;n13 -->
<g id="edge13" class="edge">
<title>n8&#45;&gt;n13</title>
<path fill="none" stroke="black" d="M188.51,-169.84C199.96,-160.88 216.97,-147.58 229.52,-137.76"/>
<polygon fill="black" stroke="black" points="230.11,-139.08 232.4,-135.51 228.39,-136.87 230.11,-139.08"/>
</g>
<!-- n9&#45;&gt;n12 -->
<g id="edge14" class="edge">
<title>n9&#45;&gt;n12</title>
<path fill="none" stroke="black" d="M305.75,-169.84C277.17,-159.93 233.23,-144.71 204.55,-134.77"/>
<polygon fill="black" stroke="black" points="205.04,-133.46 200.8,-133.47 204.13,-136.1 205.04,-133.46"/>
</g>
<!-- n14 -->
<g id="node15" class="node">
<title>n14</title>
<path fill="none" stroke="black" d="M356.08,-134.25C356.08,-134.25 311.92,-134.25 311.92,-134.25 308.46,-134.25 305,-130.79 305,-127.33 305,-127.33 305,-120.42 305,-120.42 305,-116.96 308.46,-113.5 311.92,-113.5 311.92,-113.5 356.08,-113.5 356.08,-113.5 359.54,-113.5 363,-116.96 363,-120.42 363,-120.42 363,-127.33 363,-127.33 363,-130.79 359.54,-134.25 356.08,-134.25"/>
<text text-anchor="start" x="313" y="-120.75" font-family="Menlo" font-size="10.00">&quot;a&quot;,0,1</text>
</g>
<!-- n9&#45;&gt;n14 -->
<g id="edge15" class="edge">
<title>n9&#45;&gt;n14</title>
<path fill="none" stroke="black" d="M334,-169.84C334,-161.51 334,-149.41 334,-139.86"/>
<polygon fill="black" stroke="black" points="335.4,-140.09 334,-136.09 332.6,-140.09 335.4,-140.09"/>
</g>
<!-- n15 -->
<g id="node16" class="node">
<title>n15</title>
<polygon fill="none" stroke="black" points="125,-77.5 73,-77.5 73,-56.75 125,-56.75 125,-77.5"/>
<text text-anchor="middle" x="99" y="-64" font-family="Menlo" font-size="10.00">B=ε·,1</text>
</g>
<!-- n11&#45;&gt;n15 -->
<g id="edge16" class="edge">
<title>n11&#45;&gt;n15</title>
<path fill="none" stroke="black" d="M99,-113.09C99,-104.76 99,-92.66 99,-83.11"/>
<polygon fill="black" stroke="black" points="100.4,-83.34 99,-79.34 97.6,-83.34 100.4,-83.34"/>
</g>
<!-- n16 -->
<g id="node17" class="node">
<title>n16</title>
<polygon fill="none" stroke="black" points="202,-77.5 150,-77.5 150,-56.75 202,-56.75 202,-77.5"/>
<text text-anchor="middle" x="176" y="-64" font-family="Menlo" font-size="10.00">A=ε·,1</text>
</g>
<!-- n12&#45;&gt;n16 -->
<g id="edge17" class="edge">
<title>n12&#45;&gt;n16</title>
<path fill="none" stroke="black" d="M176,-113.09C176,-104.76 176,-92.66 176,-83.11"/>
<polygon fill="black" stroke="black" points="177.4,-83.34 176,-79.34 174.6,-83.34 177.4,-83.34"/>
</g>
<!-- n17 -->
<g id="node18" class="node">
<title>n17</title>
<path fill="none" stroke="black" stroke-dasharray="5,2" d="M115.08,-20.75C115.08,-20.75 82.92,-20.75 82.92,-20.75 79.46,-20.75 76,-17.29 76,-13.83 76,-13.83 76,-6.92 76,-6.92 76,-3.46 79.46,0 82.92,0 82.92,0 115.08,0 115.08,0 118.54,0 122,-3.46 122,-6.92 122,-6.92 122,-13.83 122,-13.83 122,-17.29 118.54,-20.75 115.08,-20.75"/>
<text text-anchor="start" x="84" y="-7.25" font-family="Menlo" font-size="10.00">ε,1,1</text>
</g>
<!-- n15&#45;&gt;n17 -->
<g id="edge18" class="edge">
<title>n15&#45;&gt;n17</title>
<path fill="none" stroke="black" d="M99,-56.34C99,-48.01 99,-35.91 99,-26.36"/>
<polygon fill="black" stroke="black" points="100.4,-26.59 99,-22.59 97.6,-26.59 100.4,-26.59"/>
</g>
<!-- n18 -->
<g id="node19" class="node">
<title>n18</title>
<path fill="none" stroke="black" stroke-dasharray="5,2" d="M192.08,-20.75C192.08,-20.75 159.92,-20.75 159.92,-20.75 156.46,-20.75 153,-17.29 153,-13.83 153,-13.83 153,-6.92 153,-6.92 153,-3.46 156.46,0 159.92,0 159.92,0 192.08,0 192.08,0 195.54,0 199,-3.46 199,-6.92 199,-6.92 199,-13.83 199,-13.83 199,-17.29 195.54,-20.75 192.08,-20.75"/>
<text text-anchor="start" x="161" y="-7.25" font-family="Menlo" font-size="10.00">ε,1,1</text>
</g>
<!-- n16&#45;&gt;n18 -->
<g id="edge19" class="edge">
<title>n16&#45;&gt;n18</title>
<path fill="none" stroke="black" d="M176,-56.34C176,-48.01 176,-35.91 176,-26.36"/>
<polygon fill="black" stroke="black" points="177.4,-26.59 176,-22.59 174.6,-26.59 177.4,-26.59"/>
</g>
</g>
</svg>
